<svg xmlns="http://www.w3.org/2000/svg" xmlns:xlink="http://www.w3.org/1999/xlink" version="1.1" x="0px" y="0px" viewBox="0 0 100 125" enable-background="new 0 0 100 100" xml:space="preserve"><g><path d="M93,21.6c-0.2-0.5-0.7-0.8-1.2-0.8c-0.6,0-1.2,0.4-1.3,1c-0.6,2.7-2.4,7.7-7.3,10.2c-0.9,0.5-1.9,0.7-3,0.7   c-1.7,0-3.3-0.6-4.6-1.8l5.5-5.7c1.3-1.3,1.3-3.5,0-4.8l-1.6-1.6c-1.3-1.3-3.5-1.3-4.8,0l-5.4,5.8c-2.1-2.1-2.6-5.3-1.3-7.9   c2.5-4.9,7.4-6.7,10.2-7.3c0.6-0.1,1-0.6,1-1.2c0.1-0.6-0.3-1.1-0.8-1.4c-1.7-0.7-5.4-2-10-2c-7.6,0-14.9,3.2-21.6,9.5   c-0.1,0-0.1,0.1-0.2,0.1c-0.1,0.1-0.2,0.2-0.3,0.3L46,15.2c-0.1,0.1-0.2,0.2-0.3,0.3c-0.1,0.1-0.1,0.1-0.1,0.2   c-13,13.8-9.6,26.7-7.5,31.5c0.2,0.5,0.7,0.8,1.2,0.8c0.6,0,1.2-0.4,1.3-1c0.6-2.7,2.4-7.7,7.3-10.2c0.9-0.5,2-0.7,3-0.7   c1.8,0,3.6,0.7,4.9,2l0.1,0.1L24.2,69.7c-0.4-0.4-1-0.6-1.6-0.6c-0.6,0-1.2,0.2-1.7,0.7c-0.4,0.4-0.7,1-0.7,1.7   c0,0.5,0.2,1,0.5,1.4L9.1,84.5L6,87.6c-1.3,1.3-1.3,3.5,0,4.8L7.6,94c0.7,0.7,1.5,1,2.4,1c0.9,0,1.7-0.3,2.4-1l1.9-1.9c0,0,0,0,0,0   l1.1-1.1l11.7-11.7c0.4,0.2,0.8,0.3,1.2,0.3c0.6,0,1.2-0.2,1.7-0.7c0.7-0.7,0.9-1.8,0.5-2.6l31.8-31.5c1.6,2.1,2,4.9,0.8,7.3   c-2.5,4.9-7.4,6.7-10.2,7.3c-0.6,0.1-1,0.6-1,1.2c-0.1,0.6,0.3,1.1,0.8,1.4c1.7,0.7,5.4,2,10,2c7.6,0,14.9-3.2,21.6-9.5   c0.1,0,0.1-0.1,0.2-0.1c0.1-0.1,0.2-0.2,0.3-0.3l0.3-0.3c0.1-0.1,0.2-0.2,0.3-0.3c0.1-0.1,0.1-0.1,0.1-0.2   C98.5,39.4,95.1,26.5,93,21.6z M75.8,20c0.7-0.7,1.8-0.7,2.5,0l1.6,1.6c0.7,0.7,0.7,1.8,0,2.5l-5.5,5.7l-4-4L75.8,20z M61.3,43.6   L29.5,75l-4.2-4.2l31.7-31.5L61.3,43.6z M21.8,74l4.1,4.1l-11,11l-4.1-4.1L21.8,74z M11.3,92.9c-0.7,0.7-1.8,0.7-2.5,0l-1.6-1.6   c-0.7-0.7-0.7-1.8,0-2.5l2.5-2.5l4.1,4.1L11.3,92.9z M28.9,77.8c-0.3,0.3-0.7,0.3-1,0l-0.2-0.2l-5.3-5.3l-0.4-0.4   c-0.1-0.1-0.2-0.3-0.2-0.5c0-0.2,0.1-0.4,0.2-0.5c0.3-0.3,0.7-0.3,1,0l0.5,0.5c0,0,0,0,0,0s0,0,0,0l5.3,5.3   C29.2,77,29.2,77.5,28.9,77.8z M84.2,52.2c0,0-0.1,0.1-0.1,0.1c0,0-0.1,0.1-0.1,0.1c-0.1,0.1-0.1,0.1-0.2,0.2l-0.2,0.2   c0,0-0.1,0.1-0.1,0.1c-0.1,0-0.1,0.1-0.1,0.1c-6.4,6.1-13.3,9.2-20.6,9.2c-3.7,0-6.7-0.8-8.5-1.5c3.1-0.8,7.9-2.9,10.4-7.9   c1.6-3.2,1-7.2-1.6-9.8c0,0,0,0,0,0c0,0,0,0,0,0c0,0,0,0,0,0l-6-6c-1.6-1.6-3.8-2.5-6-2.5c-1.3,0-2.6,0.3-3.7,0.9   c-5,2.5-7.1,7.3-7.9,10.4c-1.9-5.1-4.2-16.7,7.6-29.1c0,0,0.1-0.1,0.1-0.1c0,0,0.1-0.1,0.1-0.1l0.2-0.2c0.1-0.1,0.1-0.1,0.2-0.2   c0,0,0.1-0.1,0.1-0.1c0.1,0,0.1-0.1,0.1-0.1c6.4-6.1,13.3-9.2,20.6-9.2c3.7,0,6.7,0.9,8.5,1.5C73.8,9,69,11.1,66.5,16.1   c-1.6,3.2-1,7.2,1.6,9.8l6,6c1.6,1.6,3.8,2.5,6,2.5c1.3,0,2.6-0.3,3.7-0.9c5-2.5,7.1-7.3,7.9-10.4C93.8,28.2,96,39.8,84.2,52.2z"/><path d="M65.6,31.3c-0.9,0-1.6,0.3-2.3,0.9c-0.6,0.6-0.9,1.4-0.9,2.3c0,0.9,0.3,1.6,0.9,2.3c0.6,0.6,1.4,0.9,2.3,0.9   c0.9,0,1.6-0.3,2.3-0.9c0.6-0.6,0.9-1.4,0.9-2.3c0-0.9-0.3-1.6-0.9-2.3C67.2,31.6,66.4,31.3,65.6,31.3z M66.7,35.5   c-0.6,0.6-1.6,0.6-2.2,0c-0.3-0.3-0.5-0.7-0.5-1.1s0.2-0.8,0.5-1.1c0.3-0.3,0.7-0.5,1.1-0.5c0.4,0,0.8,0.2,1.1,0.5   c0.3,0.3,0.5,0.7,0.5,1.1S66.9,35.2,66.7,35.5z"/></g><text x="0" y="115" fill="#000000" font-size="5px" font-weight="bold" font-family="'Helvetica Neue', Helvetica, Arial-Unicode, Arial, Sans-serif">Created by parkjisun</text><text x="0" y="120" fill="#000000" font-size="5px" font-weight="bold" font-family="'Helvetica Neue', Helvetica, Arial-Unicode, Arial, Sans-serif">from the Noun Project</text></svg>