<svg xmlns="http://www.w3.org/2000/svg" data-name="Layer 1" viewBox="0 0 100 125" x="0px" y="0px"><title>icons_animals_4</title><path d="M92.49,44.81a27.85,27.85,0,0,0-.25-8.87l-2,.22c0,1.3-1,3.81-2.29,6.27a28.09,28.09,0,0,1-7.38-7.64c4.13-9,2.77-9.84,2.18-10.2a3,3,0,0,0-3.06.33,1.54,1.54,0,0,0-.74-.84c-1.14-.57-4.48.77-8.23,2.67-14.64-3-29.76-.06-32.55,1-2.2.85-9.16.64-11.74.49A28.27,28.27,0,0,0,8.57,36.44,14.11,14.11,0,0,0,4.72,43.2c-1.79.84-4.25,3.22-3.4,7.71,1,5.29,1.57,6.45,1.67,6.63l1.75-1s-.52-1.11-1.46-6a5,5,0,0,1,1-4.57c-.36,4.88,1.28,9.51,2.1,11.84.2.56.37,1,.43,1.29.25,1-2.15,4.2-4.55,6.51l-.33.31.9,19.72h8.1l-.21-1.18a81.09,81.09,0,0,1-1.29-9.54c.07-1.59,1.4-2.94,3.94-4l4.55,14.73h8.63l-4.66-10-.08-.14c-.49-.71-1.34-2.48-.7-3.07a5.37,5.37,0,0,1,1.42-.65c2.2-.81,5.81-2.13,6.9-7.88a77.3,77.3,0,0,0,8.59.49,67.71,67.71,0,0,0,8.08-.48,16.83,16.83,0,0,0,1.34,6.33c1.76,3.17,4.05,14.47,4.08,14.58l.16.8h8.75l-4-10.88-.23-.14c-.1-.13-.67-1.14.56-4.19l7.44,15.21H72.5L67.44,74.93l-.11-.22-.17-.14c-.05,0-1.29-1.11-.49-3.86.85-2.93,1.86-7.39,2.19-8.85a22.16,22.16,0,0,0,3.21-1.91,10.14,10.14,0,0,0,2.15.22A24.84,24.84,0,0,0,82,58.42c.78-.27,1.52-.52,2.13-.69,4.31-1.18,8.73.94,8.78,1l.86.42.46-.84c.77-1.42,4.58-8.62,4.58-11.16v-.91L98,46.1A21.28,21.28,0,0,1,92.49,44.81ZM79.32,32.71c-.54-1-.91-1.73-1.1-2.17a23.09,23.09,0,0,0,1.24-3,6.22,6.22,0,0,1,2-1.28A29.43,29.43,0,0,1,79.32,32.71ZM4.74,83.65l0-.51H8.46l.09.51Zm14.66,0-.16-.51h3.93l.24.51Zm2.45-13.72A6.06,6.06,0,0,0,19.74,71c-2,1.84,0,5,.37,5.59l2.13,4.55H18.63l-3.39-11a6.4,6.4,0,0,0,3.83-4.6l1.83-3.09c1.11.27,3.42.78,6.55,1.21C26.56,68.21,24,69.16,21.85,69.93ZM53.31,83.65l-.11-.51h4.19l.18.51Zm12.17,0-.25-.51H69.1l.24.51Zm-.75-13.5c-1,3.43.41,5.24,1,5.81l2.45,5.19h-3.9l-6.37-13c.84-1.62,1.71-3,2.52-4.31h.38a18.17,18.17,0,0,0,5.8-1C66.13,64.76,65.38,67.92,64.73,70.15ZM92.94,56.51a15.53,15.53,0,0,0-9.29-.71c-.67.18-1.44.45-2.25.73-3.13,1.08-7.42,2.56-10.57.87-1.92-1-3.32-3.19-4.16-6.42l-1.94.5c1,3.72,2.66,6.28,5,7.6a18.09,18.09,0,0,1-8,2.69A17.6,17.6,0,0,0,64,57L62,56.51a21.05,21.05,0,0,1-2.9,5.57,55,55,0,0,0-3.64,6.34c-2.36,5-1.36,6.94-.69,7.61l1.86,5.11h-3.9c-.84-3.72-2.29-9.54-3.57-11.85-1.41-2.53-1.26-10.26-1.08-13l-2-.13c0,.52-.17,3-.1,5.79a74.66,74.66,0,0,1-24-1.27c1-1.58,1.73-2.85,1.91-3.08L23.12,57l-.77-.64c-.48.58-4,6.58-5.11,8.4l-.12.21,0,.22c0,.1-.24,2.37-3.43,3.5-4,1.43-6.12,3.52-6.24,6.19a44.82,44.82,0,0,0,.69,6.3H4.63L4,66.74c1.62-1.61,5.38-5.65,4.79-8.11-.09-.36-.25-.83-.49-1.49-1.38-3.9-4.61-13,1.71-19.28a26.8,26.8,0,0,1,16.43-7.61c1,.06,9.5.54,12.51-.62,2.41-.94,15.73-3.48,29-1.37-1.2.65-2.39,1.33-3.52,2l1,1.73c4.86-2.83,10.72-5.77,12.49-6.05-.14,1.23-1.76,4.67-3.8,8l1.71,1c.35-.57.82-1.35,1.3-2.23A31.15,31.15,0,0,0,87,44.21c-.88,1.61-1.74,3.06-2.29,3.94l1.7,1.06a74.13,74.13,0,0,0,4.31-7.93,27.27,27.27,0,0,1-1.63,9.11l1.88.67a30.71,30.71,0,0,0,1.17-4.24A23.23,23.23,0,0,0,96.71,48,54.55,54.55,0,0,1,92.94,56.51Z"/><circle cx="75.6" cy="40.64" r="1.5"/><text x="0" y="115" fill="#000000" font-size="5px" font-weight="bold" font-family="'Helvetica Neue', Helvetica, Arial-Unicode, Arial, Sans-serif">Created by Iconic</text><text x="0" y="120" fill="#000000" font-size="5px" font-weight="bold" font-family="'Helvetica Neue', Helvetica, Arial-Unicode, Arial, Sans-serif">from the Noun Project</text></svg>