<?xml version="1.0" encoding="UTF-8" standalone="no"?>
<svg
   xmlns:dc="http://purl.org/dc/elements/1.1/"
   xmlns:cc="http://creativecommons.org/ns#"
   xmlns:rdf="http://www.w3.org/1999/02/22-rdf-syntax-ns#"
   xmlns:svg="http://www.w3.org/2000/svg"
   xmlns="http://www.w3.org/2000/svg"
   xmlns:sodipodi="http://sodipodi.sourceforge.net/DTD/sodipodi-0.dtd"
   xmlns:inkscape="http://www.inkscape.org/namespaces/inkscape"
   data-name="Layer 1"
   viewBox="0 0 100 125"
   x="0px"
   y="0px"
   version="1.1"
   id="svg12"
   sodipodi:docname="Boar_edited.svg"
   inkscape:version="0.92.4 (5da689c313, 2019-01-14)">
  <metadata
     id="metadata18">
    <rdf:RDF>
      <cc:Work
         rdf:about="">
        <dc:format>image/svg+xml</dc:format>
        <dc:type
           rdf:resource="http://purl.org/dc/dcmitype/StillImage" />
        <dc:title>icons_animals_4</dc:title>
      </cc:Work>
    </rdf:RDF>
  </metadata>
  <defs
     id="defs16" />
  <sodipodi:namedview
     pagecolor="#ffffff"
     bordercolor="#666666"
     borderopacity="1"
     objecttolerance="10"
     gridtolerance="10"
     guidetolerance="10"
     inkscape:pageopacity="0"
     inkscape:pageshadow="2"
     inkscape:window-width="1920"
     inkscape:window-height="1017"
     id="namedview14"
     showgrid="false"
     inkscape:zoom="21.360282"
     inkscape:cx="26.674088"
     inkscape:cy="78.056664"
     inkscape:window-x="-8"
     inkscape:window-y="-8"
     inkscape:window-maximized="1"
     inkscape:current-layer="svg12" />
  <title
     id="title2">icons_animals_4</title>
  <path
     d="M92.49,44.81a27.85,27.85,0,0,0-.25-8.87l-2,.22c0,1.3-1,3.81-2.29,6.27a28.09,28.09,0,0,1-7.38-7.64c4.13-9,2.77-9.84,2.18-10.2a3,3,0,0,0-3.06.33,1.54,1.54,0,0,0-.74-.84c-1.14-.57-4.48.77-8.23,2.67-14.64-3-29.76-.06-32.55,1-2.2.85-9.16.64-11.74.49A28.27,28.27,0,0,0,8.57,36.44,14.11,14.11,0,0,0,4.72,43.2c-1.79.84-4.25,3.22-3.4,7.71,1,5.29,1.57,6.45,1.67,6.63l1.75-1s-.52-1.11-1.46-6a5,5,0,0,1,1-4.57c-.36,4.88,1.28,9.51,2.1,11.84.2.56.37,1,.43,1.29.25,1-2.15,4.2-4.55,6.51l-.33.31.9,19.72h8.1l-.21-1.18a81.09,81.09,0,0,1-1.29-9.54c.07-1.59,1.4-2.94,3.94-4l4.55,14.73h8.63l-4.66-10-.08-.14c-.49-.71-1.34-2.48-.7-3.07a5.37,5.37,0,0,1,1.42-.65c2.2-.81,5.81-2.13,6.9-7.88a77.3,77.3,0,0,0,8.59.49,67.71,67.71,0,0,0,8.08-.48,16.83,16.83,0,0,0,1.34,6.33c1.76,3.17,4.05,14.47,4.08,14.58l.16.8h8.75l-4-10.88-.23-.14c-.1-.13-.67-1.14.56-4.19l7.44,15.21H72.5L67.44,74.93l-.11-.22-.17-.14c-.05,0-1.29-1.11-.49-3.86.85-2.93,1.86-7.39,2.19-8.85a22.16,22.16,0,0,0,3.21-1.91,10.14,10.14,0,0,0,2.15.22A24.84,24.84,0,0,0,82,58.42c.78-.27,1.52-.52,2.13-.69,4.31-1.18,8.73.94,8.78,1l.86.42.46-.84c.77-1.42,4.58-8.62,4.58-11.16v-.91L98,46.1A21.28,21.28,0,0,1,92.49,44.81ZM79.32,32.71c-.54-1-.91-1.73-1.1-2.17a23.09,23.09,0,0,0,1.24-3,6.22,6.22,0,0,1,2-1.28A29.43,29.43,0,0,1,79.32,32.71ZM4.74,83.65l0-.51H8.46l.09.51Zm14.66,0-.16-.51h3.93l.24.51Zm2.45-13.72A6.06,6.06,0,0,0,19.74,71c-2,1.84,0,5,.37,5.59l2.13,4.55H18.63l-3.39-11a6.4,6.4,0,0,0,3.83-4.6l1.83-3.09c1.11.27,3.42.78,6.55,1.21C26.56,68.21,24,69.16,21.85,69.93ZM53.31,83.65l-.11-.51h4.19l.18.51Zm12.17,0-.25-.51H69.1l.24.51Zm-.75-13.5c-1,3.43.41,5.24,1,5.81l2.45,5.19h-3.9l-6.37-13c.84-1.62,1.71-3,2.52-4.31h.38a18.17,18.17,0,0,0,5.8-1C66.13,64.76,65.38,67.92,64.73,70.15ZM92.94,56.51a15.53,15.53,0,0,0-9.29-.71c-.67.18-1.44.45-2.25.73-3.13,1.08-7.42,2.56-10.57.87-1.92-1-3.32-3.19-4.16-6.42l-1.94.5c1,3.72,2.66,6.28,5,7.6a18.09,18.09,0,0,1-8,2.69A17.6,17.6,0,0,0,64,57L62,56.51a21.05,21.05,0,0,1-2.9,5.57,55,55,0,0,0-3.64,6.34c-2.36,5-1.36,6.94-.69,7.61l1.86,5.11h-3.9c-.84-3.72-2.29-9.54-3.57-11.85-1.41-2.53-1.26-10.26-1.08-13l-2-.13c0,.52-.17,3-.1,5.79a74.66,74.66,0,0,1-24-1.27c1-1.58,1.73-2.85,1.91-3.08L23.12,57l-.77-.64c-.48.58-4,6.58-5.11,8.4l-.12.21,0,.22c0,.1-.24,2.37-3.43,3.5-4,1.43-6.12,3.52-6.24,6.19a44.82,44.82,0,0,0,.69,6.3H4.63L4,66.74c1.62-1.61,5.38-5.65,4.79-8.11-.09-.36-.25-.83-.49-1.49-1.38-3.9-4.61-13,1.71-19.28a26.8,26.8,0,0,1,16.43-7.61c1,.06,9.5.54,12.51-.62,2.41-.94,15.73-3.48,29-1.37-1.2.65-2.39,1.33-3.52,2l1,1.73c4.86-2.83,10.72-5.77,12.49-6.05-.14,1.23-1.76,4.67-3.8,8l1.71,1c.35-.57.82-1.35,1.3-2.23A31.15,31.15,0,0,0,87,44.21c-.88,1.61-1.74,3.06-2.29,3.94l1.7,1.06a74.13,74.13,0,0,0,4.31-7.93,27.27,27.27,0,0,1-1.63,9.11l1.88.67a30.71,30.71,0,0,0,1.17-4.24A23.23,23.23,0,0,0,96.71,48,54.55,54.55,0,0,1,92.94,56.51Z"
     id="path4" />
  <path
     style="fill:#502d16;stroke-width:0.18726344"
     d="M 4.6753042,80.598999 C 4.6759147,80.315763 4.5423991,77.116361 4.3786046,73.489216 l -0.2978083,-6.59481 1.3437475,-1.524927 c 2.1166017,-2.401989 3.556711,-4.885177 3.556711,-6.132856 0,-0.18093 -0.3695464,-1.430764 -0.8212144,-2.777409 -1.4297696,-4.262848 -1.6808125,-5.576162 -1.69464,-8.865398 -0.010658,-2.535287 0.043048,-3.080307 0.4244152,-4.307059 0.6960898,-2.239127 1.5841345,-3.652315 3.4766134,-5.532501 3.563091,-3.539947 8.12449,-5.928809 13.408638,-7.022272 1.729637,-0.357918 2.326846,-0.39301 4.962482,-0.291594 4.068583,0.156554 8.221616,-0.136323 10.159952,-0.716493 4.986054,-1.492393 12.56175,-2.291662 19.989463,-2.108975 3.827049,0.09413 6.064658,0.262486 8.133275,0.611953 l 0.642738,0.108583 -1.525818,0.83529 c -0.839201,0.459409 -1.577373,0.918706 -1.640383,1.02066 -0.106201,0.171835 0.759239,1.859542 0.953555,1.859542 0.04784,0 1.034447,-0.537194 2.19245,-1.193765 3.474769,-1.97014 9.359347,-4.798666 9.983335,-4.798666 0.43235,0 -0.996892,3.360261 -2.643351,6.214737 -0.458607,0.795088 -0.83383,1.525802 -0.83383,1.623809 0,0.180374 1.668809,1.23667 1.769126,1.119793 0.0299,-0.03483 0.308759,-0.513457 0.619698,-1.063619 l 0.565343,-1.000295 1.060059,1.801195 c 1.877795,3.190644 4.585473,6.276161 7.554737,8.608946 l 1.162528,0.913334 -0.341488,0.581933 c -0.187818,0.320065 -0.7042,1.19561 -1.147516,1.945656 -0.443317,0.750048 -0.773646,1.385568 -0.734066,1.412266 0.644848,0.434976 1.677038,1.062913 1.747194,1.062913 0.133171,0 1.948213,-3.13691 3.196387,-5.524272 l 1.076969,-2.059898 -0.131818,1.498108 c -0.165674,1.88284 -0.728204,4.724647 -1.215733,6.141676 -0.348329,1.012436 -0.351868,1.092742 -0.05277,1.197856 0.176323,0.06197 0.603413,0.22607 0.949087,0.364674 0.345675,0.138603 0.693088,0.212087 0.772029,0.163299 0.07894,-0.04879 0.380575,-0.954117 0.6703,-2.011839 0.289723,-1.057724 0.540894,-1.945882 0.558155,-1.973685 0.01727,-0.0278 0.823235,0.161587 1.791048,0.42087 0.967815,0.259282 1.948381,0.471635 2.179037,0.471895 l 0.419374,5.62e-4 -0.534118,1.451292 c -0.658454,1.789126 -1.958023,4.685337 -2.679266,5.970996 l -0.539506,0.961697 -1.138234,-0.354258 c -0.626027,-0.194842 -1.920561,-0.450402 -2.876739,-0.567908 -2.403154,-0.295331 -4.307743,-0.01948 -7.837878,1.135191 -3.739957,1.223302 -5.613636,1.59287 -7.39332,1.458273 -1.748659,-0.132251 -3.456923,-0.922512 -4.447878,-2.057636 -0.725846,-0.831446 -2.009554,-3.365021 -2.225752,-4.392826 -0.07041,-0.334733 -0.210411,-0.608606 -0.311112,-0.608606 -0.18552,0 -1.901679,0.400884 -1.987091,0.464172 -0.02553,0.01891 0.158919,0.638089 0.40988,1.375944 0.752563,2.212628 1.578247,3.581157 3.040484,5.039443 l 1.35896,1.355286 -1.562777,0.756428 c -1.43098,0.692543 -4.709981,1.682654 -5.572833,1.682654 -0.335707,0 -0.328663,-0.05076 0.111232,-0.801383 0.660018,-1.126236 1.633056,-3.539706 1.532622,-3.801433 -0.04617,-0.120309 -0.391592,-0.276459 -0.767611,-0.347001 -0.376018,-0.07054 -0.803379,-0.174193 -0.949688,-0.230338 -0.154187,-0.05917 -0.316912,0.04385 -0.387077,0.245061 -0.435152,1.247807 -1.741545,3.678655 -3.054791,5.684147 -1.866457,2.850315 -4.146558,7.364433 -4.568738,9.045136 -0.42824,1.704828 -0.401753,3.061589 0.07763,3.976895 0.213692,0.408008 0.793136,1.837324 1.287653,3.176258 l 0.899121,2.434425 -1.77995,0.05389 c -0.978972,0.02964 -1.811478,0.02236 -1.850013,-0.01618 -0.03854,-0.03854 -0.401062,-1.412972 -0.805615,-3.054304 -0.9101,-3.692426 -1.723825,-6.282008 -2.567084,-8.169445 -1.052336,-2.355407 -1.215817,-3.439689 -1.32419,-8.782611 l -0.09737,-4.800311 -0.961261,-0.09484 c -0.528691,-0.05216 -1.002975,-0.05533 -1.053963,-0.007 -0.05099,0.04829 -0.123392,1.345924 -0.160897,2.883634 -0.06525,2.675308 -0.08548,2.799943 -0.469086,2.891056 -0.220491,0.05237 -2.04413,0.170606 -4.052531,0.262747 -5.798496,0.266025 -11.991036,-0.157692 -17.226797,-1.178724 l -2.049022,-0.399584 0.952776,-1.490627 0.952776,-1.490626 -0.724855,-0.613301 C 22.884037,56.6768 22.467752,56.39956 22.357629,56.398029 c -0.303607,-0.0042 -5.113296,8.089732 -5.419109,9.119514 -0.407048,1.370679 -1.482422,2.301934 -3.836737,3.32255 -4.3068418,1.867052 -5.7087183,3.506119 -5.6551664,6.611988 0.025734,1.492506 0.3193601,4.370586 0.5346537,5.240594 0.1023848,0.413739 0.07349,0.421342 -1.6014059,0.421342 H 4.6741955 Z"
     id="path20"
     inkscape:connector-curvature="0" />
  <path
     style="fill:#502d16;stroke-width:0.18726344"
     d="m 61.208667,74.652782 -3.173384,-6.461191 0.308003,-0.608004 c 0.169401,-0.334402 0.717216,-1.290619 1.217366,-2.124927 l 0.909364,-1.516923 1.642899,-0.112149 c 0.903594,-0.06168 2.254868,-0.270284 3.002831,-0.46356 1.204324,-0.311201 1.349745,-0.317643 1.270897,-0.0563 -0.04897,0.162311 -0.180628,0.716455 -0.292573,1.231429 -0.111946,0.514975 -0.547519,2.200346 -0.967941,3.745269 -1.001382,3.679771 -1.039739,5.038737 -0.186229,6.597975 0.716455,1.308859 3.029341,5.98829 3.029341,6.128963 0,0.05534 -0.807118,0.100608 -1.793595,0.100608 H 64.38205 Z"
     id="path22"
     inkscape:connector-curvature="0" />
  <path
     style="fill:#502d16;stroke-width:0.18726344"
     d="m 17.992158,78.726364 c -0.408595,-1.313185 -1.174835,-3.77664 -1.702754,-5.474345 -0.527919,-1.697706 -0.879126,-3.113646 -0.780461,-3.146534 0.09867,-0.03289 0.563513,-0.314229 1.032996,-0.625202 1.042,-0.690192 1.865924,-1.777503 2.372114,-3.130418 0.377457,-1.008844 1.774862,-3.510022 2.059238,-3.685776 0.08126,-0.05022 0.681697,0.03228 1.334311,0.183322 0.652614,0.151048 2.027635,0.40973 3.055604,0.574851 1.027968,0.165121 1.900306,0.331493 1.938529,0.369715 0.125706,0.125706 -0.572414,2.044065 -1.034884,2.843751 -0.497339,0.85998 -1.612013,1.945096 -2.433781,2.369243 -0.289389,0.149365 -1.217366,0.537919 -2.062173,0.863454 -1.821859,0.702029 -2.566348,1.336248 -2.863356,2.439252 -0.305115,1.13311 -0.05593,1.988155 1.524336,5.230652 0.723111,1.483724 1.389853,2.895222 1.481649,3.136662 l 0.1669,0.438982 H 20.407743 18.73506 Z"
     id="path24"
     inkscape:connector-curvature="0" />
  <path
     style="fill:#502d16;stroke-width:0.18726344"
     d="m 19.468008,83.361135 c 0,-0.112358 0.749054,-0.187264 1.872634,-0.187264 1.123581,0 1.872635,0.07491 1.872635,0.187264 0,0.112358 -0.749054,0.187263 -1.872635,0.187263 -1.12358,0 -1.872634,-0.07491 -1.872634,-0.187263 z"
     id="path26"
     inkscape:connector-curvature="0" />
  <path
     style="fill:#502d16;stroke-width:0.18726344"
     d="m 5.7572378,83.597385 c 0.5441757,-0.03795 1.3868613,-0.03755 1.8726345,8.87e-4 0.4857732,0.03844 0.040538,0.06948 -0.9894106,0.069 -1.0299489,-4.87e-4 -1.4273997,-0.03193 -0.8832239,-0.06988 z"
     id="path28"
     inkscape:connector-curvature="0" />
  <path
     style="fill:#502d16;stroke-width:0.18726344"
     d="m 5.7572378,83.035595 c 0.5441757,-0.03795 1.3868613,-0.03755 1.8726345,8.87e-4 0.4857732,0.03843 0.040538,0.06948 -0.9894106,0.06899 -1.0299489,-4.88e-4 -1.4273997,-0.03193 -0.8832239,-0.06988 z"
     id="path30"
     inkscape:connector-curvature="0" />
  <path
     style="fill:#502d16;stroke-width:0.04681586"
     d="m 4.7400587,83.419616 v -0.240803 h 1.8483346 1.8483346 l 0.0243,0.11704 c 0.013365,0.06437 0.035894,0.172335 0.050065,0.239918 L 8.5368579,83.65865 8.1014537,83.62294 C 7.5148381,83.57483 5.8647353,83.57419 5.2433286,83.62184 l -0.5032705,0.03859 z"
     id="path32"
     inkscape:connector-curvature="0" />
  <path
     style="fill:#502d16;stroke-width:0.04681586"
     d="m 53.318166,83.565044 c -0.01269,-0.04506 -0.03685,-0.150396 -0.05369,-0.23408 l -0.03062,-0.152151 h 2.07809 2.07809 l 0.07485,0.234079 0.07486,0.23408 h -2.099255 c -1.959292,0 -2.100793,-0.0055 -2.122322,-0.08193 z"
     id="path34"
     inkscape:connector-curvature="0" />
  <path
     style="fill:#502d16;stroke-width:0.04681586"
     d="m 19.376995,83.518228 c -0.01547,-0.07081 -0.04163,-0.176145 -0.05813,-0.234079 -0.02938,-0.103161 -0.02239,-0.105222 0.338288,-0.09983 0.352021,0.0053 0.358257,0.0072 0.141222,0.04361 -0.425081,0.07132 -0.474345,0.146126 -0.15917,0.241683 0.145127,0.044 0.61069,0.06006 1.720483,0.05934 1.271747,-8.19e-4 1.553465,-0.01312 1.716144,-0.07496 0.192192,-0.07305 0.19527,-0.07257 0.245783,0.03829 0.02813,0.06175 0.05116,0.121815 0.05116,0.133477 0,0.01166 -0.89272,0.02121 -1.983822,0.02121 h -1.983822 z"
     id="path36"
     inkscape:connector-curvature="0" />
  <path
     style="fill:#502d16;stroke-width:0.04681586"
     d="m 22.834389,83.225629 c -0.180196,-0.03226 -0.177104,-0.03378 0.08193,-0.04017 0.152679,-0.0038 0.269191,0.01362 0.269191,0.04017 0,0.05106 -0.06597,0.05106 -0.351119,0 z"
     id="path38"
     inkscape:connector-curvature="0" />
  <path
     style="fill:#502d16;stroke-width:0.04681586"
     d="m 65.458301,83.588452 c -0.01329,-0.03219 -0.05796,-0.137522 -0.09927,-0.23408 l -0.0751,-0.175559 h 1.910787 1.910787 l 0.0989,0.234079 0.09889,0.23408 H 67.39288 c -1.484232,0 -1.915805,-0.01306 -1.934579,-0.05852 z"
     id="path40"
     inkscape:connector-curvature="0" />
  <path
     style="fill:#502d16;stroke-width:0.04681586"
     d="m 63.728372,79.972224 c -0.302445,-0.605543 -0.548769,-1.127205 -0.547386,-1.159249 0.0014,-0.03204 0.255277,0.444085 0.564208,1.058064 0.308932,0.613979 0.555257,1.135641 0.547387,1.159249 -0.0079,0.02361 -0.261763,-0.452521 -0.564209,-1.058064 z"
     id="path42"
     inkscape:connector-curvature="0" />
  <path
     style="fill:#502d16;stroke-width:0.04681586"
     d="m 78.872445,31.810108 c -0.232531,-0.444165 -0.468532,-0.915726 -0.524448,-1.047912 l -0.101663,-0.240338 0.141921,-0.281144 c 0.214142,-0.424213 0.670582,-1.509829 0.896011,-2.131111 0.18109,-0.499084 0.2228,-0.572331 0.434072,-0.762283 0.314331,-0.282611 0.915474,-0.677827 1.340727,-0.88145 0.19143,-0.09166 0.353362,-0.16135 0.359849,-0.154863 0.04767,0.04767 -0.519386,2.16123 -0.856771,3.19342 -0.317876,0.972506 -1.176288,3.113255 -1.248374,3.113255 -0.0102,0 -0.208792,-0.363408 -0.441324,-0.807574 z"
     id="path44"
     inkscape:connector-curvature="0" />
</svg>
