<?xml version="1.0" encoding="UTF-8" standalone="no"?>
<svg
   xmlns:dc="http://purl.org/dc/elements/1.1/"
   xmlns:cc="http://creativecommons.org/ns#"
   xmlns:rdf="http://www.w3.org/1999/02/22-rdf-syntax-ns#"
   xmlns:svg="http://www.w3.org/2000/svg"
   xmlns="http://www.w3.org/2000/svg"
   xmlns:sodipodi="http://sodipodi.sourceforge.net/DTD/sodipodi-0.dtd"
   xmlns:inkscape="http://www.inkscape.org/namespaces/inkscape"
   version="1.1"
   x="0px"
   y="0px"
   viewBox="0 0 81.588997 90"
   enable-background="new 0 0 100 100"
   xml:space="preserve"
   id="svg8"
   sodipodi:docname="Bow.svg"
   inkscape:version="0.92.2 (5c3e80d, 2017-08-06)"
   width="81.588997"
   height="90"><metadata
     id="metadata14"><rdf:RDF><cc:Work
         rdf:about=""><dc:format>image/svg+xml</dc:format><dc:type
           rdf:resource="http://purl.org/dc/dcmitype/StillImage" /></cc:Work></rdf:RDF></metadata><defs
     id="defs12" /><sodipodi:namedview
     pagecolor="#ffffff"
     bordercolor="#666666"
     borderopacity="1"
     objecttolerance="10"
     gridtolerance="10"
     guidetolerance="10"
     inkscape:pageopacity="0"
     inkscape:pageshadow="2"
     inkscape:window-width="1366"
     inkscape:window-height="705"
     id="namedview10"
     showgrid="false"
     inkscape:zoom="1"
     inkscape:cx="38.477733"
     inkscape:cy="32.5"
     inkscape:window-x="-8"
     inkscape:window-y="-8"
     inkscape:window-maximized="1"
     inkscape:current-layer="svg8" /><path
     d="m 72.441,45.277 c 0.742,-1.75 2.188,-3.224 4.121,-4.18 l 5.026,-2.49 H 60.095 l -0.288,0.152 c -1.469,0.777 -2.711,1.83 -3.664,3.077 H 51.717 V 12.783 c 0.176,-0.085 0.35,-0.174 0.528,-0.255 2.598,-0.897 4.338,-3.334 4.338,-6.086 C 56.583,2.89 53.693,0 50.141,0 49.833,0 49.511,0.027 49.153,0.083 l -1.111,0.172 v 3.427 c -0.247,1.855 -1.662,3.609 -3.995,4.946 -7.278,3.717 -13.372,8.953 -17.625,15.144 -0.406,0.591 -0.791,1.191 -1.161,1.797 -0.026,0 -0.053,-0.004 -0.08,-0.004 -0.923,0 -1.771,0.541 -2.162,1.377 l -0.654,1.403 c -0.378,0.813 -0.258,1.732 0.235,2.411 -1.501,3.563 -2.438,7.291 -2.774,11.082 h -2.57 V 37.936 L 0,45.277 17.255,52.62 v -3.901 h 2.619 c 0.375,3.6 1.294,7.141 2.723,10.529 -0.491,0.68 -0.611,1.598 -0.233,2.408 l 0.654,1.404 c 0.39,0.836 1.239,1.377 2.163,1.377 0.026,0 0.052,-0.004 0.078,-0.004 0.371,0.604 0.756,1.205 1.162,1.797 4.253,6.189 10.347,11.426 17.625,15.144 2.333,1.338 3.748,3.091 3.995,4.946 v 3.428 l 1.113,0.172 c 0.354,0.055 0.68,0.08 0.986,0.08 3.553,0 6.441,-2.891 6.441,-6.441 0,-2.752 -1.74,-5.188 -4.338,-6.086 -0.18,-0.082 -0.354,-0.17 -0.527,-0.254 v -28.5 h 4.428 c 0.95,1.247 2.192,2.299 3.664,3.076 l 0.286,0.152 h 21.495 l -5.027,-2.49 c -1.931,-0.956 -3.378,-2.43 -4.121,-4.18 z M 45.268,10.953 45.321,10.924 c 3.121,-1.781 5.018,-4.27 5.336,-7.009 l 0.011,-1.252 c 1.854,0.257 3.29,1.854 3.29,3.78 0,1.643 -1.049,3.097 -2.609,3.617 l -0.121,0.048 c -5.443,2.447 -10.034,6.909 -13.353,12.605 -2.158,1.713 -4.071,3.687 -5.722,5.855 L 27.735,26.51 C 31.684,20.224 37.66,14.832 45.268,10.953 Z m -8.221,24.238 0.655,-1.403 c 0.475,-1.021 0.163,-2.208 -0.684,-2.877 2.424,-7.138 6.655,-13.066 12.073,-16.633 V 41.837 H 34.845 c 0.127,-1.827 0.365,-3.619 0.703,-5.364 0.651,-0.19 1.205,-0.651 1.499,-1.282 z m -2.387,-5.453 -1.052,-0.49 c 0.708,-0.91 1.463,-1.783 2.269,-2.612 -0.444,1.006 -0.849,2.043 -1.217,3.102 z m -9.364,-1.467 9.922,4.626 -0.45,0.965 -9.923,-4.627 z m 4.191,13.566 h -1.863 c 0.154,-0.668 0.327,-1.33 0.522,-1.984 l 4.215,-4.215 0.62,0.289 c -0.185,0.951 -0.343,1.913 -0.47,2.888 z m 2.767,-0.538 c -0.014,0.179 -0.022,0.358 -0.034,0.538 H 31.716 Z M 29.41,36.361 c 0.25,-0.584 0.52,-1.159 0.803,-1.726 l 0.629,0.293 z m -4.565,-4.228 3.944,1.839 c -1.238,2.483 -2.18,5.123 -2.786,7.865 h -3.547 c 0.314,-3.348 1.126,-6.602 2.389,-9.704 z M 14.629,48.648 6.708,45.275 14.629,41.904 Z m 11.493,8.623 -1.282,0.599 c -1.194,-2.931 -1.984,-5.999 -2.333,-9.151 h 2.69 c -0.003,0.188 -0.008,0.377 -0.008,0.565 0.001,2.736 0.324,5.411 0.933,7.987 z M 26.779,50.1 c -0.007,-0.271 -0.014,-0.543 -0.014,-0.814 0,-0.188 0.005,-0.379 0.009,-0.564 h 1.386 z m 3.61,-1.381 h 1.869 c 0.034,0.447 0.073,0.893 0.12,1.336 l -5.092,5.092 c -0.184,-1.035 -0.32,-2.082 -0.406,-3.143 0.162,-0.023 0.318,-0.095 0.442,-0.22 z m 2.239,3.314 c 0.103,0.688 0.225,1.365 0.356,2.039 l -4.489,2.094 z m 2.258,-3.314 H 49.09 v 27.004 c -5.418,-3.566 -9.647,-9.496 -12.073,-16.634 0.345,-0.271 0.609,-0.631 0.763,-1.054 0.218,-0.598 0.189,-1.246 -0.08,-1.823 L 37.046,54.809 C 36.752,54.18 36.198,53.717 35.547,53.528 35.244,51.959 35.02,50.354 34.886,48.719 Z m -9.59,13.011 -0.45,-0.965 9.922,-4.627 0.45,0.965 z m 2.437,1.762 0.416,-0.193 c 0.445,1.004 0.935,1.982 1.474,2.934 -0.675,-0.893 -1.304,-1.808 -1.89,-2.741 z m 1.844,-0.86 2.492,-1.163 -2.074,2.075 c -0.144,-0.301 -0.283,-0.606 -0.418,-0.912 z m 1.171,2.388 4.13,-4.129 c 0.296,0.805 0.614,1.596 0.953,2.371 L 31.993,67.1 c -0.44,-0.677 -0.857,-1.37 -1.245,-2.08 z m 2.151,3.402 3.638,-3.637 c 0.358,0.732 0.735,1.447 1.132,2.146 l -3.333,3.332 c -0.502,-0.595 -0.98,-1.21 -1.437,-1.841 z m 2.51,3.044 2.11,-2.11 v -0.047 l 0.982,-0.981 c 0.428,0.683 0.875,1.344 1.339,1.985 L 37.053,73.1 c -0.569,-0.526 -1.116,-1.071 -1.644,-1.634 z m 2.831,2.675 2.561,-2.561 c 0.494,0.62 1.008,1.215 1.536,1.789 l -2.216,2.216 c -0.646,-0.459 -1.275,-0.94 -1.881,-1.444 z m 5.314,3.566 -0.006,-0.003 C 42.83,77.322 42.133,76.913 41.454,76.482 l 1.979,-1.979 c 0.563,0.554 1.146,1.08 1.744,1.579 z m 1.766,1.37 -0.053,-0.029 c -0.185,-0.093 -0.361,-0.19 -0.541,-0.286 l 1.701,-1.701 c 0.646,0.479 1.309,0.926 1.985,1.34 l -1.632,1.631 c -0.45,-0.337 -0.936,-0.657 -1.46,-0.955 z m 7.929,2.271 c 0.448,0.629 0.707,1.396 0.707,2.211 0,0.146 -0.011,0.291 -0.027,0.435 l -3.263,3.263 v -1.02 l -0.01,-0.15 C 50.588,85.5 50.443,84.924 50.232,84.362 Z m -1.162,-1.067 -2.597,2.597 c -0.404,-0.642 -0.905,-1.252 -1.5,-1.825 l 1.845,-1.844 c 0.458,0.241 0.919,0.473 1.39,0.686 l 0.123,0.047 c 0.261,0.087 0.508,0.203 0.739,0.339 z M 15.942,46.091 v -1.628 h 38.744 c -0.05,0.134 -0.099,0.269 -0.144,0.406 l -0.134,0.408 0.134,0.409 c 0.044,0.137 0.094,0.271 0.144,0.405 z m 48.876,-4.857 h 2.309 C 66.3,42.179 65.65,43.279 65.22,44.489 h -0.479 -2.418 c 0.554,-1.284 1.411,-2.397 2.495,-3.255 z m -6.645,2.271 c 0.672,-0.902 1.548,-1.676 2.585,-2.271 h 1.74 c -0.827,0.945 -1.477,2.045 -1.907,3.255 h -0.438 -2.488 c 0.148,-0.341 0.319,-0.668 0.508,-0.984 z m 2.586,5.815 c -1.038,-0.594 -1.914,-1.368 -2.585,-2.271 -0.188,-0.314 -0.359,-0.645 -0.507,-0.982 h 2.487 0.438 c 0.432,1.209 1.08,2.311 1.907,3.254 h -1.74 z m 4.059,0 c -1.084,-0.857 -1.941,-1.971 -2.496,-3.254 h 2.418 0.479 c 0.432,1.209 1.08,2.311 1.907,3.254 z m 4.622,0 c -1.084,-0.857 -1.941,-1.969 -2.496,-3.254 h 2.895 c 0.432,1.209 1.08,2.311 1.907,3.254 z m 0.397,-4.831 h -2.894 c 0.555,-1.285 1.412,-2.397 2.496,-3.255 h 2.305 c -0.828,0.945 -1.478,2.045 -1.907,3.255 z"
     id="path2"
     inkscape:connector-curvature="0"
     style="fill:#000000" /><path
     style="fill:#ff0000;fill-opacity:1;stroke:none;stroke-width:0.13241525;stroke-opacity:1"
     d="m 59.989916,48.716959 c -1.07402,-0.793513 -2.166314,-2.070136 -2.166314,-2.531888 0,-0.04003 0.610765,-0.07177 1.357256,-0.07052 l 1.357256,0.0023 0.313979,0.725303 c 0.172688,0.398917 0.573954,1.112942 0.891703,1.586723 l 0.577724,0.86142 h -0.777825 c -0.709569,0 -0.845915,-0.05031 -1.553779,-0.573295 z"
     id="path812"
     inkscape:connector-curvature="0" /><path
     style="fill:#ff0000;fill-opacity:1;stroke:none;stroke-width:0.13241525;stroke-opacity:1"
     d="m 62.814013,43.701027 c 0.204824,-0.379425 0.721863,-1.064674 1.148976,-1.522775 l 0.77657,-0.832913 h 1.04414 c 0.574277,0 1.04414,0.0219 1.04414,0.04867 0,0.02677 -0.26083,0.437639 -0.579621,0.913041 -0.318792,0.475402 -0.684409,1.138748 -0.812481,1.474102 l -0.23286,0.609735 h -1.380635 -1.380635 z"
     id="path814"
     inkscape:connector-curvature="0" /><path
     style="fill:#ff0000;fill-opacity:1;stroke:none;stroke-width:0.13241525;stroke-opacity:1"
     d="M 68.945028,48.809733 C 68.432992,48.347139 67.09267,46.483118 67.09267,46.23361 c 0,-0.06673 0.610765,-0.121099 1.357256,-0.120826 l 1.357256,4.97e-4 0.250858,0.628476 c 0.137971,0.345662 0.534299,1.060481 0.880728,1.588487 l 0.629871,0.96001 h -1.045866 c -1.016362,0 -1.06087,-0.01355 -1.577745,-0.480521 z"
     id="path816"
     inkscape:connector-curvature="0" /><path
     style="fill:#ffff00;fill-opacity:1;stroke:none;stroke-width:0.13241525;stroke-opacity:1"
     d="m 64.342047,48.821844 c -0.513723,-0.439728 -1.883911,-2.322177 -1.883911,-2.588234 0,-0.06673 0.610765,-0.120305 1.357256,-0.119062 l 1.357256,0.0023 0.32775,0.759128 c 0.180263,0.41752 0.582078,1.131545 0.892922,1.586723 l 0.565173,0.827595 h -1.034607 c -0.993085,0 -1.056569,-0.0188 -1.581839,-0.46841 z"
     id="path818"
     inkscape:connector-curvature="0" /><path
     style="fill:#ffff00;fill-opacity:1;stroke:none;stroke-width:0.13241525;stroke-opacity:1"
     d="m 57.823602,44.273041 c 0,-0.305446 1.240505,-1.750176 1.980235,-2.306242 0.784009,-0.58935 0.870474,-0.62146 1.67343,-0.62146 h 0.846704 l -0.46522,0.609471 c -0.255871,0.33521 -0.657689,1.019279 -0.892928,1.520153 l -0.427709,0.910682 -1.357256,0.0026 c -0.746491,0.0014 -1.357256,-0.05041 -1.357256,-0.115226 z"
     id="path820"
     inkscape:connector-curvature="0" /><path
     style="fill:#ffff00;fill-opacity:1;stroke:none;stroke-width:0.13241525;stroke-opacity:1"
     d="m 67.144559,44.181831 c 0.178653,-0.465563 1.030969,-1.616207 1.6396,-2.213494 l 0.647006,-0.634948 1.009296,0.03908 1.009296,0.03908 -0.577939,0.897417 c -0.317866,0.493579 -0.687446,1.163708 -0.821288,1.489175 l -0.243348,0.591758 -1.371423,4.97e-4 c -1.195189,4.32e-4 -1.361114,-0.02637 -1.2912,-0.208563 z"
     id="path822"
     inkscape:connector-curvature="0" /><path
     style="fill:#00ffff;fill-opacity:1;stroke:none;stroke-width:0.13241525;stroke-opacity:1"
     d="M 10.720236,46.923331 C 8.737511,46.068261 7.082985,45.33636 7.04351,45.296886 c -0.03947,-0.03947 1.135854,-0.582307 2.61184,-1.206295 1.475987,-0.623988 3.175203,-1.34571 3.776038,-1.603827 l 1.092426,-0.469304 v 3.239151 c 0,1.781534 -0.04469,3.235156 -0.09931,3.230273 -0.05462,-0.0049 -1.721541,-0.708483 -3.704266,-1.563553 z"
     id="path824"
     inkscape:connector-curvature="0" /><path
     style="fill:#803300;fill-opacity:1;stroke:none;stroke-width:0.13241525;stroke-opacity:1"
     d="m 15.980381,45.251589 v -0.728284 h 19.238045 19.238045 v 0.728284 0.728284 H 35.218426 15.980381 Z"
     id="path826"
     inkscape:connector-curvature="0" /><path
     style="fill:#cccccc;fill-opacity:1;stroke:none;stroke-width:0.13241525;stroke-opacity:1"
     d="m 29.950191,31.537278 c -2.621822,-1.224574 -4.823414,-2.248747 -4.892425,-2.275938 -0.104414,-0.04114 0.142151,-0.892696 0.258477,-0.892696 0.01907,0 1.963306,0.901566 4.320535,2.00348 2.357229,1.101914 4.563908,2.129788 4.903733,2.284163 l 0.617863,0.280683 -0.220617,0.413404 -0.220617,0.413404 z"
     id="path828"
     inkscape:connector-curvature="0" /><path
     style="fill:#cccccc;fill-opacity:1;stroke:none;stroke-width:0.13241525;stroke-opacity:1"
     d="m 25.14062,61.27272 c -0.208736,-0.458125 -0.197527,-0.551668 0.07573,-0.631936 0.12745,-0.03744 2.325286,-1.048645 4.88408,-2.247127 l 4.652352,-2.179057 0.20163,0.422821 0.20163,0.422822 -4.721567,2.199312 c -2.596862,1.209621 -4.815231,2.234465 -4.929708,2.277431 -0.139161,0.05223 -0.259842,-0.03535 -0.364142,-0.264266 z"
     id="path830"
     inkscape:connector-curvature="0" /><path
     style="fill:#2a2aff;fill-opacity:1;stroke:none;stroke-width:0.13241525;stroke-opacity:1"
     d="m 30.058885,27.527966 c -1.105473,-0.52081 -2.049946,-0.987667 -2.098829,-1.037459 -0.196355,-0.200005 2.215651,-3.436221 4.077561,-5.47091 3.406576,-3.722692 7.137167,-6.618966 12.030483,-9.339956 1.150959,-0.640006 2.437597,-1.43168 2.859193,-1.759276 2.421931,-1.881924 3.743104,-4.140863 3.745146,-6.4034416 l 7.39e-4,-0.818352 0.367912,0.1055158 c 1.069207,0.3066445 1.995192,1.0590299 2.496513,2.028477 0.329592,0.6373628 0.392417,2.0438288 0.12699,2.8429558 -0.376133,1.132431 -0.940737,1.64287 -2.820954,2.550327 -1.779179,0.858693 -3.705062,2.059276 -5.253864,3.275226 -2.285961,1.794688 -5.406285,5.34644 -7.129446,8.11519 -0.460002,0.739126 -0.993272,1.325105 -2.080264,2.285877 -0.803931,0.710578 -1.962327,1.872163 -2.574214,2.581299 -0.611886,0.709135 -1.253032,1.447313 -1.424768,1.640396 l -0.312248,0.351058 z"
     id="path832"
     inkscape:connector-curvature="0" /><path
     style="fill:#2a2aff;fill-opacity:1;stroke:none;stroke-width:0.13241525;stroke-opacity:1"
     d="m 22.651528,40.786675 c 0.188847,-2.041676 1.349706,-6.564666 2.104816,-8.200879 l 0.162067,-0.351174 1.853814,0.860547 c 1.019597,0.473301 1.872867,0.878799 1.896154,0.901107 0.02329,0.02231 -0.08761,0.295284 -0.246437,0.606614 -0.589246,1.155017 -1.484446,3.55138 -1.974626,5.285881 l -0.505188,1.787606 -1.689888,0.03721 -1.689888,0.03721 z"
     id="path834"
     inkscape:connector-curvature="0" /><path
     style="fill:#2a2aff;fill-opacity:1;stroke:none;stroke-width:0.13241525;stroke-opacity:1"
     d="M 24.480599,56.73099 C 23.707673,54.7069 22.964269,51.72426 22.6673,49.455773 l -0.09101,-0.69518 h 1.27037 1.270371 l 1.11e-4,0.960011 c 1.98e-4,1.72791 0.578656,6.533491 0.881422,7.322486 0.04129,0.107587 -0.139811,0.281171 -0.468028,0.448615 -0.294454,0.150219 -0.562321,0.273126 -0.595262,0.273126 -0.03294,0 -0.237545,-0.465229 -0.454678,-1.033841 z"
     id="path836"
     inkscape:connector-curvature="0" /><path
     style="fill:#2a2aff;fill-opacity:1;stroke:none;stroke-width:0.06620762;stroke-opacity:1"
     d="m 28.422116,64.47846 c -0.507425,-0.756802 -0.628662,-0.980169 -0.556731,-1.025721 0.218399,-0.138305 0.298711,-0.03989 0.771176,0.945007 0.264328,0.551016 0.470167,1.012277 0.45742,1.025025 -0.01275,0.01275 -0.315087,-0.412192 -0.671865,-0.944311 z"
     id="path838"
     inkscape:connector-curvature="0" /><path
     style="fill:#aaaaff;fill-opacity:1;stroke:none;stroke-width:0.13241525;stroke-opacity:1"
     d="m 50.673178,86.352397 c 0,-0.40605 -0.08167,-1.009647 -0.181492,-1.341325 l -0.181492,-0.603052 1.484918,-1.480705 1.484918,-1.480706 0.285557,0.663796 c 0.157056,0.365088 0.285557,0.921822 0.285557,1.237187 0,0.556343 -0.04724,0.620512 -1.588983,2.158234 l -1.588983,1.584844 z"
     id="path840"
     inkscape:connector-curvature="0" /><path
     style="fill:#aaaaff;fill-opacity:1;stroke:none;stroke-width:0.13241525;stroke-opacity:1"
     d="m 49.349025,82.557313 c 0,-0.05587 -0.277299,-0.418581 -0.61622,-0.806018 l -0.61622,-0.704432 0.876807,-0.876808 0.876808,-0.876807 0.964254,0.454815 c 0.530339,0.250148 0.990947,0.473003 1.023573,0.495234 0.07849,0.05348 -2.27515,2.415601 -2.406929,2.415601 -0.05614,0 -0.102073,-0.04571 -0.102073,-0.101585 z"
     id="path842"
     inkscape:connector-curvature="0" /><path
     style="fill:#aaaaff;fill-opacity:1;stroke:none;stroke-width:0.13241525;stroke-opacity:1"
     d="m 45.747974,79.291671 -0.88654,-0.561689 0.757964,-0.750054 c 0.41688,-0.41253 0.798071,-0.750055 0.847091,-0.750055 0.04902,0 0.484214,0.276185 0.967098,0.613745 l 0.87797,0.613744 -0.701584,0.710408 c -0.385871,0.390724 -0.763206,0.704824 -0.838522,0.697999 -0.07532,-0.0068 -0.535881,-0.26517 -1.023477,-0.574098 z"
     id="path844"
     inkscape:connector-curvature="0" /><path
     style="fill:#aaaaff;fill-opacity:1;stroke:none;stroke-width:0.13241525;stroke-opacity:1"
     d="m 42.625905,77.111805 c -0.456853,-0.27828 -0.870686,-0.546007 -0.919628,-0.594949 -0.04894,-0.04894 0.319346,-0.500472 0.818418,-1.003399 l 0.907406,-0.914412 0.831266,0.752649 0.831267,0.752649 -0.748691,0.761388 c -0.41178,0.418763 -0.78035,0.759284 -0.819044,0.756712 -0.03869,-0.0026 -0.444141,-0.232359 -0.900994,-0.510638 z"
     id="path846"
     inkscape:connector-curvature="0" /><path
     style="fill:#aaaaff;fill-opacity:1;stroke:none;stroke-width:0.13241525;stroke-opacity:1"
     d="m 39.231173,74.83603 -0.90234,-0.683089 1.23509,-1.240248 c 0.6793,-0.682136 1.271181,-1.19646 1.31529,-1.142942 0.04411,0.05352 0.369576,0.443815 0.723258,0.867329 l 0.643058,0.770024 -1.056007,1.056008 -1.056008,1.056008 z"
     id="path848"
     inkscape:connector-curvature="0" /><path
     style="fill:#aaaaff;fill-opacity:1;stroke:none;stroke-width:0.13241525;stroke-opacity:1"
     d="m 36.31803,72.330058 c -0.407105,-0.385023 -0.740191,-0.766898 -0.740191,-0.848611 0,-0.166553 2.878155,-3.07769 2.95053,-2.984341 0.279142,0.360035 1.154343,1.736176 1.154343,1.815057 0,0.05681 -0.590511,0.691588 -1.312246,1.410615 L 37.05822,73.0301 Z"
     id="path850"
     inkscape:connector-curvature="0" /><path
     style="fill:#aaaaff;fill-opacity:1;stroke:none;stroke-width:0.13241525;stroke-opacity:1"
     d="m 33.66953,69.318061 c -0.333087,-0.418763 -0.606055,-0.821834 -0.606597,-0.895713 -5.41e-4,-0.07388 0.765957,-0.899565 1.70333,-1.834857 l 1.704314,-1.70053 0.563773,1.021304 0.563772,1.021305 -1.570836,1.574939 c -0.863961,0.866217 -1.611631,1.57494 -1.66149,1.57494 -0.04986,0 -0.363179,-0.342624 -0.696266,-0.761388 z"
     id="path852"
     inkscape:connector-curvature="0" /><path
     style="fill:#aaaaff;fill-opacity:1;stroke:none;stroke-width:0.13241525;stroke-opacity:1"
     d="m 31.434271,66.062189 c -0.270031,-0.461611 -0.490966,-0.894361 -0.490966,-0.961666 0,-0.0673 0.88137,-1.002273 1.958601,-2.077708 l 1.9586,-1.955335 0.440949,1.078472 0.440949,1.078473 -1.835011,1.838529 c -1.009256,1.011191 -1.868118,1.838529 -1.908583,1.838529 -0.04046,0 -0.294507,-0.377682 -0.564539,-0.839294 z"
     id="path854"
     inkscape:connector-curvature="0" /><path
     style="fill:#aaaaff;fill-opacity:1;stroke:none;stroke-width:0.13241525;stroke-opacity:1"
     d="m 29.804396,62.989066 c -0.04655,-0.185462 -0.06258,-0.350152 -0.03563,-0.365976 0.236976,-0.139129 1.598169,-0.753387 1.669504,-0.753387 0.05052,0 -0.231803,0.327728 -0.627383,0.728284 -0.395581,0.400556 -0.764828,0.728284 -0.820549,0.728284 -0.05572,0 -0.139397,-0.151742 -0.185945,-0.337205 z"
     id="path856"
     inkscape:connector-curvature="0" /><path
     style="fill:#aaaaff;fill-opacity:1;stroke:none;stroke-width:0.13241525;stroke-opacity:1"
     d="m 30.81273,53.988508 1.785766,-1.790093 0.150877,0.89629 c 0.08298,0.49296 0.139841,0.90895 0.126352,0.924423 -0.05475,0.0628 -3.683269,1.759474 -3.762822,1.759474 -0.04727,0 0.717655,-0.805542 1.699827,-1.790094 z"
     id="path858"
     inkscape:connector-curvature="0" /><path
     style="fill:#aaaaff;fill-opacity:1;stroke:none;stroke-width:0.13241525;stroke-opacity:1"
     d="m 27.1185,53.546745 -0.158157,-1.304949 1.759754,-1.737936 1.759755,-1.737935 0.893803,-0.0027 0.893803,-0.0027 v 0.630315 0.630315 l -2.417886,2.415236 c -1.329837,1.32838 -2.452767,2.415236 -2.4954,2.415236 -0.04263,0 -0.148685,-0.587227 -0.235672,-1.30495 z"
     id="path860"
     inkscape:connector-curvature="0" /><path
     style="fill:#aaaaff;fill-opacity:1;stroke:none;stroke-width:0.13241525;stroke-opacity:1"
     d="m 27.765339,41.567995 c 0,-0.09602 0.09398,-0.498235 0.208837,-0.893803 0.189631,-0.653068 0.399559,-0.911017 2.282611,-2.804753 1.140576,-1.147048 2.134059,-2.084628 2.207741,-2.083513 0.404074,0.0061 0.428385,0.21034 0.19627,1.648719 l -0.234333,1.452123 -1.502968,1.422443 -1.502967,1.422443 -0.827596,0.0055 c -0.599493,0.004 -0.827595,-0.04265 -0.827595,-0.169124 z"
     id="path862"
     inkscape:connector-curvature="0" /><path
     style="fill:#aaaaff;fill-opacity:1;stroke:none;stroke-width:0.13241525;stroke-opacity:1"
     d="m 29.770357,35.850106 c 0.442439,-1.20201 0.445201,-1.205552 0.775702,-0.994845 0.164439,0.104836 0.110586,0.212737 -0.31291,0.626945 -0.281343,0.275173 -0.489599,0.440728 -0.462792,0.3679 z"
     id="path864"
     inkscape:connector-curvature="0" /><path
     style="fill:#aaaaff;fill-opacity:1;stroke:none;stroke-width:0.13241525;stroke-opacity:1"
     d="m 34.138709,29.437585 -0.446016,-0.231245 0.823698,-0.957038 c 0.453033,-0.526371 0.853287,-0.927448 0.889453,-0.891283 0.04953,0.04953 -0.694912,2.177018 -0.801196,2.28969 -0.01096,0.01162 -0.22063,-0.08294 -0.465939,-0.210124 z"
     id="path866"
     inkscape:connector-curvature="0" /><path
     style="fill:#aaaaff;fill-opacity:1;stroke:none;stroke-width:0.13241525;stroke-opacity:1"
     d="m 26.838432,49.290254 v -0.529661 h 0.556535 0.556534 l -0.5172,0.529661 c -0.28446,0.291314 -0.534901,0.529661 -0.556535,0.529661 -0.02163,0 -0.03933,-0.238347 -0.03933,-0.529661 z"
     id="path868"
     inkscape:connector-curvature="0" /></svg>