<?xml version="1.0" encoding="UTF-8" standalone="no"?>
<svg
   xmlns:dc="http://purl.org/dc/elements/1.1/"
   xmlns:cc="http://creativecommons.org/ns#"
   xmlns:rdf="http://www.w3.org/1999/02/22-rdf-syntax-ns#"
   xmlns:svg="http://www.w3.org/2000/svg"
   xmlns="http://www.w3.org/2000/svg"
   xmlns:sodipodi="http://sodipodi.sourceforge.net/DTD/sodipodi-0.dtd"
   xmlns:inkscape="http://www.inkscape.org/namespaces/inkscape"
   version="1.1"
   x="0px"
   y="0px"
   viewBox="0 0 100 125"
   enable-background="new 0 0 100 100"
   xml:space="preserve"
   id="svg8"
   sodipodi:docname="Bow.svg"
   inkscape:version="0.92.2 (5c3e80d, 2017-08-06)"><metadata
     id="metadata14"><rdf:RDF><cc:Work
         rdf:about=""><dc:format>image/svg+xml</dc:format><dc:type
           rdf:resource="http://purl.org/dc/dcmitype/StillImage" /></cc:Work></rdf:RDF></metadata><defs
     id="defs12" /><sodipodi:namedview
     pagecolor="#ffffff"
     bordercolor="#666666"
     borderopacity="1"
     objecttolerance="10"
     gridtolerance="10"
     guidetolerance="10"
     inkscape:pageopacity="0"
     inkscape:pageshadow="2"
     inkscape:window-width="1920"
     inkscape:window-height="1017"
     id="namedview10"
     showgrid="false"
     inkscape:zoom="7.552"
     inkscape:cx="50"
     inkscape:cy="62.5"
     inkscape:window-x="-8"
     inkscape:window-y="-8"
     inkscape:window-maximized="1"
     inkscape:current-layer="svg8" /><path
     fill="#000000"
     d="M81.646,50.277c0.742-1.75,2.188-3.224,4.121-4.18l5.026-2.49H69.3l-0.288,0.152  c-1.469,0.777-2.711,1.83-3.664,3.077h-4.426V17.783c0.176-0.085,0.35-0.174,0.528-0.255c2.598-0.897,4.338-3.334,4.338-6.086  C65.788,7.89,62.898,5,59.346,5c-0.308,0-0.63,0.027-0.988,0.083l-1.111,0.172v3.427c-0.247,1.855-1.662,3.609-3.995,4.946  c-7.278,3.717-13.372,8.953-17.625,15.144c-0.406,0.591-0.791,1.191-1.161,1.797c-0.026,0-0.053-0.004-0.08-0.004  c-0.923,0-1.771,0.541-2.162,1.377l-0.654,1.403c-0.378,0.813-0.258,1.732,0.235,2.411c-1.501,3.563-2.438,7.291-2.774,11.082h-2.57  v-3.902L9.205,50.277L26.46,57.62v-3.901h2.619c0.375,3.6,1.294,7.141,2.723,10.529c-0.491,0.68-0.611,1.598-0.233,2.408  l0.654,1.404c0.39,0.836,1.239,1.377,2.163,1.377c0.026,0,0.052-0.004,0.078-0.004c0.371,0.604,0.756,1.205,1.162,1.797  c4.253,6.189,10.347,11.426,17.625,15.144c2.333,1.338,3.748,3.091,3.995,4.946v3.428l1.113,0.172c0.354,0.055,0.68,0.08,0.986,0.08  c3.553,0,6.441-2.891,6.441-6.441c0-2.752-1.74-5.188-4.338-6.086c-0.18-0.082-0.354-0.17-0.527-0.254v-28.5h4.428  c0.95,1.247,2.192,2.299,3.664,3.076l0.286,0.152h21.495l-5.027-2.49C83.836,53.501,82.389,52.027,81.646,50.277z M54.473,15.953  l0.053-0.029c3.121-1.781,5.018-4.27,5.336-7.009l0.011-1.252c1.854,0.257,3.29,1.854,3.29,3.78c0,1.643-1.049,3.097-2.609,3.617  l-0.121,0.048c-5.443,2.447-10.034,6.909-13.353,12.605c-2.158,1.713-4.071,3.687-5.722,5.855L36.94,31.51  C40.889,25.224,46.865,19.832,54.473,15.953z M46.252,40.191l0.655-1.403c0.475-1.021,0.163-2.208-0.684-2.877  c2.424-7.138,6.655-13.066,12.073-16.633v27.559H44.05c0.127-1.827,0.365-3.619,0.703-5.364  C45.404,41.283,45.958,40.822,46.252,40.191z M43.865,34.738l-1.052-0.49c0.708-0.91,1.463-1.783,2.269-2.612  C44.638,32.642,44.233,33.679,43.865,34.738z M34.501,33.271l9.922,4.626l-0.45,0.965l-9.923-4.627L34.501,33.271z M38.692,46.837  h-1.863c0.154-0.668,0.327-1.33,0.522-1.984l4.215-4.215l0.62,0.289c-0.185,0.951-0.343,1.913-0.47,2.888L38.692,46.837z   M41.459,46.299c-0.014,0.179-0.022,0.358-0.034,0.538h-0.504L41.459,46.299z M38.615,41.361c0.25-0.584,0.52-1.159,0.803-1.726  l0.629,0.293L38.615,41.361z M34.05,37.133l3.944,1.839c-1.238,2.483-2.18,5.123-2.786,7.865h-3.547  C31.975,43.489,32.787,40.235,34.05,37.133z M23.834,53.648l-7.921-3.373l7.921-3.371V53.648z M35.327,62.271l-1.282,0.599  c-1.194-2.931-1.984-5.999-2.333-9.151h2.69c-0.003,0.188-0.008,0.377-0.008,0.565C34.395,57.02,34.718,59.695,35.327,62.271z   M35.984,55.1c-0.007-0.271-0.014-0.543-0.014-0.814c0-0.188,0.005-0.379,0.009-0.564h1.386L35.984,55.1z M39.594,53.719h1.869  c0.034,0.447,0.073,0.893,0.12,1.336l-5.092,5.092c-0.184-1.035-0.32-2.082-0.406-3.143c0.162-0.023,0.318-0.095,0.442-0.22  L39.594,53.719z M41.833,57.033c0.103,0.688,0.225,1.365,0.356,2.039L37.7,61.166L41.833,57.033z M44.091,53.719h14.204v27.004  c-5.418-3.566-9.647-9.496-12.073-16.634c0.345-0.271,0.609-0.631,0.763-1.054c0.218-0.598,0.189-1.246-0.08-1.823l-0.654-1.403  c-0.294-0.629-0.848-1.092-1.499-1.281C44.449,56.959,44.225,55.354,44.091,53.719z M34.501,66.73l-0.45-0.965l9.922-4.627  l0.45,0.965L34.501,66.73z M36.938,68.492l0.416-0.193c0.445,1.004,0.935,1.982,1.474,2.934  C38.153,70.34,37.524,69.425,36.938,68.492z M38.782,67.632l2.492-1.163L39.2,68.544C39.056,68.243,38.917,67.938,38.782,67.632z   M39.953,70.02l4.13-4.129c0.296,0.805,0.614,1.596,0.953,2.371L41.198,72.1C40.758,71.423,40.341,70.73,39.953,70.02z   M42.104,73.422l3.638-3.637c0.358,0.732,0.735,1.447,1.132,2.146l-3.333,3.332C43.039,74.668,42.561,74.053,42.104,73.422z   M44.614,76.466l2.11-2.11v-0.047l0.982-0.981c0.428,0.683,0.875,1.344,1.339,1.985L46.258,78.1  C45.689,77.574,45.142,77.029,44.614,76.466z M47.445,79.141l2.561-2.561c0.494,0.62,1.008,1.215,1.536,1.789l-2.216,2.216  C48.68,80.126,48.051,79.645,47.445,79.141z M52.759,82.707l-0.006-0.003c-0.718-0.382-1.415-0.791-2.094-1.222l1.979-1.979  c0.563,0.554,1.146,1.08,1.744,1.579L52.759,82.707z M54.525,84.077l-0.053-0.029c-0.185-0.093-0.361-0.19-0.541-0.286l1.701-1.701  c0.646,0.479,1.309,0.926,1.985,1.34l-1.632,1.631C55.535,84.695,55.049,84.375,54.525,84.077z M62.454,86.348  c0.448,0.629,0.707,1.396,0.707,2.211c0,0.146-0.011,0.291-0.027,0.435l-3.263,3.263v-1.02l-0.01-0.15  c-0.068-0.587-0.213-1.163-0.424-1.725L62.454,86.348z M61.292,85.281l-2.597,2.597c-0.404-0.642-0.905-1.252-1.5-1.825l1.845-1.844  c0.458,0.241,0.919,0.473,1.39,0.686l0.123,0.047C60.814,85.029,61.061,85.145,61.292,85.281z M25.147,51.091v-1.628h38.744  c-0.05,0.134-0.099,0.269-0.144,0.406l-0.134,0.408l0.134,0.409c0.044,0.137,0.094,0.271,0.144,0.405H25.147z M74.023,46.234h2.309  c-0.827,0.945-1.477,2.045-1.907,3.255h-0.479h-2.418C72.082,48.205,72.939,47.092,74.023,46.234z M67.378,48.505  c0.672-0.902,1.548-1.676,2.585-2.271h1.74c-0.827,0.945-1.477,2.045-1.907,3.255h-0.438H66.87  C67.018,49.148,67.189,48.821,67.378,48.505z M69.964,54.32c-1.038-0.594-1.914-1.368-2.585-2.271  c-0.188-0.314-0.359-0.645-0.507-0.982h2.487h0.438c0.432,1.209,1.08,2.311,1.907,3.254H69.964z M74.023,54.32  c-1.084-0.857-1.941-1.971-2.496-3.254h2.418h0.479c0.432,1.209,1.08,2.311,1.907,3.254H74.023z M78.645,54.32  c-1.084-0.857-1.941-1.969-2.496-3.254h2.895c0.432,1.209,1.08,2.311,1.907,3.254H78.645z M79.042,49.489h-2.894  c0.555-1.285,1.412-2.397,2.496-3.255h2.305C80.121,47.179,79.471,48.279,79.042,49.489z"
     id="path2" /><path
     style="fill:#ff0000;fill-opacity:1;stroke:none;stroke-width:0.13241525;stroke-opacity:1"
     d="m 69.194916,53.716959 c -1.07402,-0.793513 -2.166314,-2.070136 -2.166314,-2.531888 0,-0.04003 0.610765,-0.07177 1.357256,-0.07052 l 1.357256,0.0023 0.313979,0.725303 c 0.172688,0.398917 0.573954,1.112942 0.891703,1.586723 l 0.577724,0.86142 h -0.777825 c -0.709569,0 -0.845915,-0.05031 -1.553779,-0.573295 z"
     id="path812"
     inkscape:connector-curvature="0" /><path
     style="fill:#ff0000;fill-opacity:1;stroke:none;stroke-width:0.13241525;stroke-opacity:1"
     d="m 72.019013,48.701027 c 0.204824,-0.379425 0.721863,-1.064674 1.148976,-1.522775 l 0.77657,-0.832913 h 1.04414 c 0.574277,0 1.04414,0.0219 1.04414,0.04867 0,0.02677 -0.26083,0.437639 -0.579621,0.913041 -0.318792,0.475402 -0.684409,1.138748 -0.812481,1.474102 l -0.23286,0.609735 h -1.380635 -1.380635 z"
     id="path814"
     inkscape:connector-curvature="0" /><path
     style="fill:#ff0000;fill-opacity:1;stroke:none;stroke-width:0.13241525;stroke-opacity:1"
     d="M 78.150028,53.809733 C 77.637992,53.347139 76.29767,51.483118 76.29767,51.23361 c 0,-0.06673 0.610765,-0.121099 1.357256,-0.120826 l 1.357256,4.97e-4 0.250858,0.628476 c 0.137971,0.345662 0.534299,1.060481 0.880728,1.588487 l 0.629871,0.96001 h -1.045866 c -1.016362,0 -1.06087,-0.01355 -1.577745,-0.480521 z"
     id="path816"
     inkscape:connector-curvature="0" /><path
     style="fill:#ffff00;fill-opacity:1;stroke:none;stroke-width:0.13241525;stroke-opacity:1"
     d="m 73.547047,53.821844 c -0.513723,-0.439728 -1.883911,-2.322177 -1.883911,-2.588234 0,-0.06673 0.610765,-0.120305 1.357256,-0.119062 l 1.357256,0.0023 0.32775,0.759128 c 0.180263,0.41752 0.582078,1.131545 0.892922,1.586723 l 0.565173,0.827595 h -1.034607 c -0.993085,0 -1.056569,-0.0188 -1.581839,-0.46841 z"
     id="path818"
     inkscape:connector-curvature="0" /><path
     style="fill:#ffff00;fill-opacity:1;stroke:none;stroke-width:0.13241525;stroke-opacity:1"
     d="m 67.028602,49.273041 c 0,-0.305446 1.240505,-1.750176 1.980235,-2.306242 0.784009,-0.58935 0.870474,-0.62146 1.67343,-0.62146 h 0.846704 l -0.46522,0.609471 c -0.255871,0.33521 -0.657689,1.019279 -0.892928,1.520153 l -0.427709,0.910682 -1.357256,0.0026 c -0.746491,0.0014 -1.357256,-0.05041 -1.357256,-0.115226 z"
     id="path820"
     inkscape:connector-curvature="0" /><path
     style="fill:#ffff00;fill-opacity:1;stroke:none;stroke-width:0.13241525;stroke-opacity:1"
     d="m 76.349559,49.181831 c 0.178653,-0.465563 1.030969,-1.616207 1.6396,-2.213494 l 0.647006,-0.634948 1.009296,0.03908 1.009296,0.03908 -0.577939,0.897417 c -0.317866,0.493579 -0.687446,1.163708 -0.821288,1.489175 l -0.243348,0.591758 -1.371423,4.97e-4 c -1.195189,4.32e-4 -1.361114,-0.02637 -1.2912,-0.208563 z"
     id="path822"
     inkscape:connector-curvature="0" /><path
     style="fill:#00ffff;fill-opacity:1;stroke:none;stroke-width:0.13241525;stroke-opacity:1"
     d="m 19.925236,51.923331 c -1.982725,-0.85507 -3.637251,-1.586971 -3.676726,-1.626445 -0.03947,-0.03947 1.135854,-0.582307 2.61184,-1.206295 1.475987,-0.623988 3.175203,-1.34571 3.776038,-1.603827 l 1.092426,-0.469304 v 3.239151 c 0,1.781534 -0.04469,3.235156 -0.09931,3.230273 -0.05462,-0.0049 -1.721541,-0.708483 -3.704266,-1.563553 z"
     id="path824"
     inkscape:connector-curvature="0" /><path
     style="fill:#803300;fill-opacity:1;stroke:none;stroke-width:0.13241525;stroke-opacity:1"
     d="m 25.185381,50.251589 v -0.728284 h 19.238045 19.238045 v 0.728284 0.728284 H 44.423426 25.185381 Z"
     id="path826"
     inkscape:connector-curvature="0" /><path
     style="fill:#cccccc;fill-opacity:1;stroke:none;stroke-width:0.13241525;stroke-opacity:1"
     d="m 39.155191,36.537278 c -2.621822,-1.224574 -4.823414,-2.248747 -4.892425,-2.275938 -0.104414,-0.04114 0.142151,-0.892696 0.258477,-0.892696 0.01907,0 1.963306,0.901566 4.320535,2.00348 2.357229,1.101914 4.563908,2.129788 4.903733,2.284163 l 0.617863,0.280683 -0.220617,0.413404 -0.220617,0.413404 z"
     id="path828"
     inkscape:connector-curvature="0" /><path
     style="fill:#cccccc;fill-opacity:1;stroke:none;stroke-width:0.13241525;stroke-opacity:1"
     d="m 34.34562,66.27272 c -0.208736,-0.458125 -0.197527,-0.551668 0.07573,-0.631936 0.12745,-0.03744 2.325286,-1.048645 4.88408,-2.247127 l 4.652352,-2.179057 0.20163,0.422821 0.20163,0.422822 -4.721567,2.199312 c -2.596862,1.209621 -4.815231,2.234465 -4.929708,2.277431 -0.139161,0.05223 -0.259842,-0.03535 -0.364142,-0.264266 z"
     id="path830"
     inkscape:connector-curvature="0" /><path
     style="fill:#2a2aff;fill-opacity:1;stroke:none;stroke-width:0.13241525;stroke-opacity:1"
     d="m 39.263885,32.527966 c -1.105473,-0.52081 -2.049946,-0.987667 -2.098829,-1.037459 -0.196355,-0.200005 2.215651,-3.436221 4.077561,-5.47091 3.406576,-3.722692 7.137167,-6.618966 12.030483,-9.339956 1.150959,-0.640006 2.437597,-1.43168 2.859193,-1.759276 2.421931,-1.881924 3.743104,-4.140863 3.745146,-6.4034416 l 7.39e-4,-0.818352 0.367912,0.1055158 c 1.069207,0.3066445 1.995192,1.0590299 2.496513,2.028477 0.329592,0.6373628 0.392417,2.0438288 0.12699,2.8429558 -0.376133,1.132431 -0.940737,1.64287 -2.820954,2.550327 -1.779179,0.858693 -3.705062,2.059276 -5.253864,3.275226 -2.285961,1.794688 -5.406285,5.34644 -7.129446,8.11519 -0.460002,0.739126 -0.993272,1.325105 -2.080264,2.285877 -0.803931,0.710578 -1.962327,1.872163 -2.574214,2.581299 -0.611886,0.709135 -1.253032,1.447313 -1.424768,1.640396 l -0.312248,0.351058 z"
     id="path832"
     inkscape:connector-curvature="0" /><path
     style="fill:#2a2aff;fill-opacity:1;stroke:none;stroke-width:0.13241525;stroke-opacity:1"
     d="m 31.856528,45.786675 c 0.188847,-2.041676 1.349706,-6.564666 2.104816,-8.200879 l 0.162067,-0.351174 1.853814,0.860547 c 1.019597,0.473301 1.872867,0.878799 1.896154,0.901107 0.02329,0.02231 -0.08761,0.295284 -0.246437,0.606614 -0.589246,1.155017 -1.484446,3.55138 -1.974626,5.285881 l -0.505188,1.787606 -1.689888,0.03721 -1.689888,0.03721 z"
     id="path834"
     inkscape:connector-curvature="0" /><path
     style="fill:#2a2aff;fill-opacity:1;stroke:none;stroke-width:0.13241525;stroke-opacity:1"
     d="M 33.685599,61.73099 C 32.912673,59.7069 32.169269,56.72426 31.8723,54.455773 l -0.09101,-0.69518 h 1.27037 1.270371 l 1.11e-4,0.960011 c 1.98e-4,1.72791 0.578656,6.533491 0.881422,7.322486 0.04129,0.107587 -0.139811,0.281171 -0.468028,0.448615 -0.294454,0.150219 -0.562321,0.273126 -0.595262,0.273126 -0.03294,0 -0.237545,-0.465229 -0.454678,-1.033841 z"
     id="path836"
     inkscape:connector-curvature="0" /><path
     style="fill:#2a2aff;fill-opacity:1;stroke:none;stroke-width:0.06620762;stroke-opacity:1"
     d="m 37.627116,69.47846 c -0.507425,-0.756802 -0.628662,-0.980169 -0.556731,-1.025721 0.218399,-0.138305 0.298711,-0.03989 0.771176,0.945007 0.264328,0.551016 0.470167,1.012277 0.45742,1.025025 -0.01275,0.01275 -0.315087,-0.412192 -0.671865,-0.944311 z"
     id="path838"
     inkscape:connector-curvature="0" /><path
     style="fill:#aaaaff;fill-opacity:1;stroke:none;stroke-width:0.13241525;stroke-opacity:1"
     d="m 59.878178,91.352397 c 0,-0.40605 -0.08167,-1.009647 -0.181492,-1.341325 l -0.181492,-0.603052 1.484918,-1.480705 1.484918,-1.480706 0.285557,0.663796 c 0.157056,0.365088 0.285557,0.921822 0.285557,1.237187 0,0.556343 -0.04724,0.620512 -1.588983,2.158234 l -1.588983,1.584844 z"
     id="path840"
     inkscape:connector-curvature="0" /><path
     style="fill:#aaaaff;fill-opacity:1;stroke:none;stroke-width:0.13241525;stroke-opacity:1"
     d="m 58.554025,87.557313 c 0,-0.05587 -0.277299,-0.418581 -0.61622,-0.806018 l -0.61622,-0.704432 0.876807,-0.876808 0.876808,-0.876807 0.964254,0.454815 c 0.530339,0.250148 0.990947,0.473003 1.023573,0.495234 0.07849,0.05348 -2.27515,2.415601 -2.406929,2.415601 -0.05614,0 -0.102073,-0.04571 -0.102073,-0.101585 z"
     id="path842"
     inkscape:connector-curvature="0" /><path
     style="fill:#aaaaff;fill-opacity:1;stroke:none;stroke-width:0.13241525;stroke-opacity:1"
     d="m 54.952974,84.291671 -0.88654,-0.561689 0.757964,-0.750054 c 0.41688,-0.41253 0.798071,-0.750055 0.847091,-0.750055 0.04902,0 0.484214,0.276185 0.967098,0.613745 l 0.87797,0.613744 -0.701584,0.710408 c -0.385871,0.390724 -0.763206,0.704824 -0.838522,0.697999 -0.07532,-0.0068 -0.535881,-0.26517 -1.023477,-0.574098 z"
     id="path844"
     inkscape:connector-curvature="0" /><path
     style="fill:#aaaaff;fill-opacity:1;stroke:none;stroke-width:0.13241525;stroke-opacity:1"
     d="m 51.830905,82.111805 c -0.456853,-0.27828 -0.870686,-0.546007 -0.919628,-0.594949 -0.04894,-0.04894 0.319346,-0.500472 0.818418,-1.003399 l 0.907406,-0.914412 0.831266,0.752649 0.831267,0.752649 -0.748691,0.761388 c -0.41178,0.418763 -0.78035,0.759284 -0.819044,0.756712 -0.03869,-0.0026 -0.444141,-0.232359 -0.900994,-0.510638 z"
     id="path846"
     inkscape:connector-curvature="0" /><path
     style="fill:#aaaaff;fill-opacity:1;stroke:none;stroke-width:0.13241525;stroke-opacity:1"
     d="m 48.436173,79.83603 -0.90234,-0.683089 1.23509,-1.240248 c 0.6793,-0.682136 1.271181,-1.19646 1.31529,-1.142942 0.04411,0.05352 0.369576,0.443815 0.723258,0.867329 l 0.643058,0.770024 -1.056007,1.056008 -1.056008,1.056008 z"
     id="path848"
     inkscape:connector-curvature="0" /><path
     style="fill:#aaaaff;fill-opacity:1;stroke:none;stroke-width:0.13241525;stroke-opacity:1"
     d="m 45.52303,77.330058 c -0.407105,-0.385023 -0.740191,-0.766898 -0.740191,-0.848611 0,-0.166553 2.878155,-3.07769 2.95053,-2.984341 0.279142,0.360035 1.154343,1.736176 1.154343,1.815057 0,0.05681 -0.590511,0.691588 -1.312246,1.410615 L 46.26322,78.0301 Z"
     id="path850"
     inkscape:connector-curvature="0" /><path
     style="fill:#aaaaff;fill-opacity:1;stroke:none;stroke-width:0.13241525;stroke-opacity:1"
     d="m 42.87453,74.318061 c -0.333087,-0.418763 -0.606055,-0.821834 -0.606597,-0.895713 -5.41e-4,-0.07388 0.765957,-0.899565 1.70333,-1.834857 l 1.704314,-1.70053 0.563773,1.021304 0.563772,1.021305 -1.570836,1.574939 c -0.863961,0.866217 -1.611631,1.57494 -1.66149,1.57494 -0.04986,0 -0.363179,-0.342624 -0.696266,-0.761388 z"
     id="path852"
     inkscape:connector-curvature="0" /><path
     style="fill:#aaaaff;fill-opacity:1;stroke:none;stroke-width:0.13241525;stroke-opacity:1"
     d="m 40.639271,71.062189 c -0.270031,-0.461611 -0.490966,-0.894361 -0.490966,-0.961666 0,-0.0673 0.88137,-1.002273 1.958601,-2.077708 l 1.9586,-1.955335 0.440949,1.078472 0.440949,1.078473 -1.835011,1.838529 c -1.009256,1.011191 -1.868118,1.838529 -1.908583,1.838529 -0.04046,0 -0.294507,-0.377682 -0.564539,-0.839294 z"
     id="path854"
     inkscape:connector-curvature="0" /><path
     style="fill:#aaaaff;fill-opacity:1;stroke:none;stroke-width:0.13241525;stroke-opacity:1"
     d="m 39.009396,67.989066 c -0.04655,-0.185462 -0.06258,-0.350152 -0.03563,-0.365976 0.236976,-0.139129 1.598169,-0.753387 1.669504,-0.753387 0.05052,0 -0.231803,0.327728 -0.627383,0.728284 -0.395581,0.400556 -0.764828,0.728284 -0.820549,0.728284 -0.05572,0 -0.139397,-0.151742 -0.185945,-0.337205 z"
     id="path856"
     inkscape:connector-curvature="0" /><path
     style="fill:#aaaaff;fill-opacity:1;stroke:none;stroke-width:0.13241525;stroke-opacity:1"
     d="m 40.01773,58.988508 1.785766,-1.790093 0.150877,0.89629 c 0.08298,0.49296 0.139841,0.90895 0.126352,0.924423 -0.05475,0.0628 -3.683269,1.759474 -3.762822,1.759474 -0.04727,0 0.717655,-0.805542 1.699827,-1.790094 z"
     id="path858"
     inkscape:connector-curvature="0" /><path
     style="fill:#aaaaff;fill-opacity:1;stroke:none;stroke-width:0.13241525;stroke-opacity:1"
     d="m 36.3235,58.546745 -0.158157,-1.304949 1.759754,-1.737936 1.759755,-1.737935 0.893803,-0.0027 0.893803,-0.0027 v 0.630315 0.630315 l -2.417886,2.415236 c -1.329837,1.32838 -2.452767,2.415236 -2.4954,2.415236 -0.04263,0 -0.148685,-0.587227 -0.235672,-1.30495 z"
     id="path860"
     inkscape:connector-curvature="0" /><path
     style="fill:#aaaaff;fill-opacity:1;stroke:none;stroke-width:0.13241525;stroke-opacity:1"
     d="m 36.970339,46.567995 c 0,-0.09602 0.09398,-0.498235 0.208837,-0.893803 0.189631,-0.653068 0.399559,-0.911017 2.282611,-2.804753 1.140576,-1.147048 2.134059,-2.084628 2.207741,-2.083513 0.404074,0.0061 0.428385,0.21034 0.19627,1.648719 l -0.234333,1.452123 -1.502968,1.422443 -1.502967,1.422443 -0.827596,0.0055 c -0.599493,0.004 -0.827595,-0.04265 -0.827595,-0.169124 z"
     id="path862"
     inkscape:connector-curvature="0" /><path
     style="fill:#aaaaff;fill-opacity:1;stroke:none;stroke-width:0.13241525;stroke-opacity:1"
     d="m 38.975357,40.850106 c 0.442439,-1.20201 0.445201,-1.205552 0.775702,-0.994845 0.164439,0.104836 0.110586,0.212737 -0.31291,0.626945 -0.281343,0.275173 -0.489599,0.440728 -0.462792,0.3679 z"
     id="path864"
     inkscape:connector-curvature="0" /><path
     style="fill:#aaaaff;fill-opacity:1;stroke:none;stroke-width:0.13241525;stroke-opacity:1"
     d="m 43.343709,34.437585 -0.446016,-0.231245 0.823698,-0.957038 c 0.453033,-0.526371 0.853287,-0.927448 0.889453,-0.891283 0.04953,0.04953 -0.694912,2.177018 -0.801196,2.28969 -0.01096,0.01162 -0.22063,-0.08294 -0.465939,-0.210124 z"
     id="path866"
     inkscape:connector-curvature="0" /><path
     style="fill:#aaaaff;fill-opacity:1;stroke:none;stroke-width:0.13241525;stroke-opacity:1"
     d="m 36.043432,54.290254 v -0.529661 h 0.556535 0.556534 l -0.5172,0.529661 c -0.28446,0.291314 -0.534901,0.529661 -0.556535,0.529661 -0.02163,0 -0.03933,-0.238347 -0.03933,-0.529661 z"
     id="path868"
     inkscape:connector-curvature="0" /></svg>