<?xml version="1.0" encoding="UTF-8" standalone="no"?>
<svg
   xmlns:dc="http://purl.org/dc/elements/1.1/"
   xmlns:cc="http://creativecommons.org/ns#"
   xmlns:rdf="http://www.w3.org/1999/02/22-rdf-syntax-ns#"
   xmlns:svg="http://www.w3.org/2000/svg"
   xmlns="http://www.w3.org/2000/svg"
   xmlns:sodipodi="http://sodipodi.sourceforge.net/DTD/sodipodi-0.dtd"
   xmlns:inkscape="http://www.inkscape.org/namespaces/inkscape"
   version="1.1"
   x="0px"
   y="0px"
   viewBox="0 0 100 125"
   style="enable-background:new 0 0 100 100;"
   xml:space="preserve"
   id="svg18"
   sodipodi:docname="CampCheckAdjacent.svg"
   inkscape:version="0.92.2 (5c3e80d, 2017-08-06)"><metadata
     id="metadata24"><rdf:RDF><cc:Work
         rdf:about=""><dc:format>image/svg+xml</dc:format><dc:type
           rdf:resource="http://purl.org/dc/dcmitype/StillImage" /></cc:Work></rdf:RDF></metadata><defs
     id="defs22" /><sodipodi:namedview
     pagecolor="#ffffff"
     bordercolor="#666666"
     borderopacity="1"
     objecttolerance="10"
     gridtolerance="10"
     guidetolerance="10"
     inkscape:pageopacity="0"
     inkscape:pageshadow="2"
     inkscape:window-width="1280"
     inkscape:window-height="1001"
     id="namedview20"
     showgrid="false"
     inkscape:zoom="7.552"
     inkscape:cx="46.471997"
     inkscape:cy="62.5"
     inkscape:window-x="1912"
     inkscape:window-y="40"
     inkscape:window-maximized="1"
     inkscape:current-layer="svg18" /><path
     style="fill:#e6e6e6;fill-opacity:1;stroke:none;stroke-width:0.2648305;stroke-opacity:1"
     d="m 38.695151,54.950624 c -1.713948,-0.590324 -2.738739,-3.219411 -1.770847,-4.543081 0.32356,-0.442496 0.371592,-0.379147 0.513238,0.676903 0.208106,1.551541 1.756112,3.057908 3.416864,3.324954 l 1.141955,0.183625 -0.794491,0.339848 c -0.976533,0.417717 -1.338029,0.420277 -2.506719,0.01775 z"
     id="path833"
     inkscape:connector-curvature="0" /><path
     d="m 66.297408,73.23833 h -6.840761 c -0.219426,0 -0.39751,0.172153 -0.39751,0.384271 0,0.212117 0.178084,0.384271 0.39751,0.384271 h 6.840761 c 0.219426,0 0.397511,-0.172154 0.397511,-0.384271 0,-0.212118 -0.178085,-0.384271 -0.397511,-0.384271 z"
     id="path2"
     inkscape:connector-curvature="0"
     style="stroke-width:0.3908346" /><path
     d="m 66.297408,78.108577 h -7.670365 c -0.219427,0 -0.397511,0.172154 -0.397511,0.384271 0,0.212117 0.178084,0.384271 0.397511,0.384271 h 7.670365 c 0.219426,0 0.397511,-0.172154 0.397511,-0.384271 0,-0.212117 -0.178085,-0.384271 -0.397511,-0.384271 z"
     id="path4"
     inkscape:connector-curvature="0"
     style="stroke-width:0.3908346" /><path
     d="m 35.291579,76.011996 h 6.185662 c 0.219426,0 0.397511,-0.172154 0.397511,-0.384271 0,-0.212117 -0.178085,-0.384271 -0.397511,-0.384271 h -6.185662 c -0.219427,0 -0.397511,0.172154 -0.397511,0.384271 0,0.212117 0.178084,0.384271 0.397511,0.384271 z"
     id="path6"
     inkscape:connector-curvature="0"
     style="stroke-width:0.3908346" /><path
     d="m 38.443838,48.248437 c -0.120446,-0.116434 -0.304493,-0.146792 -0.457933,-0.07301 -1.491062,0.712437 -2.417659,2.148073 -2.417659,3.74664 0,2.307161 1.948597,4.184323 4.343996,4.184323 1.658414,0 3.148682,-0.891892 3.889244,-2.327528 0.07592,-0.14756 0.04611,-0.325861 -0.07433,-0.44268 -0.120445,-0.116434 -0.304095,-0.146791 -0.457933,-0.07301 -0.496887,0.23748 -1.026769,0.358141 -1.574141,0.358141 -1.956945,0 -3.548974,-1.532088 -3.548974,-3.415398 0,-0.526451 0.124817,-1.03561 0.371672,-1.513643 0.07632,-0.148713 0.04611,-0.327014 -0.07394,-0.443832 z m 3.251239,6.140646 c 0.248046,0 0.492914,-0.01998 0.733805,-0.06033 -0.654302,0.637889 -1.550291,1.008711 -2.51664,1.008711 -1.956944,0 -3.548975,-1.532088 -3.548975,-3.415783 0,-0.931088 0.385982,-1.794928 1.050621,-2.424748 -0.04174,0.232483 -0.06281,0.46881 -0.06281,0.708211 0,2.307161 1.948597,4.183939 4.343996,4.183939 z"
     id="path8"
     inkscape:connector-curvature="0"
     style="stroke-width:0.3908346;fill:#e6e6e6" /><path
     d="m 66.298998,67.07847 c -3.98e-4,0 -0.0012,0 -0.0016,0 -0.218631,0 -0.396715,0.171001 -0.397511,0.382734 l -0.0087,2.05239 -14.75162,-21.031521 c -0.147873,-0.210965 -0.510006,-0.210965 -0.65788,0 l -14.741284,21.016535 0.0087,-2.177662 c 7.74e-4,-0.212118 -0.176494,-0.38504 -0.395921,-0.385809 -3.97e-4,0 -7.74e-4,0 -0.0016,0 -0.218631,0 -0.396716,0.171002 -0.397511,0.382734 l -0.01391,3.437686 c -7.74e-4,0.169079 0.112893,0.31856 0.280245,0.368516 0.03896,0.01153 0.07831,0.0169 0.117266,0.0169 0.129191,0 0.253612,-0.0611 0.329139,-0.168694 l 2.319874,-3.307418 v 3.091842 c 0,0.212118 0.178085,0.38427 0.397511,0.38427 h 8.854151 c 0.452368,1.416806 1.823382,2.449726 3.440455,2.449726 0.01073,0 0.02067,-0.0015 0.0314,-0.0015 0.0051,0 0.01033,0.0015 0.0155,0.0015 0.0163,0 0.03101,-0.0042 0.0473,-0.0046 1.575732,-0.03958 2.90302,-1.05636 3.346643,-2.445498 h 9.117303 c 0.219426,0 0.39751,-0.172154 0.39751,-0.384271 v -3.091813 l 2.319872,3.307419 c 0.09779,0.13949 0.278258,0.200588 0.444815,0.15217 0.166557,-0.04919 0.28104,-0.197515 0.281438,-0.365826 l 0.01432,-3.293584 c 7.18e-4,-0.212537 -0.176154,-0.385075 -0.395977,-0.386228 z m -15.525573,5.740237 c -0.02107,7.9e-4 -0.04174,0.0027 -0.06281,0.0031 -0.689283,-0.0085 -1.247786,-0.548739 -1.247786,-1.213527 0,-0.436148 0.664241,-1.441784 1.263687,-2.19995 0.599445,0.757782 1.263685,1.763034 1.263685,2.19995 -7.74e-4,0.654413 -0.542601,1.185859 -1.216779,1.210452 z m 1.976423,-0.881134 c 0.01908,-0.10798 0.03459,-0.216728 0.03459,-0.329704 0,-0.972589 -1.460056,-2.72179 -1.752624,-3.062638 -0.151054,-0.175995 -0.460715,-0.175995 -0.611769,0 -0.292568,0.340848 -1.752624,2.090049 -1.752624,3.062638 0,0.154861 0.02266,0.303958 0.05764,0.448444 -0.523521,-0.490713 -0.850672,-1.174715 -0.850672,-1.932112 0,-1.150507 1.808276,-3.600618 2.804437,-4.819524 0.996161,1.218906 2.804437,3.669017 2.804437,4.819524 0,0.698603 -0.27945,1.333803 -0.733407,1.813372 z m -1.764947,-7.489051 c -0.151054,-0.175997 -0.460715,-0.175997 -0.611769,0 -0.337089,0.39234 -3.293376,3.886514 -3.293376,5.676062 0,0.08377 0.0072,0.166005 0.01312,0.248623 h -4.003727 v -2.53388 c 0.518354,-0.405406 2.23719,-1.8103 3.978287,-3.895353 1.412752,-1.691944 3.026248,-4.082492 3.75727,-6.809277 0.731022,2.726785 2.344518,5.117333 3.75727,6.809277 1.741097,2.085053 3.459933,3.489947 3.978287,3.895353 v 2.53388 h -4.295102 c 0.0059,-0.08262 0.01312,-0.164852 0.01312,-0.248623 0,-1.789548 -2.956286,-5.283337 -3.293375,-5.676062 z m 11.854561,5.924685 h -3.48418 v -2.719483 c 0,-0.119125 -0.05724,-0.231715 -0.154631,-0.304343 -0.0799,-0.05956 -7.978437,-6.037662 -7.978437,-13.113238 0,-0.212118 -0.178084,-0.384271 -0.39751,-0.384271 -0.219425,0 -0.397511,0.172153 -0.397511,0.384271 0,7.075576 -7.898536,13.053676 -7.978435,13.113238 -0.09739,0.07263 -0.154632,0.184835 -0.154632,0.304343 v 2.719483 h -3.512404 v -3.84117 L 50.810394,49.382035 62.839065,66.532037 v 3.84117 z"
     id="path10"
     inkscape:connector-curvature="0"
     style="stroke-width:0.3908346" /><path
     d="m 56.83268,75.311086 c 0.0473,-0.09222 0.05405,-0.199052 0.01908,-0.296272 L 56.265828,73.3832 c -0.07115,-0.198284 -0.294158,-0.304727 -0.500466,-0.238632 l -4.885406,1.56206 -5.119142,-1.399514 c -0.209488,-0.05649 -0.427324,0.05879 -0.488938,0.260536 l -0.508416,1.65467 c -0.03022,0.09837 -0.01829,0.204816 0.033,0.294735 0.05128,0.08992 0.137937,0.156399 0.240097,0.184451 l 1.473572,0.402715 -1.227116,0.39234 c -0.100967,0.03228 -0.184444,0.102601 -0.231748,0.194441 -0.04731,0.09223 -0.05406,0.199052 -0.01909,0.296274 l 0.585931,1.631613 c 0.05684,0.158704 0.21068,0.25823 0.37525,0.25823 0.04134,0 0.08348,-0.0065 0.124818,-0.0196 l 4.642527,-1.484438 5.058323,1.382991 c 0.03618,0.0096 0.07235,0.0146 0.108123,0.0146 0.171724,0 0.329536,-0.108364 0.380814,-0.275138 l 0.508422,-1.654286 c 0.03021,-0.09837 0.01829,-0.204817 -0.033,-0.294736 -0.05128,-0.08992 -0.137538,-0.156398 -0.240096,-0.18445 l -1.412355,-0.386192 1.470392,-0.469963 c 0.100967,-0.03228 0.184444,-0.1026 0.231351,-0.194826 z m -11.19231,-0.243243 0.281835,-0.917639 3.611384,0.987192 -1.677097,0.536058 z m 10.299103,1.927886 -0.281835,0.917639 -3.550167,-0.970668 1.677097,-0.536058 z m -9.698862,1.013322 -0.325163,-0.905342 9.72788,-3.110671 0.325163,0.905341 z"
     id="path12"
     inkscape:connector-curvature="0"
     style="stroke-width:0.3908346" /><rect
     style="fill:none"
     id="rect14"
     width="34.761917"
     height="26.753521"
     x="0.529661"
     y="49.258476" /><rect
     style="fill:none;stroke:#000000"
     id="rect26"
     width="32.838982"
     height="33.898304"
     x="0.529661"
     y="47.139832" /><rect
     style="fill:none;stroke:#000000"
     id="rect26-9"
     width="32.838982"
     height="33.898304"
     x="33.368641"
     y="81.038132" /><rect
     style="fill:none;stroke:#000000"
     id="rect26-8"
     width="32.838982"
     height="33.898304"
     x="66.207626"
     y="47.139832" /><rect
     style="fill:none;stroke:#000000"
     id="rect26-2"
     width="32.838982"
     height="33.898304"
     x="33.368641"
     y="13.241527" /><path
     style="fill:#008000;fill-opacity:1;stroke:none;stroke-width:0.2648305;stroke-opacity:1"
     d="M 34.042842,30.190678 V 13.771186 H 49.800258 65.557673 V 30.190678 46.610169 H 49.800258 34.042842 Z"
     id="path825"
     inkscape:connector-curvature="0" /><path
     style="fill:#008000;fill-opacity:1;stroke:none;stroke-width:0.2648305;stroke-opacity:1"
     d="M 1.2038592,64.088983 V 47.669492 H 16.961274 32.71869 V 64.088983 80.508475 H 16.961274 1.2038592 Z"
     id="path827"
     inkscape:connector-curvature="0" /><path
     style="fill:#008000;fill-opacity:1;stroke:none;stroke-width:0.2648305;stroke-opacity:1"
     d="M 66.881825,64.088983 V 47.669492 H 82.639241 98.396656 V 64.088983 80.508475 H 82.639241 66.881825 Z"
     id="path829"
     inkscape:connector-curvature="0" /><path
     style="fill:#008000;fill-opacity:1;stroke:none;stroke-width:0.2648305;stroke-opacity:1"
     d="M 34.042842,97.987288 V 81.567797 H 49.800258 65.557673 V 97.987288 114.40678 H 49.800258 34.042842 Z"
     id="path831"
     inkscape:connector-curvature="0" /><path
     style="fill:#a02c2c;fill-opacity:1;stroke:none;stroke-width:0.13241525;stroke-opacity:1"
     d="m 46.159857,77.594599 c -0.08291,-0.181974 -0.103208,-0.375865 -0.0451,-0.430871 0.140769,-0.133253 9.432394,-3.090339 9.499493,-3.023241 0.02878,0.02878 0.09151,0.208462 0.139408,0.3993 0.07226,0.28791 0.03464,0.36111 -0.220964,0.430001 -0.169427,0.04566 -2.313707,0.72937 -4.765068,1.519348 l -4.457019,1.436323 z"
     id="path837"
     inkscape:connector-curvature="0" /><path
     style="fill:#a02c2c;fill-opacity:1;stroke:none;stroke-width:0.13241525;stroke-opacity:1"
     d="m 47.213522,75.452961 c -0.18207,-0.06649 -0.589793,-0.187476 -0.906049,-0.268848 -0.535923,-0.137892 -0.568946,-0.172114 -0.485794,-0.503419 0.04907,-0.195508 0.107926,-0.374178 0.130793,-0.397044 0.02287,-0.02287 0.773659,0.153077 1.668429,0.390986 l 1.626853,0.432562 -0.453576,0.185078 c -0.610215,0.248994 -1.1802,0.306937 -1.580656,0.160685 z"
     id="path839"
     inkscape:connector-curvature="0" /><path
     style="fill:#a02c2c;fill-opacity:1;stroke:none;stroke-width:0.13241525;stroke-opacity:1"
     d="m 53.99481,77.40382 c -0.822066,-0.224181 -1.447728,-0.450321 -1.39036,-0.502533 0.05737,-0.05221 0.330882,-0.167368 0.607809,-0.255903 0.416596,-0.133188 0.657189,-0.12331 1.393903,0.05723 1.156289,0.283363 1.249938,0.347314 1.141468,0.77949 -0.04853,0.19337 -0.126471,0.346572 -0.173198,0.34045 -0.04673,-0.0061 -0.757556,-0.194553 -1.579622,-0.418734 z"
     id="path841"
     inkscape:connector-curvature="0" /><path
     style="fill:#ff0000;fill-opacity:1;stroke:none;stroke-width:0.13241525;stroke-opacity:1"
     d="m 50.391489,72.711145 c -0.423204,-0.160571 -0.794492,-0.626459 -0.794492,-0.996917 0,-0.412199 0.326563,-1.118323 0.824644,-1.783121 l 0.315511,-0.421117 0.577521,0.851641 c 0.673571,0.993279 0.739856,1.502091 0.257518,1.976731 -0.340322,0.334891 -0.853519,0.496922 -1.180702,0.372783 z"
     id="path843"
     inkscape:connector-curvature="0" /><path
     style="fill:#ffff00;fill-opacity:1;stroke:none;stroke-width:0.13241525;stroke-opacity:1"
     d="m 48.354222,71.469533 c -0.397734,-0.676107 -0.478967,-1.266707 -0.27069,-1.96805 0.165149,-0.55612 1.576099,-2.831781 2.304967,-3.717585 l 0.272388,-0.331038 0.337624,0.397246 c 0.624214,0.734446 1.659565,2.326325 2.05052,3.152727 0.459479,0.971248 0.479263,1.409405 0.09979,2.210091 l -0.282404,0.595868 -0.08937,-0.486001 c -0.108268,-0.58875 -0.81873,-1.795512 -1.481015,-2.515593 -0.602294,-0.654854 -0.777281,-0.591072 -1.609776,0.58676 -0.768294,1.087 -0.921079,1.388957 -1.008908,1.993949 l -0.07346,0.506022 z"
     id="path845"
     inkscape:connector-curvature="0" /><path
     style="fill:#ffcc00;fill-opacity:1;stroke:none;stroke-width:0.13241525;stroke-opacity:1"
     d="m 38.87227,68.3991 9.09e-4,-1.886918 5.970087,-8.507298 5.970088,-8.507298 6.011952,8.573505 6.011953,8.573506 6.62e-4,1.82071 6.62e-4,1.82071 h -1.721398 -1.721398 l -0.0032,-1.423464 -0.0032,-1.423464 -1.215548,-1.059322 C 54.314047,63.016099 51.6224,58.58263 51.357946,55.153259 c -0.0868,-1.125594 -0.28813,-1.50803 -0.68272,-1.296852 -0.170135,0.09105 -0.267134,0.435317 -0.38452,1.36472 -0.208603,1.65161 -0.574675,2.794975 -1.4317,4.47167 -1.025977,2.007237 -2.510155,3.898331 -4.751528,6.054251 l -1.925735,1.852319 v 1.343325 1.343325 h -1.655191 -1.655191 z"
     id="path847"
     inkscape:connector-curvature="0" /><path
     style="fill:#aa8800;fill-opacity:1;stroke:none;stroke-width:0.13241525;stroke-opacity:1"
     d="m 43.10865,69.146762 v -1.139254 l 1.587256,-1.520679 c 2.982088,-2.857005 4.83251,-5.466678 5.830661,-8.223054 l 0.301705,-0.833154 0.424839,1.129412 c 1.021659,2.716027 3.443928,6.023362 6.082706,8.305253 l 1.12292,0.971049 0.005,1.224841 0.005,1.224841 h -2.0377 -2.0377 l -0.09004,-0.496557 c -0.188491,-1.039541 -1.205393,-2.807248 -2.695649,-4.685915 -0.801778,-1.010749 -1.038812,-1.000289 -1.914496,0.08449 -1.449446,1.795534 -2.611833,3.872696 -2.612026,4.667637 l -1.05e-4,0.43035 H 45.094878 43.10865 Z"
     id="path849"
     inkscape:connector-curvature="0" /></svg>