<?xml version="1.0" encoding="UTF-8" standalone="no"?>
<svg
   xmlns:dc="http://purl.org/dc/elements/1.1/"
   xmlns:cc="http://creativecommons.org/ns#"
   xmlns:rdf="http://www.w3.org/1999/02/22-rdf-syntax-ns#"
   xmlns:svg="http://www.w3.org/2000/svg"
   xmlns="http://www.w3.org/2000/svg"
   xmlns:sodipodi="http://sodipodi.sourceforge.net/DTD/sodipodi-0.dtd"
   xmlns:inkscape="http://www.inkscape.org/namespaces/inkscape"
   viewBox="0 0 24 30"
   version="1.1"
   x="0px"
   y="0px"
   id="svg40"
   sodipodi:docname="CampHealth.svg"
   inkscape:version="0.92.2 (5c3e80d, 2017-08-06)">
  <metadata
     id="metadata46">
    <rdf:RDF>
      <cc:Work
         rdf:about="">
        <dc:format>image/svg+xml</dc:format>
        <dc:type
           rdf:resource="http://purl.org/dc/dcmitype/StillImage" />
      </cc:Work>
    </rdf:RDF>
  </metadata>
  <defs
     id="defs44" />
  <sodipodi:namedview
     pagecolor="#ffffff"
     bordercolor="#666666"
     borderopacity="1"
     objecttolerance="10"
     gridtolerance="10"
     guidetolerance="10"
     inkscape:pageopacity="0"
     inkscape:pageshadow="2"
     inkscape:window-width="1920"
     inkscape:window-height="1017"
     id="namedview42"
     showgrid="false"
     inkscape:zoom="22.250293"
     inkscape:cx="12"
     inkscape:cy="15"
     inkscape:window-x="-8"
     inkscape:window-y="-8"
     inkscape:window-maximized="1"
     inkscape:current-layer="svg40" />
  <title
     id="title2">health_001-caduceus-medical-wing-snake</title>
  <desc
     id="desc4">Created with Sketch.</desc>
  <g
     id="g34"
     transform="translate(-0.25423729,2.4152542)"
     style="fill:#cccccc;fill-rule:evenodd;stroke:none;stroke-width:1">
    <g
       transform="translate(-24,-72)"
       id="g32"
       style="fill:#cccccc;fill-rule:nonzero">
      <g
         transform="translate(24,72)"
         id="g30"
         style="fill:#cccccc">
        <g
           transform="translate(14)"
           id="g12"
           style="fill:#cccccc">
          <path
             d="M 0.56395065,6.0041066 C 0.29007626,5.9687876 0.03942552,6.162175 0.00410655,6.4360493 -0.03121242,6.7099237 0.16217496,6.9605745 0.43604935,6.9958934 4.7368322,7.5505244 7.6175339,6.4727891 9.8801315,3.8248077 10.157396,3.5003177 9.9268128,3 9.5,3 8.2216796,3 7.2141505,2.672718 5.9537583,1.9833785 6.0157018,2.0172569 4.9083557,1.3917964 4.6184961,1.2489984 4.1052759,0.99616292 3.6790683,0.86150159 3.245806,0.84561894 2.9340465,0.83419038 2.6305744,0.88754915 2.3324546,1.0100493 1.6025342,1.3099803 1.2842974,1.8759603 1.0821039,2.8149673 1.061858,2.9089912 1.0448887,2.993937 1.0119025,3.1623682 0.87030611,3.880077 0.79672815,4.0048257 0.56821018,4.0001066 0.29212667,3.9944052 0.06369484,4.2135931 0.05799341,4.4896766 0.05229197,4.7657602 0.27147996,4.994192 0.54756347,4.9998934 1.4691945,5.0189261 1.7632645,4.5203413 1.9929913,3.3559266 2.0259414,3.1877878 2.0412899,3.1109551 2.0596973,3.0254695 2.1991998,2.3776059 2.3607249,2.0684311 2.7125277,1.9350058 3.0876226,1.7927467 3.311198,1.6778896 5.4739125,2.8607313 6.5085387,3.4265938 7.4134819,3.7798705 8.4128886,3.9245591 6.4901368,5.7588638 4.0882866,6.4586066 0.56395065,6.0041066 Z"
             id="path6"
             inkscape:connector-curvature="0"
             style="fill:#cccccc" />
          <path
             d="M 5.286506,4.8329353 C 6.021853,5.4172049 6.9534958,5.6130992 8.0458456,5.4323965 8.3182854,5.3873279 8.5026062,5.1299366 8.4575377,4.8574968 8.4124691,4.585057 8.1550778,4.4007362 7.882638,4.4458047 7.0543619,4.5828228 6.4082107,4.4469582 5.9085955,4.0499892 5.6923909,3.8782039 5.377863,3.9142129 5.2060777,4.1304175 5.0342924,4.3466221 5.0703014,4.66115 5.286506,4.8329353 Z"
             id="path8"
             inkscape:connector-curvature="0"
             style="fill:#cccccc" />
          <path
             d="M 2.9670516,5.2703916 C 3.5293372,6.1680572 4.3084116,6.6732862 5.2704161,6.7473108 5.5457445,6.7684968 5.786117,6.5624737 5.8073031,6.2871452 5.8284891,6.0118168 5.622466,5.7714443 5.3471376,5.7502582 4.7137356,5.701519 4.2141498,5.3775382 3.8145214,4.739548 3.667933,4.5055257 3.359387,4.4346465 3.1253647,4.5812349 2.8913424,4.7278234 2.8204632,5.0363693 2.9670516,5.2703916 Z"
             id="path10"
             inkscape:connector-curvature="0"
             style="fill:#cccccc" />
        </g>
        <g
           transform="matrix(-1,0,0,1,11,0)"
           id="g20"
           style="fill:#cccccc">
          <path
             d="M 0.56395065,6.0041066 C 0.29007626,5.9687876 0.03942552,6.162175 0.00410655,6.4360493 -0.03121242,6.7099237 0.16217496,6.9605745 0.43604935,6.9958934 4.7368322,7.5505244 7.6175339,6.4727891 9.8801315,3.8248077 10.157396,3.5003177 9.9268128,3 9.5,3 8.2216796,3 7.2141505,2.672718 5.9537583,1.9833785 6.0157018,2.0172569 4.9083557,1.3917964 4.6184961,1.2489984 4.1052759,0.99616292 3.6790683,0.86150159 3.245806,0.84561894 2.9340465,0.83419038 2.6305744,0.88754915 2.3324546,1.0100493 1.6025342,1.3099803 1.2842974,1.8759603 1.0821039,2.8149673 1.061858,2.9089912 1.0448887,2.993937 1.0119025,3.1623682 0.87030611,3.880077 0.79672815,4.0048257 0.56821018,4.0001066 0.29212667,3.9944052 0.06369484,4.2135931 0.05799341,4.4896766 0.05229197,4.7657602 0.27147996,4.994192 0.54756347,4.9998934 1.4691945,5.0189261 1.7632645,4.5203413 1.9929913,3.3559266 2.0259414,3.1877878 2.0412899,3.1109551 2.0596973,3.0254695 2.1991998,2.3776059 2.411118,2.1106113 2.7125277,1.9350058 3.0456995,1.7408952 3.311198,1.6778896 5.4739125,2.8607313 6.5085387,3.4265938 7.4134819,3.7798705 8.4128886,3.9245591 6.4901368,5.7588638 4.0882866,6.4586066 0.56395065,6.0041066 Z"
             id="path14"
             inkscape:connector-curvature="0"
             style="fill:#cccccc" />
          <path
             d="M 5.286506,4.8329353 C 6.021853,5.4172049 6.9534958,5.6130992 8.0458456,5.4323965 8.3182854,5.3873279 8.5026062,5.1299366 8.4575377,4.8574968 8.4124691,4.585057 8.1550778,4.4007362 7.882638,4.4458047 7.0543619,4.5828228 6.4082107,4.4469582 5.9085955,4.0499892 5.6923909,3.8782039 5.377863,3.9142129 5.2060777,4.1304175 5.0342924,4.3466221 5.0703014,4.66115 5.286506,4.8329353 Z"
             id="path16"
             inkscape:connector-curvature="0"
             style="fill:#cccccc" />
          <path
             d="M 2.9670516,5.2703916 C 3.5293372,6.1680572 4.3084116,6.6732862 5.2704161,6.7473108 5.5457445,6.7684968 5.786117,6.5624737 5.8073031,6.2871452 5.8284891,6.0118168 5.622466,5.7714443 5.3471376,5.7502582 4.7137356,5.701519 4.2141498,5.3775382 3.8145214,4.739548 3.667933,4.5055257 3.359387,4.4346465 3.1253647,4.5812349 2.8913424,4.7278234 2.8204632,5.0363693 2.9670516,5.2703916 Z"
             id="path18"
             inkscape:connector-curvature="0"
             style="fill:#cccccc" />
        </g>
        <path
           d="M 12.5,3 C 11.671573,3 11,2.3284271 11,1.5 11,0.67157287 11.671573,0 12.5,0 13.328427,0 14,0.67157287 14,1.5 14,2.3284271 13.328427,3 12.5,3 Z m 0,-1 C 12.776142,2 13,1.7761424 13,1.5 13,1.2238576 12.776142,1 12.5,1 12.223858,1 12,1.2238576 12,1.5 12,1.7761424 12.223858,2 12.5,2 Z"
           id="path22"
           inkscape:connector-curvature="0"
           style="fill:#cccccc" />
        <path
           d="m 12,2.5 v 21 c 0,0.276142 0.223858,0.5 0.5,0.5 0.276142,0 0.5,-0.223858 0.5,-0.5 V 2.5 C 13,2.2238576 12.776142,2 12.5,2 12.223858,2 12,2.2238576 12,2.5 Z"
           id="path24"
           inkscape:connector-curvature="0"
           style="fill:#cccccc" />
        <path
           d="M 10.254906,8.0641916 C 9.4304556,8.5278535 9,9.2670877 9,10.21733 c 0,1.510658 1.366306,2.707418 3.435052,2.978434 0.739833,0.09692 1.446957,0.836616 1.601191,1.70008 0.173801,0.973008 -0.362678,1.860124 -1.72211,2.404481 -1.551049,0.621087 -2.10586,1.558314 -1.751482,2.70138 0.133343,0.430105 0.360142,0.822489 0.758784,1.389773 C 11.909946,22.228955 12,22.376199 12,22.5 c 0,0.276142 0.223858,0.5 0.5,0.5 0.276142,0 0.5,-0.223858 0.5,-0.5 0,-0.280693 -0.109261,-0.552934 -0.313911,-0.88755 -0.07162,-0.117108 -0.153832,-0.240027 -0.263607,-0.396614 -0.04873,-0.06951 -0.238759,-0.336552 -0.282862,-0.399312 -0.341985,-0.48666 -0.528107,-0.808669 -0.621818,-1.110939 -0.187315,-0.604194 0.06872,-1.036711 1.168065,-1.47692 1.785869,-0.715116 2.59484,-2.052822 2.334795,-3.50866 C 14.792818,13.444442 13.756439,12.360327 12.564948,12.204236 10.948586,11.992485 10,11.16161 10,10.21733 10,9.6276509 10.236211,9.2219985 10.745094,8.9358084 10.985784,8.8004468 11.07117,8.4955965 10.935808,8.2549061 10.800447,8.0142158 10.495597,7.92883 10.254906,8.0641916 Z"
           id="path26"
           inkscape:connector-curvature="0"
           style="fill:#cccccc" />
        <path
           d="m 14.813366,8.0641916 c 0.824451,0.4636619 1.254906,1.2028961 1.254906,2.1531384 0,1.510658 -1.366306,2.707418 -3.435052,2.978434 -0.739833,0.09692 -1.446957,0.836616 -1.601191,1.70008 -0.173801,0.973008 0.362678,1.860124 1.72211,2.404481 1.55105,0.621087 2.10586,1.558314 1.751482,2.70138 -0.133343,0.430105 -0.360142,0.822489 -0.758784,1.389773 -0.588511,0.837477 -0.678565,0.984721 -0.678565,1.108522 0,0.276142 -0.223858,0.5 -0.5,0.5 -0.276142,0 -0.5,-0.223858 -0.5,-0.5 0,-0.280693 0.109261,-0.552934 0.313912,-0.88755 0.07162,-0.117108 0.153831,-0.240027 0.263606,-0.396614 0.04873,-0.06951 0.238759,-0.336552 0.282862,-0.399312 0.341985,-0.48666 0.528107,-0.808669 0.621818,-1.110939 0.187315,-0.604194 -0.06872,-1.036711 -1.168065,-1.47692 -1.785869,-0.715116 -2.5948399,-2.052822 -2.334795,-3.50866 0.227845,-1.275563 1.264223,-2.359678 2.455715,-2.515769 1.616361,-0.211751 2.564947,-1.042626 2.564947,-1.986906 0,-0.5896791 -0.236211,-0.9953315 -0.745094,-1.2815216 C 14.082488,8.8004468 13.997102,8.4955965 14.132464,8.2549061 14.267825,8.0142158 14.572676,7.92883 14.813366,8.0641916 Z"
           id="path28"
           inkscape:connector-curvature="0"
           style="fill:#cccccc" />
      </g>
    </g>
  </g>
  <path
     style="fill:none;stroke:#000000;stroke-width:1px;stroke-linecap:butt;stroke-linejoin:miter;stroke-opacity:1"
     d="M 10.471772,8.9216262 Z"
     id="path831"
     inkscape:connector-curvature="0" />
  <path
     style="fill:none;stroke:#000000;stroke-width:1px;stroke-linecap:butt;stroke-linejoin:miter;stroke-opacity:1"
     d="M 10.471772,8.9216262 Z"
     id="path833"
     inkscape:connector-curvature="0" />
  <path
     style="fill:#cccccc;fill-opacity:1;stroke:none;stroke-width:0.04494323;stroke-opacity:1"
     d="m 7.2726579,8.4962526 c -0.09748,-0.018684 -0.091593,-0.03261 0.1161445,-0.2747747 0.364362,-0.4247448 0.4584434,-0.5908366 0.4584434,-0.809339 0,-0.1647117 -0.025512,-0.2218181 -0.1585152,-0.3548211 C 7.5416557,6.9102428 7.514896,6.9004987 7.317949,6.9223031 7.1348085,6.942579 7.0840986,6.9723293 6.9483813,7.1391214 6.4266227,7.7803449 6.1438283,7.9923345 5.6602312,8.1047504 5.4436741,8.1550907 5.4003432,8.1499061 5.0750244,8.0347294 4.8817913,7.9663168 4.6673068,7.8839634 4.5983921,7.851722 L 4.4730926,7.7931012 4.7145773,7.6948545 C 5.0324107,7.5655459 5.4261357,7.3112028 5.5476916,7.1566694 5.7232961,6.9334245 5.6460404,6.5486763 5.3990692,6.4165013 5.1974779,6.308613 5.0066205,6.3384362 4.7319641,6.5207427 4.3015909,6.8064081 3.7465089,6.9416518 3.2274305,6.8873165 2.9673807,6.8600954 2.9208416,6.8375279 2.6487759,6.606718 L 2.3529153,6.3557214 2.7487145,6.2755896 C 3.4838215,6.1267631 4.093179,5.8814526 5.5060375,5.1655673 7.5512767,4.1292592 7.7539113,4.0833015 8.2444374,4.5444952 8.4698713,4.7564487 8.5569542,4.9650174 8.7222828,5.6889603 8.805115,6.0516679 8.9175908,6.4673652 8.9722292,6.612732 9.079812,6.8989609 9.3136067,7.1906024 9.5217756,7.2982507 9.7131313,7.3972046 10.13938,7.4561441 10.309927,7.4072321 l 0.144026,-0.041306 v 0.4650908 c 0,0.2558 0.01046,0.4923626 0.02326,0.5256947 0.01777,0.046305 -0.0379,0.06141 -0.235952,0.064021 -0.142564,0.00188 -0.4917891,0.026754 -0.776055,0.055276 -0.4887931,0.049044 -1.9708904,0.062729 -2.1925441,0.020244 z"
     id="path854"
     inkscape:connector-curvature="0" />
  <path
     style="fill:#cccccc;fill-opacity:1;stroke:none;stroke-width:0.04494323;stroke-opacity:1"
     d="M 14.993219,8.475816 C 14.783109,8.453755 14.486918,8.43123 14.335017,8.425761 l -0.276185,-0.00994 -0.02718,-0.1972815 c -0.01495,-0.1085048 -0.02718,-0.347505 -0.02718,-0.5311116 0,-0.3266954 0.0022,-0.3330753 0.101122,-0.2985158 0.150204,0.052455 0.59368,0.027067 0.762438,-0.043648 0.446278,-0.1870027 0.645156,-0.5471659 0.891928,-1.615263 0.213271,-0.9230889 0.33344,-1.1719799 0.642766,-1.3312779 0.278018,-0.143175 0.582692,-0.1373533 1.017431,0.019441 0.185391,0.066863 0.943808,0.4280943 1.685371,0.8027352 1.366373,0.6902976 1.88149,0.8966 2.620035,1.0493146 0.203119,0.042001 0.364113,0.091318 0.357763,0.1095949 -0.0063,0.018277 -0.130442,0.1336538 -0.275762,0.2563936 -0.236492,0.199746 -0.293554,0.226305 -0.543789,0.2531029 -0.519776,0.055663 -1.095427,-0.086775 -1.519972,-0.3761001 -0.251735,-0.171556 -0.401071,-0.203058 -0.589457,-0.124345 -0.280775,0.1173154 -0.397097,0.4507382 -0.251899,0.7220421 0.07787,0.1455078 0.466319,0.4057611 0.842524,0.5644788 L 20.03253,7.7967 19.681387,7.9345901 C 19.488255,8.010426 19.279679,8.0873979 19.217882,8.1056352 18.779167,8.235107 18.120763,7.8960283 17.694572,7.3211282 17.389017,6.9089564 17.164576,6.8171731 16.877259,6.9868949 c -0.134231,0.079292 -0.2664,0.3016592 -0.265662,0.4469634 6.43e-4,0.1267189 0.234971,0.5033712 0.48873,0.7855719 l 0.227543,0.2530454 -0.139249,0.02785 c -0.20029,0.040058 -1.744668,0.022817 -2.195402,-0.02451 z"
     id="path856"
     inkscape:connector-curvature="0" />
</svg>
