<?xml version="1.0" encoding="UTF-8" standalone="no"?>
<svg
   xmlns:dc="http://purl.org/dc/elements/1.1/"
   xmlns:cc="http://creativecommons.org/ns#"
   xmlns:rdf="http://www.w3.org/1999/02/22-rdf-syntax-ns#"
   xmlns:svg="http://www.w3.org/2000/svg"
   xmlns="http://www.w3.org/2000/svg"
   xmlns:sodipodi="http://sodipodi.sourceforge.net/DTD/sodipodi-0.dtd"
   xmlns:inkscape="http://www.inkscape.org/namespaces/inkscape"
   viewBox="0 0 24 30"
   version="1.1"
   x="0px"
   y="0px"
   id="svg40"
   sodipodi:docname="CampHealth.svg"
   inkscape:version="0.92.4 (5da689c313, 2019-01-14)">
  <metadata
     id="metadata46">
    <rdf:RDF>
      <cc:Work
         rdf:about="">
        <dc:format>image/svg+xml</dc:format>
        <dc:type
           rdf:resource="http://purl.org/dc/dcmitype/StillImage" />
      </cc:Work>
    </rdf:RDF>
  </metadata>
  <defs
     id="defs44" />
  <sodipodi:namedview
     pagecolor="#ffffff"
     bordercolor="#666666"
     borderopacity="1"
     objecttolerance="10"
     gridtolerance="10"
     guidetolerance="10"
     inkscape:pageopacity="0"
     inkscape:pageshadow="2"
     inkscape:window-width="640"
     inkscape:window-height="480"
     id="namedview42"
     showgrid="false"
     inkscape:zoom="7.8666667"
     inkscape:cx="12"
     inkscape:cy="15"
     inkscape:window-x="0"
     inkscape:window-y="0"
     inkscape:window-maximized="0"
     inkscape:current-layer="svg40" />
  <title
     id="title2">health_001-caduceus-medical-wing-snake</title>
  <desc
     id="desc4">Created with Sketch.</desc>
  <g
     id="g34"
     transform="translate(-0.25423729,2.4152542)"
     style="fill:none;fill-rule:evenodd;stroke:none;stroke-width:1">
    <g
       transform="translate(-24,-72)"
       id="g32"
       style="fill:#000000;fill-rule:nonzero">
      <g
         transform="translate(24,72)"
         id="g30">
        <g
           transform="translate(14)"
           id="g12">
          <path
             d="M 0.56395065,6.0041066 C 0.29007626,5.9687876 0.03942552,6.162175 0.00410655,6.4360493 -0.03121242,6.7099237 0.16217496,6.9605745 0.43604935,6.9958934 4.7368322,7.5505244 7.6175339,6.4727891 9.8801315,3.8248077 10.157396,3.5003177 9.9268128,3 9.5,3 8.2216796,3 7.2141505,2.672718 5.9537583,1.9833785 6.0157018,2.0172569 4.9083557,1.3917964 4.6184961,1.2489984 4.1052759,0.99616292 3.6790683,0.86150159 3.245806,0.84561894 2.9340465,0.83419038 2.6305744,0.88754915 2.3324546,1.0100493 1.6025342,1.3099803 1.2842974,1.8759603 1.0821039,2.8149673 1.061858,2.9089912 1.0448887,2.993937 1.0119025,3.1623682 0.87030611,3.880077 0.79672815,4.0048257 0.56821018,4.0001066 0.29212667,3.9944052 0.06369484,4.2135931 0.05799341,4.4896766 0.05229197,4.7657602 0.27147996,4.994192 0.54756347,4.9998934 1.4691945,5.0189261 1.7632645,4.5203413 1.9929913,3.3559266 2.0259414,3.1877878 2.0412899,3.1109551 2.0596973,3.0254695 2.1991998,2.3776059 2.3607249,2.0684311 2.7125277,1.9350058 3.0876226,1.7927467 3.311198,1.6778896 5.4739125,2.8607313 6.5085387,3.4265938 7.4134819,3.7798705 8.4128886,3.9245591 6.4901368,5.7588638 4.0882866,6.4586066 0.56395065,6.0041066 Z"
             id="path6"
             inkscape:connector-curvature="0" />
          <path
             d="M 5.286506,4.8329353 C 6.021853,5.4172049 6.9534958,5.6130992 8.0458456,5.4323965 8.3182854,5.3873279 8.5026062,5.1299366 8.4575377,4.8574968 8.4124691,4.585057 8.1550778,4.4007362 7.882638,4.4458047 7.0543619,4.5828228 6.4082107,4.4469582 5.9085955,4.0499892 5.6923909,3.8782039 5.377863,3.9142129 5.2060777,4.1304175 5.0342924,4.3466221 5.0703014,4.66115 5.286506,4.8329353 Z"
             id="path8"
             inkscape:connector-curvature="0" />
          <path
             d="M 2.9670516,5.2703916 C 3.5293372,6.1680572 4.3084116,6.6732862 5.2704161,6.7473108 5.5457445,6.7684968 5.786117,6.5624737 5.8073031,6.2871452 5.8284891,6.0118168 5.622466,5.7714443 5.3471376,5.7502582 4.7137356,5.701519 4.2141498,5.3775382 3.8145214,4.739548 3.667933,4.5055257 3.359387,4.4346465 3.1253647,4.5812349 2.8913424,4.7278234 2.8204632,5.0363693 2.9670516,5.2703916 Z"
             id="path10"
             inkscape:connector-curvature="0" />
        </g>
        <g
           transform="matrix(-1,0,0,1,11,0)"
           id="g20">
          <path
             d="M 0.56395065,6.0041066 C 0.29007626,5.9687876 0.03942552,6.162175 0.00410655,6.4360493 -0.03121242,6.7099237 0.16217496,6.9605745 0.43604935,6.9958934 4.7368322,7.5505244 7.6175339,6.4727891 9.8801315,3.8248077 10.157396,3.5003177 9.9268128,3 9.5,3 8.2216796,3 7.2141505,2.672718 5.9537583,1.9833785 6.0157018,2.0172569 4.9083557,1.3917964 4.6184961,1.2489984 4.1052759,0.99616292 3.6790683,0.86150159 3.245806,0.84561894 2.9340465,0.83419038 2.6305744,0.88754915 2.3324546,1.0100493 1.6025342,1.3099803 1.2842974,1.8759603 1.0821039,2.8149673 1.061858,2.9089912 1.0448887,2.993937 1.0119025,3.1623682 0.87030611,3.880077 0.79672815,4.0048257 0.56821018,4.0001066 0.29212667,3.9944052 0.06369484,4.2135931 0.05799341,4.4896766 0.05229197,4.7657602 0.27147996,4.994192 0.54756347,4.9998934 1.4691945,5.0189261 1.7632645,4.5203413 1.9929913,3.3559266 2.0259414,3.1877878 2.0412899,3.1109551 2.0596973,3.0254695 2.1991998,2.3776059 2.411118,2.1106113 2.7125277,1.9350058 3.0456995,1.7408952 3.311198,1.6778896 5.4739125,2.8607313 6.5085387,3.4265938 7.4134819,3.7798705 8.4128886,3.9245591 6.4901368,5.7588638 4.0882866,6.4586066 0.56395065,6.0041066 Z"
             id="path14"
             inkscape:connector-curvature="0" />
          <path
             d="M 5.286506,4.8329353 C 6.021853,5.4172049 6.9534958,5.6130992 8.0458456,5.4323965 8.3182854,5.3873279 8.5026062,5.1299366 8.4575377,4.8574968 8.4124691,4.585057 8.1550778,4.4007362 7.882638,4.4458047 7.0543619,4.5828228 6.4082107,4.4469582 5.9085955,4.0499892 5.6923909,3.8782039 5.377863,3.9142129 5.2060777,4.1304175 5.0342924,4.3466221 5.0703014,4.66115 5.286506,4.8329353 Z"
             id="path16"
             inkscape:connector-curvature="0" />
          <path
             d="M 2.9670516,5.2703916 C 3.5293372,6.1680572 4.3084116,6.6732862 5.2704161,6.7473108 5.5457445,6.7684968 5.786117,6.5624737 5.8073031,6.2871452 5.8284891,6.0118168 5.622466,5.7714443 5.3471376,5.7502582 4.7137356,5.701519 4.2141498,5.3775382 3.8145214,4.739548 3.667933,4.5055257 3.359387,4.4346465 3.1253647,4.5812349 2.8913424,4.7278234 2.8204632,5.0363693 2.9670516,5.2703916 Z"
             id="path18"
             inkscape:connector-curvature="0" />
        </g>
        <path
           d="M 12.5,3 C 11.671573,3 11,2.3284271 11,1.5 11,0.67157287 11.671573,0 12.5,0 13.328427,0 14,0.67157287 14,1.5 14,2.3284271 13.328427,3 12.5,3 Z m 0,-1 C 12.776142,2 13,1.7761424 13,1.5 13,1.2238576 12.776142,1 12.5,1 12.223858,1 12,1.2238576 12,1.5 12,1.7761424 12.223858,2 12.5,2 Z"
           id="path22"
           inkscape:connector-curvature="0" />
        <path
           d="m 12,2.5 v 21 c 0,0.276142 0.223858,0.5 0.5,0.5 0.276142,0 0.5,-0.223858 0.5,-0.5 V 2.5 C 13,2.2238576 12.776142,2 12.5,2 12.223858,2 12,2.2238576 12,2.5 Z"
           id="path24"
           inkscape:connector-curvature="0" />
        <path
           d="M 10.254906,8.0641916 C 9.4304556,8.5278535 9,9.2670877 9,10.21733 c 0,1.510658 1.366306,2.707418 3.435052,2.978434 0.739833,0.09692 1.446957,0.836616 1.601191,1.70008 0.173801,0.973008 -0.362678,1.860124 -1.72211,2.404481 -1.551049,0.621087 -2.10586,1.558314 -1.751482,2.70138 0.133343,0.430105 0.360142,0.822489 0.758784,1.389773 C 11.909946,22.228955 12,22.376199 12,22.5 c 0,0.276142 0.223858,0.5 0.5,0.5 0.276142,0 0.5,-0.223858 0.5,-0.5 0,-0.280693 -0.109261,-0.552934 -0.313911,-0.88755 -0.07162,-0.117108 -0.153832,-0.240027 -0.263607,-0.396614 -0.04873,-0.06951 -0.238759,-0.336552 -0.282862,-0.399312 -0.341985,-0.48666 -0.528107,-0.808669 -0.621818,-1.110939 -0.187315,-0.604194 0.06872,-1.036711 1.168065,-1.47692 1.785869,-0.715116 2.59484,-2.052822 2.334795,-3.50866 C 14.792818,13.444442 13.756439,12.360327 12.564948,12.204236 10.948586,11.992485 10,11.16161 10,10.21733 10,9.6276509 10.236211,9.2219985 10.745094,8.9358084 10.985784,8.8004468 11.07117,8.4955965 10.935808,8.2549061 10.800447,8.0142158 10.495597,7.92883 10.254906,8.0641916 Z"
           id="path26"
           inkscape:connector-curvature="0" />
        <path
           d="m 14.813366,8.0641916 c 0.824451,0.4636619 1.254906,1.2028961 1.254906,2.1531384 0,1.510658 -1.366306,2.707418 -3.435052,2.978434 -0.739833,0.09692 -1.446957,0.836616 -1.601191,1.70008 -0.173801,0.973008 0.362678,1.860124 1.72211,2.404481 1.55105,0.621087 2.10586,1.558314 1.751482,2.70138 -0.133343,0.430105 -0.360142,0.822489 -0.758784,1.389773 -0.588511,0.837477 -0.678565,0.984721 -0.678565,1.108522 0,0.276142 -0.223858,0.5 -0.5,0.5 -0.276142,0 -0.5,-0.223858 -0.5,-0.5 0,-0.280693 0.109261,-0.552934 0.313912,-0.88755 0.07162,-0.117108 0.153831,-0.240027 0.263606,-0.396614 0.04873,-0.06951 0.238759,-0.336552 0.282862,-0.399312 0.341985,-0.48666 0.528107,-0.808669 0.621818,-1.110939 0.187315,-0.604194 -0.06872,-1.036711 -1.168065,-1.47692 -1.785869,-0.715116 -2.5948399,-2.052822 -2.334795,-3.50866 0.227845,-1.275563 1.264223,-2.359678 2.455715,-2.515769 1.616361,-0.211751 2.564947,-1.042626 2.564947,-1.986906 0,-0.5896791 -0.236211,-0.9953315 -0.745094,-1.2815216 C 14.082488,8.8004468 13.997102,8.4955965 14.132464,8.2549061 14.267825,8.0142158 14.572676,7.92883 14.813366,8.0641916 Z"
           id="path28"
           inkscape:connector-curvature="0" />
      </g>
    </g>
  </g>
</svg>
