<svg xmlns="http://www.w3.org/2000/svg" xmlns:xlink="http://www.w3.org/1999/xlink" version="1.1" x="0px" y="0px" viewBox="0 0 100 125" style="enable-background:new 0 0 100 100;" xml:space="preserve"><path d="M89,75.326H71.791c-0.552,0-1,0.448-1,1s0.448,1,1,1H89c0.552,0,1-0.448,1-1S89.552,75.326,89,75.326z"/><path d="M89,88H69.704c-0.552,0-1,0.448-1,1s0.448,1,1,1H89c0.552,0,1-0.448,1-1S89.552,88,89,88z"/><path d="M11,82.544h15.561c0.552,0,1-0.448,1-1s-0.448-1-1-1H11c-0.552,0-1,0.448-1,1S10.448,82.544,11,82.544z"/><path d="M18.93,10.294c-0.303-0.303-0.766-0.382-1.152-0.19c-3.751,1.854-6.082,5.59-6.082,9.75c0,6.004,4.902,10.889,10.928,10.889  c4.172,0,7.921-2.321,9.784-6.057c0.191-0.384,0.116-0.848-0.187-1.152c-0.303-0.303-0.765-0.382-1.152-0.19  c-1.25,0.618-2.583,0.932-3.96,0.932c-4.923,0-8.928-3.987-8.928-8.888c0-1.37,0.314-2.695,0.935-3.939  C19.308,11.062,19.232,10.598,18.93,10.294z M27.109,26.274c0.624,0,1.24-0.052,1.846-0.157c-1.646,1.66-3.9,2.625-6.331,2.625  c-4.923,0-8.928-3.987-8.928-8.889c0-2.423,0.971-4.671,2.643-6.31c-0.105,0.605-0.158,1.22-0.158,1.843  C16.181,21.39,21.083,26.274,27.109,26.274z"/><path d="M89.004,59.296c-0.001,0-0.003,0-0.004,0c-0.55,0-0.998,0.445-1,0.996l-0.022,5.341l-37.11-54.731  c-0.372-0.549-1.283-0.549-1.655,0L12.129,65.594l0.022-5.667c0.002-0.552-0.444-1.002-0.996-1.004c-0.001,0-0.002,0-0.004,0  c-0.55,0-0.998,0.445-1,0.996l-0.035,8.946c-0.002,0.44,0.284,0.829,0.705,0.959c0.098,0.03,0.197,0.044,0.295,0.044  c0.325,0,0.638-0.159,0.828-0.439l5.836-8.607v8.046c0,0.552,0.448,1,1,1h22.274c1.138,3.687,4.587,6.375,8.655,6.375  c0.027,0,0.052-0.004,0.079-0.004c0.013,0,0.026,0.004,0.039,0.004c0.041,0,0.078-0.011,0.119-0.012  c3.964-0.103,7.303-2.749,8.419-6.364h22.936c0.552,0,1-0.448,1-1v-8.046l5.836,8.607c0.246,0.363,0.7,0.522,1.119,0.396  c0.419-0.128,0.707-0.514,0.708-0.952L90,60.301C90.002,59.748,89.557,59.299,89.004,59.296z M49.947,74.234  c-0.053,0.002-0.105,0.007-0.158,0.008c-1.734-0.022-3.139-1.428-3.139-3.158c0-1.135,1.671-3.752,3.179-5.725  c1.508,1.972,3.179,4.588,3.179,5.725C53.006,72.787,51.643,74.17,49.947,74.234z M54.919,71.941  c0.048-0.281,0.087-0.564,0.087-0.858c0-2.531-3.673-7.083-4.409-7.97c-0.38-0.458-1.159-0.458-1.539,0  c-0.736,0.887-4.409,5.439-4.409,7.97c0,0.403,0.057,0.791,0.145,1.167c-1.317-1.277-2.14-3.057-2.14-5.028  c0-2.994,4.549-9.37,7.055-12.542c2.506,3.172,7.055,9.548,7.055,12.542C56.764,69.04,56.061,70.693,54.919,71.941z M50.479,52.452  c-0.38-0.458-1.159-0.458-1.539,0c-0.848,1.021-8.285,10.114-8.285,14.771c0,0.218,0.018,0.432,0.033,0.647H30.616v-6.594  c1.304-1.055,5.628-4.711,10.008-10.137c3.554-4.403,7.613-10.624,9.452-17.72c1.839,7.096,5.898,13.317,9.452,17.72  c4.38,5.426,8.704,9.082,10.008,10.137v6.594H58.731c0.015-0.215,0.033-0.429,0.033-0.647  C58.764,62.566,51.327,53.474,50.479,52.452z M80.301,67.87h-8.765v-7.077c0-0.31-0.144-0.603-0.389-0.792  c-0.201-0.155-20.071-15.712-20.071-34.125c0-0.552-0.448-1-1-1s-1,0.448-1,1c0,18.413-19.87,33.97-20.071,34.125  c-0.245,0.189-0.389,0.481-0.389,0.792v7.077H19.78v-9.996l30.26-44.63l30.26,44.63V67.87z"/><path d="M65.19,80.72c0.119-0.24,0.136-0.518,0.048-0.771l-1.474-4.246c-0.179-0.516-0.74-0.793-1.259-0.621l-12.29,4.065  l-12.878-3.642c-0.527-0.147-1.075,0.153-1.23,0.678l-1.279,4.306c-0.076,0.256-0.046,0.533,0.083,0.767s0.347,0.407,0.604,0.48  l3.707,1.048l-3.087,1.021c-0.254,0.084-0.464,0.267-0.583,0.506c-0.119,0.24-0.136,0.518-0.048,0.771l1.474,4.246  C37.121,89.741,37.508,90,37.922,90c0.104,0,0.21-0.017,0.314-0.051l11.679-3.863l12.725,3.599c0.091,0.025,0.182,0.038,0.272,0.038  c0.432,0,0.829-0.282,0.958-0.716l1.279-4.305c0.076-0.256,0.046-0.533-0.083-0.767s-0.346-0.407-0.604-0.48l-3.553-1.005  l3.699-1.223C64.862,81.143,65.072,80.96,65.19,80.72z M37.034,80.087l0.709-2.388l9.085,2.569l-4.219,1.395L37.034,80.087z   M62.943,85.104l-0.709,2.388l-8.931-2.526l4.219-1.395L62.943,85.104z M38.544,87.741l-0.818-2.356l24.472-8.095l0.818,2.356  L38.544,87.741z"/><text x="0" y="115" fill="#000000" font-size="5px" font-weight="bold" font-family="'Helvetica Neue', Helvetica, Arial-Unicode, Arial, Sans-serif">Created by Made</text><text x="0" y="120" fill="#000000" font-size="5px" font-weight="bold" font-family="'Helvetica Neue', Helvetica, Arial-Unicode, Arial, Sans-serif">from the Noun Project</text></svg>