<?xml version="1.0" encoding="UTF-8" standalone="no"?>
<svg
   xmlns:dc="http://purl.org/dc/elements/1.1/"
   xmlns:cc="http://creativecommons.org/ns#"
   xmlns:rdf="http://www.w3.org/1999/02/22-rdf-syntax-ns#"
   xmlns:svg="http://www.w3.org/2000/svg"
   xmlns="http://www.w3.org/2000/svg"
   xmlns:sodipodi="http://sodipodi.sourceforge.net/DTD/sodipodi-0.dtd"
   xmlns:inkscape="http://www.inkscape.org/namespaces/inkscape"
   version="1.1"
   x="0px"
   y="0px"
   viewBox="0 0 100 125"
   style="enable-background:new 0 0 100 100;"
   xml:space="preserve"
   id="svg18"
   sodipodi:docname="Camp.svg"
   inkscape:version="0.92.2 (5c3e80d, 2017-08-06)"><metadata
     id="metadata24"><rdf:RDF><cc:Work
         rdf:about=""><dc:format>image/svg+xml</dc:format><dc:type
           rdf:resource="http://purl.org/dc/dcmitype/StillImage" /></cc:Work></rdf:RDF></metadata><defs
     id="defs22" /><sodipodi:namedview
     pagecolor="#ffffff"
     bordercolor="#666666"
     borderopacity="1"
     objecttolerance="10"
     gridtolerance="10"
     guidetolerance="10"
     inkscape:pageopacity="0"
     inkscape:pageshadow="2"
     inkscape:window-width="1920"
     inkscape:window-height="1017"
     id="namedview20"
     showgrid="false"
     inkscape:zoom="7.552"
     inkscape:cx="50"
     inkscape:cy="62.5"
     inkscape:window-x="-8"
     inkscape:window-y="-8"
     inkscape:window-maximized="1"
     inkscape:current-layer="svg18" /><path
     d="M89,75.326H71.791c-0.552,0-1,0.448-1,1s0.448,1,1,1H89c0.552,0,1-0.448,1-1S89.552,75.326,89,75.326z"
     id="path2" /><path
     d="M89,88H69.704c-0.552,0-1,0.448-1,1s0.448,1,1,1H89c0.552,0,1-0.448,1-1S89.552,88,89,88z"
     id="path4" /><path
     d="M11,82.544h15.561c0.552,0,1-0.448,1-1s-0.448-1-1-1H11c-0.552,0-1,0.448-1,1S10.448,82.544,11,82.544z"
     id="path6" /><path
     d="M18.93,10.294c-0.303-0.303-0.766-0.382-1.152-0.19c-3.751,1.854-6.082,5.59-6.082,9.75c0,6.004,4.902,10.889,10.928,10.889  c4.172,0,7.921-2.321,9.784-6.057c0.191-0.384,0.116-0.848-0.187-1.152c-0.303-0.303-0.765-0.382-1.152-0.19  c-1.25,0.618-2.583,0.932-3.96,0.932c-4.923,0-8.928-3.987-8.928-8.888c0-1.37,0.314-2.695,0.935-3.939  C19.308,11.062,19.232,10.598,18.93,10.294z M27.109,26.274c0.624,0,1.24-0.052,1.846-0.157c-1.646,1.66-3.9,2.625-6.331,2.625  c-4.923,0-8.928-3.987-8.928-8.889c0-2.423,0.971-4.671,2.643-6.31c-0.105,0.605-0.158,1.22-0.158,1.843  C16.181,21.39,21.083,26.274,27.109,26.274z"
     id="path8"
     style="fill:#e6e6e6" /><path
     d="M89.004,59.296c-0.001,0-0.003,0-0.004,0c-0.55,0-0.998,0.445-1,0.996l-0.022,5.341l-37.11-54.731  c-0.372-0.549-1.283-0.549-1.655,0L12.129,65.594l0.022-5.667c0.002-0.552-0.444-1.002-0.996-1.004c-0.001,0-0.002,0-0.004,0  c-0.55,0-0.998,0.445-1,0.996l-0.035,8.946c-0.002,0.44,0.284,0.829,0.705,0.959c0.098,0.03,0.197,0.044,0.295,0.044  c0.325,0,0.638-0.159,0.828-0.439l5.836-8.607v8.046c0,0.552,0.448,1,1,1h22.274c1.138,3.687,4.587,6.375,8.655,6.375  c0.027,0,0.052-0.004,0.079-0.004c0.013,0,0.026,0.004,0.039,0.004c0.041,0,0.078-0.011,0.119-0.012  c3.964-0.103,7.303-2.749,8.419-6.364h22.936c0.552,0,1-0.448,1-1v-8.046l5.836,8.607c0.246,0.363,0.7,0.522,1.119,0.396  c0.419-0.128,0.707-0.514,0.708-0.952L90,60.301C90.002,59.748,89.557,59.299,89.004,59.296z M49.947,74.234  c-0.053,0.002-0.105,0.007-0.158,0.008c-1.734-0.022-3.139-1.428-3.139-3.158c0-1.135,1.671-3.752,3.179-5.725  c1.508,1.972,3.179,4.588,3.179,5.725C53.006,72.787,51.643,74.17,49.947,74.234z M54.919,71.941  c0.048-0.281,0.087-0.564,0.087-0.858c0-2.531-3.673-7.083-4.409-7.97c-0.38-0.458-1.159-0.458-1.539,0  c-0.736,0.887-4.409,5.439-4.409,7.97c0,0.403,0.057,0.791,0.145,1.167c-1.317-1.277-2.14-3.057-2.14-5.028  c0-2.994,4.549-9.37,7.055-12.542c2.506,3.172,7.055,9.548,7.055,12.542C56.764,69.04,56.061,70.693,54.919,71.941z M50.479,52.452  c-0.38-0.458-1.159-0.458-1.539,0c-0.848,1.021-8.285,10.114-8.285,14.771c0,0.218,0.018,0.432,0.033,0.647H30.616v-6.594  c1.304-1.055,5.628-4.711,10.008-10.137c3.554-4.403,7.613-10.624,9.452-17.72c1.839,7.096,5.898,13.317,9.452,17.72  c4.38,5.426,8.704,9.082,10.008,10.137v6.594H58.731c0.015-0.215,0.033-0.429,0.033-0.647  C58.764,62.566,51.327,53.474,50.479,52.452z M80.301,67.87h-8.765v-7.077c0-0.31-0.144-0.603-0.389-0.792  c-0.201-0.155-20.071-15.712-20.071-34.125c0-0.552-0.448-1-1-1s-1,0.448-1,1c0,18.413-19.87,33.97-20.071,34.125  c-0.245,0.189-0.389,0.481-0.389,0.792v7.077H19.78v-9.996l30.26-44.63l30.26,44.63V67.87z"
     id="path10" /><path
     d="M65.19,80.72c0.119-0.24,0.136-0.518,0.048-0.771l-1.474-4.246c-0.179-0.516-0.74-0.793-1.259-0.621l-12.29,4.065  l-12.878-3.642c-0.527-0.147-1.075,0.153-1.23,0.678l-1.279,4.306c-0.076,0.256-0.046,0.533,0.083,0.767s0.347,0.407,0.604,0.48  l3.707,1.048l-3.087,1.021c-0.254,0.084-0.464,0.267-0.583,0.506c-0.119,0.24-0.136,0.518-0.048,0.771l1.474,4.246  C37.121,89.741,37.508,90,37.922,90c0.104,0,0.21-0.017,0.314-0.051l11.679-3.863l12.725,3.599c0.091,0.025,0.182,0.038,0.272,0.038  c0.432,0,0.829-0.282,0.958-0.716l1.279-4.305c0.076-0.256,0.046-0.533-0.083-0.767s-0.346-0.407-0.604-0.48l-3.553-1.005  l3.699-1.223C64.862,81.143,65.072,80.96,65.19,80.72z M37.034,80.087l0.709-2.388l9.085,2.569l-4.219,1.395L37.034,80.087z   M62.943,85.104l-0.709,2.388l-8.931-2.526l4.219-1.395L62.943,85.104z M38.544,87.741l-0.818-2.356l24.472-8.095l0.818,2.356  L38.544,87.741z"
     id="path12" /><path
     style="fill:#ff0000;fill-opacity:1;stroke:none;stroke-width:0.13241525;stroke-opacity:1"
     d="m 48.678798,73.964721 c -0.628595,-0.273712 -1.396091,-1.011608 -1.662778,-1.598649 -0.386204,-0.850126 -0.3205,-1.708953 0.216464,-2.829408 0.546224,-1.139778 2.415861,-3.991113 2.616997,-3.991113 0.151966,0 1.99866,2.844353 2.518301,3.878788 0.430667,0.857318 0.544247,1.226911 0.537931,1.750448 -0.01364,1.130626 -0.839761,2.318444 -1.928208,2.772422 -0.599138,0.249892 -1.744985,0.258622 -2.298707,0.01751 z"
     id="path817"
     inkscape:connector-curvature="0" /><path
     style="fill:#ffff00;fill-opacity:1;stroke:none;stroke-width:0.13241525;stroke-opacity:1"
     d="m 44.14177,71.371822 c -1.187047,-1.600495 -1.652922,-3.480277 -1.274681,-5.143274 0.258286,-1.135598 1.478638,-3.659399 2.708303,-5.601023 0.973611,-1.537319 3.131189,-4.595777 3.800548,-5.387437 l 0.372471,-0.440527 1.223824,1.656933 c 2.847888,3.855748 5.062699,7.697975 5.544606,9.618718 0.378735,1.509527 0.0327,3.350939 -0.904015,4.810682 l -0.42415,0.660981 -0.157576,-0.853784 c -0.183238,-0.992825 -0.636344,-2.12327 -1.327449,-3.311826 -0.639446,-1.099713 -2.121801,-3.191562 -2.82565,-3.987462 -0.475676,-0.537886 -0.627542,-0.628972 -1.04866,-0.628972 -0.38478,0 -0.580365,0.09408 -0.89466,0.430349 -1.118396,1.19659 -2.880099,3.846646 -3.651542,5.492863 -0.440541,0.940089 -0.555282,1.350307 -0.620006,2.216611 l -0.07942,1.063037 z"
     id="path819"
     inkscape:connector-curvature="0" /><path
     style="fill:#d40000;fill-opacity:1;stroke:none;stroke-width:0.13241525;stroke-opacity:1"
     d="m 38.202267,86.572821 c -0.218792,-0.604326 -0.386126,-1.114403 -0.371855,-1.133504 0.04982,-0.06668 24.068402,-7.976393 24.221067,-7.976393 0.169462,0 0.901364,2.086524 0.760947,2.169331 -0.04803,0.02832 -5.442831,1.820892 -11.988456,3.98349 -6.545625,2.162597 -11.973758,3.959862 -12.062518,3.993923 -0.102591,0.03937 -0.306302,-0.338357 -0.559185,-1.036847 z"
     id="path821"
     inkscape:connector-curvature="0" /><path
     style="fill:#d40000;fill-opacity:1;stroke:none;stroke-width:0.13241525;stroke-opacity:1"
     d="m 39.751059,80.80803 c -1.420153,-0.407466 -2.594913,-0.748719 -2.610577,-0.758339 -0.01566,-0.0096 0.124521,-0.524863 0.311523,-1.144983 l 0.340003,-1.127491 3.660935,1.034836 c 2.013514,0.569159 3.988662,1.131915 4.389218,1.250568 l 0.728284,0.215733 -1.916546,0.644721 c -1.054101,0.354597 -2.007491,0.640465 -2.118644,0.635263 -0.111154,-0.0052 -1.364042,-0.342841 -2.784196,-0.750308 z"
     id="path823"
     inkscape:connector-curvature="0" /><path
     style="fill:#d40000;fill-opacity:1;stroke:none;stroke-width:0.13241525;stroke-opacity:1"
     d="m 57.705281,86.158823 -4.225334,-1.207031 2.034315,-0.647697 2.034315,-0.647696 2.522057,0.695547 c 1.387131,0.38255 2.575203,0.74337 2.64016,0.80182 0.153325,0.137969 -0.451803,2.244983 -0.639357,2.226195 -0.07745,-0.0078 -2.042223,-0.557271 -4.366156,-1.221138 z"
     id="path825"
     inkscape:connector-curvature="0" /><path
     style="fill:#e6e6e6;fill-opacity:1;stroke:none;stroke-width:0.13241525;stroke-opacity:1"
     d="m 21.416278,28.591754 c -1.98649,-0.301935 -3.590328,-1.119451 -5.039772,-2.568896 -1.735315,-1.735315 -2.578837,-3.750399 -2.578837,-6.16057 0,-1.971837 0.772211,-4.195972 1.916375,-5.519574 l 0.435277,-0.503542 0.05827,1.852925 c 0.05198,1.652812 0.10448,1.988779 0.486131,3.110869 0.556044,1.634822 1.281744,2.842727 2.44125,4.063385 2.205755,2.322086 5.462876,3.642154 8.50009,3.444972 l 1.059322,-0.06877 -0.595869,0.517426 c -1.595958,1.385857 -4.456673,2.170055 -6.682239,1.831779 z"
     id="path827"
     inkscape:connector-curvature="0" /><path
     style="fill:#ffcc00;fill-opacity:1;stroke:none;stroke-width:0.13241525;stroke-opacity:1"
     d="M 19.888771,62.815506 V 57.834401 L 34.08074,36.89522 C 41.886324,25.37867 48.672274,15.3754 49.16063,14.665731 l 0.88792,-1.290306 15.108333,22.278124 15.108332,22.278125 0.0025,4.932468 0.0025,4.932468 h -4.303496 -4.303495 v -3.360037 c 0,-1.84802 -0.03696,-3.54485 -0.08214,-3.770735 -0.06359,-0.317961 -0.489659,-0.76674 -1.886918,-1.987504 -2.210602,-1.93137 -5.867817,-5.648319 -7.57474,-7.698461 -6.89338,-8.279353 -10.527115,-16.184978 -10.933515,-23.786972 -0.07758,-1.451118 -0.127366,-1.715258 -0.378318,-2.007007 -0.4041,-0.469793 -1.061577,-0.458878 -1.477384,0.02453 -0.25263,0.293698 -0.310283,0.512462 -0.311168,1.180702 -6.62e-4,0.451116 -0.06059,1.356493 -0.133305,2.011949 -0.833767,7.515093 -4.312708,14.714161 -11.006197,22.775424 -1.377657,1.659173 -6.097051,6.401852 -7.875863,7.914724 -1.033501,0.878987 -1.358283,1.235166 -1.423464,1.56107 -0.04645,0.232235 -0.08445,1.934263 -0.08445,3.782283 v 3.360037 H 24.192266 19.88877 Z"
     id="path829"
     inkscape:connector-curvature="0" /><path
     style="fill:#aa8800;fill-opacity:1;stroke:none;stroke-width:0.13241525;stroke-opacity:1"
     d="m 30.615989,64.58554 0.0016,-3.21107 1.527142,-1.319507 c 2.81556,-2.43275 6.811459,-6.655197 9.215205,-9.737663 3.769648,-4.834045 6.866124,-10.517655 8.277896,-15.194154 0.20337,-0.673662 0.40083,-1.224187 0.438802,-1.223387 0.03797,8e-4 0.246819,0.581771 0.464105,1.291049 1.283755,4.190508 3.872994,9.149179 7.065226,13.530668 2.659762,3.650648 7.073545,8.462033 10.331915,11.262634 l 1.46356,1.257945 0.0053,3.277278 0.0053,3.277277 h -5.29661 -5.29661 v -0.637928 c 0,-2.42617 -2.321351,-6.919082 -6.323416,-12.238799 -0.759765,-1.009911 -1.612608,-2.079262 -1.895207,-2.376336 -0.470196,-0.494279 -0.556268,-0.533351 -1.013857,-0.460237 -0.563708,0.09007 -0.513371,0.03703 -2.48412,2.61779 -3.913397,5.124728 -6.385385,9.805437 -6.463118,12.237915 l -0.02738,0.856776 -4.998675,4.09e-4 -4.998676,4.1e-4 z"
     id="path831"
     inkscape:connector-curvature="0" /></svg>