<?xml version="1.0" encoding="UTF-8" standalone="no"?>
<svg
   xmlns:dc="http://purl.org/dc/elements/1.1/"
   xmlns:cc="http://creativecommons.org/ns#"
   xmlns:rdf="http://www.w3.org/1999/02/22-rdf-syntax-ns#"
   xmlns:svg="http://www.w3.org/2000/svg"
   xmlns="http://www.w3.org/2000/svg"
   xmlns:sodipodi="http://sodipodi.sourceforge.net/DTD/sodipodi-0.dtd"
   xmlns:inkscape="http://www.inkscape.org/namespaces/inkscape"
   version="1.1"
   x="0px"
   y="0px"
   viewBox="0 0 100 125"
   enable-background="new 0 0 100 100"
   xml:space="preserve"
   id="svg22"
   sodipodi:docname="CampMuscle.svg"
   inkscape:version="0.92.2 (5c3e80d, 2017-08-06)"><metadata
     id="metadata28"><rdf:RDF><cc:Work
         rdf:about=""><dc:format>image/svg+xml</dc:format><dc:type
           rdf:resource="http://purl.org/dc/dcmitype/StillImage" /></cc:Work></rdf:RDF></metadata><defs
     id="defs26" /><sodipodi:namedview
     pagecolor="#ffffff"
     bordercolor="#666666"
     borderopacity="1"
     objecttolerance="10"
     gridtolerance="10"
     guidetolerance="10"
     inkscape:pageopacity="0"
     inkscape:pageshadow="2"
     inkscape:window-width="1920"
     inkscape:window-height="1017"
     id="namedview24"
     showgrid="false"
     inkscape:zoom="5.3400704"
     inkscape:cx="27.797036"
     inkscape:cy="62.5"
     inkscape:window-x="-8"
     inkscape:window-y="-8"
     inkscape:window-maximized="1"
     inkscape:current-layer="svg22" /><g
     id="g8"><g
       id="g6"><g
         id="g4"><path
           d="M10.256,94.898c-0.867,0-1.575-0.705-1.575-1.575V51.329c0-0.565,0.302-1.085,0.794-1.369     c0.701-0.396,17.021-9.528,31.672-0.388c2.209-0.818,8.674-2.974,15.415-2.974c0.05,0,0.099,0,0.147,0l-9.337-24.549     c-2.953,0.855-9.639,2.344-14.117-0.019c-2.079-1.101-3.444-2.854-4.054-5.219c-0.996-3.887,1.015-7.538,5.389-9.765     c6.637-3.374,16.978-2.639,22.814,4.435c2.424,2.94,5.678,5.646,9.122,8.513c8.557,7.117,19.204,15.978,23.99,34.231     c1.636,6.25,0.769,11.453-2.571,15.467c-7.609,9.138-25.719,8.929-30.129,8.719C55.362,82.002,44.18,94.898,10.256,94.898z      M11.83,52.289v39.45C46.953,91.3,55.504,76.205,55.584,76.051c0.295-0.547,0.91-0.871,1.507-0.834     c0.222,0.025,20.951,1.443,28.437-7.544c2.651-3.187,3.304-7.44,1.944-12.647c-4.527-17.278-14.32-25.422-22.963-32.61     c-3.562-2.962-6.92-5.761-9.534-8.929C50.208,7.714,41.43,7.102,36.022,9.854c-1.427,0.723-4.644,2.777-3.771,6.173     c0.382,1.489,1.193,2.541,2.473,3.217c3.783,1.996,10.703,0.228,13.054-0.625c0.793-0.301,1.703,0.114,2.011,0.919l10.377,27.284     c3.052,0.4,6.017,1.372,8.514,3.245c0.695,0.522,0.837,1.51,0.313,2.205c-0.522,0.695-1.513,0.836-2.202,0.316     c-2.189-1.643-4.884-2.442-7.688-2.719c-0.13,0.003-0.265-0.006-0.4-0.037c-8.156-0.643-17.021,2.904-17.144,2.953     c-0.485,0.19-1.039,0.145-1.47-0.148C28.61,44.987,15.195,50.646,11.83,52.289z"
           id="path2" /></g></g></g><g
     id="g16"><g
       id="g14"><g
         id="g12"><path
           d="M39.83,70.25c-5.302,0-8.992-0.842-9.331-0.922c-0.849-0.201-1.371-1.047-1.169-1.893     c0.197-0.848,1.064-1.393,1.889-1.172c0.185,0.043,17.796,4.018,31.574-6.228c0.683-0.517,1.68-0.382,2.202,0.326     c0.522,0.698,0.375,1.683-0.326,2.202C56.224,68.842,46.683,70.25,39.83,70.25z"
           id="path10" /></g></g></g><path
     style="fill:#ffccaa;fill-opacity:1;stroke:none;stroke-width:0.18726344;stroke-opacity:1"
     d="M 11.992001,71.972096 V 52.25209 l 1.91945,-0.758531 c 7.599488,-3.003176 14.758528,-3.462855 20.92669,-1.343696 1.289929,0.443174 4.022844,1.772494 4.962482,2.413805 0.77686,0.530216 1.202851,0.490983 3.670526,-0.338048 4.638276,-1.558256 8.960515,-2.316815 13.183184,-2.313669 4.11665,0.0031 6.730677,0.648791 9.383408,2.317913 1.328417,0.835852 2.074154,0.913683 2.797001,0.291917 0.700723,-0.602737 0.690676,-1.651611 -0.02296,-2.396483 -1.107231,-1.1557 -5.17211,-2.863294 -7.764933,-3.261929 L 60.212339,46.735066 55.062594,33.142108 C 52.113861,25.358811 49.725651,19.323469 49.47486,19.02112 c -0.532382,-0.641828 -1.134962,-0.67586 -2.788446,-0.157481 -2.556871,0.801595 -5.216413,1.173519 -7.810536,1.092265 -2.201628,-0.06896 -2.56411,-0.130237 -3.628244,-0.613342 -2.572313,-1.167803 -3.689088,-3.835781 -2.589567,-6.186481 2.05267,-4.3884716 10.876669,-6.1699366 17.07026,-3.4462908 1.92195,0.8451818 3.067739,1.7744898 6.551479,5.3136658 2.410195,2.448547 5.128695,4.932037 8.426855,7.698366 9.610402,8.060714 14.376644,13.424477 18.041064,20.302779 2.051905,3.851532 4.105667,9.43193 4.917371,13.361289 0.49587,2.400436 0.42183,5.791144 -0.162222,7.429164 -1.2164,3.411481 -3.579236,5.8836 -7.502128,7.849104 -4.560977,2.285208 -12.465143,3.650593 -20.538825,3.547927 -3.248176,-0.0413 -3.539223,0.02805 -4.099738,0.976927 -1.620388,2.743097 -5.94638,6.220828 -10.822239,8.700161 -8.06783,4.102423 -17.264405,6.124432 -30.534861,6.713559 l -2.013082,0.08937 z m 34.737369,-2.14964 c 6.142035,-0.916055 11.464387,-2.879114 16.229348,-5.985919 1.098529,-0.716253 2.088684,-1.472983 2.200346,-1.681622 0.349534,-0.653113 0.240142,-1.50745 -0.256628,-2.004219 -0.766496,-0.766498 -1.449481,-0.623795 -3.52822,0.737187 -4.585741,3.002353 -9.458611,4.788294 -15.476599,5.672281 -3.095176,0.454653 -9.441231,0.438571 -12.463952,-0.03159 -2.948547,-0.458621 -3.250992,-0.445005 -3.780152,0.170181 -0.58622,0.681521 -0.573216,1.602659 0.03116,2.207031 1.301009,1.301011 10.978218,1.821452 17.0447,0.916666 z"
     id="path822"
     inkscape:connector-curvature="0" /></svg>