<?xml version="1.0" encoding="UTF-8" standalone="no"?>
<svg
   xmlns:dc="http://purl.org/dc/elements/1.1/"
   xmlns:cc="http://creativecommons.org/ns#"
   xmlns:rdf="http://www.w3.org/1999/02/22-rdf-syntax-ns#"
   xmlns:svg="http://www.w3.org/2000/svg"
   xmlns="http://www.w3.org/2000/svg"
   xmlns:sodipodi="http://sodipodi.sourceforge.net/DTD/sodipodi-0.dtd"
   xmlns:inkscape="http://www.inkscape.org/namespaces/inkscape"
   version="1.1"
   x="0px"
   y="0px"
   viewBox="0 0 100 125"
   style="enable-background:new 0 0 100 100;"
   xml:space="preserve"
   id="svg18"
   sodipodi:docname="Camp.svg"
   inkscape:version="0.92.4 (5da689c313, 2019-01-14)"><metadata
     id="metadata24"><rdf:RDF><cc:Work
         rdf:about=""><dc:format>image/svg+xml</dc:format><dc:type
           rdf:resource="http://purl.org/dc/dcmitype/StillImage" /></cc:Work></rdf:RDF></metadata><defs
     id="defs22" /><sodipodi:namedview
     pagecolor="#ffffff"
     bordercolor="#666666"
     borderopacity="1"
     objecttolerance="10"
     gridtolerance="10"
     guidetolerance="10"
     inkscape:pageopacity="0"
     inkscape:pageshadow="2"
     inkscape:window-width="1920"
     inkscape:window-height="1017"
     id="namedview20"
     showgrid="false"
     inkscape:zoom="1.888"
     inkscape:cx="50"
     inkscape:cy="62.5"
     inkscape:window-x="-8"
     inkscape:window-y="-8"
     inkscape:window-maximized="1"
     inkscape:current-layer="svg18" /><path
     d="m 66.297408,73.23833 h -6.840761 c -0.219426,0 -0.39751,0.172153 -0.39751,0.384271 0,0.212117 0.178084,0.384271 0.39751,0.384271 h 6.840761 c 0.219426,0 0.397511,-0.172154 0.397511,-0.384271 0,-0.212118 -0.178085,-0.384271 -0.397511,-0.384271 z"
     id="path2"
     inkscape:connector-curvature="0"
     style="stroke-width:0.3908346" /><path
     d="m 66.297408,78.108577 h -7.670365 c -0.219427,0 -0.397511,0.172154 -0.397511,0.384271 0,0.212117 0.178084,0.384271 0.397511,0.384271 h 7.670365 c 0.219426,0 0.397511,-0.172154 0.397511,-0.384271 0,-0.212117 -0.178085,-0.384271 -0.397511,-0.384271 z"
     id="path4"
     inkscape:connector-curvature="0"
     style="stroke-width:0.3908346" /><path
     d="m 35.291579,76.011996 h 6.185662 c 0.219426,0 0.397511,-0.172154 0.397511,-0.384271 0,-0.212117 -0.178085,-0.384271 -0.397511,-0.384271 h -6.185662 c -0.219427,0 -0.397511,0.172154 -0.397511,0.384271 0,0.212117 0.178084,0.384271 0.397511,0.384271 z"
     id="path6"
     inkscape:connector-curvature="0"
     style="stroke-width:0.3908346" /><path
     d="m 38.443838,48.248437 c -0.120446,-0.116434 -0.304493,-0.146792 -0.457933,-0.07301 -1.491062,0.712437 -2.417659,2.148073 -2.417659,3.74664 0,2.307161 1.948597,4.184323 4.343996,4.184323 1.658414,0 3.148682,-0.891892 3.889244,-2.327528 0.07592,-0.14756 0.04611,-0.325861 -0.07433,-0.44268 -0.120445,-0.116434 -0.304095,-0.146791 -0.457933,-0.07301 -0.496887,0.23748 -1.026769,0.358141 -1.574141,0.358141 -1.956945,0 -3.548974,-1.532088 -3.548974,-3.415398 0,-0.526451 0.124817,-1.03561 0.371672,-1.513643 0.07632,-0.148713 0.04611,-0.327014 -0.07394,-0.443832 z m 3.251239,6.140646 c 0.248046,0 0.492914,-0.01998 0.733805,-0.06033 -0.654302,0.637889 -1.550291,1.008711 -2.51664,1.008711 -1.956944,0 -3.548975,-1.532088 -3.548975,-3.415783 0,-0.931088 0.385982,-1.794928 1.050621,-2.424748 -0.04174,0.232483 -0.06281,0.46881 -0.06281,0.708211 0,2.307161 1.948597,4.183939 4.343996,4.183939 z"
     id="path8"
     inkscape:connector-curvature="0"
     style="stroke-width:0.3908346" /><path
     d="m 66.298998,67.07847 c -3.98e-4,0 -0.0012,0 -0.0016,0 -0.218631,0 -0.396715,0.171001 -0.397511,0.382734 l -0.0087,2.05239 -14.75162,-21.031521 c -0.147873,-0.210965 -0.510006,-0.210965 -0.65788,0 l -14.741284,21.016535 0.0087,-2.177662 c 7.74e-4,-0.212118 -0.176494,-0.38504 -0.395921,-0.385809 -3.97e-4,0 -7.74e-4,0 -0.0016,0 -0.218631,0 -0.396716,0.171002 -0.397511,0.382734 l -0.01391,3.437686 c -7.74e-4,0.169079 0.112893,0.31856 0.280245,0.368516 0.03896,0.01153 0.07831,0.0169 0.117266,0.0169 0.129191,0 0.253612,-0.0611 0.329139,-0.168694 l 2.319874,-3.307418 v 3.091842 c 0,0.212118 0.178085,0.38427 0.397511,0.38427 h 8.854151 c 0.452368,1.416806 1.823382,2.449726 3.440455,2.449726 0.01073,0 0.02067,-0.0015 0.0314,-0.0015 0.0051,0 0.01033,0.0015 0.0155,0.0015 0.0163,0 0.03101,-0.0042 0.0473,-0.0046 1.575732,-0.03958 2.90302,-1.05636 3.346643,-2.445498 h 9.117303 c 0.219426,0 0.39751,-0.172154 0.39751,-0.384271 v -3.091813 l 2.319872,3.307419 c 0.09779,0.13949 0.278258,0.200588 0.444815,0.15217 0.166557,-0.04919 0.28104,-0.197515 0.281438,-0.365826 l 0.01432,-3.293584 c 7.18e-4,-0.212537 -0.176154,-0.385075 -0.395977,-0.386228 z m -15.525573,5.740237 c -0.02107,7.9e-4 -0.04174,0.0027 -0.06281,0.0031 -0.689283,-0.0085 -1.247786,-0.548739 -1.247786,-1.213527 0,-0.436148 0.664241,-1.441784 1.263687,-2.19995 0.599445,0.757782 1.263685,1.763034 1.263685,2.19995 -7.74e-4,0.654413 -0.542601,1.185859 -1.216779,1.210452 z m 1.976423,-0.881134 c 0.01908,-0.10798 0.03459,-0.216728 0.03459,-0.329704 0,-0.972589 -1.460056,-2.72179 -1.752624,-3.062638 -0.151054,-0.175995 -0.460715,-0.175995 -0.611769,0 -0.292568,0.340848 -1.752624,2.090049 -1.752624,3.062638 0,0.154861 0.02266,0.303958 0.05764,0.448444 -0.523521,-0.490713 -0.850672,-1.174715 -0.850672,-1.932112 0,-1.150507 1.808276,-3.600618 2.804437,-4.819524 0.996161,1.218906 2.804437,3.669017 2.804437,4.819524 0,0.698603 -0.27945,1.333803 -0.733407,1.813372 z m -1.764947,-7.489051 c -0.151054,-0.175997 -0.460715,-0.175997 -0.611769,0 -0.337089,0.39234 -3.293376,3.886514 -3.293376,5.676062 0,0.08377 0.0072,0.166005 0.01312,0.248623 h -4.003727 v -2.53388 c 0.518354,-0.405406 2.23719,-1.8103 3.978287,-3.895353 1.412752,-1.691944 3.026248,-4.082492 3.75727,-6.809277 0.731022,2.726785 2.344518,5.117333 3.75727,6.809277 1.741097,2.085053 3.459933,3.489947 3.978287,3.895353 v 2.53388 h -4.295102 c 0.0059,-0.08262 0.01312,-0.164852 0.01312,-0.248623 0,-1.789548 -2.956286,-5.283337 -3.293375,-5.676062 z m 11.854561,5.924685 h -3.48418 v -2.719483 c 0,-0.119125 -0.05724,-0.231715 -0.154631,-0.304343 -0.0799,-0.05956 -7.978437,-6.037662 -7.978437,-13.113238 0,-0.212118 -0.178084,-0.384271 -0.39751,-0.384271 -0.219425,0 -0.397511,0.172153 -0.397511,0.384271 0,7.075576 -7.898536,13.053676 -7.978435,13.113238 -0.09739,0.07263 -0.154632,0.184835 -0.154632,0.304343 v 2.719483 h -3.512404 v -3.84117 L 50.810394,49.382035 62.839065,66.532037 v 3.84117 z"
     id="path10"
     inkscape:connector-curvature="0"
     style="stroke-width:0.3908346" /><path
     d="m 56.83268,75.311086 c 0.0473,-0.09222 0.05405,-0.199052 0.01908,-0.296272 L 56.265828,73.3832 c -0.07115,-0.198284 -0.294158,-0.304727 -0.500466,-0.238632 l -4.885406,1.56206 -5.119142,-1.399514 c -0.209488,-0.05649 -0.427324,0.05879 -0.488938,0.260536 l -0.508416,1.65467 c -0.03022,0.09837 -0.01829,0.204816 0.033,0.294735 0.05128,0.08992 0.137937,0.156399 0.240097,0.184451 l 1.473572,0.402715 -1.227116,0.39234 c -0.100967,0.03228 -0.184444,0.102601 -0.231748,0.194441 -0.04731,0.09223 -0.05406,0.199052 -0.01909,0.296274 l 0.585931,1.631613 c 0.05684,0.158704 0.21068,0.25823 0.37525,0.25823 0.04134,0 0.08348,-0.0065 0.124818,-0.0196 l 4.642527,-1.484438 5.058323,1.382991 c 0.03618,0.0096 0.07235,0.0146 0.108123,0.0146 0.171724,0 0.329536,-0.108364 0.380814,-0.275138 l 0.508422,-1.654286 c 0.03021,-0.09837 0.01829,-0.204817 -0.033,-0.294736 -0.05128,-0.08992 -0.137538,-0.156398 -0.240096,-0.18445 l -1.412355,-0.386192 1.470392,-0.469963 c 0.100967,-0.03228 0.184444,-0.1026 0.231351,-0.194826 z m -11.19231,-0.243243 0.281835,-0.917639 3.611384,0.987192 -1.677097,0.536058 z m 10.299103,1.927886 -0.281835,0.917639 -3.550167,-0.970668 1.677097,-0.536058 z m -9.698862,1.013322 -0.325163,-0.905342 9.72788,-3.110671 0.325163,0.905341 z"
     id="path12"
     inkscape:connector-curvature="0"
     style="stroke-width:0.3908346" /><rect
     style="fill:none"
     id="rect14"
     width="34.761917"
     height="26.753521"
     x="0.529661"
     y="49.258476" /><rect
     style="fill:none;stroke:#000000"
     id="rect26"
     width="32.838982"
     height="33.898304"
     x="0.529661"
     y="47.139832" /><rect
     style="fill:none;stroke:#000000"
     id="rect26-9"
     width="32.838982"
     height="33.898304"
     x="33.368641"
     y="81.038132" /><rect
     style="fill:none;stroke:#000000"
     id="rect26-8"
     width="32.838982"
     height="33.898304"
     x="66.207626"
     y="47.139832" /><rect
     style="fill:none;stroke:#000000"
     id="rect26-2"
     width="32.838982"
     height="33.898304"
     x="33.368641"
     y="13.241527" /></svg>