<?xml version="1.0" encoding="UTF-8" standalone="no"?>
<svg
   xmlns:dc="http://purl.org/dc/elements/1.1/"
   xmlns:cc="http://creativecommons.org/ns#"
   xmlns:rdf="http://www.w3.org/1999/02/22-rdf-syntax-ns#"
   xmlns:svg="http://www.w3.org/2000/svg"
   xmlns="http://www.w3.org/2000/svg"
   xmlns:sodipodi="http://sodipodi.sourceforge.net/DTD/sodipodi-0.dtd"
   xmlns:inkscape="http://www.inkscape.org/namespaces/inkscape"
   data-name="Layer 2"
   viewBox="0 0 512 640"
   x="0px"
   y="0px"
   version="1.1"
   id="svg16"
   sodipodi:docname="CarnivorousPlant.svg"
   inkscape:version="0.92.2 (5c3e80d, 2017-08-06)">
  <metadata
     id="metadata22">
    <rdf:RDF>
      <cc:Work
         rdf:about="">
        <dc:format>image/svg+xml</dc:format>
        <dc:type
           rdf:resource="http://purl.org/dc/dcmitype/StillImage" />
      </cc:Work>
    </rdf:RDF>
  </metadata>
  <defs
     id="defs20" />
  <sodipodi:namedview
     pagecolor="#ffffff"
     bordercolor="#666666"
     borderopacity="1"
     objecttolerance="10"
     gridtolerance="10"
     guidetolerance="10"
     inkscape:pageopacity="0"
     inkscape:pageshadow="2"
     inkscape:window-width="1920"
     inkscape:window-height="1017"
     id="namedview18"
     showgrid="false"
     inkscape:zoom="1.475"
     inkscape:cx="113.46892"
     inkscape:cy="356.1115"
     inkscape:window-x="-8"
     inkscape:window-y="-8"
     inkscape:window-maximized="1"
     inkscape:current-layer="svg16" />
  <title
     id="title2">plant Carnivorous primitive Insect</title>
  <path
     style="fill:#aad400;fill-opacity:1;stroke:none;stroke-width:0.67796612;stroke-opacity:1"
     d="m 306.92655,437.30567 c -1.47387,-0.16156 -2.54238,-0.64472 -2.54238,-1.14963 0,-2.22633 -2.31138,-2.97446 -9.96301,-3.22473 -8.38074,-0.27411 -9.92458,-0.90835 -12.91834,-5.3071 -1.9421,-2.85354 -1.913,-4.9946 0.2166,-15.9391 2.3909,-12.28733 2.99689,-31.39769 1.33289,-42.0339 -3.22393,-20.60716 -11.62188,-36.79599 -27.09491,-52.23118 -12.63375,-12.60286 -23.25703,-19.87079 -44.51317,-30.45375 -14.36138,-7.15021 -20.48868,-11.27881 -28.11267,-18.94242 -12.6104,-12.67593 -19.23454,-28.05763 -20.39543,-47.35956 -1.02616,-17.06185 2.91306,-33.39732 13.28251,-55.08088 14.89026,-31.13703 33.31389,-48.43904 58.33503,-54.78362 4.84655,-1.22894 7.64893,-1.45678 17.62711,-1.43317 12.93101,0.0306 17.79132,0.81614 31.6239,5.1112 7.33024,2.27607 10.08808,2.26141 10.94783,-0.0582 0.43851,-1.18308 0.94868,-1.00366 6.01789,2.11634 l 5.53878,3.40901 -2.65742,5.4952 c -1.46158,3.02236 -2.65742,5.89269 -2.65742,6.37852 0,1.26277 -0.49911,1.15116 -6.51989,-1.45797 -7.55774,-3.27519 -16.27462,-5.62 -24.99357,-6.72319 -6.81646,-0.86247 -8.22012,-0.83168 -16.61017,0.3644 -10.02426,1.42906 -17.31671,3.90447 -18.01876,6.11645 -0.22588,0.71166 -2.27953,2.65379 -4.56369,4.31585 -3.56175,2.5917 -4.47341,2.96182 -6.4035,2.59973 -2.95552,-0.55446 -5.98019,1.53217 -13.05508,9.0063 -9.34263,9.86985 -16.29737,21.80206 -21.02774,36.07715 -6.65348,20.07861 -6.12529,36.42627 1.7063,52.80989 3.9292,8.21987 8.04566,13.90026 14.31844,19.75835 6.56866,6.1344 12.7842,9.97056 23.30671,14.38462 53.32937,22.37097 84.53472,55.02899 93.63641,97.99535 2.86366,13.5185 2.69794,34.03351 -0.39846,49.32612 -1.91998,9.48246 -2.0215,10.73912 -1.00347,12.42116 0.52681,0.87043 0.37797,2.14906 -0.57108,4.90606 l -1.28357,3.72881 -5.02215,0.0683 c -2.76218,0.0376 -6.16622,-0.0571 -7.56452,-0.21041 z"
     id="path851"
     inkscape:connector-curvature="0" />
  <path
     style="fill:#80ff80;fill-opacity:1;stroke:none;stroke-width:0.67796612;stroke-opacity:1"
     d="m 366.48389,234.03012 c -28.85923,-5.45083 -51.27052,-25.92037 -59.12429,-54.00167 -2.37945,-8.50779 -2.99791,-23.72163 -1.32615,-32.62266 5.1976,-27.67378 25.99719,-50.588455 53.06301,-58.458925 34.73546,-10.100726 72.71224,7.477 88.09748,40.776325 2.12196,4.59271 2.38538,5.74147 2.14659,9.36124 -0.29855,4.52559 -2.43002,9.81113 -6.48431,16.07953 l -2.46931,3.81783 -8.00516,-6.04497 c -12.29377,-9.28344 -15.53841,-11.4212 -17.33477,-11.4212 -1.11264,0 -3.24145,1.49928 -6.49777,4.57627 -2.66365,2.51695 -5.81342,5.4521 -6.99947,6.52257 l -2.15647,1.94629 -5.0704,-4.14317 c -2.78872,-2.27874 -5.88054,-4.45119 -6.87072,-4.82765 -2.50895,-0.9539 -56.59475,-0.92106 -59.11174,0.0359 -2.35922,0.89697 -2.91575,1.75115 -2.9289,4.49541 -0.0144,3.00291 2.01858,4.27573 6.82931,4.27573 h 3.82614 l 1.80677,4.95388 c 5.71731,15.67585 20.87222,27.69916 42.10366,33.40337 8.837,2.37423 9.4691,2.28247 14.84948,-2.15552 2.53265,-2.08905 4.84876,-3.5382 5.1469,-3.22034 0.29814,0.31787 2.13238,3.47624 4.07609,7.01861 1.94371,3.54238 4.00544,6.97458 4.58162,7.62712 1.9948,2.25919 4.24089,1.38986 14.55293,-5.63253 l 10.01332,-6.81897 -0.0149,9.70033 c -0.0122,7.94431 -0.24036,10.19669 -1.26038,12.44229 -3.49776,7.70037 -21.45382,18.3648 -36.65417,21.76957 -6.61455,1.4816 -22.25818,1.77798 -28.78441,0.54534 z"
     id="path853"
     inkscape:connector-curvature="0" />
  <path
     style="fill:#ccff00;fill-opacity:1;stroke:none;stroke-width:0.67796612;stroke-opacity:1"
     d="m 225.06214,224.27879 -6.44068,-1.14584 5.08475,-2.55526 c 7.4872,-3.76259 13.54808,-7.98045 13.99598,-9.74004 0.65355,-2.56746 -0.28421,-4.6876 -2.47467,-5.59492 -1.90363,-0.78851 -2.32281,-0.67368 -5.68143,1.55632 -4.77982,3.17362 -14.56441,8.07196 -15.26235,7.6406 -0.30306,-0.1873 -0.31307,-1.84583 -0.0222,-3.68563 1.2746,-8.06307 5.14199,-11.73813 20.50645,-19.48663 12.27145,-6.18864 16.37369,-8.65544 19.90809,-11.97129 l 2.15629,-2.02295 0.48204,2.56953 c 0.70586,3.76254 -0.15153,15.66817 -1.43872,19.97802 -2.7474,9.19904 -8.31762,16.95688 -16.0988,22.42139 -5.29992,3.72198 -5.26728,3.71747 -14.71472,2.0367 z"
     id="path849"
     inkscape:connector-curvature="0" />
  <path
     style="fill:#ccff00;fill-opacity:1;stroke:none;stroke-width:0.67796612;stroke-opacity:1"
     d="m 127.18556,174.42407 c -7.88972,-3.24381 -14.6506,-11.04899 -17.54561,-20.25577 -2.15654,-6.85827 -1.96463,-18.34633 0.57945,-34.68658 1.46334,-9.39876 1.90706,-14.65745 1.93069,-22.881356 0.0169,-5.872881 0.22083,-10.677966 0.45322,-10.677966 0.23239,0 3.45857,3.152126 7.16929,7.004724 17.1094,17.763588 24.22487,36.102148 21.69292,55.908768 -0.53305,4.16985 -0.49851,4.31357 1.48106,6.16277 l 2.02685,1.89335 -1.4864,6.49792 c -0.81751,3.57386 -1.66145,6.67298 -1.87542,6.88695 -1.07256,1.07256 -7.42479,-10.11113 -11.13757,-19.60872 -1.71955,-4.39874 -2.47202,-5.54762 -3.98171,-6.07931 -2.56055,-0.90178 -5.42188,0.72119 -5.71464,3.24139 -0.40418,3.47942 5.01483,16.49498 9.86679,23.69842 1.06259,1.57758 2.16605,3.24967 2.45212,3.71577 0.81392,1.32612 -1.45675,1.01099 -5.91104,-0.82036 z"
     id="path843"
     inkscape:connector-curvature="0" />
  <path
     style="fill:#ccff00;fill-opacity:1;stroke:none;stroke-width:0.67796612;stroke-opacity:1"
     d="m 129.91784,311.67759 c -8.98956,-2.27725 -16.77865,-6.79072 -23.92878,-13.86577 -8.645091,-8.55431 -13.644042,-16.54863 -17.821151,-28.49959 -4.192403,-11.99471 -9.103628,-20.90677 -17.301088,-31.39507 l -1.313963,-1.68116 11.483455,0.39648 c 12.509374,0.43189 17.888853,1.35346 28.535197,4.88844 14.72156,4.88811 27.26777,12.71593 39.48778,24.63716 3.45386,3.36942 3.89328,3.59722 6.22087,3.22503 2.47904,-0.39642 2.5845,-0.31521 10.37749,7.99112 9.02019,9.61436 9.07534,9.20113 -1.23016,9.21688 -9.90178,0.0151 -19.94411,-3.28525 -28.71344,-9.43659 -2.16214,-1.51665 -4.60434,-2.75755 -5.42713,-2.75755 -2.32067,0 -4.32388,2.42282 -4.07831,4.93259 0.26814,2.74042 4.60375,6.16499 13.09082,10.34004 8.78042,4.31935 15.22805,5.85892 24.91525,5.94926 4.38136,0.0409 7.96591,0.24028 7.96568,0.44315 -2.3e-4,0.20288 -1.34086,2.07632 -2.97916,4.1632 -3.37577,4.30008 -9.43134,8.62543 -15.16581,10.83255 -5.63465,2.16871 -16.86403,2.45731 -24.11755,0.61983 z"
     id="path841"
     inkscape:connector-curvature="0" />
  <path
     style="fill:#ccff00;fill-opacity:1;stroke:none;stroke-width:0.67796612;stroke-opacity:1"
     d="m 173.48365,406.94249 c -20.26423,-3.82046 -36.932,-13.86324 -48.20518,-29.0449 -2.16983,-2.92212 -3.94514,-5.53562 -3.94514,-5.80777 0,-0.27216 1.90678,-0.2607 4.23728,0.0255 4.96039,0.60908 14.19962,-0.27767 21.86441,-2.09848 8.91914,-2.11879 16.86786,-5.2022 31.52543,-12.2291 15.45572,-7.40955 20.20254,-8.82027 29.62536,-8.80444 7.66131,0.0129 13.3539,1.36952 20.54413,4.89609 4.68862,2.29961 6.94777,4.0061 12.12082,9.15572 3.49695,3.48111 6.19064,6.49676 5.98596,6.70144 -0.20467,0.20467 -2.15057,-0.0322 -4.3242,-0.52626 -5.79064,-1.31634 -23.47633,-1.11313 -30.98529,0.35602 -8.13463,1.59157 -16.75633,4.34305 -18.30577,5.84199 -2.43374,2.35443 -0.78082,7.46328 2.41468,7.46328 0.69978,0 4.25102,-0.8849 7.89164,-1.96645 3.64062,-1.08154 9.04622,-2.35098 12.01244,-2.82096 8.062,-1.27739 20.63187,-1.12187 27.07166,0.33494 l 5.40735,1.22326 -8.11922,7.64456 c -6.42703,6.05128 -8.35626,7.51871 -9.25655,7.04076 -1.51053,-0.80192 -3.05404,-0.16325 -6.3203,2.61521 -3.61058,3.07135 -12.29113,7.19771 -18.98305,9.02373 -7.04402,1.92209 -24.44526,2.44855 -32.25646,0.97589 z"
     id="path839"
     inkscape:connector-curvature="0" />
  <path
     style="fill:#ccff00;fill-opacity:1;stroke:none;stroke-width:0.67796612;stroke-opacity:1"
     d="m 351.50282,343.40817 c -4.47458,-2.2447 -8.25534,-4.19161 -8.4017,-4.32646 -1.33031,-1.22575 6.5915,-5.45433 15.00461,-8.0093 9.01582,-2.738 16.19228,-5.98526 22.49382,-10.17816 8.20934,-5.4623 11.43245,-9.6828 9.78492,-12.81285 -1.73106,-3.28874 -5.28611,-3.46968 -7.92588,-0.40339 -4.77255,5.5437 -15.49597,11.3081 -28.23907,15.18 -3.35327,1.01887 -7.54819,2.58793 -9.32203,3.48681 l -3.22518,1.63432 v -1.97391 c 0,-3.01852 2.43569,-10.23271 4.6138,-13.66546 3.12235,-4.92089 6.0283,-7.87164 11.02064,-11.19054 5.87937,-3.90859 10.43292,-5.77509 24.02658,-9.84849 17.25544,-5.17067 29.40269,-10.70997 38.82666,-17.70547 l 3.57243,-2.65184 -0.4072,2.91321 c -3.59156,25.69492 -9.69644,42.38222 -20.06169,54.83733 -8.69581,10.44907 -21.70275,16.21148 -36.59264,16.21148 -3.22179,0 -4.56763,0.30869 -5.63285,1.29199 -1.3856,1.27905 -1.48116,1.2511 -9.53522,-2.78927 z"
     id="path845"
     inkscape:connector-curvature="0" />
  <path
     d="M238.69,136.32a4,4,0,0,0,1.55-.3c1.62-.64,3.26-1.21,4.9-1.7a4.2,4.2,0,1,0-2.41-8c-1.87.56-3.75,1.21-5.59,1.94a4.2,4.2,0,0,0,1.55,8.1Z"
     id="path4"
     style="fill:#00ff00" />
  <path
     d="M81.35,276.32a81.67,81.67,0,0,0,18.26,28,60.27,60.27,0,0,0,38,17.52c1.39.1,2.73.15,4,.15,27.76,0,39.14-22,42-29a3.75,3.75,0,0,0,.25-.85c3.93-.85,11-1.86,16.74-.73,1.72.9,3.49,1.79,5.34,2.64,57.71,26.47,70.76,62,69.69,95a52.08,52.08,0,0,0-14.64-12.9c-4.4-9.52-17-30.72-43.23-35.34a57.88,57.88,0,0,0-37.49,6.47c-14.28,7.79-49.31,24.52-66,11.82a4.2,4.2,0,0,0-6.55,4.6c.16.49,3.87,12.1,14.58,24.41,9.86,11.32,27.77,25.44,57.16,28.34a83.86,83.86,0,0,0,8.5.43,77.3,77.3,0,0,0,27.91-5c7.19-2.79,12.82-6.27,16.73-10.34a4.2,4.2,0,1,0-6.05-5.82c-3.06,3.18-7.68,6-13.72,8.34a71.08,71.08,0,0,1-32.54,4.08c-35.65-3.53-52.82-24.47-60.06-37.17,20.22,4.94,47.78-7.4,64.07-16.27a49.35,49.35,0,0,1,32-5.58c16,2.81,26.06,12.69,32.09,21.69a69.25,69.25,0,0,0-19.13-2.54h-.18a100.84,100.84,0,0,0-34,6.31,4.2,4.2,0,0,0,3.15,7.79,93.47,93.47,0,0,1,31-5.7h.07c21.12,0,36.27,8.84,45.09,26.19-.71,5.15-1.68,10.2-2.77,15.09a19.34,19.34,0,0,0,18.83,23.64h9.69a4.2,4.2,0,0,0,0-8.4h-9.69a10.84,10.84,0,0,1-8.5-4.08,11,11,0,0,1-2.14-9.32c8.81-39.34,11.11-96-70.4-133.36q-2.07-1-4.05-2a4.11,4.11,0,0,0-1.79-1l-.14,0c-23.74-12.69-37.31-31.77-40.37-56.8a93.84,93.84,0,0,1,3.37-37.84c12.46-37.59,30.65-62.29,54.06-73.41,24.66-11.71,51-6.11,68.73.64a4.2,4.2,0,1,0,3-7.84c-19.27-7.35-48-13.37-75.32-.38-24.88,11.81-44.17,37.11-57.34,75.14-21.51-3.6-30.44-35.1-30.53-35.44a4.2,4.2,0,0,0-8.1,2.22c.27,1,4.34,15.44,14,27.11-6.3-.61-13.89-3.36-20.12-11.6a37.29,37.29,0,0,1-7.25-23.12c.13-6.82,1.3-17.35,3.21-28.9a97.75,97.75,0,0,0,.64-28.71c12.86,10.69,36,34.87,30.07,66.45a4.2,4.2,0,0,0,8.26,1.55c3.63-19.44-2-39.33-16.3-57.51-10.72-13.64-25.08-24.37-28.18-24.53A4.21,4.21,0,0,0,101.14,76c0,.14,4.94,14.58,1.42,35.8-2,11.93-3.19,22.91-3.32,30.11a45.72,45.72,0,0,0,8.94,28.34,36.4,36.4,0,0,0,29.94,15.05,38.74,38.74,0,0,0,5.42-.37A34.33,34.33,0,0,0,157.15,191a103.09,103.09,0,0,0-2.38,36.27c2,16.89,9.53,38.78,32.42,55.73a62,62,0,0,0-7.5,1.48l-.26.08c-25.34,9-45.36-8.12-46.25-8.89a4.2,4.2,0,0,0-5.55,6.3c.79.69,15.73,13.59,36.89,13.59a52.24,52.24,0,0,0,8.9-.77c-4.89,8.5-15.27,20.1-35.22,18.63a51.93,51.93,0,0,1-32.67-15.1,73.13,73.13,0,0,1-16.37-25.13c-.48-1.2-.9-2.44-1.24-3.49-1.92-5.88-8.18-22.84-19.32-33.4a100,100,0,0,1,82.77,31.76,4.2,4.2,0,0,0,6.12-5.74c-44-46.85-98.54-33.26-100.84-32.66a4.2,4.2,0,0,0-.72,7.86c14.21,6.67,22.49,30.15,24,34.79C80.32,273.51,80.79,274.9,81.35,276.32Z"
     id="path6"
     style="fill:#00ff00" />
  <path
     d="M233.58,226.42a4.2,4.2,0,0,0,1.86,8,4.1,4.1,0,0,0,1.86-.44C279.57,213,263.13,164.11,263,163.62a4.23,4.23,0,0,0-4-2.82h0a4.2,4.2,0,0,0-4,2.81c-3.57,10.16-13.11,14.62-23.2,19.34-7.24,3.39-14.72,6.89-19.82,12.72-7.66,8.77-7.41,18.65-5.86,25.39a4.69,4.69,0,0,0,.41,1,33.57,33.57,0,0,0-6.24,11.32,55.54,55.54,0,0,1-5.4-37q.22-1.12.48-2.28c4.66-20.64,15.25-38.2,29.8-49.46a4.2,4.2,0,1,0-5.14-6.64c-16.09,12.45-27.76,31.72-32.85,54.26-.18.82-.36,1.64-.52,2.45a64.27,64.27,0,0,0,12.08,51.8,4.18,4.18,0,0,0,1.47,1.85,66.12,66.12,0,0,0,26.52,19.4c110.89,44.47,102.76,124.61,94.12,157a4.2,4.2,0,0,0,3,5.14,4.08,4.08,0,0,0,1.09.14A4.2,4.2,0,0,0,329,427c3.57-13.39,8-38.55,1.21-66.43.09-.74,3.05-23.07,25.12-29,26.65-7.13,34.31-19,34.63-19.49a4.18,4.18,0,0,0-1.3-5.73,4.23,4.23,0,0,0-5.79,1.23c-.07.1-6.67,9.71-29.71,15.88a42.77,42.77,0,0,0-11.89,5.16c0-10.3,4.87-28.28,35.78-36.44,25.45-6.73,39.41-15.24,47-22.18-1.59,17.12-6.85,46.34-24.09,62.82-9.36,8.94-21.29,13-35.47,12.17a4.2,4.2,0,0,0-.51,8.38c1.44.08,2.85.13,4.25.13,14.76,0,27.38-4.9,37.53-14.61,27.93-26.7,27.41-80.27,27.38-82.54a4.2,4.2,0,0,0-8.26-1c0,.17-5.6,17-50,28.71-44.93,11.87-42.71,43.7-41.54,51.12a43.79,43.79,0,0,0-7.51,11.27c-14.15-37.48-46.41-66.55-96-86.43a57.66,57.66,0,0,1-23-16.73c.27-4.24,2.14-16.22,14.38-22,1.16-.52,11.45-5.2,15.34-9a4.2,4.2,0,0,0-5.88-6c-2.14,2.1-9,5.62-13,7.4a35.45,35.45,0,0,0-4,2.21,18.64,18.64,0,0,1,4.56-14.61c3.93-4.5,10.3-7.48,17-10.63,7.65-3.58,16-7.5,21.92-14.36C259.34,189.77,258.85,213.91,233.58,226.42Z"
     id="path8"
     style="fill:#00ff00" />
  <path
     d="M377.19,77.36a83.79,83.79,0,0,0-76.58,56.18c-12.79-6.55-25.54-9.94-37.91-10.06h0a4.2,4.2,0,0,0,0,8.4c11.52.11,23.49,3.44,35.61,9.89A83.29,83.29,0,0,0,379.36,244a83.21,83.21,0,0,0,54.92-20.68,22.35,22.35,0,0,0,7.52-14.91,122.08,122.08,0,0,0-.95-27,4.2,4.2,0,0,0-6.49-2.92L413.07,192.7l-8.23-15.1a4.19,4.19,0,0,0-6.34-1.24l-11.3,9.21c-7.27-1.44-35.14-8.41-42-31.61h39.71l12.19,9.95a4.2,4.2,0,0,0,5.53-.19l13.07-12.28,22.77,16.93a4.2,4.2,0,0,0,5.34-.27c.34-.31,8.29-7.71,13.4-22.15a22.44,22.44,0,0,0-.24-15.68A83.69,83.69,0,0,0,377.19,77.36Zm72.08,65.79a55.48,55.48,0,0,1-8.87,16.21L417.88,142.6a4.22,4.22,0,0,0-5.39.31l-12.95,12.17L389,146.51a4.22,4.22,0,0,0-2.65-.95H329.56a4.2,4.2,0,1,0,0,8.4h6.93c7.9,33.89,49.48,40,51.3,40.23a4.24,4.24,0,0,0,3.23-.9l8.87-7.23,8,14.69a4.2,4.2,0,0,0,6,1.49l19.39-13a104.74,104.74,0,0,1,.13,18.36,14,14,0,0,1-4.69,9.34,74.92,74.92,0,0,1-124.3-57.45c.58-39.68,33.31-72.78,73-73.78.63,0,1.26,0,1.9,0a75.2,75.2,0,0,1,69.82,47.6A14,14,0,0,1,449.27,143.15Z"
     id="path10"
     style="fill:#00ff00" />
  <path
     style="fill:none;stroke:#000000;stroke-width:1px;stroke-linecap:butt;stroke-linejoin:miter;stroke-opacity:1"
     d="M 177.62712,288.81356 Z"
     id="path823"
     inkscape:connector-curvature="0" />
  <path
     style="fill:none;stroke:#000000;stroke-width:1px;stroke-linecap:butt;stroke-linejoin:miter;stroke-opacity:1"
     d="M 242.73,126.32 Z"
     id="path831"
     inkscape:connector-curvature="0" />
</svg>
