<?xml version="1.0" encoding="UTF-8" standalone="no"?>
<svg
   xmlns:dc="http://purl.org/dc/elements/1.1/"
   xmlns:cc="http://creativecommons.org/ns#"
   xmlns:rdf="http://www.w3.org/1999/02/22-rdf-syntax-ns#"
   xmlns:svg="http://www.w3.org/2000/svg"
   xmlns="http://www.w3.org/2000/svg"
   xmlns:sodipodi="http://sodipodi.sourceforge.net/DTD/sodipodi-0.dtd"
   xmlns:inkscape="http://www.inkscape.org/namespaces/inkscape"
   data-name="Layer 2"
   viewBox="0 0 512 640"
   x="0px"
   y="0px"
   version="1.1"
   id="svg16"
   sodipodi:docname="CarnivorousPlant.svg"
   inkscape:version="0.92.4 (5da689c313, 2019-01-14)">
  <metadata
     id="metadata22">
    <rdf:RDF>
      <cc:Work
         rdf:about="">
        <dc:format>image/svg+xml</dc:format>
        <dc:type
           rdf:resource="http://purl.org/dc/dcmitype/StillImage" />
      </cc:Work>
    </rdf:RDF>
  </metadata>
  <defs
     id="defs20" />
  <sodipodi:namedview
     pagecolor="#ffffff"
     bordercolor="#666666"
     borderopacity="1"
     objecttolerance="10"
     gridtolerance="10"
     guidetolerance="10"
     inkscape:pageopacity="0"
     inkscape:pageshadow="2"
     inkscape:window-width="640"
     inkscape:window-height="480"
     id="namedview18"
     showgrid="false"
     inkscape:zoom="0.36875"
     inkscape:cx="113.46892"
     inkscape:cy="356.1115"
     inkscape:window-x="0"
     inkscape:window-y="0"
     inkscape:window-maximized="0"
     inkscape:current-layer="svg16" />
  <title
     id="title2">plant Carnivorous primitive Insect</title>
  <path
     d="M238.69,136.32a4,4,0,0,0,1.55-.3c1.62-.64,3.26-1.21,4.9-1.7a4.2,4.2,0,1,0-2.41-8c-1.87.56-3.75,1.21-5.59,1.94a4.2,4.2,0,0,0,1.55,8.1Z"
     id="path4" />
  <path
     d="M81.35,276.32a81.67,81.67,0,0,0,18.26,28,60.27,60.27,0,0,0,38,17.52c1.39.1,2.73.15,4,.15,27.76,0,39.14-22,42-29a3.75,3.75,0,0,0,.25-.85c3.93-.85,11-1.86,16.74-.73,1.72.9,3.49,1.79,5.34,2.64,57.71,26.47,70.76,62,69.69,95a52.08,52.08,0,0,0-14.64-12.9c-4.4-9.52-17-30.72-43.23-35.34a57.88,57.88,0,0,0-37.49,6.47c-14.28,7.79-49.31,24.52-66,11.82a4.2,4.2,0,0,0-6.55,4.6c.16.49,3.87,12.1,14.58,24.41,9.86,11.32,27.77,25.44,57.16,28.34a83.86,83.86,0,0,0,8.5.43,77.3,77.3,0,0,0,27.91-5c7.19-2.79,12.82-6.27,16.73-10.34a4.2,4.2,0,1,0-6.05-5.82c-3.06,3.18-7.68,6-13.72,8.34a71.08,71.08,0,0,1-32.54,4.08c-35.65-3.53-52.82-24.47-60.06-37.17,20.22,4.94,47.78-7.4,64.07-16.27a49.35,49.35,0,0,1,32-5.58c16,2.81,26.06,12.69,32.09,21.69a69.25,69.25,0,0,0-19.13-2.54h-.18a100.84,100.84,0,0,0-34,6.31,4.2,4.2,0,0,0,3.15,7.79,93.47,93.47,0,0,1,31-5.7h.07c21.12,0,36.27,8.84,45.09,26.19-.71,5.15-1.68,10.2-2.77,15.09a19.34,19.34,0,0,0,18.83,23.64h9.69a4.2,4.2,0,0,0,0-8.4h-9.69a10.84,10.84,0,0,1-8.5-4.08,11,11,0,0,1-2.14-9.32c8.81-39.34,11.11-96-70.4-133.36q-2.07-1-4.05-2a4.11,4.11,0,0,0-1.79-1l-.14,0c-23.74-12.69-37.31-31.77-40.37-56.8a93.84,93.84,0,0,1,3.37-37.84c12.46-37.59,30.65-62.29,54.06-73.41,24.66-11.71,51-6.11,68.73.64a4.2,4.2,0,1,0,3-7.84c-19.27-7.35-48-13.37-75.32-.38-24.88,11.81-44.17,37.11-57.34,75.14-21.51-3.6-30.44-35.1-30.53-35.44a4.2,4.2,0,0,0-8.1,2.22c.27,1,4.34,15.44,14,27.11-6.3-.61-13.89-3.36-20.12-11.6a37.29,37.29,0,0,1-7.25-23.12c.13-6.82,1.3-17.35,3.21-28.9a97.75,97.75,0,0,0,.64-28.71c12.86,10.69,36,34.87,30.07,66.45a4.2,4.2,0,0,0,8.26,1.55c3.63-19.44-2-39.33-16.3-57.51-10.72-13.64-25.08-24.37-28.18-24.53A4.21,4.21,0,0,0,101.14,76c0,.14,4.94,14.58,1.42,35.8-2,11.93-3.19,22.91-3.32,30.11a45.72,45.72,0,0,0,8.94,28.34,36.4,36.4,0,0,0,29.94,15.05,38.74,38.74,0,0,0,5.42-.37A34.33,34.33,0,0,0,157.15,191a103.09,103.09,0,0,0-2.38,36.27c2,16.89,9.53,38.78,32.42,55.73a62,62,0,0,0-7.5,1.48l-.26.08c-25.34,9-45.36-8.12-46.25-8.89a4.2,4.2,0,0,0-5.55,6.3c.79.69,15.73,13.59,36.89,13.59a52.24,52.24,0,0,0,8.9-.77c-4.89,8.5-15.27,20.1-35.22,18.63a51.93,51.93,0,0,1-32.67-15.1,73.13,73.13,0,0,1-16.37-25.13c-.48-1.2-.9-2.44-1.24-3.49-1.92-5.88-8.18-22.84-19.32-33.4a100,100,0,0,1,82.77,31.76,4.2,4.2,0,0,0,6.12-5.74c-44-46.85-98.54-33.26-100.84-32.66a4.2,4.2,0,0,0-.72,7.86c14.21,6.67,22.49,30.15,24,34.79C80.32,273.51,80.79,274.9,81.35,276.32Z"
     id="path6" />
  <path
     d="M233.58,226.42a4.2,4.2,0,0,0,1.86,8,4.1,4.1,0,0,0,1.86-.44C279.57,213,263.13,164.11,263,163.62a4.23,4.23,0,0,0-4-2.82h0a4.2,4.2,0,0,0-4,2.81c-3.57,10.16-13.11,14.62-23.2,19.34-7.24,3.39-14.72,6.89-19.82,12.72-7.66,8.77-7.41,18.65-5.86,25.39a4.69,4.69,0,0,0,.41,1,33.57,33.57,0,0,0-6.24,11.32,55.54,55.54,0,0,1-5.4-37q.22-1.12.48-2.28c4.66-20.64,15.25-38.2,29.8-49.46a4.2,4.2,0,1,0-5.14-6.64c-16.09,12.45-27.76,31.72-32.85,54.26-.18.82-.36,1.64-.52,2.45a64.27,64.27,0,0,0,12.08,51.8,4.18,4.18,0,0,0,1.47,1.85,66.12,66.12,0,0,0,26.52,19.4c110.89,44.47,102.76,124.61,94.12,157a4.2,4.2,0,0,0,3,5.14,4.08,4.08,0,0,0,1.09.14A4.2,4.2,0,0,0,329,427c3.57-13.39,8-38.55,1.21-66.43.09-.74,3.05-23.07,25.12-29,26.65-7.13,34.31-19,34.63-19.49a4.18,4.18,0,0,0-1.3-5.73,4.23,4.23,0,0,0-5.79,1.23c-.07.1-6.67,9.71-29.71,15.88a42.77,42.77,0,0,0-11.89,5.16c0-10.3,4.87-28.28,35.78-36.44,25.45-6.73,39.41-15.24,47-22.18-1.59,17.12-6.85,46.34-24.09,62.82-9.36,8.94-21.29,13-35.47,12.17a4.2,4.2,0,0,0-.51,8.38c1.44.08,2.85.13,4.25.13,14.76,0,27.38-4.9,37.53-14.61,27.93-26.7,27.41-80.27,27.38-82.54a4.2,4.2,0,0,0-8.26-1c0,.17-5.6,17-50,28.71-44.93,11.87-42.71,43.7-41.54,51.12a43.79,43.79,0,0,0-7.51,11.27c-14.15-37.48-46.41-66.55-96-86.43a57.66,57.66,0,0,1-23-16.73c.27-4.24,2.14-16.22,14.38-22,1.16-.52,11.45-5.2,15.34-9a4.2,4.2,0,0,0-5.88-6c-2.14,2.1-9,5.62-13,7.4a35.45,35.45,0,0,0-4,2.21,18.64,18.64,0,0,1,4.56-14.61c3.93-4.5,10.3-7.48,17-10.63,7.65-3.58,16-7.5,21.92-14.36C259.34,189.77,258.85,213.91,233.58,226.42Z"
     id="path8" />
  <path
     d="M377.19,77.36a83.79,83.79,0,0,0-76.58,56.18c-12.79-6.55-25.54-9.94-37.91-10.06h0a4.2,4.2,0,0,0,0,8.4c11.52.11,23.49,3.44,35.61,9.89A83.29,83.29,0,0,0,379.36,244a83.21,83.21,0,0,0,54.92-20.68,22.35,22.35,0,0,0,7.52-14.91,122.08,122.08,0,0,0-.95-27,4.2,4.2,0,0,0-6.49-2.92L413.07,192.7l-8.23-15.1a4.19,4.19,0,0,0-6.34-1.24l-11.3,9.21c-7.27-1.44-35.14-8.41-42-31.61h39.71l12.19,9.95a4.2,4.2,0,0,0,5.53-.19l13.07-12.28,22.77,16.93a4.2,4.2,0,0,0,5.34-.27c.34-.31,8.29-7.71,13.4-22.15a22.44,22.44,0,0,0-.24-15.68A83.69,83.69,0,0,0,377.19,77.36Zm72.08,65.79a55.48,55.48,0,0,1-8.87,16.21L417.88,142.6a4.22,4.22,0,0,0-5.39.31l-12.95,12.17L389,146.51a4.22,4.22,0,0,0-2.65-.95H329.56a4.2,4.2,0,1,0,0,8.4h6.93c7.9,33.89,49.48,40,51.3,40.23a4.24,4.24,0,0,0,3.23-.9l8.87-7.23,8,14.69a4.2,4.2,0,0,0,6,1.49l19.39-13a104.74,104.74,0,0,1,.13,18.36,14,14,0,0,1-4.69,9.34,74.92,74.92,0,0,1-124.3-57.45c.58-39.68,33.31-72.78,73-73.78.63,0,1.26,0,1.9,0a75.2,75.2,0,0,1,69.82,47.6A14,14,0,0,1,449.27,143.15Z"
     id="path10" />
</svg>
