<svg xmlns="http://www.w3.org/2000/svg" xmlns:xlink="http://www.w3.org/1999/xlink" version="1.1" x="0px" y="0px" viewBox="0 0 566.9 708.625" style="enable-background:new 0 0 566.9 566.9;" xml:space="preserve"><style type="text/css">
	.st0{fill:#020202;}
</style><path class="st0" d="M459.4,382c-1.2-34.3-16.4-66.4-41.7-88c-12.4-10.6-31.1-21.9-57.2-26.7c4.1-2.1,7-6.3,7-11.2  c0-5-3-9.4-7.3-11.4c4.9-2.2,8.4-7.3,8.4-13.2c0-4.4-1.9-8.3-4.9-11c5.4-1.4,9.4-6.3,9.4-12.1c0-6.9-5.6-12.6-12.6-12.6  c-0.1,0-0.2,0-0.4,0c1.2-1.9,1.9-4.1,1.9-6.6c0-6.2-4.5-11.3-10.3-12.3c2.8-2.3,4.7-5.8,4.7-9.8c0-6.2-4.5-11.3-10.4-12.4  c1.2-1.9,2-4.3,2-6.7c0-5.4-3.4-9.9-8.1-11.7c3.3-2.3,5.5-6.1,5.5-10.4c0-6.9-5.6-12.6-12.6-12.6c-2.1,0-4.1,0.5-5.8,1.4  c0.6-1.5,1-3.1,1-4.8c0-6.9-5.6-12.6-12.6-12.6c-1.6,0-3.2,0.3-4.6,0.9c0-0.3,0-0.5,0-0.8c0-6.9-5.6-12.6-12.6-12.6  c-1.5,0-2.9,0.3-4.3,0.8c0.1-0.7,0.2-1.5,0.2-2.2c0-6.9-5.6-12.6-12.6-12.6c-2.6,0-5,0.8-7,2.1c-0.5-6.5-5.9-11.7-12.5-11.7  c-4.3,0-8.1,2.2-10.4,5.5c-1.8-4.7-6.4-8.1-11.7-8.1c-3.9,0-7.3,1.8-9.6,4.5c-0.7-6.3-6-11.2-12.5-11.2c-5.1,0-9.4,3-11.4,7.4  c-2.2-3.6-6.2-6-10.7-6c-5.7,0-10.5,3.8-12,9.1c-2.3-3.1-5.9-5.1-10.1-5.1c-6.7,0-12.2,5.3-12.5,11.9c-2-1.3-4.4-2.1-7-2.1  c-6.9,0-12.6,5.6-12.6,12.6c0,1.9,0.5,3.8,1.2,5.4c-0.7-0.1-1.4-0.2-2.2-0.2c-6.9,0-12.6,5.6-12.6,12.6c0,4.6,2.4,8.5,6.1,10.7  c-4.4,2-7.5,6.4-7.5,11.5c0,2.6,0.8,5.1,2.2,7.1c-0.2,0-0.5,0-0.7,0c-6.9,0-12.6,5.6-12.6,12.6c0,3.3,1.3,6.2,3.3,8.5  c-6.6,0.4-11.8,5.8-11.8,12.5c0,5.8,3.9,10.6,9.2,12.1c-1.8,2.2-3,5-3,8.1c0,4.9,2.9,9.2,7,11.2c-4.1,2.1-7,6.3-7,11.2  c0,6.9,5.6,12.6,12.6,12.6c0.4,0,0.7,0,1.1-0.1c-1.6,2.1-2.6,4.8-2.6,7.6c0,6.9,5.6,12.6,12.6,12.6c0.1,0,0.2,0,0.3,0  c-1.2,1.9-1.8,4.1-1.8,6.5c0,6.9,5.6,12.6,12.6,12.6c3.1,0,5.9-1.1,8.1-3c0.2,6.8,5.7,12.2,12.5,12.2c1.6,0,3.1-0.3,4.5-0.8  c-0.6,1.5-1,3.1-1,4.8c0,6.9,5.6,12.6,12.6,12.6c2.5,0,4.7-0.7,6.7-1.9c0,0.4-0.1,0.9-0.1,1.3c0,6.9,5.6,12.6,12.6,12.6  c1.1,0,2.2-0.2,3.2-0.4c-0.6,1.5-1,3.2-1,4.9c0,6.9,5.6,12.6,12.6,12.6c0.8,0,1.6-0.1,2.3-0.2c-17.2,20-28.2,45.5-29.8,73.8  c-3.6,66.3,45.8,123.4,111.3,129.8c5.9,0.9,11.7,1.5,17.4,1.8c39.3,2.2,74.2-8.7,99.5-31.4C446.8,459,460.9,423,459.4,382z   M330.8,253.4c0-0.1-0.1-0.3-0.2-0.4l0.1,0l-6.2-19.3l0,0c-1-4.1-6.2-6.6-15.3-7.4c-3.8-0.3-8.2-0.3-12.9,0  c-4.9,0.3-10.2,1-15.6,1.9c-15.4,2.8-41,10.2-39.2,20.7c0,0.2,0.1,0.3,0.2,0.5l0,0l6.1,17.7c0,0.4,0,0.8,0,1.2l0,0  c1,5.5,8.9,7.6,18.3,7.9c-12.8,5.5-24.5,13.2-34.6,22.5c0.1-0.6,0.2-1.3,0.2-1.9c0-6.9-5.6-12.6-12.6-12.6c-1.1,0-2.2,0.2-3.2,0.4  c0.6-1.5,1-3.2,1-4.9c0-6.9-5.6-12.6-12.6-12.6c-2.5,0-4.7,0.7-6.7,1.9c0-0.4,0.1-0.9,0.1-1.3c0-6.9-5.6-12.6-12.6-12.6  c-1.6,0-3.1,0.3-4.5,0.8c0.6-1.5,1-3.1,1-4.8c0-6.9-5.6-12.6-12.6-12.6c-3.1,0-5.9,1.1-8.1,3c-0.2-6.8-5.7-12.2-12.5-12.2  c-0.1,0-0.2,0-0.3,0c1.2-1.9,1.8-4.1,1.8-6.5c0-6.9-5.6-12.6-12.6-12.6c-0.4,0-0.7,0-1.1,0.1c1.6-2.1,2.6-4.8,2.6-7.6  c0-4.9-2.9-9.2-7-11.2c4.1-2.1,7-6.3,7-11.2c0-5.8-3.9-10.6-9.2-12.1c1.8-2.2,3-5,3-8.1c0-3.3-1.3-6.2-3.3-8.5  c6.6-0.4,11.8-5.8,11.8-12.5c0-2.6-0.8-5.1-2.2-7.1c0.2,0,0.5,0,0.7,0c6.9,0,12.6-5.6,12.6-12.6c0-4.6-2.4-8.5-6.1-10.7  c4.4-2,7.5-6.4,7.5-11.5c0-1.9-0.5-3.8-1.2-5.4c0.7,0.1,1.4,0.2,2.2,0.2c6.7,0,12.2-5.3,12.5-11.9c2,1.3,4.4,2.1,7,2.1  c5.7,0,10.5-3.8,12-9.1c2.3,3.1,5.9,5.1,10.1,5.1c5.1,0,9.4-3,11.4-7.4c2.2,3.6,6.2,6,10.7,6c3.9,0,7.3-1.8,9.6-4.5  c0.7,6.3,6,11.2,12.5,11.2c4.3,0,8.1-2.2,10.4-5.5c1.8,4.7,6.4,8.1,11.7,8.1c2.6,0,5-0.8,7-2.1c0.5,6.5,5.9,11.7,12.5,11.7  c1.5,0,2.9-0.3,4.3-0.8c-0.1,0.7-0.2,1.5-0.2,2.2c0,6.9,5.6,12.6,12.6,12.6c1.6,0,3.2-0.3,4.6-0.9c0,0.3,0,0.5,0,0.8  c0,6.9,5.6,12.6,12.6,12.6c2.1,0,4.1-0.5,5.8-1.4c-0.6,1.5-1,3.1-1,4.8c0,5.4,3.4,9.9,8.1,11.7c-3.3,2.3-5.5,6.1-5.5,10.4  c0,6.2,4.5,11.3,10.4,12.4c-1.2,1.9-2,4.3-2,6.7c0,6.2,4.5,11.3,10.3,12.3c-2.8,2.3-4.7,5.8-4.7,9.8c0,6.9,5.6,12.6,12.6,12.6  c0.1,0,0.2,0,0.4,0c-1.2,1.9-1.9,4.1-1.9,6.6c0,3.6,1.5,6.8,3.9,9.1c-6.1,1.4-10.7,7.2-10.7,14c0,5.9,3.5,11,8.4,13.2  c-4.3,2-7.3,6.3-7.3,11.4c0,3.7,1.7,7.1,4.3,9.4c-8.2-0.7-16.9-0.7-26.3,0C327,262.1,331.6,258,330.8,253.4z M290.5,267.7  c-5.5,1-10.4,1.6-14.8,1.8c-11.4,0.7-18.8-0.5-21.1-2l-0.3-0.9l-2.3-6.7l-1.5-4.3c1.8,0.4,3.9,0.7,6.3,0.9c0.1,0,0.3,0,0.4,0  c6.5,0.5,14.4,0,22.8-1.1c1.8-0.3,3.5-0.5,5.3-0.8c2.7-0.5,5.4-1.1,8-1.7c7.4-1.7,14.1-3.9,19.4-6.4c0.7-0.3,1.4-0.7,2.1-1.1  c2.2-1.1,4.1-2.3,5.6-3.5l1.4,4.5l2.5,7.7l0,0.1C323.8,257.1,311.8,263.9,290.5,267.7z M364.5,256c0,5.3-4.3,9.6-9.6,9.6  s-9.6-4.3-9.6-9.6s4.3-9.6,9.6-9.6S364.5,250.7,364.5,256z M365.6,231.4c0,6.3-4.8,11.3-10.7,11.3s-10.7-5.1-10.7-11.3  S349.1,220,355,220c0.6,0,1.2,0.1,1.8,0.2c0.5,0.2,1,0.3,1.5,0.4C362.5,222.1,365.6,226.3,365.6,231.4z M370.2,208.3  c0,5.3-4.3,9.6-9.6,9.6c-0.6,0-1.1-0.1-1.6-0.1c-0.5-0.2-1-0.3-1.5-0.4c-3.7-1.3-6.5-4.8-6.5-9c0-3.3,1.7-6.2,4.2-7.9  c0.3-0.2,0.7-0.4,1-0.6c1.3-0.7,2.8-1,4.3-1C365.9,198.7,370.2,203,370.2,208.3z M359.1,189.2c0,3.3-1.7,6.2-4.2,7.9  c-0.3,0.2-0.7,0.4-1,0.6c-1.3,0.7-2.8,1-4.3,1c-5.3,0-9.6-4.3-9.6-9.6s4.3-9.6,9.6-9.6C354.8,179.6,359.1,183.9,359.1,189.2z   M353.5,167.1c0,5.3-4.3,9.6-9.6,9.6c-5.3,0-9.6-4.3-9.6-9.6c0-2.6,1-4.9,2.7-6.6c2.5-0.3,4.7-1.3,6.5-2.9c0.1,0,0.2,0,0.3,0  C349.2,157.5,353.5,161.8,353.5,167.1z M345,148c0,2.6-1,4.9-2.7,6.6c-2.5,0.3-4.7,1.3-6.5,2.9c-0.1,0-0.2,0-0.3,0  c-5.3,0-9.6-4.3-9.6-9.6s4.3-9.6,9.6-9.6S345,142.7,345,148z M342.4,125.9c0,5.3-4.3,9.6-9.6,9.6s-9.6-4.3-9.6-9.6  c0-5.3,4.3-9.6,9.6-9.6S342.4,120.6,342.4,125.9z M315.5,100.4c5.3,0,9.6,4.3,9.6,9.6s-4.3,9.6-9.6,9.6s-9.6-4.3-9.6-9.6  c0-1,0.1-1.9,0.4-2.8c1.6-1.3,2.9-3.1,3.7-5.1C311.6,101.1,313.5,100.4,315.5,100.4z M298.4,88c5.3,0,9.6,4.3,9.6,9.6  c0,1-0.1,1.9-0.4,2.8c-1.6,1.3-2.9,3.1-3.7,5.1c-1.5,1.1-3.4,1.7-5.4,1.7c-5.3,0-9.6-4.3-9.6-9.6c0-1.6,0.4-3.2,1.2-4.6  c1-0.8,1.8-1.8,2.5-2.9C294.1,88.7,296.1,88,298.4,88z M281.8,74c5.3,0,9.6,4.3,9.6,9.6c0,1.6-0.4,3.2-1.2,4.6  c-1,0.8-1.8,1.8-2.5,2.9c-1.6,1.3-3.7,2.1-5.9,2.1c-5.3,0-9.6-4.3-9.6-9.6c0-0.8,0.1-1.5,0.3-2.3c0.8-1.1,1.4-2.3,1.8-3.7  C276,75.4,278.7,74,281.8,74z M262.3,64.4c5.3,0,9.6,4.3,9.6,9.6c0,0.8-0.1,1.5-0.3,2.3c-0.8,1.1-1.4,2.3-1.8,3.7  c-1.8,2.2-4.4,3.6-7.5,3.6c-5.3,0-9.6-4.3-9.6-9.6S257,64.4,262.3,64.4z M240.2,61.8c5.3,0,9.6,4.3,9.6,9.6s-4.3,9.6-9.6,9.6  s-9.6-4.3-9.6-9.6S234.9,61.8,240.2,61.8z M218.1,55.1c5.3,0,9.6,4.3,9.6,9.6s-4.3,9.6-9.6,9.6s-9.6-4.3-9.6-9.6  S212.8,55.1,218.1,55.1z M196,56.5c5.3,0,9.6,4.3,9.6,9.6s-4.3,9.6-9.6,9.6s-9.6-4.3-9.6-9.6S190.7,56.5,196,56.5z M173.8,60.5  c5.3,0,9.6,4.3,9.6,9.6s-4.3,9.6-9.6,9.6c-3.1,0-5.9-1.5-7.6-3.8c-0.4-1.1-0.9-2.2-1.6-3.1c-0.2-0.8-0.4-1.7-0.4-2.6  C164.3,64.7,168.6,60.5,173.8,60.5z M154.3,70.2c3.1,0,5.9,1.5,7.6,3.8c0.4,1.1,0.9,2.2,1.6,3.1c0.2,0.8,0.4,1.7,0.4,2.6  c0,5.3-4.3,9.6-9.6,9.6s-9.6-4.3-9.6-9.6S149.1,70.2,154.3,70.2z M131.3,97.5c0-5.3,4.3-9.6,9.6-9.6s9.6,4.3,9.6,9.6  s-4.3,9.6-9.6,9.6S131.3,102.8,131.3,97.5z M139.5,110.2c5.3,0,9.6,4.3,9.6,9.6s-4.3,9.6-9.6,9.6s-9.6-4.3-9.6-9.6  S134.2,110.2,139.5,110.2z M128.4,129.7c5.3,0,9.6,4.3,9.6,9.6s-4.3,9.6-9.6,9.6c-5.3,0-9.6-4.3-9.6-9.6S123.2,129.7,128.4,129.7z   M110.4,160.3c0-5.3,4.3-9.6,9.6-9.6s9.6,4.3,9.6,9.6c0,3.1-1.5,5.9-3.8,7.6c-2.2,0.1-4.3,0.8-6.1,1.9  C114.5,169.6,110.4,165.4,110.4,160.3z M116.6,180.5c0-3.1,1.5-5.9,3.8-7.6c2.2-0.1,4.3-0.8,6.1-1.9c5.1,0.2,9.2,4.4,9.2,9.5  c0,5.3-4.3,9.6-9.6,9.6C120.9,190,116.6,185.7,116.6,180.5z M116.6,203c0-5.3,4.3-9.6,9.6-9.6c5.3,0,9.6,4.3,9.6,9.6  s-4.3,9.6-9.6,9.6C120.9,212.5,116.6,208.2,116.6,203z M127.7,223.1c0-5.3,4.3-9.6,9.6-9.6s9.6,4.3,9.6,9.6c0,3.2-1.6,6.1-4,7.8  c-0.5,0.3-1,0.6-1.5,0.9c-1.2,0.6-2.6,0.9-4,0.9C132,232.6,127.7,228.3,127.7,223.1z M148.3,251.7c-5.3,0-9.6-4.3-9.6-9.6  c0-3.2,1.6-6.1,4-7.8c0.5-0.3,1-0.6,1.5-0.9c1.2-0.6,2.6-0.9,4-0.9c5.3,0,9.6,4.3,9.6,9.6S153.6,251.7,148.3,251.7z M159.4,251.3  c0-5.3,4.3-9.6,9.6-9.6s9.6,4.3,9.6,9.6s-4.3,9.6-9.6,9.6S159.4,256.6,159.4,251.3z M175.5,267.9c0-5.3,4.3-9.6,9.6-9.6  s9.6,4.3,9.6,9.6s-4.3,9.6-9.6,9.6S175.5,273.1,175.5,267.9z M194.6,279.8c0-5.3,4.3-9.6,9.6-9.6s9.6,4.3,9.6,9.6s-4.3,9.6-9.6,9.6  S194.6,285,194.6,279.8z M209.4,296.8c0-5.3,4.3-9.6,9.6-9.6s9.6,4.3,9.6,9.6s-4.3,9.6-9.6,9.6S209.4,302,209.4,296.8z M204.4,383.6  c3.4-61,55.7-107.9,116.7-104.6c23.6,1.3,45.1,10,62.4,23.6L327,364.6l0,0l-17.4-38.8l-4.9,42.1l-12.6,1.9l1.7,11.4l-44,17l-4-3.1  l-0.9-5.9l-5.6,0.8l-4.6-3.6l-3.9,4.9l-5.5,0.8l0.8,5.2l-3.6,4.6l4.9,3.9l0.9,5.9l5.6-0.8l4.2,3.3l3.5-4.5l6.3-0.9l-0.9-5.9l3-3.9  l47.1,4.6l-45.2,76.9C221.3,459.4,202.2,423.4,204.4,383.6z M360.6,334.9l-19.7,33l-0.8-5.3l-5.5,0.8L360.6,334.9z M305,417.1  L275.4,450l22.8-38.8l1,6.8L305,417.1z M308.9,500.3c-20.6-1.1-39.6-7.9-55.6-18.6l58.6-65.1l17.5,34.8l3.5-38.5l14.5-2.2l-2.1-14  l34.4-15.9l-37.5-4.6l-0.1-0.9l42.8-71.6c26.6,21.6,42.8,55.3,40.8,92C422.3,456.8,369.9,503.7,308.9,500.3z M411.2,473.5  c-6.6,5.9-14,11-22,15.1c28.2-21.2,47.3-54.2,49.3-92.1c2.4-43.9-18.5-83.8-51.9-107.6c8.2,3.9,15.9,8.9,22.8,14.8  c22.5,19.3,36.1,48,37.2,78.7C447.9,419.6,435.3,452,411.2,473.5z M313.1,321.4l-3.5,4.5l-4.2-3.3l-5.6,0.8l-0.9-5.9l-4.9-3.9  l3.6-4.6l-0.8-5.2l5.5-0.8l3.9-4.9l4.6,3.6l5.6-0.8l0.9,5.9l4.5,3.5l-3.3,4.2l0.9,5.9L313.1,321.4z M384.6,384.7l-4.9-3.9l3.6-4.6  l-0.8-5.2l5.5-0.8l3.9-4.9l4.6,3.6l5.6-0.8l0.9,5.9l4.5,3.5l-3.3,4.2l0.9,5.9l-6.3,0.9l-3.5,4.5l-4.2-3.3l-5.6,0.8L384.6,384.7z   M325.5,456.4l3.9-4.9l4.6,3.6l5.6-0.8l0.9,5.9l4.5,3.5l-3.3,4.2l0.9,5.9l-6.3,0.9l-3.5,4.5l-4.2-3.3l-5.6,0.8l-0.9-5.9l-4.9-3.9  l3.6-4.6l-0.8-5.2L325.5,456.4z"/><text x="0" y="581.9" fill="#000000" font-size="5px" font-weight="bold" font-family="'Helvetica Neue', Helvetica, Arial-Unicode, Arial, Sans-serif">Created by Liv Iko</text><text x="0" y="586.9" fill="#000000" font-size="5px" font-weight="bold" font-family="'Helvetica Neue', Helvetica, Arial-Unicode, Arial, Sans-serif">from the Noun Project</text></svg>