<?xml version="1.0" encoding="UTF-8" standalone="no"?>
<svg
   xmlns:dc="http://purl.org/dc/elements/1.1/"
   xmlns:cc="http://creativecommons.org/ns#"
   xmlns:rdf="http://www.w3.org/1999/02/22-rdf-syntax-ns#"
   xmlns:svg="http://www.w3.org/2000/svg"
   xmlns="http://www.w3.org/2000/svg"
   xmlns:sodipodi="http://sodipodi.sourceforge.net/DTD/sodipodi-0.dtd"
   xmlns:inkscape="http://www.inkscape.org/namespaces/inkscape"
   version="1.1"
   x="0px"
   y="0px"
   viewBox="0 0 512 640"
   style="enable-background:new 0 0 512 512;"
   xml:space="preserve"
   id="svg14"
   sodipodi:docname="Dagger.svg"
   inkscape:version="0.92.2 (5c3e80d, 2017-08-06)"><metadata
     id="metadata20"><rdf:RDF><cc:Work
         rdf:about=""><dc:format>image/svg+xml</dc:format><dc:type
           rdf:resource="http://purl.org/dc/dcmitype/StillImage" /></cc:Work></rdf:RDF></metadata><defs
     id="defs18" /><sodipodi:namedview
     pagecolor="#ffffff"
     bordercolor="#666666"
     borderopacity="1"
     objecttolerance="10"
     gridtolerance="10"
     guidetolerance="10"
     inkscape:pageopacity="0"
     inkscape:pageshadow="2"
     inkscape:window-width="640"
     inkscape:window-height="480"
     id="namedview16"
     showgrid="false"
     inkscape:zoom="0.36875"
     inkscape:cx="52.179925"
     inkscape:cy="244.2341"
     inkscape:window-x="52"
     inkscape:window-y="649"
     inkscape:window-maximized="0"
     inkscape:current-layer="svg14" /><g
     id="g8"
     transform="matrix(-1,0,0,1,511.99916,0)"><path
       d="m 337.594,307.178 c 1.172,1.129 2.706,1.707 4.233,1.707 1.534,0 3.06,-0.579 4.211,-1.751 2.279,-2.33 2.171,-6.15 -0.159,-8.436 -2.337,-2.301 -6.143,-2.33 -8.436,-0.029 -2.301,2.315 -2.214,6.135 0.094,8.451 0.021,0.015 0.036,0.03 0.057,0.058 z"
       id="path2"
       inkscape:connector-curvature="0" /><path
       d="m 446.613,390.643 c -6.649,-4.587 -25.048,-17.712 -30.286,-23.181 -3.155,-3.299 -6.186,-7.163 -9.514,-11.374 -7.922,-10.071 -17.791,-22.588 -34.164,-34.237 -4.066,-2.88 -9.239,-7.148 -15.389,-12.69 -2.438,-2.171 -6.179,-1.982 -8.371,0.449 -2.192,2.431 -1.99,6.179 0.441,8.378 6.483,5.832 12.025,10.375 16.453,13.53 14.977,10.665 23.876,21.951 31.719,31.907 3.581,4.544 6.873,8.697 10.267,12.227 7.141,7.452 31.089,24.035 32.015,24.686 0.072,0.043 6.635,4.905 6.931,12.039 0.232,5.542 -3.292,11.489 -10.744,17.943 -13.797,13.53 -32.992,26.596 -39.403,24.788 -0.369,-0.116 -1.498,-0.449 -2.062,-2.301 0.022,-1.418 0.094,-34.975 -31.697,-48.316 -25.005,-10.476 -42.347,-30.445 -54.596,-62.801 -8.434,-22.28 -26.747,-31.657 -41.325,-34.74 l 35.285,-35.946 c 5.023,5.37 13.993,14.803 24.041,24.859 2.315,2.315 6.063,2.315 8.378,0 2.315,-2.315 2.315,-6.077 0,-8.393 -10.245,-10.25 -19.247,-19.741 -24.113,-24.929 l 3.797,-3.867 c 1.1,-1.129 1.708,-2.634 1.693,-4.211 -0.014,-1.563 -0.651,-3.068 -1.773,-4.167 l -16.055,-15.758 c -2.351,-2.33 -6.092,-2.286 -8.385,0.072 l -4.518,4.602 c -14.266,-15.936 -61.442,-68.793 -73.324,-83.697 -15.244,-19.13 -28.803,-21.532 -29.389,-21.532 h -0.007 C 117.95,113.653 65.749,47.871 65.235,47.206 c -1.382,-1.751 -3.632,-2.605 -5.839,-2.142 -2.199,0.434 -3.958,2.084 -4.544,4.24 -0.673,2.46 -15.498,61.122 67.706,140.159 30.655,29.114 52.368,48.114 68.22,61.991 23.613,20.645 33.558,29.456 40.217,43.015 l -8.13,8.282 c -1.1,1.129 -1.707,2.634 -1.693,4.211 0.014,1.563 0.651,3.068 1.773,4.167 L 239,326.887 c 1.158,1.143 2.655,1.707 4.153,1.707 1.534,0 3.068,-0.593 4.233,-1.78 l 9.007,-9.176 c 7.14,0.274 31.224,3.124 40.735,28.248 13.472,35.611 32.884,57.707 61.093,69.544 24.31,10.187 24.44,36.147 24.571,38.578 1.816,8.277 6.649,11.345 10.39,12.459 1.389,0.405 2.858,0.593 4.399,0.593 16.916,0 41.53,-23.225 46.413,-28.029 10.115,-8.726 15.013,-17.914 14.557,-27.305 -0.622,-12.936 -11.424,-20.721 -11.938,-21.083 z M 198.586,242.525 C 182.806,228.72 161.202,209.822 130.72,180.867 75.776,128.673 66.277,86.217 65.452,65.727 c 18.442,20.49 61.658,63.221 114.38,79.775 0.101,0.014 10.505,1.968 22.805,17.393 12.369,15.509 60.397,69.289 74.274,84.799 l -37.182,37.878 c -7.627,-13.643 -18.816,-23.509 -41.143,-43.047 z m 51.116,65.001 c -0.003,0.003 -0.003,0.008 -0.005,0.011 l -6.622,6.747 -7.59,-7.452 58.583,-59.69 7.59,7.452 -37.181,37.884 z"
       id="path4"
       inkscape:connector-curvature="0" /><path
       d="m 411.385,438.672 c 6.919,-0.908 11.792,-7.252 10.885,-14.172 -0.908,-6.919 -7.253,-11.792 -14.172,-10.885 -6.919,0.908 -11.792,7.253 -10.885,14.172 0.909,6.92 7.253,11.793 14.172,10.885 z"
       id="path6"
       inkscape:connector-curvature="0" /></g></svg>