<?xml version="1.0" encoding="UTF-8" standalone="no"?>
<svg
   xmlns:dc="http://purl.org/dc/elements/1.1/"
   xmlns:cc="http://creativecommons.org/ns#"
   xmlns:rdf="http://www.w3.org/1999/02/22-rdf-syntax-ns#"
   xmlns:svg="http://www.w3.org/2000/svg"
   xmlns="http://www.w3.org/2000/svg"
   xmlns:sodipodi="http://sodipodi.sourceforge.net/DTD/sodipodi-0.dtd"
   xmlns:inkscape="http://www.inkscape.org/namespaces/inkscape"
   viewBox="0 0 64 80"
   x="0px"
   y="0px"
   version="1.1"
   id="svg28"
   sodipodi:docname="DenseJungle.svg"
   inkscape:version="0.92.2 (5c3e80d, 2017-08-06)">
  <metadata
     id="metadata34">
    <rdf:RDF>
      <cc:Work
         rdf:about="">
        <dc:format>image/svg+xml</dc:format>
        <dc:type
           rdf:resource="http://purl.org/dc/dcmitype/StillImage" />
        <dc:title />
      </cc:Work>
    </rdf:RDF>
  </metadata>
  <defs
     id="defs32" />
  <sodipodi:namedview
     pagecolor="#ffffff"
     bordercolor="#666666"
     borderopacity="1"
     objecttolerance="10"
     gridtolerance="10"
     guidetolerance="10"
     inkscape:pageopacity="0"
     inkscape:pageshadow="2"
     inkscape:window-width="1920"
     inkscape:window-height="1017"
     id="namedview30"
     showgrid="false"
     inkscape:zoom="8.34386"
     inkscape:cx="26.067797"
     inkscape:cy="40"
     inkscape:window-x="-8"
     inkscape:window-y="-8"
     inkscape:window-maximized="1"
     inkscape:current-layer="svg28" />
  <g
     id="g869">
    <path
       inkscape:connector-curvature="0"
       id="path837"
       d="m 46.214348,59.77931 c -1.023689,-0.428636 -1.468983,-1.980709 -0.818308,-2.852217 0.522779,-0.700206 0.805669,-0.809846 2.010295,-0.779132 1.360937,0.0347 1.502048,-0.07062 1.640996,-1.224787 0.05097,-0.423351 0.199747,-0.979625 0.330624,-1.236164 0.434368,-0.851431 1.488386,-1.582301 2.281904,-1.582301 h 0.359643 l -0.07394,0.958789 -0.07394,0.958789 h 1.096402 1.096401 l 0.002,-0.749054 c 0.0027,-1.010054 0.33522,-1.60759 1.108041,-1.990898 1.810884,-0.898171 3.518734,1.173173 2.367778,2.871728 -0.449594,0.663501 -0.472364,1.206666 -0.06755,1.611477 0.161795,0.161795 0.433602,0.294173 0.604016,0.294173 0.461983,0 1.201816,0.421977 1.518651,0.866189 0.214188,0.300298 0.279752,0.551671 0.279752,1.072563 0,0.763228 -0.223202,1.167722 -0.897646,1.626744 l -0.396212,0.26966 -6.064593,-0.0076 c -3.335526,-0.0042 -6.172457,-0.05276 -6.30429,-0.107962 z m 7.850084,-2.760808 v -1.078637 h -1.078638 -1.078637 v 1.078637 1.078638 h 1.078637 1.078638 z"
       style="fill:#37c837;fill-opacity:1;stroke:none;stroke-width:0.11984861;stroke-opacity:1" />
    <path
       inkscape:connector-curvature="0"
       id="path835"
       d="M 5.0725002,59.695551 C 4.5237889,59.425102 4.1792123,58.888947 4.1133077,58.203064 c -0.068833,-0.716354 0.117416,-1.19482 0.6456282,-1.658596 0.4894242,-0.429721 1.1270655,-0.566334 1.8014632,-0.38596 0.8554208,0.22879 1.5989711,-0.245055 1.6031868,-1.02167 0.00224,-0.413425 0.568977,-1.417793 1.086223,-1.925013 0.8793931,-0.862346 1.3914071,-1.044804 2.9808031,-1.062223 1.330593,-0.01458 1.379866,-0.02464 1.647919,-0.336267 0.151973,-0.176679 0.276314,-0.401274 0.276314,-0.499099 0,-0.347926 0.478398,-1.107573 0.953748,-1.514455 1.152646,-0.986622 2.87575,-0.918204 3.950827,0.156873 0.459946,0.459946 0.841634,1.219203 0.845527,1.681929 0.0024,0.284511 -0.04912,0.319019 -0.567951,0.380467 -2.174853,0.257579 -4.122355,2.19668 -4.312526,4.293923 l -0.06398,0.705529 h 1.024823 1.024825 l 0.07713,-0.456534 c 0.1377,-0.815038 0.71749,-1.658547 1.413071,-2.05581 0.81981,-0.468213 1.452735,-0.557334 2.270266,-0.319671 0.850579,0.24727 1.45743,0.798428 1.928865,1.751847 0.584567,1.182213 1.195021,1.339154 2.134391,0.548727 0.731864,-0.615824 1.812516,-0.548114 2.518425,0.157796 0.711255,0.711255 0.773539,1.786655 0.146628,2.531697 -0.639323,0.759793 0.02364,0.718577 -11.510432,0.715586 C 6.5407017,59.88969 5.4256441,59.869608 5.0725002,59.695551 Z M 21.080768,56.98854 21.115397,55.939865 H 20.032093 18.94879 v 1.083303 1.083304 l 1.048675,-0.03463 1.048675,-0.03463 z M 11.997571,54.981076 V 53.902438 H 10.978857 9.9601442 v 1.078638 1.078637 h 1.0187128 1.018714 z"
       style="fill:#37c837;fill-opacity:1;stroke:none;stroke-width:0.11984861;stroke-opacity:1" />
    <path
       style="fill:#550000"
       d="m 7,31 h 10 v 5 a 1,1 0 0 0 0.293,0.707 L 22.586,42 H 20.162 L 15,40.279 V 40 A 4,4 0 0 0 11,36 H 8 a 1,1 0 0 0 -1,1 v 1 a 4,4 0 0 0 4,4 h 2.837 l 5.847,1.949 A 1,1 0 0 0 20,44 h 4.586 L 32,51.414 V 61 a 1,1 0 0 0 1,1 h 7 a 1,1 0 0 0 1,-1 V 48 h 6 a 4,4 0 0 0 4,-4 v -1 a 1,1 0 0 0 -1,-1 h -3 a 4,4 0 0 0 -4,4 H 41 V 42.147 L 42.364,37.6 47.164,36 H 50 a 4,4 0 0 0 4,-4 v -1 a 1,1 0 0 0 -1,-1 h -3 a 4,4 0 0 0 -4,4 v 0.279 l -2.933,0.978 0.832,-2.774 4.869,-5.843 A 1,1 0 0 0 49,26 v -6 h 8 A 5,5 0 1 0 56.65,10.015 5.97,5.97 0 0 0 51,6 H 50.921 A 8,8 0 0 0 36,10 c 0,0.033 0,0.067 0,0.1 a 5,5 0 0 0 1,9.9 h 6 v 3.532 l -5.64,4.7 a 1,1 0 0 0 -0.3,0.432 L 32.535,41.328 23,33.526 V 31 h 3 A 5,5 0 0 0 26.941,21.089 7,7 0 0 0 14.173,18.127 5.934,5.934 0 0 0 7.783,21.067 4.608,4.608 0 0 0 7,21 5,5 0 0 0 7,31 Z m 4,9 A 2,2 0 0 1 9,38 h 2 a 2,2 0 0 1 2,2 z m 36,4 h 2 a 2,2 0 0 1 -2,2 h -2 a 2,2 0 0 1 2,-2 z m 3,-12 h 2 a 2,2 0 0 1 -2,2 h -2 a 2,2 0 0 1 2,-2 z M 34,15 a 3,3 0 0 1 2.953,-3 c 0.039,0 0.082,0.008 0.109,0.008 a 0.931,0.931 0 0 0 0.769,-0.338 1,1 0 0 0 0.239,-0.8 5.992,5.992 0 0 1 11.371,-3.38 c 0,0.01 0.014,0.018 0.02,0.028 A 6,6 0 0 1 48.286,14.2 l 1.429,1.4 a 7.953,7.953 0 0 0 2.044,-7.522 3.981,3.981 0 0 1 3.171,3.258 1,1 0 0 0 1.258,0.8 A 2.943,2.943 0 0 1 57,12 3,3 0 0 1 57,18 H 37 A 3,3 0 0 1 34,15 Z M 21.367,34.774 32.329,43.743 35,46.414 V 49 h 2 v -3 a 1,1 0 0 0 -0.293,-0.707 l -2.552,-2.552 4.7,-13.148 5.79,-4.825 A 1,1 0 0 0 45,24 v -4 h 2 v 5.638 l -4.634,5.562 -3.813,1.9 0.894,1.79 1.93,-0.965 -0.63,2.1 -0.063,0.021 0.03,0.09 -1.672,5.572 A 1,1 0 0 0 39,42 V 60 H 34 V 51 A 1,1 0 0 0 33.707,50.293 L 19,35.586 V 31 h 2 v 3 a 1,1 0 0 0 0.367,0.774 z M 7,23 A 2.965,2.965 0 0 1 8,23.188 1,1 0 0 0 9.27,22.6 4.013,4.013 0 0 1 13,20 c 0.1,0 0.2,0.019 0.292,0.028 A 7.014,7.014 0 0 0 13,22 h 2 a 5,5 0 0 1 10,0 1,1 0 0 0 1,1 3,3 0 0 1 0,6 H 7 a 3,3 0 0 1 0,-6 z"
       id="path2"
       inkscape:connector-curvature="0" />
    <rect
       style="fill:#ff2a2a"
       x="41"
       y="8"
       width="2"
       height="2"
       id="rect4" />
    <rect
       style="fill:#d40000"
       x="44"
       y="12"
       width="2"
       height="2"
       id="rect6" />
    <rect
       style="fill:#d40000"
       x="13"
       y="25"
       width="2"
       height="2"
       id="rect8" />
    <rect
       style="fill:#aa0000"
       x="19"
       y="21"
       width="2"
       height="2"
       id="rect10" />
    <path
       style="fill:#217821"
       d="M 6,62 H 26 A 4,4 0 0 0 26,54 3.96,3.96 0 0 0 24.256,54.4 4.96,4.96 0 0 0 21.98,52.41 4.047,4.047 0 0 0 22,52 5,5 0 0 0 12.417,50.016 5.913,5.913 0 0 0 6.352,54.016 4,4 0 1 0 6,62 Z m 0,-6 a 1.984,1.984 0 0 1 0.719,0.141 1,1 0 0 0 1.348,-0.774 3.948,3.948 0 0 1 4.814,-3.261 1.008,1.008 0 0 0 0.756,-0.131 1,1 0 0 0 0.44,-0.627 A 3,3 0 0 1 20,52 5.006,5.006 0 0 0 15,57 h 2 a 3,3 0 0 1 3,-3 3.033,3.033 0 0 1 2.874,2.2 1,1 0 0 0 1.686,0.422 A 1.978,1.978 0 0 1 26,56 2,2 0 0 1 26,60 H 6 a 2,2 0 0 1 0,-4 z"
       id="path12"
       inkscape:connector-curvature="0" />
    <path
       style="fill:#217821;fill-opacity:1"
       d="M 56,49 A 3.993,3.993 0 0 0 53.2,50.147 4.927,4.927 0 0 0 52,50 5.009,5.009 0 0 0 47.1,54 4.0003125,4.0003125 0 1 0 47,62 H 58 A 3.991,3.991 0 0 0 59.738,54.412 3.938,3.938 0 0 0 60,53 4,4 0 0 0 56,49 Z m 4,9 a 2,2 0 0 1 -2,2 H 47 a 2,2 0 0 1 0,-4 1.972,1.972 0 0 1 0.678,0.129 1,1 0 0 0 1.34,-0.985 C 49.018,55.112 49.004,55.031 49,55 a 3,3 0 0 1 3,-3 c 0.045,0 0.088,0.011 0.133,0.013 A 3.98,3.98 0 0 0 52,53 v 1 h 2 v -1 a 2,2 0 0 1 0.346,-1.123 l 0.006,-0.006 a 1.995,1.995 0 1 1 3.115,2.474 1,1 0 0 0 0.669,1.673 A 2,2 0 0 1 60,58 Z"
       id="path14"
       inkscape:connector-curvature="0" />
    <rect
       style="fill:#d40000"
       x="10"
       y="54"
       width="2"
       height="2"
       id="rect16" />
    <rect
       style="fill:#d40000"
       x="19"
       y="56"
       width="2"
       height="2"
       id="rect18" />
    <rect
       style="fill:#ff0000"
       x="52"
       y="56"
       width="2"
       height="2"
       id="rect20" />
    <path
       inkscape:connector-curvature="0"
       id="path839"
       d="M 6.1213189,28.789847 C 4.3455254,28.242429 3.532773,26.054328 4.5150733,24.465494 5.1930196,23.368942 6.5221926,22.871126 7.8675469,23.20989 c 0.7611025,0.191648 1.0864997,0.0089 1.5801708,-0.88756 0.5094353,-0.925061 1.3056343,-1.65863 2.1384303,-1.970219 0.807024,-0.301947 1.670549,-0.338175 1.56599,-0.0657 -0.03826,0.0997 -0.105409,0.531159 -0.149221,0.958789 l -0.07966,0.77751 h 1.078543 1.078542 l 0.06582,-0.725864 c 0.132408,-1.460218 1.308082,-3.055067 2.783915,-3.776493 0.662602,-0.323898 0.822656,-0.351512 2.037426,-0.351512 1.235343,0 1.369451,0.02421 2.13034,0.384629 1.492011,0.70673 2.497701,2.065995 2.744778,3.709768 0.197274,1.312448 0.208482,1.346659 0.504742,1.540776 0.155368,0.101801 0.596799,0.236249 0.980959,0.298773 1.511606,0.24602 2.46419,1.27986 2.548135,2.765495 0.0557,0.985776 -0.218728,1.661631 -0.938883,2.312248 -0.900338,0.813402 -0.621147,0.794339 -11.497395,0.785051 -8.0111344,-0.0068 -9.8738916,-0.03856 -10.3188601,-0.175733 z m 8.8724671,-2.812134 v -1.078637 h -1.018713 -1.018714 v 1.078637 1.078637 h 1.018714 1.018713 z m 6.086982,-3.984966 0.03463,-1.048676 H 20.032093 18.94879 v 1.083304 1.083304 l 1.048675,-0.03463 1.048675,-0.03463 z"
       style="fill:#37c837;fill-opacity:1;stroke:none;stroke-width:0.11984861;stroke-opacity:1" />
    <path
       inkscape:connector-curvature="0"
       id="path841"
       d="m 36.056935,17.778171 c -0.664251,-0.238982 -1.24028,-0.724919 -1.615041,-1.362446 -0.435106,-0.740184 -0.466905,-1.976708 -0.07001,-2.722494 0.503564,-0.946229 1.545097,-1.610308 2.533457,-1.615324 0.410806,-0.0021 0.591054,-0.07511 0.867337,-0.351394 0.338806,-0.338806 0.348608,-0.382429 0.343346,-1.52807 -0.01175,-2.5589862 1.179081,-4.5037177 3.406151,-5.5625266 3.225141,-1.5333185 7.145957,0.2511063 8.18265,3.7240513 0.538146,1.8028013 0.0068,4.1938863 -1.226286,5.5180063 l -0.283643,0.304591 0.759597,0.752845 0.759597,0.752846 0.499621,-0.5676 c 0.671906,-0.763327 1.390228,-2.234104 1.640471,-3.358894 0.153555,-0.690199 0.189563,-1.248009 0.143417,-2.2216193 -0.07161,-1.5108018 -0.06084,-1.5213631 0.956649,-0.9378352 0.854768,0.4902094 1.52332,1.3669806 1.831561,2.4019945 0.32846,1.102908 0.539903,1.24495 1.682423,1.130211 1.073152,-0.107772 1.736602,0.06832 2.401438,0.637398 1.60628,1.374916 1.326334,3.84453 -0.55061,4.857337 l -0.479394,0.258684 -10.666526,0.02601 c -8.702468,0.02122 -10.749326,-0.0038 -11.116202,-0.135772 z m 9.952343,-4.77407 0.03463,-1.048675 h -1.02338 -1.023379 v 1.083484 1.083485 l 0.988751,-0.03481 0.988751,-0.03481 z M 43.03836,9.0191351 V 8.0004219 h -1.018713 -1.018714 v 1.0187132 1.0187129 h 1.018714 1.018713 z"
       style="fill:#37c837;fill-opacity:1;stroke:none;stroke-width:0.11984861;stroke-opacity:1" />
    <path
       inkscape:connector-curvature="0"
       id="path843"
       d="m 48.072001,33.665747 c 0,-0.32481 0.484591,-0.990007 0.949403,-1.303244 0.355925,-0.239858 0.553042,-0.272511 1.645066,-0.272511 1.057032,0 1.240687,0.02837 1.240687,0.191622 0,0.384111 -0.404159,1.028538 -0.823966,1.313804 -0.390142,0.265109 -0.550226,0.292303 -1.720676,0.292303 -1.176267,0 -1.290514,-0.01965 -1.290514,-0.221974 z"
       style="fill:#37c837;fill-opacity:1;stroke:none;stroke-width:0.11984861;stroke-opacity:1" />
    <path
       inkscape:connector-curvature="0"
       id="path845"
       d="m 45.075786,45.724126 c 0,-0.359404 0.418855,-0.998544 0.877262,-1.338632 0.284219,-0.21086 0.546192,-0.257166 1.647918,-0.291283 1.165194,-0.03608 1.309976,-0.01821 1.309976,0.16166 0,0.411704 -0.410987,1.048109 -0.875292,1.355371 -0.423168,0.280039 -0.621269,0.321806 -1.719074,0.362444 l -1.24079,0.04593 z"
       style="fill:#37c837;fill-opacity:1;stroke:none;stroke-width:0.11984861;stroke-opacity:1" />
    <path
       inkscape:connector-curvature="0"
       id="path847"
       d="M 10.592351,39.883634 C 9.8127529,39.698409 9.1226643,38.974792 9.121652,38.341478 c -4.459e-4,-0.279188 0.00458,-0.280108 1.309527,-0.239697 1.105251,0.03423 1.36279,0.07998 1.647919,0.292791 0.378613,0.282579 0.700194,0.781712 0.822002,1.275844 L 12.982344,40 11.980601,39.987732 c -0.550959,-0.0067 -1.175671,-0.05359 -1.38825,-0.104098 z"
       style="fill:#37c837;fill-opacity:1;stroke:none;stroke-width:0.11984861;stroke-opacity:1" />
    <path
       inkscape:connector-curvature="0"
       id="path849"
       d="m 34.049714,55.252964 v -4.641905 l -7.490538,-7.494044 -7.490538,-7.494043 v -2.305809 -2.305809 h 0.958789 0.958789 v 1.713482 1.713482 l 0.449432,0.426302 c 0.247188,0.234466 2.795469,2.344401 5.662847,4.688744 3.059812,2.501674 5.744158,4.798649 6.498232,5.560489 l 1.284819,1.298047 0.03352,1.318335 0.03352,1.318335 h 1.018713 1.018713 l 0.03335,-1.723272 0.03335,-1.723271 -1.381643,-1.398874 c -0.759904,-0.76938 -1.382807,-1.450069 -1.384229,-1.51264 -0.0014,-0.06257 1.03586,-3.028073 2.305071,-6.59 l 2.307657,-6.476232 2.737666,-2.272716 c 1.505717,-1.249994 2.89537,-2.449872 3.088117,-2.666395 L 45.0758,24.291492 v -2.09318 -2.093181 h 0.958789 0.958789 l -0.0021,2.726556 -0.0021,2.726556 -2.305007,2.769699 -2.305007,2.7697 -1.948796,0.975731 -1.948797,0.97573 0.482324,0.959292 0.482322,0.959293 0.849551,-0.427828 c 0.467253,-0.235304 0.868944,-0.408434 0.892645,-0.384732 0.0237,0.0237 -0.466585,1.7395 -1.089526,3.812886 l -1.132629,3.769791 -0.0014,9.078532 -0.0014,9.078532 h -2.456896 -2.456897 z"
       style="fill:#782121;fill-opacity:1;stroke:none;stroke-width:0.11984861;stroke-opacity:1" />
  </g>
</svg>
