<?xml version="1.0" encoding="UTF-8" standalone="no"?>
<svg
   xmlns:dc="http://purl.org/dc/elements/1.1/"
   xmlns:cc="http://creativecommons.org/ns#"
   xmlns:rdf="http://www.w3.org/1999/02/22-rdf-syntax-ns#"
   xmlns:svg="http://www.w3.org/2000/svg"
   xmlns="http://www.w3.org/2000/svg"
   xmlns:sodipodi="http://sodipodi.sourceforge.net/DTD/sodipodi-0.dtd"
   xmlns:inkscape="http://www.inkscape.org/namespaces/inkscape"
   version="1.1"
   x="0px"
   y="0px"
   viewBox="0 0 100 125"
   style="enable-background:new 0 0 100 100;"
   xml:space="preserve"
   id="svg12"
   sodipodi:docname="Elixir.svg"
   inkscape:version="0.92.2 (5c3e80d, 2017-08-06)"><metadata
     id="metadata18"><rdf:RDF><cc:Work
         rdf:about=""><dc:format>image/svg+xml</dc:format><dc:type
           rdf:resource="http://purl.org/dc/dcmitype/StillImage" /></cc:Work></rdf:RDF></metadata><defs
     id="defs16" /><sodipodi:namedview
     pagecolor="#ffffff"
     bordercolor="#666666"
     borderopacity="1"
     objecttolerance="10"
     gridtolerance="10"
     guidetolerance="10"
     inkscape:pageopacity="0"
     inkscape:pageshadow="2"
     inkscape:window-width="1920"
     inkscape:window-height="1017"
     id="namedview14"
     showgrid="false"
     inkscape:zoom="7.552"
     inkscape:cx="50"
     inkscape:cy="62.5"
     inkscape:window-x="-8"
     inkscape:window-y="-8"
     inkscape:window-maximized="1"
     inkscape:current-layer="svg12" /><path
     inkscape:connector-curvature="0"
     id="path2"
     d="m 58.350792,69.820602 h -3.9277 c -0.5523,0 -1,0.447701 -1,1 0,0.552201 0.4477,1 1,1 h 3.9277 c 0.552299,0 1,-0.447799 1,-1 0,-0.552299 -0.447701,-1 -1,-1 z" /><path
     inkscape:connector-curvature="0"
     id="path4"
     d="M 63.599392,41.314701 C 60.252693,39.353802 58.174091,35.7136 58.174091,31.815201 V 28.6301 c 1.603001,-0.395 2.795403,-1.845199 2.795403,-3.5683 v -2.274 c 0,-1.9447 -1.5229,-3.5257 -3.436493,-3.6511 v -6.6199 c 0,-1.3911 -1.132408,-2.5228997 -2.524509,-2.5228997 H 44.991493 c -1.392101,0 -2.524494,1.1317997 -2.524494,2.5228997 v 6.632099 C 40.611,19.3323 39.151093,20.884399 39.151093,22.7878 v 2.274 c 0,1.679701 1.132801,3.1001 2.6748,3.5366 v 3.216801 c 0,3.898899 -2.078601,7.538601 -5.4253,9.4995 -8.212399,4.813 -13.3144,13.703598 -13.3144,23.202602 0,11.485894 7.305601,21.707596 18.1787,25.434594 0.104499,0.0361 0.213901,0.05421 0.324199,0.05421 h 16.821801 c 0.110302,0 0.219699,-0.0181 0.324199,-0.05421 5.731102,-1.964501 10.4552,-5.744194 13.656601,-10.551499 0.0551,-0.07049 0.112396,-0.139396 0.147103,-0.223297 2.780899,-4.267097 4.375,-9.321503 4.375,-14.659798 0,-9.499004 -5.102006,-18.389602 -13.314404,-23.202602 z M 44.466999,12.5168 c 0,-0.2885 0.235394,-0.5229 0.524494,-0.5229 h 10.016999 c 0.2891,0 0.524509,0.2344 0.524509,0.5229 v 6.595699 H 44.466999 Z m -7.055107,30.523498 c 3.956501,-2.318397 6.414001,-6.619598 6.414001,-11.225097 v -4.0786 c 0,-0.552302 -0.4477,-1 -1,-1 -0.923301,0 -1.674801,-0.751501 -1.674801,-1.674801 v -2.274 c 0,-0.9238 0.7515,-1.675301 1.674801,-1.675301 h 14.4688 c 0.923305,0 1.674801,0.751501 1.674801,1.675301 v 2.274 c 0,0.9233 -0.751496,1.674801 -1.674801,1.674801 h -0.120602 c -0.552299,0 -1,0.447699 -1,1 v 4.0786 c 0,4.605499 2.457501,8.9067 6.413502,11.225098 4.314598,2.5284 7.698296,6.273799 9.821197,10.645999 H 27.591194 c 2.122807,-4.3722 5.506397,-8.117599 9.820698,-10.646 z m 25.848106,28.780304 h 10.546894 c -0.651199,2.117401 -1.581596,4.1223 -2.752296,5.974595 H 60.755592 c -0.5522,0 -1,0.4477 -1,1 0,0.5522 0.4478,1 1,1 h 8.889801 c -2.873901,3.689506 -6.778602,6.591606 -11.403,8.210907 H 41.757591 c -9.978498,-3.494103 -16.671398,-12.912606 -16.671398,-23.4888 0,-3.058403 0.5833,-6.043904 1.648808,-8.831006 h 46.529998 c 0.752594,1.968502 1.258095,4.036004 1.490593,6.159604 H 59.627193 c -0.552192,0 -1,0.447799 -1,1 0,0.552299 0.447808,1 1,1 h 15.264203 c 0.0061,0.223999 0.0224,0.446601 0.0224,0.671402 0,1.811096 -0.210105,3.583999 -0.585502,5.303299 H 63.259998 c -0.552204,0 -1,0.4477 -1,1 0,0.5522 0.447796,0.999999 1,0.999999 z"
     style="fill:#330080" /><path
     style="fill:#2a7fff;fill-opacity:1;stroke:none;stroke-width:0.13241525;stroke-opacity:1"
     d="M 40.545551,87.474052 C 37.17977,86.009721 34.681857,84.321625 32.267745,81.879887 25.744848,75.282349 23.475649,65.340314 26.484394,56.541314 l 0.249031,-0.728284 23.253012,-0.03347 23.253011,-0.03347 0.414306,1.291417 c 0.389631,1.214508 0.792711,2.963224 0.976781,4.237657 l 0.08128,0.562765 H 66.90736 59.102906 l -0.274441,0.348895 c -0.360939,0.45886 -0.346812,0.876339 0.04507,1.332015 l 0.319518,0.371526 7.82402,0.03618 7.824022,0.03618 -0.0011,0.956935 c -0.0012,1.06454 -0.191273,2.938866 -0.415938,4.101797 l -0.147093,0.761388 h -5.719753 -5.719754 l -0.287913,0.306468 c -0.419922,0.446988 -0.390758,1.182395 0.06098,1.537735 0.339879,0.26735 0.487006,0.274441 5.693856,0.274441 3.604482,0 5.34496,0.04474 5.34496,0.137407 0,0.486408 -1.797789,4.460301 -2.408904,5.324722 l -0.257435,0.364142 h -5.269736 c -5.130747,0 -5.278938,0.0072 -5.618631,0.274441 -0.49288,0.387699 -0.49288,1.182063 0,1.569762 0.337367,0.265374 0.497052,0.274441 4.833157,0.274441 2.466344,0 4.484261,0.04982 4.484261,0.110698 0,0.201142 -2.505489,2.770942 -3.546332,3.637361 -1.908533,1.588702 -4.421742,3.087568 -6.672228,3.979285 l -0.883309,0.349987 -8.385785,-0.0088 -8.385784,-0.0088 z m 18.45407,-15.84701 c 0.451742,-0.35534 0.480906,-1.090747 0.06098,-1.537735 -0.279908,-0.297948 -0.353032,-0.306468 -2.630449,-0.306468 -2.169376,0 -2.368325,0.02029 -2.69143,0.274441 -0.559555,0.440146 -0.428388,1.448605 0.222525,1.710864 0.159104,0.0641 1.279322,0.120329 2.489377,0.124945 2.032347,0.0078 2.2267,-0.01253 2.548993,-0.266047 z"
     id="path816"
     inkscape:connector-curvature="0" /><path
     style="fill:#800000;fill-opacity:1;stroke:none;stroke-width:0.13241525;stroke-opacity:1"
     d="m 44.518008,15.717691 c 0,-2.429085 0.04368,-3.393791 0.158899,-3.509005 0.228189,-0.228189 10.44448,-0.228189 10.672669,0 0.115214,0.115214 0.158899,1.07992 0.158899,3.509005 v 3.350106 h -5.495233 -5.495234 z"
     id="path818"
     inkscape:connector-curvature="0" /><path
     style="fill:#f9f9f9;fill-opacity:1;stroke:none;stroke-width:0.13241525;stroke-opacity:1"
     d="m 28.083013,52.86679 c 1.011484,-1.997468 3.14339,-4.786865 4.924353,-6.443052 1.143204,-1.063109 3.041729,-2.484445 4.703378,-3.521196 2.318163,-1.446369 4.270001,-3.790214 5.236809,-6.28857 0.734617,-1.898347 0.90469,-3.092378 0.906639,-6.365222 0.0016,-2.737633 -0.01487,-2.939105 -0.262567,-3.204971 -0.14537,-0.156036 -0.487994,-0.324203 -0.761388,-0.373704 -1.398215,-0.253165 -1.662648,-0.746744 -1.600113,-2.986694 l 0.04371,-1.565667 0.432831,-0.432533 0.432832,-0.432533 7.776914,-0.03436 c 7.615977,-0.03365 7.785985,-0.0288 8.215233,0.234626 0.676567,0.415201 0.84942,0.991587 0.797644,2.659795 -0.03714,1.196592 -0.08873,1.484807 -0.321921,1.798344 -0.331558,0.445798 -0.736842,0.666731 -1.417985,0.772988 -0.277168,0.04324 -0.624854,0.199527 -0.772636,0.347308 -0.259299,0.259299 -0.266746,0.389832 -0.212996,3.733345 0.06396,3.978588 0.153068,4.448543 1.28462,6.775034 1.228963,2.526769 2.476565,3.833412 5.684766,5.953785 1.137322,0.751682 2.630144,1.864714 3.317382,2.473405 1.99429,1.76635 3.967671,4.257328 5.361259,6.76746 l 0.496227,0.893803 H 50.022732 27.697459 Z"
     id="path820"
     inkscape:connector-curvature="0" /></svg>