<svg xmlns="http://www.w3.org/2000/svg" xmlns:xlink="http://www.w3.org/1999/xlink" version="1.1" x="0px" y="0px" viewBox="0 0 100 125" style="enable-background:new 0 0 100 100;" xml:space="preserve"><g><path d="M58.3507919,69.8206024h-3.9277c-0.5522995,0-1,0.4477005-1,1c0,0.5522003,0.4477005,1,1,1h3.9277   c0.5522995,0,1-0.4477997,1-1C59.3507919,70.2683029,58.9030914,69.8206024,58.3507919,69.8206024z"/><path d="M63.5993919,41.3147011c-3.3466988-1.9608994-5.4253006-5.6011009-5.4253006-9.4995003v-3.1851006   c1.6030006-0.3950005,2.7954025-1.8451996,2.7954025-3.5683002v-2.2740002c0-1.9447002-1.5228996-3.5256996-3.4364929-3.6511002   v-6.6198997c0-1.3910999-1.1324081-2.5228996-2.5245094-2.5228996H44.9914932   c-1.3921013,0-2.5244942,1.1317997-2.5244942,2.5228996v6.6320992c-1.855999,0.1834011-3.3159065,1.7355003-3.3159065,3.6389008   V25.0618c0,1.6797009,1.1328011,3.1000996,2.6748009,3.5366001v3.2168007c0,3.8988991-2.0786018,7.5386009-5.4253006,9.4995003   c-8.2123985,4.8129997-13.3143997,13.703598-13.3143997,23.2026024c0,11.4858932,7.3056011,21.7075958,18.1786995,25.4345932   c0.1044998,0.0361023,0.2139015,0.0542068,0.3241997,0.0542068h16.8218002c0.110302,0,0.2196999-0.0181046,0.3241997-0.0542068   c5.731102-1.9645004,10.4552002-5.744194,13.656601-10.5514984c0.0550995-0.0704956,0.1123962-0.1393967,0.1471024-0.2232971   c2.780899-4.2670975,4.375-9.3215027,4.375-14.6597977C76.9137955,55.0182991,71.8117905,46.1277008,63.5993919,41.3147011z    M44.4669991,12.5167999c0-0.2884998,0.2353935-0.5228996,0.5244942-0.5228996h10.0169983   c0.2891006,0,0.5245094,0.2343998,0.5245094,0.5228996v6.5956993H44.4669991V12.5167999z M37.4118919,43.0402985   c3.956501-2.3183975,6.4140015-6.6195984,6.4140015-11.2250977v-4.0785999c0-0.5523014-0.4477005-1-1-1   c-0.9233017,0-1.6748009-0.7515011-1.6748009-1.6748009v-2.2740002c0-0.9237995,0.7514992-1.6753006,1.6748009-1.6753006H57.294693   c0.9233055,0,1.6748009,0.7515011,1.6748009,1.6753006V25.0618c0,0.9232998-0.7514954,1.6748009-1.6748009,1.6748009h-0.1206017   c-0.5522995,0-1,0.4476986-1,1v4.0785999c0,4.6054993,2.4575005,8.9067001,6.4135017,11.2250977   c4.3145981,2.5284004,7.6982956,6.2737999,9.8211975,10.6459999H27.5911942   C29.7140007,49.3140984,33.0975914,45.5686989,37.4118919,43.0402985z M63.2599983,71.8206024h10.5468941   c-0.6511993,2.1174011-1.5815964,4.1222992-2.7522964,5.9745941H60.7555923c-0.5522003,0-1,0.4477005-1,1   c0,0.5522003,0.4477997,1,1,1h8.889801c-2.8739014,3.6895065-6.7786026,6.5916061-11.4029999,8.210907H41.7575912   c-9.9784985-3.4941025-16.6713982-12.9126053-16.6713982-23.4888c0-3.058403,0.5832996-6.0439034,1.6488075-8.8310051h46.5299988   c0.752594,1.968502,1.2580948,4.0360031,1.490593,6.1596031H59.6271935c-0.5521927,0-1,0.4477997-1,1c0,0.5522995,0.4478073,1,1,1   h15.2642021c0.0060959,0.223999,0.0223999,0.4466019,0.0223999,0.671402c0,1.8110962-0.2101059,3.5839996-0.5855026,5.303299   H63.2599983c-0.5522041,0-1,0.4477005-1,1C62.2599983,71.3728027,62.7077942,71.8206024,63.2599983,71.8206024z"/></g><text x="0" y="115" fill="#000000" font-size="5px" font-weight="bold" font-family="'Helvetica Neue', Helvetica, Arial-Unicode, Arial, Sans-serif">Created by Made</text><text x="0" y="120" fill="#000000" font-size="5px" font-weight="bold" font-family="'Helvetica Neue', Helvetica, Arial-Unicode, Arial, Sans-serif">from the Noun Project</text></svg>