<?xml version="1.0" encoding="UTF-8" standalone="no"?>
<svg
   xmlns:dc="http://purl.org/dc/elements/1.1/"
   xmlns:cc="http://creativecommons.org/ns#"
   xmlns:rdf="http://www.w3.org/1999/02/22-rdf-syntax-ns#"
   xmlns:svg="http://www.w3.org/2000/svg"
   xmlns="http://www.w3.org/2000/svg"
   xmlns:sodipodi="http://sodipodi.sourceforge.net/DTD/sodipodi-0.dtd"
   xmlns:inkscape="http://www.inkscape.org/namespaces/inkscape"
   version="1.1"
   x="0px"
   y="0px"
   viewBox="0 0 96 120"
   enable-background="new 0 0 96 96"
   xml:space="preserve"
   id="svg46"
   sodipodi:docname="ForgottenCity.svg"
   inkscape:version="0.92.2 (5c3e80d, 2017-08-06)"><metadata
     id="metadata52"><rdf:RDF><cc:Work
         rdf:about=""><dc:format>image/svg+xml</dc:format><dc:type
           rdf:resource="http://purl.org/dc/dcmitype/StillImage" /></cc:Work></rdf:RDF></metadata><defs
     id="defs50" /><sodipodi:namedview
     pagecolor="#ffffff"
     bordercolor="#666666"
     borderopacity="1"
     objecttolerance="10"
     gridtolerance="10"
     guidetolerance="10"
     inkscape:pageopacity="0"
     inkscape:pageshadow="2"
     inkscape:window-width="1920"
     inkscape:window-height="1017"
     id="namedview48"
     showgrid="false"
     inkscape:zoom="7.8666667"
     inkscape:cx="48.000001"
     inkscape:cy="74.160501"
     inkscape:window-x="-8"
     inkscape:window-y="-8"
     inkscape:window-maximized="1"
     inkscape:current-layer="svg46" /><rect
     id="rect2"
     height="2"
     width="2.6802001"
     y="12.5625"
     x="38.244598" /><rect
     id="rect4"
     height="2"
     width="2.6802001"
     y="12.5625"
     x="42.454102" /><rect
     id="rect6"
     height="2"
     width="2.6796999"
     y="12.5625"
     x="46.663601" /><rect
     id="rect8"
     height="2"
     width="2.6802001"
     y="12.5625"
     x="50.872601" /><rect
     id="rect10"
     height="2"
     width="2.6802001"
     y="12.5625"
     x="55.082001" /><rect
     id="rect12"
     height="2"
     width="2.6802001"
     y="16.0952"
     x="38.244598" /><rect
     id="rect14"
     height="2"
     width="2.6802001"
     y="16.0952"
     x="42.454102" /><rect
     id="rect16"
     height="2"
     width="2.6796999"
     y="16.0952"
     x="46.663601" /><rect
     id="rect18"
     height="2"
     width="2.6802001"
     y="16.0952"
     x="50.872601" /><rect
     id="rect20"
     height="2"
     width="2.6802001"
     y="16.0952"
     x="55.082001" /><rect
     id="rect22"
     height="2"
     width="2.415"
     y="5.4649"
     x="53.078098" /><rect
     id="rect24"
     height="2"
     width="11.5117"
     y="5.4649"
     x="39.901402" /><path
     inkscape:connector-curvature="0"
     id="path26"
     d="m 95,94.2193 v -2 H 92.5959 L 85.5747,79.2442 H 83.2809 L 77.7573,66.2691 H 75.489 L 71.2198,53.2935 H 69.7447 L 66.3931,40.3184 H 65.1369 L 62.5342,27.3428 H 61.251 v -15.894 h 3.1025 L 58.9634,1.7808 H 37.043 l -5.3892,9.668 h 3.1021 v 15.894 H 33.4751 L 30.8724,40.3184 H 29.6065 L 26.2643,53.2935 H 24.7804 L 20.511,66.2691 H 18.252 L 12.7284,79.2442 H 10.4258 L 3.4041,92.2193 H 1 v 2 c 16.3258,0 67.9569,0 94,0 z M 49.8066,27.3433 h -3.6064 v -4.4839 c 0,-0.9941 0.8091,-1.8032 1.8032,-1.8032 0.9941,0 1.8032,0.8091 1.8032,1.8032 z m 6.4522,2 v 2.9609 H 39.7505 v -2.9609 c 10.8275,0 6.8764,0 16.5083,0 z M 39.7505,84.7911 h 16.5083 v 2.5898 H 39.7505 Z m 0,-13.7691 h 16.5083 v 2.5898 H 39.7505 Z m 0,4.5899 h 16.5083 v 2.5894 H 39.7505 Z m 0,-18.3589 h 16.5083 v 2.5898 H 39.7505 Z m 0,4.5898 h 16.5083 v 2.5894 H 39.7505 Z m 0,-18.3589 h 16.5083 v 2.5894 H 39.7505 Z m 0,4.5894 h 16.5083 v 2.5898 H 39.7505 Z m 0,-13.7691 H 56.2588 V 36.894 H 39.7505 Z m 0,4.5899 h 16.5083 c 0,0.2624 0,2.7186 0,2.5898 H 39.7505 c 0,-0.1235 0,-2.7378 0,-2.5898 z m 0,13.769 h 16.5083 c 0,0.1613 0,2.7069 0,2.5898 H 39.7505 c 0,-0.3794 0,-2.7303 0,-2.5898 z m 0,13.7691 h 16.5083 c 0,0.1918 0,2.7281 0,2.5898 H 39.7505 c 0,-0.3064 0,-2.7008 0,-2.5898 z m 0,13.769 h 16.5083 c 0,0.1872 0,2.7331 0,2.5898 H 39.7505 c 0,-0.1595 0,-2.7405 0,-2.5898 z m 0,12.0181 v -2.8384 h 16.5083 v 2.8384 z m 22.6719,0 v -4.2319 c 0,-0.833 0.6777,-1.5107 1.5107,-1.5107 0.833,0 1.5107,0.6777 1.5107,1.5107 v 4.2319 z m 9.0102,0 v -4.2319 c 0,-0.833 0.6777,-1.5107 1.5107,-1.5107 0.833,0 1.5107,0.6777 1.5107,1.5107 v 4.2319 z m 9.0103,0 v -4.2319 c 0,-0.833 0.6777,-1.5107 1.5107,-1.5107 0.833,0 1.5107,0.6777 1.5107,1.5107 v 4.2319 z m 3.9404,-10.9751 5.9385,10.9751 h -4.8574 v -4.2319 c 0,-1.936 -1.5747,-3.5107 -3.5107,-3.5107 -1.936,0 -3.5107,1.5747 -3.5107,3.5107 v 4.2319 h -1.9888 v -4.2319 c 0,-1.936 -1.5747,-3.5107 -3.5107,-3.5107 -1.936,0 -3.5107,1.5747 -3.5107,3.5107 v 4.2319 H 67.444 v -4.2319 c 0,-1.936 -1.5747,-3.5107 -3.5107,-3.5107 -1.936,0 -3.5107,1.5747 -3.5107,3.5107 v 4.2319 H 58.259 V 81.2442 c 4.7077,0 27.6185,0 26.1243,0 z m -18.9395,-2 h -3.0215 v -4.6475 c 0,-0.833 0.6777,-1.5107 1.5107,-1.5107 0.833,0 1.5107,0.6777 1.5107,1.5107 v 4.6475 z m 9.5718,0 h -3.0215 v -4.6475 c 0,-0.833 0.6777,-1.5107 1.5107,-1.5107 0.833,0 1.5107,0.6777 1.5107,1.5107 v 4.6475 z m 1.4195,-10.9751 4.6719,10.9751 h -4.0913 v -4.6475 c 0,-1.936 -1.5747,-3.5107 -3.5107,-3.5107 -1.936,0 -3.5107,1.5747 -3.5107,3.5107 v 4.6475 H 67.444 v -4.6475 c 0,-1.936 -1.5747,-3.5107 -3.5107,-3.5107 -1.936,0 -3.5107,1.5747 -3.5107,3.5107 v 4.6475 H 58.259 V 68.2691 c 6.325,0 11.9686,0 18.1761,0 z m -10.149,-2 h -3.0215 v -4.6475 c 0,-0.833 0.6777,-1.5107 1.5107,-1.5107 0.833,0 1.5107,0.6777 1.5107,1.5107 v 4.6475 z m 7.0972,0 h -5.0972 v -4.6475 c 0,-1.936 -1.5747,-3.5107 -3.5107,-3.5107 -1.936,0 -3.5107,1.5747 -3.5107,3.5107 v 4.6475 H 58.2588 V 55.2935 c 0.2623,0 12.1924,0 11.5137,0 z M 63.373,53.2935 h -1.585 v -4.1753 c 0,-0.437 0.3555,-0.7925 0.7925,-0.7925 0.437,0 0.7925,0.3555 0.7925,0.7925 z m 4.3062,0 H 65.373 v -4.1753 c 0,-1.5396 -1.2529,-2.7925 -2.7925,-2.7925 -1.5396,0 -2.7925,1.2529 -2.7925,2.7925 v 4.1753 H 58.2587 V 42.3184 h 6.5854 z M 63.0967,40.3184 H 58.2588 V 29.3433 h 2.6368 z M 38.2178,3.7808 h 19.5708 l 3.1597,5.668 H 35.0581 Z m -1.4619,7.668 H 59.251 v 15.894 c -0.213,0 -7.9346,5e-4 -7.4443,5e-4 v -4.4839 c 0,-2.0972 -1.7061,-3.8032 -3.8032,-3.8032 -2.0971,0 -3.8032,1.7061 -3.8032,3.8032 v 4.4839 c -0.1,0 -7.8927,-5e-4 -7.4443,-5e-4 v -15.894 z m -1.6423,17.8945 h 2.6368 v 10.9751 h -4.8379 z m -3.9573,12.9751 h 6.5942 v 10.9751 h -1.5 v -4.1753 c 0,-1.5396 -1.2529,-2.7925 -2.7925,-2.7925 -1.5396,0 -2.7925,1.2529 -2.7925,2.7925 v 4.1753 h -2.3364 z m 3.0942,10.9751 h -1.585 v -4.1753 c 0,-0.437 0.3555,-0.7925 0.7925,-0.7925 0.437,0 0.7925,0.3555 0.7925,0.7925 z m -8.023,2 c 0.2207,0 12.2521,0 11.5229,0 v 10.9756 h -2.7476 v -4.6475 c 0,-1.936 -1.5747,-3.5107 -3.5107,-3.5107 -1.936,0 -3.5107,1.5747 -3.5107,3.5107 v 4.6475 h -5.3647 z m 6.7754,10.9756 h -3.0215 v -4.6475 c 0,-0.833 0.6777,-1.5107 1.5107,-1.5107 0.833,0 1.5107,0.6777 1.5107,1.5107 v 4.6475 z m -13.4287,2 c 0.4159,0 19.1128,0 18.1763,0 v 10.9751 h -2.186 v -4.6475 c 0,-1.936 -1.5747,-3.5107 -3.5107,-3.5107 -1.936,0 -3.5107,1.5747 -3.5107,3.5107 v 4.6475 h -2.5503 v -4.6475 c 0,-1.936 -1.5747,-3.5107 -3.5107,-3.5107 -1.936,0 -3.5107,1.5747 -3.5107,3.5107 v 4.6475 H 14.9026 Z M 33.5645,79.2442 H 30.543 v -4.6475 c 0,-0.833 0.6777,-1.5107 1.5107,-1.5107 0.833,0 1.5107,0.6777 1.5107,1.5107 v 4.6475 z m -9.5718,0 h -3.0215 v -4.6475 c 0,-0.833 0.6777,-1.5107 1.5107,-1.5107 0.833,0 1.5107,0.6777 1.5107,1.5107 v 4.6475 z M 12.5396,92.2193 v -4.2319 c 0,-0.833 0.6777,-1.5107 1.5107,-1.5107 0.833,0 1.5107,0.6777 1.5107,1.5107 v 4.2319 z m 9.0102,0 v -4.2319 c 0,-0.833 0.6777,-1.5107 1.5107,-1.5107 0.833,0 1.5107,0.6777 1.5107,1.5107 v 4.2319 z m 5.0215,0 v -4.2319 c 0,-1.936 -1.5747,-3.5107 -3.5107,-3.5107 -1.936,0 -3.5107,1.5747 -3.5107,3.5107 v 4.2319 H 17.561 v -4.2319 c 0,-1.936 -1.5747,-3.5107 -3.5107,-3.5107 -1.936,0 -3.5107,1.5747 -3.5107,3.5107 v 4.2319 H 5.6782 l 5.939,-10.9751 c 1.4758,0 26.7225,0 26.1333,0 v 10.9751 h -2.1689 v -4.2319 c 0,-1.936 -1.5747,-3.5107 -3.5107,-3.5107 -1.936,0 -3.5107,1.5747 -3.5107,3.5107 v 4.2319 z m 3.9888,0 v -4.2319 c 0,-0.833 0.6777,-1.5107 1.5107,-1.5107 0.833,0 1.5107,0.6777 1.5107,1.5107 v 4.2319 z"
     style="fill:#502d16" /><path
     inkscape:connector-curvature="0"
     id="path28"
     d="m 84.6426,33.9673 c -1.2168,-1.9214 -3.396,-3.1504 -5.8335,-3.0376 l 0.0957,1.998 c 2.4985,-0.124 4.6211,1.812 4.7412,4.3062 l 1.998,-5e-4 c 0.1212,-2.5406 2.2905,-4.4281 4.7407,-4.3057 l 0.0957,-1.998 c -2.4524,-0.117 -4.6293,1.1263 -5.8378,3.0376 z"
     style="fill:#7f2aff" /><path
     inkscape:connector-curvature="0"
     id="path30"
     d="M 75.9199,17.9746 C 74.9892,16.77 73.5112,16.0337 71.8706,16.1006 l 0.0957,1.9981 c 1.5654,-0.0855 2.8799,1.1294 2.9546,2.6841 h 1.998 c 0.0742,-1.5547 1.396,-2.772 2.9546,-2.6841 l 0.0957,-1.9981 c -1.6352,-0.0664 -3.1181,0.6695 -4.0493,1.874 z"
     style="fill:#00aad4" /><path
     inkscape:connector-curvature="0"
     id="path32"
     d="m 9.436,46.2574 c 0.7578,-0.0444 1.4756,0.2227 2.0337,0.73 0.5576,0.5068 0.8848,1.2007 0.9209,1.9536 l 1.998,5e-4 c 0.0742,-1.5547 1.3896,-2.7637 2.9551,-2.6841 l 0.0957,-1.998 c -1.6318,-0.0693 -3.1182,0.6694 -4.0493,1.874 -0.9316,-1.2046 -2.415,-1.9482 -4.0498,-1.874 z"
     style="fill:#ff8080" /><path
     inkscape:connector-curvature="0"
     id="path34"
     d="M 83.9233,4.5054 C 82.9912,3.3008 81.5087,2.5533 79.8735,2.6314 l 0.0957,1.998 c 1.5163,-0.0866 2.8785,1.0975 2.9546,2.6836 l 1.998,5e-4 C 84.996,5.7588 86.311,4.5337 87.8769,4.6294 l 0.0957,-1.998 c -1.6323,-0.0713 -3.1181,0.6699 -4.0493,1.874 z"
     style="fill:#88aa00" /><path
     inkscape:connector-curvature="0"
     id="path36"
     d="m 17.4531,27.7163 c 2.4991,-0.1209 4.622,1.8053 4.7412,4.3062 h 1.998 c 0.1199,-2.5134 2.2564,-4.4264 4.7412,-4.3062 l 0.0957,-1.998 c -2.4576,-0.1179 -4.6299,1.1294 -5.8384,3.0376 -1.2168,-1.9214 -3.4004,-3.146 -5.8335,-3.0376 z"
     style="fill:#ff80b2" /><path
     inkscape:connector-curvature="0"
     id="path38"
     d="m 14.4688,12.7632 c -0.9316,-1.2046 -2.4087,-1.9409 -4.0498,-1.874 l 0.0957,1.998 c 1.5537,-0.0874 2.8804,1.1294 2.9551,2.6841 l 1.998,-5e-4 c 0.0759,-1.5823 1.4352,-2.7732 2.9546,-2.6836 l 0.0957,-1.998 c -1.6353,-0.0664 -3.1182,0.6694 -4.0493,1.874 z"
     style="fill:#d38d5f" /><path
     style="fill:#deaa87;fill-opacity:1;stroke:none;stroke-width:0.12711865;stroke-opacity:1"
     d="m 5.8940686,91.987326 c 0.023305,-0.06785 1.3294491,-2.498973 2.9025423,-5.402499 l 2.8601691,-5.279138 12.997882,-4.4e-5 12.997881,-4.4e-5 v 5.402542 5.402543 h -1.007579 -1.007579 l -0.04115,-2.574153 -0.04115,-2.574152 -0.374868,-0.676723 c -0.70051,-1.264582 -1.841042,-1.870089 -3.349383,-1.778185 -0.986591,0.06011 -1.597413,0.32044 -2.258634,0.962611 -0.895087,0.869296 -1.003301,1.294954 -1.049962,4.130009 l -0.04132,2.510593 h -0.936579 -0.936578 l -0.03905,-2.574153 c -0.03714,-2.448005 -0.05446,-2.60432 -0.353482,-3.189747 -0.621511,-1.216789 -1.694624,-1.856706 -3.117771,-1.859185 -1.141883,-0.002 -1.969177,0.365957 -2.706703,1.203831 -0.790819,0.898418 -0.916178,1.466828 -0.916178,4.15419 v 2.265064 h -0.944186 -0.944186 l -0.04098,-2.637712 c -0.04055,-2.610029 -0.04463,-2.643908 -0.388067,-3.228128 -1.221758,-2.078306 -4.076721,-2.41739 -5.682844,-0.674952 -0.875268,0.949554 -0.93907,1.207514 -0.996801,4.030199 l -0.05135,2.510593 H 8.1389293 c -1.4227283,0 -2.2712179,-0.04663 -2.2448607,-0.12336 z"
     id="path853"
     inkscape:connector-curvature="0" /><path
     style="fill:#deaa87;fill-opacity:1;stroke:none;stroke-width:0.12711865;stroke-opacity:1"
     d="m 58.372882,86.708143 v -5.402542 l 12.997882,0.0028 12.997881,0.0028 2.860169,5.295681 c 1.573094,2.912625 2.879238,5.34253 2.902542,5.399789 0.02331,0.05726 -0.985988,0.104109 -2.242873,0.104109 H 85.603236 L 85.5532,89.663652 c -0.04513,-2.20688 -0.07825,-2.509412 -0.337552,-3.082627 -1.278837,-2.827048 -5.270841,-2.835404 -6.521621,-0.01365 -0.258829,0.583915 -0.292954,0.895477 -0.339135,3.096279 l -0.05135,2.447034 h -0.866629 -0.866629 l -0.04237,-2.447034 c -0.03862,-2.230582 -0.06828,-2.504463 -0.335372,-3.096279 -1.238552,-2.744402 -5.095627,-2.832169 -6.434,-0.146404 -0.317349,0.636836 -0.326345,0.724285 -0.326345,3.172303 v 2.517414 h -0.941895 -0.941894 l -0.04758,-2.510593 c -0.05318,-2.806217 -0.111291,-3.050021 -0.948228,-3.978367 -1.399988,-1.552895 -3.969012,-1.537444 -5.312354,0.03195 -0.728993,0.851664 -0.833473,1.361153 -0.833473,4.0644 v 2.39261 h -1.016949 -1.016949 z"
     id="path855"
     inkscape:connector-curvature="0" /><path
     style="fill:#deaa87;fill-opacity:1;stroke:none;stroke-width:0.12711865;stroke-opacity:1"
     d="m 58.372882,73.742042 v -5.402543 h 9.013539 9.013539 l 2.127085,4.989407 c 1.169898,2.744174 2.205675,5.175318 2.301727,5.402542 l 0.174641,0.413136 h -1.972045 -1.972045 v -2.583287 c 0,-2.920895 -0.09309,-3.39011 -0.847426,-4.271382 -0.70602,-0.824824 -1.55902,-1.203455 -2.711896,-1.203759 -1.430487,-3.82e-4 -2.419896,0.58652 -3.120261,1.850879 l -0.375502,0.677888 -0.04067,2.764831 -0.04067,2.76483 H 68.724159 67.52542 v -2.455741 c 0,-2.772308 -0.118757,-3.409017 -0.803211,-4.306397 -0.257792,-0.337987 -0.699266,-0.6897 -1.163857,-0.92722 -0.633708,-0.323979 -0.886347,-0.381087 -1.647082,-0.372319 -1.055835,0.01217 -1.619457,0.225174 -2.355594,0.89023 -1.025893,0.926833 -1.079905,1.135188 -1.125859,4.343057 l -0.04052,2.82839 h -1.008211 -1.008211 z"
     id="path857"
     inkscape:connector-curvature="0" /><path
     style="fill:#deaa87;fill-opacity:1;stroke:none;stroke-width:0.12711865;stroke-opacity:1"
     d="m 15.27135,78.54077 c 0.133218,-0.332097 1.157815,-2.74894 2.276882,-5.370762 l 2.034666,-4.766949 9.034822,-0.03263 9.034823,-0.03263 v 5.40339 5.403389 h -1.008061 -1.008061 l -0.04067,-2.76483 c -0.04003,-2.721649 -0.04603,-2.774996 -0.383995,-3.415645 -0.375081,-0.71101 -0.868043,-1.183138 -1.675765,-1.604941 -0.400035,-0.208904 -0.747828,-0.273205 -1.47667,-0.273012 -1.152876,3.05e-4 -2.005876,0.378935 -2.711896,1.203759 -0.754336,0.881272 -0.847426,1.350487 -0.847426,4.271382 v 2.583287 h -1.196703 -1.196703 l -0.04383,-2.701271 c -0.04949,-3.050384 -0.141944,-3.428756 -1.062764,-4.349576 -1.740242,-1.740242 -4.695411,-1.220737 -5.733188,1.007868 -0.28329,0.60836 -0.298289,0.775731 -0.299469,3.341708 l -0.0012,2.701271 h -1.968484 -1.968484 z"
     id="path859"
     inkscape:connector-curvature="0" /><path
     style="fill:#deaa87;fill-opacity:1;stroke:none;stroke-width:0.12711865;stroke-opacity:1"
     d="m 22.778284,66.083143 c -7.57e-4,-0.05244 0.782241,-2.48358 1.739996,-5.402542 l 1.741373,-5.307203 h 5.696445 5.696445 v 5.402542 5.402542 H 36.394 35.135458 l -0.04482,-2.701271 c -0.04218,-2.542348 -0.06268,-2.737605 -0.348444,-3.318852 -0.661433,-1.345373 -1.77502,-2.045032 -3.254904,-2.045032 -1.061754,0 -1.805264,0.298808 -2.502162,1.005591 -0.931157,0.944364 -1.118891,1.770795 -1.119983,4.930327 l -7.36e-4,2.129237 h -2.542373 c -1.398305,0 -2.542993,-0.0429 -2.543751,-0.09534 z"
     id="path861"
     inkscape:connector-curvature="0" /><path
     style="fill:#deaa87;fill-opacity:1;stroke:none;stroke-width:0.12711865;stroke-opacity:1"
     d="m 58.372882,60.77594 v -5.402542 l 5.68856,0.0012 5.688559,0.0012 1.716102,5.221855 c 0.943855,2.872021 1.734597,5.302605 1.757201,5.401298 0.03431,0.149798 -0.369938,0.179441 -2.447033,0.179441 h -2.488135 l -0.0012,-2.701271 c -0.0012,-2.564377 -0.01631,-2.733481 -0.298536,-3.336864 -1.312821,-2.806723 -5.256004,-2.717557 -6.53113,0.147686 -0.176866,0.397423 -0.225707,0.988868 -0.26336,3.189178 l -0.04622,2.701271 h -1.387381 -1.387381 z"
     id="path863"
     inkscape:connector-curvature="0" /><path
     style="fill:#deaa87;fill-opacity:1;stroke:none;stroke-width:0.12711865;stroke-opacity:1"
     d="m 58.372882,47.809838 v -5.402542 h 3.218861 3.218861 l 1.35741,5.261365 c 0.746576,2.893751 1.357411,5.324895 1.357411,5.402542 0,0.09157 -0.352557,0.141178 -1.003243,0.141178 H 65.51894 l -0.05007,-2.383475 c -0.05511,-2.623744 -0.127272,-2.920314 -0.904851,-3.7189 -1.36743,-1.404374 -3.830824,-0.912165 -4.595414,0.918207 -0.15438,0.369572 -0.197422,0.986223 -0.197422,2.82839 v 2.355778 h -0.699152 -0.699153 z"
     id="path865"
     inkscape:connector-curvature="0" /><path
     style="fill:#deaa87;fill-opacity:1;stroke:none;stroke-width:0.12711865;stroke-opacity:1"
     d="m 28.438318,53.053482 c 0.06666,-0.18435 2.731174,-10.522267 2.731174,-10.596545 0,-0.0273 1.458687,-0.04964 3.241526,-0.04964 h 3.241525 v 5.402542 5.402543 h -0.699152 -0.699153 v -2.420319 c 0,-2.1553 -0.02736,-2.473945 -0.249853,-2.91007 -0.836719,-1.640105 -2.959278,-2.102714 -4.316692,-0.940818 -0.953266,0.815959 -1.026675,1.091307 -1.026675,3.850888 v 2.420319 H 29.52094 c -0.857961,0 -1.125861,-0.03932 -1.082622,-0.158899 z"
     id="path867"
     inkscape:connector-curvature="0" /><path
     style="fill:#deaa87;fill-opacity:1;stroke:none;stroke-width:0.12711865;stroke-opacity:1"
     d="m 34.067426,34.843737 1.080336,-5.402543 h 1.252391 1.25239 v 5.402543 5.402542 H 35.319817 32.98709 Z"
     id="path869"
     inkscape:connector-curvature="0" /><path
     style="fill:#deaa87;fill-opacity:1;stroke:none;stroke-width:0.12711865;stroke-opacity:1"
     d="m 58.372882,34.843737 v -5.402543 h 1.241327 1.241326 l 1.052421,5.307204 c 0.578832,2.918961 1.049896,5.350106 1.046809,5.402542 -0.0031,0.05244 -1.035273,0.09534 -2.293747,0.09534 h -2.288136 z"
     id="path871"
     inkscape:connector-curvature="0" /><path
     style="fill:#552200;fill-opacity:1;stroke:none;stroke-width:0.12711865;stroke-opacity:1"
     d="m 35.258475,9.2438264 c 0.02331,-0.061942 0.700212,-1.291678 1.504238,-2.7327464 l 1.461864,-2.6201244 9.788136,0.00154 9.788135,0.00154 1.140566,2.0638336 c 0.627311,1.1351085 1.303748,2.3641514 1.503192,2.7312065 l 0.362626,0.6673729 H 48.011668 c -7.379492,0 -12.77763,-0.04767 -12.753193,-0.1126222 z M 51.481836,6.4644992 51.518757,5.4157704 H 45.666159 39.81356 v 0.9957627 c 0,0.5476696 0.03871,1.0344744 0.08603,1.0817884 0.04731,0.047314 2.664369,0.071149 5.815678,0.052966 l 5.729652,-0.03306 z m 4.094436,0.03178 V 5.4157704 h -1.271186 -1.271187 v 1.0805085 1.0805085 h 1.271187 1.271186 z"
     id="path873"
     inkscape:connector-curvature="0" /><path
     style="fill:#ffcc00;fill-opacity:1;stroke:none;stroke-width:0.12711865;stroke-opacity:1"
     d="m 36.762713,19.398821 v -7.881356 h 11.18644 11.186441 v 7.881356 7.881356 h -3.611957 -3.611958 l -0.04572,-2.701271 c -0.04334,-2.560827 -0.06191,-2.734317 -0.357241,-3.336864 -1.254143,-2.558781 -4.758158,-2.993581 -6.488069,-0.80508 -0.769504,0.973496 -0.885058,1.54633 -0.885058,4.387474 v 2.455741 H 40.44915 36.76271 Z m 4.194915,-2.288135 v -1.016949 h -1.398305 -1.398305 v 1.016949 1.016949 h 1.398305 1.398305 z m 4.194915,0 v -1.016949 h -1.398305 -1.398305 v 1.016949 1.016949 h 1.398305 1.398305 z m 4.194915,0 v -1.016949 h -1.398305 -1.398305 v 1.016949 1.016949 h 1.398305 1.398305 z m 4.322034,0 v -1.016949 h -1.398305 -1.398305 v 1.016949 1.016949 h 1.398305 1.398305 z m 4.194916,0 v -1.016949 h -1.398305 -1.398306 v 1.016949 1.016949 h 1.398306 1.398305 z m -16.90678,-3.559322 v -1.01695 h -1.398305 -1.398305 v 1.01695 1.016949 h 1.398305 1.398305 z m 4.194915,0 v -1.01695 h -1.398305 -1.398305 v 1.01695 1.016949 h 1.398305 1.398305 z m 4.194915,0 v -1.01695 h -1.398305 -1.398305 v 1.01695 1.016949 h 1.398305 1.398305 z m 4.322034,0 v -1.01695 h -1.398305 -1.398305 v 1.01695 1.016949 h 1.398305 1.398305 z m 4.194916,0 v -1.01695 h -1.398305 -1.398306 v 1.01695 1.016949 h 1.398306 1.398305 z"
     id="path875"
     inkscape:connector-curvature="0" /><path
     style="fill:#ffcc00;fill-opacity:1;stroke:none;stroke-width:0.12711865;stroke-opacity:1"
     d="m 46.296611,24.85861 c 0,-2.623402 0.05749,-2.898449 0.713756,-3.414666 0.462364,-0.363696 1.459879,-0.364305 1.96981,-0.0012 0.688988,0.490603 0.748637,0.762771 0.748637,3.415869 v 2.421567 h -1.716101 -1.716102 z"
     id="path877"
     inkscape:connector-curvature="0" /><path
     style="fill:#b3b3b3;fill-opacity:1;stroke:none;stroke-width:0.12711865;stroke-opacity:1"
     d="m 39.81356,30.839499 v -1.398305 h 8.199153 8.199152 v 1.398305 1.398305 H 48.012713 39.81356 Z"
     id="path879"
     inkscape:connector-curvature="0" /><path
     style="fill:#b3b3b3;fill-opacity:1;stroke:none;stroke-width:0.12711865;stroke-opacity:1"
     d="m 39.81356,35.606448 v -1.207627 h 8.199153 8.199152 v 1.207627 1.207628 H 48.012713 39.81356 Z"
     id="path881"
     inkscape:connector-curvature="0" /><path
     style="fill:#b3b3b3;fill-opacity:1;stroke:none;stroke-width:0.12711865;stroke-opacity:1"
     d="m 39.81356,40.18272 v -1.207628 h 8.199153 8.199152 v 1.207628 1.207627 H 48.012713 39.81356 Z"
     id="path883"
     inkscape:connector-curvature="0" /><path
     style="fill:#b3b3b3;fill-opacity:1;stroke:none;stroke-width:0.12711865;stroke-opacity:1"
     d="m 39.81356,44.758991 v -1.207627 h 8.199153 8.199152 v 1.207627 1.207627 H 48.012713 39.81356 Z"
     id="path885"
     inkscape:connector-curvature="0" /><path
     style="fill:#b3b3b3;fill-opacity:1;stroke:none;stroke-width:0.12711865;stroke-opacity:1"
     d="m 39.81356,49.335262 v -1.207627 h 8.199153 8.199152 v 1.207627 1.207627 H 48.012713 39.81356 Z"
     id="path887"
     inkscape:connector-curvature="0" /><path
     style="fill:#b3b3b3;fill-opacity:1;stroke:none;stroke-width:0.12711865;stroke-opacity:1"
     d="m 39.81356,53.975093 v -1.271187 h 8.199153 8.199152 v 1.271187 1.271186 H 48.012713 39.81356 Z"
     id="path889"
     inkscape:connector-curvature="0" /><path
     style="fill:#b3b3b3;fill-opacity:1;stroke:none;stroke-width:0.12711865;stroke-opacity:1"
     d="m 39.81356,58.551364 v -1.271187 h 8.199153 8.199152 v 1.271187 1.271186 H 48.012713 39.81356 Z"
     id="path891"
     inkscape:connector-curvature="0" /><path
     style="fill:#b3b3b3;fill-opacity:1;stroke:none;stroke-width:0.12711865;stroke-opacity:1"
     d="m 39.81356,63.127635 v -1.271187 h 8.199153 8.199152 v 1.271187 1.271186 H 48.012713 39.81356 Z"
     id="path893"
     inkscape:connector-curvature="0" /><path
     style="fill:#b3b3b3;fill-opacity:1;stroke:none;stroke-width:0.12711865;stroke-opacity:1"
     d="M 39.81356,67.703906 V 66.43272 h 8.199153 8.199152 v 1.271186 1.271187 H 48.012713 39.81356 Z"
     id="path895"
     inkscape:connector-curvature="0" /><path
     style="fill:#b3b3b3;fill-opacity:1;stroke:none;stroke-width:0.12711865;stroke-opacity:1"
     d="m 39.81356,72.343737 v -1.207628 h 8.199153 8.199152 v 1.207628 1.207627 H 48.012713 39.81356 Z"
     id="path897"
     inkscape:connector-curvature="0" /><path
     style="fill:#b3b3b3;fill-opacity:1;stroke:none;stroke-width:0.12711865;stroke-opacity:1"
     d="m 39.81356,76.920008 v -1.207627 h 8.199153 8.199152 v 1.207627 1.207627 H 48.012713 39.81356 Z"
     id="path899"
     inkscape:connector-curvature="0" /><path
     style="fill:#b3b3b3;fill-opacity:1;stroke:none;stroke-width:0.12711865;stroke-opacity:1"
     d="m 39.81356,81.496279 v -1.207627 h 8.199153 8.199152 v 1.207627 1.207627 H 48.012713 39.81356 Z"
     id="path901"
     inkscape:connector-curvature="0" /><path
     style="fill:#b3b3b3;fill-opacity:1;stroke:none;stroke-width:0.12711865;stroke-opacity:1"
     d="m 39.81356,86.07255 v -1.207627 h 8.199153 8.199152 v 1.207627 1.207627 H 48.012713 39.81356 Z"
     id="path903"
     inkscape:connector-curvature="0" /><path
     style="fill:#b3b3b3;fill-opacity:1;stroke:none;stroke-width:0.12711865;stroke-opacity:1"
     d="m 39.81356,90.77594 v -1.334746 h 8.199153 8.199152 v 1.334746 1.334746 H 48.012713 39.81356 Z"
     id="path905"
     inkscape:connector-curvature="0" /><path
     style="fill:#f9f9f9;fill-opacity:1;stroke:none;stroke-width:0.12711865;stroke-opacity:1"
     d="m 30.661018,89.787276 c 0,-2.540413 0.04107,-2.705958 0.764116,-3.079859 0.513202,-0.265387 0.907547,-0.237287 1.409882,0.100467 0.629317,0.423133 0.734372,0.881114 0.742556,3.237124 l 0.0072,2.065678 h -1.461865 -1.461864 z"
     id="path907"
     inkscape:connector-curvature="0" /><path
     style="fill:#f9f9f9;fill-opacity:1;stroke:none;stroke-width:0.12711865;stroke-opacity:1"
     d="m 21.635594,89.879797 c 0,-2.466758 0.0848,-2.821093 0.758551,-3.169502 0.501947,-0.259567 0.875257,-0.242053 1.378336,0.06467 0.679439,0.414243 0.786842,0.855704 0.786842,3.234184 v 2.101541 h -1.461865 -1.461864 z"
     id="path909"
     inkscape:connector-curvature="0" /><path
     style="fill:#f9f9f9;fill-opacity:1;stroke:none;stroke-width:0.12711865;stroke-opacity:1"
     d="m 12.61017,89.879797 c 0,-2.522847 0.07461,-2.806448 0.83303,-3.166341 0.781758,-0.370968 1.503509,-0.08162 1.947695,0.780822 0.08949,0.173762 0.143004,1.089423 0.143004,2.447034 v 2.169374 H 14.072035 12.61017 Z"
     id="path911"
     inkscape:connector-curvature="0" /><path
     style="fill:#f9f9f9;fill-opacity:1;stroke:none;stroke-width:0.12711865;stroke-opacity:1"
     d="m 21.000001,76.788806 c 0,-2.633689 0.09842,-3.0846 0.746385,-3.419677 0.738099,-0.381686 1.521901,-0.19208 1.922573,0.465083 0.230423,0.377929 0.253864,0.641875 0.254295,2.863338 l 4.76e-4,2.447034 h -1.461865 -1.461864 z"
     id="path913"
     inkscape:connector-curvature="0" /><path
     style="fill:#f9f9f9;fill-opacity:1;stroke:none;stroke-width:0.12711865;stroke-opacity:1"
     d="m 30.661018,76.589499 v -2.555084 l 0.432203,-0.432204 c 0.354318,-0.354318 0.528415,-0.432203 0.966102,-0.432203 0.437687,0 0.611783,0.07789 0.966102,0.432203 l 0.432203,0.432204 v 2.555084 2.555085 h -1.398305 -1.398305 z"
     id="path915"
     inkscape:connector-curvature="0" /><path
     style="fill:#f9f9f9;fill-opacity:1;stroke:none;stroke-width:0.12711865;stroke-opacity:1"
     d="m 30.025425,63.756915 c 0,-2.61539 0.06594,-2.935744 0.688182,-3.343454 0.403802,-0.264581 1.202493,-0.27025 1.572394,-0.01116 0.593666,0.415819 0.663152,0.767324 0.663152,3.354614 v 2.421567 h -1.461864 -1.461864 z"
     id="path917"
     inkscape:connector-curvature="0" /><path
     style="fill:#f9f9f9;fill-opacity:1;stroke:none;stroke-width:0.12711865;stroke-opacity:1"
     d="m 32.694916,51.051364 c 0,-1.991526 0.01994,-2.180957 0.254237,-2.415255 0.139831,-0.13983 0.368644,-0.254237 0.508475,-0.254237 0.13983,0 0.368644,0.114407 0.508474,0.254237 0.234298,0.234298 0.254238,0.423729 0.254238,2.415255 v 2.161017 h -0.762712 -0.762712 z"
     id="path919"
     inkscape:connector-curvature="0" /><path
     style="fill:#f9f9f9;fill-opacity:1;stroke:none;stroke-width:0.12711865;stroke-opacity:1"
     d="m 61.805086,51.051364 c 0,-1.991526 0.01994,-2.180957 0.254237,-2.415255 0.13983,-0.13983 0.368644,-0.254237 0.508474,-0.254237 0.139831,0 0.368645,0.114407 0.508475,0.254237 0.234297,0.234298 0.254237,0.423729 0.254237,2.415255 v 2.161017 h -0.762712 -0.762711 z"
     id="path921"
     inkscape:connector-curvature="0" /><path
     style="fill:#f9f9f9;fill-opacity:1;stroke:none;stroke-width:0.12711865;stroke-opacity:1"
     d="m 63.330509,63.756915 c 0,-2.58729 0.06949,-2.938795 0.663152,-3.354614 0.362582,-0.253962 1.022291,-0.253646 1.514192,7.26e-4 0.647968,0.335077 0.746385,0.785989 0.746385,3.419678 v 2.355777 h -1.461864 -1.461865 z"
     id="path923"
     inkscape:connector-curvature="0" /><path
     style="fill:#f9f9f9;fill-opacity:1;stroke:none;stroke-width:0.12711865;stroke-opacity:1"
     d="m 62.440679,76.780321 c 0,-1.924904 0.03862,-2.445649 0.207819,-2.80221 0.409379,-0.862701 1.518128,-1.079488 2.237209,-0.437428 l 0.415141,0.370675 0.03905,2.616613 0.03905,2.616613 H 63.909814 62.44068 Z"
     id="path925"
     inkscape:connector-curvature="0" /><path
     style="fill:#f9f9f9;fill-opacity:1;stroke:none;stroke-width:0.12711865;stroke-opacity:1"
     d="m 72.101696,76.589499 v -2.555084 l 0.432203,-0.432204 c 0.354318,-0.354318 0.528415,-0.432203 0.966102,-0.432203 0.437687,0 0.611783,0.07789 0.966102,0.432203 l 0.432203,0.432204 v 2.555084 2.555085 h -1.398305 -1.398305 z"
     id="path927"
     inkscape:connector-curvature="0" /><path
     style="fill:#f9f9f9;fill-opacity:1;stroke:none;stroke-width:0.12711865;stroke-opacity:1"
     d="m 62.440679,90.021504 c 0,-1.171357 0.05957,-2.246395 0.135586,-2.447034 0.331403,-0.874668 1.108443,-1.231104 1.932879,-0.886633 0.766648,0.320326 0.855264,0.651051 0.855264,3.19196 v 2.230889 h -1.461865 -1.461864 z"
     id="path929"
     inkscape:connector-curvature="0" /><path
     style="fill:#f9f9f9;fill-opacity:1;stroke:none;stroke-width:0.12711865;stroke-opacity:1"
     d="m 71.490021,89.76701 0.03964,-2.343676 0.371842,-0.387792 c 0.468418,-0.48851 1.050035,-0.609302 1.623503,-0.337173 0.78544,0.372715 0.864824,0.66421 0.864824,3.175574 v 2.236743 H 72.920106 71.45038 Z"
     id="path931"
     inkscape:connector-curvature="0" /><path
     style="fill:#f9f9f9;fill-opacity:1;stroke:none;stroke-width:0.12711865;stroke-opacity:1"
     d="m 80.491526,89.9371 c 0,-2.464667 0.105892,-2.878594 0.823526,-3.219134 0.529795,-0.251404 0.746882,-0.251404 1.276677,0 0.717634,0.34054 0.823526,0.754467 0.823526,3.219134 v 2.173586 h -1.461864 -1.461865 z"
     id="path933"
     inkscape:connector-curvature="0" /></svg>