<?xml version="1.0" encoding="UTF-8" standalone="no"?>
<svg
   xmlns:dc="http://purl.org/dc/elements/1.1/"
   xmlns:cc="http://creativecommons.org/ns#"
   xmlns:rdf="http://www.w3.org/1999/02/22-rdf-syntax-ns#"
   xmlns:svg="http://www.w3.org/2000/svg"
   xmlns="http://www.w3.org/2000/svg"
   xmlns:sodipodi="http://sodipodi.sourceforge.net/DTD/sodipodi-0.dtd"
   xmlns:inkscape="http://www.inkscape.org/namespaces/inkscape"
   version="1.1"
   x="0px"
   y="0px"
   viewBox="0 0 55.550781 89.983597"
   enable-background="new 0 0 100 100"
   xml:space="preserve"
   id="svg8"
   sodipodi:docname="Hydra.svg"
   inkscape:version="0.92.2 (5c3e80d, 2017-08-06)"
   width="55.550781"
   height="89.983597"><metadata
     id="metadata14"><rdf:RDF><cc:Work
         rdf:about=""><dc:format>image/svg+xml</dc:format><dc:type
           rdf:resource="http://purl.org/dc/dcmitype/StillImage" /></cc:Work></rdf:RDF></metadata><defs
     id="defs12" /><sodipodi:namedview
     pagecolor="#ffffff"
     bordercolor="#666666"
     borderopacity="1"
     objecttolerance="10"
     gridtolerance="10"
     guidetolerance="10"
     inkscape:pageopacity="0"
     inkscape:pageshadow="2"
     inkscape:window-width="1366"
     inkscape:window-height="705"
     id="namedview10"
     showgrid="false"
     inkscape:zoom="7.552"
     inkscape:cx="25.458124"
     inkscape:cy="50.988385"
     inkscape:window-x="-8"
     inkscape:window-y="-8"
     inkscape:window-maximized="1"
     inkscape:current-layer="svg8" /><path
     d="m 22.050782,32.433304 c 0.233398,-0.166504 0.5,-0.149902 0.799804,0.05029 0.266602,0.166504 0.399414,0.299805 0.399414,0.399903 0.567383,0.899902 0.63379,1.483398 0.200196,1.75 -0.466797,0.233398 -0.966797,-0.0835 -1.5,-0.950196 l -0.149414,-0.449707 c -0.06738,-0.366699 0.0166,-0.633301 0.25,-0.800293 z m -7.25,-22.399902 -0.05078,-0.1000979 c -0.06641,0.06689 -0.132812,0.1669919 -0.199218,0.3002929 l -0.650391,2 c -0.233398,1 -0.400391,2.033203 -0.5,3.09961 -0.266602,2.200195 -0.233398,4.050293 0.09961,5.550293 l 0.850586,2.949707 c 0.0332,0.166992 0.06641,0.333496 0.09961,0.5 0.633789,-0.166504 1.299804,-0.232911 2,-0.199707 -0.0332,-0.06689 -0.0498,-0.1167 -0.0498,-0.149903 -0.132813,-0.466797 -0.216797,-1.033691 -0.25,-1.700195 -0.09961,-1.666504 0.0166,-3.450195 0.349609,-5.350098 0.333985,-1.733398 0.767578,-3.299805 1.300782,-4.699707 -0.233399,0 -0.466797,-0.03369 -0.700196,-0.100098 -0.533203,-0.266601 -0.816406,-0.399902 -0.850586,-0.399902 -0.432617,-0.333496 -0.916015,-0.90039 -1.449218,-1.700195 z m 13,28.600098 c 0.166015,-0.399903 0.25,-0.716797 0.25,-0.950196 -0.0332,0.0332 -0.06738,0.0669 -0.100586,0.100098 -0.06641,0 -0.182618,-0.04981 -0.34961,-0.149902 C 27.400391,37.533402 27.200196,37.483597 27,37.483597 26.100586,37.616898 25.300782,37.716508 24.600586,37.783402 24.400391,37.850292 24.117188,37.816602 23.75,37.683304 23.416993,37.583207 23.166993,37.466508 23,37.333207 L 21.950196,36.683304 C 21.850586,36.616898 21.78418,36.566605 21.75,36.533402 l 0.05078,0.100098 0.599609,0.949707 0.0498,0.15039 0.450195,2.299805 0.09961,0.25 c 0.600586,1.333496 1.216797,2.116699 1.850586,2.350098 0.266602,0.06641 0.632813,0.0332 1.09961,-0.100098 l 0.25,-0.04981 -0.09961,0.25 c -0.06641,0.09961 -0.183594,0.216309 -0.350586,0.34961 -0.333007,0.233398 -0.699218,0.316894 -1.099609,0.25 -1.066406,-0.166504 -2.016602,-1.016602 -2.849609,-2.549805 l -0.150385,-0.2998 -0.599609,-2.350098 -0.950196,-1.25 C 19.966797,36.783402 19.75,36.5168 19.450196,36.083206 18.916993,35.416703 18.350586,34.866898 17.75,34.433304 c -0.299804,-0.266601 -0.649414,-0.466797 -1.049804,-0.600098 -0.333008,-0.1333 -0.583008,-0.166503 -0.75,-0.09961 -0.266602,0.0332 -0.399414,0.166504 -0.399414,0.399902 -0.06738,0.100098 -0.150391,0.350098 -0.25,0.75 l -0.100586,0.850098 c 0,0.466309 0.117187,0.966309 0.350586,1.5 0.333007,0.899902 0.766601,1.699707 1.299804,2.399902 0.733399,1.066407 1.5,1.899903 2.299805,2.5 0.400391,0.299805 0.766602,0.533203 1.099609,0.699707 l 0.200196,0.150391 -0.299805,0.04981 c -0.299805,0.100098 -0.766602,0 -1.400391,-0.299805 C 17.716797,42.2668 16.733399,41.500199 15.800782,40.433304 15.100586,39.600296 14.567383,38.716507 14.200196,37.783402 13.900391,37.050004 13.75,36.366898 13.75,35.733597 c -0.0332,-0.233398 -0.0166,-0.600098 0.05078,-1.100098 0.166015,-0.700195 0.299804,-1.1333 0.399414,-1.300293 0.06738,-0.09961 0.183594,-0.216308 0.350586,-0.349609 0.299804,-0.366699 0.682617,-0.600098 1.149414,-0.700195 1,-0.100098 1.966797,0.283203 2.90039,1.149902 0.533203,0.5 0.933594,1.033203 1.200196,1.600098 0.0332,-0.0669 0.06641,-0.133301 0.09961,-0.200195 C 20,34.6335 20.183593,34.500199 20.450195,34.433304 c 0.266601,-0.06641 0.483398,-0.08301 0.65039,-0.0498 l 0.549805,0.25 1.200195,0.799805 c 0.899414,0.733399 1.483399,1.100098 1.75,1.100098 0.266602,0 0.700196,-0.0166 1.299805,-0.04981 0.5,0 0.916992,0.06641 1.25,0.199707 -0.200195,-0.166504 -0.382812,-0.299805 -0.549805,-0.399902 -0.566406,-0.433106 -0.983398,-0.883301 -1.25,-1.350098 -0.166992,-0.333008 -0.283203,-0.966797 -0.350586,-1.899902 0,-0.766602 -0.0498,-1.299805 -0.149414,-1.600098 -0.700195,-1.866699 -2.049804,-3.350098 -4.049804,-4.449707 -0.5,-0.300293 -0.850586,-0.483398 -1.050782,-0.550293 L 18.900391,26.083207 C 18.600586,25.949906 18.317383,25.8835 18.050782,25.8835 c -1.666993,-0.399903 -3.233399,-0.266602 -4.700196,0.399902 -1.333007,0.633301 -2.333007,1.566894 -3,2.799805 -1.1005864,1.833496 -1.6503904,4.1333 -1.6503904,6.90039 0.06738,2.033203 0.483398,3.699707 1.25,5 0.4335934,0.866699 1.2001954,1.75 2.2998044,2.649903 l 1.900391,1.299804 c 0.266602,0.200196 0.583008,0.416992 0.950195,0.649903 0.666992,-0.0332 1.366211,-0.0166 2.09961,0.05029 0.90039,0.06641 2.333984,0.233398 4.299804,0.5 1.800782,0.1333 3.317383,-0.0166 4.550782,-0.450196 C 28.25,45.050001 29.900391,44.766797 31,44.833204 l 1.100586,0.200195 c -0.166992,-0.100098 -0.333007,-0.183106 -0.5,-0.25 -1.299804,-0.700195 -2.40039,-1.549805 -3.299804,-2.549805 -0.567383,-0.633301 -1.016602,-1.300293 -1.350586,-2 -0.266602,-0.5 -0.432617,-1 -0.5,-1.5 -0.06641,-0.466797 -0.0166,-0.716797 0.15039,-0.75 0.132813,-0.03369 0.333008,0.116699 0.59961,0.449707 0.100586,0.133301 0.25,0.316895 0.450195,0.550293 0.0332,-0.100097 0.08301,-0.216797 0.150391,-0.350097 z M 44,32.483597 43.350586,32.283402 c -1.066406,-0.266602 -2.166992,-0.266602 -3.299804,0 -1.067383,0.266602 -1.766602,0.783203 -2.100586,1.549805 -0.366211,0.666992 -0.516602,1.483398 -0.450196,2.450195 l 0.25,1.049805 0.25,0.450195 0.300782,0.399902 c 0.599609,0.766602 1.466796,1.733399 2.599609,2.899903 0.833008,0.866699 1.400391,1.600097 1.700195,2.200195 0.333008,0.733398 0.450196,1.333496 0.34961,1.799805 0,0.06689 -0.0332,0.267089 -0.09961,0.600097 -0.0332,0.133301 -0.117187,0.233399 -0.25,0.300293 L 42.25,46.333207 42.400391,45.8835 c 0.299805,-0.666993 0.150391,-1.399903 -0.450195,-2.200196 -0.0332,-0.06641 -0.06641,-0.116699 -0.09961,-0.149902 -0.100586,-0.0332 -0.200195,-0.06689 -0.299804,-0.100098 l -0.5,-0.149902 -0.600586,-0.100098 c -1,-0.1333 -1.583008,-0.116699 -1.75,0.05029 -0.932618,0.09961 -1.882813,0.449707 -2.84961,1.049805 -0.466797,0.366699 -0.833008,0.733398 -1.100586,1.100098 0.133789,0 0.28418,0 0.450196,0 0.200195,0.0332 0.733398,0 1.600586,-0.100098 l 0.349609,-0.0498 c 0.5,-0.40039 0.983398,-0.600098 1.450195,-0.600098 0.700196,0 1.25,0.316407 1.649414,0.949707 0.233399,0.3667 0.383789,0.733399 0.450196,1.100098 0.0332,0.266602 0,0.416992 -0.09961,0.450195 -0.06641,0.0332 -0.183594,-0.06689 -0.350586,-0.300293 -0.232422,-0.333007 -0.449218,-0.583007 -0.649414,-0.75 -0.299804,-0.299804 -0.617187,-0.433105 -0.950195,-0.399902 -0.233398,0.0332 -0.549805,0.283203 -0.950195,0.75 l -0.649414,0.800293 c 0.36621,0.133301 0.932617,0.383301 1.699218,0.75 0.833985,0.466309 2.383789,1.333008 4.650391,2.59961 0.299805,0.166992 0.583008,0.333496 0.849609,0.5 0.166993,-0.0332 0.333985,-0.06641 0.5,-0.09961 1.13379,-0.333496 1.966797,-0.90039 2.5,-1.700195 0.466797,-0.733399 0.716797,-1.483399 0.75,-2.25 0.06738,-0.5 0,-1 -0.199218,-1.5 -0.06738,-0.333496 -0.150391,-0.600098 -0.25,-0.799805 C 47.383789,44.333207 47.25,44.066605 47.150391,43.933304 l -2.099609,-3.049805 c -0.600586,-0.933593 -0.983399,-1.716796 -1.150391,-2.350097 -0.0332,-0.333496 -0.04981,-0.566895 -0.04981,-0.700196 -0.06641,-0.0332 -0.117187,-0.06641 -0.15039,-0.09961 -0.733399,-0.300293 -1.416016,-0.383301 -2.049805,-0.25 l -0.900391,0.199707 h -0.199218 c -0.0332,-0.0332 -0.0166,-0.100098 0.0498,-0.199707 0.06641,-0.133301 0.149414,-0.233398 0.25,-0.300293 0.132813,-0.166504 0.316407,-0.316406 0.549805,-0.449707 0.766602,-0.466797 1.683594,-0.550293 2.75,-0.25 0.966797,0.399902 1.633789,0.799805 2,1.199707 l 1.950195,1.75 c 0.0332,0.0332 0.59961,0.616699 1.700196,1.75 -0.0332,-0.166504 -0.06738,-0.299805 -0.100586,-0.399902 -0.132813,-0.533203 -0.266602,-0.966797 -0.399414,-1.299805 -0.133789,-0.40039 -0.400391,-0.75 -0.800782,-1.050293 l -0.75,-0.600097 -0.199218,-0.34961 c -0.166993,-0.233398 -0.25,-0.466797 -0.25,-0.700195 0.06641,-0.333496 0.166015,-0.583496 0.299804,-0.75 l 0.5,-0.299805 c 0.399414,-0.100098 0.616211,-0.15039 0.649414,-0.15039 l 0.400391,-0.0498 h 0.299805 c 0.0332,0 0.416992,0.0332 1.15039,0.100098 0.433594,0 0.766602,-0.0332 1,-0.100098 0.166992,0 0.450196,-0.183106 0.84961,-0.549805 0.466797,-0.333496 0.817382,-0.550293 1.049804,-0.65039 0.06738,-0.0332 0.150391,-0.06641 0.25,-0.09961 -0.266601,-0.03369 -0.599609,-0.05029 -1,-0.05029 l -2.449218,0.200195 -1.450196,-0.100097 -1.049804,-0.25 c 0.0332,0.100097 0.0498,0.216797 0.0498,0.350097 l -0.100586,0.449707 c -0.232422,0.5 -0.46582,0.833497 -0.699218,1 -0.166993,0.100098 -0.317383,0.150391 -0.450196,0.150391 -0.133789,0 -0.25,-0.0835 -0.350586,-0.25 -0.232422,-0.400391 -0.182617,-0.933594 0.150391,-1.600098 0,-0.100097 0.133789,-0.233398 0.400391,-0.399902 0.0332,-0.03369 0.06641,-0.05029 0.09961,-0.05029 z M 32.150391,19.533402 30.800782,20.183304 C 30.200196,20.5168 29.517578,21.050003 28.75,21.783402 c -1.033203,1.033203 -1.849609,2.166504 -2.449218,3.399902 -0.13379,0.366699 -0.317383,0.850098 -0.550782,1.450195 l -0.449219,2.699707 c 0.299805,0.533692 0.549805,1.100098 0.75,1.700196 0.132813,0.366699 0.199219,1.033203 0.199219,2 -0.06641,0.666504 -0.0498,1.133301 0.05078,1.399902 0.166015,0.333496 0.466796,0.700195 0.899414,1.100098 0.600586,0.533203 0.966797,0.866699 1.100586,1 0.432617,0.433105 0.549804,0.933105 0.349609,1.5 -0.09961,0.333496 -0.266602,0.616699 -0.5,0.850097 -0.132813,0.166504 -0.233398,0.299805 -0.299805,0.399903 0.0332,0.06689 0.09961,0.166504 0.200195,0.299804 l 1.34961,1.600098 c 0.766602,0.833496 1.716797,1.649903 2.849609,2.450196 l 1.850586,1.100097 c 0.06641,-0.200195 0.149414,-0.383301 0.25,-0.550293 l -1.65039,-2.399902 c -0.5,-0.833496 -0.966797,-1.850098 -1.399414,-3.049805 l -1.200196,-4.65039 c -0.166992,-0.966309 -0.25,-1.982911 -0.25,-3.049805 0,-1.333496 0.166992,-2.533203 0.5,-3.600098 0.533203,-1.699707 1.450196,-2.883301 2.75,-3.549804 0.733399,-0.3667 1.549805,-0.550293 2.450196,-0.550293 0.932617,0 1.783203,0.166992 2.549804,0.5 0.0332,0 0.299805,0.116699 0.799805,0.350097 0.633789,0.333496 1.216797,0.733399 1.75,1.200196 0.333008,0.299804 0.966797,0.983398 1.900391,2.049804 0.733398,0.733399 1.466796,1.149903 2.199218,1.25 0.300782,0.100098 0.800782,0.233399 1.5,0.399903 0.666993,0.200195 1.150391,0.433593 1.450196,0.700195 0.166992,0.100098 0.466797,0.316894 0.90039,0.649902 l -0.0498,-0.0498 -1,-1.149902 -2,-1 c -0.367188,-0.26709 -0.600586,-0.466797 -0.700196,-0.600098 -0.200195,-0.300293 -0.316406,-0.550293 -0.350586,-0.75 0,-0.233398 0.06738,-0.466796 0.200196,-0.700195 l 0.299804,-0.25 c 0.333985,-0.266601 0.78418,-0.366699 1.350586,-0.299805 0.299805,0.0332 0.632813,0.133301 1,0.299805 l 2.200196,1.200195 h 0.199218 c 0.200196,0.0332 0.550782,0.0332 1.050782,0 0.466797,-0.0332 0.833007,0.0166 1.099609,0.149903 0.03125,0 0.06445,0.0166 0.09961,0.0498 -0.03516,-0.03516 -0.06836,-0.06836 -0.09961,-0.09961 -0.900391,-0.40039 -1.632813,-0.76709 -2.200195,-1.100098 L 48.5,25.233597 47.900391,24.6335 c -0.0332,0.0332 -0.06641,0.06641 -0.09961,0.100097 -0.166993,0.266602 -0.38379,0.366699 -0.650391,0.299805 l -0.400391,-0.100098 c -0.09961,-0.06641 -0.182617,-0.166504 -0.25,-0.299804 -0.166015,-0.300293 -0.08301,-0.600098 0.25,-0.899903 l 0.150392,-0.05029 c -1.033203,-0.899902 -2.233398,-1.733398 -3.599609,-2.5 l -2.25,-1.100097 C 38.383789,19.0168 35.916992,18.699906 33.650391,19.1335 c -0.166992,0.0332 -0.666992,0.166503 -1.5,0.399902 z m -0.450195,-14.75 c -0.799805,-0.2998047 -1.682618,-0.4667969 -2.649414,-0.5 -1.033204,0 -2.033204,0.1831055 -3,0.5498047 -2.200196,0.8002934 -4.067383,2.5336914 -5.600586,5.2001953 -0.0332,0.06689 -0.382813,0.816894 -1.049805,2.25 -0.632813,1.366699 -1.183594,3 -1.650391,4.899902 -0.399414,1.766602 -0.649414,3.466797 -0.75,5.100098 -0.06641,0.866699 -0.116211,1.483398 -0.149414,1.850098 0.5,0.0332 1,0.100097 1.5,0.199707 0.06641,0.03369 0.416992,0.1333 1.049805,0.300293 l 0.950195,0.399902 c 0.266602,0.100098 0.666992,0.316894 1.200196,0.649902 0.799804,0.466797 1.516601,1 2.149414,1.600098 l -0.299805,-1.049805 c -0.366211,-1.633301 -0.549805,-2.483398 -0.549805,-2.550293 -0.266601,-1.166504 -0.25,-2.5 0.0498,-4 0.333008,-1.899902 0.816406,-3.633301 1.450195,-5.199707 0.466797,-1.166992 0.950196,-2.15039 1.450196,-2.950195 0.266601,-0.466797 0.649414,-0.983399 1.149414,-1.5498049 0.600586,-0.633301 1.216797,-1.066894 1.850586,-1.300293 0.06641,0 0.533203,-0.0332 1.399414,-0.100097 0.533203,0.06689 1.033203,0.267089 1.5,0.600097 0.0332,-0.366699 0.133789,-0.733398 0.299804,-1.100097 0.233399,-0.59961 0.600586,-1.09961 1.100586,-1.5 0.333008,-0.333008 0.516602,-0.549805 0.549805,-0.649903 l 0.650391,-0.799804 c 0.0332,-0.0669 0.08301,-0.133301 0.149414,-0.2001958 -0.0332,0 -0.06641,0 -0.09961,0 -0.333007,0.1333008 -0.766601,0.1669918 -1.299804,0.1000978 -0.06738,0 -0.183594,-0.0166 -0.350586,-0.049805 0.0332,0.1665038 0.0498,0.3833008 0.0498,0.6499028 -0.166015,0.566406 -0.432617,0.8833 -0.799804,0.949707 -0.132813,0.06689 -0.266602,0.0835 -0.399414,0.05029 -0.13379,-0.0669 -0.233399,-0.166993 -0.300782,-0.300293 -0.166015,-0.266602 -0.166015,-0.633301 0,-1.09961 0,-0.100098 0.05078,-0.200195 0.150391,-0.3002929 0.06641,-0.066403 0.167001,-0.1166959 0.299814,-0.149899 z m 6.15039,-1.5 L 37.5,3.5832067 c -0.366211,0.300293 -0.632812,0.5668945 -0.799804,0.800293 -0.366211,0.4331055 -0.733399,0.9667974 -1.09961,1.6000974 l -0.75,1 -0.850586,0.75 c -0.166015,0.133301 -0.299804,0.266602 -0.399414,0.399903 0.0332,0.0332 0.0498,0.08301 0.0498,0.149902 0.466797,0.600098 0.816406,1 1.049805,1.200195 0.567382,0.466309 1.216797,0.6499029 1.950195,0.5498049 0.5,-0.0669 1.233398,-0.3168949 2.200195,-0.7499999 l 1.09961,-0.450195 1.049804,-0.25 c 0.633789,-0.0332 1.216797,0.05029 1.75,0.25 0.233399,0.100097 0.53418,0.333496 0.900391,0.700195 0.333008,0.333496 0.533203,0.6000979 0.599609,0.7998049 0.06738,0.100097 0.08398,0.166992 0.05078,0.200195 l -0.200196,-0.0498 c -0.100586,0 -0.416992,-0.133301 -0.950195,-0.40039 -0.299805,-0.1665039 -0.549805,-0.2666019 -0.75,-0.2998049 -0.333008,-0.0669 -0.733398,-0.0498 -1.200195,0.04981 l -1.700196,0.7499999 c -1.099609,0.600097 -2.016601,0.933593 -2.75,1 -0.299804,0.03369 -0.649414,0.01709 -1.049804,-0.0498 -0.733399,-0.166504 -1.366211,-0.549805 -1.899414,-1.149902 -0.367188,-0.4667969 -0.633789,-0.9501959 -0.800782,-1.4501959 -0.199218,0.399903 -0.316406,0.766602 -0.349609,1.1000979 0.0332,0 0.0498,0.0166 0.0498,0.04981 0.5,0.600097 1.033203,1.600097 1.600586,3 0.0332,0.166992 0.11621,0.466797 0.25,0.90039 l 0.149414,0.699707 c 0.133789,0.600098 0.266601,0.966797 0.40039,1.100098 l 0.0498,0.0498 c 0.266602,0.267089 0.516602,0.316894 0.75,0.15039 0.233398,-0.06689 0.433594,-0.26709 0.599609,-0.600097 0.100586,-0.166993 0.150391,-0.383301 0.150391,-0.649903 0.0332,-0.200195 0.06641,-0.300293 0.09961,-0.300293 0.06738,-0.0332 0.150391,0.05029 0.25,0.25 0.100586,0.233399 0.133789,0.516602 0.100586,0.850098 -0.06641,0.5 -0.316406,0.899902 -0.75,1.200195 -0.266601,0.166504 -0.566406,0.25 -0.90039,0.25 -0.333008,0 -0.666016,-0.133301 -1,-0.40039 l 0.0498,0.05029 c -0.333007,-0.233399 -0.632812,-0.783204 -0.899414,-1.649903 l -0.200195,-0.75 -0.299805,-0.65039 c -0.433594,-1.033203 -0.933594,-1.883301 -1.5,-2.549805 -0.566406,-0.600098 -1.100586,-0.933106 -1.600586,-1 -0.46582,0.06689 -0.71582,0.100098 -0.75,0.100098 -0.699218,0.266601 -1.416015,1 -2.149414,2.199707 -0.633789,1.100097 -1.100586,2.017089 -1.40039,2.75 -0.666016,1.5 -1.166016,3.116699 -1.5,4.850097 -0.299805,1.166992 -0.399414,2.383301 -0.299805,3.649903 0.0332,0.6333 0.133789,1.466796 0.299805,2.5 0.100586,0.767089 0.15039,1.40039 0.15039,1.90039 0.09961,0.166504 0.216797,0.333008 0.34961,0.5 0,-0.200195 0,-0.416992 0,-0.65039 0,-2.3667 1.033203,-4.699707 3.100586,-7 0.932617,-0.899903 1.716796,-1.516602 2.349609,-1.84961 0.200195,-0.133301 0.700195,-0.383301 1.5,-0.75 0.900391,-0.333496 1.483398,-0.51709 1.75,-0.550293 2.533203,-0.566406 5.283203,-0.233398 8.25,1 l 2.400391,1.149902 c 1.833007,1.166993 3.283203,2.333497 4.349609,3.5 l 0.950195,1.050293 c 0.399414,0.399903 0.716797,0.683106 0.950196,0.850098 0.166015,0.133301 0.516601,0.34961 1.049804,0.649902 0.466797,0.266602 0.799805,0.516602 1,0.75 0.366211,0.299805 0.549805,0.666505 0.549805,1.100098 l -0.150391,0.5 -0.149414,0.299805 c -0.266601,0.366699 -0.433593,0.533203 -0.5,0.5 -0.0332,-0.0332 -0.0166,-0.25 0.04981,-0.649902 l 0.09961,-0.200196 c -0.0332,-0.0332 -0.06641,-0.0498 -0.09961,-0.0498 -0.166992,-0.0332 -0.316406,-0.05029 -0.450195,-0.05029 -0.166016,-0.0332 -0.432618,0 -0.799805,0.100097 -0.533203,0.133301 -0.900391,0.216797 -1.099609,0.25 h -0.350586 l -0.450196,-0.0498 -1.049804,-0.399903 0.450195,0.299805 1.599609,2.399902 c 0.166993,0.266602 0.400391,0.450195 0.700196,0.550293 l 0.200195,0.04981 -0.25,-0.04981 c 0.266602,0.133301 0.516602,0.183106 0.75,0.149902 0.466797,-0.06689 0.700195,-0.06689 0.700195,0 0.0332,0.06641 -0.15039,0.216797 -0.549804,0.449707 -0.733399,0.333497 -1.416993,0.383301 -2.050782,0.150391 -0.333007,-0.100098 -0.732422,-0.283691 -1.199218,-0.550293 -0.5,-0.333008 -0.867188,-0.566406 -1.100586,-0.699707 -0.533203,-0.26709 -0.966797,-0.433594 -1.299805,-0.5 l -2.299805,-0.5 c -0.20018,-0.03371 -0.45018,-0.150414 -0.749985,-0.350121 -0.200195,-0.06689 -0.433594,-0.233398 -0.700195,-0.5 l -0.650391,-0.5 -1.849609,-1.850097 c -0.466797,-0.399902 -0.933594,-0.733399 -1.400391,-1 -0.432617,-0.166504 -0.666015,-0.266602 -0.699218,-0.299805 -0.733399,-0.26709 -1.400391,-0.40039 -2,-0.40039 -0.700196,0 -1.300782,0.15039 -1.800782,0.450195 -0.899414,0.433105 -1.566406,1.299805 -2,2.600098 -0.333007,1 -0.5,2.066406 -0.5,3.199707 0,1.1333 0.06738,2.083496 0.200196,2.850097 0.100585,0.833496 0.25,1.666993 0.450195,2.5 l 0.450195,2 c 0.333008,1.166993 0.683594,2.149903 1.049805,2.950196 0.566406,1.1333 0.950195,1.966796 1.15039,2.5 0.132813,-0.200196 0.299805,-0.399903 0.5,-0.600098 0.966797,-0.866699 2.132813,-1.383301 3.5,-1.549805 0,-0.03369 0.233399,-0.05029 0.699219,-0.05029 0.333985,0.0332 0.650391,0.0835 0.950196,0.149902 l -0.0498,-0.0498 c -1.632813,-1.566895 -2.583008,-2.5 -2.849609,-2.799805 -0.200196,-0.200195 -0.333985,-0.366699 -0.400391,-0.5 l -0.400391,-0.600098 -0.149414,-0.350097 -0.25,-1.100098 c -0.133789,-1.299805 0.0498,-2.383301 0.549805,-3.25 l 0.5,-0.799805 0.700195,-0.700195 0.799805,-0.549804 0.950195,-0.350098 c 1.433594,-0.399902 2.816407,-0.399902 4.149414,0 l 4.850586,2.100098 1.649414,0.25 h 2.550782 c 1.166015,0.100097 1.949218,0.366699 2.349609,0.799804 0.200195,0.300293 0.333008,0.633301 0.400391,1 l -0.05078,0.75 c -0.132812,0.399903 -0.25,0.600098 -0.349609,0.600098 l -0.25,-1.200195 -0.25,-0.399903 c -0.132813,0.0669 -0.382813,0.183594 -0.75,0.350098 l -0.700195,0.75 c -0.5,0.5 -0.866211,0.816895 -1.09961,0.950195 -0.333008,0.199707 -0.850586,0.299805 -1.549804,0.299805 h -1.350586 v 0.0498 c 0.0332,0 0.133789,0.0835 0.299804,0.25 0.200196,0.133301 0.450196,0.366699 0.75,0.700195 l 0.450196,0.899902 c 0.266601,0.800293 0.450195,1.75 0.549804,2.850098 0.133789,1.233399 0.567383,1.716797 1.300782,1.450195 0.366211,-0.1333 0.699218,-0.333496 1,-0.600097 l 0.199218,-0.100098 v 0.200195 c -0.09962,0.466307 -0.382819,0.866697 -0.849616,1.199705 -0.5,0.433594 -1.066406,0.466797 -1.700195,0.100098 C 51,43.900101 50.817383,43.750199 50.650391,43.583207 c -0.09961,-0.06641 -0.183594,-0.133301 -0.25,-0.199707 l -5.25,-4.700196 c -0.06641,-0.100097 -0.166992,-0.183105 -0.299805,-0.25 0.466797,0.700196 0.882813,1.266602 1.25,1.700196 l 2.299805,2.949707 c 0.166992,0.233398 0.349609,0.566894 0.549805,1 0.06738,0.1333 0.183593,0.483398 0.350586,1.050293 0.233398,0.666504 0.299804,1.350097 0.199218,2.049804 -0.09961,1.066895 -0.516601,2.033203 -1.25,2.899903 -0.799804,1 -1.816406,1.550293 -3.049804,1.65039 1.067382,0.699707 1.950195,1.416504 2.65039,2.149903 0.899414,0.966796 1.483399,1.699707 1.75,2.199707 0.799805,1.267089 1.333008,2.683593 1.59961,4.25 0.200195,1.40039 0.25,2.716796 0.15039,3.950195 -0.200195,2.266601 -0.766601,4.316894 -1.700195,6.149902 -0.799805,1.433594 -1.783203,2.633301 -2.950195,3.600098 -0.733399,0.566895 -1.483399,1.033203 -2.25,1.399902 0.0332,0 0.08398,0.0166 0.15039,0.05029 2.399414,0.666504 4.233399,1.933106 5.5,3.799805 0.632813,0.933594 0.966797,1.950195 1,3.049805 0,1.100097 -0.283203,2.066894 -0.850586,2.90039 -0.833007,1.333008 -2.132812,2.416504 -3.899414,3.25 -2.333008,1 -4.833008,1.5 -7.5,1.5 -2.066406,0 -3.783203,-0.366699 -5.15039,-1.100097 -0.799805,-0.3667 -1.516602,-1 -2.149414,-1.899903 h 0.0498 c -0.100586,-0.133789 -0.183594,-0.266601 -0.25,-0.40039 -0.266601,-0.59961 -0.40039,-1.166504 -0.40039,-1.699707 l 0.0498,-0.850098 0.05078,0.100098 0.149414,0.75 c 0.200195,0.666504 0.40039,1.166504 0.600586,1.5 0.233398,0.333496 0.5,0.6333 0.799804,0.899902 l 1.09961,0.350098 c 0.299804,0.0332 0.833984,0.116699 1.600586,0.25 1.566406,0.1333 3.216797,-0.0166 4.949218,-0.450196 1.13379,-0.199707 2.183594,-0.666504 3.150391,-1.399902 0.566406,-0.466797 0.950195,-0.933594 1.150391,-1.399902 0.233398,-0.633301 0.132812,-1.216797 -0.300782,-1.75 -0.399414,-0.566895 -1.016601,-0.983399 -1.849609,-1.25 -0.632813,-0.233399 -1.516602,-0.383301 -2.650391,-0.450196 -1.46582,-0.0332 -3.549804,0.183594 -6.25,0.649903 l -7.449218,1.40039 c -3.300782,0.633301 -6.216797,1.066407 -8.75,1.299805 -1.900391,0.166504 -3.550782,0.216797 -4.950196,0.149902 -2.033203,-0.1333 -3.8164064,-0.466308 -5.3505864,-1 -1.932617,-0.699707 -3.533203,-1.816406 -4.799804,-3.350097 -0.09961,-0.09961 -0.399414,-0.533203 -0.899414,-1.299805 l -1.150391,-3 -0.150391,-2.350098 c 0.100586,-0.799804 0.200196,-1.333008 0.300782,-1.600097 0.366211,-1.566407 1.266601,-3.066407 2.699218,-4.5 1.53418,-1.5 3.466797,-2.783204 5.800782,-3.84961 2.4326174,-1.100098 4.9492194,-1.76709 7.5498044,-2 2.233399,-0.133301 4.799805,0.299805 7.700196,1.299805 l 3.299804,1.100098 c 1.466797,0.433105 2.450196,0.699707 2.950196,0.799804 1.833008,0.399903 3.316406,0.433594 4.449219,0.100098 0.700195,-0.233398 1.216796,-0.483398 1.550781,-0.75 0.0332,0.0332 -0.05078,0.166504 -0.25,0.399902 -0.300781,0.300293 -0.683594,0.550293 -1.150391,0.75 -1.200195,0.566895 -2.783203,0.666992 -4.75,0.300293 -0.766591,-0.133298 -1.783193,-0.366696 -3.049794,-0.700192 l -3.350586,-1 c -2.866211,-0.866699 -5.299805,-1.216797 -7.299805,-1.049805 -2.399414,0.266602 -4.75,0.949707 -7.0498054,2.049805 -2.233398,1 -4.016601,2.200195 -5.349609,3.600098 -1.233399,1.266601 -2,2.549804 -2.300781,3.850097 -0.132813,0.3667 -0.199219,0.799805 -0.199219,1.299805 -0.06738,0.366699 -0.08398,0.566895 -0.05078,0.600098 0.06738,1.799804 0.700196,3.466308 1.900391,5 1.099609,1.299804 2.483398,2.25 4.150391,2.850097 2.5000004,0.866211 5.7333984,1.133301 9.6992184,0.799805 2.433594,-0.233398 5.300782,-0.633301 8.600586,-1.200195 4.632813,-0.799805 7.132813,-1.233399 7.5,-1.299805 2.733399,-0.399902 4.916993,-0.566406 6.549805,-0.5 1.066406,0.06641 2.049805,0.266602 2.950195,0.600098 1.033203,0.366699 1.799805,0.933105 2.299805,1.699707 0.633789,0.833496 0.733398,1.75 0.299805,2.75 -0.233399,0.533691 -0.766602,1.116699 -1.59961,1.75 -1,0.700195 -2.166992,1.166992 -3.5,1.40039 -1.966797,0.366211 -3.683594,0.399902 -5.15039,0.09961 l -1.549807,-0.34961 c 0.133789,0.09961 0.283203,0.183106 0.450195,0.25 1.233399,0.5 2.833008,0.733399 4.799805,0.699707 2.533203,-0.133301 4.849609,-0.699707 6.950195,-1.699707 0.700196,-0.333496 1.283203,-0.700195 1.75,-1.100098 l 0.799805,-0.800292 c 0.333008,-0.333008 0.549805,-0.616211 0.650391,-0.84961 0.399414,-0.666992 0.583007,-1.383789 0.549804,-2.15039 -0.0332,-0.799805 -0.299804,-1.549805 -0.799804,-2.25 -0.933594,-1.5 -2.5,-2.566407 -4.700196,-3.199707 -0.90039,-0.300293 -1.916992,-0.516602 -3.049804,-0.649903 h -0.5 l 0.09961,-0.05029 C 39.583986,76.08321 38.466798,76.050006 37.300783,76.08321 l -4.350586,0.25 c -3.299805,0.200195 -6.333008,0.216796 -9.09961,0.05029 -1.100586,-0.200196 -1.933593,-0.350098 -2.5,-0.450196 -1.033203,-0.266601 -1.783203,-0.5 -2.25,-0.699707 -0.966797,-0.333496 -2.25,-0.90039 -3.850586,-1.700195 -2.36621,-1.200195 -3.516601,-1.883301 -3.449218,-2.049805 0.0332,-0.133301 1.299804,0.299805 3.799804,1.299805 1.632813,0.666504 2.916993,1.133301 3.84961,1.399902 h 0.0498 L 18.900391,72.333207 C 18.600586,71.666703 18.216797,71.033402 17.75,70.433304 17.317383,69.833207 17.083985,69.483597 17.050782,69.3835 l -0.25,-0.649903 0.149414,-0.05029 c 0.166992,0 0.367187,0.0332 0.600586,0.100098 0.299804,0.100098 0.699218,0.350098 1.199218,0.75 0.767578,0.899902 1.28418,1.633301 1.550782,2.200195 l 0.09961,0.5 c 0.09961,0.299805 0.150391,0.666504 0.150391,1.09961 l -0.100586,0.550293 -0.200196,0.5 v 0.0498 l 1.40039,0.350099 c 0.5,0.06689 1.283203,0.183105 2.349609,0.350098 2.733399,0.100097 5.683594,0.0166 8.850586,-0.25 l 4.450196,-0.300293 c 2.266601,-0.06641 4.25,0.116699 5.949218,0.550293 0.133789,-0.100098 0.267578,-0.183594 0.400391,-0.25 0.733398,-0.3667 1.533203,-0.933594 2.400391,-1.700196 1,-0.966797 1.799804,-2.100097 2.399414,-3.399902 0.833984,-1.799805 1.299804,-3.666504 1.40039,-5.600098 0.06641,-0.933105 0.0166,-2.133301 -0.15039,-3.600097 -0.266602,-1.399903 -0.733399,-2.633301 -1.399414,-3.699707 -0.367188,-0.600098 -0.867188,-1.25 -1.5,-1.950196 -0.900391,-1 -2.233399,-2.100097 -4,-3.299804 -2.200196,-1.399903 -3.700196,-2.383301 -4.5,-2.950196 -0.733399,-0.533203 -1.233399,-0.933105 -1.5,-1.199707 l -0.25,0.25 C 36.150391,48.199906 35.716797,48.583207 35.25,48.8835 34.583985,49.283402 34,49.500199 33.5,49.533402 c -0.199219,0.0332 -0.46582,0.0498 -0.799804,0.0498 h -0.34961 c 0,0.03369 0.0166,0.05029 0.0498,0.05029 l 0.5,0.299804 c 0.566406,0.466797 1.016601,1.133301 1.349609,2 0.166992,0.3667 0.317383,0.950196 0.450196,1.75 0.299804,1.600098 0.466796,2.466797 0.5,2.600098 0.200195,0.633301 0.450195,1.100098 0.75,1.399902 0.166992,0.166993 0.450195,0.3667 0.850585,0.600098 l 0.549805,0.200195 0.299805,0.149903 -0.150391,0.0498 c 0.200196,0 0.416993,-0.0498 0.650391,-0.149902 l 0.299805,-0.100098 -0.200196,0.300293 c -0.333007,0.232911 -0.566406,0.3667 -0.699218,0.399903 -0.5,0.199707 -1.016602,0.199707 -1.550782,0 -0.566406,-0.233399 -1.182617,-0.733399 -1.849609,-1.5 -0.333008,-0.3667 -0.966797,-1.216797 -1.900391,-2.550293 -0.599609,-0.766602 -1.016601,-1.266602 -1.25,-1.5 -0.533198,-0.566395 -1.083002,-0.966297 -1.649409,-1.199695 -0.233398,-0.100098 -0.549804,-0.149903 -0.950195,-0.149903 -0.166992,-0.03369 -0.549805,0 -1.150391,0.09961 l -4.649414,1.5 C 21.067383,54.366898 19.767578,54.6335 18.700196,54.6335 17.300782,54.6667 16,54.3835 14.800782,53.783402 c -1.033204,-0.5 -1.516602,-0.850098 -1.450196,-1.049805 0.0332,-0.06689 0.616211,0.0332 1.75,0.299805 1.333008,0.333496 2.5,0.433106 3.5,0.299805 0.833008,-0.06641 2.016602,-0.366699 3.549805,-0.899903 l 1.75,-0.600097 c 0.933594,-0.366699 1.933594,-0.683106 3,-0.949707 C 27.5,50.750199 28.03418,50.683304 28.5,50.683304 c 0.600586,0.0669 1.083985,0.200196 1.450196,0.399903 0.700195,0.300293 1.40039,0.816894 2.100586,1.550293 0.399414,0.433105 0.833007,1.016601 1.299804,1.75 0.132813,0.199707 0.233399,0.399902 0.299805,0.600097 -0.06641,-0.333496 -0.132813,-0.683593 -0.200195,-1.050293 -0.09961,-0.533203 -0.266602,-1.049804 -0.5,-1.549804 l -0.34961,-0.649903 -0.25,-0.350097 L 32.25,51.283402 30.75,50.3835 c -0.533203,-0.5 -0.732422,-1.016602 -0.599609,-1.550293 l 0.200195,-0.34961 0.299805,-0.25 0.400391,-0.15039 2.199218,-0.09961 c 0.400391,0 0.800782,-0.133301 1.200196,-0.40039 0.299804,-0.09961 0.65039,-0.34961 1.049804,-0.75 l 0.800782,-0.799805 c -0.600586,0.100098 -0.966797,0.149902 -1.100586,0.149902 l -1.049805,0.05029 -1.5,-0.15039 c 0,0.03369 0,0.0835 0,0.15039 0,0.633301 -0.150391,1.049805 -0.450195,1.25 -0.166016,0.09961 -0.299805,0.149902 -0.399414,0.149902 -0.13379,-0.0332 -0.266602,-0.100097 -0.400391,-0.200195 -0.200195,-0.199707 -0.299805,-0.600097 -0.299805,-1.199707 0,-0.100098 0.0166,-0.183594 0.0498,-0.25 l -0.150391,-0.05029 c -1.132812,0 -2.649414,0.333496 -4.549804,1 -1.399414,0.5 -3.09961,0.683594 -5.09961,0.550293 l -4.299804,-0.350098 c -0.666993,-0.06689 -1.650391,-0.05029 -2.950196,0.0498 l -1.200195,0.25 c -1.233398,0.333496 -2.083008,0.933594 -2.549805,1.800293 -0.4667974,0.799805 -0.5000004,1.73291 -0.100586,2.799805 0.400391,0.933105 1,1.649902 1.800782,2.149902 0.899414,0.566895 1.766601,0.916992 2.599609,1.050293 0.766602,0.09961 1.700195,0.183106 2.799805,0.25 0.600586,0.0332 1.483398,0.08301 2.65039,0.149902 l 4.899414,0.600098 c 1,0.199707 2.350586,0.433106 4.050782,0.699707 1.466797,0.266602 2.632812,0.566895 3.5,0.899902 l 0.75,0.350098 c 0.399414,0.266602 0.616211,0.416992 0.649414,0.450195 0.299805,0.199707 0.65039,0.566407 1.049805,1.100098 0.367187,0.566406 0.716796,1.283203 1.050781,2.149902 0.366211,0.8667 0.783203,1.8667 1.25,3 0.299805,0.666504 0.632812,1.1167 1,1.350098 0.166015,0.133301 0.266601,0.199707 0.299805,0.199707 l 0.25,0.05029 h 0.149414 l -0.149414,0.04981 h -0.2998 L 38.150391,66.433304 C 37.683594,66.199906 37.25,65.7668 36.850586,65.1335 c -0.200195,-0.333497 -0.700195,-1.333497 -1.5,-3 -0.433594,-0.833497 -0.816406,-1.466797 -1.15039,-1.899903 l -0.549805,-0.65039 -0.25,-0.199707 -1.25,-0.550293 c -0.799805,-0.299805 -1.900391,-0.549805 -3.299805,-0.75 -1.733398,-0.232911 -3.117187,-0.433106 -4.15039,-0.59961 L 20,56.983597 c -2.399414,-0.03369 -4.283203,-0.133301 -5.649414,-0.300293 -1.066406,-0.133301 -2.133789,-0.549805 -3.200195,-1.25 -1.099609,-0.799805 -1.8828134,-1.766601 -2.3496094,-2.899902 -0.567383,-1.533203 -0.5,-2.899902 0.199218,-4.100098 0.700196,-1.199707 1.8505864,-2.033203 3.4501964,-2.5 l 1.450195,-0.25 c 0.200195,-0.0332 0.416992,-0.0498 0.650391,-0.0498 l -0.650391,-0.25 L 11.75,44.233602 c -1.199218,-0.866699 -2.1162114,-1.783691 -2.7500004,-2.75 -0.96582,-1.433594 -1.5,-3.26709 -1.599609,-5.5 -0.132813,-2.90039 0.416992,-5.450195 1.650391,-7.65039 0.0332,-0.06641 0.08301,-0.133301 0.149414,-0.199707 -0.200196,-0.266607 -0.382813,-0.550298 -0.549805,-0.850103 -0.900391,-1.666504 -1.566406,-3.316895 -2,-4.950195 -0.533203,-1.8667 -0.816406,-3.649903 -0.849609,-5.34961 0,-1.76709 0,-2.666992 0,-2.700195 0.233398,-3.433106 1.316406,-6.1166989 3.25,-8.0498049 1.6660154,-1.6000975 3.6660154,-2.4999998 6.0000004,-2.7001951 0.899414,-0.066895 1.533203,-0.25 1.899414,-0.5498047 0.266601,-0.300293 0.466797,-0.5170898 0.600586,-0.6503906 l 0.399414,-0.75 C 18.416993,0.75019893 18.800782,0.26680043 19.100586,0.13349973 19.400391,1.9903317e-4 19.700196,-0.03349247 20,0.03340203 l 0.650391,0.25 c 0.299805,0.2333984 0.549805,0.5166016 0.75,0.85009767 0.09961,0.1665039 0.200195,0.3833008 0.299805,0.6499023 l 0.25,0.8999023 c 0.06738,0.2333984 0.08398,0.3666992 0.0498,0.3999023 L 21.300782,1.9835972 C 20.966797,1.4167028 20.650391,1.0666051 20.350586,0.93330443 h -0.0498 c -0.06739,-0.0332032 -0.133793,-0.0664063 -0.2002,-0.1000977 C 20.067386,0.93330443 20,1.0832067 19.900391,1.283402 19.767578,1.5832067 19.650391,1.9333043 19.550782,2.3332067 19.416992,2.9001012 19.317383,3.5500036 19.25,4.283402 L 19,5.4333041 c -0.0332,0.200196 -0.182617,0.550293 -0.449218,1.050293 -0.200196,0.366699 -0.333985,0.783203 -0.400391,1.25 -0.0332,0.699707 0.0498,1.23291 0.25,1.59961 0.233398,0.533691 0.333008,0.8168939 0.299805,0.8500969 H 18.550782 C 18.216797,10.083207 17.950196,9.9333041 17.75,9.7335971 c -0.566406,-0.366699 -0.866211,-1.050293 -0.899414,-2.050293 0,-0.699707 0.116211,-1.316406 0.34961,-1.850097 L 17.5,5.0334021 17.700196,4.033402 c 0,-0.066895 0.0166,-0.1333008 0.0498,-0.2001953 l -0.0498,0.050293 C 17.367188,4.1501012 16.966797,4.3668981 16.5,4.533402 c -0.09961,0.033203 -0.199218,0.083496 -0.299804,0.1499024 l 0.0498,0.050293 c 0.100586,0.099609 0.166993,0.2329102 0.200196,0.3999027 0.100586,0.566406 0.0166,0.983398 -0.25,1.25 l -0.34961,0.199707 c -0.133789,0 -0.266601,-0.04981 -0.40039,-0.149903 -0.233399,-0.166504 -0.382813,-0.5 -0.450196,-1 0,-0.100097 0.01758,-0.216797 0.05078,-0.350097 0.0332,-0.09961 0.08301,-0.1831059 0.149414,-0.2500004 h -0.0498 c -0.866211,0.066895 -1.716797,0.2836914 -2.549805,0.6503904 -0.966797,0.466309 -1.783203,1.066407 -2.450195,1.799805 -1.6328134,1.666504 -2.5830084,4.0332029 -2.8496094,7.1000979 0,0.06641 -0.0166,0.899902 -0.05078,2.5 0,1.466796 0.216797,3.183105 0.650391,5.149902 0.333008,1.566894 0.833008,3.200195 1.5,4.899902 0.06641,0.200195 0.133789,0.383301 0.200195,0.550293 0.8330084,-1.133301 1.8662114,-2 3.0996104,-2.600097 0.40039,-0.166993 0.783203,-0.300293 1.15039,-0.399903 -0.06641,-0.133301 -0.15039,-0.283691 -0.25,-0.450195 -0.5,-0.766602 -0.950195,-1.700195 -1.350586,-2.799805 C 11.650393,19.666703 11.51758,17.6335 11.850588,15.1335 c 0.166992,-1.133301 0.450195,-2.233399 0.84961,-3.300293 0.367187,-0.966309 0.766601,-1.649903 1.200195,-2.0498049 0.166992,-0.133301 0.333008,-0.233398 0.5,-0.299805 L 14,8.8835001 c -0.432617,-0.533204 -0.799804,-0.899903 -1.099609,-1.100098 l -0.650391,-0.25 -0.149414,-0.100098 0.09961,-0.149902 c 0.166992,-0.166504 0.450195,-0.25 0.850586,-0.25 0.566406,-0.0669 1.216796,0.266601 1.949218,1 l 0.950196,1.200195 c 0.466797,0.59961 0.867187,1.0166019 1.200195,1.2499999 L 17.5,10.683304 c 0.166993,0.06689 0.433594,0.05029 0.800782,-0.04981 0.0332,0 0.116211,-0.0332 0.25,-0.100097 0.06641,-0.133301 0.116211,-0.25 0.149414,-0.350098 0.266601,-0.5664009 0.416992,-0.8666939 0.450195,-0.8998969 1.700195,-2.966797 3.833008,-4.916504 6.400391,-5.8500977 2.166015,-0.7666016 4.349609,-0.7333985 6.549804,0.1000976 0.966797,0.3334961 1.616211,0.4331055 1.950196,0.2998047 0.06641,0 0.349609,-0.099609 0.849609,-0.2998047 l 0.700195,-0.5 c 0.700196,-0.5332031 1.25,-0.8168945 1.649414,-0.8500977 0.333985,0 0.633789,0.1000977 0.900391,0.300293 l 0.400391,0.5498047 c 0.199218,0.3334961 0.299804,0.6831055 0.299804,1.0498047 0.06641,0.300293 0.06641,0.550293 0,0.75 l -0.25,1.3002934 L 38.5,5.6833041 38.400391,4.8332067 C 38.333985,4.1667028 38.216797,3.7165075 38.050782,3.4835973 37.983399,3.4167028 37.916993,3.3502965 37.850586,3.283402 Z"
     id="path2"
     style="clip-rule:evenodd;fill:#cc00ff;fill-rule:evenodd"
     inkscape:connector-curvature="0" /><path
     style="fill:#ccc7ff;fill-opacity:1;stroke:none;stroke-width:0.13241525;stroke-opacity:1"
     d="m 36.5398,88.764853 c -0.50333,-0.06457 -1.099198,-0.175372 -1.324152,-0.246214 -0.351555,-0.110712 -0.320814,-0.118651 0.218841,-0.05652 1.177392,0.135558 3.474755,0.06757 4.633381,-0.137121 3.972544,-0.701814 6.432453,-3.137691 5.477273,-5.423759 -0.632198,-1.513066 -2.447616,-2.532513 -5.070302,-2.847231 -2.226726,-0.267204 -4.393791,-0.02929 -13.017247,1.429124 -8.300568,1.403805 -9.404561,1.531429 -13.241525,1.530746 -2.866202,-5.09e-4 -3.403229,-0.03519 -4.6093644,-0.297645 -3.241708,-0.705399 -5.254612,-1.946394 -6.66902,-4.111578 -1.684084,-2.578004 -1.785134,-5.514227 -0.278353,-8.088128 0.644466,-1.100883 2.335685,-2.813037 3.656212,-3.701471 3.564232,-2.397971 8.7628414,-4.049106 11.9391904,-3.792019 2.145905,0.173685 3.540191,0.476433 7.036064,1.527771 4.160038,1.251078 6.720123,1.658885 8.324106,1.325982 0.899798,-0.186752 2.129091,-0.764175 2.499077,-1.173864 0.247714,-0.274298 0.24864,-0.273671 0.758702,0.515495 0.564247,0.873001 1.168815,1.320628 1.774,1.313485 l 0.397246,-0.0047 -0.413252,-0.17986 c -0.644909,-0.280682 -1.040293,-0.924093 -2.042267,-3.32339 -1.182913,-2.832573 -1.481837,-3.37339 -2.274223,-4.114575 -1.191898,-1.114882 -2.597874,-1.571761 -7.253838,-2.357174 -3.171856,-0.535059 -6.61633,-0.960467 -8.6732,-1.071179 -2.472658,-0.133092 -4.042983,-0.336593 -4.818178,-0.624396 -2.186231,-0.81167 -3.484631,-2.341378 -3.496733,-4.119671 -0.0068,-1.005627 0.324457,-1.713404 1.121279,-2.395453 1.276832,-1.092921 3.419645,-1.328666 8.514819,-0.936771 3.627616,0.279018 4.785687,0.191267 7.10933,-0.538693 1.699767,-0.533974 3.099327,-0.852837 3.743285,-0.852837 0.424876,0 0.440299,0.01931 0.524934,0.65732 0.183676,1.384623 1.306381,1.294516 1.590593,-0.127659 l 0.06616,-0.331038 h 1.655525 1.655525 l -0.471499,0.482858 c -0.259325,0.265572 -0.770294,0.645483 -1.135487,0.844247 -0.573941,0.312377 -0.861179,0.370734 -2.117997,0.430305 -1.293504,0.06131 -1.496441,0.104622 -1.838404,0.392365 -0.301852,0.253991 -0.384397,0.433075 -0.384397,0.833955 0,0.633861 0.302936,0.998446 1.455218,1.751367 0.550791,0.359896 0.962815,0.747799 1.147509,1.08033 0.336139,0.6052 0.752181,1.863495 0.683888,2.068376 -0.02594,0.07782 -0.338042,-0.254663 -0.693558,-0.738852 -0.704234,-0.959118 -1.606008,-1.737639 -2.651426,-2.289032 -0.586338,-0.309257 -0.818592,-0.352506 -1.861652,-0.346666 -1.135095,0.0064 -1.3448,0.05845 -4.412126,1.095976 -1.771215,0.599117 -3.6372,1.176982 -4.146634,1.284145 -1.341674,0.28223 -2.702549,0.240509 -4.584533,-0.14055 -0.911042,-0.184465 -1.687827,-0.304004 -1.726189,-0.265642 -0.271607,0.271607 1.693926,1.372431 3.079241,1.724573 1.013729,0.257685 3.193689,0.255887 4.308779,-0.0036 0.473385,-0.11014 2.171611,-0.625018 3.773835,-1.144172 4.8574,-1.5739 5.235453,-1.455199 8.267161,2.595713 2.415351,3.227348 3.465742,3.898688 5.010241,3.202216 0.678675,-0.306039 0.883362,-0.672529 0.30462,-0.545416 -0.518365,0.113852 -1.757366,-0.472611 -2.186157,-1.034785 -0.453973,-0.59519 -0.558079,-0.924152 -0.994057,-3.141107 -0.513308,-2.610178 -1.121795,-3.944564 -2.059647,-4.516722 l -0.397246,-0.242349 0.728284,-5.95e-4 c 0.92696,-7.68e-4 2.053517,-0.517738 3.009929,-1.381251 l 0.69266,-0.625381 0.631492,0.527361 c 0.34732,0.290049 1.793435,1.287882 3.213589,2.217408 1.420153,0.929525 2.939618,1.959716 3.376589,2.289312 3.00712,2.268198 4.666203,4.468315 5.387933,7.144961 0.365896,1.356984 0.404228,5.137689 0.06699,6.607562 -0.885899,3.861282 -2.676429,6.555092 -5.450498,8.200146 l -0.790062,0.468516 -1.262374,-0.205195 c -2.275175,-0.369821 -3.811482,-0.387716 -7.883137,-0.09182 -5.7621,0.41874 -9.201915,0.48691 -10.990466,0.217811 -1.977487,-0.297528 -2.793846,-0.523288 -2.72928,-0.754772 0.144088,-0.516593 0.157815,-1.573214 0.02676,-2.05991 -0.290111,-1.077392 -1.613321,-2.755934 -2.548706,-3.233132 -0.462773,-0.236092 -1.170915,-0.3466 -1.170915,-0.182728 0,0.167584 0.568321,1.163303 1.106495,1.938619 0.319478,0.460254 0.679744,1.031077 0.80059,1.268493 0.236501,0.464631 0.755441,2.047932 0.692016,2.111358 -0.0628,0.0628 -1.711674,-0.525929 -4.261567,-1.521597 -1.314911,-0.513385 -2.625822,-0.971731 -2.913135,-1.01849 l -0.522387,-0.08502 0.39262,0.333579 c 0.495962,0.421383 3.169078,1.857132 4.903991,2.633968 1.986814,0.889629 3.501463,1.38873 5.351089,1.763266 1.546209,0.313098 1.935407,0.337875 5.374546,0.342168 2.039195,0.0025 5.299502,-0.09366 7.245129,-0.213788 3.192612,-0.197122 3.72837,-0.199056 5.495233,-0.01985 3.627683,0.367952 5.919315,1.219374 7.442712,2.765234 1.643796,1.668033 2.095745,3.366708 1.346435,5.060648 -0.342769,0.774887 -1.584511,2.072964 -2.520998,2.63537 -1.669577,1.00266 -4.18551,1.778268 -6.65557,2.051768 -1.456636,0.161288 -2.15915,0.15956 -3.469358,-0.0085 z"
     id="path812"
     inkscape:connector-curvature="0" /><path
     style="fill:#62c7ff;fill-opacity:1;stroke:none;stroke-width:0.13241525;stroke-opacity:1"
     d="m 19.77751,45.877498 c -0.983184,-0.128479 -2.466258,-0.278284 -3.295721,-0.332903 l -1.508114,-0.09931 -1.388734,-0.958 c -2.39022,-1.648861 -3.533417,-2.986312 -4.2037954,-4.918109 -1.359979,-3.918993 -0.348218,-9.465104 2.1821364,-11.961679 0.805647,-0.794892 2.028708,-1.46031 3.169312,-1.724293 1.119319,-0.259057 3.181457,-0.103426 4.316632,0.325779 1.790855,0.677115 3.603725,1.934894 4.538705,3.148979 0.972563,1.262887 1.237095,1.95226 1.366402,3.56087 0.138757,1.726154 0.308362,2.175824 1.117153,2.961879 l 0.615922,0.598608 h -1.124375 c -1.078726,0 -1.153143,-0.01978 -1.832863,-0.487104 -2.349349,-1.615243 -2.378352,-1.63154 -2.903701,-1.63154 -0.338269,0 -0.609292,0.08999 -0.777454,0.258156 -0.255931,0.255931 -0.260558,0.254269 -0.536899,-0.192859 -0.153308,-0.248058 -0.571076,-0.713848 -0.928372,-1.035088 -1.962894,-1.76481 -4.056918,-1.453882 -4.686655,0.69589 -0.422901,1.443681 -0.195737,2.870187 0.747821,4.696034 1.086818,2.103067 3.796219,4.317274 5.282806,4.317274 0.281528,0 0.51187,-0.05112 0.51187,-0.113594 0,-0.06248 -0.349437,-0.329279 -0.776526,-0.592894 -2.027443,-1.251409 -4.369434,-4.770142 -4.383111,-6.585421 -0.0065,-0.858246 0.345865,-1.973317 0.629544,-1.992407 1.100315,-0.07404 2.249654,0.76006 3.919721,2.844636 1.158891,1.446528 1.156182,1.441467 1.533276,2.864468 0.164045,0.619042 0.446798,1.379673 0.628341,1.690294 0.44469,0.760869 1.321164,1.641673 1.911563,1.921008 0.892234,0.422141 1.874005,0.233805 2.227857,-0.427373 0.122541,-0.22897 0.07996,-0.240634 -0.640143,-0.175338 -0.74962,0.06797 -0.78512,0.05625 -1.256429,-0.415062 -0.692781,-0.692782 -1.218081,-1.824457 -1.482647,-3.194121 -0.126106,-0.652857 -0.345109,-1.380671 -0.486673,-1.617363 -0.141565,-0.236693 -0.223632,-0.43035 -0.182371,-0.43035 0.04126,0 0.38085,0.18818 0.754645,0.418179 0.824333,0.507217 1.519943,0.593839 3.090452,0.384844 0.861415,-0.114633 1.271571,-0.115839 1.608242,-0.0047 0.500898,0.165311 0.495714,0.150734 0.272654,0.766535 l -0.159127,0.4393 -0.436837,-0.480049 c -0.240259,-0.264028 -0.506743,-0.455912 -0.592186,-0.426409 -0.09234,0.03188 -0.153297,0.325932 -0.150287,0.72498 0.0082,1.083155 0.798897,2.492006 2.178072,3.880703 0.619985,0.624266 1.500872,1.37538 1.957526,1.66914 l 0.830281,0.534112 -1.359942,0.07412 c -0.918718,0.05007 -1.875477,0.212683 -2.948925,0.501197 -3.192103,0.857953 -4.206831,0.929615 -7.349046,0.519005 z m 3.813559,-11.278472 c 0.441896,-0.441897 -0.08903,-1.829684 -0.83632,-2.18604 -0.428848,-0.204503 -0.471254,-0.203034 -0.723284,0.02505 -0.323741,0.292982 -0.340958,0.735181 -0.05231,1.343467 0.383864,0.808935 1.204362,1.225071 1.611911,0.817523 z"
     id="path814"
     inkscape:connector-curvature="0" /><path
     style="fill:#ccc7c8;fill-opacity:1;stroke:none;stroke-width:0.13241525;stroke-opacity:1"
     d="m 9.2039456,26.22844 c -1.424027,-3.940979 -1.948841,-6.995538 -1.839434,-10.706017 0.07989,-2.70936 0.4164,-4.25549 1.318034,-6.0558129 1.009552,-2.015806 3.0928444,-3.796211 5.0526434,-4.318044 1.131158,-0.3011926 1.275371,-0.2654466 1.275371,0.316124 0,1.228363 1.128271,1.571413 1.452305,0.441573 0.07002,-0.244142 0.06891,-0.583937 -0.0027,-0.83369 -0.0665,-0.2318684 -0.107029,-0.4267144 -0.09007,-0.4329908 0.01696,-0.00628 0.314949,-0.1440395 0.662193,-0.3061403 l 0.631354,-0.2947287 -0.07978,0.3635779 c -0.04388,0.1999678 -0.223711,0.7961099 -0.399627,1.3247599 -0.71535,2.149722 -0.251302,3.910798 1.169825,4.4395259 0.3795,0.141192 0.264543,0.341199 -0.251785,0.438062 -0.636668,0.11944 -0.990304,-0.09909 -1.87335,-1.1576159 -1.871527,-2.243452 -2.51848,-2.682723 -3.563066,-2.419269 -0.644039,0.162432 -0.695754,0.412938 -0.133724,0.647769 0.415073,0.173428 1.683948,1.417809 1.683948,1.651441 0,0.0531 -0.232691,0.34115 -0.51709,0.640116 -0.912985,0.9597459 -1.744917,3.5503789 -1.995485,6.2139269 -0.248436,2.640897 0.162505,4.713391 1.395644,7.038634 0.650256,1.226142 0.682701,1.342308 0.374907,1.342308 -0.48695,0 -2.146747,1.033867 -2.994073,1.86497 l -0.8891694,0.872145 z"
     id="path816"
     inkscape:connector-curvature="0" /><path
     style="fill:#9bc7ff;fill-opacity:1;stroke:none;stroke-width:0.13241525;stroke-opacity:1"
     d="m 22.492022,26.250326 c -1.577564,-1.12954 -3.904566,-2.085622 -5.076182,-2.085622 -0.221882,0 -0.428319,-0.04469 -0.458749,-0.09931 -0.08935,-0.160376 0.285225,-3.971496 0.510814,-5.197298 0.644448,-3.501796 2.102242,-7.422282 3.618942,-9.7325219 2.445474,-3.72495 5.961866,-5.3710841 9.714233,-4.5475391 0.652771,0.143266 0.731577,0.2208876 0.479839,0.4726251 -0.233879,0.23388 -0.208913,1.191521 0.03749,1.437922 0.51164,0.511638 1.435798,-0.173249 1.435798,-1.064059 0,-0.321453 0.03529,-0.337614 0.7373,-0.337614 h 0.737301 l -0.301854,0.43035 c -0.166019,0.236692 -0.614445,0.760809 -0.996501,1.164704 -0.670501,0.708826 -1.226634,1.673522 -1.232661,2.138231 -0.0026,0.203752 -0.05971,0.199153 -0.623499,-0.05024 -0.512299,-0.226614 -0.782896,-0.26091 -1.550705,-0.19654 -0.791886,0.06639 -1.038386,0.15257 -1.658668,0.579897 -1.024622,0.70589 -1.882166,1.8350249 -2.794761,3.6798859 -0.928881,1.877786 -1.567052,3.749726 -2.053974,6.024895 -0.499319,2.333095 -0.487567,3.751551 0.05094,6.148041 0.227964,1.0145 0.400379,1.856541 0.383143,1.871202 -0.01723,0.01466 -0.448445,-0.271994 -0.958244,-0.637011 z"
     id="path818"
     inkscape:connector-curvature="0" /><path
     style="fill:#ccdaff;fill-opacity:1;stroke:none;stroke-width:0.13241525;stroke-opacity:1"
     d="m 32.814876,43.907009 c -1.420299,-0.875596 -2.860709,-2.12895 -3.956397,-3.442611 -0.81901,-0.981941 -0.891392,-1.115285 -0.747743,-1.377495 0.08748,-0.159673 0.274145,-0.498868 0.414823,-0.753767 0.507495,-0.919553 0.390577,-1.236612 -0.927452,-2.515085 -0.651001,-0.631464 -1.214739,-1.292183 -1.25275,-1.468264 -0.03801,-0.17608 -0.08763,-0.975602 -0.110256,-1.776715 -0.03711,-1.313816 -0.08232,-1.544088 -0.461321,-2.349581 l -0.420177,-0.893014 0.248381,-1.447673 c 0.430955,-2.511792 1.311206,-4.138596 3.302025,-6.102514 1.268551,-1.251411 2.428475,-1.949316 4.020609,-2.419128 1.46291,-0.431681 4.189513,-0.395138 5.974993,0.08008 2.221229,0.591193 4.73243,1.838195 6.88535,3.419099 0.690458,0.507008 0.873343,0.708759 0.799165,0.881604 -0.244702,0.570194 -0.216844,0.919409 0.09051,1.134692 0.382805,0.268126 0.826957,0.276053 1.040648,0.01857 0.139599,-0.168206 0.268693,-0.102202 0.899167,0.45973 0.40489,0.360873 1.187949,0.894302 1.74013,1.185396 l 1.003963,0.529263 -0.888569,0.0041 c -0.823398,0.0038 -0.99088,-0.04929 -2.283549,-0.724162 -1.15929,-0.605236 -1.509086,-0.728283 -2.070344,-0.728283 -1.231448,0 -1.905605,0.730514 -1.521819,1.649041 0.219031,0.524214 0.760212,0.947863 2.004953,1.569521 0.513991,0.256701 1.012879,0.561135 1.108639,0.67652 0.230922,0.278243 0.117262,0.264576 -0.415928,-0.05001 -0.242184,-0.142892 -1.035115,-0.417696 -1.762071,-0.610676 -1.980874,-0.525851 -2.247933,-0.695241 -3.807311,-2.414899 -1.164858,-1.284589 -2.157267,-2.034838 -3.354527,-2.535984 -3.220803,-1.348154 -6.307823,-0.365671 -7.606898,2.420991 -0.73059,1.567198 -0.85478,2.301125 -0.844268,4.989355 l 0.0096,2.449683 0.628378,2.383474 c 0.947195,3.592764 1.328566,4.498495 2.825266,6.709831 0.541848,0.800566 0.836836,1.359119 0.786739,1.489671 -0.04408,0.114877 -0.129201,0.208867 -0.189152,0.208867 -0.05995,0 -0.583207,-0.29234 -1.16279,-0.649644 z"
     id="path820"
     inkscape:connector-curvature="0" /><path
     style="fill:#cce1ff;fill-opacity:1;stroke:none;stroke-width:0.13241525;stroke-opacity:1"
     d="m 41.559981,49.515169 c -1.456478,-0.829613 -3.019032,-1.6739 -3.47234,-1.876195 -0.453309,-0.202295 -0.8258,-0.428436 -0.827758,-0.502537 -0.002,-0.0741 0.266658,-0.416725 0.596923,-0.761388 0.818275,-0.853944 1.108761,-0.839172 1.998417,0.101625 0.378782,0.400556 0.731364,0.728284 0.783517,0.728284 0.201044,0 -0.04872,-1.160286 -0.350579,-1.628622 -0.338448,-0.525102 -1.177445,-1.019683 -1.72977,-1.019683 -0.184645,0 -0.613363,0.147625 -0.952707,0.328056 -0.443283,0.235697 -0.924155,0.35234 -1.708016,0.41431 l -1.091027,0.08625 0.463453,-0.492506 c 0.59793,-0.635411 1.738172,-1.210337 3.046004,-1.535838 0.885289,-0.220336 1.181047,-0.238559 1.995979,-0.122981 1.216869,0.172583 1.563319,0.347005 1.869475,0.941194 0.282471,0.54822 0.336329,1.041952 0.186062,1.705664 l -0.104928,0.463454 0.357464,-0.347765 c 0.306742,-0.29842 0.358515,-0.459285 0.364868,-1.133703 0.01324,-1.405631 -0.236212,-1.787867 -3.613211,-5.536541 -1.526192,-1.694166 -1.785354,-2.204621 -1.781547,-3.509004 0.0034,-1.174024 0.20875,-1.841036 0.759969,-2.468841 0.549968,-0.626379 1.233517,-0.948175 2.398951,-1.129361 1.336343,-0.207756 2.490895,-0.0025 4.364415,0.775764 0.812902,0.337697 1.497661,0.629029 1.521688,0.647405 0.02403,0.01838 -0.05252,0.180237 -0.170103,0.359692 -0.486025,0.741767 -0.494438,1.808209 -0.01571,1.991912 0.482358,0.185098 1.400078,-0.820714 1.400078,-1.534472 0,-0.319851 0.04257,-0.374975 0.231726,-0.300072 0.453206,0.17946 2.118997,0.274009 3.219362,0.182729 0.614481,-0.05097 1.355585,-0.09392 1.646899,-0.09542 0.461463,-0.0024 0.497352,0.01757 0.278727,0.15499 -0.138012,0.08675 -0.525327,0.366286 -0.860699,0.621186 l -0.609765,0.463453 -1.588983,0.01675 c -1.895329,0.01998 -2.494612,0.20823 -2.773359,0.871174 -0.260314,0.619105 0.01093,1.192156 0.970598,2.050577 0.632975,0.566194 0.810688,0.823101 1.00757,1.456568 0.131474,0.423019 0.267737,0.858505 0.302804,0.967748 0.03507,0.109242 -0.37608,-0.250868 -0.913664,-0.800246 -3.03675,-3.103373 -4.844554,-4.132388 -6.498582,-3.699039 -0.670296,0.175615 -1.496173,0.684092 -1.685403,1.037671 -0.12759,0.238405 -0.06429,0.24901 1.394276,0.233592 1.370019,-0.01448 1.547474,0.01041 1.716985,0.240883 0.103977,0.14137 0.18905,0.392915 0.18905,0.558989 0,0.562617 0.649814,1.775105 2.047721,3.820842 1.666103,2.438222 2.139979,3.592574 2.005624,4.885658 -0.09151,0.880673 -0.522846,1.919818 -1.061013,2.556095 -0.360646,0.426393 -1.707229,1.165851 -2.330256,1.279629 -0.245193,0.04478 -1.017759,-0.330703 -2.979181,-1.447931 z"
     id="path822"
     inkscape:connector-curvature="0" /></svg>