<?xml version="1.0" encoding="UTF-8" standalone="no"?>
<svg
   xmlns:dc="http://purl.org/dc/elements/1.1/"
   xmlns:cc="http://creativecommons.org/ns#"
   xmlns:rdf="http://www.w3.org/1999/02/22-rdf-syntax-ns#"
   xmlns:svg="http://www.w3.org/2000/svg"
   xmlns="http://www.w3.org/2000/svg"
   xmlns:sodipodi="http://sodipodi.sourceforge.net/DTD/sodipodi-0.dtd"
   xmlns:inkscape="http://www.inkscape.org/namespaces/inkscape"
   version="1.1"
   x="0px"
   y="0px"
   viewBox="0 0 100 125"
   enable-background="new 0 0 100 100"
   xml:space="preserve"
   id="svg8"
   sodipodi:docname="Hydra.svg"
   inkscape:version="0.92.2 (5c3e80d, 2017-08-06)"><metadata
     id="metadata14"><rdf:RDF><cc:Work
         rdf:about=""><dc:format>image/svg+xml</dc:format><dc:type
           rdf:resource="http://purl.org/dc/dcmitype/StillImage" /></cc:Work></rdf:RDF></metadata><defs
     id="defs12" /><sodipodi:namedview
     pagecolor="#ffffff"
     bordercolor="#666666"
     borderopacity="1"
     objecttolerance="10"
     gridtolerance="10"
     guidetolerance="10"
     inkscape:pageopacity="0"
     inkscape:pageshadow="2"
     inkscape:window-width="1920"
     inkscape:window-height="1017"
     id="namedview10"
     showgrid="false"
     inkscape:zoom="7.552"
     inkscape:cx="50"
     inkscape:cy="80.996686"
     inkscape:window-x="-8"
     inkscape:window-y="-8"
     inkscape:window-maximized="1"
     inkscape:current-layer="svg8" /><path
     fill-rule="evenodd"
     clip-rule="evenodd"
     d="M44.2753906,37.4414063c0.2333984-0.1665039,0.5-0.1499023,0.7998047,0.050293  c0.2666016,0.1665039,0.3994141,0.2998047,0.3994141,0.3999023c0.5673828,0.8999023,0.6337891,1.4833984,0.2001953,1.75  c-0.4667969,0.2333984-0.9667969-0.0834961-1.5-0.9501953l-0.1494141-0.449707  C43.9580078,37.875,44.0419922,37.6083984,44.2753906,37.4414063z M37.0253906,15.0415039l-0.0507813-0.1000977  c-0.0664063,0.0668945-0.1328125,0.1669922-0.1992188,0.300293l-0.6503906,2c-0.2333984,1-0.4003906,2.0332031-0.5,3.0996094  c-0.2666016,2.2001953-0.2333984,4.050293,0.0996094,5.550293l0.8505859,2.949707  c0.0332031,0.1669922,0.0664063,0.3334961,0.0996094,0.5c0.6337891-0.1665039,1.2998047-0.2329102,2-0.199707  C38.6416016,29.074707,38.625,29.0249023,38.625,28.9916992c-0.1328125-0.4667969-0.2167969-1.0336914-0.25-1.7001953  c-0.0996094-1.6665039,0.0166016-3.4501953,0.3496094-5.3500977c0.3339844-1.7333984,0.7675781-3.2998047,1.3007813-4.699707  c-0.2333984,0-0.4667969-0.0336914-0.7001953-0.1000977c-0.5332031-0.2666016-0.8164063-0.3999023-0.8505859-0.3999023  C38.0419922,16.4082031,37.5585938,15.8413086,37.0253906,15.0415039z M50.0253906,43.6416016  c0.1660156-0.3999023,0.25-0.7167969,0.25-0.9501953c-0.0332031,0.0332031-0.0673828,0.0668945-0.1005859,0.1000977  c-0.0664063,0-0.1826172-0.0498047-0.3496094-0.1499023c-0.2001953-0.1000977-0.4003906-0.1499023-0.6005859-0.1499023  c-0.8994141,0.1333008-1.6992188,0.2329102-2.3994141,0.2998047c-0.2001953,0.0668945-0.4833984,0.0332031-0.8505859-0.1000977  c-0.3330078-0.1000977-0.5830078-0.2167969-0.75-0.3500977l-1.0498047-0.6499023  c-0.0996094-0.0664063-0.1660156-0.1166992-0.2001953-0.1499023l0.0507813,0.1000977L44.625,42.5913086l0.0498047,0.1503906  L45.125,45.0415039l0.0996094,0.25c0.6005859,1.3334961,1.2167969,2.1166992,1.8505859,2.3500977  c0.2666016,0.0664063,0.6328125,0.0332031,1.0996094-0.1000977l0.25-0.0498047l-0.0996094,0.25  c-0.0664063,0.0996094-0.1835938,0.2163086-0.3505859,0.3496094c-0.3330078,0.2333984-0.6992188,0.3168945-1.0996094,0.25  c-1.0664063-0.1665039-2.0166016-1.0166016-2.8496094-2.5498047L43.875,45.4916992l-0.5996094-2.3500977l-0.9501953-1.25  c-0.1337891-0.1000977-0.3505859-0.3666992-0.6503906-0.800293c-0.5332031-0.6665039-1.0996094-1.2163086-1.7001953-1.6499023  c-0.2998047-0.2666016-0.6494141-0.4667969-1.0498047-0.6000977c-0.3330078-0.1333008-0.5830078-0.1665039-0.75-0.0996094  c-0.2666016,0.0332031-0.3994141,0.1665039-0.3994141,0.3999023c-0.0673828,0.1000977-0.1503906,0.3500977-0.25,0.75  l-0.1005859,0.8500977c0,0.4663086,0.1171875,0.9663086,0.3505859,1.5c0.3330078,0.8999023,0.7666016,1.699707,1.2998047,2.3999023  c0.7333984,1.0664063,1.5,1.8999023,2.2998047,2.5c0.4003906,0.2998047,0.7666016,0.5332031,1.0996094,0.699707l0.2001953,0.1503906  L42.375,48.0415039c-0.2998047,0.1000977-0.7666016,0-1.4003906-0.2998047  c-1.0332031-0.4667969-2.0166016-1.2333984-2.9492188-2.300293c-0.7001953-0.8330078-1.2333984-1.7167969-1.6005859-2.6499023  C36.125,42.0581055,35.9746094,41.375,35.9746094,40.7416992c-0.0332031-0.2333984-0.0166016-0.6000977,0.0507813-1.1000977  c0.1660156-0.7001953,0.2998047-1.1333008,0.3994141-1.300293c0.0673828-0.0996094,0.1835938-0.2163086,0.3505859-0.3496094  c0.2998047-0.3666992,0.6826172-0.6000977,1.1494141-0.7001953c1-0.1000977,1.9667969,0.2832031,2.9003906,1.1499023  c0.5332031,0.5,0.9335938,1.0332031,1.2001953,1.6000977c0.0332031-0.0668945,0.0664063-0.1333008,0.0996094-0.2001953  c0.0996094-0.199707,0.2832031-0.3330078,0.5498047-0.3999023c0.2666016-0.0664063,0.4833984-0.0830078,0.6503906-0.0498047  l0.5498047,0.25l1.2001953,0.7998047c0.8994141,0.7333984,1.4833984,1.1000977,1.75,1.1000977  s0.7001953-0.0166016,1.2998047-0.0498047c0.5,0,0.9169922,0.0664063,1.25,0.199707  c-0.2001953-0.1665039-0.3828125-0.2998047-0.5498047-0.3999023c-0.5664063-0.4331055-0.9833984-0.8833008-1.25-1.3500977  c-0.1669922-0.3330078-0.2832031-0.9667969-0.3505859-1.8999023c0-0.7666016-0.0498047-1.2998047-0.1494141-1.6000977  c-0.7001953-1.8666992-2.0498047-3.3500977-4.0498047-4.449707c-0.5-0.300293-0.8505859-0.4833984-1.0507813-0.550293  L41.125,31.0913086c-0.2998047-0.1333008-0.5830078-0.199707-0.8496094-0.199707  c-1.6669922-0.3999023-3.2333984-0.2666016-4.7001953,0.3999023c-1.3330078,0.6333008-2.3330078,1.5668945-3,2.7998047  c-1.1005859,1.8334961-1.6503906,4.1333008-1.6503906,6.9003906c0.0673828,2.0332031,0.4833984,3.699707,1.25,5  c0.4335938,0.8666992,1.2001953,1.75,2.2998047,2.6499023L36.375,49.9414063  c0.2666016,0.2001953,0.5830078,0.4169922,0.9501953,0.6499023c0.6669922-0.0332031,1.3662109-0.0166016,2.0996094,0.050293  c0.9003906,0.0664063,2.3339844,0.2333984,4.2998047,0.5c1.8007813,0.1333008,3.3173828-0.0166016,4.5507813-0.4501953  c2.1992188-0.6333008,3.8496094-0.9165039,4.9492188-0.8500977l1.1005859,0.2001953  c-0.1669922-0.1000977-0.3330078-0.1831055-0.5-0.25c-1.2998047-0.7001953-2.4003906-1.5498047-3.2998047-2.5498047  c-0.5673828-0.6333008-1.0166016-1.300293-1.3505859-2c-0.2666016-0.5-0.4326172-1-0.5-1.5  c-0.0664063-0.4667969-0.0166016-0.7167969,0.1503906-0.75c0.1328125-0.0336914,0.3330078,0.1166992,0.5996094,0.449707  c0.1005859,0.1333008,0.25,0.3168945,0.4501953,0.550293C49.9082031,43.8916016,49.9580078,43.7749023,50.0253906,43.6416016z   M66.2246094,37.4916992l-0.6494141-0.2001953c-1.0664063-0.2666016-2.1669922-0.2666016-3.2998047,0  c-1.0673828,0.2666016-1.7666016,0.7832031-2.1005859,1.5498047c-0.3662109,0.6669922-0.5166016,1.4833984-0.4501953,2.4501953  l0.25,1.0498047l0.25,0.4501953l0.3007813,0.3999023C61.125,43.9580078,61.9921875,44.9248047,63.125,46.0913086  c0.8330078,0.8666992,1.4003906,1.6000977,1.7001953,2.2001953c0.3330078,0.7333984,0.4501953,1.3334961,0.3496094,1.7998047  c0,0.0668945-0.0332031,0.2670898-0.0996094,0.6000977c-0.0332031,0.1333008-0.1171875,0.2333984-0.25,0.300293  l-0.3505859,0.3496094L64.625,50.8916016c0.2998047-0.6669922,0.1503906-1.3999023-0.4501953-2.2001953  c-0.0332031-0.0664063-0.0664063-0.1166992-0.0996094-0.1499023c-0.1005859-0.0332031-0.2001953-0.0668945-0.2998047-0.1000977  l-0.5-0.1499023l-0.6005859-0.1000977c-1-0.1333008-1.5830078-0.1166992-1.75,0.050293  c-0.9326172,0.0996094-1.8828125,0.449707-2.8496094,1.0498047c-0.4667969,0.3666992-0.8330078,0.7333984-1.1005859,1.1000977  c0.1337891,0,0.2841797,0,0.4501953,0c0.2001953,0.0332031,0.7333984,0,1.6005859-0.1000977L59.375,50.2416992  c0.5-0.4003906,0.9833984-0.6000977,1.4501953-0.6000977c0.7001953,0,1.25,0.3164063,1.6494141,0.949707  c0.2333984,0.3666992,0.3837891,0.7333984,0.4501953,1.1000977c0.0332031,0.2666016,0,0.4169922-0.0996094,0.4501953  c-0.0664063,0.0332031-0.1835938-0.0668945-0.3505859-0.300293c-0.2324219-0.3330078-0.4492188-0.5830078-0.6494141-0.75  c-0.2998047-0.2998047-0.6171875-0.4331055-0.9501953-0.3999023c-0.2333984,0.0332031-0.5498047,0.2832031-0.9501953,0.75  l-0.6494141,0.800293c0.3662109,0.1333008,0.9326172,0.3833008,1.6992188,0.75  c0.8339844,0.4663086,2.3837891,1.3330078,4.6503906,2.5996094c0.2998047,0.1669922,0.5830078,0.3334961,0.8496094,0.5  c0.1669922-0.0332031,0.3339844-0.0664063,0.5-0.0996094c1.1337891-0.3334961,1.9667969-0.9003906,2.5-1.7001953  c0.4667969-0.7333984,0.7167969-1.4833984,0.75-2.25c0.0673828-0.5,0-1-0.1992188-1.5  c-0.0673828-0.3334961-0.1503906-0.6000977-0.25-0.7998047c-0.1669922-0.4003906-0.3007813-0.6669922-0.4003906-0.800293  l-2.0996094-3.0498047c-0.6005859-0.9335938-0.9833984-1.7167969-1.1503906-2.3500977  c-0.0332031-0.3334961-0.0498047-0.5668945-0.0498047-0.7001953c-0.0664063-0.0332031-0.1171875-0.0664063-0.1503906-0.0996094  c-0.7333984-0.300293-1.4160156-0.3833008-2.0498047-0.25l-0.9003906,0.199707h-0.1992188  c-0.0332031-0.0332031-0.0166016-0.1000977,0.0498047-0.199707c0.0664063-0.1333008,0.1494141-0.2333984,0.25-0.300293  C63.2080078,42.0249023,63.3916016,41.875,63.625,41.7416992c0.7666016-0.4667969,1.6835938-0.550293,2.75-0.25  c0.9667969,0.3999023,1.6337891,0.7998047,2,1.199707l1.9501953,1.75c0.0332031,0.0332031,0.5996094,0.6166992,1.7001953,1.75  c-0.0332031-0.1665039-0.0673828-0.2998047-0.1005859-0.3999023c-0.1328125-0.5332031-0.2666016-0.9667969-0.3994141-1.2998047  c-0.1337891-0.4003906-0.4003906-0.75-0.8007813-1.050293l-0.75-0.6000977l-0.1992188-0.3496094  c-0.1669922-0.2333984-0.25-0.4667969-0.25-0.7001953c0.0664063-0.3334961,0.1660156-0.5834961,0.2998047-0.75l0.5-0.2998047  c0.3994141-0.1000977,0.6162109-0.1503906,0.6494141-0.1503906L71.375,40.5415039h0.2998047  c0.0332031,0,0.4169922,0.0332031,1.1503906,0.1000977c0.4335938,0,0.7666016-0.0332031,1-0.1000977  c0.1669922,0,0.4501953-0.1831055,0.8496094-0.5498047c0.4667969-0.3334961,0.8173828-0.550293,1.0498047-0.6503906  c0.0673828-0.0332031,0.1503906-0.0664063,0.25-0.0996094c-0.2666016-0.0336914-0.5996094-0.050293-1-0.050293l-2.4492188,0.2001953  l-1.4501953-0.1000977l-1.0498047-0.25c0.0332031,0.1000977,0.0498047,0.2167969,0.0498047,0.3500977l-0.1005859,0.449707  c-0.2324219,0.5-0.4658203,0.8334961-0.6992188,1c-0.1669922,0.1000977-0.3173828,0.1503906-0.4501953,0.1503906  c-0.1337891,0-0.25-0.0834961-0.3505859-0.25c-0.2324219-0.4003906-0.1826172-0.9335938,0.1503906-1.6000977  c0-0.1000977,0.1337891-0.2333984,0.4003906-0.3999023c0.0332031-0.0336914,0.0664063-0.050293,0.0996094-0.050293  L66.2246094,37.4916992z M54.375,24.5415039l-1.3496094,0.6499023c-0.6005859,0.3334961-1.2832031,0.8666992-2.0507813,1.6000977  c-1.0332031,1.0332031-1.8496094,2.1665039-2.4492188,3.3999023c-0.1337891,0.3666992-0.3173828,0.8500977-0.5507813,1.4501953  l-0.4492188,2.699707c0.2998047,0.5336914,0.5498047,1.1000977,0.75,1.7001953c0.1328125,0.3666992,0.1992188,1.0332031,0.1992188,2  c-0.0664063,0.6665039-0.0498047,1.1333008,0.0507813,1.3999023c0.1660156,0.3334961,0.4667969,0.7001953,0.8994141,1.1000977  c0.6005859,0.5332031,0.9667969,0.8666992,1.1005859,1c0.4326172,0.4331055,0.5498047,0.9331055,0.3496094,1.5  c-0.0996094,0.3334961-0.2666016,0.6166992-0.5,0.8500977c-0.1328125,0.1665039-0.2333984,0.2998047-0.2998047,0.3999023  c0.0332031,0.0668945,0.0996094,0.1665039,0.2001953,0.2998047L51.625,46.1914063  c0.7666016,0.8334961,1.7167969,1.6499023,2.8496094,2.4501953l1.8505859,1.1000977  c0.0664063-0.2001953,0.1494141-0.3833008,0.25-0.550293l-1.6503906-2.3999023  c-0.5-0.8334961-0.9667969-1.8500977-1.3994141-3.0498047l-1.2001953-4.6503906c-0.1669922-0.9663086-0.25-1.9829102-0.25-3.0498047  c0-1.3334961,0.1669922-2.5332031,0.5-3.6000977c0.5332031-1.699707,1.4501953-2.8833008,2.75-3.5498047  c0.7333984-0.3666992,1.5498047-0.550293,2.4501953-0.550293c0.9326172,0,1.7832031,0.1669922,2.5498047,0.5  c0.0332031,0,0.2998047,0.1166992,0.7998047,0.3500977c0.6337891,0.3334961,1.2167969,0.7333984,1.75,1.2001953  c0.3330078,0.2998047,0.9667969,0.9833984,1.9003906,2.0498047c0.7333984,0.7333984,1.4667969,1.1499023,2.1992188,1.25  c0.3007813,0.1000977,0.8007813,0.2333984,1.5,0.3999023c0.6669922,0.2001953,1.1503906,0.4335938,1.4501953,0.7001953  c0.1669922,0.1000977,0.4667969,0.3168945,0.9003906,0.6499023l-0.0498047-0.0498047l-1-1.1499023l-2-1  c-0.3671875-0.2670898-0.6005859-0.4667969-0.7001953-0.6000977c-0.2001953-0.300293-0.3164063-0.550293-0.3505859-0.75  c0-0.2333984,0.0673828-0.4667969,0.2001953-0.7001953l0.2998047-0.25c0.3339844-0.2666016,0.7841797-0.3666992,1.3505859-0.2998047  c0.2998047,0.0332031,0.6328125,0.1333008,1,0.2998047l2.2001953,1.2001953h0.1992188  c0.2001953,0.0332031,0.5507813,0.0332031,1.0507813,0c0.4667969-0.0332031,0.8330078,0.0166016,1.0996094,0.1499023  c0.03125,0,0.0644531,0.0166016,0.0996094,0.0498047C74.1894531,32.3061523,74.15625,32.2729492,74.125,32.2416992  c-0.9003906-0.4003906-1.6328125-0.7670898-2.2001953-1.1000977l-1.2001953-0.8999023L70.125,29.6416016  c-0.0332031,0.0332031-0.0664063,0.0664063-0.0996094,0.1000977c-0.1669922,0.2666016-0.3837891,0.3666992-0.6503906,0.2998047  l-0.4003906-0.1000977c-0.0996094-0.0664063-0.1826172-0.1665039-0.25-0.2998047  c-0.1660156-0.300293-0.0830078-0.6000977,0.25-0.8999023L69.125,28.6914063  c-1.0332031-0.8999023-2.2333984-1.7333984-3.5996094-2.5l-2.25-1.1000977  c-2.6669922-1.0664063-5.1337891-1.3833008-7.4003906-0.949707C55.7080078,24.1748047,55.2080078,24.3081055,54.375,24.5415039z   M53.9248047,9.7915039c-0.7998047-0.2998047-1.6826172-0.4667969-2.6494141-0.5c-1.0332031,0-2.0332031,0.1831055-3,0.5498047  c-2.2001953,0.800293-4.0673828,2.5336914-5.6005859,5.2001953c-0.0332031,0.0668945-0.3828125,0.8168945-1.0498047,2.25  c-0.6328125,1.3666992-1.1835938,3-1.6503906,4.8999023c-0.3994141,1.7666016-0.6494141,3.4667969-0.75,5.1000977  c-0.0664063,0.8666992-0.1162109,1.4833984-0.1494141,1.8500977c0.5,0.0332031,1,0.1000977,1.5,0.199707  C40.6416016,29.375,40.9921875,29.4746094,41.625,29.6416016l0.9501953,0.3999023  c0.2666016,0.1000977,0.6669922,0.3168945,1.2001953,0.6499023c0.7998047,0.4667969,1.5166016,1,2.1494141,1.6000977  L45.625,31.2416992c-0.3662109-1.6333008-0.5498047-2.4833984-0.5498047-2.550293c-0.2666016-1.1665039-0.25-2.5,0.0498047-4  c0.3330078-1.8999023,0.8164063-3.6333008,1.4501953-5.199707c0.4667969-1.1669922,0.9501953-2.1503906,1.4501953-2.9501953  c0.2666016-0.4667969,0.6494141-0.9833984,1.1494141-1.5498047c0.6005859-0.6333008,1.2167969-1.0668945,1.8505859-1.300293  c0.0664063,0,0.5332031-0.0332031,1.3994141-0.1000977c0.5332031,0.0668945,1.0332031,0.2670898,1.5,0.6000977  c0.0332031-0.3666992,0.1337891-0.7333984,0.2998047-1.1000977c0.2333984-0.5996094,0.6005859-1.0996094,1.1005859-1.5  c0.3330078-0.3330078,0.5166016-0.5498047,0.5498047-0.6499023l0.6503906-0.7998047  c0.0332031-0.0668945,0.0830078-0.1333008,0.1494141-0.2001953c-0.0332031,0-0.0664063,0-0.0996094,0  c-0.3330078,0.1333008-0.7666016,0.1669922-1.2998047,0.1000977c-0.0673828,0-0.1835938-0.0166016-0.3505859-0.0498047  c0.0332031,0.1665039,0.0498047,0.3833008,0.0498047,0.6499023c-0.1660156,0.5664063-0.4326172,0.8833008-0.7998047,0.949707  c-0.1328125,0.0668945-0.2666016,0.0834961-0.3994141,0.050293c-0.1337891-0.0668945-0.2333984-0.1669922-0.3007813-0.300293  c-0.1660156-0.2666016-0.1660156-0.6333008,0-1.0996094c0-0.1000977,0.0507813-0.2001953,0.1503906-0.300293  C53.6914063,9.875,53.7919922,9.824707,53.9248047,9.7915039z M60.0751953,8.2915039l-0.3505859,0.2998047  c-0.3662109,0.300293-0.6328125,0.5668945-0.7998047,0.800293c-0.3662109,0.4331055-0.7333984,0.9667969-1.0996094,1.6000977  l-0.75,1l-0.8505859,0.75c-0.1660156,0.1333008-0.2998047,0.2666016-0.3994141,0.3999023  C55.8583984,13.1748047,55.875,13.2246094,55.875,13.2915039c0.4667969,0.6000977,0.8164063,1,1.0498047,1.2001953  c0.5673828,0.4663086,1.2167969,0.6499023,1.9501953,0.5498047c0.5-0.0668945,1.2333984-0.3168945,2.2001953-0.75  l1.0996094-0.4501953l1.0498047-0.25c0.6337891-0.0332031,1.2167969,0.050293,1.75,0.25  c0.2333984,0.1000977,0.5341797,0.3334961,0.9003906,0.7001953c0.3330078,0.3334961,0.5332031,0.6000977,0.5996094,0.7998047  c0.0673828,0.1000977,0.0839844,0.1669922,0.0507813,0.2001953l-0.2001953-0.0498047  c-0.1005859,0-0.4169922-0.1333008-0.9501953-0.4003906c-0.2998047-0.1665039-0.5498047-0.2666016-0.75-0.2998047  c-0.3330078-0.0668945-0.7333984-0.0498047-1.2001953,0.0498047l-1.7001953,0.75c-1.0996094,0.6000977-2.0166016,0.9335938-2.75,1  c-0.2998047,0.0336914-0.6494141,0.0170898-1.0498047-0.0498047c-0.7333984-0.1665039-1.3662109-0.5498047-1.8994141-1.1499023  c-0.3671875-0.4667969-0.6337891-0.9501953-0.8007813-1.4501953c-0.1992188,0.3999023-0.3164063,0.7666016-0.3496094,1.1000977  c0.0332031,0,0.0498047,0.0166016,0.0498047,0.0498047c0.5,0.6000977,1.0332031,1.6000977,1.6005859,3  c0.0332031,0.1669922,0.1162109,0.4667969,0.25,0.9003906l0.1494141,0.699707  c0.1337891,0.6000977,0.2666016,0.9667969,0.4003906,1.1000977L57.375,20.8413086  c0.2666016,0.2670898,0.5166016,0.3168945,0.75,0.1503906c0.2333984-0.0668945,0.4335938-0.2670898,0.5996094-0.6000977  C58.8251953,20.2246094,58.875,20.0083008,58.875,19.7416992c0.0332031-0.2001953,0.0664063-0.300293,0.0996094-0.300293  c0.0673828-0.0332031,0.1503906,0.050293,0.25,0.25c0.1005859,0.2333984,0.1337891,0.5166016,0.1005859,0.8500977  c-0.0664063,0.5-0.3164063,0.8999023-0.75,1.2001953c-0.2666016,0.1665039-0.5664063,0.25-0.9003906,0.25  c-0.3330078,0-0.6660156-0.1333008-1-0.4003906l0.0498047,0.050293c-0.3330078-0.2333984-0.6328125-0.7832031-0.8994141-1.6499023  l-0.2001953-0.75l-0.2998047-0.6503906c-0.4335938-1.0332031-0.9335938-1.8833008-1.5-2.5498047  c-0.5664063-0.6000977-1.1005859-0.9331055-1.6005859-1c-0.4658203,0.0668945-0.7158203,0.1000977-0.75,0.1000977  c-0.6992188,0.2666016-1.4160156,1-2.1494141,2.199707c-0.6337891,1.1000977-1.1005859,2.0170898-1.4003906,2.75  c-0.6660156,1.5-1.1660156,3.1166992-1.5,4.8500977C46.125,26.1083984,46.0253906,27.324707,46.125,28.5913086  c0.0332031,0.6333008,0.1337891,1.4667969,0.2998047,2.5c0.1005859,0.7670898,0.1503906,1.4003906,0.1503906,1.9003906  c0.0996094,0.1665039,0.2167969,0.3330078,0.3496094,0.5c0-0.2001953,0-0.4169922,0-0.6503906  c0-2.3666992,1.0332031-4.699707,3.1005859-7c0.9326172-0.8999023,1.7167969-1.5166016,2.3496094-1.8496094  c0.2001953-0.1333008,0.7001953-0.3833008,1.5-0.75c0.9003906-0.3334961,1.4833984-0.5170898,1.75-0.550293  c2.5332031-0.5664063,5.2832031-0.2333984,8.25,1l2.4003906,1.1499023c1.8330078,1.1669922,3.2832031,2.3334961,4.3496094,3.5  l0.9501953,1.050293c0.3994141,0.3999023,0.7167969,0.6831055,0.9501953,0.8500977  c0.1660156,0.1333008,0.5166016,0.3496094,1.0498047,0.6499023c0.4667969,0.2666016,0.7998047,0.5166016,1,0.75  C74.9414063,31.9414063,75.125,32.3081055,75.125,32.7416992l-0.1503906,0.5l-0.1494141,0.2998047  c-0.2666016,0.3666992-0.4335938,0.5332031-0.5,0.5c-0.0332031-0.0332031-0.0166016-0.25,0.0498047-0.6499023l0.0996094-0.2001953  c-0.0332031-0.0332031-0.0664063-0.0498047-0.0996094-0.0498047c-0.1669922-0.0332031-0.3164063-0.050293-0.4501953-0.050293  c-0.1660156-0.0332031-0.4326172,0-0.7998047,0.1000977c-0.5332031,0.1333008-0.9003906,0.2167969-1.0996094,0.25h-0.3505859  l-0.4501953-0.0498047l-1.0498047-0.3999023L70.625,33.2915039l1.5996094,2.3999023  c0.1669922,0.2666016,0.4003906,0.4501953,0.7001953,0.550293L73.125,36.2915039l-0.25-0.0498047  c0.2666016,0.1333008,0.5166016,0.1831055,0.75,0.1499023c0.4667969-0.0668945,0.7001953-0.0668945,0.7001953,0  c0.0332031,0.0664063-0.1503906,0.2167969-0.5498047,0.449707c-0.7333984,0.3334961-1.4169922,0.3833008-2.0507813,0.1503906  c-0.3330078-0.1000977-0.7324219-0.2836914-1.1992188-0.550293c-0.5-0.3330078-0.8671875-0.5664063-1.1005859-0.699707  c-0.5332031-0.2670898-0.9667969-0.4335938-1.2998047-0.5l-2.2998047-0.5c-0.2001953-0.0336914-0.4501953-0.1503906-0.75-0.3500977  c-0.2001953-0.0668945-0.4335938-0.2333984-0.7001953-0.5l-0.6503906-0.5L61.875,31.5415039  c-0.4667969-0.3999023-0.9335938-0.7333984-1.4003906-1c-0.4326172-0.1665039-0.6660156-0.2666016-0.6992188-0.2998047  c-0.7333984-0.2670898-1.4003906-0.4003906-2-0.4003906c-0.7001953,0-1.3007813,0.1503906-1.8007813,0.4501953  c-0.8994141,0.4331055-1.5664063,1.2998047-2,2.6000977c-0.3330078,1-0.5,2.0664063-0.5,3.199707  s0.0673828,2.0834961,0.2001953,2.8500977c0.1005859,0.8334961,0.25,1.6669922,0.4501953,2.5l0.4501953,2  c0.3330078,1.1669922,0.6835938,2.1499023,1.0498047,2.9501953c0.5664063,1.1333008,0.9501953,1.9667969,1.1503906,2.5  c0.1328125-0.2001953,0.2998047-0.3999023,0.5-0.6000977c0.9667969-0.8666992,2.1328125-1.3833008,3.5-1.5498047  c0-0.0336914,0.2333984-0.050293,0.6992188-0.050293c0.3339844,0.0332031,0.6503906,0.0834961,0.9501953,0.1499023  L62.375,46.7915039c-1.6328125-1.5668945-2.5830078-2.5-2.8496094-2.7998047  c-0.2001953-0.2001953-0.3339844-0.3666992-0.4003906-0.5l-0.4003906-0.6000977l-0.1494141-0.3500977l-0.25-1.1000977  c-0.1337891-1.2998047,0.0498047-2.3833008,0.5498047-3.25l0.5-0.7998047l0.7001953-0.7001953L60.875,36.1416016  l0.9501953-0.3500977c1.4335938-0.3999023,2.8164063-0.3999023,4.1494141,0l4.8505859,2.1000977l1.6494141,0.25h2.5507813  c1.1660156,0.1000977,1.9492188,0.3666992,2.3496094,0.7998047c0.2001953,0.300293,0.3330078,0.6333008,0.4003906,1l-0.0507813,0.75  c-0.1328125,0.3999023-0.25,0.6000977-0.3496094,0.6000977l-0.25-1.2001953l-0.25-0.3999023  c-0.1328125,0.0668945-0.3828125,0.1835938-0.75,0.3500977l-0.7001953,0.75c-0.5,0.5-0.8662109,0.8168945-1.0996094,0.9501953  c-0.3330078,0.199707-0.8505859,0.2998047-1.5498047,0.2998047h-1.3505859v0.0498047  c0.0332031,0,0.1337891,0.0834961,0.2998047,0.25c0.2001953,0.1333008,0.4501953,0.3666992,0.75,0.7001953l0.4501953,0.8999023  c0.2666016,0.800293,0.4501953,1.75,0.5498047,2.8500977c0.1337891,1.2333984,0.5673828,1.7167969,1.3007813,1.4501953  c0.3662109-0.1333008,0.6992188-0.3334961,1-0.6000977l0.1992188-0.1000977v0.2001953  C75.875,48.2080078,75.5917969,48.6083984,75.125,48.9414063c-0.5,0.4335938-1.0664063,0.4667969-1.7001953,0.1000977  c-0.2001953-0.1333008-0.3828125-0.2832031-0.5498047-0.4501953c-0.0996094-0.0664063-0.1835938-0.1333008-0.25-0.199707  l-5.25-4.7001953c-0.0664063-0.1000977-0.1669922-0.1831055-0.2998047-0.25c0.4667969,0.7001953,0.8828125,1.2666016,1.25,1.7001953  L70.625,48.0913086c0.1669922,0.2333984,0.3496094,0.5668945,0.5498047,1  c0.0673828,0.1333008,0.1835938,0.4833984,0.3505859,1.050293c0.2333984,0.6665039,0.2998047,1.3500977,0.1992188,2.0498047  c-0.0996094,1.0668945-0.5166016,2.0332031-1.25,2.8999023c-0.7998047,1-1.8164063,1.550293-3.0498047,1.6503906  c1.0673828,0.699707,1.9501953,1.4165039,2.6503906,2.1499023c0.8994141,0.9667969,1.4833984,1.699707,1.75,2.199707  c0.7998047,1.2670898,1.3330078,2.6835938,1.5996094,4.25c0.2001953,1.4003906,0.25,2.7167969,0.1503906,3.9501953  C73.375,71.5581055,72.8085938,73.6083984,71.875,75.4414063c-0.7998047,1.4335938-1.7832031,2.6333008-2.9501953,3.6000977  c-0.7333984,0.5668945-1.4833984,1.0332031-2.25,1.3999023c0.0332031,0,0.0839844,0.0166016,0.1503906,0.050293  c2.3994141,0.6665039,4.2333984,1.9331055,5.5,3.7998047c0.6328125,0.9335938,0.9667969,1.9501953,1,3.0498047  c0,1.1000977-0.2832031,2.0668945-0.8505859,2.9003906c-0.8330078,1.3330078-2.1328125,2.4165039-3.8994141,3.25  c-2.3330078,1-4.8330078,1.5-7.5,1.5c-2.0664063,0-3.7832031-0.3666992-5.1503906-1.1000977  c-0.7998047-0.3666992-1.5166016-1-2.1494141-1.8999023h0.0498047c-0.1005859-0.1337891-0.1835938-0.2666016-0.25-0.4003906  c-0.2666016-0.5996094-0.4003906-1.1665039-0.4003906-1.699707l0.0498047-0.8500977l0.0507813,0.1000977l0.1494141,0.75  c0.2001953,0.6665039,0.4003906,1.1665039,0.6005859,1.5c0.2333984,0.3334961,0.5,0.6333008,0.7998047,0.8999023  l1.0996094,0.3500977c0.2998047,0.0332031,0.8339844,0.1166992,1.6005859,0.25  c1.5664063,0.1333008,3.2167969-0.0166016,4.9492188-0.4501953c1.1337891-0.199707,2.1835938-0.6665039,3.1503906-1.3999023  c0.5664063-0.4667969,0.9501953-0.9335938,1.1503906-1.3999023c0.2333984-0.6333008,0.1328125-1.2167969-0.3007813-1.75  c-0.3994141-0.5668945-1.0166016-0.9833984-1.8496094-1.25c-0.6328125-0.2333984-1.5166016-0.3833008-2.6503906-0.4501953  c-1.4658203-0.0332031-3.5498047,0.1835938-6.25,0.6499023l-7.4492188,1.4003906  c-3.3007813,0.6333008-6.2167969,1.0664063-8.75,1.2998047c-1.9003906,0.1665039-3.5507813,0.2167969-4.9501953,0.1499023  c-2.0332031-0.1333008-3.8164063-0.4663086-5.3505859-1c-1.9326172-0.699707-3.5332031-1.8164063-4.7998047-3.3500977  c-0.0996094-0.0996094-0.3994141-0.5332031-0.8994141-1.2998047l-1.1503906-3l-0.1503906-2.3500977  c0.1005859-0.7998047,0.2001953-1.3330078,0.3007813-1.6000977c0.3662109-1.5664063,1.2666016-3.0664063,2.6992188-4.5  c1.5341797-1.5,3.4667969-2.7832031,5.8007813-3.8496094c2.4326172-1.1000977,4.9492188-1.7670898,7.5498047-2  c2.2333984-0.1333008,4.7998047,0.2998047,7.7001953,1.2998047l3.2998047,1.1000977  c1.4667969,0.4331055,2.4501953,0.699707,2.9501953,0.7998047c1.8330078,0.3999023,3.3164063,0.4335938,4.4492188,0.1000977  c0.7001953-0.2333984,1.2167969-0.4833984,1.5507813-0.75c0.0332031,0.0332031-0.0507813,0.1665039-0.25,0.3999023  c-0.3007813,0.300293-0.6835938,0.550293-1.1503906,0.75c-1.2001953,0.5668945-2.7832031,0.6669922-4.75,0.300293  c-0.7666016-0.1333008-1.7832031-0.3666992-3.0498047-0.7001953l-3.3505859-1  c-2.8662109-0.8666992-5.2998047-1.2167969-7.2998047-1.0498047c-2.3994141,0.2666016-4.75,0.949707-7.0498047,2.0498047  c-2.2333984,1-4.0166016,2.2001953-5.3496094,3.6000977c-1.2333984,1.2666016-2,2.5498047-2.3007813,3.8500977  c-0.1328125,0.3666992-0.1992188,0.7998047-0.1992188,1.2998047c-0.0673828,0.3666992-0.0839844,0.5668945-0.0507813,0.6000977  c0.0673828,1.7998047,0.7001953,3.4663086,1.9003906,5c1.0996094,1.2998047,2.4833984,2.25,4.1503906,2.8500977  c2.5,0.8662109,5.7333984,1.1333008,9.6992188,0.7998047c2.4335938-0.2333984,5.3007813-0.6333008,8.6005859-1.2001953  c4.6328125-0.7998047,7.1328125-1.2333984,7.5-1.2998047c2.7333984-0.3999023,4.9169922-0.5664063,6.5498047-0.5  c1.0664063,0.0664063,2.0498047,0.2666016,2.9501953,0.6000977C66.1083984,86.0083008,66.875,86.574707,67.375,87.3413086  c0.6337891,0.8334961,0.7333984,1.75,0.2998047,2.75c-0.2333984,0.5336914-0.7666016,1.1166992-1.5996094,1.75  c-1,0.7001953-2.1669922,1.1669922-3.5,1.4003906c-1.9667969,0.3662109-3.6835938,0.3999023-5.1503906,0.0996094L55.875,92.9916992  c0.1337891,0.0996094,0.2832031,0.1831055,0.4501953,0.25c1.2333984,0.5,2.8330078,0.7333984,4.7998047,0.699707  c2.5332031-0.1333008,4.8496094-0.699707,6.9501953-1.699707c0.7001953-0.3334961,1.2832031-0.7001953,1.75-1.1000977  L70.625,90.3413086c0.3330078-0.3330078,0.5498047-0.6162109,0.6503906-0.8496094  c0.3994141-0.6669922,0.5830078-1.3837891,0.5498047-2.1503906c-0.0332031-0.7998047-0.2998047-1.5498047-0.7998047-2.25  c-0.9335938-1.5-2.5-2.5664063-4.7001953-3.199707c-0.9003906-0.300293-1.9169922-0.5166016-3.0498047-0.6499023h-0.5  L62.875,81.1914063c-1.0664063-0.1000977-2.1835938-0.1333008-3.3496094-0.1000977l-4.3505859,0.25  c-3.2998047,0.2001953-6.3330078,0.2167969-9.0996094,0.050293c-1.1005859-0.2001953-1.9335938-0.3500977-2.5-0.4501953  c-1.0332031-0.2666016-1.7832031-0.5-2.25-0.699707c-0.9667969-0.3334961-2.25-0.9003906-3.8505859-1.7001953  c-2.3662109-1.2001953-3.5166016-1.8833008-3.4492188-2.0498047c0.0332031-0.1333008,1.2998047,0.2998047,3.7998047,1.2998047  c1.6328125,0.6665039,2.9169922,1.1333008,3.8496094,1.3999023h0.0498047L41.125,77.3413086  c-0.2998047-0.6665039-0.6835938-1.2998047-1.1503906-1.8999023c-0.4326172-0.6000977-0.6660156-0.949707-0.6992188-1.0498047  l-0.25-0.6499023l0.1494141-0.050293c0.1669922,0,0.3671875,0.0332031,0.6005859,0.1000977  c0.2998047,0.1000977,0.6992188,0.3500977,1.1992188,0.75c0.7675781,0.8999023,1.2841797,1.6333008,1.5507813,2.2001953  l0.0996094,0.5c0.0996094,0.2998047,0.1503906,0.6665039,0.1503906,1.0996094l-0.1005859,0.550293l-0.2001953,0.5v0.0498047  L43.875,79.7915039c0.5,0.0668945,1.2832031,0.1831055,2.3496094,0.3500977c2.7333984,0.1000977,5.6835938,0.0166016,8.8505859-0.25  l4.4501953-0.300293c2.2666016-0.0664063,4.25,0.1166992,5.9492188,0.550293  c0.1337891-0.1000977,0.2675781-0.1835938,0.4003906-0.25c0.7333984-0.3666992,1.5332031-0.9335938,2.4003906-1.7001953  c1-0.9667969,1.7998047-2.1000977,2.3994141-3.3999023c0.8339844-1.7998047,1.2998047-3.6665039,1.4003906-5.6000977  c0.0664063-0.9331055,0.0166016-2.1333008-0.1503906-3.6000977c-0.2666016-1.3999023-0.7333984-2.6333008-1.3994141-3.699707  c-0.3671875-0.6000977-0.8671875-1.25-1.5-1.9501953c-0.9003906-1-2.2333984-2.1000977-4-3.2998047  c-2.2001953-1.3999023-3.7001953-2.3833008-4.5-2.9501953c-0.7333984-0.5332031-1.2333984-0.9331055-1.5-1.199707l-0.25,0.25  c-0.4003906,0.4663086-0.8339844,0.8496094-1.3007813,1.1499023c-0.6660156,0.3999023-1.25,0.6166992-1.75,0.6499023  c-0.1992188,0.0332031-0.4658203,0.0498047-0.7998047,0.0498047h-0.3496094c0,0.0336914,0.0166016,0.050293,0.0498047,0.050293  l0.5,0.2998047c0.5664063,0.4667969,1.0166016,1.1333008,1.3496094,2c0.1669922,0.3666992,0.3173828,0.9501953,0.4501953,1.75  c0.2998047,1.6000977,0.4667969,2.4667969,0.5,2.6000977c0.2001953,0.6333008,0.4501953,1.1000977,0.75,1.3999023  c0.1669922,0.1669922,0.4501953,0.3666992,0.8505859,0.6000977l0.5498047,0.2001953L59.875,63.6416016l-0.1503906,0.0498047  c0.2001953,0,0.4169922-0.0498047,0.6503906-0.1499023l0.2998047-0.1000977l-0.2001953,0.300293  c-0.3330078,0.2329102-0.5664063,0.3666992-0.6992188,0.3999023c-0.5,0.199707-1.0166016,0.199707-1.5507813,0  c-0.5664063-0.2333984-1.1826172-0.7333984-1.8496094-1.5c-0.3330078-0.3666992-0.9667969-1.2167969-1.9003906-2.550293  c-0.5996094-0.7666016-1.0166016-1.2666016-1.25-1.5c-0.5332031-0.5664063-1.0830078-0.9663086-1.6494141-1.199707  c-0.2333984-0.1000977-0.5498047-0.1499023-0.9501953-0.1499023c-0.1669922-0.0336914-0.5498047,0-1.1503906,0.0996094  l-4.6494141,1.5c-1.5332031,0.5336914-2.8330078,0.800293-3.9003906,0.800293  c-1.3994141,0.0332031-2.7001953-0.25-3.8994141-0.8500977c-1.0332031-0.5-1.5166016-0.8500977-1.4501953-1.0498047  c0.0332031-0.0668945,0.6162109,0.0332031,1.75,0.2998047c1.3330078,0.3334961,2.5,0.4331055,3.5,0.2998047  c0.8330078-0.0664063,2.0166016-0.3666992,3.5498047-0.8999023l1.75-0.6000977c0.9335938-0.3666992,1.9335938-0.6831055,3-0.949707  c0.5996094-0.1333008,1.1337891-0.2001953,1.5996094-0.2001953c0.6005859,0.0668945,1.0839844,0.2001953,1.4501953,0.3999023  c0.7001953,0.300293,1.4003906,0.8168945,2.1005859,1.550293c0.3994141,0.4331055,0.8330078,1.0166016,1.2998047,1.75  c0.1328125,0.199707,0.2333984,0.3999023,0.2998047,0.6000977c-0.0664063-0.3334961-0.1328125-0.6835938-0.2001953-1.050293  c-0.0996094-0.5332031-0.2666016-1.0498047-0.5-1.5498047l-0.3496094-0.6499023l-0.25-0.3500977l-0.1005859-0.1000977  l-1.5-0.8999023c-0.5332031-0.5-0.7324219-1.0166016-0.5996094-1.550293l0.2001953-0.3496094l0.2998047-0.25l0.4003906-0.1503906  l2.1992188-0.0996094c0.4003906,0,0.8007813-0.1333008,1.2001953-0.4003906c0.2998047-0.0996094,0.6503906-0.3496094,1.0498047-0.75  l0.8007813-0.7998047c-0.6005859,0.1000977-0.9667969,0.1499023-1.1005859,0.1499023L56.375,51.2416992l-1.5-0.1503906  c0,0.0336914,0,0.0834961,0,0.1503906c0,0.6333008-0.1503906,1.0498047-0.4501953,1.25  c-0.1660156,0.0996094-0.2998047,0.1499023-0.3994141,0.1499023c-0.1337891-0.0332031-0.2666016-0.1000977-0.4003906-0.2001953  c-0.2001953-0.199707-0.2998047-0.6000977-0.2998047-1.199707c0-0.1000977,0.0166016-0.1835938,0.0498047-0.25l-0.1503906-0.050293  c-1.1328125,0-2.6494141,0.3334961-4.5498047,1c-1.3994141,0.5-3.0996094,0.6835938-5.0996094,0.550293l-4.2998047-0.3500977  c-0.6669922-0.0668945-1.6503906-0.050293-2.9501953,0.0498047l-1.2001953,0.25  c-1.2333984,0.3334961-2.0830078,0.9335938-2.5498047,1.800293c-0.4667969,0.7998047-0.5,1.7329102-0.1005859,2.7998047  c0.4003906,0.9331055,1,1.6499023,1.8007813,2.1499023c0.8994141,0.5668945,1.7666016,0.9169922,2.5996094,1.050293  c0.7666016,0.0996094,1.7001953,0.1831055,2.7998047,0.25c0.6005859,0.0332031,1.4833984,0.0830078,2.6503906,0.1499023  l4.8994141,0.6000977c1,0.199707,2.3505859,0.4331055,4.0507813,0.699707c1.4667969,0.2666016,2.6328125,0.5668945,3.5,0.8999023  l0.75,0.3500977c0.3994141,0.2666016,0.6162109,0.4169922,0.6494141,0.4501953  c0.2998047,0.199707,0.6503906,0.5664063,1.0498047,1.1000977c0.3671875,0.5664063,0.7167969,1.2832031,1.0507813,2.1499023  c0.3662109,0.8666992,0.7832031,1.8666992,1.25,3c0.2998047,0.6665039,0.6328125,1.1166992,1,1.3500977  c0.1660156,0.1333008,0.2666016,0.199707,0.2998047,0.199707l0.25,0.050293h0.1494141l-0.1494141,0.0498047h-0.2998047  L60.375,71.4414063c-0.4667969-0.2333984-0.9003906-0.6665039-1.2998047-1.2998047c-0.2001953-0.3334961-0.7001953-1.3334961-1.5-3  c-0.4335938-0.8334961-0.8164063-1.4667969-1.1503906-1.8999023L55.875,64.5913086l-0.25-0.199707l-1.25-0.550293  c-0.7998047-0.2998047-1.9003906-0.5498047-3.2998047-0.75c-1.7333984-0.2329102-3.1171875-0.4331055-4.1503906-0.5996094  l-4.7001953-0.5c-2.3994141-0.0336914-4.2832031-0.1333008-5.6494141-0.300293  c-1.0664063-0.1333008-2.1337891-0.5498047-3.2001953-1.25c-1.0996094-0.7998047-1.8828125-1.7666016-2.3496094-2.8999023  c-0.5673828-1.5332031-0.5-2.8999023,0.1992188-4.1000977c0.7001953-1.199707,1.8505859-2.0332031,3.4501953-2.5l1.4501953-0.25  c0.2001953-0.0332031,0.4169922-0.0498047,0.6503906-0.0498047l-0.6503906-0.25l-2.1503906-1.1499023  c-1.1992188-0.8666992-2.1162109-1.7836914-2.75-2.75c-0.9658203-1.4335938-1.5-3.2670898-1.5996094-5.5  c-0.1328125-2.9003906,0.4169922-5.4501953,1.6503906-7.6503906c0.0332031-0.0664063,0.0830078-0.1333008,0.1494141-0.199707  C31.2246094,32.875,31.0419922,32.5913086,30.875,32.2915039c-0.9003906-1.6665039-1.5664063-3.3168945-2-4.9501953  c-0.5332031-1.8666992-0.8164063-3.6499023-0.8496094-5.3496094c0-1.7670898,0-2.6669922,0-2.7001953  c0.2333984-3.4331055,1.3164063-6.1166992,3.25-8.0498047c1.6660156-1.6000977,3.6660156-2.5,6-2.7001953  c0.8994141-0.0668945,1.5332031-0.25,1.8994141-0.5498047c0.2666016-0.300293,0.4667969-0.5170898,0.6005859-0.6503906  l0.3994141-0.75c0.4667969-0.8330078,0.8505859-1.3164063,1.1503906-1.449707s0.5996094-0.1669922,0.8994141-0.1000977  l0.6503906,0.25c0.2998047,0.2333984,0.5498047,0.5166016,0.75,0.8500977  c0.0996094,0.1665039,0.2001953,0.3833008,0.2998047,0.6499023l0.25,0.8999023  c0.0673828,0.2333984,0.0839844,0.3666992,0.0498047,0.3999023l-0.6992188-1.0996094  C43.1914063,6.4248047,42.875,6.074707,42.5751953,5.9414063h-0.0498047  C42.4580078,5.9082031,42.3916016,5.875,42.3251953,5.8413086c-0.0332031,0.1000977-0.1005859,0.25-0.2001953,0.4501953  c-0.1328125,0.2998047-0.25,0.6499023-0.3496094,1.0498047c-0.1337891,0.5668945-0.2333984,1.2167969-0.3007813,1.9501953  l-0.25,1.1499023c-0.0332031,0.2001953-0.1826172,0.550293-0.4492188,1.050293  c-0.2001953,0.3666992-0.3339844,0.7832031-0.4003906,1.25c-0.0332031,0.699707,0.0498047,1.2329102,0.25,1.5996094  c0.2333984,0.5336914,0.3330078,0.8168945,0.2998047,0.8500977h-0.1494141c-0.3339844-0.1000977-0.6005859-0.25-0.8007813-0.449707  c-0.5664063-0.3666992-0.8662109-1.050293-0.8994141-2.050293c0-0.699707,0.1162109-1.3164063,0.3496094-1.8500977  l0.2998047-0.7998047l0.2001953-1c0-0.0668945,0.0166016-0.1333008,0.0498047-0.2001953l-0.0498047,0.050293  C39.5917969,9.1582031,39.1914063,9.375,38.7246094,9.5415039C38.625,9.574707,38.5253906,9.625,38.4248047,9.6914063  l0.0498047,0.050293c0.1005859,0.0996094,0.1669922,0.2329102,0.2001953,0.3999023  c0.1005859,0.5664063,0.0166016,0.9833984-0.25,1.25l-0.3496094,0.199707c-0.1337891,0-0.2666016-0.0498047-0.4003906-0.1499023  c-0.2333984-0.1665039-0.3828125-0.5-0.4501953-1c0-0.1000977,0.0175781-0.2167969,0.0507813-0.3500977  c0.0332031-0.0996094,0.0830078-0.1831055,0.1494141-0.25H37.375c-0.8662109,0.0668945-1.7167969,0.2836914-2.5498047,0.6503906  c-0.9667969,0.4663086-1.7832031,1.0664063-2.4501953,1.7998047c-1.6328125,1.6665039-2.5830078,4.0332031-2.8496094,7.1000977  c0,0.0664063-0.0166016,0.8999023-0.0507813,2.5c0,1.4667969,0.2167969,3.1831055,0.6503906,5.1499023  c0.3330078,1.5668945,0.8330078,3.2001953,1.5,4.8999023c0.0664063,0.2001953,0.1337891,0.3833008,0.2001953,0.550293  c0.8330078-1.1333008,1.8662109-2,3.0996094-2.6000977c0.4003906-0.1669922,0.7832031-0.300293,1.1503906-0.3999023  c-0.0664063-0.1333008-0.1503906-0.2836914-0.25-0.4501953c-0.5-0.7666016-0.9501953-1.7001953-1.3505859-2.7998047  c-0.5996094-1.5668945-0.7324219-3.6000977-0.3994141-6.1000977c0.1669922-1.1333008,0.4501953-2.2333984,0.8496094-3.300293  C35.2919922,15.875,35.6914063,15.1914063,36.125,14.7915039c0.1669922-0.1333008,0.3330078-0.2333984,0.5-0.2998047  l-0.4003906-0.6000977c-0.4326172-0.5332031-0.7998047-0.8999023-1.0996094-1.1000977l-0.6503906-0.25l-0.1494141-0.1000977  l0.0996094-0.1499023c0.1669922-0.1665039,0.4501953-0.25,0.8505859-0.25c0.5664063-0.0668945,1.2167969,0.2666016,1.9492188,1  l0.9501953,1.2001953c0.4667969,0.5996094,0.8671875,1.0166016,1.2001953,1.25l0.3496094,0.199707  c0.1669922,0.0668945,0.4335938,0.050293,0.8007813-0.0498047c0.0332031,0,0.1162109-0.0332031,0.25-0.1000977  c0.0664063-0.1333008,0.1162109-0.25,0.1494141-0.3500977C41.1914063,14.625,41.3417969,14.324707,41.375,14.2915039  C43.0751953,11.324707,45.2080078,9.375,47.7753906,8.4414063C49.9414063,7.6748047,52.125,7.7080078,54.3251953,8.5415039  C55.2919922,8.875,55.9414063,8.9746094,56.2753906,8.8413086c0.0664063,0,0.3496094-0.0996094,0.8496094-0.2998047l0.7001953-0.5  c0.7001953-0.5332031,1.25-0.8168945,1.6494141-0.8500977c0.3339844,0,0.6337891,0.1000977,0.9003906,0.300293l0.4003906,0.5498047  C60.9746094,8.375,61.0751953,8.7246094,61.0751953,9.0913086c0.0664063,0.300293,0.0664063,0.550293,0,0.75l-0.25,1.300293  l-0.1005859-0.4501953L60.625,9.8413086c-0.0664063-0.6665039-0.1835938-1.1166992-0.3496094-1.3496094  C60.2080078,8.4248047,60.1416016,8.3583984,60.0751953,8.2915039z"
     id="path2"
     style="fill:#cc00ff" /><path
     style="fill:#ccc7ff;fill-opacity:1;stroke:none;stroke-width:0.13241525;stroke-opacity:1"
     d="m 58.764409,93.772955 c -0.50333,-0.06457 -1.099198,-0.175372 -1.324152,-0.246214 -0.351555,-0.110712 -0.320814,-0.118651 0.218841,-0.05652 1.177392,0.135558 3.474755,0.06757 4.633381,-0.137121 3.972544,-0.701814 6.432453,-3.137691 5.477273,-5.423759 -0.632198,-1.513066 -2.447616,-2.532513 -5.070302,-2.847231 -2.226726,-0.267204 -4.393791,-0.02929 -13.017247,1.429124 -8.300568,1.403805 -9.404561,1.531429 -13.241525,1.530746 -2.866202,-5.09e-4 -3.403229,-0.03519 -4.609364,-0.297645 -3.241708,-0.705399 -5.254612,-1.946394 -6.66902,-4.111578 -1.684084,-2.578004 -1.785134,-5.514227 -0.278353,-8.088128 0.644466,-1.100883 2.335685,-2.813037 3.656212,-3.701471 3.564232,-2.397971 8.762841,-4.049106 11.93919,-3.792019 2.145905,0.173685 3.540191,0.476433 7.036064,1.527771 4.160038,1.251078 6.720123,1.658885 8.324106,1.325982 0.899798,-0.186752 2.129091,-0.764175 2.499077,-1.173864 0.247714,-0.274298 0.24864,-0.273671 0.758702,0.515495 0.564247,0.873001 1.168815,1.320628 1.774,1.313485 l 0.397246,-0.0047 -0.413252,-0.17986 c -0.644909,-0.280682 -1.040293,-0.924093 -2.042267,-3.32339 -1.182913,-2.832573 -1.481837,-3.37339 -2.274223,-4.114575 -1.191898,-1.114882 -2.597874,-1.571761 -7.253838,-2.357174 -3.171856,-0.535059 -6.61633,-0.960467 -8.6732,-1.071179 -2.472658,-0.133092 -4.042983,-0.336593 -4.818178,-0.624396 -2.186231,-0.81167 -3.484631,-2.341378 -3.496733,-4.119671 -0.0068,-1.005627 0.324457,-1.713404 1.121279,-2.395453 1.276832,-1.092921 3.419645,-1.328666 8.514819,-0.936771 3.627616,0.279018 4.785687,0.191267 7.10933,-0.538693 1.699767,-0.533974 3.099327,-0.852837 3.743285,-0.852837 0.424876,0 0.440299,0.01931 0.524934,0.65732 0.183676,1.384623 1.306381,1.294516 1.590593,-0.127659 l 0.06616,-0.331038 h 1.655525 1.655525 l -0.471499,0.482858 c -0.259325,0.265572 -0.770294,0.645483 -1.135487,0.844247 -0.573941,0.312377 -0.861179,0.370734 -2.117997,0.430305 -1.293504,0.06131 -1.496441,0.104622 -1.838404,0.392365 -0.301852,0.253991 -0.384397,0.433075 -0.384397,0.833955 0,0.633861 0.302936,0.998446 1.455218,1.751367 0.550791,0.359896 0.962815,0.747799 1.147509,1.08033 0.336139,0.6052 0.752181,1.863495 0.683888,2.068376 -0.02594,0.07782 -0.338042,-0.254663 -0.693558,-0.738852 -0.704234,-0.959118 -1.606008,-1.737639 -2.651426,-2.289032 -0.586338,-0.309257 -0.818592,-0.352506 -1.861652,-0.346666 -1.135095,0.0064 -1.3448,0.05845 -4.412126,1.095976 -1.771215,0.599117 -3.6372,1.176982 -4.146634,1.284145 -1.341674,0.28223 -2.702549,0.240509 -4.584533,-0.14055 -0.911042,-0.184465 -1.687827,-0.304004 -1.726189,-0.265642 -0.271607,0.271607 1.693926,1.372431 3.079241,1.724573 1.013729,0.257685 3.193689,0.255887 4.308779,-0.0036 0.473385,-0.11014 2.171611,-0.625018 3.773835,-1.144172 4.8574,-1.5739 5.235453,-1.455199 8.267161,2.595713 2.415351,3.227348 3.465742,3.898688 5.010241,3.202216 0.678675,-0.306039 0.883362,-0.672529 0.30462,-0.545416 -0.518365,0.113852 -1.757366,-0.472611 -2.186157,-1.034785 -0.453973,-0.59519 -0.558079,-0.924152 -0.994057,-3.141107 -0.513308,-2.610178 -1.121795,-3.944564 -2.059647,-4.516722 l -0.397246,-0.242349 0.728284,-5.95e-4 c 0.92696,-7.68e-4 2.053517,-0.517738 3.009929,-1.381251 l 0.69266,-0.625381 0.631492,0.527361 c 0.34732,0.290049 1.793435,1.287882 3.213589,2.217408 1.420153,0.929525 2.939618,1.959716 3.376589,2.289312 3.00712,2.268198 4.666203,4.468315 5.387933,7.144961 0.365896,1.356984 0.404228,5.137689 0.06699,6.607562 -0.885899,3.861282 -2.676429,6.555092 -5.450498,8.200146 l -0.790062,0.468516 -1.262374,-0.205195 c -2.275175,-0.369821 -3.811482,-0.387716 -7.883137,-0.09182 -5.7621,0.41874 -9.201915,0.48691 -10.990466,0.217811 -1.977487,-0.297528 -2.793846,-0.523288 -2.72928,-0.754772 0.144088,-0.516593 0.157815,-1.573214 0.02676,-2.05991 -0.290111,-1.077392 -1.613321,-2.755934 -2.548706,-3.233132 -0.462773,-0.236092 -1.170915,-0.3466 -1.170915,-0.182728 0,0.167584 0.568321,1.163303 1.106495,1.938619 0.319478,0.460254 0.679744,1.031077 0.80059,1.268493 0.236501,0.464631 0.755441,2.047932 0.692016,2.111358 -0.0628,0.0628 -1.711674,-0.525929 -4.261567,-1.521597 C 35.979191,77.019246 34.66828,76.5609 34.380967,76.514141 L 33.85858,76.429121 34.2512,76.7627 c 0.495962,0.421383 3.169078,1.857132 4.903991,2.633968 1.986814,0.889629 3.501463,1.38873 5.351089,1.763266 1.546209,0.313098 1.935407,0.337875 5.374546,0.342168 2.039195,0.0025 5.299502,-0.09366 7.245129,-0.213788 3.192612,-0.197122 3.72837,-0.199056 5.495233,-0.01985 3.627683,0.367952 5.919315,1.219374 7.442712,2.765234 1.643796,1.668033 2.095745,3.366708 1.346435,5.060648 -0.342769,0.774887 -1.584511,2.072964 -2.520998,2.63537 -1.669577,1.00266 -4.18551,1.778268 -6.65557,2.051768 -1.456636,0.161288 -2.15915,0.15956 -3.469358,-0.0085 z"
     id="path812"
     inkscape:connector-curvature="0" /><path
     style="fill:#62c7ff;fill-opacity:1;stroke:none;stroke-width:0.13241525;stroke-opacity:1"
     d="m 42.002119,50.8856 c -0.983184,-0.128479 -2.466258,-0.278284 -3.295721,-0.332903 l -1.508114,-0.09931 -1.388734,-0.958 c -2.39022,-1.648861 -3.533417,-2.986312 -4.203795,-4.918109 -1.359979,-3.918993 -0.348218,-9.465104 2.182136,-11.961679 0.805647,-0.794892 2.028708,-1.46031 3.169312,-1.724293 1.119319,-0.259057 3.181457,-0.103426 4.316632,0.325779 1.790855,0.677115 3.603725,1.934894 4.538705,3.148979 0.972563,1.262887 1.237095,1.95226 1.366402,3.56087 0.138757,1.726154 0.308362,2.175824 1.117153,2.961879 l 0.615922,0.598608 h -1.124375 c -1.078726,0 -1.153143,-0.01978 -1.832863,-0.487104 -2.349349,-1.615243 -2.378352,-1.63154 -2.903701,-1.63154 -0.338269,0 -0.609292,0.08999 -0.777454,0.258156 -0.255931,0.255931 -0.260558,0.254269 -0.536899,-0.192859 -0.153308,-0.248058 -0.571076,-0.713848 -0.928372,-1.035088 -1.962894,-1.76481 -4.056918,-1.453882 -4.686655,0.69589 -0.422901,1.443681 -0.195737,2.870187 0.747821,4.696034 1.086818,2.103067 3.796219,4.317274 5.282806,4.317274 0.281528,0 0.51187,-0.05112 0.51187,-0.113594 0,-0.06248 -0.349437,-0.329279 -0.776526,-0.592894 -2.027443,-1.251409 -4.369434,-4.770142 -4.383111,-6.585421 -0.0065,-0.858246 0.345865,-1.973317 0.629544,-1.992407 1.100315,-0.07404 2.249654,0.76006 3.919721,2.844636 1.158891,1.446528 1.156182,1.441467 1.533276,2.864468 0.164045,0.619042 0.446798,1.379673 0.628341,1.690294 0.44469,0.760869 1.321164,1.641673 1.911563,1.921008 0.892234,0.422141 1.874005,0.233805 2.227857,-0.427373 0.122541,-0.22897 0.07996,-0.240634 -0.640143,-0.175338 -0.74962,0.06797 -0.78512,0.05625 -1.256429,-0.415062 -0.692781,-0.692782 -1.218081,-1.824457 -1.482647,-3.194121 -0.126106,-0.652857 -0.345109,-1.380671 -0.486673,-1.617363 -0.141565,-0.236693 -0.223632,-0.43035 -0.182371,-0.43035 0.04126,0 0.38085,0.18818 0.754645,0.418179 0.824333,0.507217 1.519943,0.593839 3.090452,0.384844 0.861415,-0.114633 1.271571,-0.115839 1.608242,-0.0047 0.500898,0.165311 0.495714,0.150734 0.272654,0.766535 l -0.159127,0.4393 -0.436837,-0.480049 c -0.240259,-0.264028 -0.506743,-0.455912 -0.592186,-0.426409 -0.09234,0.03188 -0.153297,0.325932 -0.150287,0.72498 0.0082,1.083155 0.798897,2.492006 2.178072,3.880703 0.619985,0.624266 1.500872,1.37538 1.957526,1.66914 l 0.830281,0.534112 -1.359942,0.07412 c -0.918718,0.05007 -1.875477,0.212683 -2.948925,0.501197 -3.192103,0.857953 -4.206831,0.929615 -7.349046,0.519005 z m 3.813559,-11.278472 c 0.441896,-0.441897 -0.08903,-1.829684 -0.83632,-2.18604 -0.428848,-0.204503 -0.471254,-0.203034 -0.723284,0.02505 -0.323741,0.292982 -0.340958,0.735181 -0.05231,1.343467 0.383864,0.808935 1.204362,1.225071 1.611911,0.817523 z"
     id="path814"
     inkscape:connector-curvature="0" /><path
     style="fill:#ccc7c8;fill-opacity:1;stroke:none;stroke-width:0.13241525;stroke-opacity:1"
     d="m 31.428555,31.236542 c -1.424027,-3.940979 -1.948841,-6.995538 -1.839434,-10.706017 0.07989,-2.70936 0.4164,-4.25549 1.318034,-6.055813 1.009552,-2.015806 3.092844,-3.796211 5.052643,-4.318044 1.131158,-0.3011926 1.275371,-0.2654466 1.275371,0.316124 0,1.228363 1.128271,1.571413 1.452305,0.441573 0.07002,-0.244142 0.06891,-0.583937 -0.0027,-0.83369 -0.0665,-0.2318684 -0.107029,-0.4267144 -0.09007,-0.4329908 0.01696,-0.00628 0.314949,-0.1440395 0.662193,-0.3061403 l 0.631354,-0.2947287 -0.07978,0.3635779 c -0.04388,0.1999678 -0.223711,0.7961099 -0.399627,1.3247599 -0.71535,2.149722 -0.251302,3.910798 1.169825,4.439526 0.3795,0.141192 0.264543,0.341199 -0.251785,0.438062 -0.636668,0.11944 -0.990304,-0.09909 -1.87335,-1.157616 -1.871527,-2.243452 -2.51848,-2.682723 -3.563066,-2.419269 -0.644039,0.162432 -0.695754,0.412938 -0.133724,0.647769 0.415073,0.173428 1.683948,1.417809 1.683948,1.651441 0,0.0531 -0.232691,0.34115 -0.51709,0.640116 -0.912985,0.959746 -1.744917,3.550379 -1.995485,6.213927 -0.248436,2.640897 0.162505,4.713391 1.395644,7.038634 0.650256,1.226142 0.682701,1.342308 0.374907,1.342308 -0.48695,0 -2.146747,1.033867 -2.994073,1.86497 l -0.889169,0.872145 z"
     id="path816"
     inkscape:connector-curvature="0" /><path
     style="fill:#9bc7ff;fill-opacity:1;stroke:none;stroke-width:0.13241525;stroke-opacity:1"
     d="m 44.716631,31.258428 c -1.577564,-1.12954 -3.904566,-2.085622 -5.076182,-2.085622 -0.221882,0 -0.428319,-0.04469 -0.458749,-0.09931 -0.08935,-0.160376 0.285225,-3.971496 0.510814,-5.197298 0.644448,-3.501796 2.102242,-7.422282 3.618942,-9.732522 2.445474,-3.72495 5.961866,-5.3710841 9.714233,-4.5475391 0.652771,0.143266 0.731577,0.2208876 0.479839,0.4726251 -0.233879,0.23388 -0.208913,1.191521 0.03749,1.437922 0.51164,0.511638 1.435798,-0.173249 1.435798,-1.064059 0,-0.321453 0.03529,-0.337614 0.7373,-0.337614 h 0.737301 l -0.301854,0.43035 c -0.166019,0.236692 -0.614445,0.760809 -0.996501,1.164704 -0.670501,0.708826 -1.226634,1.673522 -1.232661,2.138231 -0.0026,0.203752 -0.05971,0.199153 -0.623499,-0.05024 -0.512299,-0.226614 -0.782896,-0.26091 -1.550705,-0.19654 -0.791886,0.06639 -1.038386,0.15257 -1.658668,0.579897 -1.024622,0.70589 -1.882166,1.835025 -2.794761,3.679886 -0.928881,1.877786 -1.567052,3.749726 -2.053974,6.024895 -0.499319,2.333095 -0.487567,3.751551 0.05094,6.148041 0.227964,1.0145 0.400379,1.856541 0.383143,1.871202 -0.01723,0.01466 -0.448445,-0.271994 -0.958244,-0.637011 z"
     id="path818"
     inkscape:connector-curvature="0" /><path
     style="fill:#ccdaff;fill-opacity:1;stroke:none;stroke-width:0.13241525;stroke-opacity:1"
     d="m 55.039485,48.915111 c -1.420299,-0.875596 -2.860709,-2.12895 -3.956397,-3.442611 -0.81901,-0.981941 -0.891392,-1.115285 -0.747743,-1.377495 0.08748,-0.159673 0.274145,-0.498868 0.414823,-0.753767 0.507495,-0.919553 0.390577,-1.236612 -0.927452,-2.515085 -0.651001,-0.631464 -1.214739,-1.292183 -1.25275,-1.468264 -0.03801,-0.17608 -0.08763,-0.975602 -0.110256,-1.776715 -0.03711,-1.313816 -0.08232,-1.544088 -0.461321,-2.349581 l -0.420177,-0.893014 0.248381,-1.447673 c 0.430955,-2.511792 1.311206,-4.138596 3.302025,-6.102514 1.268551,-1.251411 2.428475,-1.949316 4.020609,-2.419128 1.46291,-0.431681 4.189513,-0.395138 5.974993,0.08008 2.221229,0.591193 4.73243,1.838195 6.88535,3.419099 0.690458,0.507008 0.873343,0.708759 0.799165,0.881604 -0.244702,0.570194 -0.216844,0.919409 0.09051,1.134692 0.382805,0.268126 0.826957,0.276053 1.040648,0.01857 0.139599,-0.168206 0.268693,-0.102202 0.899167,0.45973 0.40489,0.360873 1.187949,0.894302 1.74013,1.185396 l 1.003963,0.529263 -0.888569,0.0041 c -0.823398,0.0038 -0.99088,-0.04929 -2.283549,-0.724162 -1.15929,-0.605236 -1.509086,-0.728283 -2.070344,-0.728283 -1.231448,0 -1.905605,0.730514 -1.521819,1.649041 0.219031,0.524214 0.760212,0.947863 2.004953,1.569521 0.513991,0.256701 1.012879,0.561135 1.108639,0.67652 0.230922,0.278243 0.117262,0.264576 -0.415928,-0.05001 -0.242184,-0.142892 -1.035115,-0.417696 -1.762071,-0.610676 -1.980874,-0.525851 -2.247933,-0.695241 -3.807311,-2.414899 -1.164858,-1.284589 -2.157267,-2.034838 -3.354527,-2.535984 -3.220803,-1.348154 -6.307823,-0.365671 -7.606898,2.420991 -0.73059,1.567198 -0.85478,2.301125 -0.844268,4.989355 l 0.0096,2.449683 0.628378,2.383474 c 0.947195,3.592764 1.328566,4.498495 2.825266,6.709831 0.541848,0.800566 0.836836,1.359119 0.786739,1.489671 -0.04408,0.114877 -0.129201,0.208867 -0.189152,0.208867 -0.05995,0 -0.583207,-0.29234 -1.16279,-0.649644 z"
     id="path820"
     inkscape:connector-curvature="0" /><path
     style="fill:#cce1ff;fill-opacity:1;stroke:none;stroke-width:0.13241525;stroke-opacity:1"
     d="m 63.78459,54.523271 c -1.456478,-0.829613 -3.019032,-1.6739 -3.47234,-1.876195 -0.453309,-0.202295 -0.8258,-0.428436 -0.827758,-0.502537 -0.002,-0.0741 0.266658,-0.416725 0.596923,-0.761388 0.818275,-0.853944 1.108761,-0.839172 1.998417,0.101625 0.378782,0.400556 0.731364,0.728284 0.783517,0.728284 0.201044,0 -0.04872,-1.160286 -0.350579,-1.628622 -0.338448,-0.525102 -1.177445,-1.019683 -1.72977,-1.019683 -0.184645,0 -0.613363,0.147625 -0.952707,0.328056 -0.443283,0.235697 -0.924155,0.35234 -1.708016,0.41431 l -1.091027,0.08625 0.463453,-0.492506 c 0.59793,-0.635411 1.738172,-1.210337 3.046004,-1.535838 0.885289,-0.220336 1.181047,-0.238559 1.995979,-0.122981 1.216869,0.172583 1.563319,0.347005 1.869475,0.941194 0.282471,0.54822 0.336329,1.041952 0.186062,1.705664 l -0.104928,0.463454 0.357464,-0.347765 c 0.306742,-0.29842 0.358515,-0.459285 0.364868,-1.133703 0.01324,-1.405631 -0.236212,-1.787867 -3.613211,-5.536541 -1.526192,-1.694166 -1.785354,-2.204621 -1.781547,-3.509004 0.0034,-1.174024 0.20875,-1.841036 0.759969,-2.468841 0.549968,-0.626379 1.233517,-0.948175 2.398951,-1.129361 1.336343,-0.207756 2.490895,-0.0025 4.364415,0.775764 0.812902,0.337697 1.497661,0.629029 1.521688,0.647405 0.02403,0.01838 -0.05252,0.180237 -0.170103,0.359692 -0.486025,0.741767 -0.494438,1.808209 -0.01571,1.991912 0.482358,0.185098 1.400078,-0.820714 1.400078,-1.534472 0,-0.319851 0.04257,-0.374975 0.231726,-0.300072 0.453206,0.17946 2.118997,0.274009 3.219362,0.182729 0.614481,-0.05097 1.355585,-0.09392 1.646899,-0.09542 0.461463,-0.0024 0.497352,0.01757 0.278727,0.15499 -0.138012,0.08675 -0.525327,0.366286 -0.860699,0.621186 l -0.609765,0.463453 -1.588983,0.01675 c -1.895329,0.01998 -2.494612,0.20823 -2.773359,0.871174 -0.260314,0.619105 0.01093,1.192156 0.970598,2.050577 0.632975,0.566194 0.810688,0.823101 1.00757,1.456568 0.131474,0.423019 0.267737,0.858505 0.302804,0.967748 0.03507,0.109242 -0.37608,-0.250868 -0.913664,-0.800246 -3.03675,-3.103373 -4.844554,-4.132388 -6.498582,-3.699039 -0.670296,0.175615 -1.496173,0.684092 -1.685403,1.037671 -0.12759,0.238405 -0.06429,0.24901 1.394276,0.233592 1.370019,-0.01448 1.547474,0.01041 1.716985,0.240883 0.103977,0.14137 0.18905,0.392915 0.18905,0.558989 0,0.562617 0.649814,1.775105 2.047721,3.820842 1.666103,2.438222 2.139979,3.592574 2.005624,4.885658 -0.09151,0.880673 -0.522846,1.919818 -1.061013,2.556095 -0.360646,0.426393 -1.707229,1.165851 -2.330256,1.279629 -0.245193,0.04478 -1.017759,-0.330703 -2.979181,-1.447931 z"
     id="path822"
     inkscape:connector-curvature="0" /></svg>