<?xml version="1.0" encoding="UTF-8" standalone="no"?>
<!-- Created with Inkscape (http://www.inkscape.org/) -->

<svg
   xmlns:dc="http://purl.org/dc/elements/1.1/"
   xmlns:cc="http://creativecommons.org/ns#"
   xmlns:rdf="http://www.w3.org/1999/02/22-rdf-syntax-ns#"
   xmlns:svg="http://www.w3.org/2000/svg"
   xmlns="http://www.w3.org/2000/svg"
   xmlns:sodipodi="http://sodipodi.sourceforge.net/DTD/sodipodi-0.dtd"
   xmlns:inkscape="http://www.inkscape.org/namespaces/inkscape"
   width="210mm"
   height="297mm"
   viewBox="0 0 210 297"
   version="1.1"
   id="svg24"
   inkscape:version="0.92.2 (5c3e80d, 2017-08-06)"
   sodipodi:docname="LostWeapon.svg">
  <title
     id="title3988">LostWeapon</title>
  <defs
     id="defs18" />
  <sodipodi:namedview
     id="base"
     pagecolor="#ffffff"
     bordercolor="#666666"
     borderopacity="1.0"
     inkscape:pageopacity="0.0"
     inkscape:pageshadow="2"
     inkscape:zoom="0.9899495"
     inkscape:cx="396.85039"
     inkscape:cy="651.9228"
     inkscape:document-units="mm"
     inkscape:current-layer="layer1"
     showgrid="false"
     inkscape:snap-nodes="false"
     inkscape:snap-others="false"
     inkscape:window-width="1516"
     inkscape:window-height="1008"
     inkscape:window-x="724"
     inkscape:window-y="2"
     inkscape:window-maximized="0"
     inkscape:snap-grids="false"
     inkscape:object-nodes="false"
     inkscape:snap-global="false" />
  <metadata
     id="metadata21">
    <rdf:RDF>
      <cc:Work
         rdf:about="">
        <dc:format>image/svg+xml</dc:format>
        <dc:type
           rdf:resource="http://purl.org/dc/dcmitype/StillImage" />
        <dc:title>LostWeapon</dc:title>
      </cc:Work>
    </rdf:RDF>
  </metadata>
  <g
     inkscape:label="Layer 1"
     inkscape:groupmode="layer"
     id="layer1">
    <g
       id="g4552"
       style="fill:#00ffcc"
       transform="translate(-20.847023,-22.985179)">
      <path
         id="path2-0"
         d="m 119.34343,170.24366 h -2.82099 c -0.23098,0 -0.45561,-0.0952 -0.61595,-0.26141 -0.16087,-0.16774 -0.24791,-0.39528 -0.23918,-0.62521 0.0458,-1.30122 0.17092,-2.16588 0.39396,-2.72044 0.23918,-0.59531 0.78132,-1.21709 1.65709,-1.90103 l 0.76623,-0.60008 c 0.18045,-0.13388 0.31538,-0.2712 0.42201,-0.42598 0.17833,-0.24818 0.25903,-0.48948 0.25903,-0.76676 0,-0.35322 -0.0968,-0.65405 -0.3048,-0.94641 -0.13282,-0.18733 -0.48419,-0.29052 -0.98928,-0.29052 -0.6559,0 -0.8763,0.22887 -0.98504,0.40111 -0.24951,0.39741 -0.37121,0.79375 -0.37121,1.21021 0,0.47175 -0.38391,0.85566 -0.85593,0.85566 h -3.01017 c -0.23151,0 -0.4564,-0.0958 -0.61727,-0.26273 -0.16139,-0.16907 -0.24791,-0.39794 -0.23786,-0.62918 0.095,-2.26378 0.92446,-3.90949 2.46565,-4.89162 0.95462,-0.61383 2.12646,-0.92578 3.48139,-0.92578 1.74308,0 3.22686,0.4326 4.41034,1.28588 1.26894,0.91572 1.91241,2.27039 1.91241,4.02616 0,1.08294 -0.28125,2.01745 -0.83608,2.77786 -0.30904,0.44159 -0.86202,0.97182 -1.68646,1.61423 l -0.73633,0.57308 c -0.26459,0.20559 -0.43154,0.42731 -0.51039,0.67734 -0.0262,0.0815 -0.0865,0.33787 -0.095,0.98187 -0.007,0.46513 -0.39105,0.84375 -0.85619,0.84375 z m -1.47241,-9.33185 c 0.79216,0 1.34276,0.21008 1.63671,0.62468 0.30348,0.42704 0.45138,0.88715 0.45138,1.406 0,0.44555 -0.13202,0.8456 -0.40322,1.22343 -0.14976,0.21802 -0.34978,0.42254 -0.59002,0.60087 l -0.75856,0.59399 c -0.75221,0.58737 -1.22635,1.11627 -1.40944,1.57189 -0.18256,0.45402 -0.29607,1.27926 -0.33708,2.45295 -5.3e-4,0.0169 0.006,0.0336 0.0177,0.046 0.0111,0.0116 0.0272,0.0183 0.0442,0.0183 h 2.82099 c 0.0339,0 0.0617,-0.0275 0.0622,-0.0614 0.007,-0.55139 0.0519,-0.95859 0.13229,-1.21073 0.12832,-0.40774 0.38365,-0.75593 0.77946,-1.0639 l 0.73607,-0.57256 c 0.76068,-0.59293 1.26074,-1.06707 1.52797,-1.44939 0.45826,-0.62812 0.68845,-1.4052 0.68845,-2.31616 0,-1.48643 -0.53261,-2.6244 -1.58274,-3.38244 -1.04537,-0.75379 -2.37331,-1.13585 -3.94599,-1.13585 -1.20015,0 -2.22753,0.26934 -3.0533,0.80036 -1.31074,0.83529 -2.01718,2.26722 -2.10052,4.25635 -5.3e-4,0.0172 0.006,0.0336 0.018,0.0466 0.0109,0.0111 0.0273,0.0183 0.0442,0.0183 h 3.00964 c 0.0344,0 0.0622,-0.0278 0.0622,-0.0619 0,-0.57044 0.16139,-1.10463 0.49318,-1.63327 0.32332,-0.5125 0.88053,-0.77205 1.65629,-0.77205 z"
         style="fill:#00ffcc;stroke-width:0.26458332"
         inkscape:connector-curvature="0" />
      <path
         id="path4-07"
         d="m 119.56409,176.48889 h -3.11494 c -0.47202,0 -0.85593,-0.38391 -0.85593,-0.85593 v -3.0099 c 0,-0.47175 0.38391,-0.85566 0.85593,-0.85566 h 3.11468 c 0.47201,0 0.85592,0.38391 0.85592,0.85566 v 3.0099 c 2.7e-4,0.47202 -0.38364,0.85593 -0.85566,0.85593 z m -3.11494,-3.92801 c -0.0344,0 -0.0622,0.0278 -0.0622,0.0619 v 3.0099 c 0,0.0344 0.0278,0.0622 0.0622,0.0622 h 3.11468 c 0.0344,0 0.0622,-0.0278 0.0622,-0.0622 v -3.00963 c 0,-0.0341 -0.0278,-0.0619 -0.0622,-0.0619 h -3.11468 z"
         style="fill:#00ffcc;stroke-width:0.26458332"
         inkscape:connector-curvature="0" />
    </g>
    <g
       id="g4556"
       style="fill:#ff00cc"
       transform="translate(-29.399648,-3.2072343)">
      <path
         id="path2-3"
         d="m 176.03986,129.42223 h -2.82099 c -0.23098,0 -0.45561,-0.0953 -0.61595,-0.26141 -0.16087,-0.16774 -0.24792,-0.39528 -0.23918,-0.62521 0.0458,-1.30122 0.17092,-2.16587 0.39396,-2.72044 0.23918,-0.59531 0.78131,-1.21708 1.65709,-1.90103 l 0.76623,-0.60008 c 0.18044,-0.13388 0.31538,-0.2712 0.42201,-0.42598 0.17833,-0.24818 0.25903,-0.48948 0.25903,-0.76676 0,-0.35322 -0.0968,-0.65405 -0.3048,-0.94641 -0.13282,-0.18733 -0.48419,-0.29052 -0.98928,-0.29052 -0.6559,0 -0.8763,0.22887 -0.98504,0.40111 -0.24951,0.39741 -0.37121,0.79375 -0.37121,1.21021 0,0.47175 -0.38392,0.85566 -0.85593,0.85566 h -3.01017 c -0.23151,0 -0.4564,-0.0958 -0.61727,-0.26273 -0.1614,-0.16907 -0.24791,-0.39794 -0.23786,-0.62918 0.095,-2.26378 0.92445,-3.90948 2.46565,-4.89162 0.95462,-0.61383 2.12646,-0.92578 3.48139,-0.92578 1.74307,0 3.22686,0.4326 4.41034,1.28588 1.26894,0.91572 1.91241,2.27039 1.91241,4.02616 0,1.08294 -0.28125,2.01745 -0.83609,2.77786 -0.30903,0.44159 -0.86201,0.97182 -1.68645,1.61423 l -0.73634,0.57308 c -0.26458,0.20559 -0.43153,0.42731 -0.51038,0.67734 -0.0262,0.0815 -0.0865,0.33787 -0.095,0.98187 -0.007,0.46513 -0.39106,0.84375 -0.85619,0.84375 z m -1.47241,-9.33185 c 0.79216,0 1.34276,0.21008 1.63671,0.62468 0.30348,0.42704 0.45138,0.88715 0.45138,1.406 0,0.44555 -0.13203,0.8456 -0.40322,1.22343 -0.14976,0.21802 -0.34978,0.42254 -0.59002,0.60087 l -0.75856,0.59399 c -0.75221,0.58737 -1.22635,1.11628 -1.40944,1.57189 -0.18256,0.45402 -0.29607,1.27926 -0.33708,2.45295 -5.3e-4,0.0169 0.006,0.0336 0.0177,0.046 0.0111,0.0116 0.0273,0.0183 0.0442,0.0183 h 2.82099 c 0.0339,0 0.0616,-0.0275 0.0622,-0.0614 0.007,-0.55139 0.0519,-0.95859 0.13229,-1.21073 0.12832,-0.40774 0.38365,-0.75593 0.77946,-1.0639 l 0.73607,-0.57256 c 0.76068,-0.59293 1.26074,-1.06707 1.52797,-1.44939 0.45826,-0.62812 0.68845,-1.4052 0.68845,-2.31616 0,-1.48643 -0.53261,-2.6244 -1.58274,-3.38243 -1.04537,-0.7538 -2.37331,-1.13586 -3.946,-1.13586 -1.20015,0 -2.22752,0.26935 -3.05329,0.80036 -1.31074,0.83529 -2.01718,2.26722 -2.10052,4.25636 -5.3e-4,0.0172 0.006,0.0336 0.018,0.0466 0.0109,0.0111 0.0273,0.0183 0.0442,0.0183 h 3.00964 c 0.0344,0 0.0622,-0.0278 0.0622,-0.0619 0,-0.57045 0.16139,-1.10464 0.49318,-1.63328 0.32332,-0.51249 0.88053,-0.77205 1.65629,-0.77205 z"
         style="fill:#ff00cc;stroke-width:0.26458332"
         inkscape:connector-curvature="0" />
      <path
         id="path4-1"
         d="m 176.26052,135.66746 h -3.11494 c -0.47202,0 -0.85593,-0.38391 -0.85593,-0.85593 v -3.0099 c 0,-0.47175 0.38391,-0.85566 0.85593,-0.85566 h 3.11467 c 0.47202,0 0.85593,0.38391 0.85593,0.85566 v 3.0099 c 2.7e-4,0.47202 -0.38364,0.85593 -0.85566,0.85593 z m -3.11494,-3.92801 c -0.0344,0 -0.0622,0.0278 -0.0622,0.0619 v 3.0099 c 0,0.0344 0.0278,0.0622 0.0622,0.0622 h 3.11467 c 0.0344,0 0.0622,-0.0278 0.0622,-0.0622 v -3.00963 c 0,-0.0341 -0.0278,-0.0619 -0.0622,-0.0619 h -3.11467 z"
         style="fill:#ff00cc;stroke-width:0.26458332"
         inkscape:connector-curvature="0" />
    </g>
    <g
       id="g4536"
       style="fill:#ff0000"
       transform="translate(1.0690781,13.363476)">
      <path
         id="path2-00"
         d="m 86.081523,47.779377 h -2.820987 c -0.230982,0 -0.455613,-0.09525 -0.61595,-0.261409 -0.160867,-0.167745 -0.247915,-0.395287 -0.239184,-0.62521 0.04577,-1.301221 0.170921,-2.165879 0.393965,-2.720446 0.239183,-0.595313 0.781314,-1.217083 1.657085,-1.901031 l 0.766234,-0.600075 c 0.180445,-0.13388 0.315383,-0.271198 0.42201,-0.42598 0.178329,-0.248179 0.259027,-0.489479 0.259027,-0.766762 0,-0.353219 -0.09684,-0.65405 -0.3048,-0.946415 -0.132821,-0.187325 -0.484187,-0.290512 -0.989277,-0.290512 -0.655902,0 -0.8763,0.228864 -0.985044,0.401108 -0.249502,0.397404 -0.37121,0.79375 -0.37121,1.210204 0,0.471752 -0.383911,0.855663 -0.855927,0.855663 H 79.3873 c -0.23151,0 -0.456406,-0.09578 -0.617273,-0.262731 -0.161396,-0.169069 -0.247914,-0.397934 -0.23786,-0.62918 0.09498,-2.263775 0.924454,-3.909483 2.465652,-4.891616 0.954617,-0.613833 2.126456,-0.925777 3.481387,-0.925777 1.743075,0 3.226859,0.432594 4.41034,1.285875 1.268942,0.915723 1.912409,2.270389 1.912409,4.026164 0,1.08294 -0.281252,2.017448 -0.836084,2.777861 -0.309033,0.441589 -0.862012,0.971814 -1.686454,1.614223 l -0.736336,0.573087 C 87.278498,45.482 87.111546,45.70372 87.0327,45.953752 c -0.02619,0.08149 -0.08652,0.337873 -0.09499,0.981868 -0.0069,0.465138 -0.391054,0.843757 -0.856192,0.843757 z m -1.472406,-9.331855 c 0.792162,0 1.34276,0.210079 1.636712,0.624682 0.303477,0.427037 0.45138,0.887147 0.45138,1.405995 0,0.445559 -0.132028,0.845609 -0.403225,1.223434 -0.149755,0.218016 -0.34978,0.422539 -0.590021,0.600868 l -0.758561,0.59399 c -0.75221,0.587375 -1.226343,1.116277 -1.409435,1.57189 -0.182563,0.454025 -0.296069,1.27926 -0.337079,2.452952 -5.29e-4,0.01693 0.0058,0.0336 0.01773,0.04604 0.01111,0.01164 0.02725,0.01826 0.04418,0.01826 h 2.820988 c 0.03387,0 0.06165,-0.02752 0.06218,-0.06138 0.0074,-0.551391 0.05186,-0.958585 0.132291,-1.210733 0.128323,-0.407733 0.383646,-0.755925 0.779463,-1.0639 l 0.736071,-0.572558 c 0.760677,-0.592931 1.26074,-1.067065 1.527969,-1.449388 0.458258,-0.62812 0.688446,-1.405202 0.688446,-2.316162 0,-1.486429 -0.532607,-2.624402 -1.582738,-3.382433 -1.045369,-0.753798 -2.373313,-1.135857 -3.945996,-1.135857 -1.20015,0 -2.227527,0.269346 -3.053292,0.800365 -1.310746,0.835289 -2.017183,2.267214 -2.100527,4.256352 -5.29e-4,0.0172 0.0056,0.0336 0.01799,0.04657 0.01085,0.01111 0.02725,0.01826 0.04418,0.01826 h 3.009636 c 0.0344,0 0.06218,-0.02778 0.06218,-0.06191 0,-0.570442 0.161396,-1.104636 0.493183,-1.633273 0.323321,-0.512497 0.880534,-0.772054 1.656292,-0.772054 z"
         style="fill:#ff0000;stroke-width:0.26458332"
         inkscape:connector-curvature="0" />
      <path
         id="path4-8"
         d="m 86.302186,54.024602 h -3.11494 c -0.472017,0 -0.855927,-0.383911 -0.855927,-0.855927 v -3.0099 c 0,-0.471752 0.38391,-0.855663 0.855927,-0.855663 h 3.114675 c 0.472017,0 0.855927,0.383911 0.855927,0.855663 v 3.0099 c 2.65e-4,0.472016 -0.383646,0.855927 -0.855662,0.855927 z m -3.11494,-3.928004 c -0.0344,0 -0.06218,0.02778 -0.06218,0.06191 v 3.0099 c 0,0.0344 0.02778,0.06218 0.06218,0.06218 h 3.114675 c 0.0344,0 0.06218,-0.02778 0.06218,-0.06218 v -3.009635 c 0,-0.03413 -0.02778,-0.06191 -0.06218,-0.06191 h -3.114675 z"
         style="fill:#ff0000;stroke-width:0.26458332"
         inkscape:connector-curvature="0" />
    </g>
    <g
       id="g4540"
       style="fill:#00ff00"
       transform="translate(13.898015,18.708867)">
      <path
         id="path2-6"
         d="m 45.260094,90.868662 h -2.820987 c -0.230981,0 -0.455613,-0.09525 -0.61595,-0.261409 -0.160867,-0.167745 -0.247915,-0.395287 -0.239183,-0.62521 0.04577,-1.301221 0.17092,-2.165879 0.393964,-2.720445 0.239184,-0.595313 0.781315,-1.217084 1.657086,-1.901032 l 0.766233,-0.600075 c 0.180446,-0.133879 0.315383,-0.271198 0.42201,-0.425979 0.17833,-0.248179 0.259027,-0.489479 0.259027,-0.766762 0,-0.353219 -0.09684,-0.65405 -0.3048,-0.946415 -0.13282,-0.187325 -0.484187,-0.290512 -0.989277,-0.290512 -0.655902,0 -0.8763,0.228864 -0.985043,0.401108 -0.249502,0.397404 -0.371211,0.79375 -0.371211,1.210204 0,0.471752 -0.38391,0.855663 -0.855927,0.855663 h -3.010164 c -0.231511,0 -0.456407,-0.09578 -0.617273,-0.262732 -0.161396,-0.169068 -0.247915,-0.397933 -0.237861,-0.629179 0.09499,-2.263775 0.924454,-3.909483 2.465652,-4.891616 0.954617,-0.613834 2.126457,-0.925778 3.481388,-0.925778 1.743075,0 3.226858,0.432594 4.410339,1.285875 1.268942,0.915723 1.912409,2.27039 1.912409,4.026165 0,1.08294 -0.281252,2.017448 -0.836084,2.77786 -0.309033,0.44159 -0.862012,0.971815 -1.686454,1.614223 l -0.736335,0.573087 c -0.264584,0.205582 -0.431536,0.427302 -0.510381,0.677334 -0.02619,0.08149 -0.08652,0.337873 -0.09499,0.981868 -0.0069,0.465138 -0.391055,0.843757 -0.856193,0.843757 z m -1.472406,-9.331854 c 0.792163,0 1.342761,0.210079 1.636713,0.624681 0.303477,0.427038 0.451379,0.887148 0.451379,1.405996 0,0.445558 -0.132027,0.845608 -0.403225,1.223433 -0.149754,0.218017 -0.349779,0.42254 -0.590021,0.600869 l -0.75856,0.59399 c -0.752211,0.587375 -1.226344,1.116277 -1.409436,1.571889 -0.182562,0.454025 -0.296069,1.27926 -0.337079,2.452952 -5.29e-4,0.01693 0.0058,0.0336 0.01773,0.04604 0.01111,0.01164 0.02725,0.01826 0.04418,0.01826 h 2.820988 c 0.03387,0 0.06165,-0.02752 0.06218,-0.06138 0.0074,-0.551391 0.05186,-0.958585 0.132292,-1.210733 0.128323,-0.407733 0.383646,-0.755924 0.779462,-1.063899 l 0.736071,-0.572558 c 0.760677,-0.592932 1.26074,-1.067065 1.527969,-1.449388 0.458258,-0.628121 0.688446,-1.405202 0.688446,-2.316162 0,-1.48643 -0.532607,-2.624402 -1.582738,-3.382434 -1.045369,-0.753798 -2.373312,-1.135856 -3.945996,-1.135856 -1.20015,0 -2.227527,0.269346 -3.053291,0.800365 -1.310746,0.835289 -2.017184,2.267214 -2.100527,4.256352 -5.3e-4,0.0172 0.0056,0.0336 0.01799,0.04657 0.01085,0.01111 0.02725,0.01826 0.04419,0.01826 h 3.009635 c 0.0344,0 0.06218,-0.02778 0.06218,-0.06191 0,-0.570442 0.161396,-1.104636 0.493183,-1.633273 0.323321,-0.512498 0.880534,-0.772054 1.656292,-0.772054 z"
         style="fill:#00ff00;stroke-width:0.26458332"
         inkscape:connector-curvature="0" />
      <path
         id="path4-4"
         d="m 45.480757,97.113887 h -3.11494 c -0.472016,0 -0.855927,-0.383911 -0.855927,-0.855927 v -3.0099 c 0,-0.471752 0.383911,-0.855663 0.855927,-0.855663 h 3.114675 c 0.472017,0 0.855927,0.383911 0.855927,0.855663 v 3.0099 c 2.65e-4,0.472016 -0.383645,0.855927 -0.855662,0.855927 z m -3.11494,-3.928004 c -0.0344,0 -0.06218,0.02778 -0.06218,0.06191 v 3.0099 c 0,0.0344 0.02778,0.06218 0.06218,0.06218 h 3.114675 c 0.0344,0 0.06218,-0.02778 0.06218,-0.06218 v -3.009635 c 0,-0.03413 -0.02778,-0.06191 -0.06218,-0.06191 h -3.114675 z"
         style="fill:#00ff00;stroke-width:0.26458332"
         inkscape:connector-curvature="0" />
    </g>
    <g
       id="g4608"
       transform="translate(-25.123336,-143.79101)">
      <g
         transform="translate(4.2763124,0.53453905)"
         id="g4600">
        <path
           id="path2"
           d="m 195.97149,200.94323 c -0.28082,-0.63922 -0.98285,-1.02275 -1.68488,-1.02275 -0.84244,0 -1.68488,0.51138 -1.82528,1.27844 -0.84244,3.45177 -3.36976,9.84394 -10.24967,13.04003 -1.26366,0.63921 -2.66772,0.8949 -4.21219,0.8949 -2.38691,0 -4.63341,-0.76706 -6.4587,-2.30118 l 7.72235,-7.28708 c 1.82529,-1.66196 1.82529,-4.47452 0,-6.13648 l -2.2465,-2.0455 c -1.82528,-1.66196 -4.91422,-1.66196 -6.73951,0 l -7.58194,7.41492 c -2.94854,-2.68471 -3.65057,-6.7757 -1.82529,-10.09963 3.51017,-6.26433 10.39008,-8.56551 14.32146,-9.33257 0.84244,-0.12784 1.40406,-0.76706 1.40406,-1.53412 0.14041,-0.76706 -0.42122,-1.40628 -1.12325,-1.78981 -2.38691,-0.8949 -7.58194,-2.55687 -14.04064,-2.55687 -10.67089,0 -20.92055,4.09099 -30.32778,12.14513 -0.14041,0 -0.14041,0.12784 -0.28082,0.12784 -0.1404,0.12785 -0.28081,0.25569 -0.42122,0.38353 l -0.42122,0.63922 c -0.1404,0.12784 -0.28081,0.25569 -0.42121,0.38353 -0.14041,0.12784 -0.14041,0.12784 -0.14041,0.25569 -18.25283,17.64239 -13.47901,34.13419 -10.53048,40.27068 0.28082,0.63921 0.98285,1.02274 1.68488,1.02274 0.84243,0 1.68487,-0.51137 1.82528,-1.27843 0.84244,-3.45177 3.36975,-9.84394 10.24967,-13.04003 1.26365,-0.63922 2.80812,-0.8949 4.21219,-0.8949 2.52731,0 5.05463,0.8949 6.87991,2.55687 l 0.14041,0.12784 -44.508829,40.27068 c -0.561625,-0.51137 -1.404064,-0.76706 -2.246502,-0.76706 -0.842439,0 -1.684877,0.25569 -2.386909,0.89491 -0.561626,0.51137 -0.982845,1.27843 -0.982845,2.17333 0,0.63922 0.280813,1.27844 0.702032,1.78981 l -16.287144,14.82984 -4.352598,3.96315 c -1.825284,1.66196 -1.825284,4.47452 0,6.13648 l 2.246502,2.0455 c 0.982845,0.8949 2.106096,1.27843 3.369754,1.27843 1.263658,0 2.386909,-0.38353 3.369754,-1.27843 l 2.667722,-2.42903 c 0,0 0,0 0,0 l 1.54447,-1.40628 16.427553,-14.95768 c 0.56162,0.25569 1.12325,0.38353 1.68487,0.38353 0.84244,0 1.68488,-0.25569 2.38691,-0.8949 0.98285,-0.89491 1.26366,-2.30118 0.70204,-3.32393 l 44.64923,-40.27068 c 2.2465,2.68471 2.80813,6.26432 1.12325,9.33257 -3.51016,6.26433 -10.39007,8.56551 -14.32145,9.33257 -0.84244,0.12784 -1.40407,0.76706 -1.40407,1.53412 -0.1404,0.76706 0.42122,1.40628 1.12325,1.78981 2.38691,0.8949 7.58195,2.55687 14.04065,2.55687 10.67088,0 20.92055,-4.09099 30.32778,-12.14513 0.14041,0 0.14041,-0.12784 0.28081,-0.12784 0.14041,-0.12785 0.28082,-0.25569 0.42122,-0.38354 l 0.42122,-0.38353 c 0.14041,-0.12784 0.28081,-0.25568 0.42122,-0.38353 0.14041,-0.12784 0.14041,-0.12784 0.14041,-0.25568 18.25283,-17.77024 13.47901,-34.26204 10.53048,-40.52637 z m -24.14991,-2.0455 c 0.98285,-0.8949 2.52732,-0.8949 3.51017,0 l 2.2465,2.0455 c 0.98284,0.8949 0.98284,2.30118 0,3.19609 l -7.72235,7.28707 -5.61626,-5.11374 z m -20.35892,30.17105 -44.64924,40.14284 -5.89707,-5.36942 44.50883,-40.27068 z m -55.460533,38.86441 5.756663,5.24158 -15.444705,14.06278 -5.756663,-5.24158 z M 81.259454,292.0956 c -0.982845,0.8949 -2.527315,0.8949 -3.51016,0 l -2.246502,-2.0455 c -0.982845,-0.8949 -0.982845,-2.30118 0,-3.19608 l 3.51016,-3.19609 5.756663,5.24158 z m 24.711526,-19.30436 c -0.42122,0.38353 -0.98284,0.38353 -1.40406,0 l -0.28081,-0.25569 -7.441544,-6.7757 -0.561626,-0.51137 c -0.140406,-0.12785 -0.280813,-0.38353 -0.280813,-0.63922 0,-0.25569 0.140407,-0.51137 0.280813,-0.63922 0.421219,-0.38353 0.982845,-0.38353 1.404064,0 l 0.702032,0.63922 c 0,0 0,0 0,0 0,0 0,0 0,0 l 7.441544,6.7757 c 0.56162,0.38353 0.56162,1.02275 0.1404,1.40628 z m 77.64474,-32.72792 c 0,0 -0.1404,0.12784 -0.1404,0.12784 0,0 -0.14041,0.12785 -0.14041,0.12785 -0.14041,0.12784 -0.14041,0.12784 -0.28081,0.25568 l -0.28082,0.25569 c 0,0 -0.1404,0.12784 -0.1404,0.12784 -0.14041,0 -0.14041,0.12785 -0.14041,0.12785 -8.98601,7.79845 -18.67405,11.76159 -28.92372,11.76159 -5.19504,0 -9.40723,-1.02274 -11.93454,-1.91765 4.3526,-1.02274 11.0921,-3.70746 14.60226,-10.09963 2.24651,-4.09099 1.40407,-9.20473 -2.2465,-12.52866 0,0 0,0 0,0 0,0 0,0 0,0 0,0 0,0 0,0 l -8.42438,-7.6706 c -2.24651,-2.0455 -5.33545,-3.19609 -8.42439,-3.19609 -1.82528,0 -3.65057,0.38353 -5.19504,1.15059 -7.02032,3.19609 -9.96885,9.33257 -11.0921,13.29572 -2.66772,-6.52002 -5.89707,-21.34985 10.67089,-37.20244 0,0 0.1404,-0.12784 0.1404,-0.12784 0,0 0.14041,-0.12785 0.14041,-0.12785 l 0.28081,-0.25568 c 0.14041,-0.12785 0.14041,-0.12785 0.28081,-0.25569 0,0 0.14041,-0.12784 0.14041,-0.12784 0.14041,0 0.14041,-0.12785 0.14041,-0.12785 8.98601,-7.79845 18.67405,-11.76159 28.92372,-11.76159 5.19503,0 9.40723,1.15059 11.93454,1.91765 -4.493,1.02275 -11.23251,3.70746 -14.74267,10.09963 -2.2465,4.09099 -1.40407,9.20473 2.2465,12.52866 l 8.42439,7.6706 c 2.2465,2.0455 5.33544,3.19609 8.42438,3.19609 1.82528,0 3.65057,-0.38353 5.19504,-1.15059 7.02032,-3.19609 9.96885,-9.33257 11.0921,-13.29572 2.94854,6.52002 6.03748,21.34985 -10.53048,37.20244 z"
           inkscape:connector-curvature="0"
           style="fill:#782121;fill-opacity:1;stroke-width:1.33977747" />
        <path
           style="fill:#782121;fill-opacity:1;stroke:none;stroke-width:2.02030516;stroke-opacity:1"
           d="m 393.29936,1006.6167 -10.52578,-9.51729 79.30585,-71.72083 c 43.61822,-39.44645 81.22862,-73.23907 83.57867,-75.09471 4.11343,-3.24803 4.66867,-3.02196 14.88605,6.06092 l 10.61324,9.43479 -74.2106,66.67007 c -40.81582,36.66854 -78.46558,70.49825 -83.66612,75.17715 l -9.45552,8.5071 z"
           id="path4590"
           inkscape:connector-curvature="0"
           transform="scale(0.26458333)" />
        <path
           style="fill:#782121;fill-opacity:1;stroke:none;stroke-width:2.02030516;stroke-opacity:1"
           d="m 632.48424,789.09669 -10.04865,-9.00698 15.40258,-15.23883 c 8.47142,-8.38136 16.65365,-15.23095 18.18274,-15.22132 1.5291,0.01 6.19033,3.24972 10.3583,7.20018 9.11076,8.6353 9.03025,8.8575 -10.0135,27.63472 l -13.83281,13.63921 z"
           id="path4592"
           inkscape:connector-curvature="0"
           transform="scale(0.26458333)" />
        <path
           style="fill:#e6e6e6;fill-opacity:1;stroke:none;stroke-width:2.02030516;stroke-opacity:1"
           d="m 572.93812,954.30006 c -3.88909,-0.3161 -13.30436,-1.59776 -20.92283,-2.84813 l -13.85175,-2.27339 11.03924,-4.48667 c 6.07158,-2.46768 14.32412,-6.51686 18.33897,-8.99818 9.87113,-6.10069 22.85428,-21.19017 25.73034,-29.90469 3.52364,-10.67675 1.46452,-27.58392 -4.33561,-35.59912 -7.12333,-9.84372 -39.91947,-39.2821 -49.3334,-44.28252 -11.42631,-6.06933 -31.17649,-5.9324 -43.21844,0.29964 -13.36543,6.91698 -27.71494,21.45528 -34.41956,34.8724 l -5.99052,11.98811 -2.60769,-8.69473 c -1.47957,-4.93328 -2.56624,-18.30882 -2.51188,-30.91808 0.0811,-18.81391 0.89026,-24.3129 5.27413,-35.84334 7.1234,-18.73592 16.50249,-33.58939 31.77846,-50.32685 34.47273,-37.77085 78.52486,-58.53523 123.23443,-58.08768 21.7365,0.21758 42.38444,4.15449 35.53724,6.77583 -2.22233,0.85078 -8.5863,3.68919 -14.14213,6.30757 -31.17695,14.69322 -45.41263,43.86511 -32.82996,67.27548 5.17501,9.62824 38.86227,40.86932 51.0127,47.30844 11.63435,6.16563 31.14846,6.04289 43.98182,-0.27664 13.19817,-6.49917 27.23489,-21.09998 33.96422,-35.32916 l 5.61346,-11.86965 3.24436,10.81979 c 3.76688,12.56241 4.29384,38.88477 1.0678,53.33872 -12.17685,54.55692 -80.38091,113.77776 -137.32547,119.23818 -6.13544,0.58834 -13.42818,1.29914 -16.2061,1.57956 -2.77792,0.28044 -8.23275,0.25123 -12.12183,-0.0648 z"
           id="path4594"
           inkscape:connector-curvature="0"
           transform="scale(0.26458333)" />
      </g>
      <path
         style="fill:#6600ff;stroke-width:1.33977747"
         inkscape:connector-curvature="0"
         d="m 162.60174,214.37967 c -1.26366,0 -2.2465,0.38353 -3.22935,1.15059 -0.84243,0.76706 -1.26365,1.78981 -1.26365,2.9404 0,1.15059 0.42122,2.0455 1.26365,2.9404 0.84244,0.76706 1.96569,1.15059 3.22935,1.15059 1.26366,0 2.2465,-0.38353 3.22935,-1.15059 0.84244,-0.76706 1.26366,-1.78981 1.26366,-2.9404 0,-1.15059 -0.42122,-2.04549 -1.26366,-2.9404 -0.98285,-0.76706 -2.1061,-1.15059 -3.22935,-1.15059 z m 1.54447,5.36943 c -0.84244,0.76706 -2.2465,0.76706 -3.08894,0 -0.42122,-0.38354 -0.70203,-0.89491 -0.70203,-1.40628 0,-0.51138 0.28081,-1.02275 0.70203,-1.40628 0.42122,-0.38353 0.98285,-0.63922 1.54447,-0.63922 0.56163,0 1.12325,0.25569 1.54447,0.63922 0.42122,0.38353 0.70203,0.8949 0.70203,1.40628 0,0.51137 -0.42122,1.02274 -0.70203,1.40628 z"
         id="path4-7" />
    </g>
    <g
       id="g4538"
       transform="translate(12.027129,-97.018838)">
      <g
         transform="translate(-14.165285,96.484299)"
         id="g4532">
        <path
           id="path2-1"
           d="m 52.383537,56.891172 c -0.827579,2.672395 9.103361,20.101058 9.103361,20.101058 L 51.004239,66.651223 c -0.965508,-2.440012 1.379298,-9.760051 1.379298,-9.760051 z"
           inkscape:connector-curvature="0"
           style="fill:#e6e6e6;stroke-width:1.26594651" />
        <path
           id="path4"
           d="m 101.21066,123.23628 0.41379,-0.23238 -53.930524,-52.983135 -0.13793,-0.116191 c -4.82754,-5.925746 3.034454,-19.984868 3.448243,-20.565823 l 0.827579,-1.394293 65.102832,63.905102 0.13793,-0.11619 c 1.37929,-1.04572 3.58617,-0.92953 4.68961,0.34857 1.10343,1.2781 1.10343,3.02097 -0.41379,3.9505 l -2.34481,1.62667 25.24114,24.7487 c 2.75859,2.6724 2.34481,6.73909 -0.82758,9.06291 -2.20687,1.62667 -5.93098,2.78859 -8.41371,1.85906 -1.51723,-0.46477 -2.48274,-1.62668 -2.62067,-3.13716 -0.68964,-5.46098 -17.79293,-18.47439 -25.24113,-23.81918 l -1.51723,1.04572 c -1.3793,1.04572 -3.58617,0.92953 -4.68961,-0.34857 -1.10344,-1.2781 -1.10344,-2.90478 0.27586,-3.83431 z M 52.521466,51.662573 c -2.344805,4.531452 -5.793048,13.361975 -2.896524,16.963899 l 53.792588,52.983138 11.5861,-8.36576 z m 68.275214,82.379487 c 8.8275,7.20384 13.51711,12.66482 13.9309,15.91817 0.13793,1.04572 0.68965,1.27811 1.10344,1.51049 1.51722,0.46476 4.41375,-0.46477 5.93098,-1.51049 2.20687,-1.51048 2.48273,-4.29907 0.55171,-6.15812 l -25.10321,-24.63251 -8.27578,5.92574 c 2.20688,1.51049 7.03442,4.99622 11.86196,8.94672 z m -16.82743,-8.13338 1.10344,-0.81334 12.41367,-8.94671 2.34481,-1.74287 c 0.41379,-0.23238 0.41379,-0.69715 0.13793,-1.04572 -0.27586,-0.34857 -0.82758,-0.34857 -1.24137,-0.11619 l -0.13793,0.11619 -15.3102,11.15435 -0.41379,0.23238 c -0.41379,0.23238 -0.41379,0.69714 -0.13793,1.04572 0.27586,0.34857 0.82758,0.34857 1.24137,0.11619 z"
           inkscape:connector-curvature="0"
           style="fill:#999999;stroke-width:1.26594651" />
        <ellipse
           id="circle6"
           cy="147.40404"
           cx="-138.86546"
           transform="scale(-1,1)"
           rx="2.0689459"
           ry="1.7428664"
           style="fill:#c83737;stroke-width:1.26594651" />
      </g>
      <path
         transform="scale(0.26458333)"
         inkscape:connector-curvature="0"
         id="path836"
         d="M 235.83208,723.77019 C 179.9959,668.77703 133.4614,622.15716 132.42208,620.17048 c -2.95333,-5.64536 -1.8872,-21.9446 2.24352,-34.29926 3.27544,-9.79659 9.70131,-24.49013 10.71019,-24.49013 0.87982,0 233.62461,229.64559 233.93491,230.81986 0.22092,0.83604 -15.16777,12.4827 -37.53186,28.40531 l -4.42643,3.15148 z m -61.71913,-76.77867 c -2.2397,-4.02798 -8.76395,-16.72656 -14.49833,-28.21906 -10.09728,-20.23637 -14.69627,-31.3663 -14.69627,-35.56618 0,-1.22904 -0.35361,-1.64865 -0.8988,-1.06655 -1.62683,1.73696 -5.33177,19.98971 -5.50114,27.10193 l -0.16605,6.97266 19.57965,19.0504 c 10.76881,10.47772 19.73119,19.05041 19.91639,19.05041 0.1852,0 -1.49575,-3.29563 -3.73545,-7.32361 z"
         style="fill:#f2f2f2;fill-opacity:1;stroke:none;stroke-width:1.01015258;stroke-opacity:1" />
      <path
         transform="scale(0.26458333)"
         inkscape:connector-curvature="0"
         id="path4527"
         d="M 311.79555,798.87187 C 281.06865,768.4147 158.21718,647.50746 144.8988,634.61641 c -5.39603,-5.2229 -9.5916,-9.85113 -9.32348,-10.28495 0.26812,-0.43382 -0.36404,-1.38808 -1.4048,-2.12057 -2.75981,-1.94238 -3.53328,-5.32932 -3.41844,-14.96887 0.11682,-9.80491 3.20122,-21.81409 8.95084,-34.85026 1.96032,-4.44468 3.8118,-8.89531 4.11439,-9.8903 0.30258,-0.99499 0.92096,-1.67684 1.37418,-1.51523 0.45321,0.16162 10.2822,9.62295 21.8422,21.02519 11.55999,11.40224 64.08855,63.17279 116.73013,115.04567 52.64157,51.87287 95.71195,94.94707 95.71195,95.72043 0,0.77337 -0.7955,1.70735 -1.76777,2.07551 -0.97227,0.36816 -2.3289,1.2235 -3.01475,1.90075 -2.27218,2.2437 -36.44522,26.66099 -37.30513,26.65524 -0.46411,-0.003 -11.98076,-11.04482 -25.59257,-24.53715 z M 161.78998,624.16207 C 154.45632,609.578 147.39835,594.46359 146.10562,590.5745 l -2.35043,-7.07107 -1.86909,7.07107 c -1.02799,3.88909 -2.13698,11.16219 -2.46443,16.16244 l -0.59535,9.09138 17.70795,17.42513 c 9.73938,9.58382 17.90634,17.42513 18.1488,17.42513 0.24247,0 -5.55942,-11.93243 -12.89309,-26.51651 z"
         style="fill:#f9f9f9;fill-opacity:1;stroke:none;stroke-width:1.01015258;stroke-opacity:1" />
      <path
         transform="scale(0.26458333)"
         inkscape:connector-curvature="0"
         id="path4529"
         d="m 459.58334,936.55176 c -1.45318,-0.593 -2.62241,-2.40079 -3.38538,-5.23425 -3.89496,-14.46478 -19.16136,-32.13138 -49.86642,-57.70648 -11.54716,-9.61795 -41.73484,-32.65002 -45.7081,-34.87356 -1.01143,-0.56603 -1.61547,-1.23065 -1.34231,-1.47694 3.3791,-3.04665 29.58336,-20.98441 30.29905,-20.74079 1.96284,0.66814 96.1607,93.35945 97.55089,95.99072 2.15248,4.07408 1.79721,10.07286 -0.83167,14.04292 -4.18503,6.32011 -20.6394,12.47809 -26.71606,9.99838 z m 17.68675,-10.14089 c 3.91352,-3.646 2.43551,-9.08191 -2.98293,-10.97079 -4.81326,-1.67792 -10.34732,1.22233 -10.77575,5.64728 -0.63988,6.60884 8.55875,10.16798 13.75868,5.32351 z"
         style="fill:#ffcc00;fill-opacity:1;stroke:none;stroke-width:1.01015258;stroke-opacity:1" />
    </g>
    <path
       style="fill:#e6e6e6;fill-opacity:1;stroke:none;stroke-width:1.01015258;stroke-opacity:1"
       d="m 237.4949,534.49055 c -5.5259,-4.97842 -10.04709,-9.50768 -10.04709,-10.06504 0,-0.55736 11.81879,-11.7627 26.26397,-24.90076 14.44518,-13.13806 27.18379,-24.73126 28.30802,-25.76268 2.01541,-1.84902 2.18528,-1.74655 12.12183,7.31248 5.54278,5.05328 10.07778,9.53635 10.07778,9.96237 0,0.42602 -11.36422,11.10679 -25.25382,23.73505 -13.88959,12.62826 -26.64201,24.26767 -28.33871,25.86536 l -3.08489,2.90488 z"
       id="path4540"
       inkscape:connector-curvature="0"
       transform="scale(0.26458333)" />
    <path
       style="fill:#e6e6e6;fill-opacity:1;stroke:none;stroke-width:1.01015258;stroke-opacity:1"
       d="m 216.33582,562.64802 c -7.66962,-5.76476 -11.61644,-10.40614 -11.61644,-13.66069 0,-3.55319 0.8944,-4.75305 9.32495,-12.50977 l 5.78941,-5.32668 10.12049,9.33108 c 5.56627,5.13209 10.12049,9.68883 10.12049,10.12609 0,0.43726 -3.1568,3.59373 -7.01512,7.01439 -8.31782,7.3743 -12.09061,8.50804 -16.72378,5.02558 z"
       id="path4542"
       inkscape:connector-curvature="0"
       transform="scale(0.26458333)" />
    <path
       style="fill:#e6e6e6;fill-opacity:1;stroke:none;stroke-width:1.01015258;stroke-opacity:1"
       d="m 301.54042,475.59317 c -8.69603,-7.91488 -16.09061,-15.01653 -16.4324,-15.78143 -0.69714,-1.56011 1.07519,-4.17089 2.82009,-4.15424 0.62646,0.006 8.41211,6.60473 17.30145,14.66389 11.6785,10.58783 16.16244,15.27894 16.16244,16.90918 0,5.18661 -3.84116,2.93484 -19.85158,-11.6374 z"
       id="path4544"
       inkscape:connector-curvature="0"
       transform="scale(0.26458333)" />
  </g>
</svg>
