<?xml version="1.0" encoding="UTF-8" standalone="no"?>
<!-- Created with Inkscape (http://www.inkscape.org/) -->

<svg
   xmlns:dc="http://purl.org/dc/elements/1.1/"
   xmlns:cc="http://creativecommons.org/ns#"
   xmlns:rdf="http://www.w3.org/1999/02/22-rdf-syntax-ns#"
   xmlns:svg="http://www.w3.org/2000/svg"
   xmlns="http://www.w3.org/2000/svg"
   xmlns:sodipodi="http://sodipodi.sourceforge.net/DTD/sodipodi-0.dtd"
   xmlns:inkscape="http://www.inkscape.org/namespaces/inkscape"
   width="210mm"
   height="297mm"
   viewBox="0 0 210 297"
   version="1.1"
   id="svg24"
   inkscape:version="0.92.4 (5da689c313, 2019-01-14)"
   sodipodi:docname="LostWeapon.svg">
  <title
     id="title3988">LostWeapon</title>
  <defs
     id="defs18" />
  <sodipodi:namedview
     id="base"
     pagecolor="#ffffff"
     bordercolor="#666666"
     borderopacity="1.0"
     inkscape:pageopacity="0.0"
     inkscape:pageshadow="2"
     inkscape:zoom="0.35"
     inkscape:cx="400"
     inkscape:cy="560"
     inkscape:document-units="mm"
     inkscape:current-layer="layer1"
     showgrid="false"
     inkscape:snap-nodes="true"
     inkscape:snap-others="true"
     inkscape:window-width="703"
     inkscape:window-height="618"
     inkscape:window-x="571"
     inkscape:window-y="72"
     inkscape:window-maximized="0" />
  <metadata
     id="metadata21">
    <rdf:RDF>
      <cc:Work
         rdf:about="">
        <dc:format>image/svg+xml</dc:format>
        <dc:type
           rdf:resource="http://purl.org/dc/dcmitype/StillImage" />
        <dc:title>LostWeapon</dc:title>
      </cc:Work>
    </rdf:RDF>
  </metadata>
  <g
     inkscape:label="Layer 1"
     inkscape:groupmode="layer"
     id="layer1">
    <g
       transform="matrix(-1.3792972,0,0,1.1619109,163.96868,42.83205)"
       id="g8">
      <path
         inkscape:connector-curvature="0"
         d="m 80.9,12.1 c 0.6,2.3 -6.6,17.3 -6.6,17.3 l 7.6,-8.9 c 0.7,-2.1 -1,-8.4 -1,-8.4 z"
         id="path2-1" />
      <path
         inkscape:connector-curvature="0"
         d="M 45.5,69.2 45.2,69 84.3,23.4 84.4,23.3 C 87.9,18.2 82.2,6.1 81.9,5.6 L 81.3,4.4 34.1,59.4 34,59.3 c -1,-0.9 -2.6,-0.8 -3.4,0.3 -0.8,1.1 -0.8,2.6 0.3,3.4 l 1.7,1.4 -18.3,21.3 c -2,2.3 -1.7,5.8 0.6,7.8 1.6,1.4 4.3,2.4 6.1,1.6 1.1,-0.4 1.8,-1.4 1.9,-2.7 0.5,-4.7 12.9,-15.9 18.3,-20.5 l 1.1,0.9 c 1,0.9 2.6,0.8 3.4,-0.3 0.8,-1.1 0.8,-2.5 -0.2,-3.3 z M 80.8,7.6 c 1.7,3.9 4.2,11.5 2.1,14.6 l -39,45.6 -8.4,-7.2 z M 31.3,78.5 c -6.4,6.2 -9.8,10.9 -10.1,13.7 -0.1,0.9 -0.5,1.1 -0.8,1.3 -1.1,0.4 -3.2,-0.4 -4.3,-1.3 -1.6,-1.3 -1.8,-3.7 -0.4,-5.3 l 18.2,-21.2 6,5.1 c -1.6,1.3 -5.1,4.3 -8.6,7.7 z m 12.2,-7 -0.8,-0.7 -9,-7.7 -1.7,-1.5 c -0.3,-0.2 -0.3,-0.6 -0.1,-0.9 0.2,-0.3 0.6,-0.3 0.9,-0.1 l 0.1,0.1 11.1,9.6 0.3,0.2 c 0.3,0.2 0.3,0.6 0.1,0.9 -0.2,0.3 -0.6,0.3 -0.9,0.1 z"
         id="path4" />
      <circle
         cx="18.200001"
         cy="90"
         r="1.5"
         id="circle6" />
    </g>
    <g
       transform="matrix(1.4040641,0,0,1.2784343,45.081046,30.607121)"
       id="g6">
      <path
         inkscape:connector-curvature="0"
         d="m 93,21.6 c -0.2,-0.5 -0.7,-0.8 -1.2,-0.8 -0.6,0 -1.2,0.4 -1.3,1 -0.6,2.7 -2.4,7.7 -7.3,10.2 -0.9,0.5 -1.9,0.7 -3,0.7 -1.7,0 -3.3,-0.6 -4.6,-1.8 l 5.5,-5.7 c 1.3,-1.3 1.3,-3.5 0,-4.8 l -1.6,-1.6 c -1.3,-1.3 -3.5,-1.3 -4.8,0 l -5.4,5.8 C 67.2,22.5 66.7,19.3 68,16.7 70.5,11.8 75.4,10 78.2,9.4 c 0.6,-0.1 1,-0.6 1,-1.2 0.1,-0.6 -0.3,-1.1 -0.8,-1.4 -1.7,-0.7 -5.4,-2 -10,-2 -7.6,0 -14.9,3.2 -21.6,9.5 -0.1,0 -0.1,0.1 -0.2,0.1 -0.1,0.1 -0.2,0.2 -0.3,0.3 L 46,15.2 c -0.1,0.1 -0.2,0.2 -0.3,0.3 -0.1,0.1 -0.1,0.1 -0.1,0.2 -13,13.8 -9.6,26.7 -7.5,31.5 0.2,0.5 0.7,0.8 1.2,0.8 0.6,0 1.2,-0.4 1.3,-1 0.6,-2.7 2.4,-7.7 7.3,-10.2 0.9,-0.5 2,-0.7 3,-0.7 1.8,0 3.6,0.7 4.9,2 l 0.1,0.1 -31.7,31.5 c -0.4,-0.4 -1,-0.6 -1.6,-0.6 -0.6,0 -1.2,0.2 -1.7,0.7 -0.4,0.4 -0.7,1 -0.7,1.7 0,0.5 0.2,1 0.5,1.4 L 9.1,84.5 6,87.6 c -1.3,1.3 -1.3,3.5 0,4.8 L 7.6,94 c 0.7,0.7 1.5,1 2.4,1 0.9,0 1.7,-0.3 2.4,-1 l 1.9,-1.9 c 0,0 0,0 0,0 L 15.4,91 27.1,79.3 c 0.4,0.2 0.8,0.3 1.2,0.3 0.6,0 1.2,-0.2 1.7,-0.7 0.7,-0.7 0.9,-1.8 0.5,-2.6 L 62.3,44.8 c 1.6,2.1 2,4.9 0.8,7.3 -2.5,4.9 -7.4,6.7 -10.2,7.3 -0.6,0.1 -1,0.6 -1,1.2 -0.1,0.6 0.3,1.1 0.8,1.4 1.7,0.7 5.4,2 10,2 7.6,0 14.9,-3.2 21.6,-9.5 0.1,0 0.1,-0.1 0.2,-0.1 0.1,-0.1 0.2,-0.2 0.3,-0.3 l 0.3,-0.3 c 0.1,-0.1 0.2,-0.2 0.3,-0.3 0.1,-0.1 0.1,-0.1 0.1,-0.2 13,-13.9 9.6,-26.8 7.5,-31.7 z M 75.8,20 c 0.7,-0.7 1.8,-0.7 2.5,0 l 1.6,1.6 c 0.7,0.7 0.7,1.8 0,2.5 l -5.5,5.7 -4,-4 z M 61.3,43.6 29.5,75 25.3,70.8 57,39.3 Z M 21.8,74 l 4.1,4.1 -11,11 L 10.8,85 Z M 11.3,92.9 c -0.7,0.7 -1.8,0.7 -2.5,0 L 7.2,91.3 c -0.7,-0.7 -0.7,-1.8 0,-2.5 l 2.5,-2.5 4.1,4.1 z M 28.9,77.8 c -0.3,0.3 -0.7,0.3 -1,0 L 27.7,77.6 22.4,72.3 22,71.9 c -0.1,-0.1 -0.2,-0.3 -0.2,-0.5 0,-0.2 0.1,-0.4 0.2,-0.5 0.3,-0.3 0.7,-0.3 1,0 l 0.5,0.5 c 0,0 0,0 0,0 0,0 0,0 0,0 l 5.3,5.3 c 0.4,0.3 0.4,0.8 0.1,1.1 z M 84.2,52.2 c 0,0 -0.1,0.1 -0.1,0.1 0,0 -0.1,0.1 -0.1,0.1 -0.1,0.1 -0.1,0.1 -0.2,0.2 l -0.2,0.2 c 0,0 -0.1,0.1 -0.1,0.1 -0.1,0 -0.1,0.1 -0.1,0.1 -6.4,6.1 -13.3,9.2 -20.6,9.2 -3.7,0 -6.7,-0.8 -8.5,-1.5 3.1,-0.8 7.9,-2.9 10.4,-7.9 1.6,-3.2 1,-7.2 -1.6,-9.8 0,0 0,0 0,0 0,0 0,0 0,0 0,0 0,0 0,0 l -6,-6 c -1.6,-1.6 -3.8,-2.5 -6,-2.5 -1.3,0 -2.6,0.3 -3.7,0.9 -5,2.5 -7.1,7.3 -7.9,10.4 -1.9,-5.1 -4.2,-16.7 7.6,-29.1 0,0 0.1,-0.1 0.1,-0.1 0,0 0.1,-0.1 0.1,-0.1 l 0.2,-0.2 c 0.1,-0.1 0.1,-0.1 0.2,-0.2 0,0 0.1,-0.1 0.1,-0.1 0.1,0 0.1,-0.1 0.1,-0.1 6.4,-6.1 13.3,-9.2 20.6,-9.2 3.7,0 6.7,0.9 8.5,1.5 -3.2,0.8 -8,2.9 -10.5,7.9 -1.6,3.2 -1,7.2 1.6,9.8 l 6,6 c 1.6,1.6 3.8,2.5 6,2.5 1.3,0 2.6,-0.3 3.7,-0.9 5,-2.5 7.1,-7.3 7.9,-10.4 2.1,5.1 4.3,16.7 -7.5,29.1 z"
         id="path2" />
      <path
         inkscape:connector-curvature="0"
         d="m 65.6,31.3 c -0.9,0 -1.6,0.3 -2.3,0.9 -0.6,0.6 -0.9,1.4 -0.9,2.3 0,0.9 0.3,1.6 0.9,2.3 0.6,0.6 1.4,0.9 2.3,0.9 0.9,0 1.6,-0.3 2.3,-0.9 0.6,-0.6 0.9,-1.4 0.9,-2.3 0,-0.9 -0.3,-1.6 -0.9,-2.3 -0.7,-0.6 -1.5,-0.9 -2.3,-0.9 z m 1.1,4.2 c -0.6,0.6 -1.6,0.6 -2.2,0 -0.3,-0.3 -0.5,-0.7 -0.5,-1.1 0,-0.4 0.2,-0.8 0.5,-1.1 0.3,-0.3 0.7,-0.5 1.1,-0.5 0.4,0 0.8,0.2 1.1,0.5 0.3,0.3 0.5,0.7 0.5,1.1 0,0.4 -0.3,0.8 -0.5,1.1 z"
         id="path4-7" />
    </g>
    <path
       inkscape:connector-curvature="0"
       style="fill:#000000;stroke-width:0.26458332"
       d="M 71.718428,169.48771 H 68.89744 c -0.230981,0 -0.455612,-0.0952 -0.61595,-0.26141 -0.160866,-0.16774 -0.247914,-0.39529 -0.239183,-0.62521 0.04577,-1.30122 0.170921,-2.16588 0.393965,-2.72044 0.239183,-0.59532 0.781314,-1.21709 1.657085,-1.90104 l 0.766233,-0.60007 c 0.180446,-0.13388 0.315384,-0.2712 0.422011,-0.42598 0.178329,-0.24818 0.259027,-0.48948 0.259027,-0.76676 0,-0.35322 -0.09684,-0.65405 -0.3048,-0.94642 -0.132821,-0.18732 -0.484188,-0.29051 -0.989277,-0.29051 -0.655902,0 -0.8763,0.22886 -0.985044,0.40111 -0.249502,0.3974 -0.37121,0.79375 -0.37121,1.2102 0,0.47175 -0.383911,0.85567 -0.855927,0.85567 h -3.010165 c -0.231511,0 -0.456406,-0.0958 -0.617273,-0.26274 -0.161396,-0.16906 -0.247915,-0.39793 -0.23786,-0.62918 0.09498,-2.26377 0.924454,-3.90948 2.465652,-4.89161 0.954616,-0.61384 2.126456,-0.92578 3.481387,-0.92578 1.743075,0 3.226859,0.43259 4.410339,1.28588 1.268942,0.91572 1.912409,2.27039 1.912409,4.02616 0,1.08294 -0.281252,2.01745 -0.836084,2.77786 -0.309033,0.44159 -0.862012,0.97182 -1.686453,1.61422 l -0.736336,0.57309 c -0.264583,0.20558 -0.431535,0.4273 -0.510381,0.67734 -0.02619,0.0815 -0.08652,0.33787 -0.09499,0.98186 -0.0069,0.46514 -0.391054,0.84376 -0.856192,0.84376 z m -1.472406,-9.33185 c 0.792162,0 1.34276,0.21007 1.636712,0.62468 0.303477,0.42703 0.451379,0.88714 0.451379,1.40599 0,0.44556 -0.132027,0.84561 -0.403225,1.22344 -0.149754,0.21801 -0.349779,0.42254 -0.590021,0.60086 l -0.75856,0.59399 c -0.75221,0.58738 -1.226344,1.11628 -1.409435,1.57189 -0.182563,0.45403 -0.296069,1.27926 -0.33708,2.45296 -5.29e-4,0.0169 0.0058,0.0336 0.01773,0.046 0.01111,0.0116 0.02725,0.0183 0.04418,0.0183 h 2.820988 c 0.03387,0 0.06165,-0.0275 0.06218,-0.0614 0.0074,-0.55139 0.05186,-0.95859 0.132292,-1.21074 0.128323,-0.40773 0.383646,-0.75592 0.779463,-1.0639 l 0.736071,-0.57255 c 0.760676,-0.59294 1.260739,-1.06707 1.527968,-1.44939 0.458258,-0.62812 0.688446,-1.4052 0.688446,-2.31616 0,-1.48643 -0.532607,-2.62441 -1.582737,-3.38244 -1.045369,-0.7538 -2.373313,-1.13585 -3.945996,-1.13585 -1.20015,0 -2.227527,0.26934 -3.053292,0.80036 -1.310746,0.83529 -2.017183,2.26721 -2.100527,4.25635 -5.29e-4,0.0172 0.0056,0.0336 0.01799,0.0466 0.01085,0.0111 0.02725,0.0183 0.04418,0.0183 h 3.009636 c 0.0344,0 0.06218,-0.0278 0.06218,-0.0619 0,-0.57044 0.161395,-1.10463 0.493183,-1.63327 0.323321,-0.5125 0.880533,-0.77205 1.656292,-0.77205 z"
       id="path2-4" />
    <path
       inkscape:connector-curvature="0"
       style="fill:#000000;stroke-width:0.26458332"
       d="m 71.93909,175.73294 h -3.114939 c -0.472017,0 -0.855927,-0.38392 -0.855927,-0.85593 v -3.0099 c 0,-0.47175 0.38391,-0.85566 0.855927,-0.85566 h 3.114675 c 0.472016,0 0.855927,0.38391 0.855927,0.85566 v 3.0099 c 2.64e-4,0.47201 -0.383646,0.85593 -0.855663,0.85593 z m -3.114939,-3.92801 c -0.0344,0 -0.06218,0.0278 -0.06218,0.0619 v 3.0099 c 0,0.0344 0.02778,0.0622 0.06218,0.0622 h 3.114675 c 0.0344,0 0.06218,-0.0278 0.06218,-0.0622 v -3.00963 c 0,-0.0341 -0.02778,-0.0619 -0.06218,-0.0619 h -3.114675 z"
       id="path4-0" />
    <path
       inkscape:connector-curvature="0"
       style="fill:#000000;stroke-width:0.26458332"
       d="m 119.34343,170.24366 h -2.82099 c -0.23098,0 -0.45561,-0.0952 -0.61595,-0.26141 -0.16087,-0.16774 -0.24791,-0.39528 -0.23918,-0.62521 0.0458,-1.30122 0.17092,-2.16588 0.39396,-2.72044 0.23918,-0.59531 0.78132,-1.21709 1.65709,-1.90103 l 0.76623,-0.60008 c 0.18045,-0.13388 0.31538,-0.2712 0.42201,-0.42598 0.17833,-0.24818 0.25903,-0.48948 0.25903,-0.76676 0,-0.35322 -0.0968,-0.65405 -0.3048,-0.94641 -0.13282,-0.18733 -0.48419,-0.29052 -0.98928,-0.29052 -0.6559,0 -0.8763,0.22887 -0.98504,0.40111 -0.24951,0.39741 -0.37121,0.79375 -0.37121,1.21021 0,0.47175 -0.38391,0.85566 -0.85593,0.85566 h -3.01017 c -0.23151,0 -0.4564,-0.0958 -0.61727,-0.26273 -0.16139,-0.16907 -0.24791,-0.39794 -0.23786,-0.62918 0.095,-2.26378 0.92446,-3.90949 2.46565,-4.89162 0.95462,-0.61383 2.12646,-0.92578 3.48139,-0.92578 1.74308,0 3.22686,0.4326 4.41034,1.28588 1.26894,0.91572 1.91241,2.27039 1.91241,4.02616 0,1.08294 -0.28125,2.01745 -0.83608,2.77786 -0.30904,0.44159 -0.86202,0.97182 -1.68646,1.61423 l -0.73633,0.57308 c -0.26459,0.20559 -0.43154,0.42731 -0.51039,0.67734 -0.0262,0.0815 -0.0865,0.33787 -0.095,0.98187 -0.007,0.46513 -0.39105,0.84375 -0.85619,0.84375 z m -1.47241,-9.33185 c 0.79216,0 1.34276,0.21008 1.63671,0.62468 0.30348,0.42704 0.45138,0.88715 0.45138,1.406 0,0.44555 -0.13202,0.8456 -0.40322,1.22343 -0.14976,0.21802 -0.34978,0.42254 -0.59002,0.60087 l -0.75856,0.59399 c -0.75221,0.58737 -1.22635,1.11627 -1.40944,1.57189 -0.18256,0.45402 -0.29607,1.27926 -0.33708,2.45295 -5.3e-4,0.0169 0.006,0.0336 0.0177,0.046 0.0111,0.0116 0.0272,0.0183 0.0442,0.0183 h 2.82099 c 0.0339,0 0.0617,-0.0275 0.0622,-0.0614 0.007,-0.55139 0.0519,-0.95859 0.13229,-1.21073 0.12832,-0.40774 0.38365,-0.75593 0.77946,-1.0639 l 0.73607,-0.57256 c 0.76068,-0.59293 1.26074,-1.06707 1.52797,-1.44939 0.45826,-0.62812 0.68845,-1.4052 0.68845,-2.31616 0,-1.48643 -0.53261,-2.6244 -1.58274,-3.38244 -1.04537,-0.75379 -2.37331,-1.13585 -3.94599,-1.13585 -1.20015,0 -2.22753,0.26934 -3.0533,0.80036 -1.31074,0.83529 -2.01718,2.26722 -2.10052,4.25635 -5.3e-4,0.0172 0.006,0.0336 0.018,0.0466 0.0109,0.0111 0.0273,0.0183 0.0442,0.0183 h 3.00964 c 0.0344,0 0.0622,-0.0278 0.0622,-0.0619 0,-0.57044 0.16139,-1.10463 0.49318,-1.63327 0.32332,-0.5125 0.88053,-0.77205 1.65629,-0.77205 z"
       id="path2-0" />
    <path
       inkscape:connector-curvature="0"
       style="fill:#000000;stroke-width:0.26458332"
       d="m 119.56409,176.48889 h -3.11494 c -0.47202,0 -0.85593,-0.38391 -0.85593,-0.85593 v -3.0099 c 0,-0.47175 0.38391,-0.85566 0.85593,-0.85566 h 3.11468 c 0.47201,0 0.85592,0.38391 0.85592,0.85566 v 3.0099 c 2.7e-4,0.47202 -0.38364,0.85593 -0.85566,0.85593 z m -3.11494,-3.92801 c -0.0344,0 -0.0622,0.0278 -0.0622,0.0619 v 3.0099 c 0,0.0344 0.0278,0.0622 0.0622,0.0622 h 3.11468 c 0.0344,0 0.0622,-0.0278 0.0622,-0.0622 v -3.00963 c 0,-0.0341 -0.0278,-0.0619 -0.0622,-0.0619 h -3.11468 z"
       id="path4-07" />
    <path
       inkscape:connector-curvature="0"
       style="fill:#000000;stroke-width:0.26458332"
       d="m 176.03986,129.42223 h -2.82099 c -0.23098,0 -0.45561,-0.0953 -0.61595,-0.26141 -0.16087,-0.16774 -0.24792,-0.39528 -0.23918,-0.62521 0.0458,-1.30122 0.17092,-2.16587 0.39396,-2.72044 0.23918,-0.59531 0.78131,-1.21708 1.65709,-1.90103 l 0.76623,-0.60008 c 0.18044,-0.13388 0.31538,-0.2712 0.42201,-0.42598 0.17833,-0.24818 0.25903,-0.48948 0.25903,-0.76676 0,-0.35322 -0.0968,-0.65405 -0.3048,-0.94641 -0.13282,-0.18733 -0.48419,-0.29052 -0.98928,-0.29052 -0.6559,0 -0.8763,0.22887 -0.98504,0.40111 -0.24951,0.39741 -0.37121,0.79375 -0.37121,1.21021 0,0.47175 -0.38392,0.85566 -0.85593,0.85566 h -3.01017 c -0.23151,0 -0.4564,-0.0958 -0.61727,-0.26273 -0.1614,-0.16907 -0.24791,-0.39794 -0.23786,-0.62918 0.095,-2.26378 0.92445,-3.90948 2.46565,-4.89162 0.95462,-0.61383 2.12646,-0.92578 3.48139,-0.92578 1.74307,0 3.22686,0.4326 4.41034,1.28588 1.26894,0.91572 1.91241,2.27039 1.91241,4.02616 0,1.08294 -0.28125,2.01745 -0.83609,2.77786 -0.30903,0.44159 -0.86201,0.97182 -1.68645,1.61423 l -0.73634,0.57308 c -0.26458,0.20559 -0.43153,0.42731 -0.51038,0.67734 -0.0262,0.0815 -0.0865,0.33787 -0.095,0.98187 -0.007,0.46513 -0.39106,0.84375 -0.85619,0.84375 z m -1.47241,-9.33185 c 0.79216,0 1.34276,0.21008 1.63671,0.62468 0.30348,0.42704 0.45138,0.88715 0.45138,1.406 0,0.44555 -0.13203,0.8456 -0.40322,1.22343 -0.14976,0.21802 -0.34978,0.42254 -0.59002,0.60087 l -0.75856,0.59399 c -0.75221,0.58737 -1.22635,1.11628 -1.40944,1.57189 -0.18256,0.45402 -0.29607,1.27926 -0.33708,2.45295 -5.3e-4,0.0169 0.006,0.0336 0.0177,0.046 0.0111,0.0116 0.0273,0.0183 0.0442,0.0183 h 2.82099 c 0.0339,0 0.0616,-0.0275 0.0622,-0.0614 0.007,-0.55139 0.0519,-0.95859 0.13229,-1.21073 0.12832,-0.40774 0.38365,-0.75593 0.77946,-1.0639 l 0.73607,-0.57256 c 0.76068,-0.59293 1.26074,-1.06707 1.52797,-1.44939 0.45826,-0.62812 0.68845,-1.4052 0.68845,-2.31616 0,-1.48643 -0.53261,-2.6244 -1.58274,-3.38243 -1.04537,-0.7538 -2.37331,-1.13586 -3.946,-1.13586 -1.20015,0 -2.22752,0.26935 -3.05329,0.80036 -1.31074,0.83529 -2.01718,2.26722 -2.10052,4.25636 -5.3e-4,0.0172 0.006,0.0336 0.018,0.0466 0.0109,0.0111 0.0273,0.0183 0.0442,0.0183 h 3.00964 c 0.0344,0 0.0622,-0.0278 0.0622,-0.0619 0,-0.57045 0.16139,-1.10464 0.49318,-1.63328 0.32332,-0.51249 0.88053,-0.77205 1.65629,-0.77205 z"
       id="path2-3" />
    <path
       inkscape:connector-curvature="0"
       style="fill:#000000;stroke-width:0.26458332"
       d="m 176.26052,135.66746 h -3.11494 c -0.47202,0 -0.85593,-0.38391 -0.85593,-0.85593 v -3.0099 c 0,-0.47175 0.38391,-0.85566 0.85593,-0.85566 h 3.11467 c 0.47202,0 0.85593,0.38391 0.85593,0.85566 v 3.0099 c 2.7e-4,0.47202 -0.38364,0.85593 -0.85566,0.85593 z m -3.11494,-3.92801 c -0.0344,0 -0.0622,0.0278 -0.0622,0.0619 v 3.0099 c 0,0.0344 0.0278,0.0622 0.0622,0.0622 h 3.11467 c 0.0344,0 0.0622,-0.0278 0.0622,-0.0622 v -3.00963 c 0,-0.0341 -0.0278,-0.0619 -0.0622,-0.0619 h -3.11467 z"
       id="path4-1" />
    <path
       inkscape:connector-curvature="0"
       style="fill:#000000;stroke-width:0.26458332"
       d="m 190.40295,71.213901 h -2.82099 c -0.23098,0 -0.45561,-0.09525 -0.61595,-0.261409 -0.16086,-0.167745 -0.24791,-0.395287 -0.23918,-0.62521 0.0458,-1.301221 0.17092,-2.16588 0.39397,-2.720446 0.23918,-0.595313 0.78131,-1.217084 1.65708,-1.901032 l 0.76623,-0.600075 c 0.18045,-0.133879 0.31539,-0.271197 0.42201,-0.425979 0.17833,-0.248179 0.25903,-0.489479 0.25903,-0.766762 0,-0.353219 -0.0968,-0.65405 -0.3048,-0.946415 -0.13282,-0.187325 -0.48419,-0.290512 -0.98928,-0.290512 -0.6559,0 -0.8763,0.228864 -0.98504,0.401108 -0.2495,0.397404 -0.37121,0.79375 -0.37121,1.210204 0,0.471752 -0.38391,0.855663 -0.85593,0.855663 h -3.01016 c -0.23151,0 -0.45641,-0.09578 -0.61727,-0.262732 -0.1614,-0.169068 -0.24792,-0.397933 -0.23786,-0.629179 0.095,-2.263775 0.92445,-3.909483 2.46565,-4.891616 0.95461,-0.613834 2.12645,-0.925777 3.48139,-0.925777 1.74307,0 3.22685,0.432593 4.41033,1.285875 1.26895,0.915722 1.91241,2.270389 1.91241,4.026164 0,1.08294 -0.28125,2.017448 -0.83608,2.777861 -0.30903,0.441589 -0.86201,0.971814 -1.68645,1.614222 l -0.73634,0.573088 c -0.26458,0.205582 -0.43154,0.427302 -0.51038,0.677334 -0.0262,0.08149 -0.0865,0.337873 -0.095,0.981868 -0.007,0.465138 -0.39105,0.843757 -0.85619,0.843757 z m -1.4724,-9.331855 c 0.79216,0 1.34276,0.210079 1.63671,0.624681 0.30348,0.427038 0.45138,0.887148 0.45138,1.405996 0,0.445559 -0.13203,0.845609 -0.40323,1.223434 -0.14975,0.218016 -0.34978,0.422539 -0.59002,0.600868 l -0.75856,0.59399 c -0.75221,0.587375 -1.22634,1.116277 -1.40943,1.571889 -0.18257,0.454025 -0.29607,1.279261 -0.33708,2.452953 -5.3e-4,0.01693 0.006,0.0336 0.0177,0.04604 0.0111,0.01164 0.0273,0.01826 0.0442,0.01826 h 2.82099 c 0.0339,0 0.0616,-0.02752 0.0622,-0.06138 0.007,-0.551391 0.0519,-0.958585 0.13229,-1.210733 0.12833,-0.407733 0.38365,-0.755925 0.77947,-1.0639 l 0.73607,-0.572558 c 0.76068,-0.592932 1.26074,-1.067065 1.52797,-1.449388 0.45826,-0.628121 0.68844,-1.405202 0.68844,-2.316162 0,-1.486429 -0.5326,-2.624402 -1.58273,-3.382434 -1.04537,-0.753798 -2.37332,-1.135856 -3.946,-1.135856 -1.20015,0 -2.22753,0.269346 -3.05329,0.800365 -1.31075,0.835289 -2.01719,2.267214 -2.10053,4.256352 -5.3e-4,0.0172 0.006,0.0336 0.018,0.04657 0.0109,0.01111 0.0273,0.01826 0.0442,0.01826 h 3.00963 c 0.0344,0 0.0622,-0.02778 0.0622,-0.06191 0,-0.570442 0.1614,-1.104636 0.49318,-1.633273 0.32332,-0.512498 0.88054,-0.772054 1.6563,-0.772054 z"
       id="path2-9" />
    <path
       inkscape:connector-curvature="0"
       style="fill:#000000;stroke-width:0.26458332"
       d="m 190.62361,77.459126 h -3.11494 c -0.47201,0 -0.85592,-0.383911 -0.85592,-0.855927 v -3.0099 c 0,-0.471752 0.38391,-0.855663 0.85592,-0.855663 h 3.11468 c 0.47202,0 0.85593,0.383911 0.85593,0.855663 v 3.0099 c 2.6e-4,0.472016 -0.38365,0.855927 -0.85567,0.855927 z m -3.11494,-3.928004 c -0.0344,0 -0.0622,0.02778 -0.0622,0.06191 v 3.0099 c 0,0.0344 0.0278,0.06218 0.0622,0.06218 h 3.11468 c 0.0344,0 0.0622,-0.02778 0.0622,-0.06218 v -3.009635 c 0,-0.03413 -0.0278,-0.06191 -0.0622,-0.06191 h -3.11468 z"
       id="path4-9" />
    <path
       inkscape:connector-curvature="0"
       style="fill:#000000;stroke-width:0.26458332"
       d="m 86.081523,47.779377 h -2.820987 c -0.230982,0 -0.455613,-0.09525 -0.61595,-0.261409 -0.160867,-0.167745 -0.247915,-0.395287 -0.239184,-0.62521 0.04577,-1.301221 0.170921,-2.165879 0.393965,-2.720446 0.239183,-0.595313 0.781314,-1.217083 1.657085,-1.901031 l 0.766234,-0.600075 c 0.180445,-0.13388 0.315383,-0.271198 0.42201,-0.42598 0.178329,-0.248179 0.259027,-0.489479 0.259027,-0.766762 0,-0.353219 -0.09684,-0.65405 -0.3048,-0.946415 -0.132821,-0.187325 -0.484187,-0.290512 -0.989277,-0.290512 -0.655902,0 -0.8763,0.228864 -0.985044,0.401108 -0.249502,0.397404 -0.37121,0.79375 -0.37121,1.210204 0,0.471752 -0.383911,0.855663 -0.855927,0.855663 H 79.3873 c -0.23151,0 -0.456406,-0.09578 -0.617273,-0.262731 -0.161396,-0.169069 -0.247914,-0.397934 -0.23786,-0.62918 0.09498,-2.263775 0.924454,-3.909483 2.465652,-4.891616 0.954617,-0.613833 2.126456,-0.925777 3.481387,-0.925777 1.743075,0 3.226859,0.432594 4.41034,1.285875 1.268942,0.915723 1.912409,2.270389 1.912409,4.026164 0,1.08294 -0.281252,2.017448 -0.836084,2.777861 -0.309033,0.441589 -0.862012,0.971814 -1.686454,1.614223 l -0.736336,0.573087 C 87.278498,45.482 87.111546,45.70372 87.0327,45.953752 c -0.02619,0.08149 -0.08652,0.337873 -0.09499,0.981868 -0.0069,0.465138 -0.391054,0.843757 -0.856192,0.843757 z m -1.472406,-9.331855 c 0.792162,0 1.34276,0.210079 1.636712,0.624682 0.303477,0.427037 0.45138,0.887147 0.45138,1.405995 0,0.445559 -0.132028,0.845609 -0.403225,1.223434 -0.149755,0.218016 -0.34978,0.422539 -0.590021,0.600868 l -0.758561,0.59399 c -0.75221,0.587375 -1.226343,1.116277 -1.409435,1.57189 -0.182563,0.454025 -0.296069,1.27926 -0.337079,2.452952 -5.29e-4,0.01693 0.0058,0.0336 0.01773,0.04604 0.01111,0.01164 0.02725,0.01826 0.04418,0.01826 h 2.820988 c 0.03387,0 0.06165,-0.02752 0.06218,-0.06138 0.0074,-0.551391 0.05186,-0.958585 0.132291,-1.210733 0.128323,-0.407733 0.383646,-0.755925 0.779463,-1.0639 l 0.736071,-0.572558 c 0.760677,-0.592931 1.26074,-1.067065 1.527969,-1.449388 0.458258,-0.62812 0.688446,-1.405202 0.688446,-2.316162 0,-1.486429 -0.532607,-2.624402 -1.582738,-3.382433 -1.045369,-0.753798 -2.373313,-1.135857 -3.945996,-1.135857 -1.20015,0 -2.227527,0.269346 -3.053292,0.800365 -1.310746,0.835289 -2.017183,2.267214 -2.100527,4.256352 -5.29e-4,0.0172 0.0056,0.0336 0.01799,0.04657 0.01085,0.01111 0.02725,0.01826 0.04418,0.01826 h 3.009636 c 0.0344,0 0.06218,-0.02778 0.06218,-0.06191 0,-0.570442 0.161396,-1.104636 0.493183,-1.633273 0.323321,-0.512497 0.880534,-0.772054 1.656292,-0.772054 z"
       id="path2-00" />
    <path
       inkscape:connector-curvature="0"
       style="fill:#000000;stroke-width:0.26458332"
       d="m 86.302186,54.024602 h -3.11494 c -0.472017,0 -0.855927,-0.383911 -0.855927,-0.855927 v -3.0099 c 0,-0.471752 0.38391,-0.855663 0.855927,-0.855663 h 3.114675 c 0.472017,0 0.855927,0.383911 0.855927,0.855663 v 3.0099 c 2.65e-4,0.472016 -0.383646,0.855927 -0.855662,0.855927 z m -3.11494,-3.928004 c -0.0344,0 -0.06218,0.02778 -0.06218,0.06191 v 3.0099 c 0,0.0344 0.02778,0.06218 0.06218,0.06218 h 3.114675 c 0.0344,0 0.06218,-0.02778 0.06218,-0.06218 v -3.009635 c 0,-0.03413 -0.02778,-0.06191 -0.06218,-0.06191 h -3.114675 z"
       id="path4-8" />
    <path
       inkscape:connector-curvature="0"
       style="fill:#000000;stroke-width:0.26458332"
       d="m 45.260094,90.868662 h -2.820987 c -0.230981,0 -0.455613,-0.09525 -0.61595,-0.261409 -0.160867,-0.167745 -0.247915,-0.395287 -0.239183,-0.62521 0.04577,-1.301221 0.17092,-2.165879 0.393964,-2.720445 0.239184,-0.595313 0.781315,-1.217084 1.657086,-1.901032 l 0.766233,-0.600075 c 0.180446,-0.133879 0.315383,-0.271198 0.42201,-0.425979 0.17833,-0.248179 0.259027,-0.489479 0.259027,-0.766762 0,-0.353219 -0.09684,-0.65405 -0.3048,-0.946415 -0.13282,-0.187325 -0.484187,-0.290512 -0.989277,-0.290512 -0.655902,0 -0.8763,0.228864 -0.985043,0.401108 -0.249502,0.397404 -0.371211,0.79375 -0.371211,1.210204 0,0.471752 -0.38391,0.855663 -0.855927,0.855663 h -3.010164 c -0.231511,0 -0.456407,-0.09578 -0.617273,-0.262732 -0.161396,-0.169068 -0.247915,-0.397933 -0.237861,-0.629179 0.09499,-2.263775 0.924454,-3.909483 2.465652,-4.891616 0.954617,-0.613834 2.126457,-0.925778 3.481388,-0.925778 1.743075,0 3.226858,0.432594 4.410339,1.285875 1.268942,0.915723 1.912409,2.27039 1.912409,4.026165 0,1.08294 -0.281252,2.017448 -0.836084,2.77786 -0.309033,0.44159 -0.862012,0.971815 -1.686454,1.614223 l -0.736335,0.573087 c -0.264584,0.205582 -0.431536,0.427302 -0.510381,0.677334 -0.02619,0.08149 -0.08652,0.337873 -0.09499,0.981868 -0.0069,0.465138 -0.391055,0.843757 -0.856193,0.843757 z m -1.472406,-9.331854 c 0.792163,0 1.342761,0.210079 1.636713,0.624681 0.303477,0.427038 0.451379,0.887148 0.451379,1.405996 0,0.445558 -0.132027,0.845608 -0.403225,1.223433 -0.149754,0.218017 -0.349779,0.42254 -0.590021,0.600869 l -0.75856,0.59399 c -0.752211,0.587375 -1.226344,1.116277 -1.409436,1.571889 -0.182562,0.454025 -0.296069,1.27926 -0.337079,2.452952 -5.29e-4,0.01693 0.0058,0.0336 0.01773,0.04604 0.01111,0.01164 0.02725,0.01826 0.04418,0.01826 h 2.820988 c 0.03387,0 0.06165,-0.02752 0.06218,-0.06138 0.0074,-0.551391 0.05186,-0.958585 0.132292,-1.210733 0.128323,-0.407733 0.383646,-0.755924 0.779462,-1.063899 l 0.736071,-0.572558 c 0.760677,-0.592932 1.26074,-1.067065 1.527969,-1.449388 0.458258,-0.628121 0.688446,-1.405202 0.688446,-2.316162 0,-1.48643 -0.532607,-2.624402 -1.582738,-3.382434 -1.045369,-0.753798 -2.373312,-1.135856 -3.945996,-1.135856 -1.20015,0 -2.227527,0.269346 -3.053291,0.800365 -1.310746,0.835289 -2.017184,2.267214 -2.100527,4.256352 -5.3e-4,0.0172 0.0056,0.0336 0.01799,0.04657 0.01085,0.01111 0.02725,0.01826 0.04419,0.01826 h 3.009635 c 0.0344,0 0.06218,-0.02778 0.06218,-0.06191 0,-0.570442 0.161396,-1.104636 0.493183,-1.633273 0.323321,-0.512498 0.880534,-0.772054 1.656292,-0.772054 z"
       id="path2-6" />
    <path
       inkscape:connector-curvature="0"
       style="fill:#000000;stroke-width:0.26458332"
       d="m 45.480757,97.113887 h -3.11494 c -0.472016,0 -0.855927,-0.383911 -0.855927,-0.855927 v -3.0099 c 0,-0.471752 0.383911,-0.855663 0.855927,-0.855663 h 3.114675 c 0.472017,0 0.855927,0.383911 0.855927,0.855663 v 3.0099 c 2.65e-4,0.472016 -0.383645,0.855927 -0.855662,0.855927 z m -3.11494,-3.928004 c -0.0344,0 -0.06218,0.02778 -0.06218,0.06191 v 3.0099 c 0,0.0344 0.02778,0.06218 0.06218,0.06218 h 3.114675 c 0.0344,0 0.06218,-0.02778 0.06218,-0.06218 v -3.009635 c 0,-0.03413 -0.02778,-0.06191 -0.06218,-0.06191 h -3.114675 z"
       id="path4-4" />
    <path
       inkscape:connector-curvature="0"
       style="fill:#000000;stroke-width:0.26458332"
       d="m 50.551761,124.88652 h -2.820987 c -0.230982,0 -0.455613,-0.0953 -0.61595,-0.26141 -0.160867,-0.16774 -0.247915,-0.39529 -0.239184,-0.62521 0.04577,-1.30122 0.170921,-2.16588 0.393965,-2.72045 0.239183,-0.59531 0.781315,-1.21708 1.657085,-1.90103 l 0.766234,-0.60007 c 0.180446,-0.13388 0.315383,-0.2712 0.42201,-0.42598 0.178329,-0.24818 0.259027,-0.48948 0.259027,-0.76676 0,-0.35322 -0.09684,-0.65405 -0.3048,-0.94642 -0.132821,-0.18732 -0.484187,-0.29051 -0.989277,-0.29051 -0.655902,0 -0.8763,0.22886 -0.985044,0.40111 -0.249502,0.3974 -0.37121,0.79375 -0.37121,1.2102 0,0.47175 -0.38391,0.85566 -0.855927,0.85566 h -3.010165 c -0.23151,0 -0.456406,-0.0958 -0.617273,-0.26273 -0.161396,-0.16907 -0.247914,-0.39793 -0.23786,-0.62918 0.09498,-2.26377 0.924454,-3.90948 2.465652,-4.89161 0.954617,-0.61384 2.126456,-0.92578 3.481388,-0.92578 1.743075,0 3.226858,0.43259 4.410339,1.28588 1.268942,0.91572 1.912409,2.27039 1.912409,4.02616 0,1.08294 -0.281252,2.01745 -0.836084,2.77786 -0.309033,0.44159 -0.862012,0.97182 -1.686454,1.61422 l -0.736335,0.57309 c -0.264584,0.20558 -0.431536,0.4273 -0.510382,0.67733 -0.02619,0.0815 -0.08652,0.33788 -0.09499,0.98187 -0.0069,0.46514 -0.391054,0.84376 -0.856192,0.84376 z m -1.472406,-9.33185 c 0.792162,0 1.34276,0.21007 1.636712,0.62468 0.303478,0.42703 0.45138,0.88714 0.45138,1.40599 0,0.44556 -0.132027,0.84561 -0.403225,1.22344 -0.149755,0.21801 -0.34978,0.42254 -0.590021,0.60086 l -0.758561,0.59399 c -0.75221,0.58738 -1.226343,1.11628 -1.409435,1.57189 -0.182563,0.45403 -0.296069,1.27926 -0.337079,2.45296 -5.29e-4,0.0169 0.0058,0.0336 0.01773,0.046 0.01111,0.0116 0.02725,0.0183 0.04418,0.0183 h 2.820988 c 0.03387,0 0.06165,-0.0275 0.06218,-0.0614 0.0074,-0.5514 0.05186,-0.95859 0.132291,-1.21074 0.128323,-0.40773 0.383646,-0.75592 0.779463,-1.0639 l 0.736071,-0.57256 c 0.760677,-0.59293 1.26074,-1.06706 1.527969,-1.44938 0.458258,-0.62812 0.688446,-1.4052 0.688446,-2.31617 0,-1.48642 -0.532607,-2.6244 -1.582738,-3.38243 -1.045369,-0.7538 -2.373313,-1.13585 -3.945996,-1.13585 -1.20015,0 -2.227527,0.26934 -3.053292,0.80036 -1.310745,0.83529 -2.017183,2.26721 -2.100527,4.25635 -5.29e-4,0.0172 0.0056,0.0336 0.01799,0.0466 0.01085,0.0111 0.02725,0.0183 0.04418,0.0183 h 3.009636 c 0.0344,0 0.06218,-0.0278 0.06218,-0.0619 0,-0.57044 0.161396,-1.10463 0.493183,-1.63327 0.323321,-0.5125 0.880534,-0.77205 1.656292,-0.77205 z"
       id="path2-09" />
    <path
       inkscape:connector-curvature="0"
       style="fill:#000000;stroke-width:0.26458332"
       d="m 50.772424,131.13174 h -3.11494 c -0.472017,0 -0.855927,-0.38391 -0.855927,-0.85592 v -3.0099 c 0,-0.47175 0.38391,-0.85567 0.855927,-0.85567 h 3.114675 c 0.472017,0 0.855927,0.38392 0.855927,0.85567 v 3.0099 c 2.65e-4,0.47201 -0.383646,0.85592 -0.855662,0.85592 z m -3.11494,-3.928 c -0.0344,0 -0.06218,0.0278 -0.06218,0.0619 v 3.0099 c 0,0.0344 0.02778,0.0622 0.06218,0.0622 h 3.114675 c 0.0344,0 0.06218,-0.0278 0.06218,-0.0622 v -3.00963 c 0,-0.0341 -0.02778,-0.0619 -0.06218,-0.0619 h -3.114675 z"
       id="path4-5" />
  </g>
</svg>
