<?xml version="1.0" encoding="UTF-8" standalone="no"?>
<svg
   xmlns:dc="http://purl.org/dc/elements/1.1/"
   xmlns:cc="http://creativecommons.org/ns#"
   xmlns:rdf="http://www.w3.org/1999/02/22-rdf-syntax-ns#"
   xmlns:svg="http://www.w3.org/2000/svg"
   xmlns="http://www.w3.org/2000/svg"
   xmlns:sodipodi="http://sodipodi.sourceforge.net/DTD/sodipodi-0.dtd"
   xmlns:inkscape="http://www.inkscape.org/namespaces/inkscape"
   version="1.1"
   x="0px"
   y="0px"
   viewBox="0 0 100 125"
   enable-background="new 0 0 100 100"
   xml:space="preserve"
   id="svg14"
   sodipodi:docname="Machete.svg"
   inkscape:version="0.92.2 (5c3e80d, 2017-08-06)"><metadata
     id="metadata20"><rdf:RDF><cc:Work
         rdf:about=""><dc:format>image/svg+xml</dc:format><dc:type
           rdf:resource="http://purl.org/dc/dcmitype/StillImage" /></cc:Work></rdf:RDF></metadata><defs
     id="defs18" /><sodipodi:namedview
     pagecolor="#ffffff"
     bordercolor="#666666"
     borderopacity="1"
     objecttolerance="10"
     gridtolerance="10"
     guidetolerance="10"
     inkscape:pageopacity="0"
     inkscape:pageshadow="2"
     inkscape:window-width="1280"
     inkscape:window-height="1001"
     id="namedview16"
     showgrid="false"
     inkscape:zoom="5.3400704"
     inkscape:cx="56.052376"
     inkscape:cy="62.5"
     inkscape:window-x="1912"
     inkscape:window-y="40"
     inkscape:window-maximized="1"
     inkscape:current-layer="svg14" /><g
     id="g827"><path
       inkscape:connector-curvature="0"
       id="path815"
       d="m 39.676452,64.070256 -4.068948,-3.484122 1.305224,-1.524308 C 37.630602,58.223457 47.762081,46.356756 59.427127,32.69138 71.092171,19.026003 80.682908,7.8393528 80.739876,7.8321567 c 0.140629,-0.017765 1.390449,3.3887033 1.938865,5.2845073 0.998023,3.450036 1.153143,7.246828 0.351578,8.60538 -0.454439,0.770218 -38.951376,45.834539 -39.153764,45.833202 -0.07214,-4.77e-4 -1.962181,-1.568723 -4.200103,-3.48499 z M 78.286408,24.758593 82.040776,20.35008 v -1.363903 c 0,-1.241861 -0.51072,-4.630563 -0.906892,-6.017359 -0.1526,-0.534172 -0.172064,-0.506554 -0.395926,0.56179 -0.427152,2.038495 -2.901619,8.269131 -5.423447,13.656077 -0.509911,1.089231 -0.894567,1.980421 -0.85479,1.980421 0.03977,0 1.761783,-1.983831 3.826687,-4.408513 z"
       style="fill:#f9f9f9;fill-opacity:1;stroke:none;stroke-width:0.18726344;stroke-opacity:1" /><path
       inkscape:connector-curvature="0"
       id="path819"
       d="m 18.545237,93.336522 c -2.019449,-0.560659 -3.402002,-1.853155 -3.647914,-3.410294 -0.264259,-1.67332 -0.334692,-1.576794 9.587651,-13.139464 5.107895,-5.952315 9.356943,-10.82239 9.442328,-10.82239 0.08538,0 1.43134,1.084642 2.991011,2.410316 2.327407,1.978228 2.790678,2.452517 2.584265,2.645723 -0.138325,0.129473 -0.967783,0.844573 -1.843239,1.589112 -3.071602,2.612266 -7.852504,7.169264 -10.047172,9.57663 -3.94325,4.325414 -5.924326,7.332457 -6.4212,9.746633 -0.12026,0.584305 -0.327391,1.152618 -0.460291,1.262916 -0.403396,0.334788 -1.2827,0.391446 -2.185439,0.140818 z m 0.703399,-2.217856 c 0.464175,-0.436071 0.583213,-1.397444 0.250101,-2.019871 -0.220699,-0.41238 -1.199723,-0.784909 -1.647784,-0.627001 -1.211319,0.426901 -1.592892,1.941317 -0.671708,2.665922 0.642763,0.505596 1.51952,0.497525 2.069391,-0.01905 z"
       style="fill:#ffcc00;fill-opacity:1;stroke:none;stroke-width:0.18726344;stroke-opacity:1" /><path
       style="fill:#e6e6e6"
       d="m 80.9,12.1 c 0.6,2.3 -6.6,17.3 -6.6,17.3 l 7.6,-8.9 c 0.7,-2.1 -1,-8.4 -1,-8.4 z"
       id="path2"
       inkscape:connector-curvature="0" /><path
       style="fill:#999999"
       d="M 45.5,69.2 45.2,69 84.3,23.4 84.4,23.3 C 87.9,18.2 82.2,6.1 81.9,5.6 L 81.3,4.4 34.1,59.4 34,59.3 c -1,-0.9 -2.6,-0.8 -3.4,0.3 -0.8,1.1 -0.8,2.6 0.3,3.4 l 1.7,1.4 -18.3,21.3 c -2,2.3 -1.7,5.8 0.6,7.8 1.6,1.4 4.3,2.4 6.1,1.6 1.1,-0.4 1.8,-1.4 1.9,-2.7 0.5,-4.7 12.9,-15.9 18.3,-20.5 l 1.1,0.9 c 1,0.9 2.6,0.8 3.4,-0.3 0.8,-1.1 0.8,-2.5 -0.2,-3.3 z M 80.8,7.6 c 1.7,3.9 4.2,11.5 2.1,14.6 l -39,45.6 -8.4,-7.2 z M 31.3,78.5 c -6.4,6.2 -9.8,10.9 -10.1,13.7 -0.1,0.9 -0.5,1.1 -0.8,1.3 -1.1,0.4 -3.2,-0.4 -4.3,-1.3 -1.6,-1.3 -1.8,-3.7 -0.4,-5.3 l 18.2,-21.2 6,5.1 c -1.6,1.3 -5.1,4.3 -8.6,7.7 z m 12.2,-7 -0.8,-0.7 -9,-7.7 -1.7,-1.5 c -0.3,-0.2 -0.3,-0.6 -0.1,-0.9 0.2,-0.3 0.6,-0.3 0.9,-0.1 l 0.1,0.1 11.1,9.6 0.3,0.2 c 0.3,0.2 0.3,0.6 0.1,0.9 -0.2,0.3 -0.6,0.3 -0.9,0.1 z"
       id="path4"
       inkscape:connector-curvature="0" /><circle
       style="fill:#aa8800"
       cx="18.200001"
       cy="90"
       r="1.5"
       id="circle6" /><path
       inkscape:connector-curvature="0"
       id="path817"
       d="m 37.75297,66.475248 c -5.771908,-4.976604 -6.419142,-5.668631 -5.43064,-5.806479 0.259993,-0.03626 1.981136,1.338154 5.628137,4.494322 2.889485,2.500604 5.529096,4.778083 5.865803,5.061065 0.66764,0.561114 0.722609,1.143833 0.114481,1.213614 -0.251591,0.02887 -2.258092,-1.582924 -6.177781,-4.962522 z"
       style="fill:#f9f9f9;fill-opacity:1;stroke:none;stroke-width:0.18726344;stroke-opacity:1" /></g></svg>