<svg xmlns="http://www.w3.org/2000/svg" xmlns:xlink="http://www.w3.org/1999/xlink" version="1.1" x="0px" y="0px" viewBox="0 0 100 125" enable-background="new 0 0 100 100" xml:space="preserve"><g><path d="M80.9,12.1c0.6,2.3-6.6,17.3-6.6,17.3l7.6-8.9C82.6,18.4,80.9,12.1,80.9,12.1z"/><path d="M45.5,69.2l-0.3-0.2l39.1-45.6l0.1-0.1c3.5-5.1-2.2-17.2-2.5-17.7l-0.6-1.2l-47.2,55L34,59.3c-1-0.9-2.6-0.8-3.4,0.3   s-0.8,2.6,0.3,3.4l1.7,1.4L14.3,85.7c-2,2.3-1.7,5.8,0.6,7.8c1.6,1.4,4.3,2.4,6.1,1.6c1.1-0.4,1.8-1.4,1.9-2.7   c0.5-4.7,12.9-15.9,18.3-20.5l1.1,0.9c1,0.9,2.6,0.8,3.4-0.3S46.5,70,45.5,69.2z M80.8,7.6c1.7,3.9,4.2,11.5,2.1,14.6L43.9,67.8   l-8.4-7.2L80.8,7.6z M31.3,78.5c-6.4,6.2-9.8,10.9-10.1,13.7c-0.1,0.9-0.5,1.1-0.8,1.3c-1.1,0.4-3.2-0.4-4.3-1.3   c-1.6-1.3-1.8-3.7-0.4-5.3l18.2-21.2l6,5.1C38.3,72.1,34.8,75.1,31.3,78.5z M43.5,71.5l-0.8-0.7l-9-7.7L32,61.6   c-0.3-0.2-0.3-0.6-0.1-0.9c0.2-0.3,0.6-0.3,0.9-0.1l0.1,0.1L44,70.3l0.3,0.2c0.3,0.2,0.3,0.6,0.1,0.9   C44.2,71.7,43.8,71.7,43.5,71.5z"/><circle cx="18.2" cy="90" r="1.5"/></g><text x="0" y="115" fill="#000000" font-size="5px" font-weight="bold" font-family="'Helvetica Neue', Helvetica, Arial-Unicode, Arial, Sans-serif">Created by ben mugnier</text><text x="0" y="120" fill="#000000" font-size="5px" font-weight="bold" font-family="'Helvetica Neue', Helvetica, Arial-Unicode, Arial, Sans-serif">from the Noun Project</text></svg>