<?xml version="1.0" encoding="UTF-8" standalone="no"?>
<svg
   xmlns:dc="http://purl.org/dc/elements/1.1/"
   xmlns:cc="http://creativecommons.org/ns#"
   xmlns:rdf="http://www.w3.org/1999/02/22-rdf-syntax-ns#"
   xmlns:svg="http://www.w3.org/2000/svg"
   xmlns="http://www.w3.org/2000/svg"
   xmlns:sodipodi="http://sodipodi.sourceforge.net/DTD/sodipodi-0.dtd"
   xmlns:inkscape="http://www.inkscape.org/namespaces/inkscape"
   version="1.1"
   x="0px"
   y="0px"
   viewBox="0 0 100 125"
   enable-background="new 0 0 100 100"
   xml:space="preserve"
   id="svg18"
   sodipodi:docname="MagnifyingGlass.svg"
   inkscape:version="0.92.4 (5da689c313, 2019-01-14)"><metadata
     id="metadata24"><rdf:RDF><cc:Work
         rdf:about=""><dc:format>image/svg+xml</dc:format><dc:type
           rdf:resource="http://purl.org/dc/dcmitype/StillImage" /></cc:Work></rdf:RDF></metadata><defs
     id="defs22" /><sodipodi:namedview
     pagecolor="#ffffff"
     bordercolor="#666666"
     borderopacity="1"
     objecttolerance="10"
     gridtolerance="10"
     guidetolerance="10"
     inkscape:pageopacity="0"
     inkscape:pageshadow="2"
     inkscape:window-width="640"
     inkscape:window-height="480"
     id="namedview20"
     showgrid="false"
     inkscape:zoom="1.888"
     inkscape:cx="50"
     inkscape:cy="62.5"
     inkscape:window-x="0"
     inkscape:window-y="0"
     inkscape:window-maximized="0"
     inkscape:current-layer="svg18" /><g
     id="g12"
     transform="matrix(1.1411348,0,0,1.1309048,-3.3498037,-3.1024441)"><g
       id="g10"><path
         d="m 70.8,29.2 c -3.5,-3.5 -8.2,-5.5 -13.2,-5.5 -5,0 -9.7,1.9 -13.2,5.5 -3.5,3.5 -5.5,8.2 -5.5,13.2 0,3.5 1,6.9 2.8,9.9 L 24.8,69.2 c -1.5,1.5 -1.4,4.1 0.2,5.8 0.8,0.8 1.8,1.3 2.9,1.3 0.1,0 0.1,0 0.2,0 1,0 2,-0.4 2.7,-1.1 L 47.7,58.3 c 2.9,1.8 6.3,2.8 9.9,2.8 5,0 9.7,-1.9 13.2,-5.5 7.3,-7.2 7.3,-19.1 0,-26.4 z M 29.6,74 c -0.4,0.4 -1,0.6 -1.6,0.6 -0.7,0 -1.3,-0.3 -1.8,-0.8 -1,-1 -1.1,-2.5 -0.2,-3.4 L 39.9,56.5 c 0.5,0.7 1.1,1.3 1.7,1.9 0.6,0.6 1.3,1.2 1.9,1.7 z M 44.7,58.9 c -0.7,-0.5 -1.4,-1.1 -2,-1.7 -0.6,-0.6 -1.2,-1.3 -1.7,-2 l 1.5,-1.5 c 0.5,0.7 1.1,1.3 1.7,1.9 0.6,0.6 1.3,1.2 1.9,1.7 z m 24.9,-4.4 c -3.2,3.2 -7.5,5 -12,5 -4.5,0 -8.8,-1.8 -12,-5 -3.2,-3.2 -5,-7.5 -5,-12 0,-4.5 1.8,-8.8 5,-12 3.2,-3.2 7.5,-5 12,-5 4.5,0 8.8,1.8 12,5 6.6,6.5 6.6,17.3 0,24 z"
         id="path2"
         inkscape:connector-curvature="0" /><path
         d="m 67.5,32.5 c -2.7,-2.7 -6.2,-4.1 -9.9,-4.1 -3.8,0 -7.3,1.5 -9.9,4.1 -2.7,2.7 -4.1,6.2 -4.1,9.9 0,3.8 1.5,7.3 4.1,9.9 2.7,2.7 6.2,4.1 9.9,4.1 3.7,0 7.3,-1.5 9.9,-4.1 2.7,-2.7 4.1,-6.2 4.1,-9.9 0,-3.7 -1.4,-7.3 -4.1,-9.9 z m -0.8,19 c -2.4,2.4 -5.7,3.8 -9.1,3.8 -3.4,0 -6.7,-1.3 -9.1,-3.8 -2.4,-2.4 -3.8,-5.7 -3.8,-9.1 0,-3.4 1.3,-6.7 3.8,-9.1 2.4,-2.4 5.7,-3.8 9.1,-3.8 3.4,0 6.7,1.3 9.1,3.8 2.4,2.4 3.8,5.7 3.8,9.1 0,3.4 -1.4,6.7 -3.8,9.1 z"
         id="path4"
         inkscape:connector-curvature="0" /><path
         d="m 54.7,31 c -0.3,0.1 -0.5,0.4 -0.4,0.7 0.1,0.3 0.4,0.5 0.7,0.4 3.6,-0.9 7.5,0.2 10.1,2.8 0.1,0.1 0.3,0.2 0.4,0.2 0.2,0 0.3,-0.1 0.4,-0.2 0.2,-0.2 0.2,-0.6 0,-0.8 C 63,31.2 58.7,30 54.7,31 Z"
         id="path6"
         inkscape:connector-curvature="0" /><path
         d="m 51.8,32.1 c -1,0.5 -1.8,1.2 -2.6,2 -0.2,0.2 -0.2,0.6 0,0.8 0.1,0.1 0.3,0.2 0.4,0.2 0.2,0 0.3,-0.1 0.4,-0.2 0.7,-0.7 1.5,-1.3 2.4,-1.8 0.3,-0.2 0.4,-0.5 0.2,-0.8 -0.1,-0.2 -0.5,-0.3 -0.8,-0.2 z"
         id="path8"
         inkscape:connector-curvature="0" /></g></g></svg>