<svg xmlns="http://www.w3.org/2000/svg" xmlns:xlink="http://www.w3.org/1999/xlink" version="1.1" x="0px" y="0px" viewBox="0 0 100 125" enable-background="new 0 0 100 100" xml:space="preserve"><g><g><path d="M70.8,29.2c-3.5-3.5-8.2-5.5-13.2-5.5c-5,0-9.7,1.9-13.2,5.5c-3.5,3.5-5.5,8.2-5.5,13.2c0,3.5,1,6.9,2.8,9.9L24.8,69.2    c-1.5,1.5-1.4,4.1,0.2,5.8c0.8,0.8,1.8,1.3,2.9,1.3c0.1,0,0.1,0,0.2,0c1,0,2-0.4,2.7-1.1l16.9-16.9c2.9,1.8,6.3,2.8,9.9,2.8    c5,0,9.7-1.9,13.2-5.5C78.1,48.4,78.1,36.5,70.8,29.2z M29.6,74c-0.4,0.4-1,0.6-1.6,0.6c-0.7,0-1.3-0.3-1.8-0.8    c-1-1-1.1-2.5-0.2-3.4l13.9-13.9c0.5,0.7,1.1,1.3,1.7,1.9c0.6,0.6,1.3,1.2,1.9,1.7L29.6,74z M44.7,58.9c-0.7-0.5-1.4-1.1-2-1.7    c-0.6-0.6-1.2-1.3-1.7-2l1.5-1.5c0.5,0.7,1.1,1.3,1.7,1.9c0.6,0.6,1.3,1.2,1.9,1.7L44.7,58.9z M69.6,54.5c-3.2,3.2-7.5,5-12,5    c-4.5,0-8.8-1.8-12-5c-3.2-3.2-5-7.5-5-12c0-4.5,1.8-8.8,5-12c3.2-3.2,7.5-5,12-5c4.5,0,8.8,1.8,12,5C76.2,37,76.2,47.8,69.6,54.5    z"/><path d="M67.5,32.5c-2.7-2.7-6.2-4.1-9.9-4.1c-3.8,0-7.3,1.5-9.9,4.1c-2.7,2.7-4.1,6.2-4.1,9.9c0,3.8,1.5,7.3,4.1,9.9    c2.7,2.7,6.2,4.1,9.9,4.1s7.3-1.5,9.9-4.1c2.7-2.7,4.1-6.2,4.1-9.9S70.2,35.1,67.5,32.5z M66.7,51.5c-2.4,2.4-5.7,3.8-9.1,3.8    c-3.4,0-6.7-1.3-9.1-3.8c-2.4-2.4-3.8-5.7-3.8-9.1c0-3.4,1.3-6.7,3.8-9.1c2.4-2.4,5.7-3.8,9.1-3.8c3.4,0,6.7,1.3,9.1,3.8    c2.4,2.4,3.8,5.7,3.8,9.1S69.1,49.1,66.7,51.5z"/><path d="M54.7,31c-0.3,0.1-0.5,0.4-0.4,0.7c0.1,0.3,0.4,0.5,0.7,0.4c3.6-0.9,7.5,0.2,10.1,2.8c0.1,0.1,0.3,0.2,0.4,0.2    c0.2,0,0.3-0.1,0.4-0.2c0.2-0.2,0.2-0.6,0-0.8C63,31.2,58.7,30,54.7,31z"/><path d="M51.8,32.1c-1,0.5-1.8,1.2-2.6,2c-0.2,0.2-0.2,0.6,0,0.8c0.1,0.1,0.3,0.2,0.4,0.2c0.2,0,0.3-0.1,0.4-0.2    c0.7-0.7,1.5-1.3,2.4-1.8c0.3-0.2,0.4-0.5,0.2-0.8C52.5,32.1,52.1,32,51.8,32.1z"/></g></g><text x="0" y="115" fill="#000000" font-size="5px" font-weight="bold" font-family="'Helvetica Neue', Helvetica, Arial-Unicode, Arial, Sans-serif">Created by Dirtyworks</text><text x="0" y="120" fill="#000000" font-size="5px" font-weight="bold" font-family="'Helvetica Neue', Helvetica, Arial-Unicode, Arial, Sans-serif">from the Noun Project</text></svg>