<?xml version="1.0" encoding="UTF-8" standalone="no"?>
<svg
   xmlns:dc="http://purl.org/dc/elements/1.1/"
   xmlns:cc="http://creativecommons.org/ns#"
   xmlns:rdf="http://www.w3.org/1999/02/22-rdf-syntax-ns#"
   xmlns:svg="http://www.w3.org/2000/svg"
   xmlns="http://www.w3.org/2000/svg"
   xmlns:sodipodi="http://sodipodi.sourceforge.net/DTD/sodipodi-0.dtd"
   xmlns:inkscape="http://www.inkscape.org/namespaces/inkscape"
   version="1.1"
   x="0px"
   y="0px"
   viewBox="0 0 100 125"
   style="enable-background:new 0 0 100 100;"
   xml:space="preserve"
   id="svg32"
   sodipodi:docname="Map.svg"
   inkscape:version="0.92.2 (5c3e80d, 2017-08-06)"><metadata
     id="metadata38"><rdf:RDF><cc:Work
         rdf:about=""><dc:format>image/svg+xml</dc:format><dc:type
           rdf:resource="http://purl.org/dc/dcmitype/StillImage" /></cc:Work></rdf:RDF></metadata><defs
     id="defs36" /><sodipodi:namedview
     pagecolor="#ffffff"
     bordercolor="#666666"
     borderopacity="1"
     objecttolerance="10"
     gridtolerance="10"
     guidetolerance="10"
     inkscape:pageopacity="0"
     inkscape:pageshadow="2"
     inkscape:window-width="1920"
     inkscape:window-height="1017"
     id="namedview34"
     showgrid="false"
     inkscape:zoom="7.552"
     inkscape:cx="17.094809"
     inkscape:cy="62.5"
     inkscape:window-x="-8"
     inkscape:window-y="-8"
     inkscape:window-maximized="1"
     inkscape:current-layer="svg32" /><path
     d="M89,10H63c-0.038,0-0.076,0.002-0.114,0.007L37,12.993l-25.886-2.986c-0.284-0.036-0.567,0.058-0.779,0.247  C10.122,10.443,10,10.715,10,11v75c0,0.508,0.381,0.936,0.886,0.993l26,3C36.924,89.998,36.962,90,37,90s0.076-0.002,0.114-0.007  L63.058,87H89c0.553,0,1-0.447,1-1V11C90,10.447,89.553,10,89,10z M38,63.416c0.154-0.048,0.301-0.099,0.455-0.147  c0.527-0.165,0.821-0.726,0.657-1.253c-0.15-0.48-0.627-0.747-1.112-0.671v-15.89c1.132,0.244,1.835,0.904,2.668,1.703  c1.157,1.109,2.468,2.366,5.047,2.366c2.578,0,3.888-1.257,5.044-2.366c1.054-1.011,1.886-1.81,3.66-1.81c0.553,0,1-0.447,1-1  s-0.447-1-1-1c-2.578,0-3.889,1.257-5.045,2.366c-1.054,1.011-1.886,1.81-3.659,1.81c-1.775,0-2.608-0.799-3.662-1.81  c-0.997-0.956-2.114-2.017-4.053-2.294v-7.94c1.132,0.244,1.835,0.904,2.668,1.703c1.157,1.109,2.468,2.366,5.047,2.366  c2.578,0,3.888-1.257,5.044-2.366c1.054-1.011,1.886-1.81,3.66-1.81c0.553,0,1-0.447,1-1s-0.447-1-1-1  c-2.578,0-3.889,1.257-5.045,2.366c-1.054,1.011-1.886,1.81-3.659,1.81c-1.775,0-2.608-0.799-3.662-1.81  c-0.997-0.956-2.114-2.017-4.053-2.294v-7.941c1.132,0.244,1.835,0.904,2.668,1.703c1.157,1.109,2.468,2.366,5.047,2.366  c2.578,0,3.888-1.257,5.044-2.366c1.054-1.011,1.886-1.81,3.66-1.81c0.553,0,1-0.447,1-1s-0.447-1-1-1  c-2.578,0-3.889,1.257-5.045,2.366c-1.054,1.011-1.886,1.81-3.659,1.81c-1.775,0-2.608-0.799-3.662-1.81  c-0.997-0.956-2.114-2.017-4.053-2.294v-8.581l24.5-2.827v41.462c-0.482,0.214-0.979,0.428-1.496,0.639  c-0.512,0.209-0.757,0.793-0.548,1.304c0.158,0.388,0.532,0.622,0.926,0.622c0.126,0,0.255-0.023,0.378-0.074  c0.254-0.104,0.494-0.209,0.74-0.314v29.348L38,87.878V63.416z M12,12.122l24,2.769v8.583c-1.933,0.279-3.048,1.337-4.043,2.291  c-1.055,1.011-1.888,1.81-3.663,1.81c-1.776,0-2.609-0.799-3.664-1.81c-1.157-1.109-2.469-2.366-5.049-2.366c-0.553,0-1,0.447-1,1  s0.447,1,1,1c1.776,0,2.609,0.799,3.664,1.81c1.157,1.109,2.469,2.366,5.049,2.366c2.579,0,3.891-1.257,5.048-2.366  c0.831-0.797,1.532-1.455,2.658-1.701v7.941c-1.933,0.279-3.048,1.337-4.043,2.291c-1.055,1.011-1.888,1.81-3.663,1.81  c-1.776,0-2.609-0.799-3.664-1.81c-1.157-1.109-2.469-2.366-5.049-2.366c-0.553,0-1,0.447-1,1s0.447,1,1,1  c1.776,0,2.609,0.799,3.664,1.81c1.157,1.109,2.469,2.366,5.049,2.366c2.579,0,3.891-1.257,5.048-2.366  c0.831-0.797,1.532-1.455,2.658-1.701v7.94c-1.933,0.279-3.048,1.337-4.043,2.291c-1.055,1.011-1.888,1.81-3.663,1.81  c-1.776,0-2.609-0.799-3.664-1.81c-1.157-1.109-2.469-2.366-5.049-2.366c-0.553,0-1,0.447-1,1s0.447,1,1,1  c1.776,0,2.609,0.799,3.664,1.81c1.157,1.109,2.469,2.366,5.049,2.366c2.579,0,3.891-1.257,5.048-2.366  c0.831-0.797,1.532-1.455,2.658-1.701v16.505c-0.312,0.102-0.634,0.201-0.941,0.305c-0.523,0.177-0.804,0.744-0.627,1.268  c0.141,0.417,0.53,0.68,0.947,0.68c0.106,0,0.214-0.017,0.32-0.053c0.098-0.033,0.202-0.064,0.301-0.097v23.814l-24-2.769V12.122z   M88,85H64.5V54.806c0.485-0.244,0.691-0.829,0.457-1.321c-0.099-0.207-0.267-0.35-0.457-0.447V12H88V85z"
     id="path2"
     style="fill:#87aade" /><path
     d="M25.087,66.701c-0.913,0.572-1.745,1.176-2.476,1.793c-0.421,0.357-0.474,0.988-0.117,1.41  c0.198,0.233,0.48,0.354,0.765,0.354c0.228,0,0.457-0.078,0.646-0.236c0.657-0.557,1.412-1.104,2.245-1.625  c0.468-0.294,0.609-0.911,0.316-1.379C26.171,66.549,25.554,66.407,25.087,66.701z"
     id="path4"
     style="fill:#808080" /><path
     d="M57.41,55.518c-0.9,0.313-1.817,0.617-2.745,0.915c-0.526,0.168-0.816,0.731-0.647,1.257  c0.136,0.425,0.528,0.695,0.952,0.695c0.101,0,0.203-0.016,0.305-0.048c0.945-0.302,1.878-0.611,2.794-0.931  c0.521-0.182,0.797-0.752,0.615-1.273S57.934,55.335,57.41,55.518z"
     id="path6"
     style="fill:#808080" /><path
     d="M50.963,57.564c-0.927,0.273-1.86,0.542-2.795,0.809c-0.531,0.152-0.839,0.705-0.688,1.236  c0.126,0.439,0.526,0.726,0.961,0.726c0.092,0,0.184-0.013,0.275-0.038c0.94-0.269,1.88-0.539,2.812-0.814  c0.529-0.156,0.832-0.712,0.676-1.242C52.05,57.711,51.495,57.406,50.963,57.564z"
     id="path8"
     style="fill:#808080" /><path
     d="M31.354,63.622c-0.963,0.383-1.883,0.779-2.735,1.177c-0.501,0.233-0.717,0.829-0.483,1.329  c0.17,0.364,0.53,0.577,0.907,0.577c0.142,0,0.285-0.03,0.422-0.094c0.817-0.382,1.701-0.762,2.628-1.13  c0.514-0.204,0.764-0.786,0.561-1.299C32.449,63.669,31.867,63.42,31.354,63.622z"
     id="path10"
     style="fill:#808080" /><path
     d="M44.423,59.433c-0.943,0.267-1.883,0.534-2.814,0.805c-0.53,0.153-0.836,0.708-0.683,1.238  c0.127,0.438,0.526,0.722,0.961,0.722c0.092,0,0.186-0.013,0.278-0.039c0.928-0.27,1.863-0.535,2.803-0.802  c0.531-0.15,0.84-0.703,0.689-1.234C45.507,59.59,44.948,59.278,44.423,59.433z"
     id="path12"
     style="fill:#808080" /><path
     d="M78.07,36.539c0.041,0.005,0.082,0.007,0.122,0.007c0.499,0,0.93-0.372,0.992-0.879c0.119-0.982,0.185-2,0.194-3.022  c0.005-0.553-0.438-1.005-0.99-1.01c-0.004,0-0.007,0-0.01,0c-0.548,0-0.995,0.441-1,0.99c-0.009,0.949-0.069,1.892-0.181,2.8  C77.132,35.974,77.522,36.472,78.07,36.539z"
     id="path14"
     style="fill:#808080" /><path
     d="M72.723,48.77c0.271,0,0.542-0.11,0.739-0.326c0.687-0.754,1.324-1.559,1.896-2.392c0.312-0.455,0.197-1.077-0.259-1.39  c-0.453-0.312-1.077-0.198-1.39,0.259c-0.521,0.757-1.101,1.489-1.726,2.175c-0.372,0.409-0.343,1.041,0.065,1.413  C72.241,48.684,72.482,48.77,72.723,48.77z"
     id="path16"
     style="fill:#808080" /><path
     d="M67.478,53.069c0.179,0,0.359-0.048,0.523-0.148l0.352-0.221c0.74-0.47,1.458-0.976,2.135-1.505  c0.436-0.34,0.513-0.969,0.173-1.403c-0.34-0.436-0.969-0.514-1.403-0.173c-0.627,0.489-1.291,0.958-1.977,1.393l-0.328,0.206  c-0.47,0.289-0.616,0.905-0.327,1.376C66.813,52.9,67.142,53.069,67.478,53.069z"
     id="path18"
     style="fill:#808080" /><path
     d="M76.461,39.075c-0.261,0.897-0.581,1.777-0.951,2.614c-0.223,0.505,0.006,1.096,0.511,1.319  c0.132,0.058,0.269,0.085,0.403,0.085c0.385,0,0.751-0.222,0.916-0.596c0.405-0.918,0.756-1.882,1.041-2.864  c0.154-0.53-0.15-1.085-0.681-1.239C77.163,38.237,76.614,38.546,76.461,39.075z"
     id="path20"
     style="fill:#808080" /><path
     d="M19.837,73.621c-0.529-0.159-1.087,0.139-1.246,0.668c-0.222,0.735-0.365,1.502-0.425,2.28  c-0.042,0.551,0.369,1.032,0.92,1.074c0.026,0.002,0.053,0.003,0.078,0.003c0.518,0,0.956-0.398,0.996-0.923  c0.049-0.635,0.165-1.26,0.345-1.856C20.665,74.338,20.365,73.78,19.837,73.621z"
     id="path22"
     style="fill:#808080" /><path
     d="M72.796,31.799c0.195,0.195,0.451,0.293,0.707,0.293s0.512-0.098,0.707-0.293l4.167-4.167l4.167,4.167  c0.195,0.195,0.451,0.293,0.707,0.293s0.512-0.098,0.707-0.293c0.391-0.391,0.391-1.023,0-1.414l-4.167-4.167l4.167-4.167  c0.391-0.391,0.391-1.023,0-1.414s-1.023-0.391-1.414,0l-4.167,4.167l-4.167-4.167c-0.391-0.391-1.023-0.391-1.414,0  s-0.391,1.023,0,1.414l4.167,4.167l-4.167,4.167C72.405,30.775,72.405,31.408,72.796,31.799z"
     id="path24"
     style="fill:#ff0000" /><path
     d="M82.705,63.147c0.389,0.39,1.023,0.394,1.414,0.004c0.392-0.39,0.394-1.023,0.004-1.414l-7.011-7.044  c-0.375-0.377-1.043-0.377-1.418,0l-7.01,7.044c-0.39,0.392-0.388,1.024,0.004,1.414c0.194,0.194,0.45,0.291,0.705,0.291  c0.257,0,0.514-0.099,0.709-0.295l5.301-5.326v3.875l-6.719,6.752c-0.39,0.392-0.388,1.024,0.004,1.414  c0.194,0.194,0.45,0.291,0.705,0.291c0.257,0,0.514-0.099,0.709-0.295l5.301-5.326v3.875l-6.719,6.752  c-0.39,0.392-0.388,1.024,0.004,1.414c0.194,0.194,0.45,0.291,0.705,0.291c0.257,0,0.514-0.099,0.709-0.295l5.301-5.326v8.787  c0,0.553,0.447,1,1,1s1-0.447,1-1v-8.787l5.302,5.326c0.389,0.391,1.023,0.394,1.414,0.004c0.392-0.39,0.394-1.023,0.004-1.414  l-6.72-6.752v-3.876l5.302,5.326c0.389,0.391,1.023,0.394,1.414,0.004c0.392-0.39,0.394-1.023,0.004-1.414l-6.72-6.752v-3.876  L82.705,63.147z"
     id="path26"
     style="fill:#88aa00" /><path
     style="fill:#d5f6ff;fill-opacity:1;stroke:none;stroke-width:0.13241525;stroke-opacity:1"
     d="M 23.662606,86.416541 12.076271,85.068072 12.04293,48.625138 c -0.01834,-20.043614 -0.01055,-36.442935 0.01732,-36.442935 0.171537,0 23.137163,2.658157 23.486629,2.71846 l 0.43035,0.07426 v 4.215568 4.215569 l -0.613664,0.154522 c -1.188362,0.299233 -1.940983,0.792108 -3.783619,2.477807 -1.275264,1.166648 -1.888797,1.434803 -3.282802,1.434803 -1.431405,0 -1.980066,-0.25421 -3.471151,-1.608278 -1.879312,-1.706623 -2.725778,-2.185748 -4.290421,-2.428511 -1.067849,-0.165682 -1.509505,-0.0562 -1.846206,0.457674 -0.406291,0.620079 0.10619,1.529651 0.861853,1.529651 1.336229,0 2.06363,0.386524 4.047488,2.150743 1.912039,1.700348 3.627636,2.297852 5.658447,1.970707 1.373899,-0.221322 2.387132,-0.769815 3.912696,-2.118058 1.343286,-1.187151 1.967735,-1.634515 2.511429,-1.799224 l 0.299919,-0.09086 -0.03509,3.943026 -0.03509,3.943027 -0.496008,0.103008 c -0.911534,0.189304 -2.007992,0.863542 -3.380291,2.078623 -1.873675,1.659016 -2.169966,1.801855 -3.737578,1.801855 -1.532785,0 -1.905862,-0.168316 -3.458933,-1.56052 -2.079965,-1.864525 -3.285089,-2.477413 -4.871339,-2.477413 -0.991778,0 -1.389008,0.279975 -1.389008,0.978996 0,0.71895 0.34369,0.984492 1.454797,1.124007 1.233684,0.154908 1.774583,0.452958 3.200701,1.763673 1.935389,1.778777 3.177386,2.356841 5.063782,2.356841 1.883909,0 3.091773,-0.562737 5.06083,-2.357814 1.170097,-1.066709 1.989755,-1.614644 2.415356,-1.614644 0.178942,0 0.203899,0.474268 0.203899,3.874914 v 3.874914 l -0.671755,0.15957 c -0.981748,0.233208 -1.883235,0.801961 -3.300703,2.082434 -1.691022,1.527587 -2.240074,1.793126 -3.707627,1.793126 -1.473313,0 -2.048132,-0.277871 -3.718616,-1.797602 -0.685095,-0.623269 -1.547156,-1.305735 -1.915691,-1.516589 -1.190224,-0.680977 -3.13638,-1.012406 -3.646236,-0.620952 -0.257645,0.197814 -0.518186,0.670294 -0.518186,0.93971 0,0.10997 0.139139,0.361703 0.309197,0.559408 0.252636,0.293706 0.46927,0.378734 1.184243,0.464809 1.175777,0.14155 1.905862,0.550451 3.405924,1.907561 0.829786,0.75071 1.593629,1.30451 2.244193,1.627079 0.979579,0.485706 0.997529,0.489012 2.655172,0.489012 1.657039,0 1.675949,-0.0035 2.655172,-0.488396 0.656237,-0.324972 1.40717,-0.870583 2.244192,-1.630575 1.122311,-1.019028 2.258777,-1.787279 2.643904,-1.787279 0.09267,0 0.136817,2.642228 0.136817,8.188786 v 8.188786 l -0.53725,0.160965 c -0.726238,0.217586 -1.051733,0.570059 -1.051733,1.1389 0,0.66609 0.40557,1.032765 1.072019,0.969208 l 0.516964,-0.0493 v 11.821559 11.821562 l -0.364142,-0.01315 c -0.200279,-0.0072 -5.577994,-0.619962 -11.950478,-1.36162 z M 19.60876,77.578162 c 0.35696,-0.162642 0.546348,-0.549881 0.671585,-1.373183 0.04431,-0.291314 0.148225,-0.807859 0.230916,-1.147878 0.128767,-0.529481 0.117635,-0.668142 -0.07756,-0.96604 -0.330945,-0.505088 -0.774497,-0.674757 -1.249549,-0.477984 -0.481559,0.199469 -0.639274,0.496471 -0.88415,1.664995 -0.23497,1.121255 -0.243136,1.413097 -0.05132,1.834089 0.243292,0.533967 0.795585,0.723199 1.360073,0.466001 z m 4.411608,-7.583796 c 0.207945,-0.174975 0.822465,-0.624265 1.3656,-0.998426 1.418359,-0.977093 1.620787,-1.450764 0.919638,-2.151913 -0.330309,-0.330309 -0.474574,-0.388146 -0.803883,-0.322284 -0.437523,0.0875 -2.011053,1.127023 -2.800347,1.849988 -0.607911,0.556824 -0.667161,1.118907 -0.170319,1.615749 0.419112,0.419113 0.996236,0.421781 1.489311,0.0069 z m 6.798651,-3.910251 c 1.978037,-0.853836 2.361237,-1.342643 1.705798,-2.175897 -0.400952,-0.509729 -0.965735,-0.454365 -2.620061,0.256834 -1.559177,0.670295 -1.872447,0.935336 -1.872447,1.58418 0,0.495196 0.491669,0.988056 0.985666,0.988056 0.158332,0 0.968802,-0.293927 1.801044,-0.653173 z"
     id="path826"
     inkscape:connector-curvature="0" /><path
     style="fill:#d5f6ff;fill-opacity:1;stroke:none;stroke-width:0.13241525;stroke-opacity:1"
     d="M 38.095869,75.625175 V 63.459036 l 0.402306,-0.166641 c 0.46759,-0.193682 0.657016,-0.489328 0.657016,-1.025438 0,-0.420001 -0.469825,-0.958694 -0.83613,-0.958694 -0.206815,0 -0.223192,-0.578775 -0.223192,-7.887631 v -7.887631 l 0.297934,0.09191 c 0.608394,0.187675 0.999581,0.459277 2.091746,1.4523 2.127094,1.934007 3.220781,2.446098 5.224197,2.446098 2.007484,0 3.102981,-0.514258 5.230402,-2.455308 1.280673,-1.16848 1.834652,-1.45942 3.126049,-1.641746 0.671944,-0.09487 0.973728,-0.204058 1.144343,-0.414041 0.578802,-0.712349 0.02547,-1.712422 -0.947473,-1.712422 -0.790007,0 -1.849837,0.256512 -2.594635,0.627983 -0.726404,0.362298 -1.256199,0.767977 -2.634354,2.0172 -1.259056,1.141266 -1.979628,1.457103 -3.324332,1.457103 -1.344705,0 -2.065277,-0.315837 -3.324333,-1.457103 -1.824218,-1.653555 -2.760417,-2.250347 -3.859195,-2.460091 l -0.430349,-0.08215 v -3.905868 -3.905869 l 0.34204,0.08585 c 0.520255,0.130576 1.196494,0.613219 2.483296,1.772371 0.643581,0.579739 1.452464,1.207727 1.797519,1.395528 1.80867,0.984402 4.183288,0.979006 6.007123,-0.01365 0.358849,-0.19531 1.279409,-0.914525 2.045689,-1.598253 1.527029,-1.362522 1.925996,-1.581947 3.205934,-1.763209 1.021651,-0.144683 1.464797,-0.479847 1.464797,-1.107871 0,-0.658593 -0.455355,-0.993114 -1.351843,-0.993114 -0.907016,0 -2.221965,0.392434 -3.01786,0.900652 -0.327728,0.20927 -1.125135,0.865362 -1.772016,1.457983 -1.585789,1.452775 -2.071511,1.68003 -3.590802,1.68003 -1.527523,0 -1.993341,-0.221211 -3.653714,-1.735103 -1.409474,-1.285127 -2.05524,-1.704828 -3.138884,-2.040042 l -0.755072,-0.233574 -0.03507,-3.918693 -0.03507,-3.918693 0.333903,0.126949 c 0.722801,0.274809 1.107541,0.549121 2.317568,1.652377 1.953643,1.781258 3.679537,2.471173 5.621056,2.246983 1.688227,-0.19494 2.666906,-0.720772 4.499898,-2.417733 1.211678,-1.121757 2.036772,-1.559548 3.252612,-1.725825 0.922681,-0.126185 1.325294,-0.441129 1.325294,-1.036715 0,-0.887865 -0.621433,-1.190493 -2.004098,-0.975965 -1.387978,0.215352 -2.398351,0.76802 -3.910691,2.139125 -1.716925,1.556584 -2.418426,1.906401 -3.817732,1.903786 -1.371461,-0.0026 -1.949778,-0.266625 -3.368814,-1.538202 -1.572802,-1.409367 -2.341307,-1.927144 -3.35126,-2.257897 l -0.893803,-0.292714 v -4.208702 -4.208702 l 0.297934,-0.06306 c 0.388102,-0.08215 23.531025,-2.728084 23.834746,-2.725032 0.219691,0.0022 0.231726,1.075201 0.231726,20.660182 v 20.657851 l -0.503862,0.201606 c -1.046665,0.418792 -1.415577,0.66346 -1.539612,1.021091 -0.170339,0.491141 0.03477,1.032493 0.487464,1.286585 0.324988,0.182411 0.419417,0.181169 0.958261,-0.01259 l 0.597749,-0.214948 v 14.600439 14.600441 l -0.562764,0.08066 c -0.680623,0.09754 -23.519347,2.730126 -23.685015,2.730126 -0.06638,0 -0.116627,-5.241603 -0.116627,-12.166139 z m 5.602646,-13.853668 c 1.611753,-0.463021 1.88086,-0.625366 2.031578,-1.225597 0.09183,-0.365714 -0.246791,-0.917067 -0.68619,-1.11727 -0.440527,-0.200718 -3.589886,0.677736 -3.935587,1.097757 -0.355486,0.431909 -0.300433,1.105846 0.117169,1.434331 0.4608,0.362466 0.585976,0.352888 2.47303,-0.189221 z m 6.51785,-1.846647 c 1.705627,-0.491543 2.047936,-0.728561 2.047936,-1.418006 0,-0.461622 -0.51935,-1.038634 -0.934843,-1.038634 -0.288887,0 -2.119983,0.511871 -3.123232,0.873079 -0.872281,0.314055 -1.097792,1.355385 -0.39945,1.844523 0.395826,0.277247 0.630048,0.251882 2.409589,-0.260962 z m 6.483598,-2.009983 c 1.619154,-0.533767 2.052685,-0.83058 2.052685,-1.405351 0,-0.542108 -0.197966,-0.845903 -0.655066,-1.005249 -0.33418,-0.116496 -0.649103,-0.05432 -2.022128,0.399237 -0.894466,0.295474 -1.725876,0.634337 -1.847579,0.753031 -0.375321,0.366041 -0.36424,1.086857 0.02266,1.473752 0.37057,0.37057 0.781483,0.334433 2.449433,-0.21542 z"
     id="path828"
     inkscape:connector-curvature="0" /><path
     style="fill:#d5f6ff;fill-opacity:1;stroke:none;stroke-width:0.13241525;stroke-opacity:1"
     d="m 64.578919,69.969244 c 0,-14.840848 0.0035,-15.045837 0.264831,-15.378027 0.145657,-0.185172 0.264831,-0.469572 0.264831,-0.632001 0,-0.162428 -0.119174,-0.446829 -0.264831,-0.632001 -0.262237,-0.333379 -0.264831,-0.537179 -0.264831,-20.807052 V 12.049788 H 76.231462 87.884004 V 48.530191 85.010593 H 76.231462 64.578919 Z m 12.537812,10.78098 0.306468,-0.287913 v -4.57428 -4.57428 l 2.820863,2.809755 c 2.29828,2.289232 2.888133,2.809757 3.183985,2.809757 0.507599,0 1.013161,-0.539293 1.013161,-1.08076 0,-0.386683 -0.358769,-0.790395 -3.509005,-3.948565 l -3.509004,-3.517843 v -1.84646 -1.846461 l 2.754817,2.743455 c 2.495861,2.485568 2.796903,2.743456 3.202536,2.743456 0.616348,0 1.060656,-0.437185 1.060656,-1.043654 0,-0.435225 -0.24454,-0.712983 -3.509005,-3.985671 l -3.509004,-3.517843 v -1.84944 -1.849438 l 2.747617,2.736844 c 1.530357,1.524358 2.864943,2.747848 3.012447,2.761683 0.794322,0.0745 1.257945,-0.311292 1.257945,-1.046758 0,-0.426883 -0.270677,-0.734046 -3.608316,-4.094709 -1.984574,-1.998264 -3.777211,-3.7067 -3.983639,-3.796527 -0.206428,-0.08982 -0.509912,-0.13759 -0.674408,-0.106145 -0.170224,0.03254 -1.916881,1.675718 -4.053967,3.813791 -3.513819,3.515442 -3.754882,3.786928 -3.754882,4.228765 0,0.718567 0.442917,1.062143 1.303541,1.011171 0.145593,-0.0086 1.425748,-1.178482 2.94624,-2.692398 l 2.688778,-2.677151 v 1.850511 1.85051 l -3.434406,3.432501 c -1.888923,1.887875 -3.469239,3.571288 -3.511813,3.740917 -0.09014,0.359148 0.219601,1.031672 0.530012,1.150787 0.69111,0.265204 0.853959,0.146903 3.667435,-2.66418 l 2.748772,-2.746434 v 1.853624 1.853624 l -3.323723,3.309388 c -1.828047,1.820164 -3.406708,3.500196 -3.508134,3.733405 -0.219467,0.504614 -0.08821,0.96685 0.364615,1.28402 0.659113,0.46166 0.810468,0.358518 3.707332,-2.526398 l 2.749723,-2.738384 0.0382,4.537818 0.0382,4.537817 0.312604,0.253001 c 0.418177,0.338449 1.052385,0.323002 1.433364,-0.03491 z M 68.882597,52.403337 c 2.022685,-1.339633 2.434415,-1.980249 1.727235,-2.687427 -0.522801,-0.522802 -0.91214,-0.424155 -2.452114,0.621295 -0.766671,0.520472 -1.46843,1.03835 -1.559466,1.150838 -0.457195,0.564932 0.100877,1.610474 0.859613,1.610474 0.230931,0 0.778513,-0.267186 1.424732,-0.69518 z m 4.942902,-4.306397 c 0.976535,-1.066273 1.743887,-2.21939 1.743887,-2.620581 0,-0.548328 -0.472056,-0.984834 -1.06504,-0.984834 -0.462985,0 -0.550329,0.07632 -1.629031,1.423464 -0.950973,1.187628 -1.140325,1.502332 -1.142894,1.899499 -0.003,0.46563 0.219115,0.787714 0.658998,0.955554 0.407404,0.155448 0.877213,-0.06506 1.43408,-0.673102 z m 3.249795,-5.227501 c 0.293245,-0.265606 1.083631,-2.133977 1.345477,-3.180537 0.217153,-0.867926 -0.592868,-1.620657 -1.389096,-1.290849 -0.285629,0.118312 -0.45291,0.328589 -0.618486,0.777453 -0.124829,0.338403 -0.395545,1.048833 -0.60159,1.578735 -0.481609,1.238586 -0.488063,1.775021 -0.02573,2.138691 0.452084,0.355609 0.879471,0.347821 1.289428,-0.02349 z m 1.798765,-6.556411 c 0.328442,-0.265957 0.523669,-1.393951 0.531036,-3.068265 0.0053,-1.196826 -0.259989,-1.597517 -1.057549,-1.597517 -0.836115,0 -0.95739,0.266046 -1.09421,2.400413 -0.117319,1.830152 -0.114401,1.865327 0.180807,2.179562 0.362152,0.385494 1.02131,0.424773 1.439916,0.08581 z m -2.677573,-6.419587 2.149877,-2.145697 2.153618,2.138176 c 1.275057,1.265913 2.29714,2.173938 2.505429,2.225841 0.638268,0.159045 1.291781,-0.369916 1.299172,-1.051565 0.0035,-0.327544 -0.342641,-0.737459 -2.208658,-2.615201 l -2.212867,-2.226775 2.212867,-2.226774 c 2.24823,-2.262358 2.385958,-2.464696 2.130615,-3.130111 -0.127232,-0.331559 -0.821953,-0.636115 -1.223056,-0.536171 -0.205856,0.05129 -1.236404,0.967346 -2.503502,2.225357 l -2.153618,2.138176 -2.149877,-2.140798 c -1.344614,-1.338936 -2.286631,-2.173902 -2.514982,-2.229179 -0.736758,-0.178345 -1.419999,0.633667 -1.147927,1.364278 0.07458,0.200278 1.070489,1.302635 2.213126,2.449682 l 2.077523,2.08554 -2.077523,2.085541 c -1.142637,1.147047 -2.138544,2.249404 -2.213126,2.449682 -0.167158,0.44888 -0.0085,0.917672 0.41225,1.218376 0.606445,0.43338 0.961402,0.206429 3.250659,-2.078378 z"
     id="path830"
     inkscape:connector-curvature="0" /></svg>