<svg xmlns="http://www.w3.org/2000/svg" xmlns:xlink="http://www.w3.org/1999/xlink" version="1.1" x="0px" y="0px" viewBox="0 0 100 125" style="enable-background:new 0 0 100 100;" xml:space="preserve"><path d="M89,10H63c-0.038,0-0.076,0.002-0.114,0.007L37,12.993l-25.886-2.986c-0.284-0.036-0.567,0.058-0.779,0.247  C10.122,10.443,10,10.715,10,11v75c0,0.508,0.381,0.936,0.886,0.993l26,3C36.924,89.998,36.962,90,37,90s0.076-0.002,0.114-0.007  L63.058,87H89c0.553,0,1-0.447,1-1V11C90,10.447,89.553,10,89,10z M38,63.416c0.154-0.048,0.301-0.099,0.455-0.147  c0.527-0.165,0.821-0.726,0.657-1.253c-0.15-0.48-0.627-0.747-1.112-0.671v-15.89c1.132,0.244,1.835,0.904,2.668,1.703  c1.157,1.109,2.468,2.366,5.047,2.366c2.578,0,3.888-1.257,5.044-2.366c1.054-1.011,1.886-1.81,3.66-1.81c0.553,0,1-0.447,1-1  s-0.447-1-1-1c-2.578,0-3.889,1.257-5.045,2.366c-1.054,1.011-1.886,1.81-3.659,1.81c-1.775,0-2.608-0.799-3.662-1.81  c-0.997-0.956-2.114-2.017-4.053-2.294v-7.94c1.132,0.244,1.835,0.904,2.668,1.703c1.157,1.109,2.468,2.366,5.047,2.366  c2.578,0,3.888-1.257,5.044-2.366c1.054-1.011,1.886-1.81,3.66-1.81c0.553,0,1-0.447,1-1s-0.447-1-1-1  c-2.578,0-3.889,1.257-5.045,2.366c-1.054,1.011-1.886,1.81-3.659,1.81c-1.775,0-2.608-0.799-3.662-1.81  c-0.997-0.956-2.114-2.017-4.053-2.294v-7.941c1.132,0.244,1.835,0.904,2.668,1.703c1.157,1.109,2.468,2.366,5.047,2.366  c2.578,0,3.888-1.257,5.044-2.366c1.054-1.011,1.886-1.81,3.66-1.81c0.553,0,1-0.447,1-1s-0.447-1-1-1  c-2.578,0-3.889,1.257-5.045,2.366c-1.054,1.011-1.886,1.81-3.659,1.81c-1.775,0-2.608-0.799-3.662-1.81  c-0.997-0.956-2.114-2.017-4.053-2.294v-8.581l24.5-2.827v41.462c-0.482,0.214-0.979,0.428-1.496,0.639  c-0.512,0.209-0.757,0.793-0.548,1.304c0.158,0.388,0.532,0.622,0.926,0.622c0.126,0,0.255-0.023,0.378-0.074  c0.254-0.104,0.494-0.209,0.74-0.314v29.348L38,87.878V63.416z M12,12.122l24,2.769v8.583c-1.933,0.279-3.048,1.337-4.043,2.291  c-1.055,1.011-1.888,1.81-3.663,1.81c-1.776,0-2.609-0.799-3.664-1.81c-1.157-1.109-2.469-2.366-5.049-2.366c-0.553,0-1,0.447-1,1  s0.447,1,1,1c1.776,0,2.609,0.799,3.664,1.81c1.157,1.109,2.469,2.366,5.049,2.366c2.579,0,3.891-1.257,5.048-2.366  c0.831-0.797,1.532-1.455,2.658-1.701v7.941c-1.933,0.279-3.048,1.337-4.043,2.291c-1.055,1.011-1.888,1.81-3.663,1.81  c-1.776,0-2.609-0.799-3.664-1.81c-1.157-1.109-2.469-2.366-5.049-2.366c-0.553,0-1,0.447-1,1s0.447,1,1,1  c1.776,0,2.609,0.799,3.664,1.81c1.157,1.109,2.469,2.366,5.049,2.366c2.579,0,3.891-1.257,5.048-2.366  c0.831-0.797,1.532-1.455,2.658-1.701v7.94c-1.933,0.279-3.048,1.337-4.043,2.291c-1.055,1.011-1.888,1.81-3.663,1.81  c-1.776,0-2.609-0.799-3.664-1.81c-1.157-1.109-2.469-2.366-5.049-2.366c-0.553,0-1,0.447-1,1s0.447,1,1,1  c1.776,0,2.609,0.799,3.664,1.81c1.157,1.109,2.469,2.366,5.049,2.366c2.579,0,3.891-1.257,5.048-2.366  c0.831-0.797,1.532-1.455,2.658-1.701v16.505c-0.312,0.102-0.634,0.201-0.941,0.305c-0.523,0.177-0.804,0.744-0.627,1.268  c0.141,0.417,0.53,0.68,0.947,0.68c0.106,0,0.214-0.017,0.32-0.053c0.098-0.033,0.202-0.064,0.301-0.097v23.814l-24-2.769V12.122z   M88,85H64.5V54.806c0.485-0.244,0.691-0.829,0.457-1.321c-0.099-0.207-0.267-0.35-0.457-0.447V12H88V85z"/><path d="M25.087,66.701c-0.913,0.572-1.745,1.176-2.476,1.793c-0.421,0.357-0.474,0.988-0.117,1.41  c0.198,0.233,0.48,0.354,0.765,0.354c0.228,0,0.457-0.078,0.646-0.236c0.657-0.557,1.412-1.104,2.245-1.625  c0.468-0.294,0.609-0.911,0.316-1.379C26.171,66.549,25.554,66.407,25.087,66.701z"/><path d="M57.41,55.518c-0.9,0.313-1.817,0.617-2.745,0.915c-0.526,0.168-0.816,0.731-0.647,1.257  c0.136,0.425,0.528,0.695,0.952,0.695c0.101,0,0.203-0.016,0.305-0.048c0.945-0.302,1.878-0.611,2.794-0.931  c0.521-0.182,0.797-0.752,0.615-1.273S57.934,55.335,57.41,55.518z"/><path d="M50.963,57.564c-0.927,0.273-1.86,0.542-2.795,0.809c-0.531,0.152-0.839,0.705-0.688,1.236  c0.126,0.439,0.526,0.726,0.961,0.726c0.092,0,0.184-0.013,0.275-0.038c0.94-0.269,1.88-0.539,2.812-0.814  c0.529-0.156,0.832-0.712,0.676-1.242C52.05,57.711,51.495,57.406,50.963,57.564z"/><path d="M31.354,63.622c-0.963,0.383-1.883,0.779-2.735,1.177c-0.501,0.233-0.717,0.829-0.483,1.329  c0.17,0.364,0.53,0.577,0.907,0.577c0.142,0,0.285-0.03,0.422-0.094c0.817-0.382,1.701-0.762,2.628-1.13  c0.514-0.204,0.764-0.786,0.561-1.299C32.449,63.669,31.867,63.42,31.354,63.622z"/><path d="M44.423,59.433c-0.943,0.267-1.883,0.534-2.814,0.805c-0.53,0.153-0.836,0.708-0.683,1.238  c0.127,0.438,0.526,0.722,0.961,0.722c0.092,0,0.186-0.013,0.278-0.039c0.928-0.27,1.863-0.535,2.803-0.802  c0.531-0.15,0.84-0.703,0.689-1.234C45.507,59.59,44.948,59.278,44.423,59.433z"/><path d="M78.07,36.539c0.041,0.005,0.082,0.007,0.122,0.007c0.499,0,0.93-0.372,0.992-0.879c0.119-0.982,0.185-2,0.194-3.022  c0.005-0.553-0.438-1.005-0.99-1.01c-0.004,0-0.007,0-0.01,0c-0.548,0-0.995,0.441-1,0.99c-0.009,0.949-0.069,1.892-0.181,2.8  C77.132,35.974,77.522,36.472,78.07,36.539z"/><path d="M72.723,48.77c0.271,0,0.542-0.11,0.739-0.326c0.687-0.754,1.324-1.559,1.896-2.392c0.312-0.455,0.197-1.077-0.259-1.39  c-0.453-0.312-1.077-0.198-1.39,0.259c-0.521,0.757-1.101,1.489-1.726,2.175c-0.372,0.409-0.343,1.041,0.065,1.413  C72.241,48.684,72.482,48.77,72.723,48.77z"/><path d="M67.478,53.069c0.179,0,0.359-0.048,0.523-0.148l0.352-0.221c0.74-0.47,1.458-0.976,2.135-1.505  c0.436-0.34,0.513-0.969,0.173-1.403c-0.34-0.436-0.969-0.514-1.403-0.173c-0.627,0.489-1.291,0.958-1.977,1.393l-0.328,0.206  c-0.47,0.289-0.616,0.905-0.327,1.376C66.813,52.9,67.142,53.069,67.478,53.069z"/><path d="M76.461,39.075c-0.261,0.897-0.581,1.777-0.951,2.614c-0.223,0.505,0.006,1.096,0.511,1.319  c0.132,0.058,0.269,0.085,0.403,0.085c0.385,0,0.751-0.222,0.916-0.596c0.405-0.918,0.756-1.882,1.041-2.864  c0.154-0.53-0.15-1.085-0.681-1.239C77.163,38.237,76.614,38.546,76.461,39.075z"/><path d="M19.837,73.621c-0.529-0.159-1.087,0.139-1.246,0.668c-0.222,0.735-0.365,1.502-0.425,2.28  c-0.042,0.551,0.369,1.032,0.92,1.074c0.026,0.002,0.053,0.003,0.078,0.003c0.518,0,0.956-0.398,0.996-0.923  c0.049-0.635,0.165-1.26,0.345-1.856C20.665,74.338,20.365,73.78,19.837,73.621z"/><path d="M72.796,31.799c0.195,0.195,0.451,0.293,0.707,0.293s0.512-0.098,0.707-0.293l4.167-4.167l4.167,4.167  c0.195,0.195,0.451,0.293,0.707,0.293s0.512-0.098,0.707-0.293c0.391-0.391,0.391-1.023,0-1.414l-4.167-4.167l4.167-4.167  c0.391-0.391,0.391-1.023,0-1.414s-1.023-0.391-1.414,0l-4.167,4.167l-4.167-4.167c-0.391-0.391-1.023-0.391-1.414,0  s-0.391,1.023,0,1.414l4.167,4.167l-4.167,4.167C72.405,30.775,72.405,31.408,72.796,31.799z"/><path d="M82.705,63.147c0.389,0.39,1.023,0.394,1.414,0.004c0.392-0.39,0.394-1.023,0.004-1.414l-7.011-7.044  c-0.375-0.377-1.043-0.377-1.418,0l-7.01,7.044c-0.39,0.392-0.388,1.024,0.004,1.414c0.194,0.194,0.45,0.291,0.705,0.291  c0.257,0,0.514-0.099,0.709-0.295l5.301-5.326v3.875l-6.719,6.752c-0.39,0.392-0.388,1.024,0.004,1.414  c0.194,0.194,0.45,0.291,0.705,0.291c0.257,0,0.514-0.099,0.709-0.295l5.301-5.326v3.875l-6.719,6.752  c-0.39,0.392-0.388,1.024,0.004,1.414c0.194,0.194,0.45,0.291,0.705,0.291c0.257,0,0.514-0.099,0.709-0.295l5.301-5.326v8.787  c0,0.553,0.447,1,1,1s1-0.447,1-1v-8.787l5.302,5.326c0.389,0.391,1.023,0.394,1.414,0.004c0.392-0.39,0.394-1.023,0.004-1.414  l-6.72-6.752v-3.876l5.302,5.326c0.389,0.391,1.023,0.394,1.414,0.004c0.392-0.39,0.394-1.023,0.004-1.414l-6.72-6.752v-3.876  L82.705,63.147z"/><text x="0" y="115" fill="#000000" font-size="5px" font-weight="bold" font-family="'Helvetica Neue', Helvetica, Arial-Unicode, Arial, Sans-serif">Created by Made</text><text x="0" y="120" fill="#000000" font-size="5px" font-weight="bold" font-family="'Helvetica Neue', Helvetica, Arial-Unicode, Arial, Sans-serif">from the Noun Project</text></svg>