<?xml version="1.0" encoding="UTF-8" standalone="no"?>
<svg
   xmlns:dc="http://purl.org/dc/elements/1.1/"
   xmlns:cc="http://creativecommons.org/ns#"
   xmlns:rdf="http://www.w3.org/1999/02/22-rdf-syntax-ns#"
   xmlns:svg="http://www.w3.org/2000/svg"
   xmlns="http://www.w3.org/2000/svg"
   xmlns:sodipodi="http://sodipodi.sourceforge.net/DTD/sodipodi-0.dtd"
   xmlns:inkscape="http://www.inkscape.org/namespaces/inkscape"
   version="1.1"
   x="0px"
   y="0px"
   viewBox="0 0 100 125"
   enable-background="new 0 0 100 100"
   xml:space="preserve"
   id="svg8"
   sodipodi:docname="Minotaur.svg"
   inkscape:version="0.92.2 (5c3e80d, 2017-08-06)"><metadata
     id="metadata14"><rdf:RDF><cc:Work
         rdf:about=""><dc:format>image/svg+xml</dc:format><dc:type
           rdf:resource="http://purl.org/dc/dcmitype/StillImage" /></cc:Work></rdf:RDF></metadata><defs
     id="defs12" /><sodipodi:namedview
     pagecolor="#ffffff"
     bordercolor="#666666"
     borderopacity="1"
     objecttolerance="10"
     gridtolerance="10"
     guidetolerance="10"
     inkscape:pageopacity="0"
     inkscape:pageshadow="2"
     inkscape:window-width="1920"
     inkscape:window-height="1017"
     id="namedview10"
     showgrid="false"
     inkscape:zoom="7.552"
     inkscape:cx="17.094809"
     inkscape:cy="75.84571"
     inkscape:window-x="-8"
     inkscape:window-y="-8"
     inkscape:window-maximized="1"
     inkscape:current-layer="svg8" /><path
     fill-rule="evenodd"
     clip-rule="evenodd"
     d="M36.3808594,85.1499023  c-0.234375-0.2333984-0.4179688-0.4331055-0.5507813-0.6000977c-0.0332031,0-0.0664063,0.0166016-0.0996094,0.050293L35.3300781,85  l-0.4492188,0.2998047c-0.0683594,0.0332031-0.6015625,0.3334961-1.6015625,0.8999023  c-0.5996094,0.2670898-0.9824219,0.5-1.1484375,0.7001953l-0.75,0.7998047  c-0.0332031,0.0668945-0.3339844,0.6000977-0.9003906,1.6000977c-0.3007813,0.7333984-0.6171875,1.2666016-0.9511719,1.6000977  L29.4296875,91c0.1328125-0.0332031,0.3164063-0.0834961,0.5507813-0.1499023c0.5-0.1000977,0.8320313-0.3334961,1-0.7001953  c0.0996094-0.1333008,0.3828125-0.7167969,0.8496094-1.75c0.4003906-0.7998047,0.8496094-1.3334961,1.3496094-1.6000977  l0.6503906-0.3500977L34.1796875,87c0.234375,0.3999023,0.3496094,0.699707,0.3496094,0.8999023  c0.0683594,0.2333984,0.0683594,0.3500977,0,0.3500977c-0.0332031,0.3999023-0.1152344,0.7998047-0.25,1.199707  c-0.0996094,0.2333984-0.2324219,0.5336914-0.3984375,0.9003906l-0.3515625,0.7998047l0.1503906,0.0498047  c0.2675781,0.0668945,0.4667969,0.0834961,0.5996094,0.050293c0.3007813,0.0332031,0.6835938,0.0166016,1.1503906-0.050293  c0.5,0,1.1328125-0.0664063,1.9003906-0.199707l2.5507813-0.4501953l0.25,0.050293l0.0996094-0.4501953  c0-0.4667969-0.0332031-0.9165039-0.0996094-1.3500977l-0.25-1.199707c-0.0332031-0.5336914-0.0332031-0.9667969,0-1.300293  c-0.3339844,0.0332031-0.5332031,0.050293-0.6015625,0.050293c-0.3320313,0-0.5820313-0.0170898-0.75-0.050293l-0.8496094-0.25  C37.1464844,85.7832031,36.7128906,85.4833984,36.3808594,85.1499023z M63.9296875,87  c-0.3671875-0.0668945-0.6835938-0.1499023-0.9492188-0.25c-0.234375-0.1000977-0.4179688-0.1835938-0.5507813-0.25  c-0.1992188,0.6333008-0.5332031,1.3500977-1,2.1499023c-0.5332031,0.8334961-0.8671875,1.3999023-1,1.7001953  c-0.0996094,0.199707-0.25,0.5830078-0.4492188,1.1499023l-0.0507813,0.2998047l1.5996094,1.1499023  c0.5,0.3334961,0.9335938,0.550293,1.3007813,0.6503906l0.3496094,0.0498047l0.3007813-0.0498047  c0.0332031-0.0336914,0.0664063-0.1333008,0.0996094-0.300293c-0.0332031-0.5664063,0-1.0830078,0.0996094-1.5498047  c0.4335938-1.3334961,0.9335938-1.9833984,1.5-1.9501953c0.0332031,0.0332031,0.1679688,0.0834961,0.4003906,0.1499023  c0.3007813,0.1669922,0.5507813,0.4667969,0.75,0.9003906c0.1660156,0.3330078,0.3164063,0.7329102,0.4492188,1.199707  L67.1308594,93c0.1328125,0.2666016,0.2167969,0.3999023,0.25,0.3999023l0.75-0.1000977  c0.2988281-0.0332031,0.5488281-0.0166016,0.75,0.050293c0.0664063,0,0.1328125,0.0166016,0.1992188,0.0498047l-0.0507813-0.1000977  l0.0507813-0.6499023l-0.1503906-1.1000977C68.796875,90.9165039,68.0800781,89.5664063,66.7792969,87.5  c-0.2324219-0.3334961-0.4316406-0.7001953-0.5996094-1.1000977C66.0800781,86.4331055,65.9804688,86.5,65.8808594,86.6000977  C65.3476563,86.8999023,64.6972656,87.0332031,63.9296875,87z M75.3808594,61.3999023  c-0.4667969,0.2001953-1.234375,0.2666016-2.3007813,0.2001953c-1.0996094-0.0668945-1.8671875,0.0166016-2.3007813,0.25  c-0.5996094,0.2329102-1.2832031,1.0166016-2.0488281,2.3496094l1.8496094-0.0498047  c0.5664063,0.0332031,1.1171875,0.0332031,1.6503906,0c0.4667969-0.0668945,0.7167969-0.1166992,0.75-0.1499023l0.5488281-0.2001953  l0.4511719-0.25l0.75-0.75c0.265625-0.3330078,0.5488281-0.8330078,0.8496094-1.5  C75.5136719,61.3330078,75.4472656,61.3666992,75.3808594,61.3999023z M70.5292969,30.699707  c-0.0332031,0-0.0664063,0.0170898-0.0996094,0.050293c-0.1660156,0.0664063-0.265625,0.1831055-0.2988281,0.3500977  l-0.1015625,0.7998047l0.0507813,0.4501953c0,0.4663086,0.0332031,0.9331055,0.0996094,1.3999023  c0.0996094,0.4331055,0.1835938,0.6665039,0.25,0.699707c0,0.1000977,0.1503906,0.1835938,0.4511719,0.25L70.9804688,34.75  c-0.0996094-0.2666016-0.2011719-0.5332031-0.3007813-0.800293c-0.2324219-0.8666992-0.3496094-1.5830078-0.3496094-2.1499023  C70.3300781,31.3999023,70.3964844,31.0332031,70.5292969,30.699707z M55.4804688,54.8999023l-0.1503906-0.5498047V53.949707  c-0.1660156,0.1333008-0.3828125,0.2670898-0.6503906,0.4003906c-0.2988281,0.1665039-0.6171875,0.3330078-0.9492188,0.5  C53.5625,55.25,53.4140625,55.75,53.2792969,56.3500977c-0.3320313,1.3666992-0.5,3.6499023-0.5,6.8496094l-0.0488281,2.6503906  c0,0.6665039-0.0332031,1.199707-0.0996094,1.5996094c-0.0683594,0.5336914-0.2675781,1.0336914-0.6015625,1.5  c0.2675781,0.1000977,0.6503906,0.3500977,1.1503906,0.75c1,0.7670898,1.8671875,1.6669922,2.5996094,2.7001953  c0.4335938,0.5332031,0.75,1.1499023,0.9511719,1.8500977c0.3671875,0.8999023,0.5664063,1.3666992,0.5996094,1.3999023  c0.3007813,0.5,0.6328125,0.8999023,1,1.2001953c0.4335938,0.4331055,1.1660156,1.0996094,2.1992188,2  c0.5,0.5332031,0.8007813,0.8999023,0.9003906,1.0996094c0.1679688,0.2333984,0.3671875,0.6503906,0.5996094,1.25  C62.4960938,82.5332031,62.6972656,84,62.6308594,85.6000977c0.1328125-0.0336914,0.2988281-0.0668945,0.5-0.1000977  c0.5996094-0.0668945,0.8984375-0.0668945,0.8984375,0c0.6347656,0.0332031,1.25-0.0332031,1.8515625-0.2001953  c-0.1347656-0.5664063-0.2011719-1.1499023-0.2011719-1.75l-0.1992188-7.449707l0.0488281,0.0498047  c-0.0996094-1.0668945-0.1992188-1.8500977-0.2988281-2.3500977c-0.1328125-0.8330078-0.4003906-1.3999023-0.8007813-1.699707  c-0.1660156-0.1333008-0.4335938-0.300293-0.7988281-0.5c-0.4003906-0.2001953-0.6503906-0.3334961-0.75-0.4003906  C62.7128906,71.1000977,62.5800781,71,62.4804688,70.8999023C62.4472656,71.0664063,62.4140625,71.25,62.3808594,71.449707  c-0.1347656,0.6333008-0.3339844,1.3334961-0.6015625,2.1000977l-0.1992188,0.3500977L61.5292969,73.5  c0.0332031-0.6333008,0.0507813-1.3500977,0.0507813-2.1499023v-2.25l-0.4003906-3.25  c-0.5996094-3.2333984-2.1328125-6.2167969-4.5996094-8.9501953l-0.3496094-0.5498047  C55.8964844,55.949707,55.6464844,55.4667969,55.4804688,54.8999023z M41.3808594,55  c-0.1347656-0.0668945-0.2675781-0.1166992-0.4003906-0.1499023c-0.1328125-0.0668945-0.25-0.1166992-0.3496094-0.1503906  c-0.234375,0.4003906-0.484375,0.75-0.75,1.050293c-0.4335938,0.5332031-0.984375,1.1166992-1.6503906,1.75  c-0.9335938,0.8330078-1.4511719,1.2832031-1.5507813,1.3500977c-1.0664063,1-1.75,1.9331055-2.0488281,2.7998047  c-0.2675781,0.6665039-0.5683594,1.7333984-0.9003906,3.2001953c-0.3007813,1-0.734375,1.9165039-1.3007813,2.75l-1.25,2  c-0.265625,0.5-0.4667969,1.0996094-0.5996094,1.7998047c-0.1660156,1.2333984-0.1992188,2.2001953-0.0996094,2.8999023  c0.1328125,1.1000977,0.6171875,1.800293,1.4492188,2.1000977l0.4511719,0.1499023  c0.1992188,0.0668945,0.4667969,0.1669922,0.7988281,0.300293c0.5996094,0.2329102,1.5996094,0.699707,3,1.3999023  c0.2675781,0.1665039,0.5332031,0.2666016,0.8007813,0.2998047l0.75,0.2001953l1.7988281,0.1499023  c0.8007813,0.0332031,1.25,0.2998047,1.3515625,0.7998047c0.0332031,0.2333984,0.015625,0.4335938-0.0507813,0.6000977  l-0.3496094,0.5L40.0292969,81.25l-0.8984375,0.6000977l-1.1503906,0.5l-0.75,0.5498047L36.5292969,83.75  c-0.0332031,0.0332031-0.0488281,0.0664063-0.0488281,0.1000977c0.1992188,0.0332031,0.4160156,0.1166992,0.6503906,0.25  l1.1484375,0.5c0.3671875,0.1665039,0.984375,0.25,1.8515625,0.25L40.5292969,84.75  c0.1347656-0.2001953,0.3007813-0.3999023,0.5-0.6000977c0.6679688-0.7333984,1.0332031-1.2167969,1.1015625-1.4501953  l0.3496094-1.0996094c0.1660156-0.6669922,0.3496094-1.1333008,0.5488281-1.4003906  c0.3671875-0.5664063,0.6015625-0.9331055,0.7011719-1.0996094c0.1328125-0.3334961,0.1171875-0.5668945-0.0507813-0.7001953  c-0.1992188-0.2001953-0.5664063-0.4833984-1.0996094-0.8500977c-0.4667969-0.3330078-0.8496094-0.7333984-1.1503906-1.199707  c-0.265625-0.4335938-0.5-1-0.6992188-1.7001953c-0.3671875-1.3999023-0.7011719-2.25-1-2.5498047L39.3808594,71.75  l-0.3007813-0.2001953c-0.0332031,0-0.0507813-0.0166016-0.0507813-0.0498047  c-1.1660156,0.2333984-1.9316406,0.4165039-2.2988281,0.5498047C36.1308594,72.25,35.6640625,72.5,35.3300781,72.7998047  l-0.5996094,0.5l-0.1503906,0.050293l-0.0507813-0.1503906c0-0.3330078,0.0507813-0.5996094,0.1503906-0.7998047  c0.234375-0.6000977,0.734375-1.1166992,1.5-1.5498047c0.3339844-0.1669922,1.484375-0.5170898,3.4511719-1.050293  c0.0664063,0,0.25-0.0498047,0.5488281-0.1499023c0.4003906-0.1333008,0.734375-0.2998047,1-0.5  c0.2011719-0.1333008,0.484375-0.3999023,0.8496094-0.7998047c0.0683594-0.1000977,0.1503906-0.1669922,0.25-0.2001953  c-0.1992188-0.3334961-0.3320313-0.6831055-0.3984375-1.0498047C41.7128906,66.4667969,41.5136719,64.75,41.2792969,61.949707  c-0.1660156-3.0996094-0.25-4.7666016-0.25-5c0.1347656-0.8330078,0.2167969-1.3833008,0.25-1.6499023  C41.3125,55.1665039,41.3476563,55.0664063,41.3808594,55z M41.6796875,55.1000977c0,0.0664063,0.0175781,0.1499023,0.0507813,0.25  c0.0332031,0.2666016,0.0820313,0.7998047,0.1503906,1.5996094c0.0664063,0.8666992,0.2988281,2.5,0.6992188,4.9003906  c0.4003906,2.8330078,0.6503906,4.449707,0.75,4.8496094C43.4960938,67.5,43.8476563,68,44.3808594,68.199707  c0.7988281,0.5,1.9492188,0.7167969,3.4492188,0.6503906c1.4667969-0.0668945,2.4492188-0.300293,2.9492188-0.7001953  C51.1132813,67.8833008,51.3125,67.0830078,51.3808594,65.75l0.0996094-2.6000977  c0.1328125-3.1000977,0.4824219-5.4501953,1.0488281-7.0498047c0.1015625-0.3334961,0.234375-0.6503906,0.4003906-0.9501953  c-1.765625,0.6000977-4.015625,0.8334961-6.75,0.7001953c-0.5332031,0-1.5820313-0.1503906-3.1503906-0.4501953  C42.5292969,55.2998047,42.0800781,55.199707,41.6796875,55.1000977z M59.7792969,36.1499023l-0.0488281,0.4501953  c-0.0996094,0.3330078-0.2011719,0.5664063-0.3007813,0.699707c-0.4003906,0.7666016-1.1503906,1.4169922-2.25,1.9501953  c-0.5996094,0.2666016-1.4003906,0.4833984-2.4003906,0.6499023c-0.4316406,0.0668945-1.4667969,0.0668945-3.0996094,0l-2-0.4501953  L48.6308594,39c-0.5-0.1669922-1.0839844-0.5-1.75-1c-0.4667969-0.3666992-0.6679688-0.6166992-0.6015625-0.75  c0.1015625-0.1333008,0.4335938-0.1166992,1,0.0498047c0.3339844,0.0668945,0.9335938,0.25,1.8007813,0.550293l1,0.25  l1.8007813,0.25c1.5,0.0664063,2.4160156,0.0830078,2.75,0.0498047C55.5976563,38.2666016,56.2792969,38.1333008,56.6796875,38  l0.8007813-0.25l1.0488281-0.6000977c0.0683594-0.1333008,0.1679688-0.2333984,0.3007813-0.2998047l0.6992188-0.800293  l0.2011719-0.1000977L59.7792969,36.1499023z M37.7792969,38.449707l1.4003906-0.0996094  C39.5800781,38.3164063,40.0136719,38.199707,40.4804688,38c0.1992188-0.0668945,0.5-0.25,0.9003906-0.550293  c0.3320313-0.2329102,0.6992188-0.5498047,1.0996094-0.949707c0.3671875-0.300293,0.5996094-0.4169922,0.6992188-0.3500977  l0.0507813,0.1499023c0.0332031,0.1333008,0,0.3500977-0.0996094,0.6499023c-0.1347656,0.5-0.4003906,0.9667969-0.8007813,1.4003906  c-0.4335938,0.4331055-0.8164063,0.75-1.1503906,0.949707c-0.5,0.3334961-1.1171875,0.5332031-1.8496094,0.6000977  c-0.5664063,0.0668945-1.1660156,0-1.8007813-0.2001953c-0.5664063-0.1333008-0.9492188-0.3999023-1.1484375-0.7998047  C36.1796875,38.5,36.1972656,38.2666016,36.4296875,38.199707c0.0996094-0.0332031,0.2832031,0.0170898,0.5507813,0.1503906  C37.2460938,38.4165039,37.5136719,38.449707,37.7792969,38.449707z M29.5292969,29.6000977  C29.5976563,30,29.6308594,30.3999023,29.6308594,30.7998047c-0.0683594,0.6000977-0.25,1.2666016-0.5507813,2  c-0.0996094,0.2666016-0.1992188,0.5332031-0.3007813,0.800293c0.3339844-0.1000977,0.5175781-0.1835938,0.5507813-0.25  C29.5625,33.2832031,29.7460938,32.5830078,29.8808594,31.25v-0.3999023c0.0664063-0.2670898,0.0664063-0.5336914,0-0.800293  c-0.0683594-0.199707-0.1503906-0.3330078-0.25-0.3999023C29.5976563,29.6166992,29.5625,29.6000977,29.5292969,29.6000977z   M44.1308594,29.5498047c-0.3007813-0.199707-0.5683594-0.5-0.8007813-0.8999023  c-0.0332031-0.0332031-0.0507813-0.0668945-0.0507813-0.1000977L43.2304688,28.5v0.1000977l-0.5507813,1.449707  c-0.1992188,0.6333008-0.5332031,1.1166992-1,1.4501953c-0.4003906,0.3330078-0.8828125,0.5830078-1.4492188,0.75  c-0.5996094,0.1665039-1.0175781,0.2832031-1.25,0.3500977c-0.3007813,0.0996094-0.5996094,0.25-0.9003906,0.449707  c-0.2675781,0.1333008-0.5175781,0.3168945-0.75,0.550293L36.7304688,34.25L36.3808594,35  c-0.1347656,0.3330078-0.2832031,0.8833008-0.4511719,1.6499023C35.7636719,37.1831055,35.4140625,37.6333008,34.8808594,38  c-0.9335938,0.5-1.5332031,0.8500977-1.8007813,1.0498047C32.8125,39.25,32.6132813,39.4833984,32.4804688,39.75l0.5,0.25  c0.1328125,0.1000977,0.3496094,0.2333984,0.6503906,0.3999023c0.5996094,0.3999023,1,0.7167969,1.1992188,0.9501953  c0.4667969,0.5,0.8671875,1.1499023,1.1992188,1.949707c0.3671875,0.8999023,0.5839844,1.7832031,0.6503906,2.6499023  C36.7128906,46.3164063,36.6972656,46.6665039,36.6308594,47l-0.1015625,0.199707l-0.1484375-0.1499023l-0.4511719-0.949707  c-0.3671875-0.9003906-0.7167969-1.6333008-1.0488281-2.2001953c-0.4003906-0.6665039-0.7832031-1.1831055-1.1503906-1.5498047  c-0.2011719-0.2001953-0.5-0.4169922-0.9003906-0.6503906c-0.0332031-0.0332031-0.1992188-0.1333008-0.5-0.2998047  l-0.6992188-0.3500977c-0.2675781-0.1000977-0.5507813-0.2666016-0.8515625-0.5l-0.7988281-0.6499023l-0.7011719-0.8500977  l-0.8496094-1.6499023c-0.0332031-0.0668945-0.0664063-0.1333008-0.0996094-0.2001953  c-0.1660156,0.2670898-0.3164063,0.4335938-0.4492188,0.5c-0.1679688,0.1333008-0.3007813,0.2001953-0.4003906,0.2001953h-0.1503906  l-0.1503906-0.5498047c0-0.2670898-0.015625-0.5-0.0488281-0.7001953c-0.0332031-0.3999023-0.1171875-0.7998047-0.25-1.2001953  L26.7792969,35.25l-0.1484375-0.3999023l-0.25-0.4501953v-0.0498047l-0.4511719,0.3496094l-0.4492188,0.1503906  c-0.1328125-0.0668945-0.2167969-0.2167969-0.25-0.4501953l0.1503906-0.8500977  c0.0996094-0.2998047,0.2988281-0.699707,0.5996094-1.199707l0.4492188-0.550293  c0.3671875-0.3666992,0.6679688-0.4833984,0.9003906-0.3500977c0.3007813,0.1000977,0.3828125,0.4169922,0.25,0.9501953  c-0.0664063,0.2998047-0.1660156,0.5498047-0.3007813,0.75c-0.1328125,0.2001953-0.25,0.3833008-0.3496094,0.5498047  c0.1328125-0.0332031,0.4511719,0.0170898,0.9511719,0.1503906c0.0664063-0.0668945,0.1484375-0.1166992,0.25-0.1503906  l0.25-1.1499023C28.5136719,31.8500977,28.5625,31.25,28.5292969,30.75c0-0.4335938-0.0820313-0.8168945-0.25-1.1499023  l-0.5488281-1.4003906l-0.9003906-1.5l-0.1503906-0.1499023l-2.9003906,1.6000977  c-0.3320313,0.1665039-0.6816406,0.3999023-1.0488281,0.7001953l-0.4511719,0.3496094  c-0.0996094,0.1000977-0.1484375,0.2167969-0.1484375,0.3500977c0,0.0332031-0.0175781,0.1333008-0.0507813,0.300293  c0.0332031,0.2329102,0.1171875,0.5332031,0.25,0.8999023l1.1992188,3.3500977c0.4667969,1.4331055,0.7167969,2.5996094,0.75,3.5  c0.0332031,0.2666016,0.0332031,0.5332031,0,0.7998047v0.0498047c0.1015625,0.3334961,0.2167969,0.8833008,0.3515625,1.6503906  c0.1992188,0.6665039,0.4160156,1.2163086,0.6484375,1.6499023L26.8808594,45  c0.2988281,0.6000977,0.5820313,1.1166992,0.8496094,1.5498047L28.5292969,47.75  c0.4667969,0.6333008,0.734375,0.9833984,0.8007813,1.0498047c0.4335938,0.5332031,1.0507813,0.9833984,1.8496094,1.3500977  c0.4335938,0.2666016,1.0664063,0.5332031,1.9003906,0.7998047c0.4003906,0.1333008,0.6992188,0.2001953,0.9003906,0.2001953  l0.4003906,0.0498047h0.2988281c0.5332031-0.0996094,1.1503906-0.6499023,1.8496094-1.6499023l1-1.75  c0.1015625-0.2333984,0.3007813-0.5664063,0.6015625-1c-0.1679688-0.5-0.3339844-1.1000977-0.5-1.7998047l-0.3007813-2.5  c-0.0996094-1.6333008-0.0996094-2.4667969,0-2.5c0.1660156,0,0.4492188,0.7998047,0.8496094,2.3999023l0.5507813,2.3999023  c0.3320313,1.1669922,0.6328125,2.0332031,0.9003906,2.6000977c0.6992188,1.4667969,1.0996094,2.3833008,1.1992188,2.75  l0.3496094,1.4501953c0,0.7998047-0.015625,1.2666016-0.0488281,1.3999023c-0.0683594,0.3666992-0.1503906,0.7167969-0.25,1.0498047  c0.5-0.0332031,1.2832031-0.0166016,2.3496094,0.050293l3.0488281,0.199707  c1.9667969,0.1000977,3.7675781,0.050293,5.4003906-0.1499023c0.5-0.0668945,1.1835938-0.1831055,2.0507813-0.3500977  l-0.0253906,0.0249023L53.9804688,53.75c0.1132813-0.0126953,0.2304688-0.0292969,0.3496094-0.050293l0.0996094-0.0498047  c0.4003906-0.1000977,0.7167969-0.1665039,0.9511719-0.2001953c0.0664063-0.199707,0.1484375-0.4829102,0.25-0.8496094  c0.4316406-0.8666992,0.75-1.5170898,0.9492188-1.9501953c0.6992188-1.4331055,1.3671875-2.6166992,2-3.5498047  c0.5332031-0.7333984,0.9160156-1.1669922,1.1503906-1.300293l-0.3496094-0.6499023  c-0.3339844-0.8666992-0.5332031-1.75-0.6015625-2.6499023c-0.0996094-0.9667969-0.0996094-1.8168945,0-2.550293L58.8808594,39.5  l0.1484375,0.449707l0.5,2.4501953c0.3671875,1.2001953,0.6503906,2,0.8515625,2.3999023l0.3984375,0.6000977l1.9003906,2.25  c0.9003906,1.1000977,1.4179688,1.75,1.5507813,1.9501953l0.5996094,1.0498047  c0.0664063,0.1665039,0.0996094,0.3666992,0.0996094,0.6000977c0,0.5664063,0.0332031,0.8833008,0.0996094,0.949707  c0.4667969,0.6669922,1.1503906,0.9003906,2.0507813,0.7001953c0.8339844-0.2333984,1.8339844-0.7333984,3-1.5L71.8300781,50  c0.9335938-0.6000977,1.6503906-1.7832031,2.1503906-3.550293c0.3320313-1.0664063,0.6328125-2.5166016,0.9003906-4.3496094  c0.0996094-0.9003906,0.1992188-1.5,0.2988281-1.800293V40.25c-0.0664063-0.3334961-0.0664063-0.7333984,0-1.2001953  c0.0996094-0.8666992,0.4335938-2.0166016,1-3.449707l1.4003906-3.25c0.2324219-0.4667969,0.3496094-0.8666992,0.3496094-1.2001953  l-0.1503906-0.2998047l-0.3984375-0.4003906c-0.2675781-0.2666016-0.6015625-0.5166016-1-0.75l-2.8515625-1.7998047h-0.0488281  l-0.1503906,0.1499023l-0.9492188,1.3999023l-0.7011719,1.4003906c-0.1660156,0.3666992-0.25,0.7163086-0.25,1.0498047  C71.3300781,32.5,71.3476563,33.1333008,71.4804688,33.7998047l0.1503906,1.1000977  c0.265625,0.1333008,0.3984375,0.25,0.3984375,0.3500977c0.0332031-0.0332031,0.0839844-0.050293,0.1503906-0.050293  C72.3476563,35.0332031,72.546875,34.9667969,72.7792969,35c-0.1328125-0.2001953-0.25-0.3833008-0.3496094-0.550293  c-0.1328125-0.2329102-0.2167969-0.5-0.25-0.7998047c-0.0664063-0.5332031,0.0507813-0.8500977,0.3496094-0.9501953  c0.234375-0.0664063,0.5175781,0.0668945,0.8515625,0.4003906l0.4492188,0.5996094l0.5507813,1.25  c0.0996094,0.3666992,0.1152344,0.6503906,0.0488281,0.8500977c-0.0332031,0.2333984-0.1171875,0.3833008-0.25,0.4501953  c-0.1328125,0-0.2988281-0.0668945-0.5-0.2001953l-0.4003906-0.3999023c0,0.0332031-0.015625,0.0668945-0.0488281,0.1000977  l-0.5507813,1c-0.1660156,0.3330078-0.3164063,0.9331055-0.4492188,1.7998047  C72.1972656,38.8164063,72.1308594,39,72.0292969,39.1000977c-0.0996094,0.0664063-0.25,0-0.4492188-0.2001953  c-0.2324219-0.1665039-0.4003906-0.4667969-0.5-0.8999023c-0.1328125-0.7001953-0.0507813-1.3666992,0.25-2l0.1992188-0.2001953  L71.4804688,35.75c-0.0332031-0.0332031-0.0507813-0.0668945-0.0507813-0.1000977L70.7792969,35.75h-0.5l-0.3496094-0.050293  l-0.3496094-0.25c0,0.300293,0,0.4833984,0,0.550293l0.1503906,0.8500977  c0.1328125,0.4663086,0.1660156,0.8666992,0.0996094,1.199707c-0.1328125,0.7333984-0.5664063,1.4169922-1.3007813,2.050293  l-0.7988281,0.699707c-0.734375,0.6000977-1.1328125,0.9169922-1.2011719,0.9501953l-0.8496094,0.949707  c-0.4003906,0.7001953-0.6660156,1.3168945-0.7988281,1.8500977C64.8125,44.75,64.6640625,45.6333008,64.4296875,47.199707  C64.3300781,48,64.2128906,48.4331055,64.0800781,48.5c-0.1328125-0.0668945-0.2675781-0.5166016-0.4003906-1.3500977  c-0.1660156-1-0.1835938-1.9667969-0.0488281-2.8999023c0.0664063-0.7666016,0.3652344-1.5668945,0.8984375-2.3999023  c0.4335938-0.6333008,0.75-1.0336914,0.9511719-1.2001953l1.8496094-1.4501953  c-0.1992188-0.3330078-0.3007813-0.8330078-0.3007813-1.5L67.0800781,36l-0.1503906-1  c-0.2324219-0.7666016-0.3496094-1.1669922-0.3496094-1.2001953C66.3808594,33.199707,66.1640625,32.75,65.9296875,32.449707  L65.5292969,31.75l-0.5-0.6499023c-0.4316406-0.5668945-0.8828125-1.0170898-1.3496094-1.3500977  c-0.5996094-0.3999023-1.2167969-0.6499023-1.8496094-0.75l-1.3496094-0.1499023  c-1.2675781-0.1333008-2.3164063-0.5170898-3.1503906-1.1503906c-0.7324219-0.5664063-1.4003906-1.3833008-2-2.449707  c-0.2675781-0.5-0.4160156-0.8500977-0.4492188-1.050293c-0.6015625,0-1.2167969-0.0664063-1.8515625-0.199707  c-0.1660156-0.0332031-0.3828125-0.1333008-0.6484375-0.300293C52.3125,24.2333984,52.046875,24.75,51.5800781,25.25  l-2.0507813,1.449707c-0.2324219,0.1669922-0.515625,0.4667969-0.8496094,0.9003906l-0.8496094,1  c-0.5996094,0.5996094-1.25,1-1.9492188,1.199707C45.2792969,30,44.6972656,29.9165039,44.1308594,29.5498047z   M41.9804688,20.3999023l-0.3496094,0.9501953c-0.2675781,0.5996094-0.484375,1-0.6503906,1.199707l-0.4511719,0.3999023  l-0.8984375,0.4501953h0.0488281l0.25,0.1499023c0.4667969,0.1333008,0.9335938,0.1669922,1.4003906,0.1000977h0.6503906  c0.1328125-0.1333008,0.2832031-0.2666016,0.4492188-0.3999023v-0.1499023l-0.0488281-0.25l-0.2011719-0.5l-0.1503906-0.7001953  L41.9804688,20.3999023z M48.8300781,19.1000977C49.1308594,19.2333984,49.1796875,19.5332031,48.9804688,20  c-0.0664063,0.2666016-0.2011719,0.5-0.4003906,0.699707c-0.6328125,0.5668945-1.25,0.800293-1.8496094,0.7001953  l-0.4003906-0.2001953l0.0996094-0.5c0.0996094-0.1665039,0.4667969-0.5498047,1.0996094-1.1499023  c-0.0332031,0,0.1171875-0.1000977,0.4511719-0.2998047C48.2792969,19.0166016,48.5625,18.9667969,48.8300781,19.1000977z   M42.9296875,15.8500977c-0.1660156-0.0336914-0.8671875-0.0170898-2.0996094,0.0498047  c-0.4667969,0.0668945-0.9492188,0-1.4492188-0.2001953c-0.4335938-0.1665039-0.8007813-0.3666992-1.1015625-0.5996094  c-0.6328125-0.5336914-0.9667969-0.8168945-1-0.8500977c-0.3984375-0.3999023-0.7988281-1-1.1992188-1.800293l-0.3496094-0.8999023  l-0.5996094-2.1499023l-0.0507813-0.1000977c0,0.1000977,0.0175781,0.2001953,0.0507813,0.300293  c0.1328125,0.5664063,0.25,1.5498047,0.3496094,2.949707c0.1992188,1.3666992,0.515625,2.5668945,0.9492188,3.6000977  c0.0332031,0.0332031,0.2167969,0.3833008,0.5507813,1.0498047c0.4667969,0.7001953,0.9824219,1.25,1.5488281,1.6503906  c0.5,0.3999023,1.2167969,0.7163086,2.1503906,0.949707c0.2011719,0.0332031,0.3828125,0.0834961,0.5507813,0.1499023  c0.0664063-0.0664063,0.1328125-0.1166992,0.1992188-0.1499023c0.234375-0.1333008,0.4335938-0.1665039,0.5996094-0.1000977  c0.1015625-1.6333008,0.5507813-2.7998047,1.3515625-3.5c0.0332031-0.0332031,0.0820313-0.0664063,0.1484375-0.0996094  C43.3300781,15.9667969,43.1308594,15.8833008,42.9296875,15.8500977z M53.6796875,15.6000977  c-1.0996094,0-2,0.0996094-2.6992188,0.2998047C50.546875,16,50.2304688,16.199707,50.0292969,16.5  c-0.1992188,0.2666016-0.2988281,0.5830078-0.2988281,0.949707c0,0.2670898,0.015625,0.5834961,0.0488281,0.9501953  c0,0.2333984-0.0332031,0.3666992-0.0996094,0.3999023c-0.2324219,0.0668945-0.4824219-0.3500977-0.75-1.25  c-0.1328125-0.5-0.1171875-0.9667969,0.0507813-1.3999023C48.8125,16.1166992,48.6132813,16.0664063,48.3808594,16  l-0.9003906-0.2001953c-0.5332031-0.0664063-1.0664063-0.0498047-1.5996094,0.050293  c-0.4335938,0.1333008-0.734375,0.199707-0.9003906,0.199707L44.6796875,16c-0.265625,0.2333984-0.5,0.4667969-0.6992188,0.699707  c-0.6328125,0.8666992-0.8671875,2.1000977-0.7011719,3.7001953l0.1015625,1.0498047l0.3496094,0.9501953  c0.0996094,0.3999023,0.1503906,0.6333008,0.1503906,0.7001953l0.0488281,0.25l-0.25,0.699707  C43.2460938,24.449707,43.0136719,24.6831055,42.9804688,24.75l-0.0507813,0.0498047l0.0507813,0.050293l0.1503906,0.25  c0.3320313,0.3330078,0.5,0.5498047,0.5,0.6499023c0.1660156,0.3330078,0.2167969,0.6831055,0.1484375,1.0498047  l-0.0488281,0.300293c0.0664063,0.0332031,0.1328125,0.0664063,0.1992188,0.0996094  c0.4003906,0.1000977,0.734375,0.050293,1-0.1499023l0.3007813-0.25l0.2988281-0.699707  c0.0683594-0.3666992,0.0507813-0.6669922-0.0488281-0.9003906c-0.0332031-0.3330078-0.0332031-0.5332031,0-0.5996094  c0.0996094-0.2001953,0.3164063-0.1669922,0.6503906,0.0996094c0.4316406,0.3666992,0.6484375,0.8500977,0.6484375,1.4501953  c0.0332031,0.5332031-0.0996094,1.0498047-0.3984375,1.5498047c-0.234375,0.4003906-0.4335938,0.6000977-0.6015625,0.6000977  c-0.1660156,0.1669922-0.3496094,0.2832031-0.5488281,0.3500977c0.0996094,0,0.1992188-0.0332031,0.2988281-0.1000977  c0.3671875-0.1665039,0.7832031-0.5,1.25-1l0.7011719-0.8999023c0.5-0.6000977,0.8320313-0.9667969,1-1.1000977  c0.0332031,0,0.2988281-0.1831055,0.7988281-0.5498047c0.3007813-0.2001953,0.5507813-0.3334961,0.75-0.3999023L50.7304688,24.25  c0.4003906-0.2666016,0.6835938-0.5834961,0.8496094-0.9501953c0.0332031-0.1000977,0.0839844-0.1831055,0.1503906-0.25  l-0.2011719-0.199707l-0.25-0.4501953c-0.1660156-0.3334961-0.2832031-0.8168945-0.3496094-1.4501953  c-0.0332031-0.2329102-0.0488281-0.6665039-0.0488281-1.2998047l0.0996094-0.25l0.1503906,0.1499023  c0.0996094,0.1333008,0.2832031,0.550293,0.5488281,1.25c0.234375,0.5668945,0.4003906,0.9335938,0.5,1.1000977l0.2011719,0.2998047  l0.2988281,0.2001953c0.3671875,0.2001953,0.5996094,0.3168945,0.7011719,0.3500977  c0.8320313,0.1333008,1.5996094,0.0664063,2.2988281-0.2001953c0.1679688-0.0332031,0.3164063-0.1166992,0.4511719-0.25  l0.0996094-0.25c0.0332031-0.0332031,0.0332031-0.0664063,0-0.1000977V22h-1.0996094l-0.3515625-0.050293l-0.5996094-0.3496094  c-0.2988281-0.2333984-0.5996094-0.5834961-0.9003906-1.050293c-0.3320313-0.5664063-0.5332031-0.8833008-0.5996094-0.949707  c-0.4003906-0.5-0.9335938-0.75-1.5996094-0.75c-0.3339844,0.0664063-0.5664063,0.0996094-0.6992188,0.0996094  c-0.234375,0.0336914-0.3671875,0.0170898-0.4003906-0.0498047c-0.0664063-0.0668945-0.0175781-0.1831055,0.1503906-0.3500977  c0.1660156-0.199707,0.4160156-0.3666992,0.75-0.5c0.5-0.1333008,0.9160156-0.1665039,1.25-0.1000977  c0.6328125,0.1333008,1.1152344,0.3666992,1.4492188,0.7001953C53.8476563,18.8833008,54.1464844,19.25,54.4804688,19.75  L54.6796875,20c0.2011719-0.1333008,0.4667969-0.2666016,0.8007813-0.3999023c0.5-0.2001953,1.3828125-0.550293,2.6503906-1.050293  l1.25-0.699707c0.5996094-0.4003906,0.9160156-0.6166992,0.9492188-0.6503906l0.9003906-0.8999023l0.5996094-0.8999023  L62.2304688,14.5c0.1660156-0.300293,0.265625-0.6166992,0.2988281-0.9501953  c0.1347656-0.3999023,0.2011719-0.6831055,0.2011719-0.8500977c0.1328125-0.5664063,0.1503906-1.5664063,0.0488281-3  C62.6464844,8.9331055,62.4296875,8.25,62.1308594,7.6499023C62.0625,7.5498047,61.9960938,7.449707,61.9296875,7.3500977  c0.4335938,1.5332031,0.5,2.9331055,0.2011719,4.199707c-0.4003906,1.3666992-1.1679688,2.3833008-2.3007813,3.050293  c-0.4667969,0.2998047-1.1835938,0.5830078-2.1503906,0.8496094c-0.3671875,0.1000977-0.7832031,0.1503906-1.25,0.1503906  c-0.5664063,0.0332031-1,0.0498047-1.2988281,0.0498047L53.6796875,15.6000977z M32.8808594,5.6499023  c0.2988281,0.0668945,0.5664063,0.1499023,0.7988281,0.25c0.8671875,0.3666992,1.5664063,0.9667969,2.0996094,1.7998047  l-0.0488281-0.0498047c0.3671875,0.5,0.5996094,0.9165039,0.6992188,1.25l0.5,1.3999023  c0.4003906,1.2666016,0.9003906,2.2333984,1.5,2.8999023c0.0332031,0.0336914,0.2675781,0.2670898,0.7011719,0.7001953  l0.75,0.4501953c0.3984375,0.1665039,0.7324219,0.25,1,0.25c1.2324219,0.0996094,2.0488281,0.2666016,2.4492188,0.5  c0.2675781,0.1665039,0.4492188,0.3999023,0.5507813,0.699707c0.1992188-0.1665039,0.4316406-0.2832031,0.6992188-0.3500977  v-0.0498047c0.1660156-0.2666016,0.4667969-0.5332031,0.9003906-0.7998047c0.7324219-0.4003906,1.5-0.5,2.2988281-0.300293  l0.4003906,0.1499023c0.3339844,0.1000977,0.5996094,0.25,0.8007813,0.4501953c0.2324219,0.1333008,0.4003906,0.2998047,0.5,0.5  c0.265625-0.2998047,0.6171875-0.5498047,1.0488281-0.75c0.7675781-0.2998047,1.8007813-0.4833984,3.1015625-0.5498047l1.5-0.050293  c1.5664063,0.1333008,2.8652344-0.1000977,3.8984375-0.699707c0.9667969-0.5668945,1.5839844-1.300293,1.8515625-2.2001953  c0.265625-0.8334961,0.3496094-2.1000977,0.25-3.7998047L60.9804688,6.199707L60.1308594,5.25L60.0292969,5l0.25,0.0498047  C60.8125,5.25,61.296875,5.5166016,61.7304688,5.8500977c0.3320313,0.199707,0.765625,0.5996094,1.2988281,1.199707  c0.4667969,0.7333984,0.8183594,1.5332031,1.0507813,2.3999023c0.2324219,1.4667969,0.2832031,2.6333008,0.1503906,3.5  c0,0.2001953-0.0664063,0.5336914-0.2011719,1l-0.8496094,2.2001953l-0.75,1.1000977  c0,0.0332031-0.3828125,0.3833008-1.1503906,1.0498047c-0.1660156,0.1669922-0.5820313,0.4335938-1.25,0.800293L58.5800781,19.75  c-1.0332031,0.2998047-1.9824219,0.5-2.8496094,0.6000977c-0.2011719,0.0332031-0.3828125,0.0664063-0.5507813,0.0996094h0.0507813  L55.2792969,20.5h0.1015625l0.2988281-0.050293h0.5507813c0.3671875,0,0.6660156,0.0668945,0.9003906,0.2001953l0.3496094,0.2998047  l0.1992188,0.4003906l0.0996094,0.449707v0.3999023c-0.0332031,0.5-0.25,0.9169922-0.6484375,1.25  C56.8300781,23.7167969,56.5136719,23.8999023,56.1796875,24c-0.265625,0.1000977-0.5488281,0.1499023-0.8496094,0.1499023  c0.1660156,0.1333008,0.4003906,0.3334961,0.6992188,0.6000977c0.734375,0.8666992,1.4179688,1.4833984,2.0507813,1.8500977  C58.6132813,27,59.4296875,27.2333984,60.5292969,27.2998047l1.5507813,0.1499023  c0.9667969,0.1669922,1.8164063,0.5336914,2.5507813,1.1000977c0.3652344,0.300293,0.8828125,0.8500977,1.5488281,1.6499023  c0.1328125,0.2001953,0.3339844,0.4833984,0.5996094,0.8500977l0.4511719,0.75  c0.1992188,0.3666992,0.4003906,0.8999023,0.5996094,1.6000977c0.0664063,0.2001953,0.1503906,0.6831055,0.25,1.4501953  l0.0996094,0.5996094l-0.0488281,0.6503906l-0.3007813,1.699707c-0.0996094,0.3666992-0.1503906,0.7333984-0.1503906,1.1000977  c0.5-0.5,0.8007813-0.8500977,0.9003906-1.0498047c0.0332031-0.1333008,0.0664063-0.4335938,0.0996094-0.9003906  c0-0.4663086,0.0332031-0.7998047,0.0996094-1c0.0683594-0.2998047,0.1835938-0.5332031,0.3515625-0.699707  c0.0332031-0.0668945,0.0820313-0.1000977,0.1484375-0.1000977c-0.0996094-0.1000977-0.1816406-0.2167969-0.25-0.3500977  l-0.2988281-0.699707c-0.1679688-0.8334961-0.25-1.4169922-0.25-1.75c0-0.1669922,0.015625-0.3666992,0.0488281-0.6000977  c0.1015625-0.4335938,0.2675781-0.8334961,0.5-1.2001953c0.1679688-0.2666016,0.3847656-0.4667969,0.6503906-0.6000977  c0.234375-0.0996094,0.484375-0.1166992,0.75-0.0498047c0.1328125,0.0668945,0.234375,0.1333008,0.3007813,0.2001953  c0.1660156-0.5336914,0.3496094-0.9501953,0.5488281-1.25c0.2675781-0.6000977,0.6015625-1.1835938,1-1.75  c0.3339844-0.3334961,0.5332031-0.5170898,0.6015625-0.550293c0.3320313-0.1665039,0.6484375-0.199707,0.9492188-0.1000977  c0.0664063,0.0336914,0.3164063,0.1503906,0.75,0.3500977l3.75,2.4501953l0.6503906,0.6499023  c0.2324219,0.3334961,0.3671875,0.6665039,0.4003906,1C79.4804688,31,79.4960938,31.25,79.4296875,31.6499023  C79.3300781,32.0830078,79.1464844,32.5332031,78.8808594,33l-1.5507813,3.1499023  c-0.6660156,1.3334961-1.1171875,2.3666992-1.3496094,3.1000977c-0.1679688,0.699707-0.3007813,1.1499023-0.4003906,1.3500977  c0.0332031,0.3330078,0.0664063,0.8496094,0.0996094,1.5498047c0.0664063,1.6333008-0.0820313,3.1831055-0.4492188,4.6499023  c-0.5,2.0668945-1.3164063,3.5332031-2.4511719,4.3999023l-1.7988281,1.4003906  c-1.3007813,0.9663086-2.484375,1.5664063-3.5507813,1.7998047c-0.7988281,0.1665039-1.5,0.1333008-2.0996094-0.1000977  C65.0625,54.1665039,64.7792969,53.9833984,64.4804688,53.75c-0.1679688-0.1000977-0.4003906-0.3334961-0.7011719-0.7001953  c-0.1992188-0.2666016-0.2988281-0.6499023-0.2988281-1.1499023v-0.75l-0.4003906-0.75l-3.0507813-4l-0.1484375-0.2998047  C59.7792969,46.3999023,59.5800781,46.8666992,59.2792969,47.5l-2.2988281,5.6000977l-0.1503906,0.75  c-0.0332031,0.199707,0,0.3999023,0.0996094,0.5996094c0.2011719,0.5336914,0.5,1.0170898,0.9003906,1.4501953  c1.5,1.7666016,2.6171875,3.5,3.3496094,5.2001953c0.7011719,1.5664063,1.1328125,3.0830078,1.3007813,4.5498047  c0.1992188,0.0332031,0.4667969,0.0668945,0.7988281,0.1000977c0.8339844,0.2666016,1.484375,0.2666016,1.9511719,0  c0.5-0.1669922,1.015625-0.5834961,1.5488281-1.25l0.5507813-1c0.2675781-0.3999023,0.6503906-0.9833984,1.1503906-1.75  c0.4667969-0.5668945,1.015625-0.9833984,1.6503906-1.25c0.5664063-0.300293,1.1484375-0.4169922,1.75-0.3500977  c0.5332031,0,1,0.0498047,1.3984375,0.1499023c0.8339844,0.1669922,1.4179688,0.2001953,1.75,0.1000977  c0.3339844-0.1000977,0.6171875-0.2998047,0.8515625-0.6000977l0.25-0.3500977c0-0.1665039,0-0.3330078,0-0.5l-0.0507813-0.8999023  l0.0507813-0.199707l0.1992188,0.0996094c0.3007813,0.300293,0.5,0.5834961,0.5996094,0.8500977  c0.234375,0.9335938,0.2167969,1.8666992-0.0488281,2.800293c-0.2011719,0.7329102-0.5175781,1.4165039-0.9511719,2.0498047  c-0.265625,0.4331055-0.5996094,0.7998047-1,1.1000977l-0.75,0.449707c-0.0332031,0.0336914-0.3164063,0.1333008-0.8496094,0.300293  l-0.3007813,0.1000977l-0.6992188,0.0498047c-0.6992188,0-1.3339844-0.0668945-1.9003906-0.2001953l-1.75-0.3999023  c-0.1660156-0.0332031-0.2988281-0.0830078-0.4003906-0.1499023l-0.2988281,0.4501953  C67.3476563,66.1499023,66.5625,66.699707,65.6308594,67l-0.4003906,0.1000977h-0.3496094  c-0.234375,0.0332031-0.484375,0-0.75-0.1000977c-0.2675781-0.0668945-0.6503906-0.2167969-1.1503906-0.4501953  C62.8125,66.449707,62.6796875,66.3500977,62.5800781,66.25c0.0996094,1.1000977,0.1171875,2.0498047,0.0507813,2.8500977  c0,0.4331055-0.0332031,0.9331055-0.1015625,1.5c0.1347656,0,0.3339844,0.0166016,0.6015625,0.0498047  c1,0.2666016,1.6328125,0.4667969,1.8984375,0.6000977l0.5,0.3999023L65.9804688,72.25  c0.0664063,0.0664063,0.1660156,0.2666016,0.2988281,0.6000977l0.25,0.6499023  c0.0683594,0.2998047,0.2011719,1.1000977,0.4003906,2.3999023l0.0507813,0.0498047l0.2988281,5.2001953l-0.0996094,2.3999023  c0,0.7333984,0.0507813,1.3666992,0.1503906,1.8999023c0.1328125,0.4335938,0.3339844,0.9169922,0.5996094,1.4501953  c0.6328125,1.2001953,1.0507813,2.0498047,1.25,2.5498047c0.1679688,0.3666992,0.2832031,0.7167969,0.3496094,1.050293  l0.2011719,1.3500977L69.5800781,92.75l-0.4003906,0.75l-0.0996094,0.1000977l-0.6992188,0.449707  c-0.1347656,0.1000977-0.25,0.1669922-0.3515625,0.2001953c-0.1992188,0.1000977-0.4316406,0.1665039-0.6992188,0.199707  c-0.4335938,0.0668945-0.8828125-0.2329102-1.3496094-0.8999023l-0.7011719-1.449707l-0.0996094-0.1503906  c0,0.0336914-0.015625,0.0834961-0.0488281,0.1503906c-0.0332031,0.2329102-0.0507813,0.6665039-0.0507813,1.2998047  c-0.0996094,0.4331055-0.1992188,0.75-0.3007813,0.9501953C64.5800781,94.7167969,64.2636719,94.9331055,63.8300781,95h-0.8007813  l-0.6484375-0.1499023c-0.5332031-0.2670898-1.0507813-0.6503906-1.5507813-1.1503906  c-0.3339844-0.2329102-0.5996094-0.5332031-0.8007813-0.8999023c-0.0996094-0.1333008-0.1816406-0.2666016-0.25-0.3999023  l-0.1484375-0.2998047c-0.0683594-0.1333008-0.1171875-0.25-0.1503906-0.3500977v-0.300293l0.1992188-1.3999023  c0.1328125-0.5,0.4179688-1.1499023,0.8496094-1.949707c0.5-1.0668945,0.75-1.9169922,0.75-2.550293  c0-1.3999023-0.2167969-2.6831055-0.6484375-3.8500977l-0.5-0.949707c-0.1015625-0.2001953-0.3515625-0.5-0.75-0.8999023  C58.5136719,79.1166992,57.8125,78.5,57.2792969,78c-0.4316406-0.3666992-0.8496094-0.8999023-1.25-1.6000977  c-0.0996094-0.1333008-0.3320313-0.7167969-0.6992188-1.75C55.2636719,74.1831055,55.046875,73.6333008,54.6796875,73  c-0.4335938-0.7333984-1.1171875-1.6499023-2.0488281-2.75c-0.4003906-0.5-0.6503906-0.8500977-0.75-1.050293  c-0.0683594,0.0336914-0.1171875,0.0668945-0.1503906,0.1000977c-0.5332031,0.3999023-1.1679688,0.6835938-1.9003906,0.8500977  c-0.7675781,0.1333008-1.4160156,0.2167969-1.9492188,0.25c-1.8339844,0-3.2675781-0.2832031-4.3007813-0.8500977  c-0.2324219-0.1333008-0.4824219-0.3330078-0.75-0.6000977c-0.0332031-0.0332031-0.0507813-0.0664063-0.0507813-0.0996094  c-0.1328125,0.4331055-0.3652344,0.8496094-0.6992188,1.25c-0.3339844,0.3666992-0.7675781,0.6831055-1.3007813,0.949707  l-0.6992188,0.25c-0.0332031,0-0.0507813,0.0166016-0.0507813,0.050293l0.25,0.0996094L40.8808594,72l0.4492188,0.699707  c0.1660156,0.3334961,0.3671875,0.8500977,0.5996094,1.550293c0.234375,0.6000977,0.4511719,1.0332031,0.6503906,1.2998047  c0.0996094,0.1000977,0.4003906,0.3666992,0.9003906,0.800293l1.3496094,1  c0.3339844,0.3999023,0.5175781,0.7998047,0.5507813,1.199707c0,0.3334961-0.0683594,0.6835938-0.2011719,1.050293  l-1.0996094,1.8496094L43.4804688,83.25c-0.2011719,0.5-0.7167969,1.1166992-1.5507813,1.8500977  c-0.4003906,0.3666992-0.6835938,0.7329102-0.8496094,1.0996094V86.25c-0.1328125,0.3330078-0.1992188,0.75-0.1992188,1.25  l0.0488281,1.25c0,0.6333008-0.0996094,1.1499023-0.2988281,1.5498047c-0.1347656,0.2666016-0.2832031,0.4335938-0.4511719,0.5  l-0.0996094,0.050293V90.75l0.0507813-0.1000977l-0.1503906,0.1499023c-0.7011719,0.4667969-1.0664063,0.7167969-1.0996094,0.75  l-1.3007813,0.5c-1.1328125,0.300293-1.8007813,0.4667969-2,0.5c-0.8007813,0.1000977-1.25,0.1499023-1.3496094,0.1499023  c-0.3339844,0-0.5996094-0.0166016-0.8007813-0.0498047c-0.4667969-0.0668945-0.8320313-0.2666016-1.0996094-0.6000977  c-0.3007813-0.3999023-0.3671875-0.8666992-0.1992188-1.3999023c0.03125-0.0625,0.0644531-0.1123047,0.0996094-0.1499023  c-0.1347656,0.1347656-0.2519531,0.2514648-0.3496094,0.3500977c-0.2675781,0.3330078-0.6015625,0.5498047-1,0.6499023  c-0.2675781,0.1000977-0.5839844,0.1166992-0.9511719,0.0498047c-0.4003906-0.1333008-0.6171875-0.2666016-0.6503906-0.3999023  c0-0.0332031,0-0.0668945,0-0.1000977h0.0507813v-0.25L29.7792969,89c0.1015625-0.5668945,0.3339844-1.2001953,0.7011719-1.8999023  c0.4003906-0.5336914,0.6992188-0.8833008,0.9003906-1.050293c0.1328125-0.1665039,0.5488281-0.5,1.25-1l1.7988281-1.1499023  l0.3007813-0.2998047l0.5996094-0.75c0.1660156-0.2001953,0.4160156-0.5170898,0.75-0.9501953  C36.3808594,81.5332031,36.7792969,81.2333984,37.2792969,81l1.2011719-0.550293l0.25-0.1499023L38.3808594,80.25  c-0.0332031,0-0.3515625-0.050293-0.9511719-0.1499023l-1.7988281-0.6503906c-0.4667969-0.2329102-0.984375-0.5664063-1.5507813-1  c-0.5996094-0.4331055-1.0332031-0.7329102-1.3007813-0.8999023c-0.765625-0.5664063-1.1328125-0.8833008-1.0996094-0.949707  C31.2460938,76.5,30.9472656,76.3833008,30.7792969,76.25c-0.5-0.3334961-0.8496094-0.9335938-1.0488281-1.800293  c-0.234375-1-0.3007813-2.0664063-0.2011719-3.199707c0.0683594-0.7333984,0.2675781-1.4667969,0.6015625-2.2001953  c0.1660156-0.3330078,0.5820313-1.0664063,1.25-2.199707c0.5-0.7670898,0.8320313-1.5834961,1-2.4501953  c0.265625-1.3666992,0.5488281-2.4667969,0.8496094-3.2998047c0.3671875-1.0336914,1.1660156-2.1503906,2.4003906-3.3500977  c0.3320313-0.300293,0.8652344-0.7666016,1.5996094-1.3999023c0.6328125-0.6000977,1.1171875-1.1166992,1.4492188-1.550293  c0.4667969-0.5664063,0.7832031-1.2666016,0.9511719-2.1000977c0.2324219-0.7998047-0.1503906-2.3999023-1.1503906-4.7998047  c-0.0332031-0.0668945-0.0664063-0.1499023-0.0996094-0.25l-0.1503906,0.4501953  c-0.3671875,0.9663086-0.6328125,1.6333008-0.8007813,2c-0.265625,0.5-0.5332031,0.9331055-0.7988281,1.2998047  c-0.6015625,0.5668945-1.1679688,0.9165039-1.7011719,1.0498047L34.3300781,52.5l-1.6503906-0.2001953  C31.7792969,52.0332031,31.046875,51.7666016,30.4804688,51.5c-1-0.5332031-1.7675781-1.0834961-2.3007813-1.6499023  c-0.4003906-0.5336914-0.7167969-0.9335938-0.9492188-1.2001953c-0.3339844-0.4667969-0.6171875-0.9165039-0.8496094-1.3500977  c-0.2675781-0.4331055-0.5332031-0.9667969-0.8007813-1.6000977l-1.4492188-3.3999023  c-0.3007813-0.699707-0.484375-1.3666992-0.5507813-2c-0.0664063-0.4331055-0.0996094-1.0166016-0.0996094-1.75  c-0.0332031-0.3666992-0.0507813-0.6665039-0.0507813-0.8999023c-0.2988281-1-0.6660156-2.0332031-1.0996094-3.1000977  L20.9296875,31.25c-0.1992188-0.4667969-0.3320313-0.9169922-0.4003906-1.3500977  c0.0332031-0.4667969,0.0507813-0.7167969,0.0507813-0.75c0.0996094-0.3666992,0.2832031-0.6831055,0.5507813-0.9501953  c0.1992188-0.2666016,0.4160156-0.4663086,0.6484375-0.5996094c0.3007813-0.2670898,0.7167969-0.5336914,1.25-0.800293  l3.4511719-1.699707c0.4003906-0.0668945,0.7167969,0,0.9492188,0.199707  c0.1679688,0.1333008,0.3496094,0.3334961,0.5507813,0.6000977c0.3671875,0.5332031,0.6835938,1.1333008,0.9492188,1.7998047  c0.2011719,0.5336914,0.3339844,0.9501953,0.4003906,1.25c0.0996094-0.0664063,0.2167969-0.1166992,0.3496094-0.1499023  c0.2011719-0.0664063,0.4511719-0.0332031,0.75,0.1000977c0.3007813,0.1665039,0.5,0.3833008,0.5996094,0.6499023  c0.3339844,0.6333008,0.4667969,1.2333984,0.4003906,1.800293c-0.0332031,0.3666992-0.1660156,0.949707-0.4003906,1.75  l-0.2988281,0.699707c-0.2675781,0.3666992-0.4667969,0.5668945-0.5996094,0.6000977l-0.4003906,0.2001953l-0.3496094,0.0498047  c-0.1347656,0.0332031-0.3007813,0.0166016-0.5-0.0498047c-0.1015625,0-0.3007813-0.050293-0.6015625-0.1503906  c0,0.0336914-0.015625,0.0668945-0.0488281,0.1000977l-0.0507813,0.1000977l0.1503906,0.1499023  c0.2324219,0.5,0.3007813,1.0834961,0.1992188,1.75c0.1347656,0.0332031,0.3183594,0.1669922,0.5507813,0.3999023  c0.3671875,0.3334961,0.7832031,0.7670898,1.25,1.300293l1.25,1.0498047l0.5,0.25c0.0996094-0.4331055,0.2675781-0.7666016,0.5-1  c0.2675781-0.3330078,0.8339844-0.7832031,1.6992188-1.3500977C34.6132813,36.8666992,34.8125,36.5498047,34.8808594,36.25  c0.0664063-0.6669922,0.1816406-1.2167969,0.3496094-1.6499023c0.1328125-0.4667969,0.265625-0.800293,0.4003906-1  c0.1660156-0.2001953,0.4160156-0.5336914,0.75-1c0.5-0.4003906,0.8320313-0.6503906,1-0.75L37.9296875,31.5l0.6503906-0.25  c0.2675781-0.1000977,0.6660156-0.2167969,1.1992188-0.3500977c0.4003906-0.1333008,0.7011719-0.2998047,0.9003906-0.5  c0.234375-0.1665039,0.4335938-0.4667969,0.5996094-0.8999023c0.2011719-0.6000977,0.3671875-1.1000977,0.5-1.5v0.0498047  l0.3515625-0.949707c-0.0683594-0.3334961-0.1015625-0.6333008-0.1015625-0.9003906l-0.0996094-0.0996094  C41.6972656,25.7666016,41.546875,25.4833984,41.4804688,25.25c-0.0664063-0.2001953-0.0664063-0.4501953,0-0.75  c0-0.0332031,0.015625-0.0668945,0.0488281-0.1000977c-0.5996094,0.2998047-1.1992188,0.4331055-1.7988281,0.3999023  C39.3300781,24.7333984,39.046875,24.6333008,38.8808594,24.5l-0.4003906-0.300293l-0.3007813-0.5L38.0800781,23.25  c0-0.2001953,0.0507813-0.3833008,0.1503906-0.550293c0.0996094-0.2329102,0.2832031-0.4331055,0.5488281-0.5996094  l0.8515625-0.4003906l0.0488281-0.0498047L39.8808594,21.5l0.5996094-0.800293  c0.0332031-0.0332031,0.0664063-0.0664063,0.0996094-0.0996094c-0.9667969,0.0664063-1.8671875-0.1503906-2.6992188-0.6503906  c-0.8671875-0.4663086-1.5839844-1.1333008-2.1503906-2c-0.4667969-0.6333008-0.7011719-1.0166016-0.7011719-1.1499023  c-0.5996094-1.3330078-0.9492188-2.699707-1.0488281-4.1000977L33.8300781,9.75  c-0.1328125-1.3334961-0.4667969-2.3999023-1-3.2001953c-0.0996094-0.1333008-0.1835938-0.2333984-0.25-0.2998047  c-0.1992188-0.1669922-0.3339844-0.2832031-0.4003906-0.3500977l-0.5-0.4501953L32.8808594,5.6499023z"
     id="path2"
     style="fill:#784421;stroke:none;stroke-opacity:1" /><path
     style="fill:#ac9393;fill-opacity:1;stroke:none;stroke-width:0.13241525;stroke-opacity:1"
     d="m 38.757945,84.687583 c -0.596279,-0.196644 -2.118644,-0.888774 -2.118644,-0.963221 0,-0.2504 1.23944,-1.235698 2.020119,-1.605902 1.028931,-0.487928 1.978655,-1.270762 2.205202,-1.817694 0.341737,-0.825026 -0.370475,-1.484281 -1.605867,-1.486459 -1.291193,-0.0023 -2.291298,-0.275658 -4.076022,-1.114185 -0.983183,-0.461935 -2.218264,-1.000555 -2.744624,-1.196934 -1.040345,-0.388141 -1.497252,-0.805589 -1.76297,-1.610721 -0.218694,-0.66265 -0.09534,-3.630439 0.18216,-4.382647 0.113462,-0.307559 0.710085,-1.391863 1.325829,-2.409569 1.118415,-1.848523 1.40346,-2.527509 1.950061,-4.645114 0.159788,-0.619041 0.493064,-1.572431 0.740614,-2.118644 0.412959,-0.911187 0.644626,-1.184278 2.808235,-3.310381 1.29698,-1.274497 2.503969,-2.51893 2.682198,-2.765408 0.26158,-0.361745 0.381284,-0.429977 0.620909,-0.353923 0.264194,0.08385 0.28548,0.147728 0.193461,0.580556 -0.16544,0.778182 -0.07039,5.27191 0.165306,7.815252 0.232414,2.507938 0.484736,4.074408 0.730156,4.532981 0.136316,0.254708 0.08499,0.347861 -0.474965,0.861951 -0.695086,0.638158 -0.912892,0.730708 -3.539632,1.504049 -2.047409,0.602781 -2.744642,0.992128 -3.215503,1.795591 -0.305366,0.521068 -0.443509,1.389121 -0.221066,1.389121 0.05623,0 0.309479,-0.170324 0.562765,-0.378495 0.717018,-0.589309 1.510198,-0.94062 2.721191,-1.205255 1.10069,-0.240531 1.118061,-0.240285 1.449711,0.02059 0.442967,0.348438 0.752058,0.977402 1.191152,2.423858 0.614344,2.023758 0.937276,2.496247 2.613031,3.823179 0.345935,0.273926 0.628939,0.568541 0.628898,0.654701 -4.1e-5,0.08616 -0.239818,0.543968 -0.53284,1.017353 -0.293021,0.473384 -0.680184,1.337394 -0.860362,1.920021 -0.357966,1.157528 -0.499297,1.404674 -1.387444,2.426245 -0.5864,0.674492 -0.607441,0.685218 -1.324152,0.674994 -0.400556,-0.0057 -0.817665,-0.03987 -0.926907,-0.07589 z"
     id="path812"
     inkscape:connector-curvature="0" /><path
     style="fill:#ac9393;fill-opacity:1;stroke:none;stroke-width:0.13241525;stroke-opacity:1"
     d="m 62.674342,84.292235 c -0.0467,-0.665523 -0.199456,-1.657889 -0.33945,-2.205258 -0.44371,-1.734893 -0.778009,-2.229685 -2.970903,-4.3972 -1.84271,-1.821385 -2.035905,-2.057661 -2.327836,-2.846928 -0.530373,-1.433926 -1.000079,-2.27212 -1.817964,-3.244173 -0.698659,-0.830355 -2.551593,-2.469959 -2.936539,-2.598454 -0.0989,-0.03301 -0.05258,-0.245414 0.137115,-0.628792 0.267561,-0.540739 0.29363,-0.859659 0.395074,-4.833157 0.118082,-4.625187 0.244883,-6.108087 0.652501,-7.630805 l 0.265847,-0.993114 0.788833,-0.413496 c 0.703288,-0.368654 0.788832,-0.387142 0.788832,-0.170486 0,0.53547 0.564572,1.692985 1.253607,2.57021 3.92111,4.992048 4.780273,7.436249 4.95709,14.102225 0.08788,3.312997 0.145166,3.411833 0.711154,1.226904 0.287406,-1.109495 0.323415,-1.174979 0.565693,-1.028715 0.142311,0.08591 0.602475,0.357866 1.022586,0.60434 1.295105,0.759821 1.514798,1.569419 1.632733,6.016857 0.04056,1.529396 0.12242,3.82349 0.181921,5.097987 0.0595,1.274497 0.08378,2.342969 0.05395,2.374381 -0.02983,0.03141 -0.701127,0.091 -1.491779,0.132416 l -1.437551,0.0753 z"
     id="path814"
     inkscape:connector-curvature="0" /><path
     style="fill:#ac9393;fill-opacity:1;stroke:none;stroke-width:0.13241525;stroke-opacity:1"
     d="m 43.937475,54.105755 c -1.557376,-0.09675 -2.849865,-0.194187 -2.872198,-0.216521 -0.02234,-0.02233 0.02616,-0.471969 0.107769,-0.999191 0.180296,-1.164814 -0.04066,-2.285472 -0.77571,-3.934376 -1.057547,-2.37233 -1.375016,-3.281666 -1.895903,-5.430485 -0.658823,-2.717846 -0.924365,-3.507545 -1.179439,-3.507545 -0.161646,0 -0.177665,0.238051 -0.101618,1.51006 0.105125,1.758354 0.384673,3.717395 0.65888,4.617338 l 0.192616,0.632167 -0.603314,1.023024 c -1.120026,1.899203 -1.371825,2.259138 -1.959127,2.800495 -0.641314,0.591143 -0.937434,0.64879 -2.022564,0.393746 -1.07302,-0.252196 -3.217701,-1.363988 -3.843295,-1.992342 -0.946873,-0.95105 -2.104668,-2.809785 -3.473504,-5.576398 -1.398023,-2.825604 -1.751207,-3.964871 -1.898064,-6.122602 -0.08497,-1.248429 -0.370365,-2.323373 -1.346422,-5.071321 -0.911658,-2.56664 -0.91717,-2.772239 -0.09057,-3.378755 0.824397,-0.604901 3.757159,-2.214829 3.887711,-2.134143 0.195078,0.120565 0.979909,1.58724 1.341458,2.506888 0.277725,0.706432 0.364518,1.153706 0.364888,1.8804 5.17e-4,1.014225 -0.208879,2.24947 -0.427377,2.521128 -0.105941,0.131716 -0.675087,0.114282 -0.861183,-0.02638 -0.01711,-0.01293 0.08717,-0.255494 0.231727,-0.539031 0.333923,-0.654971 0.349392,-1.46501 0.0311,-1.628712 -0.836943,-0.430455 -2.258211,1.661974 -2.165779,3.188518 0.01761,0.290847 0.443388,0.303554 0.867172,0.02588 0.310609,-0.203518 0.317157,-0.197842 0.578912,0.501761 0.145613,0.389184 0.303911,1.0032 0.351775,1.36448 0.163457,1.233804 0.213708,1.385157 0.459895,1.385157 0.130049,0 0.383601,-0.115746 0.56345,-0.257216 l 0.326997,-0.257216 0.429238,0.886188 c 0.680022,1.40395 1.533939,2.208266 3.258371,3.069106 1.530207,0.763883 2.27039,1.617261 3.374671,3.890753 0.517583,1.065599 0.99098,1.937453 1.051994,1.937453 0.570302,0 0.171302,-2.616786 -0.659162,-4.323028 -0.576668,-1.184804 -1.440222,-2.095329 -2.64926,-2.793362 l -0.673964,-0.38911 0.461063,-0.40482 c 0.253585,-0.22265 0.825534,-0.59908 1.270999,-0.83651 1.03891,-0.553733 1.535954,-1.128579 1.797367,-2.078707 0.680466,-2.473215 1.370503,-3.188876 3.779126,-3.919464 1.772352,-0.537592 2.465494,-1.146821 3.025158,-2.658923 0.159965,-0.432196 0.315988,-0.82649 0.346716,-0.87621 0.03073,-0.04972 0.295184,0.137254 0.587679,0.415497 0.624682,0.594246 1.262424,0.758569 2.087542,0.537883 0.872924,-0.233471 1.476777,-0.67933 2.60877,-1.926197 0.569778,-0.627599 1.500587,-1.466662 2.068465,-1.864585 1.039787,-0.728598 1.60395,-1.3317 1.776571,-1.899191 0.06744,-0.221718 0.15485,-0.281782 0.313302,-0.215292 0.12087,0.05072 0.666666,0.156792 1.212879,0.235716 l 0.993114,0.143498 0.423839,0.869629 c 0.495457,1.016579 1.683412,2.383893 2.473432,2.846875 0.850313,0.498316 1.520783,0.694215 3.152004,0.920954 0.999032,0.138866 1.728379,0.320783 2.188487,0.545863 0.842499,0.412141 2.098099,1.74343 2.759116,2.925438 0.844838,1.510714 1.01236,2.163043 1.116958,4.349449 0.05226,1.092426 0.137613,2.084052 0.189669,2.203613 0.07147,0.164146 -0.142588,0.402939 -0.874025,0.975029 -1.412851,1.105053 -2.290855,2.379374 -2.618729,3.800779 -0.261217,1.132427 -0.09579,4.031733 0.263185,4.612562 0.227238,0.367678 0.38598,-0.07245 0.671811,-1.862659 0.484439,-3.03412 0.88002,-3.757071 3.042964,-5.561194 0.987967,-0.824069 1.583294,-1.432308 1.855941,-1.896192 0.378171,-0.643428 0.396936,-0.740434 0.324207,-1.67607 -0.04246,-0.546213 -0.114666,-1.166734 -0.16046,-1.378937 -0.07078,-0.327971 -0.04892,-0.372644 0.145774,-0.297934 0.125969,0.04834 0.52847,0.08789 0.894448,0.08789 0.582078,0 0.653371,0.02902 0.569262,0.231727 -0.470519,1.133972 -0.384272,2.249691 0.220667,2.854632 0.507151,0.50715 0.678283,0.349429 0.901538,-0.830886 0.130692,-0.690951 0.634739,-1.973781 0.882084,-2.24496 0.02794,-0.03063 0.202211,0.08655 0.387268,0.260399 0.439726,0.413102 0.771384,0.229869 0.829621,-0.458348 0.08082,-0.955116 -1.155679,-2.99053 -1.81673,-2.99053 -0.5845,0 -0.731673,0.96319 -0.281887,1.844842 l 0.260254,0.510139 -0.273026,0.0714 c -0.704822,0.184315 -0.839401,-0.182469 -0.841696,-2.293964 -0.0016,-1.474414 0.01259,-1.55011 0.446818,-2.383474 0.246659,-0.473385 0.682553,-1.20578 0.968652,-1.627546 l 0.52018,-0.766847 0.487916,0.295494 c 1.426114,0.863691 3.180197,2.033964 3.500363,2.335338 0.223287,0.210181 0.364142,0.48153 0.364142,0.701496 0,0.1973 -0.409656,1.303405 -0.910344,2.458012 -1.213333,2.797984 -1.742462,4.481137 -1.803066,5.735523 -0.110348,2.284045 -0.878601,6.254383 -1.538329,7.950098 -0.212506,0.546213 -0.579228,1.246185 -0.814935,1.555492 -0.655687,0.860427 -2.795106,2.479418 -4.247485,3.214256 -1.419966,0.718438 -2.145175,0.834465 -2.870695,0.459284 -0.494059,-0.255488 -0.659426,-0.572075 -0.659426,-1.262438 0,-0.836302 -0.591897,-1.794098 -2.533097,-4.09901 -1.039419,-1.234167 -1.883612,-2.375019 -2.117462,-2.861561 -0.363817,-0.756946 -0.833433,-2.427084 -1.178034,-4.189551 -0.08188,-0.418763 -0.198381,-0.761388 -0.258895,-0.761388 -0.181946,0 -0.298641,1.502973 -0.202422,2.607079 0.11511,1.320864 0.393255,2.564671 0.712814,3.187555 l 0.25091,0.489075 -0.561675,0.624718 c -0.308922,0.343595 -0.821147,1.059992 -1.138278,1.591992 -0.729545,1.223841 -2.324255,4.42524 -2.446031,4.910437 -0.120355,0.479528 -0.25652,0.539434 -1.981749,0.871866 -2.927531,0.564102 -4.828378,0.630549 -9.584771,0.335057 z m -3.916302,-14.29256 c 1.684807,-0.436445 3.227127,-2.027229 3.235983,-3.337666 0.0043,-0.636733 0.07063,-0.666725 -1.8737,0.847286 -0.388019,0.302142 -0.982709,0.642084 -1.321535,0.755426 -0.698004,0.233495 -2.577684,0.324054 -3.323309,0.160111 -0.466566,-0.102586 -0.496557,-0.08992 -0.496557,0.209721 0,0.64509 0.627757,1.176308 1.683991,1.425023 0.756943,0.178238 1.227805,0.164777 2.095127,-0.0599 z m 16.277071,-0.190417 c 1.564882,-0.501257 2.883916,-1.532083 3.331669,-2.603704 0.189829,-0.454328 0.24565,-1.106309 0.09472,-1.106309 -0.04804,0 -0.433652,0.330327 -0.856924,0.73406 -1.286958,1.227548 -2.654398,1.643621 -5.411669,1.646611 -1.900334,0.0021 -3.448662,-0.217454 -5.007789,-0.709982 -1.90661,-0.602298 -2.50277,-0.598164 -2.073727,0.01438 0.493345,0.704348 2.507786,1.708676 4.360267,2.173873 1.357567,0.340912 4.278292,0.262726 5.563455,-0.14893 z"
     id="path816"
     inkscape:connector-curvature="0" /><path
     style="fill:#ac9393;fill-opacity:1;stroke:none;stroke-width:0.13241525;stroke-opacity:1"
     d="m 46.644437,27.371981 c 0.375848,-1.070342 0.121176,-2.336999 -0.559551,-2.783028 -0.558273,-0.365795 -0.75026,-0.17249 -0.647282,0.651724 0.150343,1.203304 -0.365244,2.006852 -1.224078,1.90774 -0.319915,-0.03692 -0.359779,-0.09874 -0.37833,-0.58669 -0.02216,-0.582785 -0.290867,-1.216146 -0.638296,-1.504487 -0.191868,-0.159236 -0.171958,-0.219193 0.200344,-0.603312 0.556672,-0.57434 0.637332,-1.238207 0.283244,-2.331234 -0.613574,-1.894031 -0.49131,-4.092341 0.291717,-5.245082 0.505192,-0.743723 0.546003,-0.764429 1.896655,-0.962299 0.925847,-0.135636 1.228554,-0.127419 2.052436,0.05571 l 0.966416,0.214812 -0.03993,0.693708 c -0.04753,0.825705 0.412645,1.897902 0.801322,1.867054 0.127449,-0.01011 0.231726,0.02827 0.231726,0.08529 0,0.05702 0.470623,0.125054 1.045828,0.151175 1.224992,0.05563 1.344474,0.134683 2.231314,1.476299 0.771478,1.167096 1.326799,1.5498 2.24883,1.5498 0.39933,0 0.697545,0.0595 0.697545,0.139172 0,0.263447 -0.986472,0.566669 -1.861109,0.572069 -1.458381,0.009 -1.720718,-0.239565 -2.839632,-2.690599 -0.145657,-0.319068 -0.324418,-0.57156 -0.397246,-0.561094 -0.369486,0.0531 -0.116603,2.398892 0.343202,3.18361 0.253423,0.432502 0.253948,0.455801 0.01939,0.860699 -0.163608,0.282428 -0.596178,0.606151 -1.346083,1.007368 -1.085602,0.580825 -1.980952,1.34033 -2.971382,2.520555 -0.275025,0.327727 -0.458198,0.476694 -0.407051,0.331038 z m 1.178124,-6.097211 c 0.800327,-0.37978 1.430944,-1.32773 1.295179,-1.946926 -0.08853,-0.403758 -0.634002,-0.424254 -1.276116,-0.04795 -1.078128,0.631825 -1.899964,1.898265 -1.370491,2.111912 0.333047,0.134387 0.930657,0.08263 1.351428,-0.117036 z"
     id="path818"
     inkscape:connector-curvature="0" /><path
     style="fill:#ac9393;fill-opacity:1;stroke:none;stroke-width:0.13241525;stroke-opacity:1"
     d="m 39.982088,23.488561 c -0.114819,-0.0729 -0.02382,-0.173436 0.294295,-0.325133 0.544846,-0.259819 1.134792,-1.02882 1.395661,-1.819259 l 0.187152,-0.567077 0.160667,0.847762 c 0.08837,0.466269 0.202021,1.011969 0.252563,1.212665 0.150485,0.597557 -0.103684,0.760912 -1.180324,0.758599 -0.519088,-0.0011 -1.018595,-0.04952 -1.110014,-0.107557 z"
     id="path820"
     inkscape:connector-curvature="0" /><path
     style="fill:#6600ff;fill-opacity:1;stroke:none;stroke-width:0.13241525;stroke-opacity:1"
     d="M 45.295559,68.516798 C 44.06327,68.075667 43.598953,67.625917 43.387798,66.668887 43.198029,65.808784 41.96428,57.349985 41.868518,56.252439 l -0.09121,-1.045389 0.443443,0.09127 c 2.630314,0.541361 3.657144,0.63837 6.004885,0.567308 1.454227,-0.04402 2.76311,-0.156422 3.357221,-0.288314 0.535561,-0.118894 1.001714,-0.188204 1.035894,-0.154023 0.03418,0.03418 -0.08508,0.529522 -0.265023,1.100758 -0.557768,1.770652 -0.770017,3.502639 -1.013988,8.274281 -0.145339,2.842597 -0.255082,3.182763 -1.156507,3.584786 -0.915375,0.408246 -3.893172,0.489692 -4.887674,0.133684 z"
     id="path822"
     inkscape:connector-curvature="0" /><path
     style="fill:#cccccc;fill-opacity:1;stroke:none;stroke-width:0.13241525;stroke-opacity:1"
     d="m 68.948623,63.999365 c 0,-0.06482 0.266516,-0.479884 0.592257,-0.922373 0.900989,-1.223906 1.319252,-1.39257 3.512616,-1.416459 0.983183,-0.01071 1.925565,-0.06345 2.094183,-0.117213 l 0.306577,-0.09774 -0.282597,0.553935 c -0.452271,0.886526 -1.328346,1.672262 -2.129943,1.910311 -0.766175,0.22753 -4.093093,0.300311 -4.093093,0.08954 z"
     id="path824"
     inkscape:connector-curvature="0" /><path
     style="fill:#786721;fill-opacity:1;stroke:none;stroke-width:0.13241525;stroke-opacity:1"
     d="M 40.32014,19.635054 C 39.253254,19.293642 38.52778,18.834826 37.743329,18.005385 36.99464,17.213757 36.556012,16.42953 36.131495,15.12357 35.8109,14.137313 35.444291,12.138188 35.454463,11.431701 c 0.0066,-0.458761 0.01974,-0.444673 0.307759,0.330132 0.655425,1.763156 1.733903,3.038837 3.182392,3.764301 0.742011,0.37163 0.868876,0.392032 2.449682,0.393955 1.91474,0.0023 2.149487,0.0745 1.679263,0.516248 -0.37929,0.356325 -0.815168,1.318215 -0.935213,2.063822 -0.15862,0.98519 -0.199086,1.093754 -0.432713,1.160891 -0.128247,0.03685 -0.322556,0.100448 -0.431798,0.14132 -0.109243,0.04087 -0.538405,-0.03442 -0.953695,-0.167316 z"
     id="path826"
     inkscape:connector-curvature="0" /><path
     style="fill:#786721;fill-opacity:1;stroke:none;stroke-width:0.13241525;stroke-opacity:1"
     d="m 54.327564,19.42949 c -0.809228,-1.060953 -1.599528,-1.517571 -2.634733,-1.522292 -0.674542,-0.0031 -1.035042,0.130273 -1.502962,0.555946 l -0.286826,0.26093 -0.09069,-0.725842 c -0.233806,-1.871317 0.786541,-2.342017 5.081137,-2.344001 2.399612,-0.0011 3.243862,-0.150677 4.538016,-0.803964 2.101472,-1.06082 2.982711,-2.721991 2.870602,-5.4112012 l -0.05835,-1.3997122 0.232584,0.7282839 c 0.301795,0.9450015 0.326086,3.4292045 0.04518,4.6208805 -0.303459,1.28737 -1.027106,2.544161 -1.975989,3.431795 -0.998127,0.933699 -1.866914,1.436187 -3.965249,2.293417 -0.88081,0.359836 -1.666725,0.684651 -1.746476,0.721812 -0.07975,0.03716 -0.307562,-0.145563 -0.506247,-0.406052 z"
     id="path828"
     inkscape:connector-curvature="0" /><path
     style="fill:#1a1a1a;fill-opacity:1;stroke:none;stroke-width:0.13241525;stroke-opacity:1"
     d="m 33.837894,91.14497 c -0.195171,-0.07231 -0.178099,-0.171799 0.155101,-0.903888 0.205926,-0.45245 0.442075,-1.148569 0.524775,-1.546931 0.134659,-0.648649 0.120401,-0.793942 -0.136511,-1.39115 -0.41292,-0.95986 -0.505974,-1.001712 -1.220167,-0.548784 -0.702694,0.445635 -0.852069,0.648218 -1.752194,2.376331 -0.526421,1.010656 -0.755582,1.317764 -1.118442,1.498873 -0.565588,0.282292 -0.637573,0.223792 -0.311637,-0.253259 0.1397,-0.204471 0.488825,-0.840123 0.775833,-1.412559 0.76802,-1.531816 1.253151,-2.011457 3.015773,-2.981645 0.843823,-0.46446 1.634746,-0.955548 1.757607,-1.091307 0.215952,-0.238625 0.242113,-0.229569 0.786577,0.2723 0.826455,0.7618 1.573197,1.097108 2.608855,1.171451 l 0.893803,0.06416 7.41e-4,0.677388 c 4.11e-4,0.372563 0.05487,0.885942 0.121022,1.140841 0.194115,0.74793 0.286638,1.906191 0.166918,2.089591 -0.229479,0.351542 -5.631816,1.074309 -6.268051,0.838589 z"
     id="path830"
     inkscape:connector-curvature="0" /><path
     style="fill:#1a1a1a;fill-opacity:1;stroke:none;stroke-width:0.13241525;stroke-opacity:1"
     d="m 62.856664,93.513143 c -0.512467,-0.142064 -1.139108,-0.493603 -2.05723,-1.154085 l -0.839862,-0.604182 0.247079,-0.65026 c 0.135894,-0.357643 0.576631,-1.228196 0.979415,-1.934562 0.402785,-0.706366 0.857045,-1.56734 1.009469,-1.913275 0.152423,-0.345934 0.289241,-0.628075 0.30404,-0.626978 0.0148,0.0011 0.265256,0.08786 0.556569,0.19281 0.748234,0.269561 1.876808,0.246312 2.534214,-0.05221 l 0.547984,-0.248831 0.992169,1.675203 c 1.362317,2.300173 1.661515,2.929077 1.783626,3.74912 0.172931,1.161328 0.112194,1.302673 -0.559762,1.302673 -0.316706,0 -0.661431,0.03285 -0.766056,0.073 -0.197106,0.07564 -0.460081,-0.443309 -0.972009,-1.918135 -0.513579,-1.479578 -1.520575,-2.026514 -2.213956,-1.202478 -0.477395,0.567352 -0.882757,1.749775 -0.882757,2.574964 0,0.766089 -0.111505,0.890091 -0.662933,0.737226 z"
     id="path832"
     inkscape:connector-curvature="0" /></svg>