<?xml version="1.0" encoding="UTF-8" standalone="no"?>
<svg
   xmlns:dc="http://purl.org/dc/elements/1.1/"
   xmlns:cc="http://creativecommons.org/ns#"
   xmlns:rdf="http://www.w3.org/1999/02/22-rdf-syntax-ns#"
   xmlns:svg="http://www.w3.org/2000/svg"
   xmlns="http://www.w3.org/2000/svg"
   xmlns:sodipodi="http://sodipodi.sourceforge.net/DTD/sodipodi-0.dtd"
   xmlns:inkscape="http://www.inkscape.org/namespaces/inkscape"
   version="1.1"
   x="0px"
   y="0px"
   viewBox="0 0 100 125"
   enable-background="new 0 0 100 100"
   xml:space="preserve"
   id="svg8"
   sodipodi:docname="Minotaur.svg"
   inkscape:version="0.92.4 (5da689c313, 2019-01-14)"><metadata
     id="metadata14"><rdf:RDF><cc:Work
         rdf:about=""><dc:format>image/svg+xml</dc:format><dc:type
           rdf:resource="http://purl.org/dc/dcmitype/StillImage" /></cc:Work></rdf:RDF></metadata><defs
     id="defs12" /><sodipodi:namedview
     pagecolor="#ffffff"
     bordercolor="#666666"
     borderopacity="1"
     objecttolerance="10"
     gridtolerance="10"
     guidetolerance="10"
     inkscape:pageopacity="0"
     inkscape:pageshadow="2"
     inkscape:window-width="640"
     inkscape:window-height="480"
     id="namedview10"
     showgrid="false"
     inkscape:zoom="1.888"
     inkscape:cx="50"
     inkscape:cy="62.5"
     inkscape:window-x="0"
     inkscape:window-y="0"
     inkscape:window-maximized="0"
     inkscape:current-layer="svg8" /><path
     fill-rule="evenodd"
     clip-rule="evenodd"
     d="M36.3808594,85.1499023  c-0.234375-0.2333984-0.4179688-0.4331055-0.5507813-0.6000977c-0.0332031,0-0.0664063,0.0166016-0.0996094,0.050293L35.3300781,85  l-0.4492188,0.2998047c-0.0683594,0.0332031-0.6015625,0.3334961-1.6015625,0.8999023  c-0.5996094,0.2670898-0.9824219,0.5-1.1484375,0.7001953l-0.75,0.7998047  c-0.0332031,0.0668945-0.3339844,0.6000977-0.9003906,1.6000977c-0.3007813,0.7333984-0.6171875,1.2666016-0.9511719,1.6000977  L29.4296875,91c0.1328125-0.0332031,0.3164063-0.0834961,0.5507813-0.1499023c0.5-0.1000977,0.8320313-0.3334961,1-0.7001953  c0.0996094-0.1333008,0.3828125-0.7167969,0.8496094-1.75c0.4003906-0.7998047,0.8496094-1.3334961,1.3496094-1.6000977  l0.6503906-0.3500977L34.1796875,87c0.234375,0.3999023,0.3496094,0.699707,0.3496094,0.8999023  c0.0683594,0.2333984,0.0683594,0.3500977,0,0.3500977c-0.0332031,0.3999023-0.1152344,0.7998047-0.25,1.199707  c-0.0996094,0.2333984-0.2324219,0.5336914-0.3984375,0.9003906l-0.3515625,0.7998047l0.1503906,0.0498047  c0.2675781,0.0668945,0.4667969,0.0834961,0.5996094,0.050293c0.3007813,0.0332031,0.6835938,0.0166016,1.1503906-0.050293  c0.5,0,1.1328125-0.0664063,1.9003906-0.199707l2.5507813-0.4501953l0.25,0.050293l0.0996094-0.4501953  c0-0.4667969-0.0332031-0.9165039-0.0996094-1.3500977l-0.25-1.199707c-0.0332031-0.5336914-0.0332031-0.9667969,0-1.300293  c-0.3339844,0.0332031-0.5332031,0.050293-0.6015625,0.050293c-0.3320313,0-0.5820313-0.0170898-0.75-0.050293l-0.8496094-0.25  C37.1464844,85.7832031,36.7128906,85.4833984,36.3808594,85.1499023z M63.9296875,87  c-0.3671875-0.0668945-0.6835938-0.1499023-0.9492188-0.25c-0.234375-0.1000977-0.4179688-0.1835938-0.5507813-0.25  c-0.1992188,0.6333008-0.5332031,1.3500977-1,2.1499023c-0.5332031,0.8334961-0.8671875,1.3999023-1,1.7001953  c-0.0996094,0.199707-0.25,0.5830078-0.4492188,1.1499023l-0.0507813,0.2998047l1.5996094,1.1499023  c0.5,0.3334961,0.9335938,0.550293,1.3007813,0.6503906l0.3496094,0.0498047l0.3007813-0.0498047  c0.0332031-0.0336914,0.0664063-0.1333008,0.0996094-0.300293c-0.0332031-0.5664063,0-1.0830078,0.0996094-1.5498047  c0.4335938-1.3334961,0.9335938-1.9833984,1.5-1.9501953c0.0332031,0.0332031,0.1679688,0.0834961,0.4003906,0.1499023  c0.3007813,0.1669922,0.5507813,0.4667969,0.75,0.9003906c0.1660156,0.3330078,0.3164063,0.7329102,0.4492188,1.199707  L67.1308594,93c0.1328125,0.2666016,0.2167969,0.3999023,0.25,0.3999023l0.75-0.1000977  c0.2988281-0.0332031,0.5488281-0.0166016,0.75,0.050293c0.0664063,0,0.1328125,0.0166016,0.1992188,0.0498047l-0.0507813-0.1000977  l0.0507813-0.6499023l-0.1503906-1.1000977C68.796875,90.9165039,68.0800781,89.5664063,66.7792969,87.5  c-0.2324219-0.3334961-0.4316406-0.7001953-0.5996094-1.1000977C66.0800781,86.4331055,65.9804688,86.5,65.8808594,86.6000977  C65.3476563,86.8999023,64.6972656,87.0332031,63.9296875,87z M75.3808594,61.3999023  c-0.4667969,0.2001953-1.234375,0.2666016-2.3007813,0.2001953c-1.0996094-0.0668945-1.8671875,0.0166016-2.3007813,0.25  c-0.5996094,0.2329102-1.2832031,1.0166016-2.0488281,2.3496094l1.8496094-0.0498047  c0.5664063,0.0332031,1.1171875,0.0332031,1.6503906,0c0.4667969-0.0668945,0.7167969-0.1166992,0.75-0.1499023l0.5488281-0.2001953  l0.4511719-0.25l0.75-0.75c0.265625-0.3330078,0.5488281-0.8330078,0.8496094-1.5  C75.5136719,61.3330078,75.4472656,61.3666992,75.3808594,61.3999023z M70.5292969,30.699707  c-0.0332031,0-0.0664063,0.0170898-0.0996094,0.050293c-0.1660156,0.0664063-0.265625,0.1831055-0.2988281,0.3500977  l-0.1015625,0.7998047l0.0507813,0.4501953c0,0.4663086,0.0332031,0.9331055,0.0996094,1.3999023  c0.0996094,0.4331055,0.1835938,0.6665039,0.25,0.699707c0,0.1000977,0.1503906,0.1835938,0.4511719,0.25L70.9804688,34.75  c-0.0996094-0.2666016-0.2011719-0.5332031-0.3007813-0.800293c-0.2324219-0.8666992-0.3496094-1.5830078-0.3496094-2.1499023  C70.3300781,31.3999023,70.3964844,31.0332031,70.5292969,30.699707z M55.4804688,54.8999023l-0.1503906-0.5498047V53.949707  c-0.1660156,0.1333008-0.3828125,0.2670898-0.6503906,0.4003906c-0.2988281,0.1665039-0.6171875,0.3330078-0.9492188,0.5  C53.5625,55.25,53.4140625,55.75,53.2792969,56.3500977c-0.3320313,1.3666992-0.5,3.6499023-0.5,6.8496094l-0.0488281,2.6503906  c0,0.6665039-0.0332031,1.199707-0.0996094,1.5996094c-0.0683594,0.5336914-0.2675781,1.0336914-0.6015625,1.5  c0.2675781,0.1000977,0.6503906,0.3500977,1.1503906,0.75c1,0.7670898,1.8671875,1.6669922,2.5996094,2.7001953  c0.4335938,0.5332031,0.75,1.1499023,0.9511719,1.8500977c0.3671875,0.8999023,0.5664063,1.3666992,0.5996094,1.3999023  c0.3007813,0.5,0.6328125,0.8999023,1,1.2001953c0.4335938,0.4331055,1.1660156,1.0996094,2.1992188,2  c0.5,0.5332031,0.8007813,0.8999023,0.9003906,1.0996094c0.1679688,0.2333984,0.3671875,0.6503906,0.5996094,1.25  C62.4960938,82.5332031,62.6972656,84,62.6308594,85.6000977c0.1328125-0.0336914,0.2988281-0.0668945,0.5-0.1000977  c0.5996094-0.0668945,0.8984375-0.0668945,0.8984375,0c0.6347656,0.0332031,1.25-0.0332031,1.8515625-0.2001953  c-0.1347656-0.5664063-0.2011719-1.1499023-0.2011719-1.75l-0.1992188-7.449707l0.0488281,0.0498047  c-0.0996094-1.0668945-0.1992188-1.8500977-0.2988281-2.3500977c-0.1328125-0.8330078-0.4003906-1.3999023-0.8007813-1.699707  c-0.1660156-0.1333008-0.4335938-0.300293-0.7988281-0.5c-0.4003906-0.2001953-0.6503906-0.3334961-0.75-0.4003906  C62.7128906,71.1000977,62.5800781,71,62.4804688,70.8999023C62.4472656,71.0664063,62.4140625,71.25,62.3808594,71.449707  c-0.1347656,0.6333008-0.3339844,1.3334961-0.6015625,2.1000977l-0.1992188,0.3500977L61.5292969,73.5  c0.0332031-0.6333008,0.0507813-1.3500977,0.0507813-2.1499023v-2.25l-0.4003906-3.25  c-0.5996094-3.2333984-2.1328125-6.2167969-4.5996094-8.9501953l-0.3496094-0.5498047  C55.8964844,55.949707,55.6464844,55.4667969,55.4804688,54.8999023z M41.3808594,55  c-0.1347656-0.0668945-0.2675781-0.1166992-0.4003906-0.1499023c-0.1328125-0.0668945-0.25-0.1166992-0.3496094-0.1503906  c-0.234375,0.4003906-0.484375,0.75-0.75,1.050293c-0.4335938,0.5332031-0.984375,1.1166992-1.6503906,1.75  c-0.9335938,0.8330078-1.4511719,1.2832031-1.5507813,1.3500977c-1.0664063,1-1.75,1.9331055-2.0488281,2.7998047  c-0.2675781,0.6665039-0.5683594,1.7333984-0.9003906,3.2001953c-0.3007813,1-0.734375,1.9165039-1.3007813,2.75l-1.25,2  c-0.265625,0.5-0.4667969,1.0996094-0.5996094,1.7998047c-0.1660156,1.2333984-0.1992188,2.2001953-0.0996094,2.8999023  c0.1328125,1.1000977,0.6171875,1.800293,1.4492188,2.1000977l0.4511719,0.1499023  c0.1992188,0.0668945,0.4667969,0.1669922,0.7988281,0.300293c0.5996094,0.2329102,1.5996094,0.699707,3,1.3999023  c0.2675781,0.1665039,0.5332031,0.2666016,0.8007813,0.2998047l0.75,0.2001953l1.7988281,0.1499023  c0.8007813,0.0332031,1.25,0.2998047,1.3515625,0.7998047c0.0332031,0.2333984,0.015625,0.4335938-0.0507813,0.6000977  l-0.3496094,0.5L40.0292969,81.25l-0.8984375,0.6000977l-1.1503906,0.5l-0.75,0.5498047L36.5292969,83.75  c-0.0332031,0.0332031-0.0488281,0.0664063-0.0488281,0.1000977c0.1992188,0.0332031,0.4160156,0.1166992,0.6503906,0.25  l1.1484375,0.5c0.3671875,0.1665039,0.984375,0.25,1.8515625,0.25L40.5292969,84.75  c0.1347656-0.2001953,0.3007813-0.3999023,0.5-0.6000977c0.6679688-0.7333984,1.0332031-1.2167969,1.1015625-1.4501953  l0.3496094-1.0996094c0.1660156-0.6669922,0.3496094-1.1333008,0.5488281-1.4003906  c0.3671875-0.5664063,0.6015625-0.9331055,0.7011719-1.0996094c0.1328125-0.3334961,0.1171875-0.5668945-0.0507813-0.7001953  c-0.1992188-0.2001953-0.5664063-0.4833984-1.0996094-0.8500977c-0.4667969-0.3330078-0.8496094-0.7333984-1.1503906-1.199707  c-0.265625-0.4335938-0.5-1-0.6992188-1.7001953c-0.3671875-1.3999023-0.7011719-2.25-1-2.5498047L39.3808594,71.75  l-0.3007813-0.2001953c-0.0332031,0-0.0507813-0.0166016-0.0507813-0.0498047  c-1.1660156,0.2333984-1.9316406,0.4165039-2.2988281,0.5498047C36.1308594,72.25,35.6640625,72.5,35.3300781,72.7998047  l-0.5996094,0.5l-0.1503906,0.050293l-0.0507813-0.1503906c0-0.3330078,0.0507813-0.5996094,0.1503906-0.7998047  c0.234375-0.6000977,0.734375-1.1166992,1.5-1.5498047c0.3339844-0.1669922,1.484375-0.5170898,3.4511719-1.050293  c0.0664063,0,0.25-0.0498047,0.5488281-0.1499023c0.4003906-0.1333008,0.734375-0.2998047,1-0.5  c0.2011719-0.1333008,0.484375-0.3999023,0.8496094-0.7998047c0.0683594-0.1000977,0.1503906-0.1669922,0.25-0.2001953  c-0.1992188-0.3334961-0.3320313-0.6831055-0.3984375-1.0498047C41.7128906,66.4667969,41.5136719,64.75,41.2792969,61.949707  c-0.1660156-3.0996094-0.25-4.7666016-0.25-5c0.1347656-0.8330078,0.2167969-1.3833008,0.25-1.6499023  C41.3125,55.1665039,41.3476563,55.0664063,41.3808594,55z M41.6796875,55.1000977c0,0.0664063,0.0175781,0.1499023,0.0507813,0.25  c0.0332031,0.2666016,0.0820313,0.7998047,0.1503906,1.5996094c0.0664063,0.8666992,0.2988281,2.5,0.6992188,4.9003906  c0.4003906,2.8330078,0.6503906,4.449707,0.75,4.8496094C43.4960938,67.5,43.8476563,68,44.3808594,68.199707  c0.7988281,0.5,1.9492188,0.7167969,3.4492188,0.6503906c1.4667969-0.0668945,2.4492188-0.300293,2.9492188-0.7001953  C51.1132813,67.8833008,51.3125,67.0830078,51.3808594,65.75l0.0996094-2.6000977  c0.1328125-3.1000977,0.4824219-5.4501953,1.0488281-7.0498047c0.1015625-0.3334961,0.234375-0.6503906,0.4003906-0.9501953  c-1.765625,0.6000977-4.015625,0.8334961-6.75,0.7001953c-0.5332031,0-1.5820313-0.1503906-3.1503906-0.4501953  C42.5292969,55.2998047,42.0800781,55.199707,41.6796875,55.1000977z M59.7792969,36.1499023l-0.0488281,0.4501953  c-0.0996094,0.3330078-0.2011719,0.5664063-0.3007813,0.699707c-0.4003906,0.7666016-1.1503906,1.4169922-2.25,1.9501953  c-0.5996094,0.2666016-1.4003906,0.4833984-2.4003906,0.6499023c-0.4316406,0.0668945-1.4667969,0.0668945-3.0996094,0l-2-0.4501953  L48.6308594,39c-0.5-0.1669922-1.0839844-0.5-1.75-1c-0.4667969-0.3666992-0.6679688-0.6166992-0.6015625-0.75  c0.1015625-0.1333008,0.4335938-0.1166992,1,0.0498047c0.3339844,0.0668945,0.9335938,0.25,1.8007813,0.550293l1,0.25  l1.8007813,0.25c1.5,0.0664063,2.4160156,0.0830078,2.75,0.0498047C55.5976563,38.2666016,56.2792969,38.1333008,56.6796875,38  l0.8007813-0.25l1.0488281-0.6000977c0.0683594-0.1333008,0.1679688-0.2333984,0.3007813-0.2998047l0.6992188-0.800293  l0.2011719-0.1000977L59.7792969,36.1499023z M37.7792969,38.449707l1.4003906-0.0996094  C39.5800781,38.3164063,40.0136719,38.199707,40.4804688,38c0.1992188-0.0668945,0.5-0.25,0.9003906-0.550293  c0.3320313-0.2329102,0.6992188-0.5498047,1.0996094-0.949707c0.3671875-0.300293,0.5996094-0.4169922,0.6992188-0.3500977  l0.0507813,0.1499023c0.0332031,0.1333008,0,0.3500977-0.0996094,0.6499023c-0.1347656,0.5-0.4003906,0.9667969-0.8007813,1.4003906  c-0.4335938,0.4331055-0.8164063,0.75-1.1503906,0.949707c-0.5,0.3334961-1.1171875,0.5332031-1.8496094,0.6000977  c-0.5664063,0.0668945-1.1660156,0-1.8007813-0.2001953c-0.5664063-0.1333008-0.9492188-0.3999023-1.1484375-0.7998047  C36.1796875,38.5,36.1972656,38.2666016,36.4296875,38.199707c0.0996094-0.0332031,0.2832031,0.0170898,0.5507813,0.1503906  C37.2460938,38.4165039,37.5136719,38.449707,37.7792969,38.449707z M29.5292969,29.6000977  C29.5976563,30,29.6308594,30.3999023,29.6308594,30.7998047c-0.0683594,0.6000977-0.25,1.2666016-0.5507813,2  c-0.0996094,0.2666016-0.1992188,0.5332031-0.3007813,0.800293c0.3339844-0.1000977,0.5175781-0.1835938,0.5507813-0.25  C29.5625,33.2832031,29.7460938,32.5830078,29.8808594,31.25v-0.3999023c0.0664063-0.2670898,0.0664063-0.5336914,0-0.800293  c-0.0683594-0.199707-0.1503906-0.3330078-0.25-0.3999023C29.5976563,29.6166992,29.5625,29.6000977,29.5292969,29.6000977z   M44.1308594,29.5498047c-0.3007813-0.199707-0.5683594-0.5-0.8007813-0.8999023  c-0.0332031-0.0332031-0.0507813-0.0668945-0.0507813-0.1000977L43.2304688,28.5v0.1000977l-0.5507813,1.449707  c-0.1992188,0.6333008-0.5332031,1.1166992-1,1.4501953c-0.4003906,0.3330078-0.8828125,0.5830078-1.4492188,0.75  c-0.5996094,0.1665039-1.0175781,0.2832031-1.25,0.3500977c-0.3007813,0.0996094-0.5996094,0.25-0.9003906,0.449707  c-0.2675781,0.1333008-0.5175781,0.3168945-0.75,0.550293L36.7304688,34.25L36.3808594,35  c-0.1347656,0.3330078-0.2832031,0.8833008-0.4511719,1.6499023C35.7636719,37.1831055,35.4140625,37.6333008,34.8808594,38  c-0.9335938,0.5-1.5332031,0.8500977-1.8007813,1.0498047C32.8125,39.25,32.6132813,39.4833984,32.4804688,39.75l0.5,0.25  c0.1328125,0.1000977,0.3496094,0.2333984,0.6503906,0.3999023c0.5996094,0.3999023,1,0.7167969,1.1992188,0.9501953  c0.4667969,0.5,0.8671875,1.1499023,1.1992188,1.949707c0.3671875,0.8999023,0.5839844,1.7832031,0.6503906,2.6499023  C36.7128906,46.3164063,36.6972656,46.6665039,36.6308594,47l-0.1015625,0.199707l-0.1484375-0.1499023l-0.4511719-0.949707  c-0.3671875-0.9003906-0.7167969-1.6333008-1.0488281-2.2001953c-0.4003906-0.6665039-0.7832031-1.1831055-1.1503906-1.5498047  c-0.2011719-0.2001953-0.5-0.4169922-0.9003906-0.6503906c-0.0332031-0.0332031-0.1992188-0.1333008-0.5-0.2998047  l-0.6992188-0.3500977c-0.2675781-0.1000977-0.5507813-0.2666016-0.8515625-0.5l-0.7988281-0.6499023l-0.7011719-0.8500977  l-0.8496094-1.6499023c-0.0332031-0.0668945-0.0664063-0.1333008-0.0996094-0.2001953  c-0.1660156,0.2670898-0.3164063,0.4335938-0.4492188,0.5c-0.1679688,0.1333008-0.3007813,0.2001953-0.4003906,0.2001953h-0.1503906  l-0.1503906-0.5498047c0-0.2670898-0.015625-0.5-0.0488281-0.7001953c-0.0332031-0.3999023-0.1171875-0.7998047-0.25-1.2001953  L26.7792969,35.25l-0.1484375-0.3999023l-0.25-0.4501953v-0.0498047l-0.4511719,0.3496094l-0.4492188,0.1503906  c-0.1328125-0.0668945-0.2167969-0.2167969-0.25-0.4501953l0.1503906-0.8500977  c0.0996094-0.2998047,0.2988281-0.699707,0.5996094-1.199707l0.4492188-0.550293  c0.3671875-0.3666992,0.6679688-0.4833984,0.9003906-0.3500977c0.3007813,0.1000977,0.3828125,0.4169922,0.25,0.9501953  c-0.0664063,0.2998047-0.1660156,0.5498047-0.3007813,0.75c-0.1328125,0.2001953-0.25,0.3833008-0.3496094,0.5498047  c0.1328125-0.0332031,0.4511719,0.0170898,0.9511719,0.1503906c0.0664063-0.0668945,0.1484375-0.1166992,0.25-0.1503906  l0.25-1.1499023C28.5136719,31.8500977,28.5625,31.25,28.5292969,30.75c0-0.4335938-0.0820313-0.8168945-0.25-1.1499023  l-0.5488281-1.4003906l-0.9003906-1.5l-0.1503906-0.1499023l-2.9003906,1.6000977  c-0.3320313,0.1665039-0.6816406,0.3999023-1.0488281,0.7001953l-0.4511719,0.3496094  c-0.0996094,0.1000977-0.1484375,0.2167969-0.1484375,0.3500977c0,0.0332031-0.0175781,0.1333008-0.0507813,0.300293  c0.0332031,0.2329102,0.1171875,0.5332031,0.25,0.8999023l1.1992188,3.3500977c0.4667969,1.4331055,0.7167969,2.5996094,0.75,3.5  c0.0332031,0.2666016,0.0332031,0.5332031,0,0.7998047v0.0498047c0.1015625,0.3334961,0.2167969,0.8833008,0.3515625,1.6503906  c0.1992188,0.6665039,0.4160156,1.2163086,0.6484375,1.6499023L26.8808594,45  c0.2988281,0.6000977,0.5820313,1.1166992,0.8496094,1.5498047L28.5292969,47.75  c0.4667969,0.6333008,0.734375,0.9833984,0.8007813,1.0498047c0.4335938,0.5332031,1.0507813,0.9833984,1.8496094,1.3500977  c0.4335938,0.2666016,1.0664063,0.5332031,1.9003906,0.7998047c0.4003906,0.1333008,0.6992188,0.2001953,0.9003906,0.2001953  l0.4003906,0.0498047h0.2988281c0.5332031-0.0996094,1.1503906-0.6499023,1.8496094-1.6499023l1-1.75  c0.1015625-0.2333984,0.3007813-0.5664063,0.6015625-1c-0.1679688-0.5-0.3339844-1.1000977-0.5-1.7998047l-0.3007813-2.5  c-0.0996094-1.6333008-0.0996094-2.4667969,0-2.5c0.1660156,0,0.4492188,0.7998047,0.8496094,2.3999023l0.5507813,2.3999023  c0.3320313,1.1669922,0.6328125,2.0332031,0.9003906,2.6000977c0.6992188,1.4667969,1.0996094,2.3833008,1.1992188,2.75  l0.3496094,1.4501953c0,0.7998047-0.015625,1.2666016-0.0488281,1.3999023c-0.0683594,0.3666992-0.1503906,0.7167969-0.25,1.0498047  c0.5-0.0332031,1.2832031-0.0166016,2.3496094,0.050293l3.0488281,0.199707  c1.9667969,0.1000977,3.7675781,0.050293,5.4003906-0.1499023c0.5-0.0668945,1.1835938-0.1831055,2.0507813-0.3500977  l-0.0253906,0.0249023L53.9804688,53.75c0.1132813-0.0126953,0.2304688-0.0292969,0.3496094-0.050293l0.0996094-0.0498047  c0.4003906-0.1000977,0.7167969-0.1665039,0.9511719-0.2001953c0.0664063-0.199707,0.1484375-0.4829102,0.25-0.8496094  c0.4316406-0.8666992,0.75-1.5170898,0.9492188-1.9501953c0.6992188-1.4331055,1.3671875-2.6166992,2-3.5498047  c0.5332031-0.7333984,0.9160156-1.1669922,1.1503906-1.300293l-0.3496094-0.6499023  c-0.3339844-0.8666992-0.5332031-1.75-0.6015625-2.6499023c-0.0996094-0.9667969-0.0996094-1.8168945,0-2.550293L58.8808594,39.5  l0.1484375,0.449707l0.5,2.4501953c0.3671875,1.2001953,0.6503906,2,0.8515625,2.3999023l0.3984375,0.6000977l1.9003906,2.25  c0.9003906,1.1000977,1.4179688,1.75,1.5507813,1.9501953l0.5996094,1.0498047  c0.0664063,0.1665039,0.0996094,0.3666992,0.0996094,0.6000977c0,0.5664063,0.0332031,0.8833008,0.0996094,0.949707  c0.4667969,0.6669922,1.1503906,0.9003906,2.0507813,0.7001953c0.8339844-0.2333984,1.8339844-0.7333984,3-1.5L71.8300781,50  c0.9335938-0.6000977,1.6503906-1.7832031,2.1503906-3.550293c0.3320313-1.0664063,0.6328125-2.5166016,0.9003906-4.3496094  c0.0996094-0.9003906,0.1992188-1.5,0.2988281-1.800293V40.25c-0.0664063-0.3334961-0.0664063-0.7333984,0-1.2001953  c0.0996094-0.8666992,0.4335938-2.0166016,1-3.449707l1.4003906-3.25c0.2324219-0.4667969,0.3496094-0.8666992,0.3496094-1.2001953  l-0.1503906-0.2998047l-0.3984375-0.4003906c-0.2675781-0.2666016-0.6015625-0.5166016-1-0.75l-2.8515625-1.7998047h-0.0488281  l-0.1503906,0.1499023l-0.9492188,1.3999023l-0.7011719,1.4003906c-0.1660156,0.3666992-0.25,0.7163086-0.25,1.0498047  C71.3300781,32.5,71.3476563,33.1333008,71.4804688,33.7998047l0.1503906,1.1000977  c0.265625,0.1333008,0.3984375,0.25,0.3984375,0.3500977c0.0332031-0.0332031,0.0839844-0.050293,0.1503906-0.050293  C72.3476563,35.0332031,72.546875,34.9667969,72.7792969,35c-0.1328125-0.2001953-0.25-0.3833008-0.3496094-0.550293  c-0.1328125-0.2329102-0.2167969-0.5-0.25-0.7998047c-0.0664063-0.5332031,0.0507813-0.8500977,0.3496094-0.9501953  c0.234375-0.0664063,0.5175781,0.0668945,0.8515625,0.4003906l0.4492188,0.5996094l0.5507813,1.25  c0.0996094,0.3666992,0.1152344,0.6503906,0.0488281,0.8500977c-0.0332031,0.2333984-0.1171875,0.3833008-0.25,0.4501953  c-0.1328125,0-0.2988281-0.0668945-0.5-0.2001953l-0.4003906-0.3999023c0,0.0332031-0.015625,0.0668945-0.0488281,0.1000977  l-0.5507813,1c-0.1660156,0.3330078-0.3164063,0.9331055-0.4492188,1.7998047  C72.1972656,38.8164063,72.1308594,39,72.0292969,39.1000977c-0.0996094,0.0664063-0.25,0-0.4492188-0.2001953  c-0.2324219-0.1665039-0.4003906-0.4667969-0.5-0.8999023c-0.1328125-0.7001953-0.0507813-1.3666992,0.25-2l0.1992188-0.2001953  L71.4804688,35.75c-0.0332031-0.0332031-0.0507813-0.0668945-0.0507813-0.1000977L70.7792969,35.75h-0.5l-0.3496094-0.050293  l-0.3496094-0.25c0,0.300293,0,0.4833984,0,0.550293l0.1503906,0.8500977  c0.1328125,0.4663086,0.1660156,0.8666992,0.0996094,1.199707c-0.1328125,0.7333984-0.5664063,1.4169922-1.3007813,2.050293  l-0.7988281,0.699707c-0.734375,0.6000977-1.1328125,0.9169922-1.2011719,0.9501953l-0.8496094,0.949707  c-0.4003906,0.7001953-0.6660156,1.3168945-0.7988281,1.8500977C64.8125,44.75,64.6640625,45.6333008,64.4296875,47.199707  C64.3300781,48,64.2128906,48.4331055,64.0800781,48.5c-0.1328125-0.0668945-0.2675781-0.5166016-0.4003906-1.3500977  c-0.1660156-1-0.1835938-1.9667969-0.0488281-2.8999023c0.0664063-0.7666016,0.3652344-1.5668945,0.8984375-2.3999023  c0.4335938-0.6333008,0.75-1.0336914,0.9511719-1.2001953l1.8496094-1.4501953  c-0.1992188-0.3330078-0.3007813-0.8330078-0.3007813-1.5L67.0800781,36l-0.1503906-1  c-0.2324219-0.7666016-0.3496094-1.1669922-0.3496094-1.2001953C66.3808594,33.199707,66.1640625,32.75,65.9296875,32.449707  L65.5292969,31.75l-0.5-0.6499023c-0.4316406-0.5668945-0.8828125-1.0170898-1.3496094-1.3500977  c-0.5996094-0.3999023-1.2167969-0.6499023-1.8496094-0.75l-1.3496094-0.1499023  c-1.2675781-0.1333008-2.3164063-0.5170898-3.1503906-1.1503906c-0.7324219-0.5664063-1.4003906-1.3833008-2-2.449707  c-0.2675781-0.5-0.4160156-0.8500977-0.4492188-1.050293c-0.6015625,0-1.2167969-0.0664063-1.8515625-0.199707  c-0.1660156-0.0332031-0.3828125-0.1333008-0.6484375-0.300293C52.3125,24.2333984,52.046875,24.75,51.5800781,25.25  l-2.0507813,1.449707c-0.2324219,0.1669922-0.515625,0.4667969-0.8496094,0.9003906l-0.8496094,1  c-0.5996094,0.5996094-1.25,1-1.9492188,1.199707C45.2792969,30,44.6972656,29.9165039,44.1308594,29.5498047z   M41.9804688,20.3999023l-0.3496094,0.9501953c-0.2675781,0.5996094-0.484375,1-0.6503906,1.199707l-0.4511719,0.3999023  l-0.8984375,0.4501953h0.0488281l0.25,0.1499023c0.4667969,0.1333008,0.9335938,0.1669922,1.4003906,0.1000977h0.6503906  c0.1328125-0.1333008,0.2832031-0.2666016,0.4492188-0.3999023v-0.1499023l-0.0488281-0.25l-0.2011719-0.5l-0.1503906-0.7001953  L41.9804688,20.3999023z M48.8300781,19.1000977C49.1308594,19.2333984,49.1796875,19.5332031,48.9804688,20  c-0.0664063,0.2666016-0.2011719,0.5-0.4003906,0.699707c-0.6328125,0.5668945-1.25,0.800293-1.8496094,0.7001953  l-0.4003906-0.2001953l0.0996094-0.5c0.0996094-0.1665039,0.4667969-0.5498047,1.0996094-1.1499023  c-0.0332031,0,0.1171875-0.1000977,0.4511719-0.2998047C48.2792969,19.0166016,48.5625,18.9667969,48.8300781,19.1000977z   M42.9296875,15.8500977c-0.1660156-0.0336914-0.8671875-0.0170898-2.0996094,0.0498047  c-0.4667969,0.0668945-0.9492188,0-1.4492188-0.2001953c-0.4335938-0.1665039-0.8007813-0.3666992-1.1015625-0.5996094  c-0.6328125-0.5336914-0.9667969-0.8168945-1-0.8500977c-0.3984375-0.3999023-0.7988281-1-1.1992188-1.800293l-0.3496094-0.8999023  l-0.5996094-2.1499023l-0.0507813-0.1000977c0,0.1000977,0.0175781,0.2001953,0.0507813,0.300293  c0.1328125,0.5664063,0.25,1.5498047,0.3496094,2.949707c0.1992188,1.3666992,0.515625,2.5668945,0.9492188,3.6000977  c0.0332031,0.0332031,0.2167969,0.3833008,0.5507813,1.0498047c0.4667969,0.7001953,0.9824219,1.25,1.5488281,1.6503906  c0.5,0.3999023,1.2167969,0.7163086,2.1503906,0.949707c0.2011719,0.0332031,0.3828125,0.0834961,0.5507813,0.1499023  c0.0664063-0.0664063,0.1328125-0.1166992,0.1992188-0.1499023c0.234375-0.1333008,0.4335938-0.1665039,0.5996094-0.1000977  c0.1015625-1.6333008,0.5507813-2.7998047,1.3515625-3.5c0.0332031-0.0332031,0.0820313-0.0664063,0.1484375-0.0996094  C43.3300781,15.9667969,43.1308594,15.8833008,42.9296875,15.8500977z M53.6796875,15.6000977  c-1.0996094,0-2,0.0996094-2.6992188,0.2998047C50.546875,16,50.2304688,16.199707,50.0292969,16.5  c-0.1992188,0.2666016-0.2988281,0.5830078-0.2988281,0.949707c0,0.2670898,0.015625,0.5834961,0.0488281,0.9501953  c0,0.2333984-0.0332031,0.3666992-0.0996094,0.3999023c-0.2324219,0.0668945-0.4824219-0.3500977-0.75-1.25  c-0.1328125-0.5-0.1171875-0.9667969,0.0507813-1.3999023C48.8125,16.1166992,48.6132813,16.0664063,48.3808594,16  l-0.9003906-0.2001953c-0.5332031-0.0664063-1.0664063-0.0498047-1.5996094,0.050293  c-0.4335938,0.1333008-0.734375,0.199707-0.9003906,0.199707L44.6796875,16c-0.265625,0.2333984-0.5,0.4667969-0.6992188,0.699707  c-0.6328125,0.8666992-0.8671875,2.1000977-0.7011719,3.7001953l0.1015625,1.0498047l0.3496094,0.9501953  c0.0996094,0.3999023,0.1503906,0.6333008,0.1503906,0.7001953l0.0488281,0.25l-0.25,0.699707  C43.2460938,24.449707,43.0136719,24.6831055,42.9804688,24.75l-0.0507813,0.0498047l0.0507813,0.050293l0.1503906,0.25  c0.3320313,0.3330078,0.5,0.5498047,0.5,0.6499023c0.1660156,0.3330078,0.2167969,0.6831055,0.1484375,1.0498047  l-0.0488281,0.300293c0.0664063,0.0332031,0.1328125,0.0664063,0.1992188,0.0996094  c0.4003906,0.1000977,0.734375,0.050293,1-0.1499023l0.3007813-0.25l0.2988281-0.699707  c0.0683594-0.3666992,0.0507813-0.6669922-0.0488281-0.9003906c-0.0332031-0.3330078-0.0332031-0.5332031,0-0.5996094  c0.0996094-0.2001953,0.3164063-0.1669922,0.6503906,0.0996094c0.4316406,0.3666992,0.6484375,0.8500977,0.6484375,1.4501953  c0.0332031,0.5332031-0.0996094,1.0498047-0.3984375,1.5498047c-0.234375,0.4003906-0.4335938,0.6000977-0.6015625,0.6000977  c-0.1660156,0.1669922-0.3496094,0.2832031-0.5488281,0.3500977c0.0996094,0,0.1992188-0.0332031,0.2988281-0.1000977  c0.3671875-0.1665039,0.7832031-0.5,1.25-1l0.7011719-0.8999023c0.5-0.6000977,0.8320313-0.9667969,1-1.1000977  c0.0332031,0,0.2988281-0.1831055,0.7988281-0.5498047c0.3007813-0.2001953,0.5507813-0.3334961,0.75-0.3999023L50.7304688,24.25  c0.4003906-0.2666016,0.6835938-0.5834961,0.8496094-0.9501953c0.0332031-0.1000977,0.0839844-0.1831055,0.1503906-0.25  l-0.2011719-0.199707l-0.25-0.4501953c-0.1660156-0.3334961-0.2832031-0.8168945-0.3496094-1.4501953  c-0.0332031-0.2329102-0.0488281-0.6665039-0.0488281-1.2998047l0.0996094-0.25l0.1503906,0.1499023  c0.0996094,0.1333008,0.2832031,0.550293,0.5488281,1.25c0.234375,0.5668945,0.4003906,0.9335938,0.5,1.1000977l0.2011719,0.2998047  l0.2988281,0.2001953c0.3671875,0.2001953,0.5996094,0.3168945,0.7011719,0.3500977  c0.8320313,0.1333008,1.5996094,0.0664063,2.2988281-0.2001953c0.1679688-0.0332031,0.3164063-0.1166992,0.4511719-0.25  l0.0996094-0.25c0.0332031-0.0332031,0.0332031-0.0664063,0-0.1000977V22h-1.0996094l-0.3515625-0.050293l-0.5996094-0.3496094  c-0.2988281-0.2333984-0.5996094-0.5834961-0.9003906-1.050293c-0.3320313-0.5664063-0.5332031-0.8833008-0.5996094-0.949707  c-0.4003906-0.5-0.9335938-0.75-1.5996094-0.75c-0.3339844,0.0664063-0.5664063,0.0996094-0.6992188,0.0996094  c-0.234375,0.0336914-0.3671875,0.0170898-0.4003906-0.0498047c-0.0664063-0.0668945-0.0175781-0.1831055,0.1503906-0.3500977  c0.1660156-0.199707,0.4160156-0.3666992,0.75-0.5c0.5-0.1333008,0.9160156-0.1665039,1.25-0.1000977  c0.6328125,0.1333008,1.1152344,0.3666992,1.4492188,0.7001953C53.8476563,18.8833008,54.1464844,19.25,54.4804688,19.75  L54.6796875,20c0.2011719-0.1333008,0.4667969-0.2666016,0.8007813-0.3999023c0.5-0.2001953,1.3828125-0.550293,2.6503906-1.050293  l1.25-0.699707c0.5996094-0.4003906,0.9160156-0.6166992,0.9492188-0.6503906l0.9003906-0.8999023l0.5996094-0.8999023  L62.2304688,14.5c0.1660156-0.300293,0.265625-0.6166992,0.2988281-0.9501953  c0.1347656-0.3999023,0.2011719-0.6831055,0.2011719-0.8500977c0.1328125-0.5664063,0.1503906-1.5664063,0.0488281-3  C62.6464844,8.9331055,62.4296875,8.25,62.1308594,7.6499023C62.0625,7.5498047,61.9960938,7.449707,61.9296875,7.3500977  c0.4335938,1.5332031,0.5,2.9331055,0.2011719,4.199707c-0.4003906,1.3666992-1.1679688,2.3833008-2.3007813,3.050293  c-0.4667969,0.2998047-1.1835938,0.5830078-2.1503906,0.8496094c-0.3671875,0.1000977-0.7832031,0.1503906-1.25,0.1503906  c-0.5664063,0.0332031-1,0.0498047-1.2988281,0.0498047L53.6796875,15.6000977z M32.8808594,5.6499023  c0.2988281,0.0668945,0.5664063,0.1499023,0.7988281,0.25c0.8671875,0.3666992,1.5664063,0.9667969,2.0996094,1.7998047  l-0.0488281-0.0498047c0.3671875,0.5,0.5996094,0.9165039,0.6992188,1.25l0.5,1.3999023  c0.4003906,1.2666016,0.9003906,2.2333984,1.5,2.8999023c0.0332031,0.0336914,0.2675781,0.2670898,0.7011719,0.7001953  l0.75,0.4501953c0.3984375,0.1665039,0.7324219,0.25,1,0.25c1.2324219,0.0996094,2.0488281,0.2666016,2.4492188,0.5  c0.2675781,0.1665039,0.4492188,0.3999023,0.5507813,0.699707c0.1992188-0.1665039,0.4316406-0.2832031,0.6992188-0.3500977  v-0.0498047c0.1660156-0.2666016,0.4667969-0.5332031,0.9003906-0.7998047c0.7324219-0.4003906,1.5-0.5,2.2988281-0.300293  l0.4003906,0.1499023c0.3339844,0.1000977,0.5996094,0.25,0.8007813,0.4501953c0.2324219,0.1333008,0.4003906,0.2998047,0.5,0.5  c0.265625-0.2998047,0.6171875-0.5498047,1.0488281-0.75c0.7675781-0.2998047,1.8007813-0.4833984,3.1015625-0.5498047l1.5-0.050293  c1.5664063,0.1333008,2.8652344-0.1000977,3.8984375-0.699707c0.9667969-0.5668945,1.5839844-1.300293,1.8515625-2.2001953  c0.265625-0.8334961,0.3496094-2.1000977,0.25-3.7998047L60.9804688,6.199707L60.1308594,5.25L60.0292969,5l0.25,0.0498047  C60.8125,5.25,61.296875,5.5166016,61.7304688,5.8500977c0.3320313,0.199707,0.765625,0.5996094,1.2988281,1.199707  c0.4667969,0.7333984,0.8183594,1.5332031,1.0507813,2.3999023c0.2324219,1.4667969,0.2832031,2.6333008,0.1503906,3.5  c0,0.2001953-0.0664063,0.5336914-0.2011719,1l-0.8496094,2.2001953l-0.75,1.1000977  c0,0.0332031-0.3828125,0.3833008-1.1503906,1.0498047c-0.1660156,0.1669922-0.5820313,0.4335938-1.25,0.800293L58.5800781,19.75  c-1.0332031,0.2998047-1.9824219,0.5-2.8496094,0.6000977c-0.2011719,0.0332031-0.3828125,0.0664063-0.5507813,0.0996094h0.0507813  L55.2792969,20.5h0.1015625l0.2988281-0.050293h0.5507813c0.3671875,0,0.6660156,0.0668945,0.9003906,0.2001953l0.3496094,0.2998047  l0.1992188,0.4003906l0.0996094,0.449707v0.3999023c-0.0332031,0.5-0.25,0.9169922-0.6484375,1.25  C56.8300781,23.7167969,56.5136719,23.8999023,56.1796875,24c-0.265625,0.1000977-0.5488281,0.1499023-0.8496094,0.1499023  c0.1660156,0.1333008,0.4003906,0.3334961,0.6992188,0.6000977c0.734375,0.8666992,1.4179688,1.4833984,2.0507813,1.8500977  C58.6132813,27,59.4296875,27.2333984,60.5292969,27.2998047l1.5507813,0.1499023  c0.9667969,0.1669922,1.8164063,0.5336914,2.5507813,1.1000977c0.3652344,0.300293,0.8828125,0.8500977,1.5488281,1.6499023  c0.1328125,0.2001953,0.3339844,0.4833984,0.5996094,0.8500977l0.4511719,0.75  c0.1992188,0.3666992,0.4003906,0.8999023,0.5996094,1.6000977c0.0664063,0.2001953,0.1503906,0.6831055,0.25,1.4501953  l0.0996094,0.5996094l-0.0488281,0.6503906l-0.3007813,1.699707c-0.0996094,0.3666992-0.1503906,0.7333984-0.1503906,1.1000977  c0.5-0.5,0.8007813-0.8500977,0.9003906-1.0498047c0.0332031-0.1333008,0.0664063-0.4335938,0.0996094-0.9003906  c0-0.4663086,0.0332031-0.7998047,0.0996094-1c0.0683594-0.2998047,0.1835938-0.5332031,0.3515625-0.699707  c0.0332031-0.0668945,0.0820313-0.1000977,0.1484375-0.1000977c-0.0996094-0.1000977-0.1816406-0.2167969-0.25-0.3500977  l-0.2988281-0.699707c-0.1679688-0.8334961-0.25-1.4169922-0.25-1.75c0-0.1669922,0.015625-0.3666992,0.0488281-0.6000977  c0.1015625-0.4335938,0.2675781-0.8334961,0.5-1.2001953c0.1679688-0.2666016,0.3847656-0.4667969,0.6503906-0.6000977  c0.234375-0.0996094,0.484375-0.1166992,0.75-0.0498047c0.1328125,0.0668945,0.234375,0.1333008,0.3007813,0.2001953  c0.1660156-0.5336914,0.3496094-0.9501953,0.5488281-1.25c0.2675781-0.6000977,0.6015625-1.1835938,1-1.75  c0.3339844-0.3334961,0.5332031-0.5170898,0.6015625-0.550293c0.3320313-0.1665039,0.6484375-0.199707,0.9492188-0.1000977  c0.0664063,0.0336914,0.3164063,0.1503906,0.75,0.3500977l3.75,2.4501953l0.6503906,0.6499023  c0.2324219,0.3334961,0.3671875,0.6665039,0.4003906,1C79.4804688,31,79.4960938,31.25,79.4296875,31.6499023  C79.3300781,32.0830078,79.1464844,32.5332031,78.8808594,33l-1.5507813,3.1499023  c-0.6660156,1.3334961-1.1171875,2.3666992-1.3496094,3.1000977c-0.1679688,0.699707-0.3007813,1.1499023-0.4003906,1.3500977  c0.0332031,0.3330078,0.0664063,0.8496094,0.0996094,1.5498047c0.0664063,1.6333008-0.0820313,3.1831055-0.4492188,4.6499023  c-0.5,2.0668945-1.3164063,3.5332031-2.4511719,4.3999023l-1.7988281,1.4003906  c-1.3007813,0.9663086-2.484375,1.5664063-3.5507813,1.7998047c-0.7988281,0.1665039-1.5,0.1333008-2.0996094-0.1000977  C65.0625,54.1665039,64.7792969,53.9833984,64.4804688,53.75c-0.1679688-0.1000977-0.4003906-0.3334961-0.7011719-0.7001953  c-0.1992188-0.2666016-0.2988281-0.6499023-0.2988281-1.1499023v-0.75l-0.4003906-0.75l-3.0507813-4l-0.1484375-0.2998047  C59.7792969,46.3999023,59.5800781,46.8666992,59.2792969,47.5l-2.2988281,5.6000977l-0.1503906,0.75  c-0.0332031,0.199707,0,0.3999023,0.0996094,0.5996094c0.2011719,0.5336914,0.5,1.0170898,0.9003906,1.4501953  c1.5,1.7666016,2.6171875,3.5,3.3496094,5.2001953c0.7011719,1.5664063,1.1328125,3.0830078,1.3007813,4.5498047  c0.1992188,0.0332031,0.4667969,0.0668945,0.7988281,0.1000977c0.8339844,0.2666016,1.484375,0.2666016,1.9511719,0  c0.5-0.1669922,1.015625-0.5834961,1.5488281-1.25l0.5507813-1c0.2675781-0.3999023,0.6503906-0.9833984,1.1503906-1.75  c0.4667969-0.5668945,1.015625-0.9833984,1.6503906-1.25c0.5664063-0.300293,1.1484375-0.4169922,1.75-0.3500977  c0.5332031,0,1,0.0498047,1.3984375,0.1499023c0.8339844,0.1669922,1.4179688,0.2001953,1.75,0.1000977  c0.3339844-0.1000977,0.6171875-0.2998047,0.8515625-0.6000977l0.25-0.3500977c0-0.1665039,0-0.3330078,0-0.5l-0.0507813-0.8999023  l0.0507813-0.199707l0.1992188,0.0996094c0.3007813,0.300293,0.5,0.5834961,0.5996094,0.8500977  c0.234375,0.9335938,0.2167969,1.8666992-0.0488281,2.800293c-0.2011719,0.7329102-0.5175781,1.4165039-0.9511719,2.0498047  c-0.265625,0.4331055-0.5996094,0.7998047-1,1.1000977l-0.75,0.449707c-0.0332031,0.0336914-0.3164063,0.1333008-0.8496094,0.300293  l-0.3007813,0.1000977l-0.6992188,0.0498047c-0.6992188,0-1.3339844-0.0668945-1.9003906-0.2001953l-1.75-0.3999023  c-0.1660156-0.0332031-0.2988281-0.0830078-0.4003906-0.1499023l-0.2988281,0.4501953  C67.3476563,66.1499023,66.5625,66.699707,65.6308594,67l-0.4003906,0.1000977h-0.3496094  c-0.234375,0.0332031-0.484375,0-0.75-0.1000977c-0.2675781-0.0668945-0.6503906-0.2167969-1.1503906-0.4501953  C62.8125,66.449707,62.6796875,66.3500977,62.5800781,66.25c0.0996094,1.1000977,0.1171875,2.0498047,0.0507813,2.8500977  c0,0.4331055-0.0332031,0.9331055-0.1015625,1.5c0.1347656,0,0.3339844,0.0166016,0.6015625,0.0498047  c1,0.2666016,1.6328125,0.4667969,1.8984375,0.6000977l0.5,0.3999023L65.9804688,72.25  c0.0664063,0.0664063,0.1660156,0.2666016,0.2988281,0.6000977l0.25,0.6499023  c0.0683594,0.2998047,0.2011719,1.1000977,0.4003906,2.3999023l0.0507813,0.0498047l0.2988281,5.2001953l-0.0996094,2.3999023  c0,0.7333984,0.0507813,1.3666992,0.1503906,1.8999023c0.1328125,0.4335938,0.3339844,0.9169922,0.5996094,1.4501953  c0.6328125,1.2001953,1.0507813,2.0498047,1.25,2.5498047c0.1679688,0.3666992,0.2832031,0.7167969,0.3496094,1.050293  l0.2011719,1.3500977L69.5800781,92.75l-0.4003906,0.75l-0.0996094,0.1000977l-0.6992188,0.449707  c-0.1347656,0.1000977-0.25,0.1669922-0.3515625,0.2001953c-0.1992188,0.1000977-0.4316406,0.1665039-0.6992188,0.199707  c-0.4335938,0.0668945-0.8828125-0.2329102-1.3496094-0.8999023l-0.7011719-1.449707l-0.0996094-0.1503906  c0,0.0336914-0.015625,0.0834961-0.0488281,0.1503906c-0.0332031,0.2329102-0.0507813,0.6665039-0.0507813,1.2998047  c-0.0996094,0.4331055-0.1992188,0.75-0.3007813,0.9501953C64.5800781,94.7167969,64.2636719,94.9331055,63.8300781,95h-0.8007813  l-0.6484375-0.1499023c-0.5332031-0.2670898-1.0507813-0.6503906-1.5507813-1.1503906  c-0.3339844-0.2329102-0.5996094-0.5332031-0.8007813-0.8999023c-0.0996094-0.1333008-0.1816406-0.2666016-0.25-0.3999023  l-0.1484375-0.2998047c-0.0683594-0.1333008-0.1171875-0.25-0.1503906-0.3500977v-0.300293l0.1992188-1.3999023  c0.1328125-0.5,0.4179688-1.1499023,0.8496094-1.949707c0.5-1.0668945,0.75-1.9169922,0.75-2.550293  c0-1.3999023-0.2167969-2.6831055-0.6484375-3.8500977l-0.5-0.949707c-0.1015625-0.2001953-0.3515625-0.5-0.75-0.8999023  C58.5136719,79.1166992,57.8125,78.5,57.2792969,78c-0.4316406-0.3666992-0.8496094-0.8999023-1.25-1.6000977  c-0.0996094-0.1333008-0.3320313-0.7167969-0.6992188-1.75C55.2636719,74.1831055,55.046875,73.6333008,54.6796875,73  c-0.4335938-0.7333984-1.1171875-1.6499023-2.0488281-2.75c-0.4003906-0.5-0.6503906-0.8500977-0.75-1.050293  c-0.0683594,0.0336914-0.1171875,0.0668945-0.1503906,0.1000977c-0.5332031,0.3999023-1.1679688,0.6835938-1.9003906,0.8500977  c-0.7675781,0.1333008-1.4160156,0.2167969-1.9492188,0.25c-1.8339844,0-3.2675781-0.2832031-4.3007813-0.8500977  c-0.2324219-0.1333008-0.4824219-0.3330078-0.75-0.6000977c-0.0332031-0.0332031-0.0507813-0.0664063-0.0507813-0.0996094  c-0.1328125,0.4331055-0.3652344,0.8496094-0.6992188,1.25c-0.3339844,0.3666992-0.7675781,0.6831055-1.3007813,0.949707  l-0.6992188,0.25c-0.0332031,0-0.0507813,0.0166016-0.0507813,0.050293l0.25,0.0996094L40.8808594,72l0.4492188,0.699707  c0.1660156,0.3334961,0.3671875,0.8500977,0.5996094,1.550293c0.234375,0.6000977,0.4511719,1.0332031,0.6503906,1.2998047  c0.0996094,0.1000977,0.4003906,0.3666992,0.9003906,0.800293l1.3496094,1  c0.3339844,0.3999023,0.5175781,0.7998047,0.5507813,1.199707c0,0.3334961-0.0683594,0.6835938-0.2011719,1.050293  l-1.0996094,1.8496094L43.4804688,83.25c-0.2011719,0.5-0.7167969,1.1166992-1.5507813,1.8500977  c-0.4003906,0.3666992-0.6835938,0.7329102-0.8496094,1.0996094V86.25c-0.1328125,0.3330078-0.1992188,0.75-0.1992188,1.25  l0.0488281,1.25c0,0.6333008-0.0996094,1.1499023-0.2988281,1.5498047c-0.1347656,0.2666016-0.2832031,0.4335938-0.4511719,0.5  l-0.0996094,0.050293V90.75l0.0507813-0.1000977l-0.1503906,0.1499023c-0.7011719,0.4667969-1.0664063,0.7167969-1.0996094,0.75  l-1.3007813,0.5c-1.1328125,0.300293-1.8007813,0.4667969-2,0.5c-0.8007813,0.1000977-1.25,0.1499023-1.3496094,0.1499023  c-0.3339844,0-0.5996094-0.0166016-0.8007813-0.0498047c-0.4667969-0.0668945-0.8320313-0.2666016-1.0996094-0.6000977  c-0.3007813-0.3999023-0.3671875-0.8666992-0.1992188-1.3999023c0.03125-0.0625,0.0644531-0.1123047,0.0996094-0.1499023  c-0.1347656,0.1347656-0.2519531,0.2514648-0.3496094,0.3500977c-0.2675781,0.3330078-0.6015625,0.5498047-1,0.6499023  c-0.2675781,0.1000977-0.5839844,0.1166992-0.9511719,0.0498047c-0.4003906-0.1333008-0.6171875-0.2666016-0.6503906-0.3999023  c0-0.0332031,0-0.0668945,0-0.1000977h0.0507813v-0.25L29.7792969,89c0.1015625-0.5668945,0.3339844-1.2001953,0.7011719-1.8999023  c0.4003906-0.5336914,0.6992188-0.8833008,0.9003906-1.050293c0.1328125-0.1665039,0.5488281-0.5,1.25-1l1.7988281-1.1499023  l0.3007813-0.2998047l0.5996094-0.75c0.1660156-0.2001953,0.4160156-0.5170898,0.75-0.9501953  C36.3808594,81.5332031,36.7792969,81.2333984,37.2792969,81l1.2011719-0.550293l0.25-0.1499023L38.3808594,80.25  c-0.0332031,0-0.3515625-0.050293-0.9511719-0.1499023l-1.7988281-0.6503906c-0.4667969-0.2329102-0.984375-0.5664063-1.5507813-1  c-0.5996094-0.4331055-1.0332031-0.7329102-1.3007813-0.8999023c-0.765625-0.5664063-1.1328125-0.8833008-1.0996094-0.949707  C31.2460938,76.5,30.9472656,76.3833008,30.7792969,76.25c-0.5-0.3334961-0.8496094-0.9335938-1.0488281-1.800293  c-0.234375-1-0.3007813-2.0664063-0.2011719-3.199707c0.0683594-0.7333984,0.2675781-1.4667969,0.6015625-2.2001953  c0.1660156-0.3330078,0.5820313-1.0664063,1.25-2.199707c0.5-0.7670898,0.8320313-1.5834961,1-2.4501953  c0.265625-1.3666992,0.5488281-2.4667969,0.8496094-3.2998047c0.3671875-1.0336914,1.1660156-2.1503906,2.4003906-3.3500977  c0.3320313-0.300293,0.8652344-0.7666016,1.5996094-1.3999023c0.6328125-0.6000977,1.1171875-1.1166992,1.4492188-1.550293  c0.4667969-0.5664063,0.7832031-1.2666016,0.9511719-2.1000977c0.2324219-0.7998047-0.1503906-2.3999023-1.1503906-4.7998047  c-0.0332031-0.0668945-0.0664063-0.1499023-0.0996094-0.25l-0.1503906,0.4501953  c-0.3671875,0.9663086-0.6328125,1.6333008-0.8007813,2c-0.265625,0.5-0.5332031,0.9331055-0.7988281,1.2998047  c-0.6015625,0.5668945-1.1679688,0.9165039-1.7011719,1.0498047L34.3300781,52.5l-1.6503906-0.2001953  C31.7792969,52.0332031,31.046875,51.7666016,30.4804688,51.5c-1-0.5332031-1.7675781-1.0834961-2.3007813-1.6499023  c-0.4003906-0.5336914-0.7167969-0.9335938-0.9492188-1.2001953c-0.3339844-0.4667969-0.6171875-0.9165039-0.8496094-1.3500977  c-0.2675781-0.4331055-0.5332031-0.9667969-0.8007813-1.6000977l-1.4492188-3.3999023  c-0.3007813-0.699707-0.484375-1.3666992-0.5507813-2c-0.0664063-0.4331055-0.0996094-1.0166016-0.0996094-1.75  c-0.0332031-0.3666992-0.0507813-0.6665039-0.0507813-0.8999023c-0.2988281-1-0.6660156-2.0332031-1.0996094-3.1000977  L20.9296875,31.25c-0.1992188-0.4667969-0.3320313-0.9169922-0.4003906-1.3500977  c0.0332031-0.4667969,0.0507813-0.7167969,0.0507813-0.75c0.0996094-0.3666992,0.2832031-0.6831055,0.5507813-0.9501953  c0.1992188-0.2666016,0.4160156-0.4663086,0.6484375-0.5996094c0.3007813-0.2670898,0.7167969-0.5336914,1.25-0.800293  l3.4511719-1.699707c0.4003906-0.0668945,0.7167969,0,0.9492188,0.199707  c0.1679688,0.1333008,0.3496094,0.3334961,0.5507813,0.6000977c0.3671875,0.5332031,0.6835938,1.1333008,0.9492188,1.7998047  c0.2011719,0.5336914,0.3339844,0.9501953,0.4003906,1.25c0.0996094-0.0664063,0.2167969-0.1166992,0.3496094-0.1499023  c0.2011719-0.0664063,0.4511719-0.0332031,0.75,0.1000977c0.3007813,0.1665039,0.5,0.3833008,0.5996094,0.6499023  c0.3339844,0.6333008,0.4667969,1.2333984,0.4003906,1.800293c-0.0332031,0.3666992-0.1660156,0.949707-0.4003906,1.75  l-0.2988281,0.699707c-0.2675781,0.3666992-0.4667969,0.5668945-0.5996094,0.6000977l-0.4003906,0.2001953l-0.3496094,0.0498047  c-0.1347656,0.0332031-0.3007813,0.0166016-0.5-0.0498047c-0.1015625,0-0.3007813-0.050293-0.6015625-0.1503906  c0,0.0336914-0.015625,0.0668945-0.0488281,0.1000977l-0.0507813,0.1000977l0.1503906,0.1499023  c0.2324219,0.5,0.3007813,1.0834961,0.1992188,1.75c0.1347656,0.0332031,0.3183594,0.1669922,0.5507813,0.3999023  c0.3671875,0.3334961,0.7832031,0.7670898,1.25,1.300293l1.25,1.0498047l0.5,0.25c0.0996094-0.4331055,0.2675781-0.7666016,0.5-1  c0.2675781-0.3330078,0.8339844-0.7832031,1.6992188-1.3500977C34.6132813,36.8666992,34.8125,36.5498047,34.8808594,36.25  c0.0664063-0.6669922,0.1816406-1.2167969,0.3496094-1.6499023c0.1328125-0.4667969,0.265625-0.800293,0.4003906-1  c0.1660156-0.2001953,0.4160156-0.5336914,0.75-1c0.5-0.4003906,0.8320313-0.6503906,1-0.75L37.9296875,31.5l0.6503906-0.25  c0.2675781-0.1000977,0.6660156-0.2167969,1.1992188-0.3500977c0.4003906-0.1333008,0.7011719-0.2998047,0.9003906-0.5  c0.234375-0.1665039,0.4335938-0.4667969,0.5996094-0.8999023c0.2011719-0.6000977,0.3671875-1.1000977,0.5-1.5v0.0498047  l0.3515625-0.949707c-0.0683594-0.3334961-0.1015625-0.6333008-0.1015625-0.9003906l-0.0996094-0.0996094  C41.6972656,25.7666016,41.546875,25.4833984,41.4804688,25.25c-0.0664063-0.2001953-0.0664063-0.4501953,0-0.75  c0-0.0332031,0.015625-0.0668945,0.0488281-0.1000977c-0.5996094,0.2998047-1.1992188,0.4331055-1.7988281,0.3999023  C39.3300781,24.7333984,39.046875,24.6333008,38.8808594,24.5l-0.4003906-0.300293l-0.3007813-0.5L38.0800781,23.25  c0-0.2001953,0.0507813-0.3833008,0.1503906-0.550293c0.0996094-0.2329102,0.2832031-0.4331055,0.5488281-0.5996094  l0.8515625-0.4003906l0.0488281-0.0498047L39.8808594,21.5l0.5996094-0.800293  c0.0332031-0.0332031,0.0664063-0.0664063,0.0996094-0.0996094c-0.9667969,0.0664063-1.8671875-0.1503906-2.6992188-0.6503906  c-0.8671875-0.4663086-1.5839844-1.1333008-2.1503906-2c-0.4667969-0.6333008-0.7011719-1.0166016-0.7011719-1.1499023  c-0.5996094-1.3330078-0.9492188-2.699707-1.0488281-4.1000977L33.8300781,9.75  c-0.1328125-1.3334961-0.4667969-2.3999023-1-3.2001953c-0.0996094-0.1333008-0.1835938-0.2333984-0.25-0.2998047  c-0.1992188-0.1669922-0.3339844-0.2832031-0.4003906-0.3500977l-0.5-0.4501953L32.8808594,5.6499023z"
     id="path2"
     style="fill:#000000" /></svg>