<?xml version="1.0" encoding="UTF-8" standalone="no"?>
<svg
   xmlns:dc="http://purl.org/dc/elements/1.1/"
   xmlns:cc="http://creativecommons.org/ns#"
   xmlns:rdf="http://www.w3.org/1999/02/22-rdf-syntax-ns#"
   xmlns:svg="http://www.w3.org/2000/svg"
   xmlns="http://www.w3.org/2000/svg"
   xmlns:sodipodi="http://sodipodi.sourceforge.net/DTD/sodipodi-0.dtd"
   xmlns:inkscape="http://www.inkscape.org/namespaces/inkscape"
   viewBox="0 0 64 80"
   x="0px"
   y="0px"
   version="1.1"
   id="svg12"
   sodipodi:docname="Natives.svg"
   inkscape:version="0.92.2 (5c3e80d, 2017-08-06)">
  <metadata
     id="metadata18">
    <rdf:RDF>
      <cc:Work
         rdf:about="">
        <dc:format>image/svg+xml</dc:format>
        <dc:type
           rdf:resource="http://purl.org/dc/dcmitype/StillImage" />
      </cc:Work>
    </rdf:RDF>
  </metadata>
  <defs
     id="defs16" />
  <sodipodi:namedview
     pagecolor="#ffffff"
     bordercolor="#666666"
     borderopacity="1"
     objecttolerance="10"
     gridtolerance="10"
     guidetolerance="10"
     inkscape:pageopacity="0"
     inkscape:pageshadow="2"
     inkscape:window-width="1920"
     inkscape:window-height="1017"
     id="namedview14"
     showgrid="false"
     inkscape:zoom="11.8"
     inkscape:cx="17.650444"
     inkscape:cy="48.840948"
     inkscape:window-x="-8"
     inkscape:window-y="-8"
     inkscape:window-maximized="1"
     inkscape:current-layer="svg12" />
  <title
     id="title2">indian-chief</title>
  <path
     inkscape:connector-curvature="0"
     id="path4"
     d="m 58,17 a 1.12,1.12 0 0 0 -0.27,-0.3 h -0.09 a 0.79,0.79 0 0 0 -0.28,-0.13 v 0 a 19.13,19.13 0 0 0 -8.31,0.37 5.48,5.48 0 0 0 0.22,-2.35 5.58,5.58 0 0 0 -2.32,-3.84 5.5,5.5 0 0 0 -3.6,-1 5.47,5.47 0 0 0 -0.58,-2 A 5.51,5.51 0 0 0 35,5.57 19.72,19.72 0 0 0 32.8,2.33 c 0,0 0,0 0,0 a 1,1 0 0 0 -1.46,0 c 0,0 0,0 0,0 a 19.72,19.72 0 0 0 -2.2,3.24 5.51,5.51 0 0 0 -7.78,2.2 5.26,5.26 0 0 0 -0.57,2 5.51,5.51 0 0 0 -3.61,1 5.58,5.58 0 0 0 -2.32,3.84 5.48,5.48 0 0 0 0.14,2.28 19.13,19.13 0 0 0 -8.31,-0.37 v 0 A 1,1 0 0 0 6.41,16.64 L 6.32,16.69 A 1,1 0 0 0 6,17 1.12,1.12 0 0 0 5.87,17.39 c 0,0 0,0.06 0,0.1 a 1,1 0 0 0 0,0.3 c 0,0 0,0 0,0 a 19,19 0 0 0 3.3,5.76 l -0.34,0.2 A 5.53,5.53 0 0 0 7.4,31.81 L 7.55,31.98 7.4,32.15 A 5.53,5.53 0 0 0 11.12,41 19.08,19.08 0 0 0 7.27,48.38 v 0 a 1.51,1.51 0 0 0 0,0.3 c 0,0 0,0.07 0,0.1 a 0.84,0.84 0 0 0 0.16,0.38 0.88,0.88 0 0 0 0.34,0.29 0.33,0.33 0 0 0 0.15,0 0.76,0.76 0 0 0 0.21,0.08 15.56,15.56 0 0 0 1.63,0.07 17.53,17.53 0 0 0 8.86,-2.28 36.87,36.87 0 0 0 2.08,4.35 2.48,2.48 0 0 0 0.3,3.72 V 59 a 1,1 0 0 0 2,0 v -3 h 1 v 5 a 1,1 0 0 0 2,0 v -5 h 1 v 3 a 1,1 0 0 0 2,0 v -3.51 a 2.48,2.48 0 0 0 0,-4 v -4.1 l 0.29,0.3 A 1,1 0 0 0 30,48 h 4 a 1,1 0 0 0 0.71,-0.29 L 35,47.41 v 4.1 a 2.48,2.48 0 0 0 0,4 V 59 a 1,1 0 0 0 2,0 v -3 h 1 v 5 a 1,1 0 0 0 2,0 v -5 h 1 v 3 a 1,1 0 0 0 2,0 v -3.51 a 2.48,2.48 0 0 0 0.3,-3.72 38.23,38.23 0 0 0 2.09,-4.35 17.48,17.48 0 0 0 8.85,2.28 15.56,15.56 0 0 0 1.63,-0.07 0.76,0.76 0 0 0 0.21,-0.08 0.33,0.33 0 0 0 0.15,0 1,1 0 0 0 0.35,-0.29 1,1 0 0 0 0.15,-0.38 c 0,0 0,-0.07 0,-0.1 a 1.51,1.51 0 0 0 0,-0.3 v 0 A 19.08,19.08 0 0 0 52.88,41 5.53,5.53 0 0 0 56.53,32.14 L 56.38,32 56.53,31.83 A 5.53,5.53 0 0 0 55.1,23.77 l -0.34,-0.2 a 19,19 0 0 0 3.3,-5.76 c 0,0 0,0 0,0 a 1,1 0 0 0 0,-0.3 c 0,0 0,-0.07 0,-0.1 A 1.12,1.12 0 0 0 58,17 Z m -15,-4.76 0.15,-0.47 a 3.52,3.52 0 0 1 3.28,5.76 l -0.66,0.76 -2,2.35 A 9.51,9.51 0 0 0 43,20 13.31,13.31 0 0 0 40.59,18.62 Z m 1.83,14.14 c -0.9,-0.22 -1.88,-0.41 -2.88,-0.59 -0.66,-0.11 -1.32,-0.22 -2,-0.31 l 2.91,-2.91 a 7,7 0 0 1 0.88,1.16 5.37,5.37 0 0 1 0.36,0.66 c 0.26,0.67 0.51,1.33 0.72,1.99 z m -8.92,-19 a 3.53,3.53 0 0 1 5.09,1.3 3.41,3.41 0 0 1 0.38,1.58 3.56,3.56 0 0 1 -0.22,1.28 l -1.36,3.6 -1,2.79 a 17.73,17.73 0 0 0 -2.31,-0.55 c 0.06,-0.21 0.11,-0.41 0.16,-0.62 A 17,17 0 0 0 37,13 14.9,14.9 0 0 0 35.82,7.4 Z M 38,19.8 a 15,15 0 0 1 1.87,0.7 11.92,11.92 0 0 1 1.43,0.79 l -3.18,3.19 -1.26,-1.67 -1.64,-2.2 -1.14,-1.52 c 0.6,0.05 1.16,0.12 1.71,0.21 A 18.49,18.49 0 0 1 38,19.8 Z m -1.9,5.32 C 34.76,25 33.39,25 32,25 c -1.39,0 -2.76,0 -4.09,0.12 l 0.29,-0.38 1.7,-2.28 1.26,-1.68 0.84,-1.11 0.84,1.11 1.26,1.68 1.7,2.28 z M 29.58,9.43 a 16,16 0 0 1 1,-2.46 C 30.72,6.7 30.85,6.45 30.99,6.21 V 9 a 1,1 0 0 0 0.72,0.94 0.68,0.68 0 0 0 0.56,0 A 1,1 0 0 0 33,9 V 6.21 c 0.14,0.24 0.27,0.49 0.41,0.76 a 16,16 0 0 1 1,2.46 A 11.81,11.81 0 0 1 35,13 15.29,15.29 0 0 1 34.42,17.12 C 33.64,17.05 32.84,17 32,17 c -0.84,0 -1.64,0.05 -2.42,0.12 A 15.29,15.29 0 0 1 29,13 11.81,11.81 0 0 1 29.58,9.43 Z m 0.35,9.66 -1.14,1.52 -1.64,2.2 -1.26,1.67 -3.18,-3.19 A 11.92,11.92 0 0 1 24.14,20.5 15,15 0 0 1 26,19.8 18.49,18.49 0 0 1 28.21,19.3 c 0.56,-0.09 1.12,-0.16 1.72,-0.21 z m -5.86,6.39 c -0.69,0.09 -1.35,0.2 -2,0.31 -1,0.18 -2,0.37 -2.88,0.59 0.21,-0.66 0.46,-1.32 0.74,-2 a 5.37,5.37 0 0 1 0.36,-0.66 7,7 0 0 1 0.88,-1.16 z m -1,-16.8 a 3.5,3.5 0 0 1 2.22,-1.79 3.3,3.3 0 0 1 0.92,-0.13 3.55,3.55 0 0 1 1.91,0.57 L 28.2,7.4 A 14.9,14.9 0 0 0 27,13 a 16.87,16.87 0 0 0 0.45,3.75 c 0.05,0.22 0.1,0.42 0.16,0.63 a 17.73,17.73 0 0 0 -2.31,0.55 l -1.05,-2.79 -1.36,-3.6 a 3.56,3.56 0 0 1 -0.22,-1.28 3.41,3.41 0 0 1 0.38,-1.58 z m -6.29,6.11 a 3.49,3.49 0 0 1 1.47,-2.45 3.53,3.53 0 0 1 2,-0.64 3.18,3.18 0 0 1 0.62,0.07 c 0.05,0.16 0.1,0.32 0.16,0.47 l 2.41,6.38 A 13.31,13.31 0 0 0 21,20 9.51,9.51 0 0 0 20.24,20.64 l -2,-2.34 -0.67,-0.77 A 3.51,3.51 0 0 1 16.76,14.79 Z M 9.16,20 l 2.42,1.4 a 1.0034441,1.0034441 0 0 0 1,-1.74 L 10.16,18.27 A 14.16,14.16 0 0 1 17,19.85 l 2,2.28 a 7.68,7.68 0 0 0 -0.83,1.48 26.89,26.89 0 0 0 -1,2.8 15.7,15.7 0 0 1 -1.68,-0.62 C 15.04,25.58 14.59,25.36 14.14,25.1 A 11.94,11.94 0 0 1 11.37,23 17.16,17.16 0 0 1 9.16,20 Z m -0.8,7.86 a 3.53,3.53 0 0 1 1.64,-2.4 3.72,3.72 0 0 1 0.76,-0.35 13.25,13.25 0 0 0 2.33,1.72 16.87,16.87 0 0 0 3.52,1.52 A 27.52,27.52 0 0 0 16,32.29 L 12.11,32 H 11.57 A 3.5,3.5 0 0 1 9.16,30.76 L 9.05,30.65 A 3.51,3.51 0 0 1 8.36,27.83 Z M 10,38.54 A 3.52,3.52 0 0 1 9.09,33.39 L 9.2,33.28 a 5.54,5.54 0 0 0 2.26,0.67 l 4.51,0.34 A 31.75,31.75 0 0 0 16.15,38 l -2.38,0.67 -1,0.28 A 3.49,3.49 0 0 1 10,38.54 Z M 11.5,47.6 13.73,46 A 1,1 0 0 0 14,44.62 1,1 0 0 0 12.61,44.37 L 10.29,46 a 14.12,14.12 0 0 1 4.33,-5.47 L 16.45,40 a 38.72,38.72 0 0 0 1.45,5.52 14.15,14.15 0 0 1 -6.44,2.08 z m 8.86,-1.39 c -0.24,-0.64 -0.48,-1.3 -0.71,-2 a 34.71,34.71 0 0 1 -1.18,-4.75 c -0.12,-0.65 -0.21,-1.32 -0.28,-2 a 29.09,29.09 0 0 1 -0.19,-3 c 0,-0.65 0,-1.32 0.06,-2 a 25.31,25.31 0 0 1 0.5,-3.6 2.07,2.07 0 0 0 0,-0.22 38.3,38.3 0 0 1 5.26,-1.08 L 23.2,29 22.31,31.06 c 0,0.14 -0.09,0.27 -0.13,0.41 a 1,1 0 0 0 -0.11,0.17 l -0.43,1.08 -0.78,1.95 -0.79,2 a 0.92,0.92 0 0 0 -0.05,0.28 1,1 0 0 0 0.61,1 A 1,1 0 0 0 21,38 1,1 0 0 0 21.93,37.37 l 0.45,-1.12 0.3,-0.76 0.13,0.64 v 0.1 a 2.94,2.94 0 0 0 1.35,1.94 l 0.46,2.76 0.38,2.24 a 1.12,1.12 0 0 0 0.28,0.54 L 27,45.41 V 51 H 25.72 L 25,48.68 a 1.002447,1.002447 0 1 0 -1.9,0.64 L 23.61,51 h -1 A 36.52,36.52 0 0 1 20.32,46.21 Z M 27.5,54 h -5 a 0.5,0.5 0 0 1 0,-1 h 5 a 0.5,0.5 0 0 1 0,1 z m 6.09,-8 h -3.18 l -3.48,-3.48 -0.6,-3.59 a 1,1 0 0 0 0.57,-0.49 1,1 0 0 0 -0.38,-1.28 c 0,0 -0.05,0 -0.08,-0.06 l -1.12,-0.55 a 1,1 0 0 1 -0.53,-0.71 l -0.05,-0.25 -0.13,-0.65 -0.41,-2 -0.1,-0.5 a 1,1 0 0 1 0.06,-0.58 l 1,-2.4 0.93,-2.16 c 0.51,-0.05 1,-0.07 1.56,-0.11 L 28.5,27.13 C 29.67,27 30.83,27 32,27 c 1.17,0 2.33,0 3.47,0.1 l 0.85,0.06 c 0.52,0 1,0.06 1.56,0.11 l 0.93,2.16 1,2.38 a 1,1 0 0 1 0.07,0.6 l -0.1,0.5 -0.41,2 -0.13,0.65 v 0.26 a 1,1 0 0 1 -0.52,0.69 l -1.13,0.56 c 0,0 -0.05,0 -0.08,0.06 a 1,1 0 0 0 -0.38,1.28 1,1 0 0 0 0.57,0.49 l -0.6,3.59 z m 7.91,8 h -5 a 0.5,0.5 0 0 1 0,-1 h 5 a 0.5,0.5 0 0 1 0,1 z m 4.35,-16.56 c -0.07,0.68 -0.16,1.35 -0.28,2 a 34.71,34.71 0 0 1 -1.18,4.75 c -0.23,0.72 -0.47,1.38 -0.71,2 A 36.52,36.52 0 0 1 41.43,51 h -1 L 41,49.32 A 1.002447,1.002447 0 1 0 39.1,48.68 L 38.28,51 H 37 v -5.59 l 1.71,-1.7 a 1.12,1.12 0 0 0 0.28,-0.54 l 0.37,-2.24 0.46,-2.75 a 3,3 0 0 0 1.35,-1.94 v -0.11 l 0.13,-0.64 0.3,0.76 0.45,1.12 A 1,1 0 0 0 43,38 a 1,1 0 0 0 0.37,-0.07 1,1 0 0 0 0.61,-1 0.92,0.92 0 0 0 0,-0.28 l -0.79,-2 -0.78,-1.95 -0.43,-1.08 a 1,1 0 0 0 -0.11,-0.17 4.28,4.28 0 0 0 -0.14,-0.43 l -0.88,-2 -0.62,-1.45 a 38,38 0 0 1 5.26,1.08 2.07,2.07 0 0 0 0,0.22 25.31,25.31 0 0 1 0.5,3.6 c 0.05,0.68 0.07,1.35 0.06,2 a 29.09,29.09 0 0 1 -0.2,2.97 z M 53.7,46 51.41,44.4 A 1,1 0 1 0 50.27,46 l 2.26,1.59 A 14.44,14.44 0 0 1 46.1,45.51 38.72,38.72 0 0 0 47.55,40 l 1.83,0.51 A 14.15,14.15 0 0 1 53.7,46 Z m 1.94,-9.8 A 3.53,3.53 0 0 1 54,38.54 3.48,3.48 0 0 1 51.17,38.95 l -1,-0.28 L 47.85,38 a 31.75,31.75 0 0 0 0.22,-3.71 L 52.58,34 a 5.54,5.54 0 0 0 2.26,-0.67 1.14,1.14 0 0 0 0.11,0.11 3.51,3.51 0 0 1 0.69,2.73 z m 0,-8.34 A 3.51,3.51 0 0 1 55,30.61 1.14,1.14 0 0 0 54.89,30.72 3.5,3.5 0 0 1 52.43,32 H 51.89 L 48,32.29 a 27.52,27.52 0 0 0 -0.57,-3.94 16.87,16.87 0 0 0 3.57,-1.52 13.25,13.25 0 0 0 2.33,-1.72 3.72,3.72 0 0 1 0.76,0.35 3.53,3.53 0 0 1 1.55,2.37 z m -3,-4.88 A 11.66,11.66 0 0 1 50,25.1 c -0.45,0.26 -0.9,0.48 -1.35,0.69 a 15.7,15.7 0 0 1 -1.68,0.62 26.89,26.89 0 0 0 -1,-2.8 7.68,7.68 0 0 0 -0.83,-1.48 l 2,-2.28 a 14.16,14.16 0 0 1 6.79,-1.61 l -2.42,1.39 a 1.0034441,1.0034441 0 0 0 1,1.74 L 54.84,20 a 16.75,16.75 0 0 1 -2.22,3 z M 38,31.22 A 1.43,1.43 0 0 0 38,31 1,1 0 0 0 37,30 h -2 a 1,1 0 0 0 0,2 1,1 0 0 0 0.89,1 H 36 a 1,1 0 0 0 1,-1 1,1 0 0 0 1,-0.78 z M 33,41 h -2 a 1,1 0 0 0 0,2 h 2 a 1,1 0 0 0 0,-2 z m -3,-3 a 1,1 0 0 0 1,1 h 1 a 1,1 0 0 0 0,-2 v -0.84 l 1,-2.84 a 1.002447,1.002447 0 1 0 -1.9,-0.64 l -1,3 A 1.19,1.19 0 0 0 30,36 Z m -1,-8 h -2 a 1,1 0 0 0 -1,1 1.43,1.43 0 0 0 0,0.22 1,1 0 0 0 1,0.78 1,1 0 0 0 1,1 h 0.11 A 1,1 0 0 0 29,32 1,1 0 0 0 29,30 Z"
     style="fill:#d40000" />
  <path
     style="fill:#ffeeaa;fill-opacity:1;stroke:none;stroke-width:0.08474576;stroke-opacity:1"
     d="m 28.703809,44.231086 -1.750207,-1.758475 -0.286675,-1.737288 -0.286675,-1.737288 0.321537,-0.304264 c 0.26571,-0.251437 0.321481,-0.361791 0.321219,-0.635594 -5.17e-4,-0.540583 -0.233644,-0.810775 -1.074073,-1.244839 -0.414839,-0.214256 -0.823358,-0.465917 -0.907821,-0.559248 -0.155667,-0.172009 -0.899145,-3.483738 -0.899145,-4.005126 0,-0.243029 1.818244,-4.716065 1.984692,-4.882513 0.05207,-0.05207 3.082504,-0.259353 4.66785,-0.319281 1.353497,-0.05117 3.966957,0.02551 6.286172,0.184432 l 0.777698,0.05329 0.980777,2.322389 c 0.626774,1.484143 0.980777,2.430262 0.980777,2.621253 0,0.164375 -0.133474,0.946899 -0.29661,1.738942 -0.163136,0.792044 -0.29661,1.534789 -0.29661,1.650545 0,0.448223 -0.230424,0.696862 -1.007487,1.087127 -0.921335,0.462722 -1.195903,0.759103 -1.195903,1.290915 0,0.329039 0.04414,0.427136 0.311646,0.69265 l 0.311645,0.309322 -0.280801,1.694915 -0.280802,1.694916 -1.78858,1.800847 -1.788579,1.800847 h -1.526919 -1.52692 z m 4.9669,-1.456789 c 0.492596,-0.463282 0.469303,-1.133661 -0.05471,-1.574588 -0.242304,-0.203886 -0.288825,-0.210149 -1.561013,-0.210149 -1.454346,0 -1.710016,0.06675 -1.937007,0.505701 -0.257719,0.498374 -0.09051,1.148342 0.3598,1.398578 0.185798,0.103249 0.504855,0.124767 1.60252,0.108081 1.322512,-0.0201 1.378239,-0.02808 1.590409,-0.227623 z M 32.511707,38.87118 c 0.373211,-0.227549 0.568436,-0.651007 0.490834,-1.064659 -0.07105,-0.378707 -0.47987,-0.800011 -0.776314,-0.800011 -0.186325,0 -0.202902,-0.03379 -0.202902,-0.413639 0,-0.227502 0.08998,-0.656527 0.199945,-0.95339 0.717567,-1.93707 0.898795,-2.577244 0.815251,-2.879816 -0.144733,-0.524178 -0.695719,-0.875469 -1.216879,-0.775843 -0.497668,0.09514 -0.670802,0.393451 -1.267394,2.183755 l -0.564821,1.694966 v 1.211785 c 0,1.36447 0.06744,1.598687 0.525261,1.824316 0.426181,0.210033 1.634751,0.193412 1.997019,-0.02746 z m -3.890372,-6.062359 c 0.140296,-0.118051 0.298722,-0.346864 0.352058,-0.508475 0.06407,-0.194125 0.150054,-0.293836 0.253392,-0.293836 0.246914,0 0.665017,-0.405941 0.755455,-0.733478 0.116584,-0.422234 -0.04589,-0.863043 -0.407888,-1.106645 -0.268448,-0.180648 -0.374664,-0.193754 -1.567797,-0.193459 -1.117767,2.8e-4 -1.314034,0.02117 -1.549855,0.164957 -0.645796,0.393769 -0.664311,1.351317 -0.03334,1.724043 0.134617,0.07952 0.302653,0.144582 0.373415,0.144582 0.07082,0 0.170815,0.127739 0.222434,0.284148 0.230436,0.698228 1.066698,0.968694 1.602123,0.518163 z m 7.896289,0.08608 c 0.249757,-0.129154 0.505701,-0.512321 0.505701,-0.757069 0,-0.07223 0.0591,-0.131327 0.131327,-0.131327 0.250847,0 0.629293,-0.25861 0.766377,-0.523702 0.200063,-0.386877 0.112548,-0.877983 -0.21485,-1.205673 l -0.261916,-0.262151 -1.333351,-0.02815 c -1.112339,-0.02349 -1.376478,-0.0051 -1.593538,0.111073 -0.501393,0.268294 -0.684323,0.884691 -0.416343,1.402906 0.129153,0.249756 0.51232,0.505701 0.757069,0.505701 0.07223,0 0.131327,0.0591 0.131327,0.131327 0,0.236499 0.251675,0.624541 0.488353,0.752962 0.301659,0.163679 0.72801,0.165362 1.039844,0.0041 z"
     id="path816"
     inkscape:connector-curvature="0" />
  <path
     style="fill:#e6e6e6;fill-opacity:1;stroke:none;stroke-width:0.08474576;stroke-opacity:1"
     d="M 22.127477,50.036171 C 20.622702,47.255869 19.299888,43.491702 18.639626,40.111223 17.890072,36.273574 17.860362,32.511658 18.552487,29.07732 l 0.08649,-0.429189 0.611663,-0.151351 c 1.660825,-0.410957 4.375368,-0.93278 4.452276,-0.855872 0.01694,0.01694 -0.300519,0.805925 -0.705475,1.75329 -1.088967,2.547555 -1.056204,2.46828 -2.069304,5.007037 -0.516294,1.293794 -0.938715,2.468358 -0.938715,2.610141 0,0.320634 0.193482,0.70568 0.442101,0.87982 0.392715,0.275068 1.214478,0.09549 1.434749,-0.31353 0.05622,-0.10439 0.261986,-0.586558 0.457262,-1.071484 l 0.355048,-0.881684 0.09237,0.524379 c 0.120013,0.681325 0.462392,1.299458 0.96168,1.736223 l 0.400361,0.350227 0.384721,2.330506 c 0.211596,1.281779 0.427479,2.48305 0.479738,2.66949 0.0717,0.255781 0.321578,0.568886 1.018071,1.275651 l 0.923053,0.936668 v 2.770959 2.770959 H 26.349003 25.759427 L 25.4168,49.89946 c -0.188445,-0.599555 -0.342628,-1.130527 -0.342628,-1.179939 0,-0.181085 -0.437411,-0.602688 -0.723112,-0.696977 -0.607003,-0.20033 -1.311758,0.293839 -1.30982,0.918434 5.34e-4,0.171212 0.114939,0.689326 0.254238,1.151363 0.139299,0.462038 0.253271,0.852928 0.253271,0.868644 0,0.01572 -0.203686,0.02857 -0.452636,0.02857 h -0.452635 z"
     id="path818"
     inkscape:connector-curvature="0" />
  <path
     style="fill:#e6e6e6;fill-opacity:1;stroke:none;stroke-width:0.08474576;stroke-opacity:1"
     d="m 37.023325,48.212692 v -2.77687 l 0.932118,-0.929228 c 0.530912,-0.529265 0.967214,-1.039317 1.013655,-1.184995 0.04484,-0.140672 0.260603,-1.342178 0.479463,-2.670012 l 0.397927,-2.414245 0.41514,-0.373247 c 0.486518,-0.437422 0.795111,-1.001498 0.940277,-1.718732 l 0.104193,-0.514792 0.3798,0.950947 c 0.484852,1.213977 0.74546,1.481299 1.384256,1.419919 0.516203,-0.0496 0.853307,-0.369251 0.9418,-0.893038 0.05048,-0.298777 -0.03975,-0.584522 -0.758681,-2.4027 -0.898128,-2.27137 -1.070563,-2.688172 -2.180158,-5.269809 -0.417358,-0.971045 -0.74612,-1.778053 -0.730583,-1.793353 0.06306,-0.06209 2.131643,0.322338 3.731866,0.693535 l 1.330735,0.308684 0.08465,0.394686 c 0.04655,0.217077 0.169724,0.94487 0.273711,1.617317 0.249767,1.615158 0.273579,5.181144 0.04608,6.900598 -0.56919,4.301992 -1.665478,7.910722 -3.584953,11.800848 l -0.804948,1.631355 h -0.460884 c -0.253486,0 -0.460884,-0.01157 -0.460884,-0.02572 0,-0.01415 0.133475,-0.422063 0.29661,-0.906481 0.163136,-0.484418 0.296468,-0.97814 0.296294,-1.097159 -4.83e-4,-0.327838 -0.307244,-0.762767 -0.63441,-0.899466 -0.373233,-0.155946 -0.502269,-0.153434 -0.86093,0.01676 -0.35237,0.167211 -0.476013,0.400578 -0.970202,1.831204 l -0.373124,1.080154 -0.614407,3.54e-4 -0.614407,3.54e-4 z"
     id="path820"
     inkscape:connector-curvature="0" />
  <path
     style="fill:#e6e6e6;fill-opacity:1;stroke:none;stroke-width:0.08474576;stroke-opacity:1"
     d="m 36.133197,53.755237 c -0.152064,-0.232079 -0.06255,-0.588522 0.170228,-0.677847 0.0773,-0.02966 1.313716,-0.05393 2.747595,-0.05393 2.418044,0 2.617221,0.01124 2.747306,0.154978 0.176756,0.195313 0.179791,0.471344 0.0071,0.644053 -0.1155,0.1155 -0.491971,0.133172 -2.837029,0.133172 H 36.26452 Z"
     id="path822"
     inkscape:connector-curvature="0" />
  <path
     style="fill:#e6e6e6;fill-opacity:1;stroke:none;stroke-width:0.08474576;stroke-opacity:1"
     d="m 22.155249,53.767314 c -0.174354,-0.248925 -0.166409,-0.370387 0.03757,-0.574364 0.162148,-0.162149 0.282485,-0.169491 2.777753,-0.169491 2.223523,0 2.636045,0.01946 2.79661,0.131924 0.22844,0.160005 0.244079,0.469337 0.03337,0.660026 -0.137329,0.124281 -0.46008,0.140253 -2.834177,0.140253 -2.67254,0 -2.679528,-4.68e-4 -2.811124,-0.188348 z"
     id="path824"
     inkscape:connector-curvature="0" />
  <path
     style="fill:#ff2ad4;fill-opacity:1;stroke:none;stroke-width:0.08474576;stroke-opacity:1"
     d="m 19.482352,25.635092 c 0.468192,-1.291219 1.331525,-2.819049 1.651865,-2.923287 0.04701,-0.0153 0.708156,0.595736 1.46922,1.357849 l 1.38375,1.38566 -0.960744,0.146289 c -0.94007,0.143141 -3.357566,0.60162 -3.651394,0.692488 -0.128521,0.03975 -0.114225,-0.04805 0.107303,-0.658999 z"
     id="path826"
     inkscape:connector-curvature="0" />
  <path
     style="fill:#ffcc00;fill-opacity:1;stroke:none;stroke-width:0.08474576;stroke-opacity:1"
     d="m 24.328468,22.828621 -1.54907,-1.55077 0.702472,-0.39034 c 1.356496,-0.753759 3.399013,-1.379228 5.31791,-1.628474 0.534253,-0.06939 0.98242,-0.115121 0.995926,-0.101615 0.02406,0.02406 -3.854786,5.221969 -3.896797,5.221969 -0.01175,0 -0.718452,-0.697847 -1.570441,-1.55077 z"
     id="path828"
     inkscape:connector-curvature="0" />
  <path
     style="fill:#0066ff;fill-opacity:1;stroke:none;stroke-width:0.08474576;stroke-opacity:1"
     d="m 28.239604,24.760747 c 0.770215,-1.083668 3.709596,-4.95747 3.761189,-4.95686 0.0357,4.22e-4 0.942024,1.173092 2.014057,2.605933 l 1.949153,2.605164 h -3.952549 -3.952549 z"
     id="path830"
     inkscape:connector-curvature="0" />
  <path
     style="fill:#aad400;fill-opacity:1;stroke:none;stroke-width:0.08474576;stroke-opacity:1"
     d="m 36.147515,21.786563 c -1.063086,-1.426056 -1.918169,-2.607543 -1.900185,-2.625527 0.01798,-0.01798 0.525999,0.03974 1.128923,0.128271 1.912819,0.280879 3.513292,0.760128 4.912068,1.470878 1.085796,0.551719 1.14485,0.344203 -0.594621,2.089531 -0.838498,0.841321 -1.544513,1.529675 -1.568922,1.529675 -0.02441,0 -0.914178,-1.166773 -1.977263,-2.592828 z"
     id="path832"
     inkscape:connector-curvature="0" />
  <path
     style="fill:#ff5599;fill-opacity:1;stroke:none;stroke-width:0.08474576;stroke-opacity:1"
     d="m 44.558636,26.293506 c -0.05605,-0.05562 -2.482623,-0.529609 -3.538429,-0.691174 l -0.960744,-0.147018 1.38351,-1.385419 c 0.760931,-0.761981 1.407964,-1.385419 1.437851,-1.385419 0.07536,0 0.675657,0.808221 0.95026,1.279402 0.181617,0.311628 0.904105,2.170487 0.904105,2.326131 0,0.04815 -0.128977,0.0507 -0.176553,0.0035 z"
     id="path834"
     inkscape:connector-curvature="0" />
  <path
     style="fill:#f9f9f9;fill-opacity:1;stroke:none;stroke-width:0.08474576;stroke-opacity:1"
     d="m 11.769088,47.485308 c 0,-0.01632 0.494332,-0.384752 1.098515,-0.818734 1.194815,-0.858228 1.418717,-1.137806 1.322398,-1.651232 -0.107284,-0.571871 -0.686123,-0.964098 -1.229309,-0.832991 -0.119365,0.02881 -0.705566,0.394062 -1.302668,0.81167 -0.597102,0.417608 -1.106877,0.738051 -1.132832,0.712096 -0.05811,-0.05811 0.557552,-1.194146 1.008564,-1.861023 0.57434,-0.849234 1.562352,-1.966631 2.322887,-2.627079 0.698387,-0.606478 0.773794,-0.648173 1.624665,-0.898334 0.490757,-0.144286 0.903069,-0.251554 0.916248,-0.238375 0.01318,0.01318 0.121835,0.480343 0.241458,1.038142 0.247014,1.151824 0.70241,2.836938 1.013641,3.750807 l 0.210463,0.617983 -0.271591,0.170157 c -0.573333,0.359204 -1.874915,0.943086 -2.717843,1.219209 -1.135153,0.371849 -3.104596,0.757354 -3.104596,0.607704 z"
     id="path836"
     inkscape:connector-curvature="0" />
  <path
     style="fill:#f9f9f9;fill-opacity:1;stroke:none;stroke-width:0.08474576;stroke-opacity:1"
     d="m 16.344866,26.08373 c -2.25271,-0.837826 -4.251262,-2.218564 -5.58434,-3.858047 -0.610763,-0.751145 -1.3991629,-1.907494 -1.3405169,-1.96614 0.024259,-0.02426 0.5414331,0.244985 1.1492749,0.598322 0.607842,0.353336 1.214912,0.664378 1.349044,0.691205 0.555387,0.111077 1.206058,-0.442243 1.206058,-1.025611 0,-0.501766 -0.257166,-0.746917 -1.567284,-1.494064 -0.690446,-0.393754 -1.181944,-0.72189 -1.104763,-0.737567 0.268137,-0.05446 2.186961,0.159649 2.990054,0.333646 0.878725,0.190383 2.122318,0.60121 2.969862,0.98111 0.473221,0.212114 0.64548,0.36722 1.535923,1.382976 l 1.002924,1.144068 -0.162227,0.229755 c -0.303611,0.429988 -0.90756,1.797341 -1.273272,2.882711 -0.2006,0.595347 -0.40296,1.080595 -0.449689,1.078329 -0.04673,-0.0023 -0.371201,-0.110578 -0.721048,-0.240693 z"
     id="path838"
     inkscape:connector-curvature="0" />
  <path
     style="fill:#f9f9f9;fill-opacity:1;stroke:none;stroke-width:0.08474576;stroke-opacity:1"
     d="m 29.457887,16.484454 c -0.303419,-1.325469 -0.35829,-1.842586 -0.358255,-3.376249 2.7e-5,-1.193719 0.03675,-1.739671 0.153919,-2.288136 0.230721,-1.0800195 0.693556,-2.4057738 1.201092,-3.4404352 l 0.453239,-0.9239716 0.0069,1.2950948 c 0.0075,1.4143269 0.07947,1.7276875 0.466686,2.0322746 0.347939,0.2736894 0.680987,0.3142344 1.046557,0.1274065 0.534686,-0.2732547 0.610899,-0.5366535 0.619554,-2.1412166 l 0.0075,-1.3983051 0.453645,0.9322034 c 0.545478,1.120913 1.00937,2.4756503 1.245168,3.6363552 0.317053,1.560677 0.191811,4.200225 -0.277225,5.84265 l -0.09323,0.326463 -0.386057,-0.05789 c -0.502596,-0.07537 -3.334958,-0.07694 -3.933307,-0.0022 l -0.463816,0.05795 -0.142387,-0.622011 z"
     id="path840"
     inkscape:connector-curvature="0" />
  <path
     style="fill:#f9f9f9;fill-opacity:1;stroke:none;stroke-width:0.08474576;stroke-opacity:1"
     d="m 46.746456,25.586834 c -0.346932,-1.096801 -0.920697,-2.457765 -1.25896,-2.986242 l -0.297787,-0.465239 0.980367,-1.124158 c 0.891779,-1.022577 1.035893,-1.150788 1.594836,-1.418849 0.868527,-0.416532 2.205481,-0.848423 3.250859,-1.05016 0.834671,-0.161075 2.796819,-0.339337 2.702469,-0.245521 -0.02331,0.02317 -0.587282,0.357289 -1.253283,0.742479 -1.311162,0.758328 -1.458581,0.913061 -1.458581,1.530954 0,0.286939 0.05303,0.404699 0.288135,0.639801 0.245569,0.245569 0.34671,0.288136 0.684625,0.288136 0.343332,0 0.548984,-0.09019 1.533898,-0.672709 0.625576,-0.36999 1.13741,-0.643729 1.13741,-0.60831 0,0.09854 -0.807374,1.251603 -1.342012,1.916612 -1.257511,1.564156 -2.753244,2.738811 -4.505446,3.538297 -0.504259,0.230081 -1.65721,0.656873 -1.773318,0.656435 -0.02679,-1.02e-4 -0.154239,-0.333787 -0.283212,-0.741526 z"
     id="path842"
     inkscape:connector-curvature="0" />
  <path
     style="fill:#f9f9f9;fill-opacity:1;stroke:none;stroke-width:0.08474576;stroke-opacity:1"
     d="m 51.557223,47.453786 c -0.580719,-0.08178 -1.763461,-0.374288 -2.508579,-0.620408 -0.804128,-0.265612 -2.872997,-1.227958 -2.872517,-1.336168 1.42e-4,-0.03217 0.135759,-0.497056 0.30137,-1.033073 0.340052,-1.100612 0.924078,-3.41005 1.014003,-4.009711 0.03275,-0.218388 0.08382,-0.395962 0.113481,-0.394608 0.02967,0.0014 0.45069,0.114242 0.935611,0.250865 0.603451,0.170017 0.964474,0.322436 1.144067,0.483008 1.229031,1.098864 2.139369,2.106044 2.819647,3.119598 0.417567,0.622138 1.077244,1.817482 1.029414,1.865312 -0.01921,0.01921 -0.576605,-0.345899 -1.238652,-0.811355 -0.662048,-0.465457 -1.311293,-0.867799 -1.442767,-0.894094 -0.542382,-0.108476 -1.200786,0.444751 -1.201541,1.0096 -6.1e-4,0.458688 0.231574,0.70794 1.438154,1.543861 0.653757,0.452924 1.188648,0.838095 1.188648,0.855935 0,0.03735 -0.350169,0.02337 -0.720339,-0.02876 z"
     id="path844"
     inkscape:connector-curvature="0" />
  <path
     style="fill:#999999;fill-opacity:1;stroke:none;stroke-width:0.08474576;stroke-opacity:1"
     d="M 11.058727,38.950396 C 10.511419,38.814838 9.7599997,38.36417 9.3494251,37.925233 8.3340341,36.839698 8.1152087,35.338871 8.7756626,33.990049 c 0.3274475,-0.668735 0.3675983,-0.687386 0.9392761,-0.436321 0.2674939,0.117476 0.6770303,0.256346 0.9100813,0.308601 0.365537,0.08196 4.428679,0.429096 5.050309,0.431475 l 0.2198,8.41e-4 0.05523,1.339737 c 0.03038,0.736855 0.07869,1.566304 0.107368,1.84322 l 0.05214,0.503484 -1.810219,0.505307 c -1.869551,0.52187 -2.590529,0.625092 -3.240919,0.464003 z"
     id="path846"
     inkscape:connector-curvature="0" />
  <path
     style="fill:#999999;fill-opacity:1;stroke:none;stroke-width:0.08474576;stroke-opacity:1"
     d="M 15.201291,32.198147 C 11.008168,31.880995 10.871854,31.86546 10.405953,31.651653 9.7273771,31.340247 9.0298148,30.660726 8.6990973,29.988944 8.4364188,29.455368 8.4216301,29.375453 8.4216301,28.48956 c 0,-0.884873 0.015011,-0.966258 0.2759913,-1.496385 0.3944345,-0.80121 1.0142902,-1.396408 1.8161476,-1.743902 0.211996,-0.09187 0.267628,-0.06531 0.805089,0.384358 0.664566,0.556012 1.68875,1.227143 2.483689,1.627521 0.601356,0.302879 2.202372,0.958533 2.546763,1.04296 l 0.215816,0.05291 -0.190514,0.956101 c -0.104783,0.525855 -0.238621,1.404194 -0.297417,1.951863 -0.09868,0.919205 -0.120176,0.994589 -0.279539,0.980488 -0.09495,-0.0084 -0.363314,-0.0297 -0.596365,-0.04733 z"
     id="path848"
     inkscape:connector-curvature="0" />
  <path
     style="fill:#999999;fill-opacity:1;stroke:none;stroke-width:0.08474576;stroke-opacity:1"
     d="m 18.972478,19.115656 c -1.604456,-1.880027 -1.833782,-2.201535 -2.035001,-2.853005 -0.201059,-0.650952 -0.21287,-1.168401 -0.04167,-1.825667 0.32738,-1.256899 1.220927,-2.202453 2.409853,-2.550114 0.554772,-0.162224 1.392573,-0.178167 1.506343,-0.02867 0.04434,0.05826 0.626077,1.555084 1.292754,3.326271 0.666677,1.771186 1.229519,3.266098 1.25076,3.322026 0.02144,0.05645 -0.09824,0.15887 -0.269056,0.230242 -0.51881,0.216773 -1.885365,1.051202 -2.375876,1.450728 -0.255487,0.208098 -0.474595,0.37604 -0.486906,0.373205 -0.01231,-0.0028 -0.57535,-0.653094 -1.251197,-1.445021 z"
     id="path850"
     inkscape:connector-curvature="0" />
  <path
     style="fill:#999999;fill-opacity:1;stroke:none;stroke-width:0.08474576;stroke-opacity:1"
     d="M 25.30425,17.797791 C 25.280441,17.758772 24.701153,16.23956 24.016944,14.421764 23.03758,11.819803 22.76309,10.999492 22.726685,10.565832 22.608721,9.1606203 23.405809,7.8032697 24.73251,7.1501369 c 0.519153,-0.2555782 0.602286,-0.2706056 1.483948,-0.2682407 0.779548,0.00209 0.997044,0.032779 1.315342,0.1855903 0.655736,0.3148124 0.639437,0.2305332 0.258325,1.3357999 -0.894721,2.5947886 -1.041837,5.0759746 -0.468427,7.9002236 0.110976,0.546597 0.189093,1.006494 0.173594,1.021994 -0.0155,0.0155 -0.423584,0.120117 -0.906854,0.232485 -0.48327,0.112368 -0.960173,0.228255 -1.059786,0.257525 -0.09961,0.02927 -0.200594,0.02129 -0.224402,-0.01772 z"
     id="path852"
     inkscape:connector-curvature="0" />
  <path
     style="fill:#999999;fill-opacity:1;stroke:none;stroke-width:0.08474576;stroke-opacity:1"
     d="m 37.563631,17.580198 -1.027491,-0.254615 0.113024,-0.434961 c 0.202474,-0.779201 0.374161,-2.410868 0.374161,-3.55593 0,-1.819081 -0.213267,-3.160737 -0.768126,-4.832254 -0.183316,-0.5522393 -0.309412,-1.0427258 -0.280213,-1.0899698 0.0292,-0.047244 0.267485,-0.1838759 0.529527,-0.3036263 0.400385,-0.182972 0.604955,-0.2186636 1.281524,-0.2235894 0.442796,-0.00322 0.966671,0.043146 1.164165,0.1030438 0.601345,0.1823818 1.375163,0.7745054 1.774207,1.3576188 0.463146,0.6767852 0.574628,1.0688378 0.570995,2.0080519 -0.0029,0.757893 -0.0083,0.776902 -0.853996,3.008475 -0.468075,1.235169 -1.033419,2.751059 -1.25632,3.368644 -0.222901,0.617585 -0.44773,1.118571 -0.49962,1.113304 -0.05189,-0.0053 -0.556717,-0.124154 -1.121837,-0.264192 z"
     id="path854"
     inkscape:connector-curvature="0" />
  <path
     style="fill:#999999;fill-opacity:1;stroke:none;stroke-width:0.08474576;stroke-opacity:1"
     d="m 43.506376,20.340609 c -0.430823,-0.363089 -1.57854,-1.094446 -2.229209,-1.420511 -0.539661,-0.270437 -0.611737,-0.333222 -0.562091,-0.48964 0.03132,-0.09868 0.604166,-1.632113 1.27299,-3.407619 l 1.216044,-3.228194 0.480996,-0.02577 c 0.598712,-0.03208 1.453007,0.215586 2.005163,0.581318 1.403887,0.929896 1.926887,2.807436 1.214423,4.359711 -0.110879,0.241578 -0.768218,1.097691 -1.52913,1.991526 -1.769651,2.078791 -1.562805,1.897396 -1.869186,1.639184 z"
     id="path856"
     inkscape:connector-curvature="0" />
  <path
     style="fill:#999999;fill-opacity:1;stroke:none;stroke-width:0.08474576;stroke-opacity:1"
     d="m 47.999763,31.775172 c -0.09752,-0.897442 -0.309011,-2.34748 -0.419077,-2.873261 l -0.108824,-0.519853 0.686749,-0.228636 c 1.513747,-0.503964 3.357224,-1.503977 4.556074,-2.471488 l 0.648987,-0.523753 0.416738,0.193077 c 0.552491,0.255973 1.194201,0.9117 1.494895,1.527546 0.873006,1.787994 0.151987,3.896826 -1.615064,4.72373 -0.54666,0.255813 -0.654979,0.273333 -2.565701,0.414995 -1.097219,0.08135 -2.230451,0.170122 -2.518293,0.197275 l -0.523349,0.04937 z"
     id="path858"
     inkscape:connector-curvature="0" />
  <path
     style="fill:#999999;fill-opacity:1;stroke:none;stroke-width:0.08474576;stroke-opacity:1"
     d="m 50.879257,38.82859 c -0.419491,-0.11207 -1.258474,-0.351343 -1.864407,-0.531719 -0.939333,-0.279624 -1.09931,-0.352038 -1.085516,-0.491362 0.0089,-0.08987 0.06251,-0.912039 0.119131,-1.827034 l 0.102954,-1.663628 1.024936,-0.05862 c 3.322377,-0.190027 4.064493,-0.274495 4.884119,-0.555916 l 0.793816,-0.272559 0.195314,0.24277 c 0.573623,0.712994 0.746196,2.149777 0.372718,3.103115 -0.388856,0.992594 -1.240079,1.77466 -2.285042,2.099399 -0.702194,0.218217 -1.320392,0.206049 -2.258023,-0.04444 z"
     id="path860"
     inkscape:connector-curvature="0" />
</svg>
