<svg xmlns="http://www.w3.org/2000/svg" xmlns:xlink="http://www.w3.org/1999/xlink" version="1.1" x="0px" y="0px" viewBox="5.217 -8.114 100 125" enable-background="new 5.217 -8.114 100 100" xml:space="preserve"><g><path d="M22.734,19.55c0.129,0,0.258-0.007,0.381-0.021c-0.168,0.407-0.262,0.853-0.262,1.321c0,1.891,1.532,3.424,3.424,3.424   c1.167,0,2.194-0.583,2.813-1.471c0.876,3.783,1.354,8.355,7.691,8.355c6.093,0,6.587-4.491,7.614-8.081   c0.037,0.027,0.07,0.056,0.109,0.081c0.25,0.167,0.529,0.262,0.813,0.299c0.6,0.511,1.373,0.818,2.22,0.818   c1.896,0,3.427-1.533,3.427-3.424c0-0.46-0.093-0.899-0.256-1.301c0.006,0,0.014,0,0.02,0c1.891,0,3.423-1.532,3.423-3.423   c0-1.569-1.054-2.889-2.491-3.297c0.589-0.614,0.957-1.45,0.957-2.372c0-1.892-1.534-3.426-3.425-3.426   c-0.184,0-0.364,0.015-0.537,0.044c0.116-0.349,0.181-0.718,0.181-1.106c0-1.892-1.531-3.424-3.424-3.424   c-0.977,0-1.859,0.41-2.483,1.067c-0.06-1.839-1.569-3.312-3.422-3.312c-1.21,0-2.276,0.629-2.883,1.577   c-0.578-1.078-1.713-1.813-3.021-1.813c-1.648,0-3.023,1.163-3.352,2.713c-0.507-0.298-1.097-0.468-1.729-0.468   c-1.892,0-3.423,1.532-3.423,3.424c0,0.361,0.056,0.708,0.158,1.034c-0.442-0.208-0.936-0.326-1.458-0.326   c-1.893,0-3.426,1.534-3.426,3.426c0,1.232,0.651,2.311,1.626,2.913c-1.537,0.339-2.688,1.708-2.688,3.347   C19.31,18.019,20.843,19.55,22.734,19.55z M26.729,6.116c0-1.279,1.037-2.316,2.317-2.316c1.279,0,2.318,1.037,2.318,2.316   c0,0.175-0.02,0.345-0.058,0.507h11.517c-0.037-0.162-0.057-0.332-0.057-0.507c0-1.279,1.035-2.316,2.317-2.316   c1.279,0,2.317,1.037,2.317,2.316c0,1.171-0.87,2.139-1.997,2.295c1.127,0.157,1.997,1.124,1.997,2.295   c0,1.278-1.038,2.316-2.317,2.316c-1.282,0-2.317-1.038-2.317-2.316c0-0.144,0.012-0.282,0.035-0.417H31.326   c0.025,0.135,0.038,0.273,0.038,0.417c0,1.278-1.038,2.316-2.318,2.316c-1.281,0-2.317-1.038-2.317-2.316   c0-1.17,0.868-2.139,1.995-2.295C27.597,8.254,26.729,7.287,26.729,6.116z M67.349,52.393h-9.427V38.926   c0-2.906-1.541-4.505-4.301-4.505c0,0-30.456,0-32.208,0c-2.666,0-4.51,1.311-4.51,4.413v29.769c0,1.346,1.09,2.436,2.435,2.436   l1.033-0.004c0.029,0.002,0.059,0.004,0.086,0.004h0.602c1.346,0,2.435-1.09,2.435-2.436V48.706   c0.028-0.755,0.527-2.155,1.848-2.155c1.321,0,1.848,1.232,1.848,2.155c0,0.925,0,48.8,0,48.8c0,1.412,1.129,2.557,2.541,2.557   h1.046c1.412,0,2.926-1.143,2.926-2.557V72.869h7.355v24.639c0,1.412,1.143,2.557,2.555,2.557h1.418   c1.41,0,2.557-1.145,2.557-2.557V70.313c0-0.029-0.002-0.053-0.002-0.078c0,0,0-20.006,0-21.527c0-1.099,0.603-2.155,1.852-2.155   c1.246,0,1.851,1.026,1.851,2.155c0,0.984,0,7.713,0,7.713c0,0.785,0.37,1.48,0.949,1.928c0.453,0.416,0.998,0.67,1.662,0.67   h13.451c1.411,0,2.554-1.143,2.554-2.559v-1.514C69.9,53.535,68.758,52.393,67.349,52.393z M29.795,39.662   c-0.977,0-1.771-0.793-1.771-1.771s0.793-1.772,1.771-1.772c0.979,0,1.772,0.794,1.772,1.772   C31.567,38.87,30.773,39.662,29.795,39.662z M32.313,44.189c-0.976,0-1.77-0.794-1.77-1.772c0-0.979,0.794-1.771,1.77-1.771   c0.981,0,1.774,0.793,1.774,1.771C34.087,43.395,33.295,44.189,32.313,44.189z M37.324,53.561   c-2.461-0.434-5.576-4.846-1.852-9.253c1.264-1.497,5.096,0.397,3.329,3.065c-1.189,1.801-2.097,3.76-0.037,5.039   c0.597,0.373,1.615-0.029,1.615-0.029S40.047,54.039,37.324,53.561z M41.527,44.189c-0.977,0-1.771-0.794-1.771-1.772   c0-0.979,0.795-1.771,1.771-1.771c0.979,0,1.771,0.793,1.771,1.771C43.299,43.395,42.507,44.189,41.527,44.189z M43.495,39.662   c-0.979,0-1.771-0.793-1.771-1.771s0.792-1.772,1.771-1.772c0.981,0,1.772,0.794,1.772,1.772   C45.268,38.87,44.477,39.662,43.495,39.662z"/><path d="M63.781,100.064h2.564V60.393h-2.564V100.064z M70.043,26.159c-0.809-2.271-2.342-3.197-3.475-4.391l2.857-2.861   L65.07,8.162l-4.209,10.746l2.85,2.861c-1.125,1.164-2.344,2.052-3.421,4.118c-0.932,1.786-1.186,4.267,0.021,5.929   c1.016-0.564,2.568-1.61,3.479-3.267c0,2.539,0,22.325,0,22.325h2.556c0,0,0-18.15,0-22.329c0.837,1.598,2.4,2.692,3.367,3.271   C70.755,30.444,70.727,28.071,70.043,26.159z"/></g><text x="5.217" y="106.886" fill="#000000" font-size="5px" font-weight="bold" font-family="'Helvetica Neue', Helvetica, Arial-Unicode, Arial, Sans-serif">Created by Mila Redko</text><text x="5.217" y="111.886" fill="#000000" font-size="5px" font-weight="bold" font-family="'Helvetica Neue', Helvetica, Arial-Unicode, Arial, Sans-serif">from the Noun Project</text></svg>