<?xml version="1.0" encoding="UTF-8" standalone="no"?>
<svg
   xmlns:dc="http://purl.org/dc/elements/1.1/"
   xmlns:cc="http://creativecommons.org/ns#"
   xmlns:rdf="http://www.w3.org/1999/02/22-rdf-syntax-ns#"
   xmlns:svg="http://www.w3.org/2000/svg"
   xmlns="http://www.w3.org/2000/svg"
   xmlns:sodipodi="http://sodipodi.sourceforge.net/DTD/sodipodi-0.dtd"
   xmlns:inkscape="http://www.inkscape.org/namespaces/inkscape"
   viewBox="0 0 64 80"
   x="0px"
   y="0px"
   version="1.1"
   id="svg12"
   sodipodi:docname="Natives.svg"
   inkscape:version="0.92.4 (5da689c313, 2019-01-14)">
  <metadata
     id="metadata18">
    <rdf:RDF>
      <cc:Work
         rdf:about="">
        <dc:format>image/svg+xml</dc:format>
        <dc:type
           rdf:resource="http://purl.org/dc/dcmitype/StillImage" />
      </cc:Work>
    </rdf:RDF>
  </metadata>
  <defs
     id="defs16" />
  <sodipodi:namedview
     pagecolor="#ffffff"
     bordercolor="#666666"
     borderopacity="1"
     objecttolerance="10"
     gridtolerance="10"
     guidetolerance="10"
     inkscape:pageopacity="0"
     inkscape:pageshadow="2"
     inkscape:window-width="640"
     inkscape:window-height="480"
     id="namedview14"
     showgrid="false"
     inkscape:zoom="2.95"
     inkscape:cx="32"
     inkscape:cy="40"
     inkscape:window-x="0"
     inkscape:window-y="0"
     inkscape:window-maximized="0"
     inkscape:current-layer="svg12" />
  <title
     id="title2">indian-chief</title>
  <g
     id="g6">
    <path
       d="M58,17a1.12,1.12,0,0,0-.27-.3l-.09,0a.79.79,0,0,0-.28-.13h0a19.13,19.13,0,0,0-8.31.37,5.48,5.48,0,0,0,.22-2.35,5.58,5.58,0,0,0-2.32-3.84,5.5,5.5,0,0,0-3.6-1,5.47,5.47,0,0,0-.58-2A5.51,5.51,0,0,0,35,5.57a19.72,19.72,0,0,0-2.2-3.24s0,0,0,0a1,1,0,0,0-1.46,0s0,0,0,0a19.72,19.72,0,0,0-2.2,3.24,5.51,5.51,0,0,0-7.78,2.2,5.26,5.26,0,0,0-.57,2,5.51,5.51,0,0,0-3.61,1,5.58,5.58,0,0,0-2.32,3.84A5.48,5.48,0,0,0,15,16.89a19.13,19.13,0,0,0-8.31-.37h0a1,1,0,0,0-.28.12l-.09.05A1,1,0,0,0,6,17a1.12,1.12,0,0,0-.13.39s0,.06,0,.1a1,1,0,0,0,0,.3s0,0,0,0a19,19,0,0,0,3.3,5.76l-.34.2a5.53,5.53,0,0,0-1.43,8.06l.15.17-.15.17A5.53,5.53,0,0,0,11.12,41a19.08,19.08,0,0,0-3.85,7.38v0a1.51,1.51,0,0,0,0,.3s0,.07,0,.1a.84.84,0,0,0,.16.38.88.88,0,0,0,.34.29.33.33,0,0,0,.15,0,.76.76,0,0,0,.21.08,15.56,15.56,0,0,0,1.63.07,17.53,17.53,0,0,0,8.86-2.28,36.87,36.87,0,0,0,2.08,4.35,2.48,2.48,0,0,0,.3,3.72V59a1,1,0,0,0,2,0V56h1v5a1,1,0,0,0,2,0V56h1v3a1,1,0,0,0,2,0V55.49a2.48,2.48,0,0,0,0-4v-4.1l.29.3A1,1,0,0,0,30,48h4a1,1,0,0,0,.71-.29l.29-.3v4.1a2.48,2.48,0,0,0,0,4V59a1,1,0,0,0,2,0V56h1v5a1,1,0,0,0,2,0V56h1v3a1,1,0,0,0,2,0V55.49a2.48,2.48,0,0,0,.3-3.72,38.23,38.23,0,0,0,2.09-4.35,17.48,17.48,0,0,0,8.85,2.28,15.56,15.56,0,0,0,1.63-.07.76.76,0,0,0,.21-.08.33.33,0,0,0,.15,0,1,1,0,0,0,.35-.29,1,1,0,0,0,.15-.38s0-.07,0-.1a1.51,1.51,0,0,0,0-.3v0A19.08,19.08,0,0,0,52.88,41a5.53,5.53,0,0,0,3.65-8.86L56.38,32l.15-.17a5.53,5.53,0,0,0-1.43-8.06l-.34-.2a19,19,0,0,0,3.3-5.76s0,0,0,0a1,1,0,0,0,0-.3s0-.07,0-.1A1.12,1.12,0,0,0,58,17ZM43,12.24l.15-.47a3.52,3.52,0,0,1,3.28,5.76l-.66.76-2,2.35A9.51,9.51,0,0,0,43,20a13.31,13.31,0,0,0-2.41-1.38Zm1.83,14.14c-.9-.22-1.88-.41-2.88-.59-.66-.11-1.32-.22-2-.31l2.91-2.91a7,7,0,0,1,.88,1.16,5.37,5.37,0,0,1,.36.66C44.36,25.06,44.61,25.72,44.82,26.38Zm-8.92-19A3.53,3.53,0,0,1,41,8.68a3.41,3.41,0,0,1,.38,1.58,3.56,3.56,0,0,1-.22,1.28l-1.36,3.6-1,2.79a17.73,17.73,0,0,0-2.31-.55c.06-.21.11-.41.16-.62A17,17,0,0,0,37,13a14.9,14.9,0,0,0-1.18-5.6ZM38,19.8a15,15,0,0,1,1.87.7,11.92,11.92,0,0,1,1.43.79l-3.18,3.19-1.26-1.67-1.64-2.2-1.14-1.52c.6.05,1.16.12,1.71.21A18.49,18.49,0,0,1,38,19.8Zm-1.9,5.32C34.76,25,33.39,25,32,25s-2.76,0-4.09.12l.29-.38,1.7-2.28,1.26-1.68L32,19.67l.84,1.11,1.26,1.68,1.7,2.28ZM29.58,9.43a16,16,0,0,1,1-2.46c.14-.27.27-.52.41-.76V9a1,1,0,0,0,.72.94.68.68,0,0,0,.56,0A1,1,0,0,0,33,9V6.21c.14.24.27.49.41.76a16,16,0,0,1,1,2.46A11.81,11.81,0,0,1,35,13a15.29,15.29,0,0,1-.58,4.12C33.64,17.05,32.84,17,32,17s-1.64.05-2.42.12A15.29,15.29,0,0,1,29,13,11.81,11.81,0,0,1,29.58,9.43Zm.35,9.66-1.14,1.52-1.64,2.2-1.26,1.67-3.18-3.19a11.92,11.92,0,0,1,1.43-.79A15,15,0,0,1,26,19.8a18.49,18.49,0,0,1,2.21-.5C28.77,19.21,29.33,19.14,29.93,19.09Zm-5.86,6.39c-.69.09-1.35.2-2,.31-1,.18-2,.37-2.88.59.21-.66.46-1.32.74-2a5.37,5.37,0,0,1,.36-.66,7,7,0,0,1,.88-1.16Zm-1-16.8a3.5,3.5,0,0,1,2.22-1.79,3.3,3.3,0,0,1,.92-.13,3.55,3.55,0,0,1,1.91.57l.08.07A14.9,14.9,0,0,0,27,13a16.87,16.87,0,0,0,.45,3.75c.05.22.1.42.16.63a17.73,17.73,0,0,0-2.31.55l-1.05-2.79-1.36-3.6a3.56,3.56,0,0,1-.22-1.28A3.41,3.41,0,0,1,23.05,8.68Zm-6.29,6.11a3.49,3.49,0,0,1,1.47-2.45,3.53,3.53,0,0,1,2-.64,3.18,3.18,0,0,1,.62.07c.05.16.1.32.16.47l2.41,6.38A13.31,13.31,0,0,0,21,20a9.51,9.51,0,0,0-.76.64l-2-2.34-.67-.77A3.51,3.51,0,0,1,16.76,14.79ZM9.16,20l2.42,1.4a1,1,0,0,0,1-1.74l-2.42-1.39A14.16,14.16,0,0,1,17,19.85l2,2.28a7.68,7.68,0,0,0-.83,1.48,26.89,26.89,0,0,0-1,2.8,15.7,15.7,0,0,1-1.68-.62c-.45-.21-.9-.43-1.35-.69A11.94,11.94,0,0,1,11.37,23,17.16,17.16,0,0,1,9.16,20Zm-.8,7.86A3.53,3.53,0,0,1,10,25.46a3.72,3.72,0,0,1,.76-.35,13.25,13.25,0,0,0,2.33,1.72,16.87,16.87,0,0,0,3.52,1.52A27.52,27.52,0,0,0,16,32.29L12.11,32l-.54,0a3.5,3.5,0,0,1-2.41-1.24l-.11-.11A3.51,3.51,0,0,1,8.36,27.83ZM10,38.54a3.52,3.52,0,0,1-.91-5.15l.11-.11a5.54,5.54,0,0,0,2.26.67l4.51.34A31.75,31.75,0,0,0,16.15,38l-2.38.67-1,.28A3.49,3.49,0,0,1,10,38.54Zm1.5,9.06L13.73,46A1,1,0,0,0,14,44.62a1,1,0,0,0-1.39-.25L10.29,46a14.12,14.12,0,0,1,4.33-5.47L16.45,40a38.72,38.72,0,0,0,1.45,5.52A14.15,14.15,0,0,1,11.46,47.6Zm8.86-1.39c-.24-.64-.48-1.3-.71-2a34.71,34.71,0,0,1-1.18-4.75c-.12-.65-.21-1.32-.28-2a29.09,29.09,0,0,1-.19-3c0-.65,0-1.32.06-2a25.31,25.31,0,0,1,.5-3.6,2.07,2.07,0,0,0,0-.22,38.3,38.3,0,0,1,5.26-1.08L23.2,29l-.89,2.06c0,.14-.09.27-.13.41a1,1,0,0,0-.11.17l-.43,1.08-.78,1.95-.79,2a.92.92,0,0,0-.05.28,1,1,0,0,0,.61,1A1,1,0,0,0,21,38a1,1,0,0,0,.93-.63l.45-1.12.3-.76.13.64,0,.1a2.94,2.94,0,0,0,1.35,1.94l.46,2.76L25,43.17a1.12,1.12,0,0,0,.28.54L27,45.41V51H25.72L25,48.68a1,1,0,1,0-1.9.64L23.61,51h-1A36.52,36.52,0,0,1,20.32,46.21ZM27.5,54h-5a.5.5,0,0,1,0-1h5a.5.5,0,0,1,0,1Zm6.09-8H30.41l-3.48-3.48-.6-3.59a1,1,0,0,0,.57-.49,1,1,0,0,0-.38-1.28s-.05,0-.08-.06l-1.12-.55a1,1,0,0,1-.53-.71l-.05-.25-.13-.65-.41-2-.1-.5a1,1,0,0,1,.06-.58l1-2.4.93-2.16c.51-.05,1-.07,1.56-.11l.85-.06C29.67,27,30.83,27,32,27s2.33,0,3.47.1l.85.06c.52,0,1,.06,1.56.11l.93,2.16,1,2.38a1,1,0,0,1,.07.6l-.1.5-.41,2-.13.65,0,.26a1,1,0,0,1-.52.69l-1.13.56s-.05,0-.08.06a1,1,0,0,0-.38,1.28,1,1,0,0,0,.57.49l-.6,3.59Zm7.91,8h-5a.5.5,0,0,1,0-1h5a.5.5,0,0,1,0,1Zm4.35-16.56c-.07.68-.16,1.35-.28,2a34.71,34.71,0,0,1-1.18,4.75c-.23.72-.47,1.38-.71,2A36.52,36.52,0,0,1,41.43,51h-1L41,49.32a1,1,0,1,0-1.9-.64L38.28,51H37V45.41l1.71-1.7a1.12,1.12,0,0,0,.28-.54l.37-2.24.46-2.75a3,3,0,0,0,1.35-1.94l0-.11.13-.64.3.76.45,1.12A1,1,0,0,0,43,38a1,1,0,0,0,.37-.07,1,1,0,0,0,.61-1,.92.92,0,0,0,0-.28l-.79-2-.78-1.95-.43-1.08a1,1,0,0,0-.11-.17,4.28,4.28,0,0,0-.14-.43l-.88-2-.62-1.45a38,38,0,0,1,5.26,1.08,2.07,2.07,0,0,0,0,.22,25.31,25.31,0,0,1,.5,3.6c.05.68.07,1.35.06,2A29.09,29.09,0,0,1,45.85,37.44ZM53.7,46l-2.29-1.6A1,1,0,1,0,50.27,46l2.26,1.59a14.44,14.44,0,0,1-6.43-2.08A38.72,38.72,0,0,0,47.55,40l1.83.51A14.15,14.15,0,0,1,53.7,46Zm1.94-9.8A3.53,3.53,0,0,1,54,38.54a3.48,3.48,0,0,1-2.83.41l-1-.28L47.85,38a31.75,31.75,0,0,0,.22-3.71L52.58,34a5.54,5.54,0,0,0,2.26-.67,1.14,1.14,0,0,0,.11.11A3.51,3.51,0,0,1,55.64,36.17Zm0-8.34A3.51,3.51,0,0,1,55,30.61a1.14,1.14,0,0,0-.11.11A3.5,3.5,0,0,1,52.43,32l-.54,0L48,32.29a27.52,27.52,0,0,0-.57-3.94A16.87,16.87,0,0,0,51,26.83a13.25,13.25,0,0,0,2.33-1.72,3.72,3.72,0,0,1,.76.35A3.53,3.53,0,0,1,55.64,27.83Zm-3-4.88A11.66,11.66,0,0,1,50,25.1c-.45.26-.9.48-1.35.69a15.7,15.7,0,0,1-1.68.62,26.89,26.89,0,0,0-1-2.8,7.68,7.68,0,0,0-.83-1.48l2-2.28a14.16,14.16,0,0,1,6.79-1.61l-2.42,1.39a1,1,0,0,0,1,1.74L54.84,20A16.75,16.75,0,0,1,52.62,23ZM38,31.22A1.43,1.43,0,0,0,38,31a1,1,0,0,0-1-1H35a1,1,0,0,0,0,2,1,1,0,0,0,.89,1L36,33a1,1,0,0,0,1-1A1,1,0,0,0,38,31.22ZM33,41H31a1,1,0,0,0,0,2h2a1,1,0,0,0,0-2Zm-3-3a1,1,0,0,0,1,1h1a1,1,0,0,0,0-2v-.84l1-2.84a1,1,0,1,0-1.9-.64l-1,3A1.19,1.19,0,0,0,30,36Zm-1-8H27a1,1,0,0,0-1,1,1.43,1.43,0,0,0,0,.22A1,1,0,0,0,27,32a1,1,0,0,0,1,1l.11,0A1,1,0,0,0,29,32a1,1,0,0,0,0-2Z"
       id="path4" />
  </g>
</svg>
