<svg xmlns="http://www.w3.org/2000/svg" viewBox="0 0 64 80" x="0px" y="0px"><title>torch, play, sport, game,</title><g><path data-name="torch, play, sport, game," d="M42,27H39.93a16,16,0,0,0,.92-16.53,1,1,0,0,0-1.09-.41A1,1,0,0,0,39,11a13.73,13.73,0,0,1-2.71,4.3c-.09.09-.17.19-.26.29a7.89,7.89,0,0,0-1.2-3.13C33.09,9.83,34,5.24,34,5.2a1,1,0,0,0-.29-.92A1,1,0,0,0,32.76,4c-3.67.92-4,7.08-3.87,10.27A13.35,13.35,0,0,1,27,8.86a1,1,0,0,0-.67-.81,1,1,0,0,0-1,.24c-2.15,2.15-1.44,6.06-.51,8.89a21.48,21.48,0,0,1-1.92-2.69,1,1,0,0,0-1.72,0C18.66,18.62,22,24.24,24,27H22a1,1,0,0,0-1,1v4a1,1,0,0,0,1,1h3.14L29,59.15A1,1,0,0,0,30,60h4a1,1,0,0,0,1-.85L38.86,33H42a1,1,0,0,0,1-1V28A1,1,0,0,0,42,27ZM22.29,17.26C23.5,18.94,25.33,21,27,21a1,1,0,0,0,.89-1.45,20.77,20.77,0,0,1-2-6.73c.73,2.07,2,4.18,4.09,4.18a1,1,0,0,0,.74-.33A1,1,0,0,0,31,15.9c-.22-2.17-.2-6.13.75-8.35a10.68,10.68,0,0,0,1.42,6A7.66,7.66,0,0,1,34,18.78a1,1,0,0,0,.65,1.16,1,1,0,0,0,1.22-.49,12.77,12.77,0,0,1,1.82-2.74A19.74,19.74,0,0,0,40,13.52C41,16.21,41.69,21.34,37.49,27h-11C24.83,25,21.93,20.63,22.29,17.26ZM33.14,58H30.86l-3.7-25h9.68ZM41,31H23V29H41Z"/></g><text x="0" y="79" fill="#000000" font-size="5px" font-weight="bold" font-family="'Helvetica Neue', Helvetica, Arial-Unicode, Arial, Sans-serif">Created by Jay Alfarez</text><text x="0" y="84" fill="#000000" font-size="5px" font-weight="bold" font-family="'Helvetica Neue', Helvetica, Arial-Unicode, Arial, Sans-serif">from the Noun Project</text></svg>