<svg xmlns="http://www.w3.org/2000/svg" xmlns:xlink="http://www.w3.org/1999/xlink" version="1.1" x="0px" y="0px" viewBox="0 0 32 40" style="enable-background:new 0 0 32 32;" xml:space="preserve"><g><g><path d="M13.9899549,27.2061024H1.7584944c-0.2334665,0-0.4505175-0.1158218-0.5809305-0.3091602    c-0.1304131-0.1933403-0.1559484-0.4391174-0.0683985-0.6548004l6.1157303-15.0512991    c0.2152271-0.5280361,1.0834312-0.5280361,1.2986584,0l6.1157293,15.0512991    c0.0875502,0.215683,0.0620146,0.4614601-0.0683985,0.6548004C14.4404726,27.0902805,14.2234211,27.2061024,13.9899549,27.2061024    z M2.7990623,25.8053036h10.1503239L7.8742247,13.3148413L2.7990623,25.8053036z"/></g><g><path d="M30.2414169,27.2061024h-16.251461c-0.28545,0-0.5417156-0.1728191-0.6493292-0.4368382L7.2248955,11.7179661    c-0.0875497-0.215683-0.0620146-0.4614611,0.0683985-0.6548004c0.1304131-0.1933403,0.3474641-0.3091612,0.5809307-0.3091612    h16.251461c0.28545,0,0.5417156,0.1728201,0.6493301,0.4368382l6.1157303,15.0512991    c0.0875492,0.215683,0.0620136,0.4614601-0.0683994,0.6548004C30.6919346,27.0902805,30.474884,27.2061024,30.2414169,27.2061024z     M14.4614477,25.8053036h14.7394018l-5.5466557-13.6504993H8.9147921L14.4614477,25.8053036z"/></g><g><path d="M1.7584944,27.2061024c-0.3866791,0-0.7003998-0.3137207-0.7003998-0.7003994v-3.6916904    c0-0.3866787,0.3137207-0.7003994,0.7003998-0.7003994s0.7003999,0.3137207,0.7003999,0.7003994v3.6916904    C2.4588943,26.8923817,2.1451733,27.2061024,1.7584944,27.2061024z"/></g><g><path d="M13.9899549,27.2061024c-0.3866796,0-0.7004004-0.3137207-0.7004004-0.7003994v-3.6916904    c0-0.3866787,0.3137207-0.7003994,0.7004004-0.7003994c0.3866787,0,0.7003994,0.3137207,0.7003994,0.7003994v3.6916904    C14.6903543,26.8923817,14.3766336,27.2061024,13.9899549,27.2061024z"/></g><g><path d="M30.2414169,27.2061024c-0.3866787,0-0.7003994-0.3137207-0.7003994-0.7003994v-3.6916904    c0-0.3866787,0.3137207-0.7003994,0.7003994-0.7003994c0.3866806,0,0.7004013,0.3137207,0.7004013,0.7003994v3.6916904    C30.9418182,26.8923817,30.6280975,27.2061024,30.2414169,27.2061024z"/></g><g><path d="M7.8286257,27.2061024c-0.3866792,0-0.7003999-0.3137207-0.7003999-0.7003994V11.4544039    c0-0.3866787,0.3137207-0.7003994,0.7003999-0.7003994c0.3866787,0,0.7003994,0.3137207,0.7003994,0.7003994V26.505703    C8.5290251,26.8923817,8.2153044,27.2061024,7.8286257,27.2061024z"/></g><g><path d="M27.6705494,15.3230181c-1.0159454,0-2.0054417-0.2963924-2.739584-0.5918741    c-0.176012-0.0711346-0.315546-0.2102108-0.3875923-0.3862228l-0.8891792-2.1901169h-4.652916    c-0.2590008,0-0.4970284-0.142725-0.6183205-0.3716316c-1.1016712-2.071104-0.6867199-3.1093922-0.1440926-3.6155405    c0.5927849-0.552659,1.1472683-0.7605901,1.5695152-0.8253407c-0.0063839-0.9703455,0.3201046-1.5426121,0.6338253-1.8718362    c0.53442-0.5599551,1.3342247-0.7724462,2.3711452-0.6370173c1.1956043,0.1577721,2.031889,0.6206017,2.48423,1.3752637    c0.1495647,0.2489705,0.2407627,0.5034127,0.2927456,0.7482791c1.0588074-0.4600935,2.5398598-0.6201458,4.1066399,0.376647    c1.0469513,0.6662006,1.2548828,1.4318066,1.2448521,1.9566507c-0.0191517,1.0332718-0.8910046,1.9064913-1.5403328,2.4158316    c0.4468689,0.6019068,0.9557533,1.5116053,0.7295818,2.3255463c-0.109436,0.3957987-0.4277172,0.9165392-1.3214569,1.1513729    C28.4347878,15.2815237,28.0508442,15.3230181,27.6705494,15.3230181z M25.7271233,13.5359955    c0.789772,0.2872734,1.8266926,0.528492,2.7268162,0.2918339c0.2070179-0.0542631,0.3155441-0.1267653,0.3274002-0.1705408    c0.072958-0.2617378-0.3711758-1.0396557-0.9147148-1.600522c-0.1495647-0.1541252-0.2197876-0.3688955-0.1906033-0.5818424    c0.0282707-0.212491,0.1532116-0.4012709,0.3383446-0.510253c0.6101131-0.3593197,1.5175323-1.1490927,1.5266514-1.7012959    c0.0045605-0.2421303-0.1960754-0.4933805-0.5955219-0.7478228c-2.0100021-1.2781386-3.5640125,0.203371-3.6296749,0.2676659    c-0.2362041,0.2298183-0.598259,0.2658415-0.8736763,0.0866375c-0.2745056-0.1796598-0.3894157-0.5239315-0.2745056-0.8312683    c0-0.0004559,0.2197857-0.6347375-0.075695-1.1167183c-0.2790642-0.4555335-0.9484577-0.6320014-1.460989-0.6994877    c-0.3948879-0.0519829-0.9174519-0.056087-1.1755409,0.2147708c-0.1450043,0.1518445-0.3611431,0.5531154-0.185133,1.5303006    c0.0620155,0.3429041-0.127676,0.7455425-0.4578133,0.8554363c-0.221611,0.0738697-0.4596367,0.0291834-0.6392956-0.1035099    c-0.1176453-0.0113993-0.4806137,0.0077524-0.9785538,0.4724054c-0.1705399,0.1591396-0.1532135,0.7058716,0.2407627,1.5622196    h4.6903057c0.28545,0,0.5417156,0.1728201,0.6493301,0.4368382L25.7271233,13.5359955z M19.9625034,8.4694977v0.0004559    C19.9625034,8.4694977,19.9625034,8.4694977,19.9625034,8.4694977z M19.9615917,8.4676733    c0,0.0004559,0.0009117,0.0009117,0.0009117,0.0013685C19.9625034,8.468585,19.9615917,8.4681292,19.9615917,8.4676733z"/></g></g><text x="0" y="47" fill="#000000" font-size="5px" font-weight="bold" font-family="'Helvetica Neue', Helvetica, Arial-Unicode, Arial, Sans-serif">Created by Royyan Wijaya</text><text x="0" y="52" fill="#000000" font-size="5px" font-weight="bold" font-family="'Helvetica Neue', Helvetica, Arial-Unicode, Arial, Sans-serif">from the Noun Project</text></svg>