<svg xmlns="http://www.w3.org/2000/svg" xmlns:xlink="http://www.w3.org/1999/xlink" version="1.1" x="0px" y="0px" viewBox="0 0 512 640" style="enable-background:new 0 0 512 512;" xml:space="preserve"><g><path d="M337.594,307.178c1.172,1.129,2.706,1.707,4.233,1.707c1.534,0,3.06-0.579,4.211-1.751c2.279-2.33,2.171-6.15-0.159-8.436   c-2.337-2.301-6.143-2.33-8.436-0.029c-2.301,2.315-2.214,6.135,0.094,8.451C337.558,307.135,337.573,307.15,337.594,307.178z"/><path d="M446.613,390.643c-6.649-4.587-25.048-17.712-30.286-23.181c-3.155-3.299-6.186-7.163-9.514-11.374   c-7.922-10.071-17.791-22.588-34.164-34.237c-4.066-2.88-9.239-7.148-15.389-12.69c-2.438-2.171-6.179-1.982-8.371,0.449   c-2.192,2.431-1.99,6.179,0.441,8.378c6.483,5.832,12.025,10.375,16.453,13.53c14.977,10.665,23.876,21.951,31.719,31.907   c3.581,4.544,6.873,8.697,10.267,12.227c7.141,7.452,31.089,24.035,32.015,24.686c0.072,0.043,6.635,4.905,6.931,12.039   c0.232,5.542-3.292,11.489-10.744,17.943c-13.797,13.53-32.992,26.596-39.403,24.788c-0.369-0.116-1.498-0.449-2.062-2.301   c0.022-1.418,0.094-34.975-31.697-48.316c-25.005-10.476-42.347-30.445-54.596-62.801c-8.434-22.28-26.747-31.657-41.325-34.74   l35.285-35.946c5.023,5.37,13.993,14.803,24.041,24.859c2.315,2.315,6.063,2.315,8.378,0c2.315-2.315,2.315-6.077,0-8.393   c-10.245-10.25-19.247-19.741-24.113-24.929l3.797-3.867c1.1-1.129,1.708-2.634,1.693-4.211c-0.014-1.563-0.651-3.068-1.773-4.167   l-16.055-15.758c-2.351-2.33-6.092-2.286-8.385,0.072l-4.518,4.602c-14.266-15.936-61.442-68.793-73.324-83.697   c-15.244-19.13-28.803-21.532-29.389-21.532h-0.007C117.95,113.653,65.749,47.871,65.235,47.206   c-1.382-1.751-3.632-2.605-5.839-2.142c-2.199,0.434-3.958,2.084-4.544,4.24c-0.673,2.46-15.498,61.122,67.706,140.159   c30.655,29.114,52.368,48.114,68.22,61.991c23.613,20.645,33.558,29.456,40.217,43.015l-8.13,8.282   c-1.1,1.129-1.707,2.634-1.693,4.211c0.014,1.563,0.651,3.068,1.773,4.167l16.055,15.758c1.158,1.143,2.655,1.707,4.153,1.707   c1.534,0,3.068-0.593,4.233-1.78l9.007-9.176c7.14,0.274,31.224,3.124,40.735,28.248c13.472,35.611,32.884,57.707,61.093,69.544   c24.31,10.187,24.44,36.147,24.571,38.578c1.816,8.277,6.649,11.345,10.39,12.459c1.389,0.405,2.858,0.593,4.399,0.593   c16.916,0,41.53-23.225,46.413-28.029c10.115-8.726,15.013-17.914,14.557-27.305C457.929,398.79,447.127,391.005,446.613,390.643z    M198.586,242.525c-15.78-13.805-37.384-32.703-67.866-61.658c-54.944-52.194-64.443-94.65-65.268-115.14   c18.442,20.49,61.658,63.221,114.38,79.775c0.101,0.014,10.505,1.968,22.805,17.393c12.369,15.509,60.397,69.289,74.274,84.799   l-37.182,37.878C232.102,271.929,220.913,262.063,198.586,242.525z M249.702,307.526c-0.003,0.003-0.003,0.008-0.005,0.011   l-6.622,6.747l-7.59-7.452l58.583-59.69l7.59,7.452l-37.181,37.884L249.702,307.526z"/><path d="M411.385,438.672c6.919-0.908,11.792-7.252,10.885-14.172c-0.908-6.919-7.253-11.792-14.172-10.885   c-6.919,0.908-11.792,7.253-10.885,14.172C398.122,434.707,404.466,439.58,411.385,438.672z"/></g><text x="0" y="527" fill="#000000" font-size="5px" font-weight="bold" font-family="'Helvetica Neue', Helvetica, Arial-Unicode, Arial, Sans-serif">Created by Atif Arshad</text><text x="0" y="532" fill="#000000" font-size="5px" font-weight="bold" font-family="'Helvetica Neue', Helvetica, Arial-Unicode, Arial, Sans-serif">from the Noun Project</text></svg>