<svg xmlns="http://www.w3.org/2000/svg" xmlns:xlink="http://www.w3.org/1999/xlink" version="1.1" x="0px" y="0px" viewBox="0 0 64 80" style="enable-background:new 0 0 64 64;" xml:space="preserve"><g><rect x="35" y="28.007" width="8" height="4"/><polygon points="47.382,22.007 36,22.007 36,24.007 28,24.007 28,22.007 16.618,22.007 14.618,26.007 49.382,26.007  "/><rect x="45" y="28.007" width="2" height="4"/><rect x="31" y="28.007" width="2" height="4"/><polygon points="49.382,34.007 14.618,34.007 12.618,38.007 51.382,38.007  "/><rect x="21" y="28.007" width="8" height="4"/><rect x="17" y="28.007" width="2" height="4"/><path d="M37,7.007h-2.184C34.928,6.693,35,6.36,35,6.007c0-1.655-1.345-3-3-3s-3,1.345-3,3c0,0.352,0.072,0.686,0.184,1H27v2h10   V7.007z"/><path d="M43.414,15.835c-1.318-1.318-2.136-3.005-2.354-4.828H22.94c-0.219,1.823-1.036,3.51-2.354,4.828l-0.172,0.172h23.172   L43.414,15.835z"/><rect x="30" y="18.007" width="4" height="4"/><rect x="36" y="18.007" width="6" height="2"/><rect x="22" y="18.007" width="6" height="2"/><circle cx="40" cy="47.007" r="1"/><polygon points="3,55.007 3,61.007 20.307,61.007 22.557,55.007  "/><polygon points="24.693,55.007 22.443,61.007 24.307,61.007 26.557,55.007  "/><polygon points="37.443,55.007 39.693,61.007 41.557,61.007 39.307,55.007  "/><polygon points="41.443,55.007 43.693,61.007 61,61.007 61,55.007  "/><circle cx="49" cy="47.007" r="1"/><polygon points="27.193,59.007 26.443,61.007 37.557,61.007 36.807,59.007  "/><path d="M48,44.192v-4.184h-7v4.184c1.161,0.414,2,1.514,2,2.816s-0.839,2.402-2,2.816v3.184h7v-3.184   c-1.161-0.414-2-1.514-2-2.816S46.839,44.606,48,44.192z"/><path d="M55,40.007h-5v4.184c1.161,0.414,2,1.514,2,2.816s-0.839,2.402-2,2.816v3.184h5V40.007z"/><path d="M14,49.823c-1.161-0.414-2-1.514-2-2.816s0.839-2.402,2-2.816v-4.184H9v13h5V49.823z"/><rect x="31" y="47.007" width="2" height="6"/><polygon points="27.943,57.007 36.057,57.007 35.307,55.007 28.693,55.007  "/><path d="M39,44.192v-4.184H25v4.184c1.161,0.414,2,1.514,2,2.816s-0.839,2.402-2,2.816v3.184h4v-8h6v8h4v-3.184   c-1.161-0.414-2-1.514-2-2.816S37.839,44.606,39,44.192z"/><circle cx="24" cy="47.007" r="1"/><path d="M23,44.192v-4.184h-7v4.184c1.161,0.414,2,1.514,2,2.816s-0.839,2.402-2,2.816v3.184h7v-3.184   c-1.161-0.414-2-1.514-2-2.816S21.839,44.606,23,44.192z"/><circle cx="15" cy="47.007" r="1"/></g><text x="0" y="79" fill="#000000" font-size="5px" font-weight="bold" font-family="'Helvetica Neue', Helvetica, Arial-Unicode, Arial, Sans-serif">Created by Eucalyp</text><text x="0" y="84" fill="#000000" font-size="5px" font-weight="bold" font-family="'Helvetica Neue', Helvetica, Arial-Unicode, Arial, Sans-serif">from the Noun Project</text></svg>