<svg xmlns="http://www.w3.org/2000/svg" xmlns:xlink="http://www.w3.org/1999/xlink" version="1.1" x="0px" y="0px" viewBox="0 0 100 125" enable-background="new 0 0 100 100" xml:space="preserve"><path fill-rule="evenodd" clip-rule="evenodd" d="M44.2753906,37.4414063c0.2333984-0.1665039,0.5-0.1499023,0.7998047,0.050293  c0.2666016,0.1665039,0.3994141,0.2998047,0.3994141,0.3999023c0.5673828,0.8999023,0.6337891,1.4833984,0.2001953,1.75  c-0.4667969,0.2333984-0.9667969-0.0834961-1.5-0.9501953l-0.1494141-0.449707  C43.9580078,37.875,44.0419922,37.6083984,44.2753906,37.4414063z M37.0253906,15.0415039l-0.0507813-0.1000977  c-0.0664063,0.0668945-0.1328125,0.1669922-0.1992188,0.300293l-0.6503906,2c-0.2333984,1-0.4003906,2.0332031-0.5,3.0996094  c-0.2666016,2.2001953-0.2333984,4.050293,0.0996094,5.550293l0.8505859,2.949707  c0.0332031,0.1669922,0.0664063,0.3334961,0.0996094,0.5c0.6337891-0.1665039,1.2998047-0.2329102,2-0.199707  C38.6416016,29.074707,38.625,29.0249023,38.625,28.9916992c-0.1328125-0.4667969-0.2167969-1.0336914-0.25-1.7001953  c-0.0996094-1.6665039,0.0166016-3.4501953,0.3496094-5.3500977c0.3339844-1.7333984,0.7675781-3.2998047,1.3007813-4.699707  c-0.2333984,0-0.4667969-0.0336914-0.7001953-0.1000977c-0.5332031-0.2666016-0.8164063-0.3999023-0.8505859-0.3999023  C38.0419922,16.4082031,37.5585938,15.8413086,37.0253906,15.0415039z M50.0253906,43.6416016  c0.1660156-0.3999023,0.25-0.7167969,0.25-0.9501953c-0.0332031,0.0332031-0.0673828,0.0668945-0.1005859,0.1000977  c-0.0664063,0-0.1826172-0.0498047-0.3496094-0.1499023c-0.2001953-0.1000977-0.4003906-0.1499023-0.6005859-0.1499023  c-0.8994141,0.1333008-1.6992188,0.2329102-2.3994141,0.2998047c-0.2001953,0.0668945-0.4833984,0.0332031-0.8505859-0.1000977  c-0.3330078-0.1000977-0.5830078-0.2167969-0.75-0.3500977l-1.0498047-0.6499023  c-0.0996094-0.0664063-0.1660156-0.1166992-0.2001953-0.1499023l0.0507813,0.1000977L44.625,42.5913086l0.0498047,0.1503906  L45.125,45.0415039l0.0996094,0.25c0.6005859,1.3334961,1.2167969,2.1166992,1.8505859,2.3500977  c0.2666016,0.0664063,0.6328125,0.0332031,1.0996094-0.1000977l0.25-0.0498047l-0.0996094,0.25  c-0.0664063,0.0996094-0.1835938,0.2163086-0.3505859,0.3496094c-0.3330078,0.2333984-0.6992188,0.3168945-1.0996094,0.25  c-1.0664063-0.1665039-2.0166016-1.0166016-2.8496094-2.5498047L43.875,45.4916992l-0.5996094-2.3500977l-0.9501953-1.25  c-0.1337891-0.1000977-0.3505859-0.3666992-0.6503906-0.800293c-0.5332031-0.6665039-1.0996094-1.2163086-1.7001953-1.6499023  c-0.2998047-0.2666016-0.6494141-0.4667969-1.0498047-0.6000977c-0.3330078-0.1333008-0.5830078-0.1665039-0.75-0.0996094  c-0.2666016,0.0332031-0.3994141,0.1665039-0.3994141,0.3999023c-0.0673828,0.1000977-0.1503906,0.3500977-0.25,0.75  l-0.1005859,0.8500977c0,0.4663086,0.1171875,0.9663086,0.3505859,1.5c0.3330078,0.8999023,0.7666016,1.699707,1.2998047,2.3999023  c0.7333984,1.0664063,1.5,1.8999023,2.2998047,2.5c0.4003906,0.2998047,0.7666016,0.5332031,1.0996094,0.699707l0.2001953,0.1503906  L42.375,48.0415039c-0.2998047,0.1000977-0.7666016,0-1.4003906-0.2998047  c-1.0332031-0.4667969-2.0166016-1.2333984-2.9492188-2.300293c-0.7001953-0.8330078-1.2333984-1.7167969-1.6005859-2.6499023  C36.125,42.0581055,35.9746094,41.375,35.9746094,40.7416992c-0.0332031-0.2333984-0.0166016-0.6000977,0.0507813-1.1000977  c0.1660156-0.7001953,0.2998047-1.1333008,0.3994141-1.300293c0.0673828-0.0996094,0.1835938-0.2163086,0.3505859-0.3496094  c0.2998047-0.3666992,0.6826172-0.6000977,1.1494141-0.7001953c1-0.1000977,1.9667969,0.2832031,2.9003906,1.1499023  c0.5332031,0.5,0.9335938,1.0332031,1.2001953,1.6000977c0.0332031-0.0668945,0.0664063-0.1333008,0.0996094-0.2001953  c0.0996094-0.199707,0.2832031-0.3330078,0.5498047-0.3999023c0.2666016-0.0664063,0.4833984-0.0830078,0.6503906-0.0498047  l0.5498047,0.25l1.2001953,0.7998047c0.8994141,0.7333984,1.4833984,1.1000977,1.75,1.1000977  s0.7001953-0.0166016,1.2998047-0.0498047c0.5,0,0.9169922,0.0664063,1.25,0.199707  c-0.2001953-0.1665039-0.3828125-0.2998047-0.5498047-0.3999023c-0.5664063-0.4331055-0.9833984-0.8833008-1.25-1.3500977  c-0.1669922-0.3330078-0.2832031-0.9667969-0.3505859-1.8999023c0-0.7666016-0.0498047-1.2998047-0.1494141-1.6000977  c-0.7001953-1.8666992-2.0498047-3.3500977-4.0498047-4.449707c-0.5-0.300293-0.8505859-0.4833984-1.0507813-0.550293  L41.125,31.0913086c-0.2998047-0.1333008-0.5830078-0.199707-0.8496094-0.199707  c-1.6669922-0.3999023-3.2333984-0.2666016-4.7001953,0.3999023c-1.3330078,0.6333008-2.3330078,1.5668945-3,2.7998047  c-1.1005859,1.8334961-1.6503906,4.1333008-1.6503906,6.9003906c0.0673828,2.0332031,0.4833984,3.699707,1.25,5  c0.4335938,0.8666992,1.2001953,1.75,2.2998047,2.6499023L36.375,49.9414063  c0.2666016,0.2001953,0.5830078,0.4169922,0.9501953,0.6499023c0.6669922-0.0332031,1.3662109-0.0166016,2.0996094,0.050293  c0.9003906,0.0664063,2.3339844,0.2333984,4.2998047,0.5c1.8007813,0.1333008,3.3173828-0.0166016,4.5507813-0.4501953  c2.1992188-0.6333008,3.8496094-0.9165039,4.9492188-0.8500977l1.1005859,0.2001953  c-0.1669922-0.1000977-0.3330078-0.1831055-0.5-0.25c-1.2998047-0.7001953-2.4003906-1.5498047-3.2998047-2.5498047  c-0.5673828-0.6333008-1.0166016-1.300293-1.3505859-2c-0.2666016-0.5-0.4326172-1-0.5-1.5  c-0.0664063-0.4667969-0.0166016-0.7167969,0.1503906-0.75c0.1328125-0.0336914,0.3330078,0.1166992,0.5996094,0.449707  c0.1005859,0.1333008,0.25,0.3168945,0.4501953,0.550293C49.9082031,43.8916016,49.9580078,43.7749023,50.0253906,43.6416016z   M66.2246094,37.4916992l-0.6494141-0.2001953c-1.0664063-0.2666016-2.1669922-0.2666016-3.2998047,0  c-1.0673828,0.2666016-1.7666016,0.7832031-2.1005859,1.5498047c-0.3662109,0.6669922-0.5166016,1.4833984-0.4501953,2.4501953  l0.25,1.0498047l0.25,0.4501953l0.3007813,0.3999023C61.125,43.9580078,61.9921875,44.9248047,63.125,46.0913086  c0.8330078,0.8666992,1.4003906,1.6000977,1.7001953,2.2001953c0.3330078,0.7333984,0.4501953,1.3334961,0.3496094,1.7998047  c0,0.0668945-0.0332031,0.2670898-0.0996094,0.6000977c-0.0332031,0.1333008-0.1171875,0.2333984-0.25,0.300293  l-0.3505859,0.3496094L64.625,50.8916016c0.2998047-0.6669922,0.1503906-1.3999023-0.4501953-2.2001953  c-0.0332031-0.0664063-0.0664063-0.1166992-0.0996094-0.1499023c-0.1005859-0.0332031-0.2001953-0.0668945-0.2998047-0.1000977  l-0.5-0.1499023l-0.6005859-0.1000977c-1-0.1333008-1.5830078-0.1166992-1.75,0.050293  c-0.9326172,0.0996094-1.8828125,0.449707-2.8496094,1.0498047c-0.4667969,0.3666992-0.8330078,0.7333984-1.1005859,1.1000977  c0.1337891,0,0.2841797,0,0.4501953,0c0.2001953,0.0332031,0.7333984,0,1.6005859-0.1000977L59.375,50.2416992  c0.5-0.4003906,0.9833984-0.6000977,1.4501953-0.6000977c0.7001953,0,1.25,0.3164063,1.6494141,0.949707  c0.2333984,0.3666992,0.3837891,0.7333984,0.4501953,1.1000977c0.0332031,0.2666016,0,0.4169922-0.0996094,0.4501953  c-0.0664063,0.0332031-0.1835938-0.0668945-0.3505859-0.300293c-0.2324219-0.3330078-0.4492188-0.5830078-0.6494141-0.75  c-0.2998047-0.2998047-0.6171875-0.4331055-0.9501953-0.3999023c-0.2333984,0.0332031-0.5498047,0.2832031-0.9501953,0.75  l-0.6494141,0.800293c0.3662109,0.1333008,0.9326172,0.3833008,1.6992188,0.75  c0.8339844,0.4663086,2.3837891,1.3330078,4.6503906,2.5996094c0.2998047,0.1669922,0.5830078,0.3334961,0.8496094,0.5  c0.1669922-0.0332031,0.3339844-0.0664063,0.5-0.0996094c1.1337891-0.3334961,1.9667969-0.9003906,2.5-1.7001953  c0.4667969-0.7333984,0.7167969-1.4833984,0.75-2.25c0.0673828-0.5,0-1-0.1992188-1.5  c-0.0673828-0.3334961-0.1503906-0.6000977-0.25-0.7998047c-0.1669922-0.4003906-0.3007813-0.6669922-0.4003906-0.800293  l-2.0996094-3.0498047c-0.6005859-0.9335938-0.9833984-1.7167969-1.1503906-2.3500977  c-0.0332031-0.3334961-0.0498047-0.5668945-0.0498047-0.7001953c-0.0664063-0.0332031-0.1171875-0.0664063-0.1503906-0.0996094  c-0.7333984-0.300293-1.4160156-0.3833008-2.0498047-0.25l-0.9003906,0.199707h-0.1992188  c-0.0332031-0.0332031-0.0166016-0.1000977,0.0498047-0.199707c0.0664063-0.1333008,0.1494141-0.2333984,0.25-0.300293  C63.2080078,42.0249023,63.3916016,41.875,63.625,41.7416992c0.7666016-0.4667969,1.6835938-0.550293,2.75-0.25  c0.9667969,0.3999023,1.6337891,0.7998047,2,1.199707l1.9501953,1.75c0.0332031,0.0332031,0.5996094,0.6166992,1.7001953,1.75  c-0.0332031-0.1665039-0.0673828-0.2998047-0.1005859-0.3999023c-0.1328125-0.5332031-0.2666016-0.9667969-0.3994141-1.2998047  c-0.1337891-0.4003906-0.4003906-0.75-0.8007813-1.050293l-0.75-0.6000977l-0.1992188-0.3496094  c-0.1669922-0.2333984-0.25-0.4667969-0.25-0.7001953c0.0664063-0.3334961,0.1660156-0.5834961,0.2998047-0.75l0.5-0.2998047  c0.3994141-0.1000977,0.6162109-0.1503906,0.6494141-0.1503906L71.375,40.5415039h0.2998047  c0.0332031,0,0.4169922,0.0332031,1.1503906,0.1000977c0.4335938,0,0.7666016-0.0332031,1-0.1000977  c0.1669922,0,0.4501953-0.1831055,0.8496094-0.5498047c0.4667969-0.3334961,0.8173828-0.550293,1.0498047-0.6503906  c0.0673828-0.0332031,0.1503906-0.0664063,0.25-0.0996094c-0.2666016-0.0336914-0.5996094-0.050293-1-0.050293l-2.4492188,0.2001953  l-1.4501953-0.1000977l-1.0498047-0.25c0.0332031,0.1000977,0.0498047,0.2167969,0.0498047,0.3500977l-0.1005859,0.449707  c-0.2324219,0.5-0.4658203,0.8334961-0.6992188,1c-0.1669922,0.1000977-0.3173828,0.1503906-0.4501953,0.1503906  c-0.1337891,0-0.25-0.0834961-0.3505859-0.25c-0.2324219-0.4003906-0.1826172-0.9335938,0.1503906-1.6000977  c0-0.1000977,0.1337891-0.2333984,0.4003906-0.3999023c0.0332031-0.0336914,0.0664063-0.050293,0.0996094-0.050293  L66.2246094,37.4916992z M54.375,24.5415039l-1.3496094,0.6499023c-0.6005859,0.3334961-1.2832031,0.8666992-2.0507813,1.6000977  c-1.0332031,1.0332031-1.8496094,2.1665039-2.4492188,3.3999023c-0.1337891,0.3666992-0.3173828,0.8500977-0.5507813,1.4501953  l-0.4492188,2.699707c0.2998047,0.5336914,0.5498047,1.1000977,0.75,1.7001953c0.1328125,0.3666992,0.1992188,1.0332031,0.1992188,2  c-0.0664063,0.6665039-0.0498047,1.1333008,0.0507813,1.3999023c0.1660156,0.3334961,0.4667969,0.7001953,0.8994141,1.1000977  c0.6005859,0.5332031,0.9667969,0.8666992,1.1005859,1c0.4326172,0.4331055,0.5498047,0.9331055,0.3496094,1.5  c-0.0996094,0.3334961-0.2666016,0.6166992-0.5,0.8500977c-0.1328125,0.1665039-0.2333984,0.2998047-0.2998047,0.3999023  c0.0332031,0.0668945,0.0996094,0.1665039,0.2001953,0.2998047L51.625,46.1914063  c0.7666016,0.8334961,1.7167969,1.6499023,2.8496094,2.4501953l1.8505859,1.1000977  c0.0664063-0.2001953,0.1494141-0.3833008,0.25-0.550293l-1.6503906-2.3999023  c-0.5-0.8334961-0.9667969-1.8500977-1.3994141-3.0498047l-1.2001953-4.6503906c-0.1669922-0.9663086-0.25-1.9829102-0.25-3.0498047  c0-1.3334961,0.1669922-2.5332031,0.5-3.6000977c0.5332031-1.699707,1.4501953-2.8833008,2.75-3.5498047  c0.7333984-0.3666992,1.5498047-0.550293,2.4501953-0.550293c0.9326172,0,1.7832031,0.1669922,2.5498047,0.5  c0.0332031,0,0.2998047,0.1166992,0.7998047,0.3500977c0.6337891,0.3334961,1.2167969,0.7333984,1.75,1.2001953  c0.3330078,0.2998047,0.9667969,0.9833984,1.9003906,2.0498047c0.7333984,0.7333984,1.4667969,1.1499023,2.1992188,1.25  c0.3007813,0.1000977,0.8007813,0.2333984,1.5,0.3999023c0.6669922,0.2001953,1.1503906,0.4335938,1.4501953,0.7001953  c0.1669922,0.1000977,0.4667969,0.3168945,0.9003906,0.6499023l-0.0498047-0.0498047l-1-1.1499023l-2-1  c-0.3671875-0.2670898-0.6005859-0.4667969-0.7001953-0.6000977c-0.2001953-0.300293-0.3164063-0.550293-0.3505859-0.75  c0-0.2333984,0.0673828-0.4667969,0.2001953-0.7001953l0.2998047-0.25c0.3339844-0.2666016,0.7841797-0.3666992,1.3505859-0.2998047  c0.2998047,0.0332031,0.6328125,0.1333008,1,0.2998047l2.2001953,1.2001953h0.1992188  c0.2001953,0.0332031,0.5507813,0.0332031,1.0507813,0c0.4667969-0.0332031,0.8330078,0.0166016,1.0996094,0.1499023  c0.03125,0,0.0644531,0.0166016,0.0996094,0.0498047C74.1894531,32.3061523,74.15625,32.2729492,74.125,32.2416992  c-0.9003906-0.4003906-1.6328125-0.7670898-2.2001953-1.1000977l-1.2001953-0.8999023L70.125,29.6416016  c-0.0332031,0.0332031-0.0664063,0.0664063-0.0996094,0.1000977c-0.1669922,0.2666016-0.3837891,0.3666992-0.6503906,0.2998047  l-0.4003906-0.1000977c-0.0996094-0.0664063-0.1826172-0.1665039-0.25-0.2998047  c-0.1660156-0.300293-0.0830078-0.6000977,0.25-0.8999023L69.125,28.6914063  c-1.0332031-0.8999023-2.2333984-1.7333984-3.5996094-2.5l-2.25-1.1000977  c-2.6669922-1.0664063-5.1337891-1.3833008-7.4003906-0.949707C55.7080078,24.1748047,55.2080078,24.3081055,54.375,24.5415039z   M53.9248047,9.7915039c-0.7998047-0.2998047-1.6826172-0.4667969-2.6494141-0.5c-1.0332031,0-2.0332031,0.1831055-3,0.5498047  c-2.2001953,0.800293-4.0673828,2.5336914-5.6005859,5.2001953c-0.0332031,0.0668945-0.3828125,0.8168945-1.0498047,2.25  c-0.6328125,1.3666992-1.1835938,3-1.6503906,4.8999023c-0.3994141,1.7666016-0.6494141,3.4667969-0.75,5.1000977  c-0.0664063,0.8666992-0.1162109,1.4833984-0.1494141,1.8500977c0.5,0.0332031,1,0.1000977,1.5,0.199707  C40.6416016,29.375,40.9921875,29.4746094,41.625,29.6416016l0.9501953,0.3999023  c0.2666016,0.1000977,0.6669922,0.3168945,1.2001953,0.6499023c0.7998047,0.4667969,1.5166016,1,2.1494141,1.6000977  L45.625,31.2416992c-0.3662109-1.6333008-0.5498047-2.4833984-0.5498047-2.550293c-0.2666016-1.1665039-0.25-2.5,0.0498047-4  c0.3330078-1.8999023,0.8164063-3.6333008,1.4501953-5.199707c0.4667969-1.1669922,0.9501953-2.1503906,1.4501953-2.9501953  c0.2666016-0.4667969,0.6494141-0.9833984,1.1494141-1.5498047c0.6005859-0.6333008,1.2167969-1.0668945,1.8505859-1.300293  c0.0664063,0,0.5332031-0.0332031,1.3994141-0.1000977c0.5332031,0.0668945,1.0332031,0.2670898,1.5,0.6000977  c0.0332031-0.3666992,0.1337891-0.7333984,0.2998047-1.1000977c0.2333984-0.5996094,0.6005859-1.0996094,1.1005859-1.5  c0.3330078-0.3330078,0.5166016-0.5498047,0.5498047-0.6499023l0.6503906-0.7998047  c0.0332031-0.0668945,0.0830078-0.1333008,0.1494141-0.2001953c-0.0332031,0-0.0664063,0-0.0996094,0  c-0.3330078,0.1333008-0.7666016,0.1669922-1.2998047,0.1000977c-0.0673828,0-0.1835938-0.0166016-0.3505859-0.0498047  c0.0332031,0.1665039,0.0498047,0.3833008,0.0498047,0.6499023c-0.1660156,0.5664063-0.4326172,0.8833008-0.7998047,0.949707  c-0.1328125,0.0668945-0.2666016,0.0834961-0.3994141,0.050293c-0.1337891-0.0668945-0.2333984-0.1669922-0.3007813-0.300293  c-0.1660156-0.2666016-0.1660156-0.6333008,0-1.0996094c0-0.1000977,0.0507813-0.2001953,0.1503906-0.300293  C53.6914063,9.875,53.7919922,9.824707,53.9248047,9.7915039z M60.0751953,8.2915039l-0.3505859,0.2998047  c-0.3662109,0.300293-0.6328125,0.5668945-0.7998047,0.800293c-0.3662109,0.4331055-0.7333984,0.9667969-1.0996094,1.6000977  l-0.75,1l-0.8505859,0.75c-0.1660156,0.1333008-0.2998047,0.2666016-0.3994141,0.3999023  C55.8583984,13.1748047,55.875,13.2246094,55.875,13.2915039c0.4667969,0.6000977,0.8164063,1,1.0498047,1.2001953  c0.5673828,0.4663086,1.2167969,0.6499023,1.9501953,0.5498047c0.5-0.0668945,1.2333984-0.3168945,2.2001953-0.75  l1.0996094-0.4501953l1.0498047-0.25c0.6337891-0.0332031,1.2167969,0.050293,1.75,0.25  c0.2333984,0.1000977,0.5341797,0.3334961,0.9003906,0.7001953c0.3330078,0.3334961,0.5332031,0.6000977,0.5996094,0.7998047  c0.0673828,0.1000977,0.0839844,0.1669922,0.0507813,0.2001953l-0.2001953-0.0498047  c-0.1005859,0-0.4169922-0.1333008-0.9501953-0.4003906c-0.2998047-0.1665039-0.5498047-0.2666016-0.75-0.2998047  c-0.3330078-0.0668945-0.7333984-0.0498047-1.2001953,0.0498047l-1.7001953,0.75c-1.0996094,0.6000977-2.0166016,0.9335938-2.75,1  c-0.2998047,0.0336914-0.6494141,0.0170898-1.0498047-0.0498047c-0.7333984-0.1665039-1.3662109-0.5498047-1.8994141-1.1499023  c-0.3671875-0.4667969-0.6337891-0.9501953-0.8007813-1.4501953c-0.1992188,0.3999023-0.3164063,0.7666016-0.3496094,1.1000977  c0.0332031,0,0.0498047,0.0166016,0.0498047,0.0498047c0.5,0.6000977,1.0332031,1.6000977,1.6005859,3  c0.0332031,0.1669922,0.1162109,0.4667969,0.25,0.9003906l0.1494141,0.699707  c0.1337891,0.6000977,0.2666016,0.9667969,0.4003906,1.1000977L57.375,20.8413086  c0.2666016,0.2670898,0.5166016,0.3168945,0.75,0.1503906c0.2333984-0.0668945,0.4335938-0.2670898,0.5996094-0.6000977  C58.8251953,20.2246094,58.875,20.0083008,58.875,19.7416992c0.0332031-0.2001953,0.0664063-0.300293,0.0996094-0.300293  c0.0673828-0.0332031,0.1503906,0.050293,0.25,0.25c0.1005859,0.2333984,0.1337891,0.5166016,0.1005859,0.8500977  c-0.0664063,0.5-0.3164063,0.8999023-0.75,1.2001953c-0.2666016,0.1665039-0.5664063,0.25-0.9003906,0.25  c-0.3330078,0-0.6660156-0.1333008-1-0.4003906l0.0498047,0.050293c-0.3330078-0.2333984-0.6328125-0.7832031-0.8994141-1.6499023  l-0.2001953-0.75l-0.2998047-0.6503906c-0.4335938-1.0332031-0.9335938-1.8833008-1.5-2.5498047  c-0.5664063-0.6000977-1.1005859-0.9331055-1.6005859-1c-0.4658203,0.0668945-0.7158203,0.1000977-0.75,0.1000977  c-0.6992188,0.2666016-1.4160156,1-2.1494141,2.199707c-0.6337891,1.1000977-1.1005859,2.0170898-1.4003906,2.75  c-0.6660156,1.5-1.1660156,3.1166992-1.5,4.8500977C46.125,26.1083984,46.0253906,27.324707,46.125,28.5913086  c0.0332031,0.6333008,0.1337891,1.4667969,0.2998047,2.5c0.1005859,0.7670898,0.1503906,1.4003906,0.1503906,1.9003906  c0.0996094,0.1665039,0.2167969,0.3330078,0.3496094,0.5c0-0.2001953,0-0.4169922,0-0.6503906  c0-2.3666992,1.0332031-4.699707,3.1005859-7c0.9326172-0.8999023,1.7167969-1.5166016,2.3496094-1.8496094  c0.2001953-0.1333008,0.7001953-0.3833008,1.5-0.75c0.9003906-0.3334961,1.4833984-0.5170898,1.75-0.550293  c2.5332031-0.5664063,5.2832031-0.2333984,8.25,1l2.4003906,1.1499023c1.8330078,1.1669922,3.2832031,2.3334961,4.3496094,3.5  l0.9501953,1.050293c0.3994141,0.3999023,0.7167969,0.6831055,0.9501953,0.8500977  c0.1660156,0.1333008,0.5166016,0.3496094,1.0498047,0.6499023c0.4667969,0.2666016,0.7998047,0.5166016,1,0.75  C74.9414063,31.9414063,75.125,32.3081055,75.125,32.7416992l-0.1503906,0.5l-0.1494141,0.2998047  c-0.2666016,0.3666992-0.4335938,0.5332031-0.5,0.5c-0.0332031-0.0332031-0.0166016-0.25,0.0498047-0.6499023l0.0996094-0.2001953  c-0.0332031-0.0332031-0.0664063-0.0498047-0.0996094-0.0498047c-0.1669922-0.0332031-0.3164063-0.050293-0.4501953-0.050293  c-0.1660156-0.0332031-0.4326172,0-0.7998047,0.1000977c-0.5332031,0.1333008-0.9003906,0.2167969-1.0996094,0.25h-0.3505859  l-0.4501953-0.0498047l-1.0498047-0.3999023L70.625,33.2915039l1.5996094,2.3999023  c0.1669922,0.2666016,0.4003906,0.4501953,0.7001953,0.550293L73.125,36.2915039l-0.25-0.0498047  c0.2666016,0.1333008,0.5166016,0.1831055,0.75,0.1499023c0.4667969-0.0668945,0.7001953-0.0668945,0.7001953,0  c0.0332031,0.0664063-0.1503906,0.2167969-0.5498047,0.449707c-0.7333984,0.3334961-1.4169922,0.3833008-2.0507813,0.1503906  c-0.3330078-0.1000977-0.7324219-0.2836914-1.1992188-0.550293c-0.5-0.3330078-0.8671875-0.5664063-1.1005859-0.699707  c-0.5332031-0.2670898-0.9667969-0.4335938-1.2998047-0.5l-2.2998047-0.5c-0.2001953-0.0336914-0.4501953-0.1503906-0.75-0.3500977  c-0.2001953-0.0668945-0.4335938-0.2333984-0.7001953-0.5l-0.6503906-0.5L61.875,31.5415039  c-0.4667969-0.3999023-0.9335938-0.7333984-1.4003906-1c-0.4326172-0.1665039-0.6660156-0.2666016-0.6992188-0.2998047  c-0.7333984-0.2670898-1.4003906-0.4003906-2-0.4003906c-0.7001953,0-1.3007813,0.1503906-1.8007813,0.4501953  c-0.8994141,0.4331055-1.5664063,1.2998047-2,2.6000977c-0.3330078,1-0.5,2.0664063-0.5,3.199707  s0.0673828,2.0834961,0.2001953,2.8500977c0.1005859,0.8334961,0.25,1.6669922,0.4501953,2.5l0.4501953,2  c0.3330078,1.1669922,0.6835938,2.1499023,1.0498047,2.9501953c0.5664063,1.1333008,0.9501953,1.9667969,1.1503906,2.5  c0.1328125-0.2001953,0.2998047-0.3999023,0.5-0.6000977c0.9667969-0.8666992,2.1328125-1.3833008,3.5-1.5498047  c0-0.0336914,0.2333984-0.050293,0.6992188-0.050293c0.3339844,0.0332031,0.6503906,0.0834961,0.9501953,0.1499023  L62.375,46.7915039c-1.6328125-1.5668945-2.5830078-2.5-2.8496094-2.7998047  c-0.2001953-0.2001953-0.3339844-0.3666992-0.4003906-0.5l-0.4003906-0.6000977l-0.1494141-0.3500977l-0.25-1.1000977  c-0.1337891-1.2998047,0.0498047-2.3833008,0.5498047-3.25l0.5-0.7998047l0.7001953-0.7001953L60.875,36.1416016  l0.9501953-0.3500977c1.4335938-0.3999023,2.8164063-0.3999023,4.1494141,0l4.8505859,2.1000977l1.6494141,0.25h2.5507813  c1.1660156,0.1000977,1.9492188,0.3666992,2.3496094,0.7998047c0.2001953,0.300293,0.3330078,0.6333008,0.4003906,1l-0.0507813,0.75  c-0.1328125,0.3999023-0.25,0.6000977-0.3496094,0.6000977l-0.25-1.2001953l-0.25-0.3999023  c-0.1328125,0.0668945-0.3828125,0.1835938-0.75,0.3500977l-0.7001953,0.75c-0.5,0.5-0.8662109,0.8168945-1.0996094,0.9501953  c-0.3330078,0.199707-0.8505859,0.2998047-1.5498047,0.2998047h-1.3505859v0.0498047  c0.0332031,0,0.1337891,0.0834961,0.2998047,0.25c0.2001953,0.1333008,0.4501953,0.3666992,0.75,0.7001953l0.4501953,0.8999023  c0.2666016,0.800293,0.4501953,1.75,0.5498047,2.8500977c0.1337891,1.2333984,0.5673828,1.7167969,1.3007813,1.4501953  c0.3662109-0.1333008,0.6992188-0.3334961,1-0.6000977l0.1992188-0.1000977v0.2001953  C75.875,48.2080078,75.5917969,48.6083984,75.125,48.9414063c-0.5,0.4335938-1.0664063,0.4667969-1.7001953,0.1000977  c-0.2001953-0.1333008-0.3828125-0.2832031-0.5498047-0.4501953c-0.0996094-0.0664063-0.1835938-0.1333008-0.25-0.199707  l-5.25-4.7001953c-0.0664063-0.1000977-0.1669922-0.1831055-0.2998047-0.25c0.4667969,0.7001953,0.8828125,1.2666016,1.25,1.7001953  L70.625,48.0913086c0.1669922,0.2333984,0.3496094,0.5668945,0.5498047,1  c0.0673828,0.1333008,0.1835938,0.4833984,0.3505859,1.050293c0.2333984,0.6665039,0.2998047,1.3500977,0.1992188,2.0498047  c-0.0996094,1.0668945-0.5166016,2.0332031-1.25,2.8999023c-0.7998047,1-1.8164063,1.550293-3.0498047,1.6503906  c1.0673828,0.699707,1.9501953,1.4165039,2.6503906,2.1499023c0.8994141,0.9667969,1.4833984,1.699707,1.75,2.199707  c0.7998047,1.2670898,1.3330078,2.6835938,1.5996094,4.25c0.2001953,1.4003906,0.25,2.7167969,0.1503906,3.9501953  C73.375,71.5581055,72.8085938,73.6083984,71.875,75.4414063c-0.7998047,1.4335938-1.7832031,2.6333008-2.9501953,3.6000977  c-0.7333984,0.5668945-1.4833984,1.0332031-2.25,1.3999023c0.0332031,0,0.0839844,0.0166016,0.1503906,0.050293  c2.3994141,0.6665039,4.2333984,1.9331055,5.5,3.7998047c0.6328125,0.9335938,0.9667969,1.9501953,1,3.0498047  c0,1.1000977-0.2832031,2.0668945-0.8505859,2.9003906c-0.8330078,1.3330078-2.1328125,2.4165039-3.8994141,3.25  c-2.3330078,1-4.8330078,1.5-7.5,1.5c-2.0664063,0-3.7832031-0.3666992-5.1503906-1.1000977  c-0.7998047-0.3666992-1.5166016-1-2.1494141-1.8999023h0.0498047c-0.1005859-0.1337891-0.1835938-0.2666016-0.25-0.4003906  c-0.2666016-0.5996094-0.4003906-1.1665039-0.4003906-1.699707l0.0498047-0.8500977l0.0507813,0.1000977l0.1494141,0.75  c0.2001953,0.6665039,0.4003906,1.1665039,0.6005859,1.5c0.2333984,0.3334961,0.5,0.6333008,0.7998047,0.8999023  l1.0996094,0.3500977c0.2998047,0.0332031,0.8339844,0.1166992,1.6005859,0.25  c1.5664063,0.1333008,3.2167969-0.0166016,4.9492188-0.4501953c1.1337891-0.199707,2.1835938-0.6665039,3.1503906-1.3999023  c0.5664063-0.4667969,0.9501953-0.9335938,1.1503906-1.3999023c0.2333984-0.6333008,0.1328125-1.2167969-0.3007813-1.75  c-0.3994141-0.5668945-1.0166016-0.9833984-1.8496094-1.25c-0.6328125-0.2333984-1.5166016-0.3833008-2.6503906-0.4501953  c-1.4658203-0.0332031-3.5498047,0.1835938-6.25,0.6499023l-7.4492188,1.4003906  c-3.3007813,0.6333008-6.2167969,1.0664063-8.75,1.2998047c-1.9003906,0.1665039-3.5507813,0.2167969-4.9501953,0.1499023  c-2.0332031-0.1333008-3.8164063-0.4663086-5.3505859-1c-1.9326172-0.699707-3.5332031-1.8164063-4.7998047-3.3500977  c-0.0996094-0.0996094-0.3994141-0.5332031-0.8994141-1.2998047l-1.1503906-3l-0.1503906-2.3500977  c0.1005859-0.7998047,0.2001953-1.3330078,0.3007813-1.6000977c0.3662109-1.5664063,1.2666016-3.0664063,2.6992188-4.5  c1.5341797-1.5,3.4667969-2.7832031,5.8007813-3.8496094c2.4326172-1.1000977,4.9492188-1.7670898,7.5498047-2  c2.2333984-0.1333008,4.7998047,0.2998047,7.7001953,1.2998047l3.2998047,1.1000977  c1.4667969,0.4331055,2.4501953,0.699707,2.9501953,0.7998047c1.8330078,0.3999023,3.3164063,0.4335938,4.4492188,0.1000977  c0.7001953-0.2333984,1.2167969-0.4833984,1.5507813-0.75c0.0332031,0.0332031-0.0507813,0.1665039-0.25,0.3999023  c-0.3007813,0.300293-0.6835938,0.550293-1.1503906,0.75c-1.2001953,0.5668945-2.7832031,0.6669922-4.75,0.300293  c-0.7666016-0.1333008-1.7832031-0.3666992-3.0498047-0.7001953l-3.3505859-1  c-2.8662109-0.8666992-5.2998047-1.2167969-7.2998047-1.0498047c-2.3994141,0.2666016-4.75,0.949707-7.0498047,2.0498047  c-2.2333984,1-4.0166016,2.2001953-5.3496094,3.6000977c-1.2333984,1.2666016-2,2.5498047-2.3007813,3.8500977  c-0.1328125,0.3666992-0.1992188,0.7998047-0.1992188,1.2998047c-0.0673828,0.3666992-0.0839844,0.5668945-0.0507813,0.6000977  c0.0673828,1.7998047,0.7001953,3.4663086,1.9003906,5c1.0996094,1.2998047,2.4833984,2.25,4.1503906,2.8500977  c2.5,0.8662109,5.7333984,1.1333008,9.6992188,0.7998047c2.4335938-0.2333984,5.3007813-0.6333008,8.6005859-1.2001953  c4.6328125-0.7998047,7.1328125-1.2333984,7.5-1.2998047c2.7333984-0.3999023,4.9169922-0.5664063,6.5498047-0.5  c1.0664063,0.0664063,2.0498047,0.2666016,2.9501953,0.6000977C66.1083984,86.0083008,66.875,86.574707,67.375,87.3413086  c0.6337891,0.8334961,0.7333984,1.75,0.2998047,2.75c-0.2333984,0.5336914-0.7666016,1.1166992-1.5996094,1.75  c-1,0.7001953-2.1669922,1.1669922-3.5,1.4003906c-1.9667969,0.3662109-3.6835938,0.3999023-5.1503906,0.0996094L55.875,92.9916992  c0.1337891,0.0996094,0.2832031,0.1831055,0.4501953,0.25c1.2333984,0.5,2.8330078,0.7333984,4.7998047,0.699707  c2.5332031-0.1333008,4.8496094-0.699707,6.9501953-1.699707c0.7001953-0.3334961,1.2832031-0.7001953,1.75-1.1000977  L70.625,90.3413086c0.3330078-0.3330078,0.5498047-0.6162109,0.6503906-0.8496094  c0.3994141-0.6669922,0.5830078-1.3837891,0.5498047-2.1503906c-0.0332031-0.7998047-0.2998047-1.5498047-0.7998047-2.25  c-0.9335938-1.5-2.5-2.5664063-4.7001953-3.199707c-0.9003906-0.300293-1.9169922-0.5166016-3.0498047-0.6499023h-0.5  L62.875,81.1914063c-1.0664063-0.1000977-2.1835938-0.1333008-3.3496094-0.1000977l-4.3505859,0.25  c-3.2998047,0.2001953-6.3330078,0.2167969-9.0996094,0.050293c-1.1005859-0.2001953-1.9335938-0.3500977-2.5-0.4501953  c-1.0332031-0.2666016-1.7832031-0.5-2.25-0.699707c-0.9667969-0.3334961-2.25-0.9003906-3.8505859-1.7001953  c-2.3662109-1.2001953-3.5166016-1.8833008-3.4492188-2.0498047c0.0332031-0.1333008,1.2998047,0.2998047,3.7998047,1.2998047  c1.6328125,0.6665039,2.9169922,1.1333008,3.8496094,1.3999023h0.0498047L41.125,77.3413086  c-0.2998047-0.6665039-0.6835938-1.2998047-1.1503906-1.8999023c-0.4326172-0.6000977-0.6660156-0.949707-0.6992188-1.0498047  l-0.25-0.6499023l0.1494141-0.050293c0.1669922,0,0.3671875,0.0332031,0.6005859,0.1000977  c0.2998047,0.1000977,0.6992188,0.3500977,1.1992188,0.75c0.7675781,0.8999023,1.2841797,1.6333008,1.5507813,2.2001953  l0.0996094,0.5c0.0996094,0.2998047,0.1503906,0.6665039,0.1503906,1.0996094l-0.1005859,0.550293l-0.2001953,0.5v0.0498047  L43.875,79.7915039c0.5,0.0668945,1.2832031,0.1831055,2.3496094,0.3500977c2.7333984,0.1000977,5.6835938,0.0166016,8.8505859-0.25  l4.4501953-0.300293c2.2666016-0.0664063,4.25,0.1166992,5.9492188,0.550293  c0.1337891-0.1000977,0.2675781-0.1835938,0.4003906-0.25c0.7333984-0.3666992,1.5332031-0.9335938,2.4003906-1.7001953  c1-0.9667969,1.7998047-2.1000977,2.3994141-3.3999023c0.8339844-1.7998047,1.2998047-3.6665039,1.4003906-5.6000977  c0.0664063-0.9331055,0.0166016-2.1333008-0.1503906-3.6000977c-0.2666016-1.3999023-0.7333984-2.6333008-1.3994141-3.699707  c-0.3671875-0.6000977-0.8671875-1.25-1.5-1.9501953c-0.9003906-1-2.2333984-2.1000977-4-3.2998047  c-2.2001953-1.3999023-3.7001953-2.3833008-4.5-2.9501953c-0.7333984-0.5332031-1.2333984-0.9331055-1.5-1.199707l-0.25,0.25  c-0.4003906,0.4663086-0.8339844,0.8496094-1.3007813,1.1499023c-0.6660156,0.3999023-1.25,0.6166992-1.75,0.6499023  c-0.1992188,0.0332031-0.4658203,0.0498047-0.7998047,0.0498047h-0.3496094c0,0.0336914,0.0166016,0.050293,0.0498047,0.050293  l0.5,0.2998047c0.5664063,0.4667969,1.0166016,1.1333008,1.3496094,2c0.1669922,0.3666992,0.3173828,0.9501953,0.4501953,1.75  c0.2998047,1.6000977,0.4667969,2.4667969,0.5,2.6000977c0.2001953,0.6333008,0.4501953,1.1000977,0.75,1.3999023  c0.1669922,0.1669922,0.4501953,0.3666992,0.8505859,0.6000977l0.5498047,0.2001953L59.875,63.6416016l-0.1503906,0.0498047  c0.2001953,0,0.4169922-0.0498047,0.6503906-0.1499023l0.2998047-0.1000977l-0.2001953,0.300293  c-0.3330078,0.2329102-0.5664063,0.3666992-0.6992188,0.3999023c-0.5,0.199707-1.0166016,0.199707-1.5507813,0  c-0.5664063-0.2333984-1.1826172-0.7333984-1.8496094-1.5c-0.3330078-0.3666992-0.9667969-1.2167969-1.9003906-2.550293  c-0.5996094-0.7666016-1.0166016-1.2666016-1.25-1.5c-0.5332031-0.5664063-1.0830078-0.9663086-1.6494141-1.199707  c-0.2333984-0.1000977-0.5498047-0.1499023-0.9501953-0.1499023c-0.1669922-0.0336914-0.5498047,0-1.1503906,0.0996094  l-4.6494141,1.5c-1.5332031,0.5336914-2.8330078,0.800293-3.9003906,0.800293  c-1.3994141,0.0332031-2.7001953-0.25-3.8994141-0.8500977c-1.0332031-0.5-1.5166016-0.8500977-1.4501953-1.0498047  c0.0332031-0.0668945,0.6162109,0.0332031,1.75,0.2998047c1.3330078,0.3334961,2.5,0.4331055,3.5,0.2998047  c0.8330078-0.0664063,2.0166016-0.3666992,3.5498047-0.8999023l1.75-0.6000977c0.9335938-0.3666992,1.9335938-0.6831055,3-0.949707  c0.5996094-0.1333008,1.1337891-0.2001953,1.5996094-0.2001953c0.6005859,0.0668945,1.0839844,0.2001953,1.4501953,0.3999023  c0.7001953,0.300293,1.4003906,0.8168945,2.1005859,1.550293c0.3994141,0.4331055,0.8330078,1.0166016,1.2998047,1.75  c0.1328125,0.199707,0.2333984,0.3999023,0.2998047,0.6000977c-0.0664063-0.3334961-0.1328125-0.6835938-0.2001953-1.050293  c-0.0996094-0.5332031-0.2666016-1.0498047-0.5-1.5498047l-0.3496094-0.6499023l-0.25-0.3500977l-0.1005859-0.1000977  l-1.5-0.8999023c-0.5332031-0.5-0.7324219-1.0166016-0.5996094-1.550293l0.2001953-0.3496094l0.2998047-0.25l0.4003906-0.1503906  l2.1992188-0.0996094c0.4003906,0,0.8007813-0.1333008,1.2001953-0.4003906c0.2998047-0.0996094,0.6503906-0.3496094,1.0498047-0.75  l0.8007813-0.7998047c-0.6005859,0.1000977-0.9667969,0.1499023-1.1005859,0.1499023L56.375,51.2416992l-1.5-0.1503906  c0,0.0336914,0,0.0834961,0,0.1503906c0,0.6333008-0.1503906,1.0498047-0.4501953,1.25  c-0.1660156,0.0996094-0.2998047,0.1499023-0.3994141,0.1499023c-0.1337891-0.0332031-0.2666016-0.1000977-0.4003906-0.2001953  c-0.2001953-0.199707-0.2998047-0.6000977-0.2998047-1.199707c0-0.1000977,0.0166016-0.1835938,0.0498047-0.25l-0.1503906-0.050293  c-1.1328125,0-2.6494141,0.3334961-4.5498047,1c-1.3994141,0.5-3.0996094,0.6835938-5.0996094,0.550293l-4.2998047-0.3500977  c-0.6669922-0.0668945-1.6503906-0.050293-2.9501953,0.0498047l-1.2001953,0.25  c-1.2333984,0.3334961-2.0830078,0.9335938-2.5498047,1.800293c-0.4667969,0.7998047-0.5,1.7329102-0.1005859,2.7998047  c0.4003906,0.9331055,1,1.6499023,1.8007813,2.1499023c0.8994141,0.5668945,1.7666016,0.9169922,2.5996094,1.050293  c0.7666016,0.0996094,1.7001953,0.1831055,2.7998047,0.25c0.6005859,0.0332031,1.4833984,0.0830078,2.6503906,0.1499023  l4.8994141,0.6000977c1,0.199707,2.3505859,0.4331055,4.0507813,0.699707c1.4667969,0.2666016,2.6328125,0.5668945,3.5,0.8999023  l0.75,0.3500977c0.3994141,0.2666016,0.6162109,0.4169922,0.6494141,0.4501953  c0.2998047,0.199707,0.6503906,0.5664063,1.0498047,1.1000977c0.3671875,0.5664063,0.7167969,1.2832031,1.0507813,2.1499023  c0.3662109,0.8666992,0.7832031,1.8666992,1.25,3c0.2998047,0.6665039,0.6328125,1.1166992,1,1.3500977  c0.1660156,0.1333008,0.2666016,0.199707,0.2998047,0.199707l0.25,0.050293h0.1494141l-0.1494141,0.0498047h-0.2998047  L60.375,71.4414063c-0.4667969-0.2333984-0.9003906-0.6665039-1.2998047-1.2998047c-0.2001953-0.3334961-0.7001953-1.3334961-1.5-3  c-0.4335938-0.8334961-0.8164063-1.4667969-1.1503906-1.8999023L55.875,64.5913086l-0.25-0.199707l-1.25-0.550293  c-0.7998047-0.2998047-1.9003906-0.5498047-3.2998047-0.75c-1.7333984-0.2329102-3.1171875-0.4331055-4.1503906-0.5996094  l-4.7001953-0.5c-2.3994141-0.0336914-4.2832031-0.1333008-5.6494141-0.300293  c-1.0664063-0.1333008-2.1337891-0.5498047-3.2001953-1.25c-1.0996094-0.7998047-1.8828125-1.7666016-2.3496094-2.8999023  c-0.5673828-1.5332031-0.5-2.8999023,0.1992188-4.1000977c0.7001953-1.199707,1.8505859-2.0332031,3.4501953-2.5l1.4501953-0.25  c0.2001953-0.0332031,0.4169922-0.0498047,0.6503906-0.0498047l-0.6503906-0.25l-2.1503906-1.1499023  c-1.1992188-0.8666992-2.1162109-1.7836914-2.75-2.75c-0.9658203-1.4335938-1.5-3.2670898-1.5996094-5.5  c-0.1328125-2.9003906,0.4169922-5.4501953,1.6503906-7.6503906c0.0332031-0.0664063,0.0830078-0.1333008,0.1494141-0.199707  C31.2246094,32.875,31.0419922,32.5913086,30.875,32.2915039c-0.9003906-1.6665039-1.5664063-3.3168945-2-4.9501953  c-0.5332031-1.8666992-0.8164063-3.6499023-0.8496094-5.3496094c0-1.7670898,0-2.6669922,0-2.7001953  c0.2333984-3.4331055,1.3164063-6.1166992,3.25-8.0498047c1.6660156-1.6000977,3.6660156-2.5,6-2.7001953  c0.8994141-0.0668945,1.5332031-0.25,1.8994141-0.5498047c0.2666016-0.300293,0.4667969-0.5170898,0.6005859-0.6503906  l0.3994141-0.75c0.4667969-0.8330078,0.8505859-1.3164063,1.1503906-1.449707s0.5996094-0.1669922,0.8994141-0.1000977  l0.6503906,0.25c0.2998047,0.2333984,0.5498047,0.5166016,0.75,0.8500977  c0.0996094,0.1665039,0.2001953,0.3833008,0.2998047,0.6499023l0.25,0.8999023  c0.0673828,0.2333984,0.0839844,0.3666992,0.0498047,0.3999023l-0.6992188-1.0996094  C43.1914063,6.4248047,42.875,6.074707,42.5751953,5.9414063h-0.0498047  C42.4580078,5.9082031,42.3916016,5.875,42.3251953,5.8413086c-0.0332031,0.1000977-0.1005859,0.25-0.2001953,0.4501953  c-0.1328125,0.2998047-0.25,0.6499023-0.3496094,1.0498047c-0.1337891,0.5668945-0.2333984,1.2167969-0.3007813,1.9501953  l-0.25,1.1499023c-0.0332031,0.2001953-0.1826172,0.550293-0.4492188,1.050293  c-0.2001953,0.3666992-0.3339844,0.7832031-0.4003906,1.25c-0.0332031,0.699707,0.0498047,1.2329102,0.25,1.5996094  c0.2333984,0.5336914,0.3330078,0.8168945,0.2998047,0.8500977h-0.1494141c-0.3339844-0.1000977-0.6005859-0.25-0.8007813-0.449707  c-0.5664063-0.3666992-0.8662109-1.050293-0.8994141-2.050293c0-0.699707,0.1162109-1.3164063,0.3496094-1.8500977  l0.2998047-0.7998047l0.2001953-1c0-0.0668945,0.0166016-0.1333008,0.0498047-0.2001953l-0.0498047,0.050293  C39.5917969,9.1582031,39.1914063,9.375,38.7246094,9.5415039C38.625,9.574707,38.5253906,9.625,38.4248047,9.6914063  l0.0498047,0.050293c0.1005859,0.0996094,0.1669922,0.2329102,0.2001953,0.3999023  c0.1005859,0.5664063,0.0166016,0.9833984-0.25,1.25l-0.3496094,0.199707c-0.1337891,0-0.2666016-0.0498047-0.4003906-0.1499023  c-0.2333984-0.1665039-0.3828125-0.5-0.4501953-1c0-0.1000977,0.0175781-0.2167969,0.0507813-0.3500977  c0.0332031-0.0996094,0.0830078-0.1831055,0.1494141-0.25H37.375c-0.8662109,0.0668945-1.7167969,0.2836914-2.5498047,0.6503906  c-0.9667969,0.4663086-1.7832031,1.0664063-2.4501953,1.7998047c-1.6328125,1.6665039-2.5830078,4.0332031-2.8496094,7.1000977  c0,0.0664063-0.0166016,0.8999023-0.0507813,2.5c0,1.4667969,0.2167969,3.1831055,0.6503906,5.1499023  c0.3330078,1.5668945,0.8330078,3.2001953,1.5,4.8999023c0.0664063,0.2001953,0.1337891,0.3833008,0.2001953,0.550293  c0.8330078-1.1333008,1.8662109-2,3.0996094-2.6000977c0.4003906-0.1669922,0.7832031-0.300293,1.1503906-0.3999023  c-0.0664063-0.1333008-0.1503906-0.2836914-0.25-0.4501953c-0.5-0.7666016-0.9501953-1.7001953-1.3505859-2.7998047  c-0.5996094-1.5668945-0.7324219-3.6000977-0.3994141-6.1000977c0.1669922-1.1333008,0.4501953-2.2333984,0.8496094-3.300293  C35.2919922,15.875,35.6914063,15.1914063,36.125,14.7915039c0.1669922-0.1333008,0.3330078-0.2333984,0.5-0.2998047  l-0.4003906-0.6000977c-0.4326172-0.5332031-0.7998047-0.8999023-1.0996094-1.1000977l-0.6503906-0.25l-0.1494141-0.1000977  l0.0996094-0.1499023c0.1669922-0.1665039,0.4501953-0.25,0.8505859-0.25c0.5664063-0.0668945,1.2167969,0.2666016,1.9492188,1  l0.9501953,1.2001953c0.4667969,0.5996094,0.8671875,1.0166016,1.2001953,1.25l0.3496094,0.199707  c0.1669922,0.0668945,0.4335938,0.050293,0.8007813-0.0498047c0.0332031,0,0.1162109-0.0332031,0.25-0.1000977  c0.0664063-0.1333008,0.1162109-0.25,0.1494141-0.3500977C41.1914063,14.625,41.3417969,14.324707,41.375,14.2915039  C43.0751953,11.324707,45.2080078,9.375,47.7753906,8.4414063C49.9414063,7.6748047,52.125,7.7080078,54.3251953,8.5415039  C55.2919922,8.875,55.9414063,8.9746094,56.2753906,8.8413086c0.0664063,0,0.3496094-0.0996094,0.8496094-0.2998047l0.7001953-0.5  c0.7001953-0.5332031,1.25-0.8168945,1.6494141-0.8500977c0.3339844,0,0.6337891,0.1000977,0.9003906,0.300293l0.4003906,0.5498047  C60.9746094,8.375,61.0751953,8.7246094,61.0751953,9.0913086c0.0664063,0.300293,0.0664063,0.550293,0,0.75l-0.25,1.300293  l-0.1005859-0.4501953L60.625,9.8413086c-0.0664063-0.6665039-0.1835938-1.1166992-0.3496094-1.3496094  C60.2080078,8.4248047,60.1416016,8.3583984,60.0751953,8.2915039z"/><text x="0" y="115" fill="#000000" font-size="5px" font-weight="bold" font-family="'Helvetica Neue', Helvetica, Arial-Unicode, Arial, Sans-serif">Created by Saeful Muslim</text><text x="0" y="120" fill="#000000" font-size="5px" font-weight="bold" font-family="'Helvetica Neue', Helvetica, Arial-Unicode, Arial, Sans-serif">from the Noun Project</text></svg>