<svg xmlns="http://www.w3.org/2000/svg" xmlns:xlink="http://www.w3.org/1999/xlink" version="1.1" x="0px" y="0px" viewBox="0 0 512 640" enable-background="new 0 0 512 512" xml:space="preserve"><path d="M451.974,273.014l-40.968-68.279l9.188-9.195c6.062-6.047,9.374-14.078,9.374-22.632  c0-8.547-3.312-16.578-9.374-22.625c-6.031-6.047-14.062-9.375-22.624-9.375c-6.594,0-12.875,1.992-18.188,5.68  c-4.344-6.68-8.031-13.39-11.016-20.117c-6.172-13.937-9.438-27.968-9.672-41.702c-0.391-22.96,7.906-37.679,8.312-38.39  c1.859-2.984,2.062-6.578,0.656-9.805c-2.75-6.257-2.156-18.101-1.125-24.07c0.594-3.546-0.609-7.164-3.234-9.625  c-2.625-2.453-6.328-3.422-9.812-2.57c-1.812,0.445-44.889,11.289-90.193,51.187c-26.482,23.327-48.294,51.842-64.794,84.732  c-20.5,40.851-32.812,88.568-36.625,141.817c-0.312,4.375,2.078,8.5,6.031,10.391c1.469,0.703,3.047,1.031,4.594,1.031  c2.656,0,5.265-0.969,7.281-2.859c0.188-0.172,19.406-17.977,37.656-27.234c2.5-1.273,4.406-3.491,5.296-6.14  c0.141-0.461,15.938-46.272,50.771-46.272c10.25,0,21.469,3.781,33.5,11.25l-53.397,53.404c-0.016,0-0.016,0-0.016,0l-42.655,42.664  l0,0l-143.09,143.09c-12.469,12.469-12.469,32.781,0,45.249c6.046,6.047,14.093,9.375,22.625,9.375  c8.562,0,16.593-3.328,22.625-9.375l27.593-27.577l0,0l42.655-42.672c0,0,0,0,0.016,0l42.655-42.654  c0-0.016,0.016-0.016,0.016-0.016l42.654-42.656v-0.016l91.162-91.146c0,0,0,0,0-0.008c0,0,0,0,0.016,0l9.188-9.195l68.295,40.976  c1.688,1.016,3.594,1.516,5.469,1.516c2.781,0,5.5-1.062,7.562-3.125C453.833,282.592,454.505,277.217,451.974,273.014z   M397.569,162.243c2.844,0,5.531,1.109,7.547,3.125s3.124,4.695,3.124,7.539c0,2.852-1.108,5.531-3.124,7.546l-52.797,52.796  l-15.093-15.085l52.812-52.796C392.038,163.353,394.726,162.243,397.569,162.243z M186.473,368.902l21.343-21.328v30.172  l-21.343,21.328V368.902z M165.145,420.416l-21.328,21.328v-30.172l21.328-21.326V420.416z M229.159,326.23l21.312-21.326v30.17  l-21.312,21.328V326.23z M271.813,283.576l50.336-50.327l15.077,15.085l-65.413,65.413V283.576z M217.222,146.486  c15.156-30.375,35.124-56.702,59.349-78.24c26.469-23.523,52.405-36.218,67.796-42.343c0.078,2.945,0.344,6.046,0.858,9.132  c-12.546,6.367-37.123,20.531-62.592,44.71c-21.039,19.929-38.334,42.593-51.443,67.35c-15.531,29.328-25.156,61.631-28.671,96.107  c-5.906,3.383-11.671,7.273-16.828,11.055C190.879,214.273,201.472,178.11,217.222,146.486z M232.112,201.633  c4.422-15.375,10.328-30.108,17.671-44.085c11.936-22.655,27.725-43.428,46.913-61.756c15.438-14.726,30.655-25.515,42.499-32.843  c-1.125,6.062-1.875,12.976-1.844,20.64c0.062,16.773,3.781,33.772,11.077,50.538c4.016,9.218,9.109,18.375,15.266,27.413  l-41.279,41.28c-17.062-11.421-33.438-17.195-48.906-17.195C258.393,185.625,244.346,191.11,232.112,201.633z M98.021,487.541  c-2.016,2.016-4.703,3.125-7.546,3.125s-5.531-1.109-7.531-3.125c-4.156-4.172-4.156-10.938,0-15.094l39.53-39.547v30.172  L98.021,487.541z M384.601,231.132l10.859-10.852l16.265,27.125L384.601,231.132z"/><text x="0" y="527" fill="#000000" font-size="5px" font-weight="bold" font-family="'Helvetica Neue', Helvetica, Arial-Unicode, Arial, Sans-serif">Created by lastspark</text><text x="0" y="532" fill="#000000" font-size="5px" font-weight="bold" font-family="'Helvetica Neue', Helvetica, Arial-Unicode, Arial, Sans-serif">from the Noun Project</text></svg>