<svg xmlns="http://www.w3.org/2000/svg" xmlns:xlink="http://www.w3.org/1999/xlink" version="1.1" x="0px" y="0px" viewBox="0 0 901 1126.25" enable-background="new 0 0 901 901" xml:space="preserve"><g><g><g><path fill="#000000" d="M460.188,756.65c-0.073,0-0.146,0-0.221-0.004c-3.536-0.117-6.312-3.084-6.193-6.623l7.815-233.256     h-23.362l7.817,233.256c0.119,3.539-2.654,6.506-6.193,6.623c-0.072,0.004-0.147,0.004-0.219,0.004     c-3.441,0-6.289-2.73-6.404-6.197l-8.041-239.883c-0.057-1.736,0.592-3.422,1.801-4.67c1.208-1.25,2.87-1.955,4.608-1.955h36.623     c1.738,0,3.403,0.705,4.609,1.955c1.208,1.248,1.859,2.934,1.801,4.67l-8.037,239.883     C466.477,753.92,463.627,756.65,460.188,756.65z"/></g></g><g><g><path fill="#000000" d="M460.105,756.65c-2.087,0-4.137-1.018-5.367-2.892c-0.641-0.979-2.398-3.252-4.828-3.252     c-2.435,0-4.187,2.273-4.83,3.252c-1.94,2.958-5.917,3.785-8.879,1.841c-2.962-1.943-3.783-5.918-1.84-8.879     c3.77-5.744,9.436-9.037,15.549-9.037s11.779,3.293,15.549,9.037c1.944,2.961,1.117,6.936-1.842,8.879     C462.531,756.311,461.311,756.65,460.105,756.65z"/></g></g><g><g><path fill="#000000" d="M438.6,720.615c-2.964,0-5.627-2.066-6.264-5.082c-0.739-3.461,1.471-6.867,4.938-7.604     c8.282-1.764,16.988-1.764,25.277,0c3.462,0.736,5.673,4.141,4.937,7.604c-0.737,3.465-4.138,5.672-7.604,4.938     c-6.544-1.389-13.41-1.389-19.944,0C439.489,720.566,439.041,720.615,438.6,720.615z"/></g></g><g><g><path fill="#000000" d="M461.222,673.859c-0.44,0-0.888-0.045-1.335-0.141c-6.572-1.394-13.385-1.393-19.953,0     c-3.465,0.736-6.869-1.48-7.602-4.945c-0.732-3.463,1.481-6.867,4.943-7.6c8.312-1.762,16.951-1.765,25.269,0     c3.466,0.732,5.68,4.137,4.943,7.6C466.849,671.792,464.188,673.859,461.222,673.859z"/></g></g><g><g><path fill="#000000" d="M438.6,621.26c-2.961,0-5.621-2.065-6.264-5.079c-0.739-3.461,1.471-6.869,4.933-7.607     c8.26-1.762,17.014-1.762,25.285,0c3.463,0.738,5.673,4.144,4.934,7.607c-0.739,3.463-4.138,5.664-7.608,4.934     c-6.515-1.386-13.431-1.385-19.936,0C439.492,621.213,439.041,621.26,438.6,621.26z"/></g></g><g><g><path fill="#000000" d="M461.222,568.659c-0.44,0-0.888-0.045-1.335-0.141c-6.528-1.387-13.428-1.387-19.949,0     c-3.463,0.741-6.87-1.476-7.605-4.939c-0.735-3.463,1.479-6.869,4.941-7.603c8.271-1.756,16.999-1.758,25.273,0     c3.463,0.734,5.677,4.14,4.94,7.601C466.849,566.594,464.186,568.659,461.222,568.659z"/></g></g><g><g><path fill="#000000" d="M442.816,517.383c-4.809,0-17.581,0-24.285-14.314c-5.072-10.85-8.103-23.564-8.103-34.02     c0-25.923,20.89-25.923,29.81-25.923c1.561,0,3.168,0.025,4.799,0.052c3.199,0.052,6.537,0.053,9.74,0     c1.631-0.027,3.233-0.052,4.795-0.052c8.923,0,29.818,0,29.818,25.923c0,10.393-3.003,23.051-8.033,33.861     c-5.96,12.815-16.246,14.461-24.54,14.461c-1.229,0-2.467-0.035-3.698-0.07c-2.175-0.061-4.316-0.057-6.495,0.008     C445.357,517.346,444.082,517.383,442.816,517.383z M440.238,459.156c-11.848,0-13.779,1.385-13.779,9.893     c0,8.1,2.527,18.531,6.594,27.225c1.908,4.084,3.825,5.08,9.764,5.08c1.106,0,2.218-0.033,3.328-0.066     c2.489-0.08,4.934-0.08,7.424-0.008c1.084,0.03,2.17,0.061,3.249,0.061c6.103,0,8.066-1.02,10.006-5.191     c4.033-8.664,6.537-19.049,6.537-27.1c0-8.507-1.935-9.893-13.788-9.893c-1.478,0-2.993,0.023-4.534,0.049     c-3.373,0.057-6.893,0.057-10.262,0C443.234,459.18,441.716,459.156,440.238,459.156z"/></g></g><g><g><path fill="#000000" d="M462.535,459.156c-0.554,0-1.105,0-1.66-0.002l-1.655-0.002c-4.427,0-8.016-3.588-8.016-8.014     s3.589-8.016,8.016-8.016l1.674,0.002c8.772,0.007,17.868,0.021,20.992-3.099c1.31-1.308,1.973-3.771,1.973-7.319     c0-5.854,0.392-13.299,0.845-21.916c0.533-10.113,1.138-21.573,1.184-32.545c0.051-11.715-3.328-22.58-9.768-31.426     c-4.006-5.499-15.992-8.006-25.432-8.006c-4.425,0-8.015-3.588-8.015-8.014c0-4.425,3.59-8.016,8.015-8.016     c6.512,0,28.525,1.054,38.392,14.6c8.465,11.624,12.902,25.777,12.837,40.93c-0.048,11.36-0.662,23.028-1.205,33.32     c-0.44,8.391-0.822,15.639-0.822,21.073c0,7.958-2.247,14.236-6.676,18.662C485.733,458.84,474.52,459.156,462.535,459.156z"/></g></g><g><g><path fill="#000000" d="M438.841,459.156c-11.987,0-23.198-0.314-30.679-7.787c-4.429-4.426-6.678-10.704-6.678-18.662     c0-5.434-0.381-12.682-0.824-21.073c-0.54-10.292-1.154-21.96-1.201-33.322c-0.064-15.151,4.373-29.305,12.84-40.928     c9.863-13.546,31.877-14.6,38.389-14.6c4.428,0,8.017,3.591,8.017,8.016c0,4.426-3.589,8.014-8.017,8.014     c-9.442,0-21.426,2.507-25.431,8.006c-6.444,8.846-9.822,19.711-9.768,31.423c0.046,10.975,0.648,22.435,1.181,32.548     c0.452,8.617,0.844,16.062,0.844,21.916c0,3.548,0.664,6.011,1.977,7.319c3.124,3.122,12.194,3.119,20.988,3.099l1.678-0.002     c4.428,0,8.014,3.59,8.014,8.016s-3.586,8.014-8.014,8.014l-1.658,0.002C439.943,459.156,439.393,459.156,438.841,459.156z"/></g></g><g><g><path fill="#000000" d="M460.96,359.828c-0.842,0-1.692-0.223-2.468-0.686c-2.742-1.646-6.652-2.234-9.396-2.234h-0.012l0,0     c-2.654,0-4.807-2.15-4.807-4.805c-0.006-2.656,2.149-4.811,4.803-4.812h0.015c2.517,0,8.927,0.354,14.344,3.602     c2.276,1.367,3.015,4.32,1.649,6.597C464.188,358.994,462.595,359.828,460.96,359.828z"/></g></g><g><g><path fill="#000000" d="M428.917,383.11c-2.649,0-4.801-2.142-4.81-4.792c-0.005-1.883,0.084-3.779,0.267-5.63     c0.262-2.643,2.643-4.58,5.259-4.312c2.644,0.261,4.573,2.616,4.312,5.26c-0.151,1.526-0.227,3.09-0.22,4.647     c0.009,2.656-2.135,4.816-4.79,4.827C428.929,383.11,428.922,383.11,428.917,383.11z"/></g></g><g><g><path fill="#000000" d="M431.978,365.762c-0.741,0-1.492-0.172-2.2-0.537c-2.36-1.217-3.283-4.12-2.065-6.48     c0.369-0.714,0.753-1.411,1.157-2.093c5.145-8.686,16.772-9.361,20.215-9.361c2.655,0,4.81,2.154,4.81,4.808     c0,2.657-2.154,4.809-4.81,4.809c-4.574,0-10.039,1.436-11.94,4.644c-0.31,0.523-0.604,1.059-0.887,1.604     C435.403,364.812,433.723,365.762,431.978,365.762z"/></g></g><g><g><g><path fill="#000000" d="M477.002,315.347L477.002,315.347c-9.348-0.001-16.052-8.476-21.969-15.951      c-0.93-1.177-1.848-2.334-2.752-3.431c-3.895-4.719-4.993-10.789-2.936-16.24c2.245-5.942,7.789-10.03,15.214-11.217      c2.218-0.354,4.352-0.535,6.346-0.535c11.246,0,19.467,5.667,24.436,16.839c3.147,7.066,3.157,14.131,0.033,19.897      c-3.021,5.571-8.707,9.283-16.006,10.447C478.586,315.283,477.79,315.347,477.002,315.347z M470.905,277.592      c-1.489,0-3.114,0.138-4.827,0.412c-3.982,0.637-6.73,2.456-7.734,5.118c-0.825,2.181-0.316,4.692,1.354,6.716      c0.946,1.146,1.904,2.357,2.88,3.59c4.559,5.766,9.731,12.299,14.424,12.301l0,0c0.278,0,0.565-0.024,0.848-0.07      c4.346-0.693,7.48-2.607,9.068-5.534c1.671-3.078,1.54-7.127-0.361-11.402C483.086,280.921,478.408,277.592,470.905,277.592z"/></g></g></g><g><g><g><path fill="#000000" d="M421.561,315.347c-0.786,0-1.585-0.063-2.368-0.189c-7.296-1.164-12.979-4.874-16.001-10.446      c-3.129-5.765-3.115-12.832,0.027-19.901c4.97-11.169,13.189-16.837,24.439-16.837c1.994,0,4.129,0.181,6.342,0.535      c7.43,1.187,12.975,5.275,15.217,11.217c2.057,5.451,0.961,11.521-2.932,16.238c-0.908,1.098-1.828,2.256-2.759,3.433      C437.613,306.871,430.911,315.347,421.561,315.347z M427.658,277.592c-7.503,0-12.182,3.329-15.65,11.128      c-1.904,4.278-2.031,8.328-0.364,11.407c1.589,2.926,4.726,4.839,9.067,5.532c0.283,0.045,0.57,0.07,0.85,0.07      c4.695,0,9.863-6.536,14.425-12.301c0.974-1.233,1.936-2.444,2.882-3.59c1.671-2.023,2.175-4.535,1.352-6.716      c-1.005-2.663-3.756-4.481-7.736-5.118C430.771,277.73,429.145,277.592,427.658,277.592z"/></g></g></g><g><g><path fill="#000000" d="M473.972,277.551c-2.577,0-5.008-1.562-5.985-4.109c-3.661-9.506-7.862-9.528-16.933-9.5h-1.111     c-9.104-0.033-13.268-0.009-16.927,9.5c-1.271,3.304-4.98,4.957-8.287,3.679c-3.306-1.271-4.954-4.984-3.681-8.288     c6.823-17.728,19.083-17.74,28.902-17.715h1.097c9.838-0.019,22.078-0.013,28.904,17.715c1.274,3.303-0.373,7.016-3.679,8.288     C475.515,277.412,474.735,277.551,473.972,277.551z"/></g></g><g><g><g><g><path fill="#000000" d="M470.255,340.714c-3.712,0-7.043-2.596-7.837-6.374c-0.908-4.332,1.871-8.58,6.204-9.486       c2.88-0.604,4.791-1.646,5.683-3.098c1.434-2.346,0.547-5.852,0.537-5.887c-1.277-4.236,1.133-8.657,5.372-9.936       c4.239-1.283,8.727,1.168,10.004,5.406c0.31,1.021,2.861,10.188-2.099,18.543c-2.244,3.784-6.881,8.708-16.213,10.662       C471.351,340.659,470.8,340.714,470.255,340.714z"/></g></g></g><g><g><g><path fill="#000000" d="M430.745,340.714c-0.546,0-1.095-0.055-1.65-0.17c-9.332-1.954-13.969-6.877-16.216-10.662       c-4.961-8.354-2.408-17.522-2.103-18.541c1.281-4.237,5.753-6.64,9.99-5.356c4.206,1.27,6.601,5.684,5.387,9.894       c-0.052,0.2-0.862,3.589,0.544,5.878c0.888,1.452,2.801,2.494,5.682,3.098c4.334,0.907,7.11,5.155,6.202,9.486       C437.789,338.118,434.457,340.714,430.745,340.714z"/></g></g></g></g><g><g><g><path fill="#000000" d="M473.581,237.088c2.501,2.505,2.501,6.564,0,9.069c-6.838,6.836-6.868,12.474-6.863,12.709l-0.006-0.164      l-12.8,0.815c-0.071-1.138-0.391-11.439,10.599-22.431C467.015,234.586,471.074,234.586,473.581,237.088z"/></g></g><g><g><path fill="#000000" d="M427.419,237.086c2.503-2.502,6.562-2.502,9.066,0.002c10.99,10.989,10.671,21.293,10.599,22.433      l-12.798-0.818l-0.007,0.164c0.003-0.238-0.023-5.875-6.86-12.712C424.915,243.652,424.915,239.592,427.419,237.086z"/></g></g></g><g><g><g><path fill="#000000" d="M496.645,406.795c-3.353,0.001-6.174-2.608-6.393-6.003c-0.227-3.533,2.459-6.581,5.992-6.806      c0.931-0.061,93.527-6,139.403-11.008c31.245-3.412,56.043-9.922,71.72-18.823c11.723-6.655,17.959-14.414,17.559-21.841      c-0.662-12.309-20.028-25.625-50.166-25.668c-0.117,0-0.243,0-0.361,0c-54.007,0-113.99,16.901-173.51,48.892      c-1.16,0.624-2.055,1.107-2.673,1.423c-3.146,1.618-7.012,0.385-8.635-2.762c-1.622-3.148-0.385-7.014,2.762-8.638      c0.568-0.293,1.4-0.74,2.477-1.319c61.372-32.988,123.465-50.419,179.579-50.419c0.129,0,0.25,0,0.381,0      c34.732,0.052,61.795,16.304,62.951,37.804c1.441,26.829-36.199,47.055-100.693,54.102      c-46.16,5.04-139.043,10.995-139.976,11.055C496.919,406.792,496.783,406.795,496.645,406.795z"/></g></g><g><g><path fill="#000000" d="M624.073,474.947c-68.693,0.002-129.683-35.361-132.679-37.128c-3.053-1.795-4.067-5.723-2.274-8.776      c1.792-3.052,5.723-4.072,8.777-2.276c0.821,0.482,83.125,48.131,160.37,31.944c36.975-7.75,56.75-25.095,56.284-34.118      c-0.192-3.789-5.947-6.73-15.014-7.672c-103.522-10.761-201.86-10.13-202.837-10.126c-0.016,0-0.035,0-0.051,0      c-3.519,0-6.383-2.838-6.411-6.362c-0.024-3.541,2.82-6.434,6.361-6.463c0.982-0.009,100.002-0.641,204.263,10.197      c23.119,2.403,26.232,14.624,26.497,19.766c0.986,19.146-26.964,39.049-66.463,47.328      C648.57,473.844,636.197,474.946,624.073,474.947z"/></g></g><g><g><path fill="#000000" d="M404.354,406.795c-0.14,0-0.275-0.003-0.414-0.013c-0.934-0.06-93.817-6.016-139.977-11.055      c-64.494-7.047-102.136-27.272-100.692-54.102c1.154-21.5,28.217-37.752,62.952-37.804c0.124,0,0.252,0,0.381,0      c56.111,0,118.195,17.431,179.572,50.418c1.079,0.581,1.912,1.027,2.481,1.32c3.146,1.623,4.384,5.49,2.761,8.636      c-1.622,3.15-5.488,4.387-8.635,2.764c-0.615-0.316-1.514-0.799-2.68-1.424c-59.516-31.989-119.5-48.891-173.5-48.891      c-0.123,0-0.241,0-0.365,0c-30.136,0.043-49.502,13.357-50.162,25.668c-0.402,7.427,5.835,15.186,17.558,21.841      c15.676,8.901,40.474,15.411,71.724,18.823c45.873,5.008,138.469,10.947,139.399,11.008c3.534,0.225,6.215,3.272,5.989,6.806      C410.529,404.188,407.709,406.795,404.354,406.795z"/></g></g><g><g><path fill="#000000" d="M276.928,474.947c-12.13,0-24.493-1.102-36.824-3.686c-39.498-8.279-67.449-28.183-66.464-47.328      c0.267-5.142,3.377-17.363,26.497-19.766c104.262-10.837,203.271-10.201,204.261-10.197c3.54,0.029,6.389,2.922,6.361,6.463      c-0.028,3.524-2.893,6.362-6.411,6.362c-0.016,0-0.032,0-0.052,0c-0.968-0.003-99.31-0.634-202.833,10.126      c-9.067,0.941-14.821,3.883-15.016,7.672c-0.465,9.023,19.312,26.367,56.285,34.118      c77.361,16.213,159.549-31.459,160.368-31.942c3.053-1.799,6.981-0.779,8.779,2.272c1.795,3.051,0.778,6.98-2.272,8.778      C406.609,439.583,345.612,474.943,276.928,474.947z"/></g></g></g><g><g><g><path fill="#000000" d="M486.992,353.325c-1.979,0-3.929-0.915-5.184-2.634c-2.089-2.862-1.461-6.872,1.398-8.959l38.912-28.382      l-8.296-12.346c-1.084-1.614-1.378-3.632-0.798-5.489l3.22-10.315c1.059-3.38,4.649-5.26,8.031-4.208      c3.382,1.056,5.267,4.652,4.211,8.031l-2.309,7.381l10.026,14.916c1.92,2.861,1.241,6.727-1.543,8.756l-43.896,32.016      C489.626,352.924,488.305,353.325,486.992,353.325z"/></g></g><g><g><path fill="#000000" d="M414.007,353.325c-1.311,0-2.633-0.4-3.772-1.234l-43.896-32.016c-2.783-2.03-3.463-5.895-1.543-8.756      l10.024-14.916l-2.304-7.381c-1.056-3.38,0.827-6.977,4.209-8.031c3.378-1.053,6.976,0.831,8.031,4.21l3.218,10.317      c0.581,1.854,0.286,3.872-0.798,5.486l-8.296,12.346l38.912,28.382c2.859,2.087,3.488,6.097,1.399,8.959      C417.937,352.41,415.986,353.325,414.007,353.325z"/></g></g></g></g><text x="0" y="916" fill="#000000" font-size="5px" font-weight="bold" font-family="'Helvetica Neue', Helvetica, Arial-Unicode, Arial, Sans-serif">Created by ronaldo botelho</text><text x="0" y="921" fill="#000000" font-size="5px" font-weight="bold" font-family="'Helvetica Neue', Helvetica, Arial-Unicode, Arial, Sans-serif">from the Noun Project</text></svg>