<?xml version="1.0" encoding="UTF-8" standalone="no"?>
<svg
   xmlns:dc="http://purl.org/dc/elements/1.1/"
   xmlns:cc="http://creativecommons.org/ns#"
   xmlns:rdf="http://www.w3.org/1999/02/22-rdf-syntax-ns#"
   xmlns:svg="http://www.w3.org/2000/svg"
   xmlns="http://www.w3.org/2000/svg"
   xmlns:sodipodi="http://sodipodi.sourceforge.net/DTD/sodipodi-0.dtd"
   xmlns:inkscape="http://www.inkscape.org/namespaces/inkscape"
   version="1.1"
   x="0px"
   y="0px"
   viewBox="0 0 87.999947 87.999992"
   id="svg16"
   sodipodi:docname="Radar.svg"
   width="87.999947"
   height="87.999992"
   inkscape:version="0.92.2 (5c3e80d, 2017-08-06)">
  <metadata
     id="metadata22">
    <rdf:RDF>
      <cc:Work
         rdf:about="">
        <dc:format>image/svg+xml</dc:format>
        <dc:type
           rdf:resource="http://purl.org/dc/dcmitype/StillImage" />
      </cc:Work>
    </rdf:RDF>
  </metadata>
  <defs
     id="defs20" />
  <sodipodi:namedview
     pagecolor="#ffffff"
     bordercolor="#666666"
     borderopacity="1"
     objecttolerance="10"
     gridtolerance="10"
     guidetolerance="10"
     inkscape:pageopacity="0"
     inkscape:pageshadow="2"
     inkscape:window-width="1366"
     inkscape:window-height="705"
     id="namedview18"
     showgrid="false"
     inkscape:zoom="3.55"
     inkscape:cx="-28.647994"
     inkscape:cy="31.50002"
     inkscape:window-x="-8"
     inkscape:window-y="236"
     inkscape:window-maximized="1"
     inkscape:current-layer="svg16" />
  <path
     inkscape:connector-curvature="0"
     id="path2"
     overflow="visible"
     display="inline"
     visibility="visible"
     marker="none"
     d="M 44.03125,0 C 43.65141,0 43.2525,0.0217 42.875,0.0312 19.09746,0.63413 0,20.08483 0,43.96869 c 0,24.3023 19.72905,44.0313 44.03125,44.0313 23.88394,0 43.33475,-19.0972 43.9375,-42.875 0.009,-0.3774 0.0312,-0.7765 0.0312,-1.1563 0,-0.3791 -0.0217,-0.7481 -0.0312,-1.125 C 87.37556,19.48027 68.51965,0.62456 45.15625,0.0312 44.77931,0.0212 44.41045,0 44.03125,0 Z m -2.1875,2.3125 c 0.33849,-0.0171 0.6907,0.009 1.03125,0 v 8 C 34.42386,10.59249 26.77722,13.97578 21,19.375 l -5.65625,-5.65625 c 6.9941,-6.61571 16.22746,-10.88648 26.5,-11.40625 z m 3.3125,0 c 10.65628,0.28329 20.28508,4.57872 27.5,11.40625 L 67,19.375 C 61.23444,13.98804 53.59552,10.59217 45.15625,10.3125 Z m -2.78125,10.25 c 0.16313,-0.008 0.33623,0.006 0.5,0 v 11.90625 c -4.54387,0.26359 -8.65307,2.09949 -11.84375,4.9375 l -8.4375,-8.4375 C 27.84684,16.08179 34.72659,12.94932 42.375,12.5625 Z m 2.78125,0 c 7.83043,0.27549 14.89776,3.42868 20.25,8.40625 L 64.125,22.25 c -0.61891,-0.35146 -1.33647,-0.5625 -2.09375,-0.5625 -2.34145,0 -4.25,1.90851 -4.25,4.25 0,0.75129 0.24062,1.45656 0.59375,2.09375 L 57,29.40625 c -3.18639,-2.8417 -7.30835,-4.67441 -11.84375,-4.9375 z m -31.4375,2.75 5.65625,5.65625 c -5.39904,5.76599 -8.78219,13.43233 -9.0625,21.87504 h -8 C 2.596,32.17634 6.87021,22.53394 13.71875,15.3125 Z m 60.53125,0 c 6.84762,7.21881 11.15382,16.857 11.4375,27.53129 h -8 C 77.40772,34.39523 74.02227,26.7364 68.625,20.96875 Z m -7.21875,7.25 c 4.98777,5.35436 8.13062,12.44161 8.40625,20.28129 H 63.5 C 63.23606,38.31671 61.3981,34.21622 58.5625,31.03125 L 59.96875,29.625 c 0.64322,0.37077 1.32819,0.59375 2.0625,0.59375 2.34145,0 4.28125,-1.93976 4.28125,-4.28125 0,-0.75671 -0.24279,-1.44391 -0.59375,-2.0625 z m -5,1.375 c 1.11168,0 2.03125,0.88836 2.03125,2 0,1.11164 -0.91957,2 -2.03125,2 -0.76688,-0.0227 -1.05727,-0.25172 -1.40625,-0.5625 -0.35582,-0.3319 -0.5625,-0.83124 -0.5625,-1.4375 0,-1.11164 0.85707,-2 1.96875,-2 z M 42.875,26.75 V 41.24995 L 32.625,31 c 2.77629,-2.4294 6.31565,-3.99626 10.25,-4.25 z m 2.28125,0 c 3.92287,0.2576 7.44516,1.84342 10.21875,4.28125 L 45.15625,41.24995 Z M 31.03125,32.625 41.25,42.84379 H 26.78125 c 0.25381,-3.91582 1.82096,-7.44838 4.25,-10.21879 z m 25.9375,0 c 2.42582,2.77041 3.99573,6.30297 4.25,10.21879 H 46.75 Z M 2.3125,45.12499 h 8 c 0.28031,8.4598 3.66346,16.1036 9.0625,21.8751 l -5.65625,5.6562 C 6.88003,65.43509 2.60036,55.79839 2.3125,45.12499 Z m 10.25,0 H 24.5 c 0.26337,4.5378 2.09793,8.6222 4.9375,11.8126 l -8.46875,8.4687 c -4.97806,-5.3518 -8.12456,-12.4474 -8.40625,-20.2813 z m 34.1875,0 h 14.46875 c -0.25281,3.9378 -1.81461,7.4724 -4.25,10.2501 z m 30.9375,0 h 8 c -0.28814,10.6826 -4.56147,20.3393 -11.40625,27.5626 l -5.6875,-5.6875 c 5.40252,-5.7743 8.81379,-13.4046 9.09375,-21.8751 z m -34.8125,1.5625 v 14.5313 c -3.93435,-0.2532 -7.47371,-1.8171 -10.25,-4.25 z m 2.28125,0.062 10.21875,10.2188 c -2.77157,2.4329 -6.30081,3.9968 -10.21875,4.25 z m 11.8125,11.8126 8.46875,8.4687 c -5.35394,4.9857 -12.44827,8.0994 -20.28125,8.375 v -11.9062 c 4.52494,-0.2638 8.62831,-2.1011 11.8125,-4.9375 z M 21,68.59329 c 5.77722,5.4039 13.42386,8.7825 21.875,9.0625 v 8.0313 C 32.1982,85.40379 22.56838,81.08779 15.34375,74.24959 Z m 46.03125,0.031 5.625,5.625 c -7.21974,6.8383 -16.84173,11.1543 -27.5,11.4375 v -8.0312 c 8.44168,-0.2798 16.10898,-3.6369 21.875,-9.0313 z"
     style="color:#000000;text-indent:0;text-transform:none;direction:ltr;baseline-shift:baseline;display:inline;overflow:visible;visibility:visible;fill:#0000ff;fill-opacity:1;fill-rule:evenodd;stroke:none;enable-background:accumulate" />
  <path
     inkscape:connector-curvature="0"
     id="path4"
     overflow="visible"
     display="inline"
     visibility="visible"
     marker="none"
     d="m 20.65625,49.12509 c -2.75528,0 -5.03125,2.276 -5.03125,5.0312 0,2.7838 2.29025,5.0313 5.03125,5.0313 2.76984,0 5.0625,-2.2475 5.0625,-5.0313 0,-2.7552 -2.27867,-5.0312 -5.0625,-5.0312 z m 0,2.2812 c 1.55268,0 2.78125,1.2491 2.78125,2.75 0,1.5527 -1.21454,2.7813 -2.78125,2.7813 -1.51515,0 -2.78125,-1.2286 -2.78125,-2.7813 0,-1.5009 1.28034,-2.75 2.78125,-2.75 z"
     style="color:#000000;text-indent:0;text-transform:none;direction:ltr;baseline-shift:baseline;display:inline;overflow:visible;visibility:visible;fill:#ff0000;fill-opacity:1;fill-rule:evenodd;stroke:none;enable-background:accumulate" />
  <path
     inkscape:connector-curvature="0"
     id="path6"
     overflow="visible"
     display="inline"
     visibility="visible"
     marker="none"
     d="m 48.96875,52.50009 c -1.69969,0 -3.125,1.4384 -3.125,3.1562 0,1.6997 1.42531,3.0938 3.125,3.0938 1.69972,0 3.09375,-1.3941 3.09375,-3.0938 0,-1.7178 -1.39403,-3.1562 -3.09375,-3.1562 z m 0,2.2812 c 0.46857,0 0.8125,0.3444 0.8125,0.875 0,0.4686 -0.34393,0.8438 -0.8125,0.8438 -0.46853,0 -0.84375,-0.3752 -0.84375,-0.8438 0,-0.5306 0.37522,-0.875 0.84375,-0.875 z"
     style="color:#000000;text-indent:0;text-transform:none;direction:ltr;baseline-shift:baseline;display:inline;overflow:visible;visibility:visible;fill:#ffff00;fill-opacity:1;fill-rule:evenodd;stroke:none;enable-background:accumulate" />
  <path
     inkscape:connector-curvature="0"
     id="path8"
     overflow="visible"
     display="inline"
     visibility="visible"
     marker="none"
     d="m 77.625,58.00009 c -1.69969,0 -3.09375,1.4253 -3.09375,3.125 0,1.7179 1.39406,3.125 3.09375,3.125 1.69972,0 3.15625,-1.3801 3.15625,-3.125 0,-1.7277 -1.45653,-3.125 -3.15625,-3.125 z m 0,2.2812 c 0.46857,0 0.875,0.4032 0.875,0.8438 0,0.5037 -0.40643,0.875 -0.875,0.875 -0.46853,0 -0.84375,-0.3443 -0.84375,-0.875 0,-0.4685 0.37522,-0.8438 0.84375,-0.8438 z"
     style="color:#000000;text-indent:0;text-transform:none;direction:ltr;baseline-shift:baseline;display:inline;overflow:visible;visibility:visible;fill:#800080;fill-opacity:1;fill-rule:evenodd;stroke:none;enable-background:accumulate" />
  <path
     style="fill:#ccffaa;fill-opacity:1;stroke:#e5ffd5;stroke-width:0;stroke-miterlimit:4;stroke-dasharray:none;stroke-opacity:1"
     d="M 2.5240968,40.823916 C 3.5129011,31.421726 6.9188377,23.220059 12.418347,16.998062 l 1.327511,-1.50191 2.63406,2.623107 c 1.448733,1.442709 2.63406,2.761966 2.63406,2.931681 0,0.169716 -0.315313,0.604794 -0.700694,0.966842 -1.867422,1.754351 -4.768671,6.765654 -6.16093,10.64172 -0.863189,2.403129 -1.870771,7.127679 -1.870771,8.772043 v 1.152934 H 6.310263 2.3389428 Z"
     id="path822"
     inkscape:connector-curvature="0" />
  <path
     style="fill:#ccffaa;fill-opacity:1;stroke:#e5ffd5;stroke-width:0;stroke-miterlimit:4;stroke-dasharray:none;stroke-opacity:1"
     d="m 26.897658,24.962505 -4.080863,-4.100848 0.84507,-0.706753 c 2.906542,-2.430812 6.786386,-4.628485 10.296966,-5.832546 2.143786,-0.735276 6.411443,-1.597034 7.908947,-1.597034 h 0.808172 v 5.769282 c 0,5.758979 -0.0011,5.769499 -0.633803,5.891407 -3.291634,0.634258 -4.287057,0.919787 -6.08791,1.746267 -1.140604,0.523467 -2.693714,1.397103 -3.451356,1.941415 -0.757642,0.544312 -1.410568,0.989658 -1.450946,0.989658 -0.04038,0 -1.909802,-1.845382 -4.154277,-4.100848 z"
     id="path824"
     inkscape:connector-curvature="0" />
  <path
     style="fill:#ccffaa;fill-opacity:1;stroke:#e5ffd5;stroke-width:0;stroke-miterlimit:4;stroke-dasharray:none;stroke-opacity:1"
     d="m 37.76189,35.839727 c -5.543116,-5.550636 -5.451469,-5.09945 -1.437624,-7.077623 1.905678,-0.93919 5.981314,-2.134848 6.275218,-1.840944 0.04767,0.04767 0.05269,3.149278 0.01115,6.892464 l -0.07553,6.805794 z"
     id="path826"
     inkscape:connector-curvature="0" />
  <path
     style="fill:#ccffaa;fill-opacity:1;stroke:#e5ffd5;stroke-width:0;stroke-miterlimit:4;stroke-dasharray:none;stroke-opacity:1"
     d="m 45.211161,33.946293 v -7.082852 l 1.197183,0.154093 c 2.018931,0.259862 4.941157,1.377927 6.847295,2.619825 0.998072,0.65027 1.814677,1.263848 1.814677,1.363508 0,0.09966 -2.21831,2.396792 -4.929578,5.104739 l -4.929577,4.92354 z"
     id="path828"
     inkscape:connector-curvature="0" />
  <path
     style="fill:#ccffaa;fill-opacity:1;stroke:#e5ffd5;stroke-width:0;stroke-miterlimit:4;stroke-dasharray:none;stroke-opacity:1"
     d="M 64.506935,17.19204 C 59.364495,13.243221 53.691595,11.014722 46.971724,10.303642 L 45.211161,10.117343 V 6.3083591 2.4993748 l 2.746479,0.1701767 c 7.862872,0.4871977 16.727529,4.3039048 23.394896,10.0727495 l 1.159097,1.002892 -2.734743,2.696803 -2.734743,2.696803 z"
     id="path830"
     inkscape:connector-curvature="0" />
  <path
     style="fill:#ccffaa;fill-opacity:1;stroke:#e5ffd5;stroke-width:0;stroke-miterlimit:4;stroke-dasharray:none;stroke-opacity:1"
     d="M 77.783592,41.668986 C 77.150539,37.18165 76.875945,35.87423 76.03101,33.324428 74.777179,29.540681 73.282304,26.699225 70.882807,23.538733 l -1.935061,-2.54876 2.612098,-2.794296 2.612098,-2.794296 1.082989,1.237431 c 5.654707,6.461107 9.429166,15.266703 10.125293,23.621724 l 0.193627,2.323943 h -3.830552 -3.830553 z"
     id="path832"
     inkscape:connector-curvature="0" />
  <path
     style="fill:#ccffaa;fill-opacity:1;stroke:#e5ffd5;stroke-width:0;stroke-miterlimit:4;stroke-dasharray:none;stroke-opacity:1"
     d="M 63.195922,40.180219 C 62.677359,37.506493 61.309868,34.38846 59.78406,32.40079 l -1.005949,-1.31045 0.651811,-0.612345 c 0.564913,-0.530708 0.787185,-0.574967 1.667229,-0.331975 1.822751,0.503286 3.92783,-0.487575 4.858229,-2.286768 0.325805,-0.630037 0.41044,-1.322984 0.304407,-2.492332 -0.119246,-1.315071 -0.05332,-1.704323 0.350549,-2.069821 0.461681,-0.417815 0.559609,-0.379319 1.363157,0.535872 3.772025,4.296099 6.494006,10.744225 7.231933,17.13179 l 0.187119,1.619718 -5.86534,-9.25e-4 -5.86534,-9.25e-4 z"
     id="path834"
     inkscape:connector-curvature="0" />
  <path
     style="fill:#ccffaa;fill-opacity:1;stroke:#e5ffd5;stroke-width:0;stroke-miterlimit:4;stroke-dasharray:none;stroke-opacity:1"
     d="m 71.4408,69.740843 -2.598635,-2.702791 0.721527,-0.888758 c 4.988186,-6.144312 7.137083,-11.311035 8.189946,-19.691575 l 0.168099,-1.338028 h 3.827114 3.827114 l -0.186474,2.425953 c -0.496337,6.457174 -3.112896,13.992625 -6.738071,19.405033 -1.386609,2.070215 -4.134666,5.492957 -4.410195,5.492957 -0.110985,0 -1.371176,-1.216256 -2.800425,-2.702791 z m 8.050792,-6.017185 c 1.317234,-0.803168 1.747752,-2.403972 1.037603,-3.858143 -1.58115,-3.237722 -6.017703,-2.199464 -6.021207,1.409105 -0.0015,1.541495 1.457452,3.000444 2.998947,2.998947 0.596479,-5.91e-4 1.489575,-0.248038 1.984657,-0.549909 z"
     id="path836"
     inkscape:connector-curvature="0" />
  <path
     style="fill:#ccffaa;fill-opacity:1;stroke:#e5ffd5;stroke-width:0;stroke-miterlimit:4;stroke-dasharray:none;stroke-opacity:1"
     d="m 51.971724,50.049268 -4.92354,-4.929577 h 6.968812 6.968813 v 0.733987 c 0,1.169675 -0.823828,4.031553 -1.603365,5.569895 -0.863433,1.703904 -2.06651,3.555273 -2.310326,3.555273 -0.09727,0 -2.392447,-2.21831 -5.100394,-4.929578 z"
     id="path838"
     inkscape:connector-curvature="0" />
  <path
     style="fill:#ccffaa;fill-opacity:1;stroke:#e5ffd5;stroke-width:0;stroke-miterlimit:4;stroke-dasharray:none;stroke-opacity:1"
     d="m 45.211161,69.527652 c 0,-5.798286 8.07e-4,-5.805827 0.633803,-5.922534 4.412443,-0.813529 7.245109,-1.905871 9.594758,-3.699961 0.707815,-0.540457 1.391251,-0.982649 1.518747,-0.982649 0.127495,0 2.045537,1.816969 4.262315,4.037709 l 4.030506,4.037709 -0.996479,0.87492 c -4.260872,3.741095 -11.158079,6.68346 -17.020932,7.261171 l -2.022718,0.199313 z"
     id="path840"
     inkscape:connector-curvature="0" />
  <path
     style="fill:#ccffaa;fill-opacity:1;stroke:#e5ffd5;stroke-width:0;stroke-miterlimit:4;stroke-dasharray:none;stroke-opacity:1"
     d="m 45.211161,54.071738 v -7.115024 l 4.929577,4.92354 c 2.711268,2.707947 4.929578,5.00508 4.929578,5.104739 0,0.261998 -3.345825,2.381438 -4.507043,2.855024 -0.853943,0.348268 -2.285123,0.717315 -4.718309,1.216671 l -0.633803,0.130074 z m 5.380878,4.207784 c 0.59791,-0.401659 1.104817,-1.066635 1.35059,-1.771746 0.348082,-0.998632 0.339439,-1.24256 -0.07497,-2.11587 -0.833708,-1.756909 -2.707104,-2.402704 -4.412194,-1.520968 -2.235152,1.155842 -2.154765,4.48418 0.135604,5.614539 1.192954,0.588755 1.889085,0.54098 3.000974,-0.205955 z"
     id="path842"
     inkscape:connector-curvature="0" />
  <path
     style="fill:#ccffaa;fill-opacity:1;stroke:#e5ffd5;stroke-width:0;stroke-miterlimit:4;stroke-dasharray:none;stroke-opacity:1"
     d="m 41.690034,60.979533 c -2.55767,-0.339228 -7.081924,-2.264255 -8.184262,-3.482325 -0.465452,-0.514318 -0.322902,-0.70364 3.747604,-4.977213 2.327304,-2.443407 4.499461,-4.684035 4.827017,-4.979174 l 0.595557,-0.536616 v 7.085912 c 0,3.897251 -0.03169,7.066919 -0.07042,7.043706 -0.03873,-0.02322 -0.450704,-0.09264 -0.915493,-0.15429 z"
     id="path844"
     inkscape:connector-curvature="0" />
  <path
     style="fill:#ccffaa;fill-opacity:1;stroke:#e5ffd5;stroke-width:0;stroke-miterlimit:4;stroke-dasharray:none;stroke-opacity:1"
     d="M 40.281583,85.39915 C 32.055566,84.658286 23.820902,81.222859 17.364241,75.838242 l -1.790582,-1.493279 2.757543,-2.76793 2.757544,-2.767929 1.103317,0.996781 c 4.260169,3.848806 11.278494,6.900736 17.739298,7.713961 l 2.744589,0.345464 v 3.90888 c 0,2.149885 -0.03169,3.890665 -0.07042,3.868401 -0.03873,-0.02226 -1.084507,-0.131813 -2.323944,-0.243441 z"
     id="path846"
     inkscape:connector-curvature="0" />
  <path
     style="fill:#ccffaa;fill-opacity:1;stroke:#e5ffd5;stroke-width:0;stroke-miterlimit:4;stroke-dasharray:none;stroke-opacity:1"
     d="M 19.102157,62.936592 C 15.470061,58.113361 12.816795,51.114202 12.816795,46.356179 v -1.236488 h 5.716047 5.716048 l 0.453464,2.401953 c 0.500143,2.649206 1.917227,5.909977 3.51331,8.084278 l 1.023404,1.394155 -4.052563,4.059807 c -2.22891,2.232894 -4.139823,4.059807 -4.246473,4.059807 -0.10665,0 -0.933694,-0.982395 -1.837875,-2.183099 z m 3.657664,-4.11297 c 2.915174,-1.218038 3.952562,-5.27663 1.973669,-7.721619 -1.987729,-2.455904 -5.311546,-2.75825 -7.505224,-0.682702 -1.178846,1.115365 -1.594742,2.099787 -1.593127,3.770908 0.0035,3.671223 3.689881,6.068564 7.124682,4.633413 z"
     id="path848"
     inkscape:connector-curvature="0" />
  <path
     style="fill:#ccffaa;fill-opacity:1;stroke:#e5ffd5;stroke-width:0;stroke-miterlimit:4;stroke-dasharray:none;stroke-opacity:1"
     d="m 26.905465,42.232367 c 0.02356,-1.99247 2.387842,-7.653513 3.687718,-8.829885 0.549088,-0.496917 0.659125,-0.408617 5.405119,4.337377 l 4.84462,4.84462 h -6.97081 c -5.391075,0 -6.969867,-0.0798 -6.966647,-0.352112 z"
     id="path850"
     inkscape:connector-curvature="0" />
  <path
     style="fill:#ff0000;fill-opacity:1;stroke:#e5ffd5;stroke-width:0;stroke-miterlimit:4;stroke-dasharray:none;stroke-opacity:1"
     d="m 18.328853,16.406469 -2.759892,-2.770287 1.933776,-1.599417 C 24.234513,6.4689448 33.900166,2.5844794 41.022707,2.5844794 h 1.653243 v 3.7700009 3.7700007 l -1.901409,0.190438 c -2.976766,0.298142 -7.362046,1.433867 -10.108671,2.618002 -2.699467,1.163804 -6.687481,3.633217 -8.473807,5.247054 l -1.103317,0.996782 z"
     id="path852"
     inkscape:connector-curvature="0" />
  <path
     style="fill:#ff0000;fill-opacity:1;stroke:#e5ffd5;stroke-width:0;stroke-miterlimit:4;stroke-dasharray:none;stroke-opacity:1"
     d="m 56.184124,28.625212 c -1.133446,-1.36572 -5.977292,-3.571045 -8.638263,-3.932862 -2.560108,-0.348103 -2.3347,0.255097 -2.3347,-6.247757 V 12.65253 l 2.022718,0.199313 c 5.846544,0.576104 12.010727,3.168815 16.659048,7.006945 1.340325,1.106709 1.350833,1.128147 0.815412,1.663568 -0.469978,0.469978 -0.690103,0.502642 -1.648394,0.244601 -3.105421,-0.836203 -6.154727,2.223978 -5.22727,5.24591 0.266936,0.869756 0.244328,1.121762 -0.138594,1.544886 -0.562264,0.621295 -1.032864,0.64232 -1.509957,0.06746 z"
     id="path854"
     inkscape:connector-curvature="0" />
  <path
     style="fill:#ff0000;fill-opacity:1;stroke:#e5ffd5;stroke-width:0;stroke-miterlimit:4;stroke-dasharray:none;stroke-opacity:1"
     d="m 52.166922,37.743435 4.841045,-4.841044 0.570831,0.686114 c 1.511765,1.81708 3.407011,6.49139 3.407011,8.402832 0,0.586754 -0.07356,0.593142 -6.829966,0.593142 h -6.829965 z"
     id="path856"
     inkscape:connector-curvature="0" />
  <path
     style="fill:#ff0000;fill-opacity:1;stroke:#e5ffd5;stroke-width:0;stroke-miterlimit:4;stroke-dasharray:none;stroke-opacity:1"
     d="m 45.211161,81.71142 v -3.850041 l 1.901408,-0.198076 c 6.977623,-0.726882 13.411141,-3.406535 18.682632,-7.781584 l 1.288266,-1.069191 2.708945,2.731046 2.708945,2.731046 -1.202362,1.033915 C 64.655656,81.021161 56.131919,84.682354 47.94031,85.341768 l -2.729149,0.219693 z"
     id="path858"
     inkscape:connector-curvature="0" />
  <path
     style="fill:#ff0000;fill-opacity:1;stroke:#e5ffd5;stroke-width:0;stroke-miterlimit:4;stroke-dasharray:none;stroke-opacity:1"
     d="M 12.415728,70.987798 C 6.9727016,64.841832 3.4091236,56.249866 2.533788,47.161944 L 2.3370811,45.119691 h 3.9304997 3.9305002 l 0.171043,2.183098 c 0.470292,6.002531 3.659653,13.758266 7.430327,18.068713 0.66799,0.763613 1.214527,1.497198 1.214527,1.630189 0,0.132992 -1.185327,1.422201 -2.63406,2.86491 l -2.63406,2.623107 z"
     id="path860"
     inkscape:connector-curvature="0" />
</svg>
