<?xml version="1.0" encoding="UTF-8" standalone="no"?>
<svg
   xmlns:dc="http://purl.org/dc/elements/1.1/"
   xmlns:cc="http://creativecommons.org/ns#"
   xmlns:rdf="http://www.w3.org/1999/02/22-rdf-syntax-ns#"
   xmlns:svg="http://www.w3.org/2000/svg"
   xmlns="http://www.w3.org/2000/svg"
   xmlns:sodipodi="http://sodipodi.sourceforge.net/DTD/sodipodi-0.dtd"
   xmlns:inkscape="http://www.inkscape.org/namespaces/inkscape"
   version="1.1"
   x="0px"
   y="0px"
   viewBox="0 0 100 125"
   enable-background="new 0 0 100 100"
   xml:space="preserve"
   id="svg12"
   sodipodi:docname="Rambler.svg"
   inkscape:version="0.92.4 (5da689c313, 2019-01-14)"><metadata
     id="metadata18"><rdf:RDF><cc:Work
         rdf:about=""><dc:format>image/svg+xml</dc:format><dc:type
           rdf:resource="http://purl.org/dc/dcmitype/StillImage" /></cc:Work></rdf:RDF></metadata><defs
     id="defs16" /><sodipodi:namedview
     pagecolor="#ffffff"
     bordercolor="#666666"
     borderopacity="1"
     objecttolerance="10"
     gridtolerance="10"
     guidetolerance="10"
     inkscape:pageopacity="0"
     inkscape:pageshadow="2"
     inkscape:window-width="640"
     inkscape:window-height="480"
     id="namedview14"
     showgrid="false"
     inkscape:zoom="1.888"
     inkscape:cx="50"
     inkscape:cy="62.5"
     inkscape:window-x="0"
     inkscape:window-y="0"
     inkscape:window-maximized="0"
     inkscape:current-layer="svg12" /><path
     display="none"
     fill="none"
     d="M45,25c0,18.24,8.051,33,18,33"
     id="path2" /><path
     fill="#000000"
     d="M55.633,10.942c-0.149,0-1.403,0.298-2.906,0.637c-0.154-0.182-0.317-0.356-0.489-0.522  c0.508-0.114,0.996-0.225,1.418-0.321c0.119-0.027,0.229-0.052,0.334-0.076C53.879,10.205,53.106,6.368,53,6  c-0.603-2.161-0.673-4-1-4c-1.678,0-3.643,1-5,1c-1.356,0-2.324-1-4-1c-0.582,0-1.592,6.255-2.176,8.661  c0.104,0.024,0.215,0.049,0.334,0.076c0.315,0.072,0.671,0.153,1.04,0.236c-0.176,0.165-0.343,0.337-0.501,0.518  c-0.235-0.054-0.476-0.108-0.69-0.157c0.101,0.023,0.204,0.046,0.309,0.071c-0.12-0.027-0.235-0.054-0.348-0.08  c-0.967-0.221-1.677-0.382-1.787-0.382c-0.348,0-2.508,2.444-2.361,2.444c1.225,0,2.448,0.055,3.614,0.134  c-0.35,0.852-0.545,1.783-0.545,2.761c0,4.021,3.26,7.282,7.282,7.282c4.021,0,7.282-3.26,7.282-7.282  c0-0.966-0.192-1.886-0.534-2.729c1.301-0.096,2.688-0.166,4.074-0.166C58.141,13.387,55.981,10.942,55.633,10.942z"
     id="path4" /><path
     fill="#000000"
     d="M82.614,30.902c-0.61-1.063-1.45-1.688-1.486-1.715L80.873,29L69.422,49.479L65,34  c-2-5-3.738-8.917-9.396-8.917l-14.654-0.006c0.02,16.355,6.225,29.885,14.292,32.421c0.142,0.657,0.36,1.416,0.633,2.288  c-9.6-1.888-16.848-16.436-16.873-34.689C34.073,25.302,31,29.413,31,34.524V57c0,0.852,0.282,1.511,0.71,2H31l0.438,2.191  c0.034,0.3,0.098,0.596,0.178,0.89L32,64h0.394c0.311,0.601,0.66,1.188,1,1.756c1.292,2.154,2.513,4.189,1.786,6.517  c-1.615,5.167-3.776,6.908-7.225,5.834c-1.557-0.486-2.831-1.55-3.587-2.994s-0.905-3.098-0.419-4.654  c0.373-1.194,1.189-2.172,2.297-2.752c1.109-0.581,2.376-0.694,3.571-0.322c1.867,0.584,2.911,2.577,2.328,4.445  c-0.21,0.672-0.669,1.223-1.293,1.55c-0.326,0.17-0.677,0.27-1.033,0.295c0.871-0.169,1.625-0.798,1.908-1.701  c0.471-1.506-0.372-3.115-1.878-3.587c-1.75-0.55-3.621,0.431-4.17,2.184c-0.312,0.996-0.216,2.055,0.269,2.98  c0.484,0.926,1.3,1.606,2.297,1.918c1.181,0.37,2.438,0.257,3.536-0.317c1.098-0.575,1.905-1.543,2.275-2.726  c0.912-2.92-0.721-6.037-3.64-6.949c-1.704-0.534-3.514-0.37-5.095,0.458c-1.582,0.829-2.746,2.224-3.279,3.929  c-0.646,2.065-0.448,4.26,0.557,6.178c1.004,1.918,2.696,3.329,4.762,3.975c0.887,0.277,1.694,0.4,2.431,0.4  c4.94,0,6.675-5.549,7.299-7.547c0.994-3.182-0.585-5.816-1.979-8.142c-0.356-0.595-0.667-1.13-0.928-1.633l0.642-3.209  C36.002,59.582,37,58.629,37,57V35h1.569l-0.008,59.106c0,2.252,1.83,4.113,4.083,4.113c2.257,0,4.084-1.774,4.084-4.026L46.731,60  h1.818l-0.013,34.209c0,2.252,1.829,4.062,4.084,4.062c2.254,0,4.08-1.841,4.08-4.093l0.009-31.543  c0.387,1.418,0.755,2.865,1.134,4.192c0.488,1.714-0.114,5.526,1.128,7.005c1.705,2.032,5.3,1.037,6.222-1.238  c0.649-1.599-0.382-4.908-0.625-6.545c-0.108-0.732-0.2-1.798-0.316-3.014l0.85-0.098l-0.521-4.556l-0.894,0.102  c-0.407-2.355-1.044-4.521-2.149-5.462c-0.506-0.432-0.465-0.389-1.179-0.384l-0.269-0.109c-1.506,0.317-2.608,0.639-3.399,1.032  L56.719,35H59l6,22c0.04,0.06,0.085,0.107,0.126,0.164l-0.119,0.214c0,0-0.146,0.94,0.933,1.543  c1.076,0.602,1.802-0.015,1.802-0.015l0.094-0.168C69.474,58.793,71,57.471,71,55l-0.363-1.273l0.924-1.653l-1.662-0.929  l-0.237-0.83l2.196,1.228l0.156-0.225c0.355-0.516,8.742-12.639,10.604-15.967C83.44,33.878,83.44,32.341,82.614,30.902z   M29.202,71.697l-0.559,1.789c-0.397-0.174-0.722-0.475-0.926-0.864c-0.237-0.452-0.283-0.97-0.131-1.456  c0.177-0.568,0.703-0.933,1.269-0.933c0.131,0,0.264,0.02,0.395,0.061c0.455,0.143,0.709,0.628,0.567,1.081  C29.735,71.634,29.462,71.775,29.202,71.697z"
     id="path6" /></svg>