<?xml version="1.0" encoding="UTF-8" standalone="no"?>
<svg
   xmlns:dc="http://purl.org/dc/elements/1.1/"
   xmlns:cc="http://creativecommons.org/ns#"
   xmlns:rdf="http://www.w3.org/1999/02/22-rdf-syntax-ns#"
   xmlns:svg="http://www.w3.org/2000/svg"
   xmlns="http://www.w3.org/2000/svg"
   xmlns:sodipodi="http://sodipodi.sourceforge.net/DTD/sodipodi-0.dtd"
   xmlns:inkscape="http://www.inkscape.org/namespaces/inkscape"
   version="1.1"
   x="0px"
   y="0px"
   viewBox="0 0 85 106.25"
   enable-background="new 0 0 85 85"
   xml:space="preserve"
   id="svg18"
   sodipodi:docname="Spear.svg"
   inkscape:version="0.92.2 (5c3e80d, 2017-08-06)"><metadata
     id="metadata24"><rdf:RDF><cc:Work
         rdf:about=""><dc:format>image/svg+xml</dc:format><dc:type
           rdf:resource="http://purl.org/dc/dcmitype/StillImage" /></cc:Work></rdf:RDF></metadata><defs
     id="defs22" /><sodipodi:namedview
     pagecolor="#ffffff"
     bordercolor="#666666"
     borderopacity="1"
     objecttolerance="10"
     gridtolerance="10"
     guidetolerance="10"
     inkscape:pageopacity="0"
     inkscape:pageshadow="2"
     inkscape:window-width="1920"
     inkscape:window-height="1017"
     id="namedview20"
     showgrid="false"
     inkscape:zoom="8.8847059"
     inkscape:cx="14.122355"
     inkscape:cy="61.828986"
     inkscape:window-x="-8"
     inkscape:window-y="-8"
     inkscape:window-maximized="1"
     inkscape:current-layer="svg18" /><path
     d="M1088.5-268.657l-23.302,121.19L1088.5-111.5l23.302-36.299L1088.5-268.657z M1084.062-136.062l-9.146-13.466l13.585-83.154  l13.585,83.154l-8.65,13.466H1084.062z"
     id="path2" /><path
     d="M1105.901-123c0,3.038-2.463,5.5-5.5,5.5H1076.6c-3.037,0-5.5-2.462-5.5-5.5l0,0c0-3.038,2.463-5.5,5.5-5.5h23.802  C1103.438-128.5,1105.901-126.038,1105.901-123L1105.901-123z"
     id="path4" /><path
     d="M1105.901-60.5c0,3.038-2.463,5.5-5.5,5.5H1076.6c-3.037,0-5.5-2.462-5.5-5.5l0,0c0-3.038,2.463-5.5,5.5-5.5h23.802  C1103.438-66,1105.901-63.538,1105.901-60.5L1105.901-60.5z"
     id="path6" /><polygon
     points="1100,-60.5 1077,-60.5 1080,-123 1097,-123 "
     id="polygon8" /><rect
     x="1079.5"
     y="-59.833"
     width="18"
     height="534"
     id="rect10" /><path
     d="m 51.915,28.522 c 0.944,-0.579 3.54,-1.399 4.286,-1.629 L 56.078,26.77 c -0.274,-0.274 -0.274,-0.719 0,-0.994 0.275,-0.274 0.719,-0.274 0.994,0 l 0.061,0.06 4.875,-4.428 -0.283,-0.284 c -0.274,-0.274 -0.274,-0.719 0,-0.994 0.274,-0.274 0.719,-0.274 0.993,0 l 0.089,0.09 0.625,-2.862 13.02,-8.812 -8.842,13.051 -2.823,0.604 0.08,0.08 c 0.274,0.274 0.274,0.719 0,0.994 -0.274,0.274 -0.719,0.274 -0.993,0 l -0.283,-0.284 -4.428,4.875 0.06,0.06 c 0.274,0.274 0.274,0.719 0,0.994 -0.274,0.275 -0.719,0.274 -0.993,0 l -0.193,-0.193 c -0.029,0.098 -1.021,3.395 -1.69,4.487 -0.679,1.108 -3.135,4.594 -8.053,7.308 3.07,-1.812 5.876,-6.051 7.578,-9.038 -1.5,2.043 -6.121,8.063 -8.856,8.532 2.397,-1.753 4.86,-4.658 6.732,-7.138 L 10.172,76.454 8.546,74.828 52.251,31.122 c -2.48,1.872 -5.385,4.335 -7.138,6.731 0.469,-2.735 6.488,-7.356 8.532,-8.856 -2.987,1.702 -7.227,4.508 -9.038,7.578 2.714,-4.918 6.2,-7.374 7.308,-8.053 z m 15.003,-7.988 6.284,-8.738 -8.738,6.284 -0.435,1.998 0.847,0.847 z"
     id="path12"
     inkscape:connector-curvature="0"
     style="fill:#782121" /><path
     style="fill:#cccccc;fill-opacity:1;stroke:none;stroke-width:0.11255296;stroke-opacity:1"
     d="M 64.486317,20.492515 64.07855,20.084748 64.288778,19.12273 c 0.115625,-0.52911 0.240235,-0.992026 0.276911,-1.028702 0.161407,-0.16141 8.211579,-5.937438 8.242521,-5.91404 0.01898,0.01435 -1.309686,1.895654 -2.952585,4.180673 l -2.987089,4.154579 -0.863733,0.145133 c -0.475053,0.07982 -0.919304,0.166458 -0.987225,0.192521 -0.06792,0.02606 -0.306988,-0.136106 -0.531261,-0.360379 z"
     id="path817"
     inkscape:connector-curvature="0" /></svg>