<?xml version="1.0" encoding="UTF-8" standalone="no"?>
<svg
   xmlns:dc="http://purl.org/dc/elements/1.1/"
   xmlns:cc="http://creativecommons.org/ns#"
   xmlns:rdf="http://www.w3.org/1999/02/22-rdf-syntax-ns#"
   xmlns:svg="http://www.w3.org/2000/svg"
   xmlns="http://www.w3.org/2000/svg"
   xmlns:sodipodi="http://sodipodi.sourceforge.net/DTD/sodipodi-0.dtd"
   xmlns:inkscape="http://www.inkscape.org/namespaces/inkscape"
   version="1.1"
   x="0px"
   y="0px"
   viewBox="0 0 67.905999 67.907997"
   enable-background="new 0 0 85 85"
   xml:space="preserve"
   id="svg18"
   sodipodi:docname="Spear.svg"
   inkscape:version="0.92.2 (5c3e80d, 2017-08-06)"
   width="67.905998"
   height="67.907997"><metadata
     id="metadata24"><rdf:RDF><cc:Work
         rdf:about=""><dc:format>image/svg+xml</dc:format><dc:type
           rdf:resource="http://purl.org/dc/dcmitype/StillImage" /></cc:Work></rdf:RDF></metadata><defs
     id="defs22" /><sodipodi:namedview
     pagecolor="#ffffff"
     bordercolor="#666666"
     borderopacity="1"
     objecttolerance="10"
     gridtolerance="10"
     guidetolerance="10"
     inkscape:pageopacity="0"
     inkscape:pageshadow="2"
     inkscape:window-width="1366"
     inkscape:window-height="705"
     id="namedview20"
     showgrid="false"
     inkscape:zoom="1"
     inkscape:cx="466.094"
     inkscape:cy="-47.966989"
     inkscape:window-x="-8"
     inkscape:window-y="-8"
     inkscape:window-maximized="1"
     inkscape:current-layer="svg18" /><path
     d="m 43.369,19.976 c 0.944,-0.579 3.54,-1.399 4.286,-1.629 l -0.123,-0.123 c -0.274,-0.274 -0.274,-0.719 0,-0.994 0.275,-0.274 0.719,-0.274 0.994,0 l 0.061,0.06 4.875,-4.428 -0.283,-0.284 c -0.274,-0.274 -0.274,-0.719 0,-0.994 0.274,-0.274 0.719,-0.274 0.993,0 l 0.089,0.09 0.625,-2.862 13.02,-8.812 -8.842,13.051 -2.823,0.604 0.08,0.08 c 0.274,0.274 0.274,0.719 0,0.994 -0.274,0.274 -0.719,0.274 -0.993,0 l -0.283,-0.284 -4.428,4.875 0.06,0.06 c 0.274,0.274 0.274,0.719 0,0.994 -0.274,0.275 -0.719,0.274 -0.993,0 l -0.193,-0.193 c -0.029,0.098 -1.021,3.395 -1.69,4.487 -0.679,1.108 -3.135,4.594 -8.053,7.308 3.07,-1.812 5.876,-6.051 7.578,-9.038 -1.5,2.043 -6.121,8.063 -8.856,8.532 2.397,-1.753 4.86,-4.658 6.732,-7.138 L 1.626,67.908 0,66.282 43.705,22.576 c -2.48,1.872 -5.385,4.335 -7.138,6.731 0.469,-2.735 6.488,-7.356 8.532,-8.856 -2.987,1.702 -7.227,4.508 -9.038,7.578 2.714,-4.918 6.2,-7.374 7.308,-8.053 z m 15.003,-7.988 6.284,-8.738 -8.738,6.284 -0.435,1.998 0.847,0.847 z"
     id="path12"
     inkscape:connector-curvature="0"
     style="fill:#782121" /><path
     style="fill:#cccccc;fill-opacity:1;stroke:none;stroke-width:0.11255296;stroke-opacity:1"
     d="m 55.940317,11.94651 -0.407767,-0.40776 0.210228,-0.96202 c 0.115625,-0.52911 0.240235,-0.99203 0.276911,-1.0287 0.161407,-0.16141 8.211579,-5.93744 8.242521,-5.91404 0.01898,0.0143 -1.309686,1.89565 -2.952585,4.18067 l -2.987089,4.15458 -0.863733,0.14513 c -0.475053,0.0798 -0.919304,0.16646 -0.987225,0.19252 -0.06792,0.0261 -0.306988,-0.1361 -0.531261,-0.36038 z"
     id="path817"
     inkscape:connector-curvature="0" /></svg>