<?xml version="1.0" encoding="UTF-8" standalone="no"?>
<svg
   xmlns:dc="http://purl.org/dc/elements/1.1/"
   xmlns:cc="http://creativecommons.org/ns#"
   xmlns:rdf="http://www.w3.org/1999/02/22-rdf-syntax-ns#"
   xmlns:svg="http://www.w3.org/2000/svg"
   xmlns="http://www.w3.org/2000/svg"
   xmlns:sodipodi="http://sodipodi.sourceforge.net/DTD/sodipodi-0.dtd"
   xmlns:inkscape="http://www.inkscape.org/namespaces/inkscape"
   version="1.1"
   x="0px"
   y="0px"
   viewBox="0 0 85 106.25"
   enable-background="new 0 0 85 85"
   xml:space="preserve"
   id="svg18"
   sodipodi:docname="Spear.svg"
   inkscape:version="0.92.4 (5da689c313, 2019-01-14)"><metadata
     id="metadata24"><rdf:RDF><cc:Work
         rdf:about=""><dc:format>image/svg+xml</dc:format><dc:type
           rdf:resource="http://purl.org/dc/dcmitype/StillImage" /></cc:Work></rdf:RDF></metadata><defs
     id="defs22" /><sodipodi:namedview
     pagecolor="#ffffff"
     bordercolor="#666666"
     borderopacity="1"
     objecttolerance="10"
     gridtolerance="10"
     guidetolerance="10"
     inkscape:pageopacity="0"
     inkscape:pageshadow="2"
     inkscape:window-width="640"
     inkscape:window-height="480"
     id="namedview20"
     showgrid="false"
     inkscape:zoom="2.2211765"
     inkscape:cx="42.5"
     inkscape:cy="53.125"
     inkscape:window-x="0"
     inkscape:window-y="0"
     inkscape:window-maximized="0"
     inkscape:current-layer="svg18" /><path
     d="M1088.5-268.657l-23.302,121.19L1088.5-111.5l23.302-36.299L1088.5-268.657z M1084.062-136.062l-9.146-13.466l13.585-83.154  l13.585,83.154l-8.65,13.466H1084.062z"
     id="path2" /><path
     d="M1105.901-123c0,3.038-2.463,5.5-5.5,5.5H1076.6c-3.037,0-5.5-2.462-5.5-5.5l0,0c0-3.038,2.463-5.5,5.5-5.5h23.802  C1103.438-128.5,1105.901-126.038,1105.901-123L1105.901-123z"
     id="path4" /><path
     d="M1105.901-60.5c0,3.038-2.463,5.5-5.5,5.5H1076.6c-3.037,0-5.5-2.462-5.5-5.5l0,0c0-3.038,2.463-5.5,5.5-5.5h23.802  C1103.438-66,1105.901-63.538,1105.901-60.5L1105.901-60.5z"
     id="path6" /><polygon
     points="1100,-60.5 1077,-60.5 1080,-123 1097,-123 "
     id="polygon8" /><rect
     x="1079.5"
     y="-59.833"
     width="18"
     height="534"
     id="rect10" /><path
     d="M33.083,28.522c-0.944-0.579-3.54-1.399-4.286-1.629l0.123-0.123c0.274-0.274,0.274-0.719,0-0.994  c-0.275-0.274-0.719-0.274-0.994,0l-0.061,0.06l-4.875-4.428l0.283-0.284c0.274-0.274,0.274-0.719,0-0.994  c-0.274-0.274-0.719-0.274-0.993,0l-0.089,0.09l-0.625-2.862L8.546,8.546l8.842,13.051l2.823,0.604l-0.08,0.08  c-0.274,0.274-0.274,0.719,0,0.994c0.274,0.274,0.719,0.274,0.993,0l0.283-0.284l4.428,4.875l-0.06,0.06  c-0.274,0.274-0.274,0.719,0,0.994s0.719,0.274,0.993,0l0.193-0.193c0.029,0.098,1.021,3.395,1.69,4.487  c0.679,1.108,3.135,4.594,8.053,7.308c-3.07-1.812-5.876-6.051-7.578-9.038c1.5,2.043,6.121,8.063,8.856,8.532  c-2.397-1.753-4.86-4.658-6.732-7.138l43.576,43.576l1.626-1.626L32.747,31.122c2.48,1.872,5.385,4.335,7.138,6.731  c-0.469-2.735-6.488-7.356-8.532-8.856c2.987,1.702,7.227,4.508,9.038,7.578C37.677,31.657,34.191,29.201,33.083,28.522z   M18.08,20.534l-6.284-8.738l8.738,6.284l0.435,1.998l-0.847,0.847L18.08,20.534z"
     id="path12" /></svg>