<?xml version="1.0" encoding="UTF-8" standalone="no"?>
<svg
   xmlns:dc="http://purl.org/dc/elements/1.1/"
   xmlns:cc="http://creativecommons.org/ns#"
   xmlns:rdf="http://www.w3.org/1999/02/22-rdf-syntax-ns#"
   xmlns:svg="http://www.w3.org/2000/svg"
   xmlns="http://www.w3.org/2000/svg"
   xmlns:sodipodi="http://sodipodi.sourceforge.net/DTD/sodipodi-0.dtd"
   xmlns:inkscape="http://www.inkscape.org/namespaces/inkscape"
   version="1.1"
   x="0px"
   y="0px"
   viewBox="0 0 100 125"
   enable-background="new 0 0 100 100"
   xml:space="preserve"
   id="svg8"
   sodipodi:docname="Sword.svg"
   inkscape:version="0.92.2 (5c3e80d, 2017-08-06)"><metadata
     id="metadata14"><rdf:RDF><cc:Work
         rdf:about=""><dc:format>image/svg+xml</dc:format><dc:type
           rdf:resource="http://purl.org/dc/dcmitype/StillImage" /></cc:Work></rdf:RDF></metadata><defs
     id="defs12" /><sodipodi:namedview
     pagecolor="#ffffff"
     bordercolor="#666666"
     borderopacity="1"
     objecttolerance="10"
     gridtolerance="10"
     guidetolerance="10"
     inkscape:pageopacity="0"
     inkscape:pageshadow="2"
     inkscape:window-width="1920"
     inkscape:window-height="1017"
     id="namedview10"
     showgrid="false"
     inkscape:zoom="7.552"
     inkscape:cx="15.894272"
     inkscape:cy="67.416841"
     inkscape:window-x="-8"
     inkscape:window-y="-8"
     inkscape:window-maximized="1"
     inkscape:current-layer="svg8" /><path
     d="M 10.323764,74.675 C 9.1377642,73.489 8.4847642,71.913 8.4847642,70.237 c 0,-1.676 0.653,-3.253 1.8389998,-4.438 1.186,-1.185 2.762,-1.839 4.438,-1.839 1.676,0 3.253,0.653 4.438,1.839 l 5.173,5.172 64.811,-64.812 0.629,1.944 c 0.189,0.586 4.454,14.53 -11.571,30.555 l -43.091,43.09 5.429,5.429 c 1.427,1.425 3.915,1.427 5.342,0 0.714,-0.714 1.107,-1.662 1.107,-2.671 0,-1.009 -0.394,-1.957 -1.107,-2.671 l 1.768,-1.768 c 1.186,1.186 1.839,2.762 1.839,4.438 0,1.676 -0.653,3.253 -1.839,4.438 -1.185,1.186 -2.761,1.839 -4.438,1.839 -1.677,0 -3.254,-0.653 -4.439,-1.839 l -7.563,-7.564 -9.951,9.951 1.251,1.253 -1.768,1.768 -9.011,-9.011 1.768,-1.768 1.252,1.252 9.949,-9.951 -7.307,-7.308 c -1.428,-1.428 -3.914,-1.428 -5.342,0 -0.714,0.714 -1.106,1.662 -1.106,2.671 0,1.009 0.393,1.957 1.106,2.671 z m 77.523,-63.643 -61.706,61.706 2.736,2.738 40.03,-40.029 1.768,1.768 -40.029,40.028 2.738,2.738 43.09,-43.09 c 11.459,-11.46 11.867,-21.575 11.373,-25.859 z m -61.524,71.739 -2.973,-2.973 -2.182,2.182 2.972,2.973 z m -6.793,6.792 2.843,-2.843 -2.972,-2.972 -2.843,2.843 z m 5.588,-11.532 2.973,2.973 1.391,-1.392 -2.974,-2.972 z"
     id="path2"
     inkscape:connector-curvature="0"
     style="fill:#cccccc" /><path
     style="fill:#999f99;fill-opacity:1;stroke:none;stroke-width:0.13241525;stroke-opacity:1"
     d="M 32.027879,78.538379 30.737337,77.247836 50.753884,57.230962 70.770431,37.214087 69.902573,36.34195 c -0.477321,-0.479677 -0.918927,-0.872138 -0.981348,-0.872138 -0.06242,0 -9.09576,8.982122 -20.074091,19.960272 L 28.886533,75.390357 27.560027,74.068829 26.233521,72.747301 56.988154,41.991836 87.742789,11.23637 l 0.108175,0.56349 c 0.139853,0.728504 0.01193,3.514773 -0.236954,5.160944 -0.846237,5.597248 -3.921559,11.73516 -8.568556,17.101633 -0.826563,0.954538 -45.533323,45.766485 -45.659057,45.766485 -0.03739,0 -0.648719,-0.580744 -1.358518,-1.290543 z"
     id="path812"
     inkscape:connector-curvature="0" /><path
     style="fill:#784421;fill-opacity:1;stroke:none;stroke-width:0.13241525;stroke-opacity:1"
     d="m 18.092365,88.038667 -1.453537,-1.458058 1.39036,-1.39036 1.39036,-1.39036 1.453538,1.458058 1.453537,1.458059 -1.39036,1.39036 -1.39036,1.39036 z"
     id="path814"
     inkscape:connector-curvature="0" /><path
     style="fill:#784421;fill-opacity:1;stroke:none;stroke-width:0.13241525;stroke-opacity:1"
     d="m 22.725971,83.403202 -1.452312,-1.456828 1.024721,-1.024721 1.02472,-1.02472 1.457591,1.45759 1.45759,1.457591 -1.029999,1.023959 -1.03,1.023958 z"
     id="path816"
     inkscape:connector-curvature="0" /><path
     style="fill:#784421;fill-opacity:1;stroke:none;stroke-width:0.13241525;stroke-opacity:1"
     d="m 26.596371,79.461197 -1.422622,-1.427047 0.664865,-0.654867 0.664864,-0.654867 1.454058,1.449548 1.454057,1.449549 -0.622856,0.632365 c -0.342571,0.347801 -0.655907,0.632366 -0.696301,0.632366 -0.04039,0 -0.713623,-0.642171 -1.496065,-1.427047 z"
     id="path818"
     inkscape:connector-curvature="0" /></svg>