<?xml version="1.0" encoding="UTF-8" standalone="no"?>
<svg
   xmlns:dc="http://purl.org/dc/elements/1.1/"
   xmlns:cc="http://creativecommons.org/ns#"
   xmlns:rdf="http://www.w3.org/1999/02/22-rdf-syntax-ns#"
   xmlns:svg="http://www.w3.org/2000/svg"
   xmlns="http://www.w3.org/2000/svg"
   xmlns:sodipodi="http://sodipodi.sourceforge.net/DTD/sodipodi-0.dtd"
   xmlns:inkscape="http://www.inkscape.org/namespaces/inkscape"
   version="1.1"
   x="0px"
   y="0px"
   viewBox="0 0 100 125"
   enable-background="new 0 0 100 100"
   xml:space="preserve"
   id="svg8"
   sodipodi:docname="Sword.svg"
   inkscape:version="0.92.2 (5c3e80d, 2017-08-06)"><metadata
     id="metadata14"><rdf:RDF><cc:Work
         rdf:about=""><dc:format>image/svg+xml</dc:format><dc:type
           rdf:resource="http://purl.org/dc/dcmitype/StillImage" /></cc:Work></rdf:RDF></metadata><defs
     id="defs12" /><sodipodi:namedview
     pagecolor="#ffffff"
     bordercolor="#666666"
     borderopacity="1"
     objecttolerance="10"
     gridtolerance="10"
     guidetolerance="10"
     inkscape:pageopacity="0"
     inkscape:pageshadow="2"
     inkscape:window-width="640"
     inkscape:window-height="480"
     id="namedview10"
     showgrid="false"
     inkscape:zoom="1.888"
     inkscape:cx="40.730932"
     inkscape:cy="62.5"
     inkscape:window-x="13"
     inkscape:window-y="603"
     inkscape:window-maximized="0"
     inkscape:current-layer="svg8" /><path
     d="M 10.323764,74.675 C 9.1377642,73.489 8.4847642,71.913 8.4847642,70.237 c 0,-1.676 0.653,-3.253 1.8389998,-4.438 1.186,-1.185 2.762,-1.839 4.438,-1.839 1.676,0 3.253,0.653 4.438,1.839 l 5.173,5.172 64.811,-64.812 0.629,1.944 c 0.189,0.586 4.454,14.53 -11.571,30.555 l -43.091,43.09 5.429,5.429 c 1.427,1.425 3.915,1.427 5.342,0 0.714,-0.714 1.107,-1.662 1.107,-2.671 0,-1.009 -0.394,-1.957 -1.107,-2.671 l 1.768,-1.768 c 1.186,1.186 1.839,2.762 1.839,4.438 0,1.676 -0.653,3.253 -1.839,4.438 -1.185,1.186 -2.761,1.839 -4.438,1.839 -1.677,0 -3.254,-0.653 -4.439,-1.839 l -7.563,-7.564 -9.951,9.951 1.251,1.253 -1.768,1.768 -9.011,-9.011 1.768,-1.768 1.252,1.252 9.949,-9.951 -7.307,-7.308 c -1.428,-1.428 -3.914,-1.428 -5.342,0 -0.714,0.714 -1.106,1.662 -1.106,2.671 0,1.009 0.393,1.957 1.106,2.671 z m 77.523,-63.643 -61.706,61.706 2.736,2.738 40.03,-40.029 1.768,1.768 -40.029,40.028 2.738,2.738 43.09,-43.09 c 11.459,-11.46 11.867,-21.575 11.373,-25.859 z m -61.524,71.739 -2.973,-2.973 -2.182,2.182 2.972,2.973 z m -6.793,6.792 2.843,-2.843 -2.972,-2.972 -2.843,2.843 z m 5.588,-11.532 2.973,2.973 1.391,-1.392 -2.974,-2.972 z"
     id="path2"
     inkscape:connector-curvature="0" /></svg>