<svg xmlns="http://www.w3.org/2000/svg" xmlns:xlink="http://www.w3.org/1999/xlink" version="1.1" x="0px" y="0px" viewBox="0 0 100 125" enable-background="new 0 0 100 100" xml:space="preserve"><path d="M88.626,74.675c1.186-1.186,1.839-2.762,1.839-4.438s-0.653-3.253-1.839-4.438s-2.762-1.839-4.438-1.839  s-3.253,0.653-4.438,1.839l-5.173,5.172L9.766,6.159L9.137,8.103c-0.189,0.586-4.454,14.53,11.571,30.555l43.091,43.09l-5.429,5.429  c-1.427,1.425-3.915,1.427-5.342,0c-0.714-0.714-1.107-1.662-1.107-2.671s0.394-1.957,1.107-2.671l-1.768-1.768  c-1.186,1.186-1.839,2.762-1.839,4.438s0.653,3.253,1.839,4.438c1.185,1.186,2.761,1.839,4.438,1.839s3.254-0.653,4.439-1.839  l7.563-7.564l9.951,9.951L76.4,92.583l1.768,1.768l9.011-9.011l-1.768-1.768l-1.252,1.252l-9.949-9.951l7.307-7.308  c1.428-1.428,3.914-1.428,5.342,0c0.714,0.714,1.106,1.662,1.106,2.671s-0.393,1.957-1.106,2.671L88.626,74.675z M11.103,11.032  l61.706,61.706l-2.736,2.738l-40.03-40.029l-1.768,1.768l40.029,40.028l-2.738,2.738l-43.09-43.09  C11.017,25.431,10.609,15.316,11.103,11.032z M72.627,82.771l2.973-2.973l2.182,2.182l-2.972,2.973L72.627,82.771z M79.42,89.563  l-2.843-2.843l2.972-2.972l2.843,2.843L79.42,89.563z M73.832,78.031l-2.973,2.973l-1.391-1.392l2.974-2.972L73.832,78.031z"/><text x="0" y="115" fill="#000000" font-size="5px" font-weight="bold" font-family="'Helvetica Neue', Helvetica, Arial-Unicode, Arial, Sans-serif">Created by Creative Mania</text><text x="0" y="120" fill="#000000" font-size="5px" font-weight="bold" font-family="'Helvetica Neue', Helvetica, Arial-Unicode, Arial, Sans-serif">from the Noun Project</text></svg>