<?xml version="1.0" encoding="UTF-8" standalone="no"?>
<svg
   xmlns:dc="http://purl.org/dc/elements/1.1/"
   xmlns:cc="http://creativecommons.org/ns#"
   xmlns:rdf="http://www.w3.org/1999/02/22-rdf-syntax-ns#"
   xmlns:svg="http://www.w3.org/2000/svg"
   xmlns="http://www.w3.org/2000/svg"
   xmlns:sodipodi="http://sodipodi.sourceforge.net/DTD/sodipodi-0.dtd"
   xmlns:inkscape="http://www.inkscape.org/namespaces/inkscape"
   version="1.1"
   x="0px"
   y="0px"
   viewBox="0 0 81.980232 88.192001"
   enable-background="new 0 0 100 100"
   xml:space="preserve"
   id="svg8"
   sodipodi:docname="Sword.svg"
   inkscape:version="0.92.2 (5c3e80d, 2017-08-06)"
   width="81.980232"
   height="88.192001"><metadata
     id="metadata14"><rdf:RDF><cc:Work
         rdf:about=""><dc:format>image/svg+xml</dc:format><dc:type
           rdf:resource="http://purl.org/dc/dcmitype/StillImage" /></cc:Work></rdf:RDF></metadata><defs
     id="defs12" /><sodipodi:namedview
     pagecolor="#ffffff"
     bordercolor="#666666"
     borderopacity="1"
     objecttolerance="10"
     gridtolerance="10"
     guidetolerance="10"
     inkscape:pageopacity="0"
     inkscape:pageshadow="2"
     inkscape:window-width="1366"
     inkscape:window-height="705"
     id="namedview10"
     showgrid="false"
     inkscape:zoom="1"
     inkscape:cx="5.0922409"
     inkscape:cy="36.767841"
     inkscape:window-x="-8"
     inkscape:window-y="-8"
     inkscape:window-maximized="1"
     inkscape:current-layer="svg8" /><path
     d="M 1.8389998,68.516 C 0.653,67.33 0,65.754 0,64.078 0,62.402 0.653,60.825 1.8389998,59.64 c 1.186,-1.185 2.762,-1.839 4.438,-1.839 1.676,0 3.253,0.653 4.4380002,1.839 L 15.888,64.812 80.699,0 81.328,1.944 c 0.189,0.586 4.454,14.53 -11.571,30.555 l -43.091,43.09 5.429,5.429 c 1.427,1.425 3.915,1.427 5.342,0 0.714,-0.714 1.107,-1.662 1.107,-2.671 0,-1.009 -0.394,-1.957 -1.107,-2.671 l 1.768,-1.768 c 1.186,1.186 1.839,2.762 1.839,4.438 0,1.676 -0.653,3.253 -1.839,4.438 -1.185,1.186 -2.761,1.839 -4.438,1.839 -1.677,0 -3.254,-0.653 -4.439,-1.839 l -7.563,-7.564 -9.951,9.951 1.251,1.253 -1.768,1.768 -9.0110002,-9.011 1.768,-1.768 1.252,1.252 L 16.255,68.714 8.9479998,61.406 c -1.428,-1.428 -3.914,-1.428 -5.342,0 -0.714,0.714 -1.106,1.662 -1.106,2.671 0,1.009 0.393,1.957 1.106,2.671 z M 79.362,4.873 17.656,66.579 l 2.736,2.738 40.03,-40.029 1.768,1.768 -40.029,40.028 2.738,2.738 43.09,-43.09 C 79.448,19.272 79.856,9.157 79.362,4.873 Z m -61.524,71.739 -2.973,-2.973 -2.182,2.182 2.972,2.973 z m -6.793,6.792 2.843,-2.843 -2.972,-2.972 -2.8430002,2.843 z m 5.588,-11.532 2.973,2.973 1.391,-1.392 -2.974,-2.972 z"
     id="path2"
     inkscape:connector-curvature="0"
     style="fill:#cccccc" /><path
     style="fill:#999f99;fill-opacity:1;stroke:none;stroke-width:0.13241525;stroke-opacity:1"
     d="M 23.543115,72.379379 22.252573,71.088836 42.26912,51.071962 62.285667,31.055087 61.417809,30.18295 c -0.477321,-0.479677 -0.918927,-0.872138 -0.981348,-0.872138 -0.06242,0 -9.09576,8.982122 -20.074091,19.960272 L 20.401769,69.231357 19.075263,67.909829 17.748757,66.588301 48.50339,35.832836 79.258025,5.07737 79.3662,5.64086 c 0.139853,0.728504 0.01193,3.514773 -0.236954,5.160944 -0.846237,5.597248 -3.921559,11.73516 -8.568556,17.101633 -0.826563,0.954538 -45.533323,45.766485 -45.659057,45.766485 -0.03739,0 -0.648719,-0.580744 -1.358518,-1.290543 z"
     id="path812"
     inkscape:connector-curvature="0" /><path
     style="fill:#784421;fill-opacity:1;stroke:none;stroke-width:0.13241525;stroke-opacity:1"
     d="m 9.6076008,81.879667 -1.453537,-1.458058 1.39036,-1.39036 1.3903602,-1.39036 1.453538,1.458058 1.453537,1.458059 -1.39036,1.39036 -1.39036,1.39036 z"
     id="path814"
     inkscape:connector-curvature="0" /><path
     style="fill:#784421;fill-opacity:1;stroke:none;stroke-width:0.13241525;stroke-opacity:1"
     d="m 14.241207,77.244202 -1.452312,-1.456828 1.024721,-1.024721 1.02472,-1.02472 1.457591,1.45759 1.45759,1.457591 -1.029999,1.023959 -1.03,1.023958 z"
     id="path816"
     inkscape:connector-curvature="0" /><path
     style="fill:#784421;fill-opacity:1;stroke:none;stroke-width:0.13241525;stroke-opacity:1"
     d="m 18.111607,73.302197 -1.422622,-1.427047 0.664865,-0.654867 0.664864,-0.654867 1.454058,1.449548 1.454057,1.449549 -0.622856,0.632365 c -0.342571,0.347801 -0.655907,0.632366 -0.696301,0.632366 -0.04039,0 -0.713623,-0.642171 -1.496065,-1.427047 z"
     id="path818"
     inkscape:connector-curvature="0" /></svg>