<?xml version="1.0" encoding="UTF-8" standalone="no"?>
<svg
   xmlns:dc="http://purl.org/dc/elements/1.1/"
   xmlns:cc="http://creativecommons.org/ns#"
   xmlns:rdf="http://www.w3.org/1999/02/22-rdf-syntax-ns#"
   xmlns:svg="http://www.w3.org/2000/svg"
   xmlns="http://www.w3.org/2000/svg"
   xmlns:sodipodi="http://sodipodi.sourceforge.net/DTD/sodipodi-0.dtd"
   xmlns:inkscape="http://www.inkscape.org/namespaces/inkscape"
   version="1.1"
   x="0px"
   y="0px"
   viewBox="0 0 67 83.75"
   enable-background="new 0 0 67 67"
   xml:space="preserve"
   id="svg32"
   sodipodi:docname="Talisman.svg"
   inkscape:version="0.92.4 (5da689c313, 2019-01-14)"><metadata
     id="metadata38"><rdf:RDF><cc:Work
         rdf:about=""><dc:format>image/svg+xml</dc:format><dc:type
           rdf:resource="http://purl.org/dc/dcmitype/StillImage" /></cc:Work></rdf:RDF></metadata><defs
     id="defs36"><inkscape:path-effect
       effect="bspline"
       id="path-effect136"
       is_visible="true"
       weight="33.333333"
       steps="2"
       helper_size="0"
       apply_no_weight="true"
       apply_with_weight="true"
       only_selected="false" /><inkscape:path-effect
       effect="bspline"
       id="path-effect128"
       is_visible="true"
       weight="33.333333"
       steps="2"
       helper_size="0"
       apply_no_weight="true"
       apply_with_weight="true"
       only_selected="false" /><inkscape:path-effect
       effect="bspline"
       id="path-effect104"
       is_visible="true"
       weight="33.333333"
       steps="2"
       helper_size="0"
       apply_no_weight="true"
       apply_with_weight="true"
       only_selected="false" /><inkscape:path-effect
       effect="bspline"
       id="path-effect92"
       is_visible="true"
       weight="33.333333"
       steps="2"
       helper_size="0"
       apply_no_weight="true"
       apply_with_weight="true"
       only_selected="false" /><inkscape:path-effect
       effect="bspline"
       id="path-effect88"
       is_visible="true"
       weight="33.333333"
       steps="2"
       helper_size="0"
       apply_no_weight="true"
       apply_with_weight="true"
       only_selected="false" /><inkscape:path-effect
       effect="bspline"
       id="path-effect84"
       is_visible="true"
       weight="33.333333"
       steps="2"
       helper_size="0"
       apply_no_weight="true"
       apply_with_weight="true"
       only_selected="false" /><inkscape:path-effect
       effect="bspline"
       id="path-effect76"
       is_visible="true"
       weight="33.333333"
       steps="2"
       helper_size="0"
       apply_no_weight="true"
       apply_with_weight="true"
       only_selected="false" /><inkscape:path-effect
       effect="bspline"
       id="path-effect68"
       is_visible="true"
       weight="33.333333"
       steps="2"
       helper_size="0"
       apply_no_weight="true"
       apply_with_weight="true"
       only_selected="false" /><inkscape:path-effect
       effect="bspline"
       id="path-effect64"
       is_visible="true"
       weight="33.333333"
       steps="2"
       helper_size="0"
       apply_no_weight="true"
       apply_with_weight="true"
       only_selected="false" /><inkscape:path-effect
       effect="bspline"
       id="path-effect60"
       is_visible="true"
       weight="33.333333"
       steps="2"
       helper_size="0"
       apply_no_weight="true"
       apply_with_weight="true"
       only_selected="false" /><inkscape:path-effect
       effect="bspline"
       id="path-effect56"
       is_visible="true"
       weight="33.333333"
       steps="2"
       helper_size="0"
       apply_no_weight="true"
       apply_with_weight="true"
       only_selected="false" /><inkscape:path-effect
       effect="bspline"
       id="path-effect52"
       is_visible="true"
       weight="33.333333"
       steps="2"
       helper_size="0"
       apply_no_weight="true"
       apply_with_weight="true"
       only_selected="false" /><inkscape:path-effect
       effect="bspline"
       id="path-effect48"
       is_visible="true"
       weight="33.333333"
       steps="2"
       helper_size="0"
       apply_no_weight="true"
       apply_with_weight="true"
       only_selected="false" /></defs><sodipodi:namedview
     pagecolor="#ffffff"
     bordercolor="#666666"
     borderopacity="1"
     objecttolerance="10"
     gridtolerance="10"
     guidetolerance="10"
     inkscape:pageopacity="0"
     inkscape:pageshadow="2"
     inkscape:window-width="1920"
     inkscape:window-height="1017"
     id="namedview34"
     showgrid="false"
     inkscape:zoom="11.271642"
     inkscape:cx="37.920625"
     inkscape:cy="51.023007"
     inkscape:window-x="-8"
     inkscape:window-y="-8"
     inkscape:window-maximized="1"
     inkscape:current-layer="svg32" /><g
     id="g26"><path
       d="M37.2,42l0.7-1.4c0.2-0.5,0-1.1-0.5-1.3c-0.5-0.2-1.1,0-1.3,0.5l-0.7,1.4c-1.4-0.5-2.4-0.5-3.8,0c-0.5-1.1-0.9-2.4-2-1.9   c-0.5,0.2-0.7,0.8-0.5,1.3c0.2,0.5,0.5,1,0.7,1.4c-4.3,2.4-9.1,8-9.1,11.6c0,4.7,8.2,12.8,12.8,12.8s12.8-8.2,12.8-12.8   C46.3,50,41.6,44.4,37.2,42z M44.3,53.1h-6c-0.4-1.6-2.6-3.8-4.3-4.3v-6c0.5,0.1,1,0.2,1.5,0.5c0,0,0,0,0,0c0,0,0,0,0,0   C39.1,44.9,43.8,50,44.3,53.1z M33.5,57.4c-1.3,0-3.8-2.6-3.8-3.8s2.6-3.8,3.8-3.8s3.8,2.6,3.8,3.8S34.8,57.4,33.5,57.4z    M31.5,43.3C31.5,43.3,31.5,43.3,31.5,43.3C31.5,43.3,31.5,43.3,31.5,43.3c0.5-0.2,1-0.4,1.5-0.5v6c-1.6,0.4-3.8,2.6-4.3,4.3h-6   C23.2,50,27.9,44.9,31.5,43.3z M22.7,54.1h6c0.4,1.6,2.6,3.8,4.3,4.3v6C29.4,63.8,23.3,57.7,22.7,54.1z M34,64.4v-6   c1.6-0.4,3.8-2.6,4.3-4.3h6C43.7,57.7,37.6,63.8,34,64.4z"
       id="path2" /><path
       d="M26.8,3.6c1.4-0.5,2.9-0.9,4.4-1.1c0.5-0.1,0.9-0.6,0.9-1.1S31.5,0.5,31,0.6c-1.7,0.2-3.4,0.6-4.9,1.2   c-0.5,0.2-0.8,0.8-0.6,1.3C25.7,3.6,26.3,3.8,26.8,3.6z"
       id="path4" /><path
       d="M35.8,2.6c1.6,0.2,3,0.5,4.4,1.1c0.1,0,0.2,0.1,0.4,0.1c0.4,0,0.8-0.2,0.9-0.6c0.2-0.5-0.1-1.1-0.6-1.3   c-1.5-0.6-3.2-1-4.9-1.2c-0.5-0.1-1,0.3-1.1,0.9C34.8,2,35.2,2.5,35.8,2.6z"
       id="path6" /><path
       d="M46.7,9.2c0.2,0.5,0.8,0.7,1.3,0.5c0.5-0.2,0.7-0.8,0.5-1.3c-0.7-1.5-1.7-2.9-3.2-4.1C44.9,4,44.3,4,43.9,4.4   c-0.4,0.4-0.3,1.1,0.1,1.4C45.3,6.8,46.2,8,46.7,9.2z"
       id="path8" /><path
       d="M40.2,31c-0.7,1.5-1.4,3-2,4.4c-0.2,0.5,0,1.1,0.5,1.3c0.5,0.2,1.1,0,1.3-0.5c0.7-1.4,1.3-2.9,2-4.4c0.2-0.5,0-1.1-0.5-1.3   C41,30.3,40.4,30.5,40.2,31z"
       id="path10" /><path
       d="M42.6,27.9c0.5,0.2,1.1,0,1.3-0.5c0.7-1.5,1.3-3,1.9-4.4c0.2-0.5,0-1.1-0.5-1.3c-0.5-0.2-1.1,0-1.3,0.5   c-0.6,1.4-1.2,2.9-1.9,4.4C41.9,27.1,42.1,27.7,42.6,27.9z"
       id="path12" /><path
       d="M19,9.7c0.5,0.2,1.1,0,1.3-0.5c0.5-1.2,1.4-2.4,2.7-3.4c0.4-0.4,0.5-1,0.1-1.4c-0.3-0.4-1-0.5-1.4-0.1   c-1.5,1.2-2.5,2.6-3.2,4.1C18.2,8.9,18.5,9.5,19,9.7z"
       id="path14" /><path
       d="M25,31.8c0.7,1.5,1.4,3,2,4.4c0.2,0.4,0.5,0.6,0.9,0.6c0.7,0,1.2-0.8,0.9-1.4c-0.7-1.4-1.3-2.9-2-4.4   c-0.2-0.5-0.8-0.7-1.3-0.5C25,30.7,24.8,31.3,25,31.8z"
       id="path16" /><path
       d="M47.1,13.3c-0.2,1.1-0.7,2.6-1.4,4.5c-0.2,0.5,0.1,1.1,0.6,1.3c0.5,0.2,1.1-0.1,1.3-0.6c0.7-2,1.2-3.5,1.5-4.7   C49.3,12.4,47.4,12,47.1,13.3z"
       id="path18" /><path
       d="M21.3,17.8c-0.7-1.9-1.1-3.4-1.4-4.5c-0.1-0.5-0.7-0.9-1.2-0.8c-0.5,0.1-0.9,0.7-0.8,1.2c0.3,1.2,0.8,2.8,1.5,4.7   c0.1,0.4,0.5,0.7,0.9,0.7C21,19.1,21.5,18.4,21.3,17.8z"
       id="path20" /><path
       d="M21.7,21.7c-0.5,0.2-0.8,0.8-0.5,1.3c0.6,1.4,1.2,2.9,1.9,4.4c0.2,0.4,0.5,0.6,0.9,0.6c0.7,0,1.2-0.7,0.9-1.4   c-0.7-1.5-1.3-3-1.9-4.4C22.8,21.7,22.2,21.5,21.7,21.7z"
       id="path22" /><path
       d="M33.1,51.4c-0.6,0.5-1.4,1.2-1.8,1.8c-0.2,0.2-0.1,0.5,0.1,0.7c0.1,0.1,0.2,0.1,0.3,0.1c0.2,0,0.3-0.1,0.4-0.2   c0.4-0.5,1-1.2,1.6-1.6c0.2-0.2,0.3-0.5,0.1-0.7C33.6,51.3,33.3,51.2,33.1,51.4z"
       id="path24" /></g><path
     style="fill:none;stroke:#000000;stroke-width:1px;stroke-linecap:butt;stroke-linejoin:miter;stroke-opacity:1"
     d="m 28.034958,36.37447 c 0.153037,0.06121 0.300899,0.12036 0.38703,0.163684 0.08613,0.04332 0.115706,0.0729 0.130493,0.11226 0.01479,0.03936 0.01479,0.0985 0.04436,0.162649 0.02957,0.06415 0.08872,0.123291 0.118291,0.177439 0.02957,0.05415 0.02957,0.113289 0.05915,0.177436 0.02957,0.06415 0.08872,0.123289 0.118289,0.221793 0.02957,0.09851 0.02957,0.246369 0.06115,0.341088 0.03157,0.09472 0.09072,0.124292 0.11829,0.162654 0.02757,0.03836 0.02757,0.0975 0.02757,0.215793 0,0.118291 0,0.295727 0,0.414015 0,0.118289 0,0.17744 0.01978,0.212012 0.01978,0.03457 0.04937,0.03457 0.07393,0.04936 0.02457,0.01479 0.05415,0.04436 0.06893,0.06893 0.01479,0.02457 0.01479,0.05415 0.01479,0.08372 0,0.02957 0,0.05914 0,0.162648 0,0.103508 0,0.280945 0.02957,0.404236 0.02957,0.12329 0.08872,0.182436 0.182437,0.212009 0.09372,0.02957 0.212009,0.02957 0.3203,0.02957"
     id="path46"
     inkscape:connector-curvature="0"
     inkscape:path-effect="#path-effect48"
     inkscape:original-d="m 28.034958,36.37447 c 0.157863,0.04915 0.305727,0.108291 0.443591,0.177437 0.03957,0.01957 0.06914,0.04915 0.08872,0.08872 0.01,0.04915 0.01,0.108291 0,0.177436 0.06914,0.04915 0.128291,0.108291 0.177436,0.177437 0.01,0.04915 0.01,0.108291 0,0.177436 0.06915,0.04915 0.128291,0.108291 0.177437,0.177437 0.01,0.137863 0.01,0.285727 0,0.443591 0.06915,0.01957 0.128291,0.04915 0.177436,0.08872 0.01,0.04915 0.01,0.108291 0,0.177436 0.01,0.167437 0.01,0.344873 0,0.53231 0.01,0.04914 0.01,0.108291 0,0.177436 0.03957,-0.01 0.06915,-0.01 0.08872,0 0.03957,0.01957 0.06914,0.04915 0.08872,0.08872 0.01,0.01957 0.01,0.04915 0,0.08872 0.01,0.01957 0.01,0.04914 0,0.08872 0.01,0.167436 0.01,0.344873 0,0.532309 0.06914,0.04915 0.128291,0.108291 0.177436,0.177437 0.128291,-0.01 0.246582,-0.01 0.354873,0" /><path
     style="fill:none;stroke:#000000;stroke-width:1px;stroke-linecap:butt;stroke-linejoin:miter;stroke-opacity:1"
     d="m 28.034958,36.37447 c 0.02837,0.198609 0.05795,0.405618 0.07333,0.523108 0.01539,0.11749 0.01539,0.14707 0.03017,0.18164 0.01478,0.03457 0.04436,0.06415 0.05915,0.08872 0.01479,0.02457 0.01479,0.05415 0.04936,0.07394 0.03458,0.01978 0.09372,0.01978 0.132193,0.0754 0.03848,0.05562 0.06805,0.173906 0.103505,0.236581 0.03545,0.06268 0.06502,0.06268 0.07481,0.08725 0.0098,0.02457 0.0098,0.08372 0.04436,0.118289 0.03457,0.03457 0.09372,0.03457 0.118293,0.118291 0.02457,0.08372 0.02457,0.261155 0.05915,0.354873 0.03458,0.09372 0.09372,0.09372 0.118289,0.147864 0.02457,0.05414 0.02457,0.172436 0.06893,0.280942 0.04436,0.108505 0.133076,0.197221 0.197221,0.241581 0.06414,0.04436 0.09371,0.04436 0.103504,0.06893 0.0098,0.02457 0.0098,0.08372 0.06893,0.177439 0.05915,0.09372 0.177437,0.212009 0.236582,0.280939 0.05915,0.06893 0.05915,0.09851 0.08872,0.147871 0.02957,0.04936 0.08872,0.108507 0.147866,0.167656"
     id="path50"
     inkscape:connector-curvature="0"
     inkscape:path-effect="#path-effect52"
     inkscape:original-d="m 28.034958,36.37447 c 0.03957,0.197009 0.06914,0.404019 0.08872,0.621028 0.01,0.01957 0.01,0.04915 0,0.08872 0.03957,0.01957 0.06914,0.04915 0.08872,0.08872 0.01,0.01957 0.01,0.04915 0,0.08872 0.06915,-0.01 0.128291,-0.01 0.177437,0 0.03957,0.108291 0.06914,0.226582 0.08872,0.354873 0.03957,-0.01 0.06914,-0.01 0.08872,0 0.01,0.04915 0.01,0.108291 0,0.177437 0.06914,-0.01 0.128291,-0.01 0.177436,0 0.01,0.167436 0.01,0.344873 0,0.532309 0.06915,-0.01 0.128291,-0.01 0.177437,0 0.01,0.108291 0.01,0.226582 0,0.354873 0.09872,0.07872 0.187436,0.167436 0.266155,0.266155 0.03957,-0.01 0.06914,-0.01 0.08872,0 0.01,0.04914 0.01,0.108291 0,0.177436 0.128291,0.108291 0.246582,0.226582 0.354873,0.354873 0.01,0.01957 0.01,0.04915 0,0.08872 0.06915,0.04915 0.128294,0.108297 0.177441,0.177446" /><path
     style="fill:none;stroke:#000000;stroke-width:1px;stroke-linecap:butt;stroke-linejoin:miter;stroke-opacity:1"
     d="m 23.95392,27.680085 c 0,0.226582 0,0.463164 0,0.596239 0,0.133076 0,0.162656 0.01478,0.197226 0.01478,0.03457 0.04435,0.06414 0.05915,0.08872 0.01479,0.02457 0.01479,0.05414 0.01479,0.08372 0,0.02958 0,0.05916 0.03457,0.07894 0.03457,0.01979 0.09372,0.01979 0.118293,0.07393 0.02457,0.05415 0.02457,0.172437 0.05415,0.266157 0.02958,0.09372 0.08872,0.152862 0.152859,0.182435 0.06414,0.02957 0.123294,0.02957 0.147866,0.05414 0.02457,0.02457 0.02457,0.08372 0.02457,0.09851 0,0.01479 0,-0.01478 0.01379,0.01679 0.01379,0.03157 0.04336,0.120288 0.07893,0.167647 0.03557,0.04736 0.06515,0.04736 0.08872,0.07493 0.02357,0.02757 0.05315,0.08672 0.08872,0.118294 0.03557,0.03157 0.06514,0.03157 0.07493,0.07093 0.0098,0.03936 0.0098,0.128076 0.0098,0.18722 0,0.05914 0,0.08871 0.03457,0.108505 0.03457,0.01979 0.09372,0.01979 0.133078,0.03458 0.03936,0.01478 0.06893,0.04436 0.09751,0.100507 0.02857,0.05615 0.05815,0.144863 0.103504,0.221793 0.04536,0.07693 0.104508,0.136081 0.13408,0.219799 0.02957,0.08372 0.02957,0.202009 0.05915,0.295729 0.02958,0.09372 0.08872,0.152862 0.01696,0.272929 C 25.436915,31.409812 25.223723,31.600203 25,31.8"
     id="path54"
     inkscape:connector-curvature="0"
     inkscape:path-effect="#path-effect56"
     inkscape:original-d="m 23.95392,27.680085 c 0.01,0.226582 0.01,0.463164 0,0.709745 0.01,0.01957 0.01,0.04915 0,0.08872 0.03957,0.01957 0.06914,0.04914 0.08872,0.08872 0.01,0.01957 0.01,0.04914 0,0.08872 0.01,0.01957 0.01,0.04915 0,0.08872 0.06914,-0.01 0.128291,-0.01 0.177436,0 0.01,0.108291 0.01,0.226582 0,0.354873 0.06915,0.04915 0.128291,0.108291 0.177437,0.177437 0.06914,-0.01 0.128291,-0.01 0.177436,0 0.01,0.04914 0.01,0.108291 0,0.177436 0.01,-0.03957 0.01,-0.06914 0,-0.08872 0.03957,0.07872 0.06915,0.167436 0.08872,0.266155 0.03957,-0.01 0.06915,-0.01 0.08872,0 0.03957,0.04914 0.06915,0.10829 0.08872,0.177436 0.03957,-0.01 0.06914,-0.01 0.08872,0 0.01,0.07872 0.01,0.167436 0,0.266155 0.01,0.01957 0.01,0.04914 0,0.08872 0.06914,-0.01 0.128291,-0.01 0.177436,0 0.03957,0.01957 0.06915,0.04914 0.08872,0.08872 0.03957,0.07872 0.06914,0.167437 0.08872,0.266155 0.06914,0.04914 0.128291,0.108291 0.177436,0.177436 0.01,0.108291 0.01,0.226582 0,0.354873 0.06915,0.04915 0.128291,0.108291 0.177437,0.177437 C 25.436377,31.409209 25.223189,31.599605 25,31.8" /><path
     style="fill:none;stroke:#000000;stroke-width:1px;stroke-linecap:butt;stroke-linejoin:miter;stroke-opacity:1"
     d="m 23.95392,27.680085 c 0.185544,0.03093 0.362982,0.0605 0.461663,0.144695 0.09868,0.0842 0.128254,0.232058 0.14381,0.319622 0.01556,0.08756 0.01556,0.117134 0.04513,0.166499 0.02957,0.04936 0.08872,0.108506 0.118289,0.162649 0.02957,0.05414 0.02957,0.113294 0.02957,0.157651 0,0.04436 0,0.07394 0.03157,0.10951 0.03157,0.03557 0.09072,0.06514 0.11829,0.133077 0.02757,0.06793 0.02757,0.186222 0.05714,0.27994 0.02957,0.09372 0.08872,0.152864 0.118291,0.207007 0.02957,0.05414 0.02957,0.113294 0.06415,0.147866 0.03458,0.03457 0.09372,0.03457 0.118289,0.04436 0.02457,0.0098 0.02457,0.03937 0.02457,0.128081 0,0.08872 0,0.236581 0.03457,0.315513 0.03457,0.07893 0.09372,0.07893 0.118294,0.103502 0.02457,0.02457 0.02457,0.08372 0.05415,0.147868 0.02957,0.06415 0.08872,0.123289 0.118289,0.177432 0.02957,0.05414 0.02957,0.113293 0.05915,0.177438 0.02957,0.06415 0.08872,0.123292 0.118291,0.236583 0.02957,0.113291 0.02957,0.290727 0.06415,0.384445 0.03458,0.09372 0.09372,0.09372 0.142862,0.09372"
     id="path58"
     inkscape:connector-curvature="0"
     inkscape:path-effect="#path-effect60"
     inkscape:original-d="m 23.95392,27.680085 c 0.187436,0.01957 0.364873,0.04915 0.532309,0.08872 0.03957,0.137864 0.06914,0.285727 0.08872,0.443591 0.01,0.01957 0.01,0.04914 0,0.08872 0.06915,0.04915 0.128291,0.108291 0.177437,0.177437 0.01,0.04914 0.01,0.108291 0,0.177436 0.01,0.01957 0.01,0.04915 0,0.08872 0.06915,0.01957 0.12829,0.04915 0.177436,0.08872 0.01,0.108291 0.01,0.226581 0,0.354872 0.06914,0.04915 0.128291,0.108291 0.177436,0.177437 0.01,0.04914 0.01,0.108291 0,0.177436 0.06915,-0.01 0.128291,-0.01 0.177437,0 0.01,0.01957 0.01,0.04915 0,0.08872 0.01,0.137863 0.01,0.285727 0,0.443591 0.06914,-0.01 0.128291,-0.01 0.177436,0 0.01,0.04914 0.01,0.108291 0,0.177436 0.06915,0.04915 0.128291,0.108291 0.177437,0.177437 0.01,0.04914 0.01,0.10829 0,0.177436 0.06915,0.04914 0.128291,0.108291 0.177436,0.177436 0.01,0.167437 0.01,0.344873 0,0.53231 0.06915,-0.01 0.128291,-0.01 0.177437,0" /><path
     style="fill:none;stroke:#000000;stroke-width:1px;stroke-linecap:butt;stroke-linejoin:miter;stroke-opacity:1"
     d="m 20.493909,18.985699 c 0,0.197009 0,0.404018 0,0.537093 0,0.133075 0,0.192226 0.02881,0.270005 0.0288,0.07778 0.08795,0.166495 0.133074,0.226793 0.04513,0.0603 0.0747,0.08987 0.08949,0.114446 0.01479,0.02457 0.01479,0.05414 0.04359,0.117137 0.0288,0.06299 0.08795,0.151714 0.118291,0.236587 0.03034,0.08487 0.03034,0.173589 0.05992,0.252523 0.02958,0.07893 0.08872,0.138075 0.138073,0.167648 0.04936,0.02957 0.07894,0.02957 0.08872,0.113291 0.0098,0.08372 0.0098,0.261155 0.04435,0.354873 0.03457,0.09372 0.09372,0.09372 0.118293,0.103503 0.02457,0.0098 0.02457,0.03937 0.05338,0.102357 0.0288,0.06299 0.08795,0.151707 0.11829,0.221795 0.03034,0.07009 0.03034,0.129229 0.07585,0.194144 0.04551,0.06491 0.134232,0.12406 0.155755,0.06947 C 21.781319,22.012771 21.739759,21.852921 21.7,21.7"
     id="path62"
     inkscape:connector-curvature="0"
     inkscape:path-effect="#path-effect64"
     inkscape:original-d="m 20.493909,18.985699 c 0.01,0.197009 0.01,0.404018 0,0.621028 0.01,0.04914 0.01,0.108291 0,0.177436 0.06915,0.07872 0.128291,0.167437 0.177436,0.266155 0.03957,0.01957 0.06915,0.04914 0.08872,0.08872 0.01,0.01957 0.01,0.04914 0,0.08872 0.06914,0.07872 0.128291,0.167437 0.177436,0.266155 0.01,0.07872 0.01,0.167436 0,0.266154 0.06915,0.04915 0.128291,0.108291 0.177436,0.177437 0.03957,-0.01 0.06915,-0.01 0.08872,0 0.01,0.167436 0.01,0.344873 0,0.532309 0.06914,-0.01 0.128291,-0.01 0.177436,0 0.01,0.01957 0.01,0.04915 0,0.08872 0.06915,0.07872 0.128291,0.167437 0.177437,0.266155 0.01,0.04915 0.01,0.108291 0,0.177437 0.09872,0.04914 0.187436,0.108291 0.266154,0.177436 C 21.793121,22.009703 21.751561,21.849852 21.7,21.7" /><path
     style="fill:none;stroke:#000000;stroke-width:1px;stroke-linecap:butt;stroke-linejoin:miter;stroke-opacity:1"
     d="m 19,9.7 c 0.08188,0.1922447 0.165833,0.38935 0.208844,0.500116 0.04301,0.110767 0.04301,0.140347 0.01844,0.160132 -0.02457,0.01978 -0.08372,0.01978 -0.118289,0.08872 -0.03457,0.06893 -0.03457,0.216796 -0.03457,0.305513 0,0.08872 0,0.118297 -0.02457,0.138082 -0.02457,0.01978 -0.08372,0.01978 -0.118294,0.07393 -0.03457,0.05415 -0.03457,0.172437 -0.05915,0.236583 -0.02458,0.06414 -0.08372,0.06414 -0.118289,0.08872 -0.03457,0.02458 -0.03457,0.08372 -0.03457,0.23158 0,0.147863 0,0.384445 0,0.532311 0,0.147866 0,0.207007 0,0.266155 0,0.05915 0,0.118289 -0.02457,0.152861 -0.02458,0.03457 -0.08372,0.03457 -0.118289,0.07393 -0.03457,0.03936 -0.03457,0.128076 -0.03457,0.261153 0,0.133078 0,0.310515 0,0.497951"
     id="path66"
     inkscape:connector-curvature="0"
     inkscape:path-effect="#path-effect68"
     inkscape:original-d="m 19,9.7 c 0.09395,0.1871045 0.177903,0.384209 0.251854,0.591313 0.01,0.01957 0.01,0.04915 0,0.08872 -0.04915,-0.01 -0.108291,-0.01 -0.177437,0 0.01,0.137863 0.01,0.285727 0,0.443591 0.01,0.01957 0.01,0.04915 0,0.08872 -0.04914,-0.01 -0.108291,-0.01 -0.177436,0 0.01,0.108291 0.01,0.226582 0,0.354873 -0.04915,-0.01 -0.108291,-0.01 -0.177436,0 0.01,0.04915 0.01,0.108291 0,0.177436 0.01,0.226582 0.01,0.463164 0,0.709746 0.01,0.04915 0.01,0.108291 0,0.177437 0.01,0.04915 0.01,0.108291 0,0.177436 -0.04915,-0.01 -0.108291,-0.01 -0.177437,0 0.01,0.07872 0.01,0.167436 0,0.266155 0.01,0.167436 0.01,0.344873 0,0.532309" /><path
     style="fill:none;stroke:#000000;stroke-width:1px;stroke-linecap:butt;stroke-linejoin:miter;stroke-opacity:1"
     d="m 25.639566,3.1051376 c -0.02663,0.1065255 -0.05621,0.224818 -0.141394,0.2898454 -0.08519,0.065028 -0.233053,0.065028 -0.32177,0.065028 -0.08872,0 -0.118287,0 -0.138077,0.024573 -0.01979,0.024572 -0.01979,0.083718 -0.05915,0.1182912 -0.03936,0.034573 -0.128076,0.034573 -0.216795,0.034573 -0.08872,0 -0.177436,0 -0.226795,0.024573 -0.04936,0.024572 -0.04936,0.083718 -0.08872,0.1182913 -0.03936,0.034573 -0.128077,0.034573 -0.177436,0.059146 -0.04936,0.024573 -0.04936,0.083718 -0.07393,0.1182907 -0.02457,0.034573 -0.08372,0.034573 -0.142869,0.034573 -0.05915,0 -0.118288,0 -0.192221,0 -0.07393,0 -0.162649,0 -0.236583,0 -0.07393,0 -0.133075,0 -0.167648,0.024573 -0.03457,0.024572 -0.03457,0.083718 -0.08872,0.1182913 -0.05414,0.034573 -0.172436,0.034573 -0.246367,0.044358 -0.07393,0.00979 -0.103503,0.039356 -0.147862,0.059144 -0.04436,0.019788 -0.103509,0.019788 -0.138082,0.04436 -0.03457,0.024572 -0.03457,0.083718 -0.05915,0.1182912 -0.02457,0.034573 -0.08372,0.034573 -0.118289,0.059146 -0.03457,0.024573 -0.03457,0.083718 -0.05914,0.1182908 -0.02457,0.034573 -0.08372,0.034573 -0.118294,0.059145 -0.03457,0.024572 -0.03457,0.083718 -0.08872,0.1182912 -0.05415,0.034573 -0.172436,0.034573 -0.236582,0.059145 -0.06414,0.024573 -0.06414,0.083718 -0.08872,0.1182913 -0.02457,0.034573 -0.08372,0.034573 -0.118289,0.059145 -0.03457,0.024573 -0.03457,0.083718 -0.05914,0.1182912 -0.02457,0.034573 -0.08372,0.034573 -0.118294,0.044359 -0.03457,0.00979 -0.03457,0.039358 -0.03457,0.098504 0,0.059145 0,0.147864 0,0.2465822"
     id="path74"
     inkscape:connector-curvature="0"
     inkscape:path-effect="#path-effect76"
     inkscape:original-d="m 25.639566,3.1051376 c -0.01957,0.108291 -0.04915,0.2265819 -0.08872,0.3548729 -0.137863,-0.01 -0.285727,-0.01 -0.443591,0 -0.01957,-0.01 -0.04914,-0.01 -0.08872,0 0.01,0.049145 0.01,0.108291 0,0.1774364 -0.07872,-0.01 -0.167436,-0.01 -0.266154,0 -0.07872,-0.01 -0.167437,-0.01 -0.266155,0 0.01,0.049145 0.01,0.108291 0,0.1774365 -0.07872,-0.01 -0.167437,-0.01 -0.266155,0 0.01,0.049146 0.01,0.108291 0,0.1774364 -0.04914,-0.01 -0.108291,-0.01 -0.177436,0 -0.04915,-0.01 -0.108291,-0.01 -0.177437,0 -0.07872,-0.01 -0.167436,-0.01 -0.266154,0 -0.04915,-0.01 -0.108291,-0.01 -0.177437,0 0.01,0.049145 0.01,0.108291 0,0.1774365 -0.108291,-0.01 -0.226582,-0.01 -0.354873,0 -0.01957,0.019573 -0.04914,0.049145 -0.08872,0.088718 -0.04914,-0.01 -0.108291,-0.01 -0.177436,0 0.01,0.049145 0.01,0.108291 0,0.1774364 -0.04915,-0.01 -0.108291,-0.01 -0.177437,0 0.01,0.049146 0.01,0.108291 0,0.1774365 -0.04914,-0.01 -0.108291,-0.01 -0.177436,0 0.01,0.049145 0.01,0.1082909 0,0.1774364 -0.108291,-0.01 -0.226582,-0.01 -0.354873,0 0.01,0.049145 0.01,0.108291 0,0.1774365 -0.04915,-0.01 -0.108291,-0.01 -0.177437,0 0.01,0.049145 0.01,0.1082909 0,0.1774364 -0.04914,-0.01 -0.108291,-0.01 -0.177436,0 0.01,0.019573 0.01,0.049145 0,0.088718 0.01,0.078718 0.01,0.1674365 0,0.2661547" /><path
     style="fill:none;stroke:#000000;stroke-width:1px;stroke-linecap:butt;stroke-linejoin:miter;stroke-opacity:1"
     d="m 30.962659,1.5082097 c 0.307266,-0.061453 0.602993,-0.1205988 1.134533,-0.1490176 0.53154,-0.028419 1.300432,-0.028419 1.862314,-0.028419 0.561882,0 0.916755,0 1.108977,0 0.192221,0 0.221791,0 0.251366,0 0.02958,0 0.05915,0 0.06894,0.00979 0.0098,0.00979 0.0098,0.039359 0.04436,0.059145 0.03457,0.019786 0.09372,0.019786 0.01154,0.048293 C 35.362498,1.4765034 35.137162,1.5366728 34.9,1.6"
     id="path82"
     inkscape:connector-curvature="0"
     inkscape:path-effect="#path-effect84"
     inkscape:original-d="m 30.962659,1.5082097 c 0.305727,-0.069146 0.601455,-0.128291 0.887182,-0.1774365 0.778891,-0.01 1.547783,-0.01 2.306674,0 0.364873,-0.01 0.719746,-0.01 1.064619,0 0.03957,-0.01 0.06914,-0.01 0.08872,0 0.03957,-0.01 0.06914,-0.01 0.08872,0 0.01,0.019573 0.01,0.049145 0,0.088718 0.06914,-0.01 0.128291,-0.01 0.177436,0 C 35.360671,1.469661 35.135335,1.5298305 34.9,1.6" /><path
     style="fill:none;stroke:#000000;stroke-width:1px;stroke-linecap:butt;stroke-linejoin:miter;stroke-opacity:1"
     d="M 41.5,3.2 C 41.388055,3.0792697 41.276473,2.9589307 41.240649,2.8989569 c -0.03582,-0.059974 -0.0062,-0.059974 0.02332,-0.059974 0.02957,0 0.05914,0 0.11629,0.015787 0.05715,0.015787 0.145866,0.045359 0.2218,0.059145 0.07593,0.013786 0.135075,0.013786 0.159648,0.038359 0.02457,0.024573 0.02457,0.083718 0.05914,0.1182911 0.03457,0.034573 0.09372,0.034573 0.147867,0.064147 0.05415,0.029574 0.11329,0.088717 0.162648,0.11829 0.04936,0.029573 0.07893,0.029573 0.108503,0.029573 0.02957,0 0.05914,0 0.08872,0 0.02958,0 0.05916,0 0.08873,0 0.02957,0 0.05915,0 0.06893,0.024573 0.0098,0.024572 0.0098,0.083718 0.04436,0.1182911 0.03457,0.034573 0.09372,0.034573 0.147867,0.064147 0.05415,0.029574 0.11329,0.088717 0.174437,0.1340772 0.06115,0.04536 0.120289,0.07493 0.147862,0.098503 0.02757,0.023573 0.02757,0.053145 0.06214,0.072931 0.03457,0.019786 0.09372,0.019786 0.147868,0.04936 0.05415,0.029574 0.113289,0.088717 0.177432,0.1182896 0.06414,0.029573 0.123294,0.029573 0.176671,0.072779 0.05338,0.043206 0.112521,0.1319225 0.174433,0.1932208 0.06191,0.061298 0.121063,0.090873 0.178209,0.1342331 0.05715,0.04336 0.11629,0.1025034 0.174666,0.1752802 0.05837,0.072777 0.117522,0.1614977 0.167649,0.2070106 0.05013,0.045513 0.0797,0.045513 0.103273,0.073085 0.02358,0.027572 0.05315,0.086721 0.103513,0.1182926 0.05036,0.031572 0.109502,0.031572 0.165646,0.047357 0.05614,0.015785 0.115293,0.04536 0.170438,0.072933"
     id="path86"
     inkscape:connector-curvature="0"
     inkscape:path-effect="#path-effect88"
     inkscape:original-d="M 41.5,3.2 C 41.398418,3.069661 41.286836,2.949322 41.165254,2.838983 c 0.03957,-0.01 0.06915,-0.01 0.08872,0 0.03957,-0.01 0.06914,-0.01 0.08872,0 0.09872,0.019573 0.187436,0.049145 0.266154,0.088718 0.06915,-0.01 0.128291,-0.01 0.177437,0 0.01,0.049145 0.01,0.1082909 0,0.1774364 0.06914,-0.01 0.128291,-0.01 0.177436,0 0.06915,0.049145 0.128291,0.108291 0.177437,0.1774365 0.03957,-0.01 0.06914,-0.01 0.08872,0 0.03957,-0.01 0.06914,-0.01 0.08872,0 0.03957,-0.01 0.06915,-0.01 0.08872,0 0.03957,-0.01 0.06915,-0.01 0.08872,0 0.01,0.049145 0.01,0.1082909 0,0.1774364 0.06914,-0.01 0.128291,-0.01 0.177436,0 0.06915,0.049145 0.128291,0.108291 0.177436,0.1774364 0.06915,0.019573 0.128291,0.049145 0.177437,0.088718 0.01,0.019573 0.01,0.049145 0,0.088718 0.06914,-0.01 0.128291,-0.01 0.177436,0 0.06915,0.049146 0.128291,0.108291 0.177437,0.1774364 0.06914,-0.01 0.128291,-0.01 0.177436,0 0.06915,0.078718 0.128291,0.1674365 0.177437,0.2661547 0.06914,0.019573 0.128291,0.049145 0.177436,0.088718 0.06915,0.049145 0.128291,0.108291 0.177437,0.1774365 0.06914,0.078718 0.128291,0.1674364 0.177436,0.2661546 0.03957,-0.01 0.06914,-0.01 0.08872,0 0.03957,0.049145 0.06915,0.108291 0.08872,0.1774365 0.06915,-0.01 0.128291,-0.01 0.177437,0 0.06914,0.019573 0.128291,0.049145 0.177436,0.088718" /><path
     style="fill:none;stroke:#000000;stroke-width:1px;stroke-linecap:butt;stroke-linejoin:miter;stroke-opacity:1"
     d="m 47.819121,8.871822 c 0.0285,0.2279661 0.05807,0.4645476 0.07339,0.5969332 0.01532,0.1323855 0.01532,0.1619575 0.0499,0.181744 0.03457,0.019787 0.09372,0.019787 0.118288,0.1035048 0.02457,0.083718 0.02457,0.261155 0.02457,0.837824 0,0.576668 0,1.552568 0,2.538469"
     id="path90"
     inkscape:connector-curvature="0"
     inkscape:path-effect="#path-effect92"
     inkscape:original-d="m 47.819121,8.871822 c 0.03957,0.2265819 0.06914,0.4631638 0.08872,0.7097457 0.01,0.019573 0.01,0.049145 0,0.088718 0.06915,-0.01 0.128291,-0.01 0.177436,0 0.01,0.1674365 0.01,0.3448733 0,0.5323093 0.01,0.965901 0.01,1.941801 0,2.927702" /><path
     style="fill:none;stroke:#000000;stroke-width:1px;stroke-linecap:butt;stroke-linejoin:miter;stroke-opacity:1"
     d="m 46.310911,18.275953 c 0,0.167437 0,0.344873 0,0.448377 0,0.103503 0,0.133073 -0.02457,0.152863 -0.02457,0.01979 -0.08372,0.01979 -0.118294,0.02958 -0.03457,0.0098 -0.03457,0.03936 -0.03457,0.06893 0,0.02957 0,0.05915 0,0.1183 0,0.05915 0,0.147862 -0.02457,0.197221 -0.02457,0.04936 -0.08372,0.04936 -0.118289,0.103504 -0.03457,0.05415 -0.03457,0.172437 -0.05915,0.236582 -0.02457,0.06415 -0.08372,0.06415 -0.118289,0.118291 -0.03457,0.05415 -0.03457,0.172437 -0.05915,0.236582 -0.02457,0.06415 -0.08372,0.06415 -0.118289,0.118291 -0.03457,0.05415 -0.03457,0.172437 -0.05915,0.236582 -0.02458,0.06415 -0.08372,0.06415 -0.118288,0.07393 -0.03457,0.0098 -0.03457,0.03937 -0.03457,0.128082 0,0.08872 0,0.23658 -0.0098,0.315512 -0.0098,0.07893 -0.03937,0.07893 -0.06894,0.08872 -0.02957,0.0098 -0.05915,0.03936 -0.07893,0.09851 -0.01979,0.05915 -0.01979,0.147865 -0.01979,0.207009 0,0.05914 0,0.08871 -0.0098,0.108504 -0.0098,0.01979 -0.03935,0.01979 -0.05914,0.04437 -0.01979,0.02457 -0.01979,0.08372 -0.04436,0.118288 -0.02457,0.03457 -0.08372,0.03457 -0.118294,0.05915 -0.03457,0.02458 -0.03457,0.08372 -0.03457,0.142859 0,0.05914 0,0.118294 0,0.187439"
     id="path102"
     inkscape:connector-curvature="0"
     inkscape:path-effect="#path-effect104"
     inkscape:original-d="m 46.310911,18.275953 c 0.01,0.167437 0.01,0.344873 0,0.53231 0.01,0.01957 0.01,0.04914 0,0.08872 -0.04914,-0.01 -0.108291,-0.01 -0.177436,0 0.01,0.01957 0.01,0.04914 0,0.08872 0.01,0.01957 0.01,0.04915 0,0.08872 0.01,0.07872 0.01,0.167437 0,0.266155 -0.04915,-0.01 -0.108291,-0.01 -0.177437,0 0.01,0.108291 0.01,0.226582 0,0.354873 -0.04915,-0.01 -0.108291,-0.01 -0.177436,0 0.01,0.108291 0.01,0.226582 0,0.354873 -0.04915,-0.01 -0.108291,-0.01 -0.177437,0 0.01,0.108291 0.01,0.226582 0,0.354873 -0.04915,-0.01 -0.108291,-0.01 -0.177436,0 0.01,0.01957 0.01,0.04915 0,0.08872 0.01,0.137864 0.01,0.285727 0,0.443591 -0.01957,-0.01 -0.04915,-0.01 -0.08872,0 -0.01957,0.01957 -0.04915,0.04914 -0.08872,0.08872 0.01,0.07872 0.01,0.167437 0,0.266155 0.01,0.01957 0.01,0.04914 0,0.08872 -0.01957,-0.01 -0.04914,-0.01 -0.08872,0 0.01,0.04915 0.01,0.108291 0,0.177436 -0.04914,-0.01 -0.108291,-0.01 -0.177436,0 0.01,0.04915 0.01,0.108291 0,0.177437 0.01,0.04914 0.01,0.108291 0,0.177436" /><path
     style="fill:none;stroke:#000000;stroke-width:1px;stroke-linecap:butt;stroke-linejoin:miter;stroke-opacity:1"
     d="m 42.6,27.9 c 0.06236,-0.08455 0.116421,-0.157864 0.114726,-0.188889 -0.0017,-0.03103 -0.06083,-0.03103 -0.09319,9.98e-4 -0.03235,0.03202 -0.02727,0.105324 -0.08187,0.222658 -0.0546,0.117335 -0.177978,0.280611 -0.243888,0.421983 -0.06591,0.141371 -0.06591,0.259662 -0.0757,0.323808 -0.0098,0.06414 -0.03936,0.06414 -0.09851,0.06414 -0.05915,0 -0.147862,0 -0.197221,0.08372 -0.04936,0.08372 -0.04936,0.261155 -0.07393,0.354874 -0.02458,0.09372 -0.08372,0.09372 -0.118288,0.147863 -0.03457,0.05415 -0.03457,0.172437 -0.05915,0.236582 -0.02457,0.06415 -0.08372,0.06415 -0.118289,0.147864 -0.03457,0.08372 -0.03457,0.261154 -0.04436,0.354873 -0.0098,0.09372 -0.03937,0.09372 -0.05915,0.103503 -0.01978,0.0098 -0.01978,0.03936 -0.01978,0.128077 0,0.08872 0,0.236585 -0.02457,0.315517 -0.02458,0.07893 -0.08372,0.07893 -0.118288,0.118292 -0.03457,0.03936 -0.03457,0.128077 -0.03457,0.226795"
     id="path126"
     inkscape:connector-curvature="0"
     inkscape:path-effect="#path-effect128"
     inkscape:original-d="m 42.6,27.9 c 0.06406,-0.0833 0.118121,-0.15661 0.162182,-0.219915 -0.04915,-0.01 -0.108291,-0.01 -0.177436,0 0.01508,0.06331 0.02017,0.13661 0.01525,0.219915 -0.113376,0.153277 -0.236751,0.316554 -0.370127,0.48983 0.01,0.108291 0.01,0.226582 0,0.354873 -0.01957,-0.01 -0.04915,-0.01 -0.08872,0 -0.07872,-0.01 -0.167437,-0.01 -0.266155,0 0.01,0.167437 0.01,0.344873 0,0.53231 -0.04915,-0.01 -0.108291,-0.01 -0.177436,0 0.01,0.108291 0.01,0.226582 0,0.354873 -0.04915,-0.01 -0.108291,-0.01 -0.177437,0 0.01,0.167436 0.01,0.344872 0,0.532309 -0.01957,-0.01 -0.04915,-0.01 -0.08872,0 0.01,0.01957 0.01,0.04914 0,0.08872 0.01,0.137864 0.01,0.285727 0,0.443591 -0.04915,-0.01 -0.108291,-0.01 -0.177436,0 0.01,0.07872 0.01,0.167437 0,0.266155" /><path
     style="fill:none;stroke:#000000;stroke-width:1px;stroke-linecap:butt;stroke-linejoin:miter;stroke-opacity:1"
     d="m 38.947299,35.842161 c -0.11293,0.254093 -0.231221,0.520247 -0.293047,0.683931 -0.06183,0.163683 -0.06183,0.222824 -0.0864,0.281972 -0.02457,0.05915 -0.08372,0.118288 -0.118289,0.207006 -0.03457,0.08872 -0.03457,0.20701 -0.05914,0.295725 -0.02457,0.08872 -0.08372,0.147867 -0.142863,0.182439 -0.05914,0.03457 -0.118294,0.03457 -0.152867,0.103505 -0.03457,0.06893 -0.03457,0.216796 -0.05915,0.295727 -0.02457,0.07893 -0.08372,0.07893 -0.118289,0.133077 -0.03457,0.05415 -0.03457,0.172437 -0.05915,0.236582 -0.02457,0.06415 -0.08372,0.06415 -0.118288,0.118291 -0.03457,0.05415 -0.03457,0.172437 -0.05915,0.236582 -0.02457,0.06415 -0.08372,0.06415 -0.118289,0.08872 -0.03457,0.02457 -0.03457,0.08372 -0.03457,0.202007 0,0.118291 0,0.295727 -0.02458,0.389445 -0.02457,0.09372 -0.08372,0.09372 -0.118288,0.118294 -0.03457,0.02458 -0.03457,0.08372 -0.05915,0.118288 -0.02457,0.03457 -0.08372,0.03457 -0.118289,0.08872 -0.03457,0.05415 -0.03457,0.172437 -0.03457,0.246367 0,0.07393 0,0.103511 -0.02457,0.123296 -0.02457,0.01978 -0.08372,0.01978 -0.118293,0.04436 -0.03457,0.02458 -0.03457,0.08372 -0.05915,0.118289 -0.02457,0.03457 -0.08372,0.03457 -0.236197,-0.02936 C 36.582245,40.061489 36.342891,39.931704 36.1,39.8"
     id="path134"
     inkscape:connector-curvature="0"
     inkscape:path-effect="#path-effect136"
     inkscape:original-d="m 38.947299,35.842161 c -0.108291,0.256155 -0.226582,0.522309 -0.354873,0.798464 0.01,0.04915 0.01,0.108291 0,0.177436 -0.04915,0.04915 -0.108291,0.108291 -0.177437,0.177437 0.01,0.108291 0.01,0.226582 0,0.354873 -0.04914,0.04914 -0.108291,0.108291 -0.177436,0.177436 -0.04914,-0.01 -0.108291,-0.01 -0.177436,0 0.01,0.137864 0.01,0.285728 0,0.443591 -0.04915,-0.01 -0.108291,-0.01 -0.177437,0 0.01,0.108291 0.01,0.226582 0,0.354873 -0.04915,-0.01 -0.108291,-0.01 -0.177436,0 0.01,0.108291 0.01,0.226582 0,0.354873 -0.04915,-0.01 -0.108291,-0.01 -0.177437,0 0.01,0.04915 0.01,0.108291 0,0.177436 0.01,0.167437 0.01,0.344873 0,0.53231 -0.04915,-0.01 -0.108291,-0.01 -0.177436,0 0.01,0.04915 0.01,0.108291 0,0.177436 -0.04915,-0.01 -0.108291,-0.01 -0.177437,0 0.01,0.108291 0.01,0.226582 0,0.354873 0.01,0.01957 0.01,0.04915 0,0.08872 -0.04914,-0.01 -0.108291,-0.01 -0.177436,0 0.01,0.04915 0.01,0.108291 0,0.177437 -0.04915,-0.01 -0.108291,-0.01 -0.177437,0 C 36.588708,40.049569 36.349354,39.919785 36.1,39.8" /></svg>