<svg xmlns="http://www.w3.org/2000/svg" xmlns:xlink="http://www.w3.org/1999/xlink" version="1.1" x="0px" y="0px" viewBox="0 0 67 83.75" enable-background="new 0 0 67 67" xml:space="preserve"><g><path d="M37.2,42l0.7-1.4c0.2-0.5,0-1.1-0.5-1.3c-0.5-0.2-1.1,0-1.3,0.5l-0.7,1.4c-1.4-0.5-2.4-0.5-3.8,0c-0.5-1.1-0.9-2.4-2-1.9   c-0.5,0.2-0.7,0.8-0.5,1.3c0.2,0.5,0.5,1,0.7,1.4c-4.3,2.4-9.1,8-9.1,11.6c0,4.7,8.2,12.8,12.8,12.8s12.8-8.2,12.8-12.8   C46.3,50,41.6,44.4,37.2,42z M44.3,53.1h-6c-0.4-1.6-2.6-3.8-4.3-4.3v-6c0.5,0.1,1,0.2,1.5,0.5c0,0,0,0,0,0c0,0,0,0,0,0   C39.1,44.9,43.8,50,44.3,53.1z M33.5,57.4c-1.3,0-3.8-2.6-3.8-3.8s2.6-3.8,3.8-3.8s3.8,2.6,3.8,3.8S34.8,57.4,33.5,57.4z    M31.5,43.3C31.5,43.3,31.5,43.3,31.5,43.3C31.5,43.3,31.5,43.3,31.5,43.3c0.5-0.2,1-0.4,1.5-0.5v6c-1.6,0.4-3.8,2.6-4.3,4.3h-6   C23.2,50,27.9,44.9,31.5,43.3z M22.7,54.1h6c0.4,1.6,2.6,3.8,4.3,4.3v6C29.4,63.8,23.3,57.7,22.7,54.1z M34,64.4v-6   c1.6-0.4,3.8-2.6,4.3-4.3h6C43.7,57.7,37.6,63.8,34,64.4z"/><path d="M26.8,3.6c1.4-0.5,2.9-0.9,4.4-1.1c0.5-0.1,0.9-0.6,0.9-1.1S31.5,0.5,31,0.6c-1.7,0.2-3.4,0.6-4.9,1.2   c-0.5,0.2-0.8,0.8-0.6,1.3C25.7,3.6,26.3,3.8,26.8,3.6z"/><path d="M35.8,2.6c1.6,0.2,3,0.5,4.4,1.1c0.1,0,0.2,0.1,0.4,0.1c0.4,0,0.8-0.2,0.9-0.6c0.2-0.5-0.1-1.1-0.6-1.3   c-1.5-0.6-3.2-1-4.9-1.2c-0.5-0.1-1,0.3-1.1,0.9C34.8,2,35.2,2.5,35.8,2.6z"/><path d="M46.7,9.2c0.2,0.5,0.8,0.7,1.3,0.5c0.5-0.2,0.7-0.8,0.5-1.3c-0.7-1.5-1.7-2.9-3.2-4.1C44.9,4,44.3,4,43.9,4.4   c-0.4,0.4-0.3,1.1,0.1,1.4C45.3,6.8,46.2,8,46.7,9.2z"/><path d="M40.2,31c-0.7,1.5-1.4,3-2,4.4c-0.2,0.5,0,1.1,0.5,1.3c0.5,0.2,1.1,0,1.3-0.5c0.7-1.4,1.3-2.9,2-4.4c0.2-0.5,0-1.1-0.5-1.3   C41,30.3,40.4,30.5,40.2,31z"/><path d="M42.6,27.9c0.5,0.2,1.1,0,1.3-0.5c0.7-1.5,1.3-3,1.9-4.4c0.2-0.5,0-1.1-0.5-1.3c-0.5-0.2-1.1,0-1.3,0.5   c-0.6,1.4-1.2,2.9-1.9,4.4C41.9,27.1,42.1,27.7,42.6,27.9z"/><path d="M19,9.7c0.5,0.2,1.1,0,1.3-0.5c0.5-1.2,1.4-2.4,2.7-3.4c0.4-0.4,0.5-1,0.1-1.4c-0.3-0.4-1-0.5-1.4-0.1   c-1.5,1.2-2.5,2.6-3.2,4.1C18.2,8.9,18.5,9.5,19,9.7z"/><path d="M25,31.8c0.7,1.5,1.4,3,2,4.4c0.2,0.4,0.5,0.6,0.9,0.6c0.7,0,1.2-0.8,0.9-1.4c-0.7-1.4-1.3-2.9-2-4.4   c-0.2-0.5-0.8-0.7-1.3-0.5C25,30.7,24.8,31.3,25,31.8z"/><path d="M47.1,13.3c-0.2,1.1-0.7,2.6-1.4,4.5c-0.2,0.5,0.1,1.1,0.6,1.3c0.5,0.2,1.1-0.1,1.3-0.6c0.7-2,1.2-3.5,1.5-4.7   C49.3,12.4,47.4,12,47.1,13.3z"/><path d="M21.3,17.8c-0.7-1.9-1.1-3.4-1.4-4.5c-0.1-0.5-0.7-0.9-1.2-0.8c-0.5,0.1-0.9,0.7-0.8,1.2c0.3,1.2,0.8,2.8,1.5,4.7   c0.1,0.4,0.5,0.7,0.9,0.7C21,19.1,21.5,18.4,21.3,17.8z"/><path d="M21.7,21.7c-0.5,0.2-0.8,0.8-0.5,1.3c0.6,1.4,1.2,2.9,1.9,4.4c0.2,0.4,0.5,0.6,0.9,0.6c0.7,0,1.2-0.7,0.9-1.4   c-0.7-1.5-1.3-3-1.9-4.4C22.8,21.7,22.2,21.5,21.7,21.7z"/><path d="M33.1,51.4c-0.6,0.5-1.4,1.2-1.8,1.8c-0.2,0.2-0.1,0.5,0.1,0.7c0.1,0.1,0.2,0.1,0.3,0.1c0.2,0,0.3-0.1,0.4-0.2   c0.4-0.5,1-1.2,1.6-1.6c0.2-0.2,0.3-0.5,0.1-0.7C33.6,51.3,33.3,51.2,33.1,51.4z"/></g><text x="0" y="82" fill="#000000" font-size="5px" font-weight="bold" font-family="'Helvetica Neue', Helvetica, Arial-Unicode, Arial, Sans-serif">Created by ProSymbols</text><text x="0" y="87" fill="#000000" font-size="5px" font-weight="bold" font-family="'Helvetica Neue', Helvetica, Arial-Unicode, Arial, Sans-serif">from the Noun Project</text></svg>