<?xml version="1.0" encoding="UTF-8" standalone="no"?>
<svg
   xmlns:dc="http://purl.org/dc/elements/1.1/"
   xmlns:cc="http://creativecommons.org/ns#"
   xmlns:rdf="http://www.w3.org/1999/02/22-rdf-syntax-ns#"
   xmlns:svg="http://www.w3.org/2000/svg"
   xmlns="http://www.w3.org/2000/svg"
   xmlns:sodipodi="http://sodipodi.sourceforge.net/DTD/sodipodi-0.dtd"
   xmlns:inkscape="http://www.inkscape.org/namespaces/inkscape"
   version="1.1"
   x="0px"
   y="0px"
   viewBox="0 0 96 120"
   enable-background="new 0 0 96 96"
   xml:space="preserve"
   id="svg46"
   sodipodi:docname="Temple.svg"
   inkscape:version="0.92.4 (5da689c313, 2019-01-14)"><metadata
     id="metadata52"><rdf:RDF><cc:Work
         rdf:about=""><dc:format>image/svg+xml</dc:format><dc:type
           rdf:resource="http://purl.org/dc/dcmitype/StillImage" /></cc:Work></rdf:RDF></metadata><defs
     id="defs50" /><sodipodi:namedview
     pagecolor="#ffffff"
     bordercolor="#666666"
     borderopacity="1"
     objecttolerance="10"
     gridtolerance="10"
     guidetolerance="10"
     inkscape:pageopacity="0"
     inkscape:pageshadow="2"
     inkscape:window-width="640"
     inkscape:window-height="480"
     id="namedview48"
     showgrid="false"
     inkscape:zoom="1.9666667"
     inkscape:cx="48"
     inkscape:cy="60"
     inkscape:window-x="0"
     inkscape:window-y="0"
     inkscape:window-maximized="0"
     inkscape:current-layer="svg46" /><g
     id="g40"><rect
       x="38.2446"
       y="12.5625"
       width="2.6802"
       height="2"
       id="rect2" /><rect
       x="42.4541"
       y="12.5625"
       width="2.6802"
       height="2"
       id="rect4" /><rect
       x="46.6636"
       y="12.5625"
       width="2.6797"
       height="2"
       id="rect6" /><rect
       x="50.8726"
       y="12.5625"
       width="2.6802"
       height="2"
       id="rect8" /><rect
       x="55.082"
       y="12.5625"
       width="2.6802"
       height="2"
       id="rect10" /><rect
       x="38.2446"
       y="16.0952"
       width="2.6802"
       height="2"
       id="rect12" /><rect
       x="42.4541"
       y="16.0952"
       width="2.6802"
       height="2"
       id="rect14" /><rect
       x="46.6636"
       y="16.0952"
       width="2.6797"
       height="2"
       id="rect16" /><rect
       x="50.8726"
       y="16.0952"
       width="2.6802"
       height="2"
       id="rect18" /><rect
       x="55.082"
       y="16.0952"
       width="2.6802"
       height="2"
       id="rect20" /><rect
       x="53.0781"
       y="5.4649"
       width="2.415"
       height="2"
       id="rect22" /><rect
       x="39.9014"
       y="5.4649"
       width="11.5117"
       height="2"
       id="rect24" /><path
       d="M95,94.2193v-2h-2.4041l-7.0212-12.9751h-2.2938l-5.5236-12.9751H75.489l-4.2692-12.9756h-1.4751l-3.3516-12.9751h-1.2562   l-2.6027-12.9756H61.251v-15.894h3.1025l-5.3901-9.668H37.043l-5.3892,9.668h3.1021v15.894h-1.2808l-2.6027,12.9756h-1.2659   l-3.3422,12.9751h-1.4839L20.511,66.2691H18.252l-5.5236,12.9751h-2.3026L3.4041,92.2193H1v2   C17.3258,94.2193,68.9569,94.2193,95,94.2193z M49.8066,27.3433h-3.6064v-4.4839c0-0.9941,0.8091-1.8032,1.8032-1.8032   s1.8032,0.8091,1.8032,1.8032V27.3433z M56.2588,29.3433v2.9609H39.7505v-2.9609C50.578,29.3433,46.6269,29.3433,56.2588,29.3433z    M39.7505,84.7911h16.5083v2.5898H39.7505V84.7911z M39.7505,71.022h16.5083v2.5898H39.7505V71.022z M39.7505,75.6119h16.5083   v2.5894H39.7505V75.6119z M39.7505,57.253h16.5083v2.5898H39.7505V57.253z M39.7505,61.8428h16.5083v2.5894H39.7505V61.8428z    M39.7505,43.4839h16.5083v2.5894H39.7505V43.4839z M39.7505,48.0733h16.5083v2.5898H39.7505V48.0733z M39.7505,34.3042h16.5083   v2.5898H39.7505V34.3042z M39.7505,38.8941h16.5083c0,0.2624,0,2.7186,0,2.5898H39.7505   C39.7505,41.3604,39.7505,38.7461,39.7505,38.8941z M39.7505,52.6631h16.5083c0,0.1613,0,2.7069,0,2.5898H39.7505   C39.7505,54.8735,39.7505,52.5226,39.7505,52.6631z M39.7505,66.4322h16.5083c0,0.1918,0,2.7281,0,2.5898H39.7505   C39.7505,68.7156,39.7505,66.3212,39.7505,66.4322z M39.7505,80.2012h16.5083c0,0.1872,0,2.7331,0,2.5898H39.7505   C39.7505,82.6315,39.7505,80.0505,39.7505,80.2012z M39.7505,92.2193v-2.8384h16.5083v2.8384H39.7505z M62.4224,92.2193v-4.2319   c0-0.833,0.6777-1.5107,1.5107-1.5107s1.5107,0.6777,1.5107,1.5107v4.2319H62.4224z M71.4326,92.2193v-4.2319   c0-0.833,0.6777-1.5107,1.5107-1.5107s1.5107,0.6777,1.5107,1.5107v4.2319H71.4326z M80.4429,92.2193v-4.2319   c0-0.833,0.6777-1.5107,1.5107-1.5107s1.5107,0.6777,1.5107,1.5107v4.2319H80.4429z M84.3833,81.2442l5.9385,10.9751h-4.8574   v-4.2319c0-1.936-1.5747-3.5107-3.5107-3.5107s-3.5107,1.5747-3.5107,3.5107v4.2319h-1.9888v-4.2319   c0-1.936-1.5747-3.5107-3.5107-3.5107s-3.5107,1.5747-3.5107,3.5107v4.2319h-1.9888v-4.2319c0-1.936-1.5747-3.5107-3.5107-3.5107   s-3.5107,1.5747-3.5107,3.5107v4.2319h-2.1636V81.2442C62.9667,81.2442,85.8775,81.2442,84.3833,81.2442z M65.4438,79.2442h-3.0215   v-4.6475c0-0.833,0.6777-1.5107,1.5107-1.5107s1.5107,0.6777,1.5107,1.5107V79.2442z M75.0156,79.2442h-3.0215v-4.6475   c0-0.833,0.6777-1.5107,1.5107-1.5107s1.5107,0.6777,1.5107,1.5107V79.2442z M76.4351,68.2691l4.6719,10.9751h-4.0913v-4.6475   c0-1.936-1.5747-3.5107-3.5107-3.5107s-3.5107,1.5747-3.5107,3.5107v4.6475h-2.5503v-4.6475c0-1.936-1.5747-3.5107-3.5107-3.5107   s-3.5107,1.5747-3.5107,3.5107v4.6475h-2.1636V68.2691C64.584,68.2691,70.2276,68.2691,76.4351,68.2691z M66.2861,66.2691h-3.0215   v-4.6475c0-0.833,0.6777-1.5107,1.5107-1.5107s1.5107,0.6777,1.5107,1.5107V66.2691z M73.3833,66.2691h-5.0972v-4.6475   c0-1.936-1.5747-3.5107-3.5107-3.5107s-3.5107,1.5747-3.5107,3.5107v4.6475h-3.0059V55.2935c0.2623,0,12.1924,0,11.5137,0   L73.3833,66.2691z M63.373,53.2935h-1.585v-4.1753c0-0.437,0.3555-0.7925,0.7925-0.7925s0.7925,0.3555,0.7925,0.7925V53.2935z    M67.6792,53.2935H65.373v-4.1753c0-1.5396-1.2529-2.7925-2.7925-2.7925s-2.7925,1.2529-2.7925,2.7925v4.1753h-1.5293V42.3184   h6.5854L67.6792,53.2935z M63.0967,40.3184h-4.8379V29.3433h2.6368L63.0967,40.3184z M38.2178,3.7808h19.5708l3.1597,5.668H35.0581   L38.2178,3.7808z M36.7559,11.4488H59.251v15.894c-0.213,0-7.9346,0.0005-7.4443,0.0005v-4.4839   c0-2.0972-1.7061-3.8032-3.8032-3.8032s-3.8032,1.7061-3.8032,3.8032v4.4839c-0.1,0-7.8927-0.0005-7.4443-0.0005V11.4488z    M35.1136,29.3433h2.6368v10.9751h-4.8379L35.1136,29.3433z M31.1563,42.3184h6.5942v10.9751h-1.5v-4.1753   c0-1.5396-1.2529-2.7925-2.7925-2.7925s-2.7925,1.2529-2.7925,2.7925v4.1753h-2.3364L31.1563,42.3184z M34.2505,53.2935h-1.585   v-4.1753c0-0.437,0.3555-0.7925,0.7925-0.7925s0.7925,0.3555,0.7925,0.7925V53.2935z M26.2275,55.2935   c0.2207,0,12.2521,0,11.5229,0v10.9756h-2.7476v-4.6475c0-1.936-1.5747-3.5107-3.5107-3.5107s-3.5107,1.5747-3.5107,3.5107v4.6475   h-5.3647L26.2275,55.2935z M33.0029,66.2691h-3.0215v-4.6475c0-0.833,0.6777-1.5107,1.5107-1.5107s1.5107,0.6777,1.5107,1.5107   V66.2691z M19.5742,68.2691c0.4159,0,19.1128,0,18.1763,0v10.9751h-2.186v-4.6475c0-1.936-1.5747-3.5107-3.5107-3.5107   s-3.5107,1.5747-3.5107,3.5107v4.6475h-2.5503v-4.6475c0-1.936-1.5747-3.5107-3.5107-3.5107s-3.5107,1.5747-3.5107,3.5107v4.6475   h-4.0688L19.5742,68.2691z M33.5645,79.2442H30.543v-4.6475c0-0.833,0.6777-1.5107,1.5107-1.5107s1.5107,0.6777,1.5107,1.5107   V79.2442z M23.9927,79.2442h-3.0215v-4.6475c0-0.833,0.6777-1.5107,1.5107-1.5107s1.5107,0.6777,1.5107,1.5107V79.2442z    M12.5396,92.2193v-4.2319c0-0.833,0.6777-1.5107,1.5107-1.5107s1.5107,0.6777,1.5107,1.5107v4.2319H12.5396z M21.5498,92.2193   v-4.2319c0-0.833,0.6777-1.5107,1.5107-1.5107s1.5107,0.6777,1.5107,1.5107v4.2319H21.5498z M26.5713,92.2193v-4.2319   c0-1.936-1.5747-3.5107-3.5107-3.5107s-3.5107,1.5747-3.5107,3.5107v4.2319H17.561v-4.2319c0-1.936-1.5747-3.5107-3.5107-3.5107   s-3.5107,1.5747-3.5107,3.5107v4.2319H5.6782l5.939-10.9751c1.4758,0,26.7225,0,26.1333,0v10.9751h-2.1689v-4.2319   c0-1.936-1.5747-3.5107-3.5107-3.5107s-3.5107,1.5747-3.5107,3.5107v4.2319H26.5713z M30.5601,92.2193v-4.2319   c0-0.833,0.6777-1.5107,1.5107-1.5107s1.5107,0.6777,1.5107,1.5107v4.2319H30.5601z"
       id="path26" /><path
       d="M84.6426,33.9673c-1.2168-1.9214-3.396-3.1504-5.8335-3.0376l0.0957,1.998c2.4985-0.124,4.6211,1.812,4.7412,4.3062   l1.998-0.0005c0.1212-2.5406,2.2905-4.4281,4.7407-4.3057l0.0957-1.998C88.028,30.8127,85.8511,32.056,84.6426,33.9673z"
       id="path28" /><path
       d="M75.9199,17.9746c-0.9307-1.2046-2.4087-1.9409-4.0493-1.874l0.0957,1.9981c1.5654-0.0855,2.8799,1.1294,2.9546,2.6841   h1.998c0.0742-1.5547,1.396-2.772,2.9546-2.6841l0.0957-1.9981C78.334,16.0342,76.8511,16.7701,75.9199,17.9746z"
       id="path30" /><path
       d="M9.436,46.2574c0.7578-0.0444,1.4756,0.2227,2.0337,0.73c0.5576,0.5068,0.8848,1.2007,0.9209,1.9536l1.998,0.0005   c0.0742-1.5547,1.3896-2.7637,2.9551-2.6841l0.0957-1.998c-1.6318-0.0693-3.1182,0.6694-4.0493,1.874   c-0.9316-1.2046-2.415-1.9482-4.0498-1.874L9.436,46.2574z"
       id="path32" /><path
       d="M83.9233,4.5054c-0.9321-1.2046-2.4146-1.9521-4.0498-1.874l0.0957,1.998c1.5163-0.0866,2.8785,1.0975,2.9546,2.6836   l1.998,0.0005c0.0742-1.5547,1.3892-2.7798,2.9551-2.6841l0.0957-1.998C86.3403,2.5601,84.8545,3.3013,83.9233,4.5054z"
       id="path34" /><path
       d="M17.4531,27.7163c2.4991-0.1209,4.622,1.8053,4.7412,4.3062h1.998c0.1199-2.5134,2.2564-4.4264,4.7412-4.3062l0.0957-1.998   c-2.4576-0.1179-4.6299,1.1294-5.8384,3.0376c-1.2168-1.9214-3.4004-3.146-5.8335-3.0376L17.4531,27.7163z"
       id="path36" /><path
       d="M14.4688,12.7632c-0.9316-1.2046-2.4087-1.9409-4.0498-1.874l0.0957,1.998c1.5537-0.0874,2.8804,1.1294,2.9551,2.6841   l1.998-0.0005c0.0759-1.5823,1.4352-2.7732,2.9546-2.6836l0.0957-1.998C16.8828,10.8228,15.3999,11.5586,14.4688,12.7632z"
       id="path38" /></g></svg>