<?xml version="1.0" encoding="UTF-8" standalone="no"?>
<svg
   xmlns:dc="http://purl.org/dc/elements/1.1/"
   xmlns:cc="http://creativecommons.org/ns#"
   xmlns:rdf="http://www.w3.org/1999/02/22-rdf-syntax-ns#"
   xmlns:svg="http://www.w3.org/2000/svg"
   xmlns="http://www.w3.org/2000/svg"
   xmlns:sodipodi="http://sodipodi.sourceforge.net/DTD/sodipodi-0.dtd"
   xmlns:inkscape="http://www.inkscape.org/namespaces/inkscape"
   version="1.1"
   x="0px"
   y="0px"
   viewBox="0 0 49 61.25"
   enable-background="new 0 0 49 49"
   xml:space="preserve"
   id="svg8"
   sodipodi:docname="Tent.svg"
   inkscape:version="0.92.2 (5c3e80d, 2017-08-06)"><metadata
     id="metadata14"><rdf:RDF><cc:Work
         rdf:about=""><dc:format>image/svg+xml</dc:format><dc:type
           rdf:resource="http://purl.org/dc/dcmitype/StillImage" /></cc:Work></rdf:RDF></metadata><defs
     id="defs12" /><sodipodi:namedview
     pagecolor="#ffffff"
     bordercolor="#666666"
     borderopacity="1"
     objecttolerance="10"
     gridtolerance="10"
     guidetolerance="10"
     inkscape:pageopacity="0"
     inkscape:pageshadow="2"
     inkscape:window-width="1920"
     inkscape:window-height="1017"
     id="namedview10"
     showgrid="false"
     inkscape:zoom="5.4490515"
     inkscape:cx="-34.880824"
     inkscape:cy="29.592463"
     inkscape:window-x="-8"
     inkscape:window-y="-8"
     inkscape:window-maximized="1"
     inkscape:current-layer="svg8" /><path
     d="M48.2,37.2C36.8,25.9,34.8,11.1,34.8,11c-0.1-0.5-0.5-0.9-1-0.9H15.2c-0.5,0-0.9,0.4-1,0.9c0,0.1-2,14.9-13.4,26.3  c-0.4,0.4-0.4,1,0,1.4c0.4,0.4,1,0.4,1.4,0c1.3-1.3,2.5-2.6,3.6-4v3.3c0,0.6,0.4,1,1,1h35.4c0.6,0,1-0.4,1-1v-3.3  c1.1,1.3,2.3,2.7,3.6,4c0.2,0.2,0.4,0.3,0.7,0.3c0.3,0,0.5-0.1,0.7-0.3C48.6,38.2,48.6,37.6,48.2,37.2z M7.8,31.9  c3.6-5.2,5.7-10.3,6.9-14.2v19.2H7.8V31.9z M16.7,36.9V18.8c1.4,3.7,3.5,8.6,6.8,13.2v4.9H16.7z M41.2,36.9H25.5v-4.2h15.7V36.9z   M25,30.7c-5.6-7.9-7.8-16.6-8.3-18.6h16.2c0.4,2.6,2.2,10.5,7.4,18.6H25z"
     id="path2"
     style="fill:#c87137" /><path
     style="fill:#deaa87;fill-opacity:1;stroke:none;stroke-width:0.18351817;stroke-opacity:1"
     d="M 23.916354,28.927503 C 22.60939,26.898445 21.110177,24.076996 20.003682,21.564037 19.245131,19.841293 17.206043,14.01086 16.906894,12.709285 l -0.115992,-0.504675 8.032417,1.02e-4 8.032416,1.03e-4 0.328867,1.65796 c 0.946178,4.770099 3.953897,12.102229 6.656395,16.226762 l 0.305919,0.466891 -7.591231,-8.75e-4 -7.591231,-8.78e-4 z"
     id="path823"
     inkscape:connector-curvature="0" /><path
     style="fill:#deaa87;fill-opacity:1;stroke:none;stroke-width:0.18351817;stroke-opacity:1"
     d="m 25.606767,34.777346 v -2.0187 h 7.799523 7.799522 v 2.0187 2.0187 H 33.40629 25.606767 Z"
     id="path825"
     inkscape:connector-curvature="0" /><path
     style="fill:#ffff00;fill-opacity:1;stroke:none;stroke-width:0.18351817;stroke-opacity:1"
     d="M 7.805504,34.420741 V 32.045436 L 8.9198233,30.337462 C 10.283464,28.24734 12.868771,23.071568 13.852171,20.462928 l 0.726414,-1.926941 0.0085,9.13003 0.0085,9.130029 H 11.20059 7.805504 Z"
     id="path831"
     inkscape:connector-curvature="0" /><path
     style="fill:#ffff00;fill-opacity:1;stroke:none;stroke-width:0.18351817;stroke-opacity:1"
     d="m 16.797895,28.140105 c 0,-4.760767 0.02945,-8.621531 0.06544,-8.579475 0.03599,0.04206 0.588117,1.303396 1.226943,2.802976 1.23322,2.894861 2.7013,5.66325 4.323683,8.153257 l 0.990588,1.52034 v 2.379422 2.379421 h -3.303327 -3.303327 z"
     id="path833"
     inkscape:connector-curvature="0" /></svg>