<?xml version="1.0" encoding="UTF-8" standalone="no"?>
<svg
   xmlns:dc="http://purl.org/dc/elements/1.1/"
   xmlns:cc="http://creativecommons.org/ns#"
   xmlns:rdf="http://www.w3.org/1999/02/22-rdf-syntax-ns#"
   xmlns:svg="http://www.w3.org/2000/svg"
   xmlns="http://www.w3.org/2000/svg"
   xmlns:sodipodi="http://sodipodi.sourceforge.net/DTD/sodipodi-0.dtd"
   xmlns:inkscape="http://www.inkscape.org/namespaces/inkscape"
   version="1.1"
   x="0px"
   y="0px"
   viewBox="0 0 49 61.25"
   enable-background="new 0 0 49 49"
   xml:space="preserve"
   id="svg8"
   sodipodi:docname="Tent.svg"
   inkscape:version="0.92.4 (5da689c313, 2019-01-14)"><metadata
     id="metadata14"><rdf:RDF><cc:Work
         rdf:about=""><dc:format>image/svg+xml</dc:format><dc:type
           rdf:resource="http://purl.org/dc/dcmitype/StillImage" /></cc:Work></rdf:RDF></metadata><defs
     id="defs12" /><sodipodi:namedview
     pagecolor="#ffffff"
     bordercolor="#666666"
     borderopacity="1"
     objecttolerance="10"
     gridtolerance="10"
     guidetolerance="10"
     inkscape:pageopacity="0"
     inkscape:pageshadow="2"
     inkscape:window-width="640"
     inkscape:window-height="480"
     id="namedview10"
     showgrid="false"
     inkscape:zoom="3.8530612"
     inkscape:cx="24.5"
     inkscape:cy="30.625"
     inkscape:window-x="0"
     inkscape:window-y="0"
     inkscape:window-maximized="0"
     inkscape:current-layer="svg8" /><path
     d="M48.2,37.2C36.8,25.9,34.8,11.1,34.8,11c-0.1-0.5-0.5-0.9-1-0.9H15.2c-0.5,0-0.9,0.4-1,0.9c0,0.1-2,14.9-13.4,26.3  c-0.4,0.4-0.4,1,0,1.4c0.4,0.4,1,0.4,1.4,0c1.3-1.3,2.5-2.6,3.6-4v3.3c0,0.6,0.4,1,1,1h35.4c0.6,0,1-0.4,1-1v-3.3  c1.1,1.3,2.3,2.7,3.6,4c0.2,0.2,0.4,0.3,0.7,0.3c0.3,0,0.5-0.1,0.7-0.3C48.6,38.2,48.6,37.6,48.2,37.2z M7.8,31.9  c3.6-5.2,5.7-10.3,6.9-14.2v19.2H7.8V31.9z M16.7,36.9V18.8c1.4,3.7,3.5,8.6,6.8,13.2v4.9H16.7z M41.2,36.9H25.5v-4.2h15.7V36.9z   M25,30.7c-5.6-7.9-7.8-16.6-8.3-18.6h16.2c0.4,2.6,2.2,10.5,7.4,18.6H25z"
     id="path2" /></svg>