<?xml version="1.0" encoding="UTF-8" standalone="no"?>
<svg
   xmlns:dc="http://purl.org/dc/elements/1.1/"
   xmlns:cc="http://creativecommons.org/ns#"
   xmlns:rdf="http://www.w3.org/1999/02/22-rdf-syntax-ns#"
   xmlns:svg="http://www.w3.org/2000/svg"
   xmlns="http://www.w3.org/2000/svg"
   xmlns:sodipodi="http://sodipodi.sourceforge.net/DTD/sodipodi-0.dtd"
   xmlns:inkscape="http://www.inkscape.org/namespaces/inkscape"
   viewBox="0 0 64 80"
   x="0px"
   y="0px"
   version="1.1"
   id="svg12"
   sodipodi:docname="Torch.svg"
   inkscape:version="0.92.4 (5da689c313, 2019-01-14)">
  <metadata
     id="metadata18">
    <rdf:RDF>
      <cc:Work
         rdf:about="">
        <dc:format>image/svg+xml</dc:format>
        <dc:type
           rdf:resource="http://purl.org/dc/dcmitype/StillImage" />
      </cc:Work>
    </rdf:RDF>
  </metadata>
  <defs
     id="defs16" />
  <sodipodi:namedview
     pagecolor="#ffffff"
     bordercolor="#666666"
     borderopacity="1"
     objecttolerance="10"
     gridtolerance="10"
     guidetolerance="10"
     inkscape:pageopacity="0"
     inkscape:pageshadow="2"
     inkscape:window-width="640"
     inkscape:window-height="480"
     id="namedview14"
     showgrid="false"
     inkscape:zoom="2.95"
     inkscape:cx="32"
     inkscape:cy="40"
     inkscape:window-x="0"
     inkscape:window-y="0"
     inkscape:window-maximized="0"
     inkscape:current-layer="svg12" />
  <title
     id="title2">torch, play, sport, game,</title>
  <g
     id="g6">
    <path
       data-name="torch, play, sport, game,"
       d="M42,27H39.93a16,16,0,0,0,.92-16.53,1,1,0,0,0-1.09-.41A1,1,0,0,0,39,11a13.73,13.73,0,0,1-2.71,4.3c-.09.09-.17.19-.26.29a7.89,7.89,0,0,0-1.2-3.13C33.09,9.83,34,5.24,34,5.2a1,1,0,0,0-.29-.92A1,1,0,0,0,32.76,4c-3.67.92-4,7.08-3.87,10.27A13.35,13.35,0,0,1,27,8.86a1,1,0,0,0-.67-.81,1,1,0,0,0-1,.24c-2.15,2.15-1.44,6.06-.51,8.89a21.48,21.48,0,0,1-1.92-2.69,1,1,0,0,0-1.72,0C18.66,18.62,22,24.24,24,27H22a1,1,0,0,0-1,1v4a1,1,0,0,0,1,1h3.14L29,59.15A1,1,0,0,0,30,60h4a1,1,0,0,0,1-.85L38.86,33H42a1,1,0,0,0,1-1V28A1,1,0,0,0,42,27ZM22.29,17.26C23.5,18.94,25.33,21,27,21a1,1,0,0,0,.89-1.45,20.77,20.77,0,0,1-2-6.73c.73,2.07,2,4.18,4.09,4.18a1,1,0,0,0,.74-.33A1,1,0,0,0,31,15.9c-.22-2.17-.2-6.13.75-8.35a10.68,10.68,0,0,0,1.42,6A7.66,7.66,0,0,1,34,18.78a1,1,0,0,0,.65,1.16,1,1,0,0,0,1.22-.49,12.77,12.77,0,0,1,1.82-2.74A19.74,19.74,0,0,0,40,13.52C41,16.21,41.69,21.34,37.49,27h-11C24.83,25,21.93,20.63,22.29,17.26ZM33.14,58H30.86l-3.7-25h9.68ZM41,31H23V29H41Z"
       id="path4" />
  </g>
</svg>
