<?xml version="1.0" encoding="UTF-8" standalone="no"?>
<svg
   xmlns:dc="http://purl.org/dc/elements/1.1/"
   xmlns:cc="http://creativecommons.org/ns#"
   xmlns:rdf="http://www.w3.org/1999/02/22-rdf-syntax-ns#"
   xmlns:svg="http://www.w3.org/2000/svg"
   xmlns="http://www.w3.org/2000/svg"
   xmlns:sodipodi="http://sodipodi.sourceforge.net/DTD/sodipodi-0.dtd"
   xmlns:inkscape="http://www.inkscape.org/namespaces/inkscape"
   viewBox="0 0 64 80"
   x="0px"
   y="0px"
   version="1.1"
   id="svg12"
   sodipodi:docname="Torch.svg"
   inkscape:version="0.92.2 (5c3e80d, 2017-08-06)">
  <metadata
     id="metadata18">
    <rdf:RDF>
      <cc:Work
         rdf:about="">
        <dc:format>image/svg+xml</dc:format>
        <dc:type
           rdf:resource="http://purl.org/dc/dcmitype/StillImage" />
      </cc:Work>
    </rdf:RDF>
  </metadata>
  <defs
     id="defs16" />
  <sodipodi:namedview
     pagecolor="#ffffff"
     bordercolor="#666666"
     borderopacity="1"
     objecttolerance="10"
     gridtolerance="10"
     guidetolerance="10"
     inkscape:pageopacity="0"
     inkscape:pageshadow="2"
     inkscape:window-width="1920"
     inkscape:window-height="1017"
     id="namedview14"
     showgrid="false"
     inkscape:zoom="11.8"
     inkscape:cx="13.91459"
     inkscape:cy="45.544323"
     inkscape:window-x="-8"
     inkscape:window-y="-8"
     inkscape:window-maximized="1"
     inkscape:current-layer="svg12" />
  <title
     id="title2">torch, play, sport, game,</title>
  <g
     id="g6"
     style="fill:#aa4400">
    <path
       data-name="torch, play, sport, game,"
       d="M42,27H39.93a16,16,0,0,0,.92-16.53,1,1,0,0,0-1.09-.41A1,1,0,0,0,39,11a13.73,13.73,0,0,1-2.71,4.3c-.09.09-.17.19-.26.29a7.89,7.89,0,0,0-1.2-3.13C33.09,9.83,34,5.24,34,5.2a1,1,0,0,0-.29-.92A1,1,0,0,0,32.76,4c-3.67.92-4,7.08-3.87,10.27A13.35,13.35,0,0,1,27,8.86a1,1,0,0,0-.67-.81,1,1,0,0,0-1,.24c-2.15,2.15-1.44,6.06-.51,8.89a21.48,21.48,0,0,1-1.92-2.69,1,1,0,0,0-1.72,0C18.66,18.62,22,24.24,24,27H22a1,1,0,0,0-1,1v4a1,1,0,0,0,1,1h3.14L29,59.15A1,1,0,0,0,30,60h4a1,1,0,0,0,1-.85L38.86,33H42a1,1,0,0,0,1-1V28A1,1,0,0,0,42,27ZM22.29,17.26C23.5,18.94,25.33,21,27,21a1,1,0,0,0,.89-1.45,20.77,20.77,0,0,1-2-6.73c.73,2.07,2,4.18,4.09,4.18a1,1,0,0,0,.74-.33A1,1,0,0,0,31,15.9c-.22-2.17-.2-6.13.75-8.35a10.68,10.68,0,0,0,1.42,6A7.66,7.66,0,0,1,34,18.78a1,1,0,0,0,.65,1.16,1,1,0,0,0,1.22-.49,12.77,12.77,0,0,1,1.82-2.74A19.74,19.74,0,0,0,40,13.52C41,16.21,41.69,21.34,37.49,27h-11C24.83,25,21.93,20.63,22.29,17.26ZM33.14,58H30.86l-3.7-25h9.68ZM41,31H23V29H41Z"
       id="path4"
       style="fill:#aa4400" />
  </g>
  <path
     style="fill:#aa4400;fill-opacity:1;stroke:none;stroke-width:0.08474576;stroke-opacity:1"
     d="M 30.876328,57.824321 C 30.85821,57.766058 30.038573,52.245931 29.054914,45.557372 28.071254,38.868813 27.247566,33.31055 27.224495,33.205677 l -0.04195,-0.190678 h 4.78975 c 4.200856,0 4.789751,0.01563 4.789751,0.127107 0,0.122886 -3.513194,23.956029 -3.613369,24.512724 l -0.04956,0.275423 h -1.094923 c -0.801872,0 -1.10374,-0.02835 -1.127866,-0.105932 z"
     id="path814"
     inkscape:connector-curvature="0" />
  <path
     style="fill:#aa4400;fill-opacity:1;stroke:none;stroke-width:0.08474576;stroke-opacity:1"
     d="m 23.033234,30.006524 v -0.974576 h 8.983051 8.983051 v 0.974576 0.974577 h -8.983051 -8.983051 z"
     id="path816"
     inkscape:connector-curvature="0" />
  <path
     style="fill:#ff0000;fill-opacity:1;stroke:none;stroke-width:0.08474576;stroke-opacity:1"
     d="m 26.019471,26.339413 c -1.603286,-2.072522 -2.939467,-4.621095 -3.446822,-6.574319 -0.185447,-0.713938 -0.380894,-2.343315 -0.281085,-2.343315 0.0236,0 0.330779,0.352754 0.682625,0.783898 1.368734,1.677212 2.5535,2.577912 3.660004,2.78246 0.573097,0.105943 0.980857,-0.04251 1.227377,-0.446852 0.251026,-0.411733 0.214989,-0.676704 -0.22135,-1.627512 -0.533111,-1.161682 -1.167919,-3.118072 -1.427101,-4.398128 -0.117581,-0.580712 -0.213174,-1.089184 -0.21243,-1.129938 7.44e-4,-0.04075 0.19056,0.307258 0.421813,0.77336 0.929813,1.874085 2.111551,2.838983 3.476981,2.838983 0.437126,0 0.540661,-0.0328 0.780719,-0.247354 l 0.276761,-0.247353 0.0035,-2.612816 c 0.0038,-2.794304 0.06444,-3.486701 0.444311,-5.0704432 l 0.223594,-0.9322034 0.0678,0.8050847 c 0.15657,1.8592219 0.462651,2.9200919 1.381165,4.7870999 0.92842,1.887143 1.146197,2.962359 0.964421,4.761573 -0.117505,1.163065 -0.07462,1.316781 0.457925,1.641497 0.583991,0.356082 1.114322,0.09473 1.59604,-0.786551 0.456881,-0.83584 1.008037,-1.638082 1.6164,-2.352771 0.746561,-0.877041 1.320023,-1.637099 1.811244,-2.400597 0.229144,-0.356156 0.44105,-0.648163 0.470902,-0.648904 0.07381,-0.0018 0.393069,1.200906 0.533342,2.009245 0.270456,1.55853 0.239895,3.224499 -0.08904,4.853815 -0.34657,1.716668 -1.304049,3.944545 -2.385597,5.550847 l -0.570606,0.847458 -5.476224,0.0218 -5.476225,0.0218 z"
     id="path818"
     inkscape:connector-curvature="0" />
</svg>
