<?xml version="1.0" encoding="UTF-8" standalone="no"?>
<svg
   xmlns:dc="http://purl.org/dc/elements/1.1/"
   xmlns:cc="http://creativecommons.org/ns#"
   xmlns:rdf="http://www.w3.org/1999/02/22-rdf-syntax-ns#"
   xmlns:svg="http://www.w3.org/2000/svg"
   xmlns="http://www.w3.org/2000/svg"
   xmlns:sodipodi="http://sodipodi.sourceforge.net/DTD/sodipodi-0.dtd"
   xmlns:inkscape="http://www.inkscape.org/namespaces/inkscape"
   version="1.1"
   x="0px"
   y="0px"
   viewBox="7.5 7.5 50 62.5"
   enable-background="new 7.5 7.5 50 50"
   xml:space="preserve"
   id="svg8"
   sodipodi:docname="Trap.svg"
   inkscape:version="0.92.2 (5c3e80d, 2017-08-06)"><metadata
     id="metadata14"><rdf:RDF><cc:Work
         rdf:about=""><dc:format>image/svg+xml</dc:format><dc:type
           rdf:resource="http://purl.org/dc/dcmitype/StillImage" /></cc:Work></rdf:RDF></metadata><defs
     id="defs12" /><sodipodi:namedview
     pagecolor="#ffffff"
     bordercolor="#666666"
     borderopacity="1"
     objecttolerance="10"
     gridtolerance="10"
     guidetolerance="10"
     inkscape:pageopacity="0"
     inkscape:pageshadow="2"
     inkscape:window-width="1920"
     inkscape:window-height="1017"
     id="namedview10"
     showgrid="false"
     inkscape:zoom="7.552"
     inkscape:cx="-6.6839587"
     inkscape:cy="9.6465468"
     inkscape:window-x="-8"
     inkscape:window-y="-8"
     inkscape:window-maximized="1"
     inkscape:current-layer="svg8" /><path
     d="M57.26,43.006c-0.004-0.034-0.009-0.067-0.02-0.101c-0.011-0.031-0.025-0.059-0.041-0.086s-0.031-0.053-0.051-0.076  c-0.023-0.027-0.05-0.05-0.079-0.071c-0.015-0.012-0.024-0.028-0.041-0.038l-4.494-2.697c-0.158-0.096-0.354-0.096-0.515,0  l-4.235,2.543l-4.235-2.543c-0.16-0.096-0.356-0.096-0.515,0l-4.24,2.543l-4.243-2.543c-0.158-0.096-0.355-0.096-0.514,0  l-2.887,1.73c-1.024-2.423-3.424-4.128-6.216-4.128c-0.1,0-0.196,0.011-0.295,0.015l0.431-3.615c0.022-0.184-0.059-0.364-0.21-0.47  l-4.056-2.831l0.587-4.909c0.022-0.184-0.059-0.364-0.21-0.47l-4.053-2.825l0.588-4.905c0.022-0.184-0.059-0.364-0.21-0.47  l-4.3-2.998c-0.016-0.011-0.035-0.013-0.051-0.022c-0.032-0.017-0.063-0.032-0.097-0.042c-0.031-0.009-0.061-0.013-0.091-0.016  c-0.032-0.003-0.062-0.004-0.094-0.001c-0.037,0.003-0.07,0.013-0.105,0.024c-0.017,0.005-0.035,0.004-0.052,0.012l-4.69,2.102  c-0.121,0.054-0.215,0.154-0.263,0.278c-0.047,0.124-0.043,0.262,0.011,0.383l11.034,24.618c0.006,0.013,0.02,0.019,0.026,0.03  c-0.409,0.869-0.644,1.835-0.644,2.857c0,3.72,3.026,6.746,6.745,6.746c2.028,0,3.846-0.904,5.083-2.326h26.754  c0.276,0,0.5-0.224,0.5-0.5v-5.141C57.271,43.043,57.263,43.025,57.26,43.006z M8.889,16.825l3.975-1.781l3.821,2.664l-0.588,4.906  c-0.022,0.184,0.059,0.364,0.21,0.47l4.053,2.825l-0.587,4.909c-0.022,0.184,0.059,0.364,0.21,0.47l4.057,2.831l-0.424,3.553  c-1.714,0.341-3.192,1.334-4.173,2.708L8.889,16.825z M24.934,50.029c-3.168,0-5.745-2.578-5.745-5.746  c0-3.167,2.577-5.744,5.745-5.744s5.745,2.577,5.745,5.744C30.679,47.451,28.102,50.029,24.934,50.029z M30.737,47.703  c0.594-1.004,0.941-2.171,0.941-3.42c0-0.567-0.078-1.115-0.21-1.642l2.826-1.693l4.243,2.543c0.158,0.096,0.355,0.096,0.514,0  l4.24-2.543l4.235,2.543c0.16,0.096,0.355,0.096,0.516,0l4.235-2.543l3.994,2.397v4.357H30.737z"
     id="path2"
     style="fill:#917c6f" /><path
     style="fill:#917c6f;fill-opacity:1;stroke:none;stroke-width:0.13241525;stroke-opacity:1"
     d="M 11.746688,32.317305 C 11.641505,32.068888 9.2871994,26.805373 6.5148975,20.62061 3.7425956,14.435845 1.4889016,9.3623061 1.5066886,9.3460778 1.5244756,9.3298495 2.3990602,8.9321702 3.45021,8.462346 L 5.3613914,7.6081203 7.1578371,8.8584907 c 0.9880452,0.6877038 1.8360048,1.2893153 1.8843546,1.3369143 0.04835,0.0476 -0.048079,1.188901 -0.2142865,2.536226 -0.1805358,1.463474 -0.2567365,2.53792 -0.1892781,2.668859 0.062105,0.120547 1.0062474,0.83559 2.0980949,1.588983 1.760972,1.215101 1.985528,1.412049 1.988286,1.743831 0.0017,0.205714 -0.117475,1.359852 -0.264857,2.564751 -0.211889,1.732272 -0.234217,2.231393 -0.106691,2.385051 0.0887,0.106879 1.018864,0.793597 2.067027,1.526038 1.048163,0.732441 1.935779,1.409967 1.972482,1.505612 0.0367,0.09565 1.3e-4,0.727647 -0.08128,1.404445 -0.263024,2.186796 -0.174485,1.996041 -1.045202,2.251828 -0.930746,0.27342 -2.231469,1.11624 -2.865066,1.856456 l -0.463497,0.541491 z"
     id="path812"
     inkscape:connector-curvature="0"
     transform="translate(7.5,7.5)" /><path
     style="fill:#917c6f;fill-opacity:1;stroke:none;stroke-width:0.13241525;stroke-opacity:1"
     d="m 23.654562,39.445734 c 0.458457,-1.001402 0.665322,-2.368712 0.516619,-3.414681 l -0.121559,-0.855036 1.369168,-0.829533 1.369168,-0.829532 2.237547,1.330318 c 2.21885,1.319202 2.240806,1.328632 2.627691,1.128566 0.21458,-0.110963 1.232192,-0.709229 2.26136,-1.329479 l 1.871215,-1.127727 2.24236,1.343108 2.242359,1.343108 2.2526,-1.349241 2.252599,-1.349241 1.951585,1.173852 1.951585,1.173852 0.03638,2.14376 0.03638,2.143761 H 36.043808 23.335989 Z"
     id="path814"
     inkscape:connector-curvature="0"
     transform="translate(7.5,7.5)" /><path
     style="fill:#1a1a1a;fill-opacity:1;stroke:none;stroke-width:0.13241525;stroke-opacity:1"
     d="m 16.460372,42.377038 c -1.968239,-0.327453 -3.668441,-1.793162 -4.392354,-3.786558 -0.25128,-0.691936 -0.290226,-1.018422 -0.244827,-2.052436 0.0455,-1.036322 0.120007,-1.37061 0.473976,-2.12657 0.551224,-1.17723 1.594557,-2.222397 2.778166,-2.783046 0.841248,-0.39848 0.987852,-0.424869 2.360394,-0.424869 1.422499,0 1.491358,0.0138 2.46167,0.493355 1.220435,0.603171 2.085055,1.484003 2.671163,2.721247 0.397984,0.840124 0.42174,0.976045 0.42174,2.413046 0,1.415166 -0.02743,1.57892 -0.388217,2.317267 -0.527938,1.080433 -1.612536,2.19031 -2.629543,2.690829 -0.69343,0.341272 -2.209132,0.720342 -2.676096,0.66928 -0.07283,-0.008 -0.449061,-0.06716 -0.836072,-0.131545 z"
     id="path816"
     inkscape:connector-curvature="0"
     transform="translate(7.5,7.5)" /></svg>