<?xml version="1.0" encoding="UTF-8" standalone="no"?>
<svg
   xmlns:dc="http://purl.org/dc/elements/1.1/"
   xmlns:cc="http://creativecommons.org/ns#"
   xmlns:rdf="http://www.w3.org/1999/02/22-rdf-syntax-ns#"
   xmlns:svg="http://www.w3.org/2000/svg"
   xmlns="http://www.w3.org/2000/svg"
   xmlns:sodipodi="http://sodipodi.sourceforge.net/DTD/sodipodi-0.dtd"
   xmlns:inkscape="http://www.inkscape.org/namespaces/inkscape"
   version="1.1"
   x="0px"
   y="0px"
   viewBox="7.5 7.5 49.541584 37.051811"
   enable-background="new 7.5 7.5 50 50"
   xml:space="preserve"
   id="svg8"
   sodipodi:docname="Trap.svg"
   inkscape:version="0.92.2 (5c3e80d, 2017-08-06)"
   width="49.541584"
   height="37.051811"><metadata
     id="metadata14"><rdf:RDF><cc:Work
         rdf:about=""><dc:format>image/svg+xml</dc:format><dc:type
           rdf:resource="http://purl.org/dc/dcmitype/StillImage" /></cc:Work></rdf:RDF></metadata><defs
     id="defs12" /><sodipodi:namedview
     pagecolor="#ffffff"
     bordercolor="#666666"
     borderopacity="1"
     objecttolerance="10"
     gridtolerance="10"
     guidetolerance="10"
     inkscape:pageopacity="0"
     inkscape:pageshadow="2"
     inkscape:window-width="1366"
     inkscape:window-height="705"
     id="namedview10"
     showgrid="false"
     inkscape:zoom="7.552"
     inkscape:cx="-9.2316419"
     inkscape:cy="20.118223"
     inkscape:window-x="-8"
     inkscape:window-y="-8"
     inkscape:window-maximized="1"
     inkscape:current-layer="svg8" /><path
     d="m 57.029584,36.527811 c -0.004,-0.034 -0.009,-0.067 -0.02,-0.101 -0.011,-0.031 -0.025,-0.059 -0.041,-0.086 -0.016,-0.027 -0.031,-0.053 -0.051,-0.076 -0.023,-0.027 -0.05,-0.05 -0.079,-0.071 -0.015,-0.012 -0.024,-0.028 -0.041,-0.038 l -4.494,-2.697 c -0.158,-0.096 -0.354,-0.096 -0.515,0 l -4.235,2.543 -4.235,-2.543 c -0.16,-0.096 -0.356,-0.096 -0.515,0 l -4.24,2.543 -4.243,-2.543 c -0.158,-0.096 -0.355,-0.096 -0.514,0 l -2.887,1.73 c -1.024,-2.423 -3.424,-4.128 -6.216,-4.128 -0.1,0 -0.196,0.011 -0.295,0.015 l 0.431,-3.615 c 0.022,-0.184 -0.059,-0.364 -0.21,-0.47 l -4.056,-2.831 0.587,-4.909 c 0.022,-0.184 -0.059,-0.364 -0.21,-0.47 l -4.053,-2.825 0.588,-4.905 c 0.022,-0.184 -0.059,-0.364 -0.21,-0.47 l -4.3,-2.9979996 c -0.016,-0.011 -0.035,-0.013 -0.051,-0.022 -0.032,-0.017 -0.063,-0.032 -0.097,-0.042 -0.031,-0.009 -0.061,-0.013 -0.091,-0.016 -0.032,-0.003 -0.062,-0.004 -0.094,-10e-4 -0.037,0.003 -0.07,0.013 -0.105,0.024 -0.017,0.005 -0.035,0.004 -0.052,0.012 l -4.6900002,2.102 c -0.121,0.054 -0.215,0.154 -0.263,0.278 -0.047,0.1239996 -0.043,0.2619996 0.011,0.3829996 l 11.0340002,24.618 c 0.006,0.013 0.02,0.019 0.026,0.03 -0.409,0.869 -0.644,1.835 -0.644,2.857 0,3.72 3.026,6.746 6.745,6.746 2.028,0 3.846,-0.904 5.083,-2.326 h 26.754 c 0.276,0 0.5,-0.224 0.5,-0.5 v -5.141 c -10e-4,-0.02 -0.009,-0.038 -0.012,-0.057 z m -48.3710002,-26.181 3.9750002,-1.7809996 3.821,2.6639996 -0.588,4.906 c -0.022,0.184 0.059,0.364 0.21,0.47 l 4.053,2.825 -0.587,4.909 c -0.022,0.184 0.059,0.364 0.21,0.47 l 4.057,2.831 -0.424,3.553 c -1.714,0.341 -3.192,1.334 -4.173,2.708 z m 16.0450002,33.204 c -3.168,0 -5.745,-2.578 -5.745,-5.746 0,-3.167 2.577,-5.744 5.745,-5.744 3.168,0 5.745,2.577 5.745,5.744 0,3.168 -2.577,5.746 -5.745,5.746 z m 5.803,-2.326 c 0.594,-1.004 0.941,-2.171 0.941,-3.42 0,-0.567 -0.078,-1.115 -0.21,-1.642 l 2.826,-1.693 4.243,2.543 c 0.158,0.096 0.355,0.096 0.514,0 l 4.24,-2.543 4.235,2.543 c 0.16,0.096 0.355,0.096 0.516,0 l 4.235,-2.543 3.994,2.397 v 4.357 h -25.534 z"
     id="path2"
     style="fill:#917c6f"
     inkscape:connector-curvature="0" /><path
     style="fill:#917c6f;fill-opacity:1;stroke:none;stroke-width:0.13241525;stroke-opacity:1"
     d="M 19.016272,33.339116 C 18.911089,33.090699 16.556783,27.827184 13.784481,21.642421 11.012179,15.457656 8.7584854,10.384117 8.7762724,10.367889 8.7940594,10.351661 9.668644,9.9539816 10.719794,9.4841574 l 1.911181,-0.8542257 1.796446,1.2503704 c 0.988045,0.6877039 1.836005,1.2893149 1.884354,1.3369139 0.04835,0.0476 -0.04808,1.188901 -0.214286,2.536226 -0.180536,1.463474 -0.256737,2.53792 -0.189278,2.668859 0.06211,0.120547 1.006247,0.83559 2.098095,1.588983 1.760972,1.215101 1.985528,1.412049 1.988286,1.743831 0.0017,0.205714 -0.117475,1.359852 -0.264857,2.564751 -0.211889,1.732272 -0.234217,2.231393 -0.106691,2.385051 0.0887,0.106879 1.018864,0.793597 2.067027,1.526038 1.048163,0.732441 1.935779,1.409967 1.972482,1.505612 0.0367,0.09565 1.3e-4,0.727647 -0.08128,1.404445 -0.263024,2.186796 -0.174485,1.996041 -1.045202,2.251828 -0.930746,0.27342 -2.231469,1.11624 -2.865066,1.856456 l -0.463497,0.541491 z"
     id="path812"
     inkscape:connector-curvature="0" /><path
     style="fill:#917c6f;fill-opacity:1;stroke:none;stroke-width:0.13241525;stroke-opacity:1"
     d="m 30.924146,40.467545 c 0.458457,-1.001402 0.665322,-2.368712 0.516619,-3.414681 l -0.121559,-0.855036 1.369168,-0.829533 1.369168,-0.829532 2.237547,1.330318 c 2.21885,1.319202 2.240806,1.328632 2.627691,1.128566 0.21458,-0.110963 1.232192,-0.709229 2.26136,-1.329479 l 1.871215,-1.127727 2.24236,1.343108 2.242359,1.343108 2.2526,-1.349241 2.252599,-1.349241 1.951585,1.173852 1.951585,1.173852 0.03638,2.14376 0.03638,2.143761 H 43.313392 30.605573 Z"
     id="path814"
     inkscape:connector-curvature="0" /><path
     style="fill:#1a1a1a;fill-opacity:1;stroke:none;stroke-width:0.13241525;stroke-opacity:1"
     d="m 23.729956,43.398849 c -1.968239,-0.327453 -3.668441,-1.793162 -4.392354,-3.786558 -0.25128,-0.691936 -0.290226,-1.018422 -0.244827,-2.052436 0.0455,-1.036322 0.120007,-1.37061 0.473976,-2.12657 0.551224,-1.17723 1.594557,-2.222397 2.778166,-2.783046 0.841248,-0.39848 0.987852,-0.424869 2.360394,-0.424869 1.422499,0 1.491358,0.0138 2.46167,0.493355 1.220435,0.603171 2.085055,1.484003 2.671163,2.721247 0.397984,0.840124 0.42174,0.976045 0.42174,2.413046 0,1.415166 -0.02743,1.57892 -0.388217,2.317267 -0.527938,1.080433 -1.612536,2.19031 -2.629543,2.690829 -0.69343,0.341272 -2.209132,0.720342 -2.676096,0.66928 -0.07283,-0.008 -0.449061,-0.06716 -0.836072,-0.131545 z"
     id="path816"
     inkscape:connector-curvature="0" /></svg>