<svg xmlns="http://www.w3.org/2000/svg" xmlns:xlink="http://www.w3.org/1999/xlink" version="1.1" x="0px" y="0px" viewBox="7.5 7.5 50 62.5" enable-background="new 7.5 7.5 50 50" xml:space="preserve"><path d="M57.26,43.006c-0.004-0.034-0.009-0.067-0.02-0.101c-0.011-0.031-0.025-0.059-0.041-0.086s-0.031-0.053-0.051-0.076  c-0.023-0.027-0.05-0.05-0.079-0.071c-0.015-0.012-0.024-0.028-0.041-0.038l-4.494-2.697c-0.158-0.096-0.354-0.096-0.515,0  l-4.235,2.543l-4.235-2.543c-0.16-0.096-0.356-0.096-0.515,0l-4.24,2.543l-4.243-2.543c-0.158-0.096-0.355-0.096-0.514,0  l-2.887,1.73c-1.024-2.423-3.424-4.128-6.216-4.128c-0.1,0-0.196,0.011-0.295,0.015l0.431-3.615c0.022-0.184-0.059-0.364-0.21-0.47  l-4.056-2.831l0.587-4.909c0.022-0.184-0.059-0.364-0.21-0.47l-4.053-2.825l0.588-4.905c0.022-0.184-0.059-0.364-0.21-0.47  l-4.3-2.998c-0.016-0.011-0.035-0.013-0.051-0.022c-0.032-0.017-0.063-0.032-0.097-0.042c-0.031-0.009-0.061-0.013-0.091-0.016  c-0.032-0.003-0.062-0.004-0.094-0.001c-0.037,0.003-0.07,0.013-0.105,0.024c-0.017,0.005-0.035,0.004-0.052,0.012l-4.69,2.102  c-0.121,0.054-0.215,0.154-0.263,0.278c-0.047,0.124-0.043,0.262,0.011,0.383l11.034,24.618c0.006,0.013,0.02,0.019,0.026,0.03  c-0.409,0.869-0.644,1.835-0.644,2.857c0,3.72,3.026,6.746,6.745,6.746c2.028,0,3.846-0.904,5.083-2.326h26.754  c0.276,0,0.5-0.224,0.5-0.5v-5.141C57.271,43.043,57.263,43.025,57.26,43.006z M8.889,16.825l3.975-1.781l3.821,2.664l-0.588,4.906  c-0.022,0.184,0.059,0.364,0.21,0.47l4.053,2.825l-0.587,4.909c-0.022,0.184,0.059,0.364,0.21,0.47l4.057,2.831l-0.424,3.553  c-1.714,0.341-3.192,1.334-4.173,2.708L8.889,16.825z M24.934,50.029c-3.168,0-5.745-2.578-5.745-5.746  c0-3.167,2.577-5.744,5.745-5.744s5.745,2.577,5.745,5.744C30.679,47.451,28.102,50.029,24.934,50.029z M30.737,47.703  c0.594-1.004,0.941-2.171,0.941-3.42c0-0.567-0.078-1.115-0.21-1.642l2.826-1.693l4.243,2.543c0.158,0.096,0.355,0.096,0.514,0  l4.24-2.543l4.235,2.543c0.16,0.096,0.355,0.096,0.516,0l4.235-2.543l3.994,2.397v4.357H30.737z"/><text x="7.5" y="72.5" fill="#000000" font-size="5px" font-weight="bold" font-family="'Helvetica Neue', Helvetica, Arial-Unicode, Arial, Sans-serif">Created by Noura Mbarki</text><text x="7.5" y="77.5" fill="#000000" font-size="5px" font-weight="bold" font-family="'Helvetica Neue', Helvetica, Arial-Unicode, Arial, Sans-serif">from the Noun Project</text></svg>