<?xml version="1.0" encoding="UTF-8" standalone="no"?>
<svg
   xmlns:dc="http://purl.org/dc/elements/1.1/"
   xmlns:cc="http://creativecommons.org/ns#"
   xmlns:rdf="http://www.w3.org/1999/02/22-rdf-syntax-ns#"
   xmlns:svg="http://www.w3.org/2000/svg"
   xmlns="http://www.w3.org/2000/svg"
   xmlns:sodipodi="http://sodipodi.sourceforge.net/DTD/sodipodi-0.dtd"
   xmlns:inkscape="http://www.inkscape.org/namespaces/inkscape"
   data-name="Layer 1"
   viewBox="0 0 64 80"
   x="0px"
   y="0px"
   version="1.1"
   id="svg60"
   sodipodi:docname="Treasure.svg"
   inkscape:version="0.92.2 (5c3e80d, 2017-08-06)">
  <metadata
     id="metadata66">
    <rdf:RDF>
      <cc:Work
         rdf:about="">
        <dc:format>image/svg+xml</dc:format>
        <dc:type
           rdf:resource="http://purl.org/dc/dcmitype/StillImage" />
      </cc:Work>
    </rdf:RDF>
  </metadata>
  <defs
     id="defs64" />
  <sodipodi:namedview
     pagecolor="#ffffff"
     bordercolor="#666666"
     borderopacity="1"
     objecttolerance="10"
     gridtolerance="10"
     guidetolerance="10"
     inkscape:pageopacity="0"
     inkscape:pageshadow="2"
     inkscape:window-width="1920"
     inkscape:window-height="1017"
     id="namedview62"
     showgrid="false"
     inkscape:zoom="11.8"
     inkscape:cx="16.976505"
     inkscape:cy="46.443402"
     inkscape:window-x="-8"
     inkscape:window-y="-8"
     inkscape:window-maximized="1"
     inkscape:current-layer="svg60" />
  <path
     d="M6.105,19.447l4.031,8.061c-.009.016-.022.028-.031.045l-2,4a1,1,0,0,0,.044.973,1.189,1.189,0,0,0,.083.1l-.006.005,1.368,1.673L4.168,42.445l.015.011A.97.97,0,0,0,4,43V61a1,1,0,0,0,1,1H59a1,1,0,0,0,1-1V43a1,1,0,0,0-1-1h-.248l2.538-1.071,0-.008a.925.925,0,0,0,.122-.051,1,1,0,0,0,.492-.84l.1-4.471a1,1,0,0,0-.533-.907l-8.841-4.668L57.9,19.447l-.01,0A.978.978,0,0,0,58,19V6a4,4,0,0,0-4-4H10A4,4,0,0,0,6,6V19a.978.978,0,0,0,.115.443ZM28,40.894v-1.73A15.94,15.94,0,0,0,33.5,40a15.94,15.94,0,0,0,5.5-.836v1.73c-.369.4-2.294,1.106-5.5,1.106S28.369,41.293,28,40.894ZM39.588,29.945a17.316,17.316,0,0,0,3.746-3.206c.15-.181.273-.35.39-.517l.954,1.457c-.089.536-1.313,2.183-3.995,3.94S36,33.833,35.476,33.706l-.952-1.454A15.863,15.863,0,0,0,39.588,29.945Zm-6.14.434c.259-.655,1.492-2.172,3.948-3.78s4.35-2.13,5.044-2.108c-.258.655-1.491,2.173-3.948,3.781S34.144,30.4,33.448,30.379Zm17.11.775-1.376,1.535-2.3-1.214,1.818-1.3ZM45,44V60H41V44Zm2,0h5V60H47Zm2.3-2,.9-6.511,4.549,2.4L50.215,42Zm1.7-8.348,1.376-1.535,3.925,2.072-.492,2Zm-2.686.843-.7,5.077-1.236-6.1ZM46.07,42h-5.4A1.7,1.7,0,0,0,41,41V37c0-.994-.817-1.7-2.028-2.174a20.014,20.014,0,0,0,2.807-1.534,21.346,21.346,0,0,0,2.209-1.657c0,.013,0,.024,0,.036a1.106,1.106,0,0,0,.025.13H44Zm-7.2-5c-.576.407-2.437,1-5.374,1s-4.8-.593-5.374-1c.576-.407,2.437-1,5.374-1S38.3,36.593,38.874,37ZM39,44V60H25V44ZM23,60H19V44h4ZM17,44V60H12V44ZM13.3,33l1.752,4.816L11.11,33Zm2.129,0h5.144L18,40.074ZM22.7,33H24.89l-3.941,4.816Zm.08-2-.5-2h2.1l1,2Zm-2.562-2,.5,2H15.281l.5-2Zm-7,2h-2.6l1-2h2.1ZM15.89,42H6.868l4.051-6.076ZM6,44h4V60H6ZM58,60H54V44h4ZM53.194,42l3.438-3.115,1.936,1.022L53.607,42Zm6.743-3.632-2.3-1.214.492-2,1.857.981ZM49.086,28.116a.994.994,0,0,0-1.048.071l-2.31,1.654c.878-1.144,1.267-2.274.682-3.168l-2.191-3.346c-1.214-1.854-5.025-.3-7.918,1.6s-5.844,4.765-4.631,6.618L33.28,34c-3.409.033-7.28.829-7.28,3v4a1.7,1.7,0,0,0,.332,1H20.11l7.664-9.367-.006-.005a1.189,1.189,0,0,0,.083-.1,1,1,0,0,0,.044-.973l-2-4A1,1,0,0,0,25,27H12.118l-3.5-7H28v1a4,4,0,0,0,8,0V20H55.382l-4.525,9.05ZM45,18V4h5V18Zm-2,0H39V4h4Zm-6,0H36V15a4,4,0,0,0-8,0v3H27V4H37Zm-3-3v6a2,2,0,0,1-4,0V15a2,2,0,0,1,4,0Zm-9,3H21V4h4Zm-6,0H14V4h5ZM56,6V18H52V4h2A2,2,0,0,1,56,6ZM8,6a2,2,0,0,1,2-2h2V18H8Z"
     id="path2"
     style="fill:#aa8800" />
  <rect
     x="9"
     y="7"
     width="2"
     height="2"
     id="rect4"
     style="fill:#916f7c" />
  <rect
     x="9"
     y="13"
     width="2"
     height="2"
     id="rect6"
     style="fill:#00aad4" />
  <rect
     x="22"
     y="7"
     width="2"
     height="2"
     id="rect8"
     style="fill:#ccff00" />
  <rect
     x="22"
     y="13"
     width="2"
     height="2"
     id="rect10"
     style="fill:#7137c8" />
  <rect
     x="40"
     y="7"
     width="2"
     height="2"
     id="rect12"
     style="fill:#aa8800" />
  <rect
     x="40"
     y="13"
     width="2"
     height="2"
     id="rect14"
     style="fill:#ff6600" />
  <rect
     x="53"
     y="7"
     width="2"
     height="2"
     id="rect16"
     style="fill:#0000ff" />
  <rect
     x="53"
     y="13"
     width="2"
     height="2"
     id="rect18"
     style="fill:#d40055" />
  <rect
     x="31"
     y="17"
     width="2"
     height="4"
     id="rect20"
     style="fill:#666666" />
  <rect
     x="20"
     y="48"
     width="2"
     height="2"
     id="rect22"
     style="fill:#a02c5a" />
  <rect
     x="20"
     y="54"
     width="2"
     height="2"
     id="rect24"
     style="fill:#00d4aa" />
  <rect
     x="42"
     y="48"
     width="2"
     height="2"
     id="rect26"
     style="fill:#ff0000" />
  <rect
     x="42"
     y="54"
     width="2"
     height="2"
     id="rect28"
     style="fill:#a05a2c" />
  <rect
     x="7"
     y="48"
     width="2"
     height="2"
     id="rect30"
     style="fill:#5500d4" />
  <rect
     x="7"
     y="54"
     width="2"
     height="2"
     id="rect32"
     style="fill:#aa0088" />
  <rect
     x="55"
     y="48"
     width="2"
     height="2"
     id="rect34"
     style="fill:#00aa00" />
  <rect
     x="55"
     y="54"
     width="2"
     height="2"
     id="rect36"
     style="fill:#a02c5a" />
  <path
     d="M28,59h8a1,1,0,0,0,1-1V50a1,1,0,0,0-1-1H35V48a3,3,0,0,0-6,0v1H28a1,1,0,0,0-1,1v8A1,1,0,0,0,28,59Zm3-11a1,1,0,0,1,2,0v1H31Zm-2,3h6v6H29Z"
     id="path38"
     style="fill:#4d4d4d" />
  <rect
     x="31"
     y="53"
     width="2"
     height="2"
     id="rect40"
     style="fill:#ff0000" />
  <rect
     x="4"
     y="24"
     width="2"
     height="2"
     id="rect42"
     style="fill:#d4aa00" />
  <rect
     x="6"
     y="26"
     width="2"
     height="2"
     id="rect44"
     style="fill:#d45500" />
  <rect
     x="4"
     y="28"
     width="2"
     height="2"
     id="rect46"
     style="fill:#44aa00" />
  <rect
     x="2"
     y="26"
     width="2"
     height="2"
     id="rect48"
     style="fill:#800000" />
  <rect
     x="2"
     y="33"
     width="2"
     height="2"
     id="rect50"
     style="fill:#0000ff" />
  <rect
     x="60"
     y="27"
     width="2"
     height="2"
     id="rect52"
     style="fill:#999999" />
  <rect
     x="58"
     y="23"
     width="2"
     height="2"
     id="rect54"
     style="fill:#2c2ca0" />
  <path
     style="fill:#cccccc;fill-opacity:1;stroke:none;stroke-width:0.08474576;stroke-opacity:1"
     d="m 7.0158874,41.903144 c 0,-0.138119 3.9239656,-5.895562 3.9769346,-5.835162 0.232281,0.264869 4.644097,5.687387 4.696576,5.772514 0.05192,0.08422 -0.830243,0.105932 -4.304102,0.105932 -2.4031748,0 -4.3694086,-0.01948 -4.3694086,-0.04328 z"
     id="path838"
     inkscape:connector-curvature="0" />
  <path
     style="fill:#cccccc;fill-opacity:1;stroke:none;stroke-width:0.08474576;stroke-opacity:1"
     d="m 20.298751,41.840496 c 0.172425,-0.219331 7.423397,-9.09519 7.54086,-9.23071 0.06756,-0.07795 0.142668,-0.28953 0.166898,-0.470177 0.03934,-0.293276 -0.07878,-0.573977 -1.102939,-2.621222 C 25.862261,27.436873 25.72947,27.21275 25.462407,27.08602 25.19717,26.960157 24.527665,26.946428 18.655135,26.946428 H 12.142032 L 10.426417,23.51395 C 9.4828292,21.626087 8.7108027,20.062528 8.7108027,20.039374 c 0,-0.02315 4.3283903,-0.0421 9.6186443,-0.0421 h 9.618644 v 0.620028 c 0,1.900944 0.809657,3.289953 2.341869,4.017597 0.596133,0.283102 0.749417,0.319039 1.487233,0.348673 1.277476,0.05131 2.231943,-0.303192 3.068397,-1.139646 0.809833,-0.809833 1.153348,-1.705777 1.153348,-3.008122 v -0.83853 h 9.668079 c 5.62967,0 9.65628,0.03158 9.639831,0.07559 -0.0194,0.05192 -4.153115,8.314099 -4.449827,8.894007 -0.0081,0.01591 -0.461701,-0.203372 -1.007916,-0.487288 -0.546214,-0.283916 -1.080505,-0.516211 -1.187312,-0.516211 -0.329336,0 -0.570685,0.131453 -1.556146,0.847566 -0.523449,0.38038 -0.971878,0.671445 -0.99651,0.646813 -0.02463,-0.02463 0.03564,-0.174917 0.133937,-0.333966 0.441782,-0.714819 0.584857,-1.724235 0.317636,-2.240982 -0.373456,-0.722186 -2.447471,-3.755151 -2.723387,-3.982584 -0.934055,-0.769927 -2.710044,-0.533476 -5.253639,0.699457 -2.421488,1.173746 -4.974807,3.101846 -6.227602,4.702679 -0.452295,0.577947 -0.908068,1.510403 -0.98322,2.011546 -0.08649,0.576787 0.07472,0.960575 0.988262,2.352664 l 0.834329,1.271383 -0.399105,0.02023 c -3.379522,0.1713 -5.703806,0.901593 -6.498943,2.041975 l -0.256094,0.367289 -0.02474,2.53259 c -0.02117,2.167357 -0.0056,2.569638 0.108109,2.78949 l 0.132848,0.256901 h -3.021027 c -2.40474,0 -3.004039,-0.02161 -2.93775,-0.105932 z"
     id="path840"
     inkscape:connector-curvature="0" />
  <path
     style="fill:#cccccc;fill-opacity:1;stroke:none;stroke-width:0.08474576;stroke-opacity:1"
     d="m 40.869643,41.696399 c 0.107203,-0.207307 0.129295,-0.67125 0.129295,-2.71524 0,-2.283551 -0.01227,-2.489272 -0.166568,-2.791713 -0.203748,-0.39938 -0.750227,-0.878991 -1.288748,-1.131058 -0.221179,-0.103527 -0.403537,-0.207299 -0.405241,-0.230604 -0.0017,-0.02331 0.425758,-0.259917 0.949916,-0.525803 1.056191,-0.535769 2.343545,-1.364141 3.225755,-2.075673 0.317804,-0.25632 0.594395,-0.449467 0.614646,-0.429217 0.03526,0.03526 2.07024,9.946708 2.07024,10.083174 0,0.03639 -1.183182,0.06616 -2.629295,0.06616 h -2.629295 z"
     id="path842"
     inkscape:connector-curvature="0" />
  <path
     style="fill:#d42aff;fill-opacity:1;stroke:none;stroke-width:0.08474576;stroke-opacity:1"
     d="m 48.019847,32.044067 -1.072312,-0.569055 0.804415,-0.574924 c 0.442428,-0.316209 0.848697,-0.591198 0.90282,-0.611087 0.05412,-0.01989 0.493072,0.167431 0.975442,0.416267 l 0.877036,0.452427 -0.657758,0.73335 c -0.361767,0.403342 -0.680162,0.730813 -0.707545,0.727713 -0.02738,-0.0031 -0.532327,-0.261711 -1.122098,-0.574691 z"
     id="path852"
     inkscape:connector-curvature="0" />
  <path
     style="fill:#d42aff;fill-opacity:1;stroke:none;stroke-width:0.08474576;stroke-opacity:1"
     d="m 47.022223,36.455223 c -0.299129,-1.477718 -0.562858,-2.740629 -0.586066,-2.806467 -0.02321,-0.06584 0.385648,0.105169 0.908566,0.380018 0.800915,0.420964 0.944568,0.526648 0.911461,0.670554 -0.02161,0.09396 -0.163428,1.105151 -0.31514,2.2471 -0.151712,1.141949 -0.29814,2.10311 -0.325396,2.135914 -0.02725,0.0328 -0.294296,-1.1494 -0.593425,-2.627119 z"
     id="path854"
     inkscape:connector-curvature="0" />
  <path
     style="fill:#d42aff;fill-opacity:1;stroke:none;stroke-width:0.08474576;stroke-opacity:1"
     d="m 49.390761,41.75575 c 0.0034,-0.321462 0.816821,-6.080113 0.86579,-6.129081 0.04224,-0.04224 4.176357,2.103159 4.324804,2.244356 0.03601,0.03425 -0.931536,0.965226 -2.150096,2.068837 l -2.215564,2.006566 h -0.413463 c -0.37287,0 -0.413268,-0.01872 -0.411471,-0.190678 z"
     id="path856"
     inkscape:connector-curvature="0" />
  <path
     style="fill:#d42aff;fill-opacity:1;stroke:none;stroke-width:0.08474576;stroke-opacity:1"
     d="m 53.461082,34.910926 c -1.232685,-0.651353 -2.270555,-1.213588 -2.306379,-1.249411 -0.03582,-0.03582 0.230279,-0.385325 0.591339,-0.776669 l 0.656472,-0.711536 1.904144,1.001362 c 1.04728,0.550749 1.91466,1.009156 1.927513,1.018684 0.04053,0.03004 -0.438683,1.905707 -0.486383,1.903731 -0.025,-0.001 -1.05402,-0.534808 -2.286706,-1.186161 z"
     id="path858"
     inkscape:connector-curvature="0" />
  <path
     style="fill:#d42aff;fill-opacity:1;stroke:none;stroke-width:0.08474576;stroke-opacity:1"
     d="m 58.837921,37.745118 c -0.559322,-0.297928 -1.051767,-0.553915 -1.094323,-0.568861 -0.08332,-0.02926 0.357641,-1.925637 0.447245,-1.923399 0.02962,7.4e-4 0.435214,0.204432 0.901316,0.452649 l 0.847457,0.451304 -0.02993,1.051588 c -0.01646,0.578374 -0.03553,1.057622 -0.04237,1.064996 -0.0068,0.0074 -0.470074,-0.23035 -1.029395,-0.528277 z"
     id="path860"
     inkscape:connector-curvature="0" />
  <path
     style="fill:#d42aff;fill-opacity:1;stroke:none;stroke-width:0.08474576;stroke-opacity:1"
     d="m 53.37182,41.917156 c 0,-0.06343 3.215728,-2.93683 3.286714,-2.93683 0.04167,0 0.470014,0.20642 0.951869,0.45871 l 0.8761,0.45871 -0.290392,0.12335 c -4.143942,1.760219 -4.824291,2.027612 -4.824291,1.89606 z"
     id="path862"
     inkscape:connector-curvature="0" />
  <path
     style="fill:#55ddff;fill-opacity:1;stroke:none;stroke-width:0.08474576;stroke-opacity:1"
     d="m 21.16843,37.409054 c 0,-0.04386 0.349525,-1.043014 0.776723,-2.220339 l 0.776723,-2.140592 h 1.002938 c 0.551616,0 1.002938,0.02119 1.002938,0.0471 0,0.03618 -3.148333,3.929152 -3.488077,4.313072 -0.04398,0.0497 -0.07124,0.04999 -0.07124,7.62e-4 z"
     id="path864"
     inkscape:connector-curvature="0" />
  <path
     style="fill:#55ddff;fill-opacity:1;stroke:none;stroke-width:0.08474576;stroke-opacity:1"
     d="M 22.577194,30.042228 C 22.454916,29.55424 22.35487,29.134749 22.35487,29.110025 c 0,-0.02472 0.457309,-0.04495 1.016242,-0.04495 h 1.016241 l 0.467517,0.932204 0.467518,0.932203 h -1.261435 -1.261435 z"
     id="path866"
     inkscape:connector-curvature="0" />
  <path
     style="fill:#55ddff;fill-opacity:1;stroke:none;stroke-width:0.08474576;stroke-opacity:1"
     d="m 15.569129,30.018462 0.228514,-0.911017 2.20228,-0.02256 2.202281,-0.02256 0.198454,0.827645 c 0.10915,0.455205 0.216224,0.875315 0.237943,0.933578 0.03107,0.08334 -0.529696,0.105932 -2.629249,0.105932 h -2.668737 z"
     id="path868"
     inkscape:connector-curvature="0" />
  <path
     style="fill:#55ddff;fill-opacity:1;stroke:none;stroke-width:0.08474576;stroke-opacity:1"
     d="m 10.744701,30.888125 c 0,-0.02275 0.199372,-0.442236 0.443049,-0.932204 l 0.443049,-0.890849 h 0.997629 c 0.672144,0 0.997629,0.03057 0.997629,0.0937 0,0.08417 -0.10558,0.52576 -0.347381,1.45291 l -0.08288,0.317797 h -1.225547 c -0.674051,0 -1.225547,-0.01861 -1.225547,-0.04135 z"
     id="path870"
     inkscape:connector-curvature="0" />
  <path
     style="fill:#55ddff;fill-opacity:1;stroke:none;stroke-width:0.08474576;stroke-opacity:1"
     d="m 12.994947,35.242941 -1.766769,-2.152445 0.998412,-0.02397 c 0.549126,-0.01319 1.016297,-0.0061 1.038158,0.01577 0.07829,0.07829 1.544313,4.162349 1.520892,4.236918 -0.01316,0.0419 -0.818971,-0.892426 -1.790693,-2.076271 z"
     id="path872"
     inkscape:connector-curvature="0" />
  <path
     style="fill:#55ddff;fill-opacity:1;stroke:none;stroke-width:0.08474576;stroke-opacity:1"
     d="m 16.782847,36.628671 c -0.656378,-1.806166 -1.219763,-3.350675 -1.251966,-3.432243 -0.05497,-0.139222 0.09512,-0.148305 2.450516,-0.148305 1.379987,0 2.509067,0.01508 2.509067,0.03351 0,0.05727 -2.450149,6.766921 -2.48309,6.799862 -0.01711,0.01711 -0.568149,-1.446659 -1.224527,-3.252824 z"
     id="path874"
     inkscape:connector-curvature="0" />
  <path
     style="fill:#ffe680;fill-opacity:1;stroke:none;stroke-width:0.08474576;stroke-opacity:1"
     d="m 31.083684,41.810337 c -0.987043,-0.131622 -2.19953,-0.449993 -2.714718,-0.712822 l -0.336129,-0.171481 v -0.851446 c 0,-0.77183 0.01387,-0.847169 0.148305,-0.805701 1.766036,0.544733 3.225767,0.748563 5.360169,0.748468 2.103531,-9.3e-5 3.380244,-0.181541 5.275424,-0.749749 0.134352,-0.04028 0.148305,0.03564 0.148305,0.806982 v 0.851446 l -0.332852,0.169808 c -0.550855,0.281026 -1.685085,0.571623 -2.791255,0.715139 -1.272462,0.16509 -3.516672,0.164786 -4.757249,-6.44e-4 z"
     id="path876"
     inkscape:connector-curvature="0" />
  <path
     style="fill:#ffe680;fill-opacity:1;stroke:none;stroke-width:0.08474576;stroke-opacity:1"
     d="m 31.509842,37.865919 c -0.922265,-0.09627 -2.38301,-0.428061 -2.926158,-0.664645 l -0.423729,-0.184569 0.310402,-0.160487 c 0.412082,-0.213061 1.360285,-0.466177 2.401463,-0.641054 1.174921,-0.197341 4.079315,-0.197341 5.254237,0 1.027761,0.172624 1.986685,0.427017 2.390462,0.634167 l 0.299401,0.153602 -0.408738,0.192129 c -0.5338,0.250916 -1.970594,0.568693 -3.074003,0.67988 -1.019322,0.102714 -2.792976,0.09853 -3.823337,-0.009 z"
     id="path878"
     inkscape:connector-curvature="0" />
  <path
     style="fill:#ffe680;fill-opacity:1;stroke:none;stroke-width:0.08474576;stroke-opacity:1"
     d="m 35.472776,33.576824 c -0.325347,-0.377572 -0.839674,-1.229416 -0.774946,-1.283492 0.03976,-0.03322 0.453651,-0.185852 0.919752,-0.339187 2.648184,-0.871178 5.937264,-3.053013 7.584994,-5.031558 0.256219,-0.307661 0.490783,-0.561633 0.521253,-0.564382 0.03047,-0.0027 0.250896,0.299764 0.489836,0.672251 l 0.434436,0.677248 -0.140462,0.276142 c -0.880755,1.731526 -4.630527,4.463808 -7.35181,5.356918 -1.142298,0.374896 -1.518012,0.427592 -1.683053,0.23606 z"
     id="path880"
     inkscape:connector-curvature="0" />
  <path
     style="fill:#ffe680;fill-opacity:1;stroke:none;stroke-width:0.08474576;stroke-opacity:1"
     d="m 33.542126,30.272699 c 0.002,-0.156572 0.908211,-1.248872 1.463681,-1.764258 2.03106,-1.884497 5.284074,-3.713935 6.956037,-3.911955 l 0.418325,-0.04954 -0.160954,0.28087 c -0.236669,0.412995 -1.489262,1.709253 -2.229201,2.30691 -0.989825,0.799492 -2.311486,1.635444 -3.524974,2.229549 -1.328185,0.650258 -2.92597,1.146843 -2.922914,0.908428 z"
     id="path882"
     inkscape:connector-curvature="0" />
  <path
     style="fill:#d38d5f;fill-opacity:1;stroke:none;stroke-width:0.08474576;stroke-opacity:1"
     d="m 12.058261,52.031174 v -7.966101 h 2.457627 2.457627 v 7.966101 7.966102 h -2.457627 -2.457627 z"
     id="path861"
     inkscape:connector-curvature="0" />
  <path
     style="fill:#d38d5f;fill-opacity:1;stroke:none;stroke-width:0.08474576;stroke-opacity:1"
     d="m 19.007413,52.031174 v -7.966101 h 1.991526 1.991525 v 7.966101 7.966102 h -1.991525 -1.991526 z m 3.050848,2.966102 v -1.016949 h -1.059322 -1.059322 v 1.016949 1.016949 h 1.059322 1.059322 z m 0,-6.016949 v -1.016949 h -1.059322 -1.059322 v 1.016949 1.016949 h 1.059322 1.059322 z"
     id="path863"
     inkscape:connector-curvature="0" />
  <path
     style="fill:#d38d5f;fill-opacity:1;stroke:none;stroke-width:0.08474576;stroke-opacity:1"
     d="m 25.024362,52.031174 v -7.966101 h 6.949153 6.949153 v 7.966101 7.966102 h -6.949153 -6.949153 z m 11.558173,6.825899 c 0.472419,-0.319876 0.475726,-0.353479 0.475726,-4.834373 0,-4.465368 -0.0027,-4.493212 -0.467261,-4.858653 -0.193969,-0.152576 -0.344925,-0.18372 -0.890488,-0.18372 h -0.656926 l -0.03234,-0.873551 c -0.02886,-0.779762 -0.06208,-0.933961 -0.309337,-1.436217 -0.515899,-1.04794 -1.370786,-1.601534 -2.557692,-1.656268 -1.001006,-0.04616 -1.542542,0.161473 -2.253677,0.864094 -0.64835,0.640588 -0.855591,1.148662 -0.936181,2.295142 l -0.05671,0.8068 H 28.31273 c -0.357079,0 -0.681754,0.05007 -0.833514,0.128553 -0.511134,0.264317 -0.505732,0.212067 -0.505384,4.888425 3.05e-4,4.124471 0.0059,4.271768 0.17116,4.542899 0.321763,0.527753 0.27902,0.523424 4.955642,0.501951 4.046894,-0.01858 4.248279,-0.0269 4.481901,-0.185082 z"
     id="path865"
     inkscape:connector-curvature="0" />
  <path
     style="fill:#d38d5f;fill-opacity:1;stroke:none;stroke-width:0.08474576;stroke-opacity:1"
     d="m 41.041312,52.031174 v -7.966101 h 1.949152 1.949153 v 7.966101 7.966102 h -1.949153 -1.949152 z m 2.966101,2.966102 v -1.016949 h -1.016949 -1.016949 v 1.016949 1.016949 h 1.016949 1.016949 z m 0,-6.016949 v -1.016949 h -1.016949 -1.016949 v 1.016949 1.016949 h 1.016949 1.016949 z"
     id="path867"
     inkscape:connector-curvature="0" />
  <path
     style="fill:#d38d5f;fill-opacity:1;stroke:none;stroke-width:0.08474576;stroke-opacity:1"
     d="m 47.058261,52.031174 v -7.966101 h 2.457627 2.457627 v 7.966101 7.966102 h -2.457627 -2.457627 z"
     id="path869"
     inkscape:connector-curvature="0" />
  <path
     style="fill:#d38d5f;fill-opacity:1;stroke:none;stroke-width:0.08474576;stroke-opacity:1"
     d="m 54.061251,52.031174 v -7.966101 h 1.949152 1.949153 v 7.966101 7.966102 h -1.949153 -1.949152 z m 2.966101,2.966102 v -1.016949 h -1.016949 -1.016949 v 1.016949 1.016949 h 1.016949 1.016949 z m 0,-6.016949 v -1.016949 h -1.016949 -1.016949 v 1.016949 1.016949 h 1.016949 1.016949 z"
     id="path871"
     inkscape:connector-curvature="0" />
  <path
     style="fill:#d38d5f;fill-opacity:1;stroke:none;stroke-width:0.08474576;stroke-opacity:1"
     d="m 6.0104033,52.031174 v -7.966101 h 1.9915254 1.9915254 v 7.966101 7.966102 H 8.0019287 6.0104033 Z m 3.0508474,2.966102 v -1.016949 h -1.059322 -1.059322 v 1.016949 1.016949 h 1.059322 1.059322 z m 0,-6.016949 v -1.016949 h -1.059322 -1.059322 v 1.016949 1.016949 h 1.059322 1.059322 z"
     id="path873"
     inkscape:connector-curvature="0" />
  <path
     style="fill:#d38d5f;fill-opacity:1;stroke:none;stroke-width:0.08474576;stroke-opacity:1"
     d="M 8.0447742,11.840496 C 8.0450661,8.059371 8.0773489,5.6020553 8.1291827,5.4154665 8.2433236,5.0045873 8.7657616,4.41472 9.18364,4.2249139 9.4652654,4.0969957 9.7454941,4.0684588 10.73498,4.0669338 l 1.207627,-0.00186 v 6.9491522 6.949153 H 9.9934541 8.0443016 l 4.729e-4,-6.122882 z m 2.9656288,2.139831 V 12.963378 H 9.9934541 8.976505 v 1.016949 1.016949 h 1.0169491 1.0169489 z m 0,-5.9745765 V 6.9464285 H 9.9934541 8.976505 v 1.059322 1.0593221 h 1.0169491 1.0169489 z"
     id="path875"
     inkscape:connector-curvature="0" />
  <path
     style="fill:#d38d5f;fill-opacity:1;stroke:none;stroke-width:0.08474576;stroke-opacity:1"
     d="M 14.061251,11.014225 V 4.0650726 h 2.457627 2.457627 v 6.9491524 6.949153 h -2.457627 -2.457627 z"
     id="path877"
     inkscape:connector-curvature="0" />
  <path
     style="fill:#d38d5f;fill-opacity:1;stroke:none;stroke-width:0.08474576;stroke-opacity:1"
     d="M 21.010403,11.014225 V 4.0650726 h 1.991526 1.991525 v 6.9491524 6.949153 h -1.991525 -1.991526 z m 3.050848,2.966102 v -1.016949 h -1.059322 -1.059322 v 1.016949 1.016949 h 1.059322 1.059322 z m -0.01858,-5.9957629 0.02379,-1.0381356 H 23.00453 21.9426 v 1.0028248 c 0,0.5515538 0.02657,1.029394 0.05904,1.0618673 0.03247,0.032473 0.499634,0.048363 1.038136,0.035311 l 0.979093,-0.023732 z"
     id="path879"
     inkscape:connector-curvature="0" />
  <path
     style="fill:#d38d5f;fill-opacity:1;stroke:none;stroke-width:0.08474576;stroke-opacity:1"
     d="M 27.027352,11.014225 V 4.0650726 h 4.957628 4.957627 v 6.9491524 6.949153 h -0.466102 -0.466102 v -1.806653 c 0,-1.403933 -0.0301,-1.909257 -0.135039,-2.266949 -0.887135,-3.023911 -4.762973,-3.9149547 -6.86407,-1.57803 -0.862514,0.959323 -1.048754,1.664566 -1.050486,3.977903 l -0.0013,1.673729 h -0.466102 -0.466102 z"
     id="path881"
     inkscape:connector-curvature="0" />
  <path
     style="fill:#d38d5f;fill-opacity:1;stroke:none;stroke-width:0.08474576;stroke-opacity:1"
     d="M 39.061251,11.014225 V 4.0650726 h 1.949152 1.949153 v 6.9491524 6.949153 h -1.949153 -1.949152 z m 2.966101,2.966102 v -1.016949 h -1.016949 -1.016949 v 1.016949 1.016949 h 1.016949 1.016949 z m 0,-5.9745765 v -1.059322 h -1.016949 -1.016949 v 1.059322 1.0593221 h 1.016949 1.016949 z"
     id="path883"
     inkscape:connector-curvature="0" />
  <path
     style="fill:#d38d5f;fill-opacity:1;stroke:none;stroke-width:0.08474576;stroke-opacity:1"
     d="M 45.0782,11.014225 V 4.0650726 h 2.457627 2.457627 v 6.9491524 6.949153 H 47.535827 45.0782 Z"
     id="path885"
     inkscape:connector-curvature="0" />
  <path
     style="fill:#d38d5f;fill-opacity:1;stroke:none;stroke-width:0.08474576;stroke-opacity:1"
     d="M 52.027352,11.014225 V 4.0650726 h 1.219137 c 1.169575,0 1.237616,0.00962 1.673729,0.2367322 0.350662,0.1826098 0.51756,0.3415949 0.730016,0.6954036 l 0.275424,0.4586715 v 6.2537491 6.253749 h -1.949153 -1.949153 z m 3.032351,2.987288 -0.02388,-0.995762 -1.038136,-0.02379 -1.038135,-0.02379 v 1.019557 1.019558 h 1.062011 1.062012 z M 55.035827,8.0057505 V 6.9888014 l -1.038136,-0.023795 -1.038135,-0.023795 v 1.0645388 1.0645389 l 1.038135,-0.023795 1.038136,-0.023795 z"
     id="path887"
     inkscape:connector-curvature="0" />
  <path
     style="fill:#ececec;fill-opacity:1;stroke:none;stroke-width:0.08474576;stroke-opacity:1"
     d="M 31.361003,22.85249 C 30.952359,22.697236 30.441869,22.242303 30.246434,21.859218 30.086604,21.545925 30.0782,21.353432 30.0782,18.005751 c 0,-3.307377 0.01,-3.54328 0.162693,-3.842606 0.718548,-1.408471 2.606333,-1.488037 3.436761,-0.144851 l 0.256478,0.414843 v 3.572614 3.572613 l -0.256478,0.414842 c -0.474928,0.768179 -1.528171,1.158845 -2.316651,0.859284 z m 1.683299,-3.874772 v -2.036506 l -1.038136,0.02379 -1.038136,0.02379 -0.02272,2.012712 -0.02272,2.012712 h 1.060856 1.060856 z"
     id="path889"
     inkscape:connector-curvature="0" />
  <path
     style="fill:#ececec;fill-opacity:1;stroke:none;stroke-width:0.08474576;stroke-opacity:1"
     d="m 29.061251,53.980327 v -2.966102 h 2.966101 2.966102 v 2.966102 2.966102 h -2.966102 -2.966101 z m 3.983051,0 V 52.963378 H 31.98498 30.925658 v 1.016949 1.016949 h 1.059322 1.059322 z"
     id="path891"
     inkscape:connector-curvature="0" />
  <path
     style="fill:#ececec;fill-opacity:1;stroke:none;stroke-width:0.08474576;stroke-opacity:1"
     d="m 31.010403,48.477369 c 0,-0.824705 0.282613,-1.311397 0.820051,-1.412221 0.709983,-0.133193 1.128294,0.348854 1.128785,1.300772 l 3.17e-4,0.614407 H 31.98498 31.010403 Z"
     id="path893"
     inkscape:connector-curvature="0" />
</svg>
