<?xml version="1.0" encoding="UTF-8" standalone="no"?>
<svg
   xmlns:dc="http://purl.org/dc/elements/1.1/"
   xmlns:cc="http://creativecommons.org/ns#"
   xmlns:rdf="http://www.w3.org/1999/02/22-rdf-syntax-ns#"
   xmlns:svg="http://www.w3.org/2000/svg"
   xmlns="http://www.w3.org/2000/svg"
   xmlns:sodipodi="http://sodipodi.sourceforge.net/DTD/sodipodi-0.dtd"
   xmlns:inkscape="http://www.inkscape.org/namespaces/inkscape"
   data-name="Layer 1"
   viewBox="0 0 64 80"
   x="0px"
   y="0px"
   version="1.1"
   id="svg60"
   sodipodi:docname="noun_treasure_2096221.svg"
   inkscape:version="0.92.4 (5da689c313, 2019-01-14)">
  <metadata
     id="metadata66">
    <rdf:RDF>
      <cc:Work
         rdf:about="">
        <dc:format>image/svg+xml</dc:format>
        <dc:type
           rdf:resource="http://purl.org/dc/dcmitype/StillImage" />
      </cc:Work>
    </rdf:RDF>
  </metadata>
  <defs
     id="defs64" />
  <sodipodi:namedview
     pagecolor="#ffffff"
     bordercolor="#666666"
     borderopacity="1"
     objecttolerance="10"
     gridtolerance="10"
     guidetolerance="10"
     inkscape:pageopacity="0"
     inkscape:pageshadow="2"
     inkscape:window-width="640"
     inkscape:window-height="480"
     id="namedview62"
     showgrid="false"
     inkscape:zoom="2.95"
     inkscape:cx="32"
     inkscape:cy="40"
     inkscape:window-x="0"
     inkscape:window-y="0"
     inkscape:window-maximized="0"
     inkscape:current-layer="svg60" />
  <path
     d="M6.105,19.447l4.031,8.061c-.009.016-.022.028-.031.045l-2,4a1,1,0,0,0,.044.973,1.189,1.189,0,0,0,.083.1l-.006.005,1.368,1.673L4.168,42.445l.015.011A.97.97,0,0,0,4,43V61a1,1,0,0,0,1,1H59a1,1,0,0,0,1-1V43a1,1,0,0,0-1-1h-.248l2.538-1.071,0-.008a.925.925,0,0,0,.122-.051,1,1,0,0,0,.492-.84l.1-4.471a1,1,0,0,0-.533-.907l-8.841-4.668L57.9,19.447l-.01,0A.978.978,0,0,0,58,19V6a4,4,0,0,0-4-4H10A4,4,0,0,0,6,6V19a.978.978,0,0,0,.115.443ZM28,40.894v-1.73A15.94,15.94,0,0,0,33.5,40a15.94,15.94,0,0,0,5.5-.836v1.73c-.369.4-2.294,1.106-5.5,1.106S28.369,41.293,28,40.894ZM39.588,29.945a17.316,17.316,0,0,0,3.746-3.206c.15-.181.273-.35.39-.517l.954,1.457c-.089.536-1.313,2.183-3.995,3.94S36,33.833,35.476,33.706l-.952-1.454A15.863,15.863,0,0,0,39.588,29.945Zm-6.14.434c.259-.655,1.492-2.172,3.948-3.78s4.35-2.13,5.044-2.108c-.258.655-1.491,2.173-3.948,3.781S34.144,30.4,33.448,30.379Zm17.11.775-1.376,1.535-2.3-1.214,1.818-1.3ZM45,44V60H41V44Zm2,0h5V60H47Zm2.3-2,.9-6.511,4.549,2.4L50.215,42Zm1.7-8.348,1.376-1.535,3.925,2.072-.492,2Zm-2.686.843-.7,5.077-1.236-6.1ZM46.07,42h-5.4A1.7,1.7,0,0,0,41,41V37c0-.994-.817-1.7-2.028-2.174a20.014,20.014,0,0,0,2.807-1.534,21.346,21.346,0,0,0,2.209-1.657c0,.013,0,.024,0,.036a1.106,1.106,0,0,0,.025.13H44Zm-7.2-5c-.576.407-2.437,1-5.374,1s-4.8-.593-5.374-1c.576-.407,2.437-1,5.374-1S38.3,36.593,38.874,37ZM39,44V60H25V44ZM23,60H19V44h4ZM17,44V60H12V44ZM13.3,33l1.752,4.816L11.11,33Zm2.129,0h5.144L18,40.074ZM22.7,33H24.89l-3.941,4.816Zm.08-2-.5-2h2.1l1,2Zm-2.562-2,.5,2H15.281l.5-2Zm-7,2h-2.6l1-2h2.1ZM15.89,42H6.868l4.051-6.076ZM6,44h4V60H6ZM58,60H54V44h4ZM53.194,42l3.438-3.115,1.936,1.022L53.607,42Zm6.743-3.632-2.3-1.214.492-2,1.857.981ZM49.086,28.116a.994.994,0,0,0-1.048.071l-2.31,1.654c.878-1.144,1.267-2.274.682-3.168l-2.191-3.346c-1.214-1.854-5.025-.3-7.918,1.6s-5.844,4.765-4.631,6.618L33.28,34c-3.409.033-7.28.829-7.28,3v4a1.7,1.7,0,0,0,.332,1H20.11l7.664-9.367-.006-.005a1.189,1.189,0,0,0,.083-.1,1,1,0,0,0,.044-.973l-2-4A1,1,0,0,0,25,27H12.118l-3.5-7H28v1a4,4,0,0,0,8,0V20H55.382l-4.525,9.05ZM45,18V4h5V18Zm-2,0H39V4h4Zm-6,0H36V15a4,4,0,0,0-8,0v3H27V4H37Zm-3-3v6a2,2,0,0,1-4,0V15a2,2,0,0,1,4,0Zm-9,3H21V4h4Zm-6,0H14V4h5ZM56,6V18H52V4h2A2,2,0,0,1,56,6ZM8,6a2,2,0,0,1,2-2h2V18H8Z"
     id="path2" />
  <rect
     x="9"
     y="7"
     width="2"
     height="2"
     id="rect4" />
  <rect
     x="9"
     y="13"
     width="2"
     height="2"
     id="rect6" />
  <rect
     x="22"
     y="7"
     width="2"
     height="2"
     id="rect8" />
  <rect
     x="22"
     y="13"
     width="2"
     height="2"
     id="rect10" />
  <rect
     x="40"
     y="7"
     width="2"
     height="2"
     id="rect12" />
  <rect
     x="40"
     y="13"
     width="2"
     height="2"
     id="rect14" />
  <rect
     x="53"
     y="7"
     width="2"
     height="2"
     id="rect16" />
  <rect
     x="53"
     y="13"
     width="2"
     height="2"
     id="rect18" />
  <rect
     x="31"
     y="17"
     width="2"
     height="4"
     id="rect20" />
  <rect
     x="20"
     y="48"
     width="2"
     height="2"
     id="rect22" />
  <rect
     x="20"
     y="54"
     width="2"
     height="2"
     id="rect24" />
  <rect
     x="42"
     y="48"
     width="2"
     height="2"
     id="rect26" />
  <rect
     x="42"
     y="54"
     width="2"
     height="2"
     id="rect28" />
  <rect
     x="7"
     y="48"
     width="2"
     height="2"
     id="rect30" />
  <rect
     x="7"
     y="54"
     width="2"
     height="2"
     id="rect32" />
  <rect
     x="55"
     y="48"
     width="2"
     height="2"
     id="rect34" />
  <rect
     x="55"
     y="54"
     width="2"
     height="2"
     id="rect36" />
  <path
     d="M28,59h8a1,1,0,0,0,1-1V50a1,1,0,0,0-1-1H35V48a3,3,0,0,0-6,0v1H28a1,1,0,0,0-1,1v8A1,1,0,0,0,28,59Zm3-11a1,1,0,0,1,2,0v1H31Zm-2,3h6v6H29Z"
     id="path38" />
  <rect
     x="31"
     y="53"
     width="2"
     height="2"
     id="rect40" />
  <rect
     x="4"
     y="24"
     width="2"
     height="2"
     id="rect42" />
  <rect
     x="6"
     y="26"
     width="2"
     height="2"
     id="rect44" />
  <rect
     x="4"
     y="28"
     width="2"
     height="2"
     id="rect46" />
  <rect
     x="2"
     y="26"
     width="2"
     height="2"
     id="rect48" />
  <rect
     x="2"
     y="33"
     width="2"
     height="2"
     id="rect50" />
  <rect
     x="60"
     y="27"
     width="2"
     height="2"
     id="rect52" />
  <rect
     x="58"
     y="23"
     width="2"
     height="2"
     id="rect54" />
</svg>
