<?xml version="1.0" encoding="UTF-8" standalone="no"?>
<svg
   xmlns:dc="http://purl.org/dc/elements/1.1/"
   xmlns:cc="http://creativecommons.org/ns#"
   xmlns:rdf="http://www.w3.org/1999/02/22-rdf-syntax-ns#"
   xmlns:svg="http://www.w3.org/2000/svg"
   xmlns="http://www.w3.org/2000/svg"
   xmlns:sodipodi="http://sodipodi.sourceforge.net/DTD/sodipodi-0.dtd"
   xmlns:inkscape="http://www.inkscape.org/namespaces/inkscape"
   data-name="Layer 1"
   viewBox="0 0 100 125"
   x="0px"
   y="0px"
   version="1.1"
   id="svg12"
   sodipodi:docname="WildPig.svg"
   inkscape:version="0.92.2 (5c3e80d, 2017-08-06)">
  <metadata
     id="metadata18">
    <rdf:RDF>
      <cc:Work
         rdf:about="">
        <dc:format>image/svg+xml</dc:format>
        <dc:type
           rdf:resource="http://purl.org/dc/dcmitype/StillImage" />
      </cc:Work>
    </rdf:RDF>
  </metadata>
  <defs
     id="defs16" />
  <sodipodi:namedview
     pagecolor="#ffffff"
     bordercolor="#666666"
     borderopacity="1"
     objecttolerance="10"
     gridtolerance="10"
     guidetolerance="10"
     inkscape:pageopacity="0"
     inkscape:pageshadow="2"
     inkscape:window-width="1920"
     inkscape:window-height="1017"
     id="namedview14"
     showgrid="false"
     inkscape:zoom="5.3400704"
     inkscape:cx="21.649163"
     inkscape:cy="62.5"
     inkscape:window-x="-8"
     inkscape:window-y="-8"
     inkscape:window-maximized="1"
     inkscape:current-layer="svg12" />
  <title
     id="title2">icons_animals_4</title>
  <path
     d="m 7.4667062,44.809997 a 27.85,27.85 0 0 1 0.25,-8.87 l 2,0.22 c 0,1.3 0.9999998,3.81 2.2899998,6.27 a 28.09,28.09 0 0 0 7.38,-7.64 c -4.13,-9 -2.77,-9.84 -2.18,-10.2 a 3,3 0 0 1 3.06,0.33 1.54,1.54 0 0 1 0.74,-0.84 c 1.14,-0.57 4.48,0.77 8.23,2.67 14.64,-3 29.76,-0.06 32.55,1 2.2,0.85 9.16,0.64 11.74,0.49 a 28.27,28.27 0 0 1 17.86,8.2 14.11,14.11 0 0 1 3.849997,6.76 c 1.79,0.84 4.25,3.22 3.4,7.71 -1,5.29 -1.57,6.45 -1.67,6.63 l -1.75,-1 c 0,0 0.52,-1.11 1.46,-6 a 5,5 0 0 0 -1,-4.57 c 0.36,4.88 -1.279997,9.51 -2.099997,11.84 -0.2,0.56 -0.37,1 -0.43,1.29 -0.25,1 2.149997,4.2 4.549997,6.51 l 0.33,0.31 -0.9,19.72 h -8.099997 l 0.21,-1.18 a 81.09,81.09 0 0 0 1.29,-9.54 c -0.07,-1.59 -1.4,-2.94 -3.94,-4 l -4.55,14.73 h -8.63 l 4.66,-10 0.08,-0.14 c 0.49,-0.71 1.34,-2.48 0.7,-3.07 a 5.37,5.37 0 0 0 -1.42,-0.65 c -2.2,-0.81 -5.81,-2.13 -6.9,-7.88 a 77.3,77.3 0 0 1 -8.59,0.49 67.71,67.71 0 0 1 -8.08,-0.48 16.83,16.83 0 0 1 -1.34,6.33 c -1.76,3.17 -4.05,14.47 -4.08,14.58 l -0.16,0.8 h -8.75 l 4,-10.88 0.23,-0.14 c 0.1,-0.13 0.67,-1.14 -0.56,-4.19 l -7.44,15.21 h -8.3 l 5.06,-10.7 0.11,-0.22 0.17,-0.14 c 0.05,0 1.29,-1.11 0.49,-3.86 -0.85,-2.93 -1.86,-7.39 -2.19,-8.85 a 22.16,22.16 0 0 1 -3.21,-1.91 10.14,10.14 0 0 1 -2.15,0.22 24.84,24.84 0 0 1 -7.78,-1.75 c -0.78,-0.27 -1.52,-0.52 -2.13,-0.69 -4.31,-1.18 -8.7299998,0.94 -8.7799998,1 l -0.86,0.42 -0.46,-0.84 c -0.77,-1.42 -4.579996,-8.62 -4.579996,-11.16 v -0.91 l 0.81,-0.14 a 21.28,21.28 0 0 0 5.509996,-1.29 z m 13.1699998,-12.1 c 0.54,-1 0.91,-1.73 1.1,-2.17 a 23.09,23.09 0 0 1 -1.24,-3 6.22,6.22 0 0 0 -2,-1.28 29.43,29.43 0 0 0 2.14,6.45 z m 74.579997,50.94 v -0.51 h -3.719997 l -0.09,0.51 z m -14.659997,0 0.16,-0.51 h -3.93 l -0.24,0.51 z m -2.45,-13.72 a 6.06,6.06 0 0 1 2.11,1.07 c 2,1.84 0,5 -0.37,5.59 l -2.13,4.55 h 3.61 l 3.39,-11 a 6.4,6.4 0 0 1 -3.83,-4.6 l -1.83,-3.09 c -1.11,0.27 -3.42,0.78 -6.55,1.21 0.89,4.55 3.45,5.5 5.6,6.27 z m -31.46,13.72 0.11,-0.51 h -4.19 l -0.18,0.51 z m -12.17,0 0.25,-0.51 h -3.87 l -0.24,0.51 z m 0.75,-13.5 c 1,3.43 -0.41,5.24 -1,5.81 l -2.45,5.19 h 3.9 l 6.37,-13 c -0.84,-1.62 -1.71,-3 -2.52,-4.31 h -0.38 a 18.17,18.17 0 0 1 -5.8,-1 c 0.48,1.92 1.23,5.08 1.88,7.31 z m -28.2099998,-13.64 a 15.53,15.53 0 0 1 9.2899998,-0.71 c 0.67,0.18 1.44,0.45 2.25,0.73 3.13,1.08 7.42,2.56 10.57,0.87 1.92,-1 3.32,-3.19 4.16,-6.42 l 1.94,0.5 c -1,3.72 -2.66,6.28 -5,7.6 a 18.09,18.09 0 0 0 8,2.69 17.6,17.6 0 0 1 -2.27,-4.77 l 2,-0.49 a 21.05,21.05 0 0 0 2.9,5.57 55,55 0 0 1 3.64,6.34 c 2.36,5 1.36,6.94 0.69,7.61 l -1.86,5.11 h 3.9 c 0.84,-3.72 2.29,-9.54 3.57,-11.85 1.41,-2.53 1.26,-10.26 1.08,-13 l 2,-0.13 c 0,0.52 0.17,3 0.1,5.79 a 74.66,74.66 0 0 0 24,-1.27 c -1,-1.58 -1.73,-2.85 -1.91,-3.08 l 0.77,-0.6 0.77,-0.64 c 0.48,0.58 4,6.58 5.11,8.4 l 0.12,0.21 v 0.22 c 0,0.1 0.24,2.37 3.43,3.5 4,1.43 6.12,3.52 6.24,6.19 a 44.82,44.82 0 0 1 -0.69,6.3 h 3.509997 l 0.63,-14.44 c -1.619997,-1.61 -5.379997,-5.65 -4.789997,-8.11 0.09,-0.36 0.25,-0.83 0.49,-1.49 1.38,-3.9 4.609997,-13 -1.71,-19.28 a 26.8,26.8 0 0 0 -16.43,-7.61 c -1,0.06 -9.5,0.54 -12.51,-0.62 -2.41,-0.94 -15.73,-3.48 -29,-1.37 1.2,0.65 2.39,1.33 3.52,2 l -1,1.73 c -4.86,-2.83 -10.72,-5.77 -12.49,-6.05 0.14,1.23 1.76,4.67 3.8,8 l -1.71,1 c -0.35,-0.57 -0.82,-1.35 -1.3,-2.23 a 31.15,31.15 0 0 1 -9.87,11.5 c 0.88,1.61 1.74,3.06 2.29,3.94 l -1.7,1.06 a 74.13,74.13 0 0 1 -4.3099998,-7.93 27.27,27.27 0 0 0 1.6299998,9.11 l -1.8799998,0.67 a 30.71,30.71 0 0 1 -1.17,-4.24 23.23,23.23 0 0 1 -4.569996,1.18 54.55,54.55 0 0 0 3.769996,8.51 z"
     id="path4"
     inkscape:connector-curvature="0"
     style="fill:#800000;fill-opacity:1;stroke:none;stroke-opacity:1" />
  <circle
     cx="-28.460169"
     cy="-40.110336"
     r="1.5"
     id="circle6"
     transform="scale(-1)"
     style="fill:#ff0000;fill-opacity:1" />
  <path
     style="fill:#d38d5f;fill-opacity:1;stroke:none;stroke-width:0.18726344;stroke-opacity:1"
     d="m 43.574938,80.71137 c 0.07201,-0.180241 0.463741,-1.250395 0.870516,-2.378118 0.406774,-1.127725 0.902095,-2.31335 1.100714,-2.634722 0.574412,-0.929416 0.644669,-2.384912 0.198694,-4.116253 C 45.243496,69.6359 43.167595,65.468804 41.220392,62.5 c -1.466443,-2.235811 -2.979688,-5.054465 -2.979688,-5.550131 0,-0.408622 -0.353671,-0.473183 -1.401043,-0.255749 l -1.021127,0.211986 0.466563,1.239543 c 0.256611,0.68175 0.717008,1.701938 1.023105,2.267086 0.306097,0.565148 0.514289,1.069793 0.462647,1.121433 -0.146533,0.146534 -2.457537,-0.322209 -3.723885,-0.755319 -0.95604,-0.326979 -3.221778,-1.35437 -3.458584,-1.568281 -0.03748,-0.03386 0.445719,-0.537319 1.073782,-1.118795 0.628065,-0.581477 1.443781,-1.554121 1.812705,-2.161434 0.748377,-1.231965 1.834859,-4.038772 1.6997,-4.390994 -0.04809,-0.125322 -0.395092,-0.285577 -0.771112,-0.356119 -0.376017,-0.07054 -0.792101,-0.169867 -0.924628,-0.220722 -0.162018,-0.06217 -0.38118,0.343623 -0.668967,1.238639 -0.901486,2.803628 -2.710574,4.921023 -4.712406,5.515504 -2.214008,0.65749 -4.83173,0.299457 -9.635081,-1.317814 -2.439212,-0.821274 -2.749892,-0.880866 -5.034075,-0.965622 -2.386575,-0.08855 -3.330587,0.0382 -6.0419273,0.811278 C 6.9974402,56.355384 6.8716638,56.173671 5.8666293,54.04887 4.197569,50.520216 3.3394208,48.239887 3.6161853,48.068836 c 0.1265039,-0.07818 0.598492,-0.197409 1.0488623,-0.264947 0.4503704,-0.06754 1.2890013,-0.284549 1.8636243,-0.482247 1.1125139,-0.382761 1.3753539,-0.350057 1.3753539,0.171136 0,0.376025 0.8508525,3.373844 0.9998732,3.522866 0.1029686,0.102969 1.996342,-0.472114 1.996342,-0.606357 0,-0.04166 -0.213316,-0.811862 -0.474036,-1.711553 C 9.8763558,46.800321 9.4001449,44.049693 9.4116058,42.837338 l 0.00797,-0.842686 0.4785518,0.936318 c 1.2044094,2.356504 3.5145334,6.273247 3.6995814,6.272524 0.112816,-3.75e-4 0.553303,-0.232181 0.97886,-0.514975 L 15.35031,48.174346 14.250588,46.301712 C 13.645737,45.271763 13.150083,44.376 13.149132,44.311128 c -9.51e-4,-0.06487 0.482815,-0.479774 1.075035,-0.922005 2.642209,-1.973028 5.967613,-5.835145 7.814047,-9.075215 l 0.804946,-1.412499 0.584363,1.035432 c 0.321399,0.569488 0.63944,1.035432 0.706755,1.035432 0.196041,0 1.747039,-0.941199 1.747039,-1.060163 0,-0.05943 -0.285774,-0.582557 -0.635052,-1.162502 -1.327499,-2.204192 -3.277863,-6.473493 -3.05783,-6.693525 0.10488,-0.104881 3.634531,1.39208 5.565516,2.360392 1.081447,0.542302 3.001732,1.565059 4.2673,2.272793 1.265567,0.707735 2.374118,1.28679 2.463447,1.28679 0.170852,0 1.213239,-1.673204 1.104011,-1.772123 -0.03483,-0.03154 -0.79571,-0.475505 -1.690848,-0.986585 l -1.627525,-0.929235 1.814788,-0.224106 c 8.424824,-1.040369 19.770446,-0.397908 26.328298,1.490876 2.547267,0.73366 5.004595,0.953552 10.130227,0.906495 3.500273,-0.03214 4.586659,0.02135 5.799714,0.285529 5.36748,1.168936 9.74904,3.507353 13.307712,7.102259 2.977652,3.007971 3.915327,5.335511 3.895565,9.669756 -0.01281,2.808712 -0.425815,4.962167 -1.650596,8.606321 -0.465876,1.386143 -0.847047,2.79448 -0.847047,3.129639 0,1.426589 1.305829,3.625529 3.953283,6.657097 l 0.863438,0.98871 -0.325486,7.022379 c -0.179017,3.862309 -0.335825,7.043447 -0.348462,7.069196 -0.01264,0.02575 -0.748827,0.04681 -1.635978,0.04681 h -1.613003 l 0.118549,-0.795869 c 0.265073,-1.779565 0.483006,-4.03958 0.484345,-5.022754 0.0041,-3.013781 -1.721694,-4.766941 -6.740063,-6.846916 -1.432973,-0.593928 -2.808951,-2.069474 -2.808951,-3.012209 0,-0.30344 -4.802321,-8.487613 -5.233214,-8.918506 -0.181812,-0.181812 -1.695534,0.891425 -1.695534,1.202143 0,0.09329 0.386201,0.772127 0.858227,1.508533 0.593104,0.925304 0.790343,1.380871 0.638482,1.474728 -0.337352,0.208493 -4.460705,0.894671 -7.489139,1.246285 -3.020459,0.350688 -11.158774,0.45643 -14.291795,0.185694 -1.522087,-0.13153 -1.820118,-0.207512 -1.730453,-0.441174 0.05958,-0.155253 0.05225,-1.456927 -0.01629,-2.892608 l -0.124609,-2.610331 -1.001322,0.05529 -1.00132,0.05529 -0.07205,4.494323 c -0.08207,5.119481 -0.297303,6.569073 -1.321075,8.897551 -0.795907,1.810218 -1.881066,5.312915 -2.74045,8.845661 l -0.626368,2.574872 h -1.852875 c -1.689676,0 -1.841343,-0.02886 -1.721947,-0.327711 z M 29.238666,41.439788 c 0.909533,-0.470338 1.060544,-1.692119 0.302799,-2.449863 -0.965341,-0.965342 -2.611473,-0.251733 -2.611473,1.132093 0,0.536084 0.123064,0.809813 0.516053,1.147848 0.595496,0.512224 1.047777,0.555096 1.792621,0.169922 z"
     id="path822"
     inkscape:connector-curvature="0" />
  <path
     style="fill:#d38d5f;fill-opacity:1;stroke:none;stroke-width:0.18726344;stroke-opacity:1"
     d="m 32.061011,80.879204 c 0,-0.294839 2.106652,-4.606563 2.620973,-5.364394 1.220617,-1.79853 1.209526,-3.290197 -0.05987,-8.052329 -0.466725,-1.750913 -0.906225,-3.469636 -0.976667,-3.819384 -0.121181,-0.601665 -0.104265,-0.628946 0.314141,-0.506638 0.91317,0.266936 3.107817,0.659193 4.324121,0.772865 l 1.260216,0.117777 0.91752,1.530427 c 1.713148,2.857535 1.920956,1.73379 -1.676857,9.06778 l -3.146385,6.413773 h -1.788595 c -0.983727,0 -1.788595,-0.07194 -1.788595,-0.159877 z"
     id="path824"
     inkscape:connector-curvature="0" />
  <path
     style="fill:#d38d5f;fill-opacity:1;stroke:none;stroke-width:0.18726344;stroke-opacity:1"
     d="m 77.940556,80.951564 c 0,-0.04814 0.691138,-1.540804 1.535862,-3.317043 1.223999,-2.573755 1.551338,-3.443468 1.612075,-4.283148 0.131952,-1.824223 -0.54959,-2.613688 -3.067219,-3.552916 -1.809059,-0.674888 -2.885328,-1.319252 -3.640921,-2.179825 -0.706382,-0.804525 -1.467952,-2.366816 -1.624744,-3.333016 -0.102056,-0.628896 -0.08043,-0.66224 0.432043,-0.666118 0.296712,-0.0022 1.731003,-0.239593 3.187313,-0.527439 l 2.647838,-0.523358 0.956984,1.61649 c 0.526341,0.88907 0.956984,1.719099 0.956984,1.844509 0,0.86946 1.740094,3.049766 3.175659,3.979042 l 0.460339,0.297989 -1.468591,4.757569 c -0.807724,2.616663 -1.545516,5.031442 -1.639537,5.366175 l -0.170948,0.608606 h -1.676569 c -0.922112,0 -1.676568,-0.03938 -1.676568,-0.08752 z"
     id="path826"
     inkscape:connector-curvature="0" />
  <path
     style="fill:#d38d5f;fill-opacity:1;stroke:none;stroke-width:0.18726344;stroke-opacity:1"
     d="m 20.28496,31.741979 c -0.468161,-1.149694 -1.519654,-4.506553 -1.519654,-4.851448 0,-0.4449 0.05634,-0.437067 0.907441,0.126164 0.588418,0.389397 0.817526,0.742183 1.318668,2.03052 l 0.60652,1.559244 -0.423681,0.872063 c -0.233024,0.479634 -0.472682,0.872063 -0.532574,0.872063 -0.05989,0 -0.220415,-0.273873 -0.35672,-0.608606 z"
     id="path828"
     inkscape:connector-curvature="0" />
</svg>
