<?xml version="1.0" encoding="UTF-8" standalone="no"?>
<svg
   xmlns:dc="http://purl.org/dc/elements/1.1/"
   xmlns:cc="http://creativecommons.org/ns#"
   xmlns:rdf="http://www.w3.org/1999/02/22-rdf-syntax-ns#"
   xmlns:svg="http://www.w3.org/2000/svg"
   xmlns="http://www.w3.org/2000/svg"
   xmlns:sodipodi="http://sodipodi.sourceforge.net/DTD/sodipodi-0.dtd"
   xmlns:inkscape="http://www.inkscape.org/namespaces/inkscape"
   data-name="Layer 1"
   viewBox="0 0 100 125"
   x="0px"
   y="0px"
   version="1.1"
   id="svg12"
   sodipodi:docname="Boar.svg"
   inkscape:version="0.92.4 (5da689c313, 2019-01-14)">
  <metadata
     id="metadata18">
    <rdf:RDF>
      <cc:Work
         rdf:about="">
        <dc:format>image/svg+xml</dc:format>
        <dc:type
           rdf:resource="http://purl.org/dc/dcmitype/StillImage" />
      </cc:Work>
    </rdf:RDF>
  </metadata>
  <defs
     id="defs16" />
  <sodipodi:namedview
     pagecolor="#ffffff"
     bordercolor="#666666"
     borderopacity="1"
     objecttolerance="10"
     gridtolerance="10"
     guidetolerance="10"
     inkscape:pageopacity="0"
     inkscape:pageshadow="2"
     inkscape:window-width="1920"
     inkscape:window-height="1017"
     id="namedview14"
     showgrid="false"
     inkscape:zoom="1.888"
     inkscape:cx="50"
     inkscape:cy="62.5"
     inkscape:window-x="-8"
     inkscape:window-y="-8"
     inkscape:window-maximized="1"
     inkscape:current-layer="svg12" />
  <title
     id="title2">icons_animals_4</title>
  <path
     d="m 7.4667062,44.809997 a 27.85,27.85 0 0 1 0.25,-8.87 l 2,0.22 c 0,1.3 0.9999998,3.81 2.2899998,6.27 a 28.09,28.09 0 0 0 7.38,-7.64 c -4.13,-9 -2.77,-9.84 -2.18,-10.2 a 3,3 0 0 1 3.06,0.33 1.54,1.54 0 0 1 0.74,-0.84 c 1.14,-0.57 4.48,0.77 8.23,2.67 14.64,-3 29.76,-0.06 32.55,1 2.2,0.85 9.16,0.64 11.74,0.49 a 28.27,28.27 0 0 1 17.86,8.2 14.11,14.11 0 0 1 3.849997,6.76 c 1.79,0.84 4.25,3.22 3.4,7.71 -1,5.29 -1.57,6.45 -1.67,6.63 l -1.75,-1 c 0,0 0.52,-1.11 1.46,-6 a 5,5 0 0 0 -1,-4.57 c 0.36,4.88 -1.279997,9.51 -2.099997,11.84 -0.2,0.56 -0.37,1 -0.43,1.29 -0.25,1 2.149997,4.2 4.549997,6.51 l 0.33,0.31 -0.9,19.72 h -8.099997 l 0.21,-1.18 a 81.09,81.09 0 0 0 1.29,-9.54 c -0.07,-1.59 -1.4,-2.94 -3.94,-4 l -4.55,14.73 h -8.63 l 4.66,-10 0.08,-0.14 c 0.49,-0.71 1.34,-2.48 0.7,-3.07 a 5.37,5.37 0 0 0 -1.42,-0.65 c -2.2,-0.81 -5.81,-2.13 -6.9,-7.88 a 77.3,77.3 0 0 1 -8.59,0.49 67.71,67.71 0 0 1 -8.08,-0.48 16.83,16.83 0 0 1 -1.34,6.33 c -1.76,3.17 -4.05,14.47 -4.08,14.58 l -0.16,0.8 h -8.75 l 4,-10.88 0.23,-0.14 c 0.1,-0.13 0.67,-1.14 -0.56,-4.19 l -7.44,15.21 h -8.3 l 5.06,-10.7 0.11,-0.22 0.17,-0.14 c 0.05,0 1.29,-1.11 0.49,-3.86 -0.85,-2.93 -1.86,-7.39 -2.19,-8.85 a 22.16,22.16 0 0 1 -3.21,-1.91 10.14,10.14 0 0 1 -2.15,0.22 24.84,24.84 0 0 1 -7.78,-1.75 c -0.78,-0.27 -1.52,-0.52 -2.13,-0.69 -4.31,-1.18 -8.7299998,0.94 -8.7799998,1 l -0.86,0.42 -0.46,-0.84 c -0.77,-1.42 -4.579996,-8.62 -4.579996,-11.16 v -0.91 l 0.81,-0.14 a 21.28,21.28 0 0 0 5.509996,-1.29 z m 13.1699998,-12.1 c 0.54,-1 0.91,-1.73 1.1,-2.17 a 23.09,23.09 0 0 1 -1.24,-3 6.22,6.22 0 0 0 -2,-1.28 29.43,29.43 0 0 0 2.14,6.45 z m 74.579997,50.94 v -0.51 h -3.719997 l -0.09,0.51 z m -14.659997,0 0.16,-0.51 h -3.93 l -0.24,0.51 z m -2.45,-13.72 a 6.06,6.06 0 0 1 2.11,1.07 c 2,1.84 0,5 -0.37,5.59 l -2.13,4.55 h 3.61 l 3.39,-11 a 6.4,6.4 0 0 1 -3.83,-4.6 l -1.83,-3.09 c -1.11,0.27 -3.42,0.78 -6.55,1.21 0.89,4.55 3.45,5.5 5.6,6.27 z m -31.46,13.72 0.11,-0.51 h -4.19 l -0.18,0.51 z m -12.17,0 0.25,-0.51 h -3.87 l -0.24,0.51 z m 0.75,-13.5 c 1,3.43 -0.41,5.24 -1,5.81 l -2.45,5.19 h 3.9 l 6.37,-13 c -0.84,-1.62 -1.71,-3 -2.52,-4.31 h -0.38 a 18.17,18.17 0 0 1 -5.8,-1 c 0.48,1.92 1.23,5.08 1.88,7.31 z m -28.2099998,-13.64 a 15.53,15.53 0 0 1 9.2899998,-0.71 c 0.67,0.18 1.44,0.45 2.25,0.73 3.13,1.08 7.42,2.56 10.57,0.87 1.92,-1 3.32,-3.19 4.16,-6.42 l 1.94,0.5 c -1,3.72 -2.66,6.28 -5,7.6 a 18.09,18.09 0 0 0 8,2.69 17.6,17.6 0 0 1 -2.27,-4.77 l 2,-0.49 a 21.05,21.05 0 0 0 2.9,5.57 55,55 0 0 1 3.64,6.34 c 2.36,5 1.36,6.94 0.69,7.61 l -1.86,5.11 h 3.9 c 0.84,-3.72 2.29,-9.54 3.57,-11.85 1.41,-2.53 1.26,-10.26 1.08,-13 l 2,-0.13 c 0,0.52 0.17,3 0.1,5.79 a 74.66,74.66 0 0 0 24,-1.27 c -1,-1.58 -1.73,-2.85 -1.91,-3.08 l 0.77,-0.6 0.77,-0.64 c 0.48,0.58 4,6.58 5.11,8.4 l 0.12,0.21 v 0.22 c 0,0.1 0.24,2.37 3.43,3.5 4,1.43 6.12,3.52 6.24,6.19 a 44.82,44.82 0 0 1 -0.69,6.3 h 3.509997 l 0.63,-14.44 c -1.619997,-1.61 -5.379997,-5.65 -4.789997,-8.11 0.09,-0.36 0.25,-0.83 0.49,-1.49 1.38,-3.9 4.609997,-13 -1.71,-19.28 a 26.8,26.8 0 0 0 -16.43,-7.61 c -1,0.06 -9.5,0.54 -12.51,-0.62 -2.41,-0.94 -15.73,-3.48 -29,-1.37 1.2,0.65 2.39,1.33 3.52,2 l -1,1.73 c -4.86,-2.83 -10.72,-5.77 -12.49,-6.05 0.14,1.23 1.76,4.67 3.8,8 l -1.71,1 c -0.35,-0.57 -0.82,-1.35 -1.3,-2.23 a 31.15,31.15 0 0 1 -9.87,11.5 c 0.88,1.61 1.74,3.06 2.29,3.94 l -1.7,1.06 a 74.13,74.13 0 0 1 -4.3099998,-7.93 27.27,27.27 0 0 0 1.6299998,9.11 l -1.8799998,0.67 a 30.71,30.71 0 0 1 -1.17,-4.24 23.23,23.23 0 0 1 -4.569996,1.18 54.55,54.55 0 0 0 3.769996,8.51 z"
     id="path4"
     inkscape:connector-curvature="0" />
  <circle
     cx="-28.460169"
     cy="-40.110336"
     r="1.5"
     id="circle6"
     transform="scale(-1)" />
</svg>
