<?xml version="1.0" encoding="UTF-8" standalone="no"?>
<svg
   xmlns:dc="http://purl.org/dc/elements/1.1/"
   xmlns:cc="http://creativecommons.org/ns#"
   xmlns:rdf="http://www.w3.org/1999/02/22-rdf-syntax-ns#"
   xmlns:svg="http://www.w3.org/2000/svg"
   xmlns="http://www.w3.org/2000/svg"
   xmlns:sodipodi="http://sodipodi.sourceforge.net/DTD/sodipodi-0.dtd"
   xmlns:inkscape="http://www.inkscape.org/namespaces/inkscape"
   data-name="Layer 1"
   viewBox="0 0 97.665596 61.743229"
   x="0px"
   y="0px"
   version="1.1"
   id="svg12"
   sodipodi:docname="noun_boar_1046571.svg"
   width="97.665596"
   height="61.743229"
   inkscape:version="0.92.2 (5c3e80d, 2017-08-06)">
  <metadata
     id="metadata18">
    <rdf:RDF>
      <cc:Work
         rdf:about="">
        <dc:format>image/svg+xml</dc:format>
        <dc:type
           rdf:resource="http://purl.org/dc/dcmitype/StillImage" />
        <dc:title>icons_animals_4</dc:title>
      </cc:Work>
    </rdf:RDF>
  </metadata>
  <defs
     id="defs16" />
  <sodipodi:namedview
     pagecolor="#ffffff"
     bordercolor="#666666"
     borderopacity="1"
     objecttolerance="10"
     gridtolerance="10"
     guidetolerance="10"
     inkscape:pageopacity="0"
     inkscape:pageshadow="2"
     inkscape:window-width="1366"
     inkscape:window-height="705"
     id="namedview14"
     showgrid="false"
     inkscape:zoom="7.0522694"
     inkscape:cx="53.424086"
     inkscape:cy="33.000618"
     inkscape:window-x="-8"
     inkscape:window-y="236"
     inkscape:window-maximized="1"
     inkscape:current-layer="svg12" />
  <title
     id="title2">icons_animals_4</title>
  <path
     d="m 96.853294,22.163095 a 21.28,21.28 0 0 1 -5.46,-1.3 27.85,27.85 0 0 0 -0.25,-8.87 1.0060318,1.0060318 0 0 0 -2,0.22 c 0,1.3 -1,3.81 -2.29,6.27 a 28.09,28.09 0 0 1 -7.38,-7.64 c 4.13,-9.0000004 2.77,-9.8400004 2.18,-10.20000042 a 3,3 0 0 0 -3.06,0.33 1.54,1.54 0 0 0 -0.74,-0.84 c -1.14,-0.57 -4.48,0.76 -8.23,2.67000002 -14.64,-3.00000002 -29.76,-0.06 -32.54,1 -2.2,0.85 -9.16,0.64 -11.74,0.49 a 28.27,28.27 0 0 0 -17.9200005,8.2000004 14.11,14.11 0 0 0 -3.85,6.76 c -1.79,0.84 -4.24999998,3.22 -3.39999998,7.71 0.99999998,5.29 1.56999998,6.45 1.67999998,6.62 a 1,1 0 0 0 0.85,0.49 1,1 0 0 0 0.9,-1.45 c 0,0 -0.52,-1.11 -1.46,-6 a 5,5 0 0 1 1,-4.57 c -0.36,4.85 1.27,9.53 2.1,11.81 0.2,0.56 0.37,1 0.43,1.29 0.25,1 -2.15,4.2 -4.55,6.51 a 1,1 0 0 0 -0.30999998,0.77 l 0.83999998,18.31 a 1,1 0 0 0 1,1 h 5.94 a 1,1 0 0 0 1,-1.18 81.09,81.09 0 0 1 -1.29,-9.54 c 0.07,-1.59 1.4,-2.94 3.9400005,-4 l 4.33,14 a 1,1 0 0 0 1,0.71 h 6.28 a 1,1 0 0 0 0.91,-1.42 l -4,-8.55 -0.1,-0.18 c -0.49,-0.71 -1.34,-2.48 -0.7,-3.07 a 5.37,5.37 0 0 1 1.42,-0.65 c 2.2,-0.81 5.81,-2.13 6.9,-7.88 a 77.3,77.3 0 0 0 8.59,0.49 67.71,67.71 0 0 0 8.08,-0.48 16.83,16.83 0 0 0 1.34,6.33 c 1.76,3.17 4.05,14.47 4.08,14.58 a 1,1 0 0 0 1,0.8 h 6.48 a 1,1 0 0 0 0.94,-1.34 l -3.35,-9.2 a 1,1 0 0 0 -0.35,-0.46 c -0.07,-0.09 -0.71,-1.07 0.55,-4.2 l 7.21,14.64 a 1,1 0 0 0 0.9,0.56 h 6.06 a 1,1 0 0 0 0.9,-1.43 l -4.42,-9.29 a 1.1,1.1 0 0 0 -0.29,-0.36 c -0.05,0 -1.29,-1.11 -0.49,-3.86 0.85,-2.93 1.86,-7.39 2.19,-8.85 a 22.16,22.16 0 0 0 3.21,-1.91 10.14,10.14 0 0 0 2.15,0.22 24.84,24.84 0 0 0 7.79,-1.74 c 0.78,-0.27 1.52,-0.52 2.13,-0.69 4.31,-1.18 8.73,0.94 8.78,1 a 1,1 0 0 0 1.32,-0.42 c 0.77,-1.42 4.58,-8.62 4.58,-11.16 a 1,1 0 0 0 -0.81,-1.05 z m -18.68,-13.3900004 c -0.54,-1 -0.91,-1.73 -1.1,-2.17 a 23.09,23.09 0 0 0 1.24,-3 6.22,6.22 0 0 1 2,-1.28 29.43,29.43 0 0 1 -2.14,6.45 z m -57.47,37.2200004 a 6.06,6.06 0 0 0 -2.1,1.07 c -2,1.84 0,5 0.37,5.59 l 3.3,7.06 h -4 l -4.18,-13.49 a 6.4,6.4 0 0 0 3.83,-4.64 l 1.83,-3.09 c 1.11,0.27 3.42,0.78 6.55,1.21 -0.89,4.56 -3.45,5.51 -5.6,6.29 z m 42.89,0.22 c -1,3.43 0.41,5.24 1,5.81 l 3.63,7.69 h -3.89 l -7.59,-15.53 c 0.84,-1.62 1.71,-3 2.52,-4.31 h 0.38 a 18.17,18.17 0 0 0 5.8,-1 c -0.46,1.95 -1.21,5.1 -1.86,7.33 z m 28.2,-13.63 a 15.54,15.54 0 0 0 -9.29,-0.71 c -0.67,0.18 -1.44,0.45 -2.25,0.73 -3.13,1.08 -7.42,2.56 -10.57,0.87 -1.92,-1 -3.32,-3.19 -4.16,-6.42 a 1.0016986,1.0016986 0 1 0 -1.94,0.5 c 1,3.72 2.66,6.28 5,7.6 a 18.09,18.09 0 0 1 -8,2.69 17.6,17.6 0 0 0 2.27,-4.77 1.0295752,1.0295752 0 1 0 -2,-0.49 21.05,21.05 0 0 1 -2.9,5.57 58.93,58.93 0 0 0 -3.3,5.67 v 0 c -0.11,0.22 -0.22,0.41 -0.32,0.64 -2.36,5 -1.36,6.94 -0.69,7.61 l 2.77,7.62 h -4.25 c -0.57,-2.71 -2.48,-11.4 -4.12,-14.36 -1.41,-2.53 -1.26,-10.26 -1.08,-13 a 1,1 0 0 0 -0.93,-1.06 1,1 0 0 0 -1.06,0.93 c 0,0.52 -0.17,3 -0.1,5.79 a 74.63,74.63 0 0 1 -24,-1.27 c 0.95,-1.58 1.73,-2.85 1.91,-3.08 a 1,1 0 0 0 -1.54,-1.27 c -0.48,0.58 -4,6.58 -5.11,8.4 a 1.06,1.06 0 0 0 -0.14,0.43 c 0,0.1 -0.24,2.37 -3.43,3.5 -4.0000005,1.43 -6.1200005,3.52 -6.2400005,6.19 a 67.06,67.06 0 0 0 1.11,8.81 h -3.84 l -0.74,-16.91 c 1.62,-1.61 5.38,-5.65 4.79,-8.11 -0.09,-0.36 -0.25,-0.83 -0.49,-1.49 -1.38,-3.9 -4.61,-13 1.71,-19.28 A 26.8,26.8 0 0 1 25.293294,6.3030946 c 1,0.06 9.51,0.54 12.51,-0.62 2.41,-0.93 15.73,-3.48 29,-1.37 -1.2,0.65 -2.39,1.33 -3.52,2 a 1,1 0 1 0 1,1.73 c 4.86,-2.83 10.72,-5.77 12.49,-6.05 a 4.12,4.12 0 0 1 -0.15,0.66 v 0 a 23.75,23.75 0 0 1 -1.48,3.46 v 0 c -0.61,1.2 -1.34,2.52 -2.14,3.83 a 1,1 0 1 0 1.71,1.0000004 c 0.35,-0.57 0.82,-1.3500004 1.3,-2.2300004 a 31.15,31.15 0 0 0 9.84,11.5500004 c -0.88,1.61 -1.74,3.06 -2.29,3.94 a 1.0016986,1.0016986 0 0 0 1.7,1.06 74.13,74.13 0 0 0 4.31,-7.93 27.27,27.27 0 0 1 -1.63,9.11 1,1 0 0 0 0.61,1.28 1,1 0 0 0 0.34,0.06 1,1 0 0 0 0.94,-0.66 30.71,30.71 0 0 0 1.17,-4.24 23.23,23.23 0 0 0 4.55,1.15 54.55,54.55 0 0 1 -3.76,8.55 z"
     id="path4"
     inkscape:connector-curvature="0" />
  <circle
     cx="74.453293"
     cy="16.693094"
     r="1.5"
     id="circle6" />
  <path
     style="fill:#ff0000;fill-opacity:1;stroke:#ff0000;stroke-width:1.07186139;stroke-miterlimit:4;stroke-dasharray:none;stroke-opacity:1"
     d="m 74.109869,18.082886 c -0.502054,-0.08041 -1.032878,-0.821185 -1.032878,-1.441396 0,-1.479724 2.001828,-1.867809 2.647746,-0.513306 0.496025,1.040175 -0.417893,2.146419 -1.614868,1.954702 z"
     id="path828"
     inkscape:connector-curvature="0" />
  <path
     style="fill:#d45500;fill-opacity:1;stroke:#d45500;stroke-width:1.07186139;stroke-miterlimit:4;stroke-dasharray:none;stroke-opacity:1"
     d="M 3.6104106,58.357191 C 3.5628873,57.674787 3.3885819,53.914094 3.2230653,50.000097 L 2.922126,42.883738 3.9602912,41.739563 C 6.1401184,39.337148 7.3449253,37.434675 7.6668965,35.886579 7.8348187,35.079178 7.8314026,35.062881 6.8792164,32.128923 5.45386,27.736992 5.3053722,26.922764 5.3074633,23.510252 5.3091071,20.827843 5.3300656,20.606747 5.6945345,19.426944 6.4355989,17.028086 7.4557636,15.400491 9.3566165,13.584369 12.794492,10.29974 17.023912,8.0466557 21.898944,6.9028584 23.574469,6.5097408 23.634385,6.5060749 28.694114,6.48712 c 5.655227,-0.021186 7.199365,-0.1515241 9.241177,-0.7800332 2.278752,-0.7014439 5.93295,-1.3394203 10.256093,-1.7905834 1.771736,-0.1848984 3.630436,-0.24434 7.65711,-0.244876 5.065878,-6.806e-4 5.966587,0.046866 9.535257,0.5032822 l 1.240053,0.158597 -1.736347,0.9767018 c -1.852644,1.0421173 -2.232643,1.3681207 -2.232643,1.9153908 0,0.4314188 0.592044,1.041333 1.010823,1.041333 0.173098,0 1.404325,-0.6022313 2.736063,-1.3382916 2.996975,-1.6564488 7.883371,-4.0463112 9.279172,-4.5383018 l 1.044097,-0.3680234 -0.09645,0.3926906 c -0.219814,0.8949486 -1.392899,3.4171158 -2.608644,5.6086652 -0.713559,1.2862881 -1.297379,2.4592208 -1.297379,2.6065168 0,0.394232 0.369323,0.853289 0.766742,0.953034 0.655613,0.164549 1.015563,-0.123552 1.735221,-1.388847 0.378674,-0.6657827 0.720404,-1.2118727 0.759398,-1.2135339 0.03899,-0.00166 0.322376,0.4591701 0.629737,1.0240689 0.724734,1.331991 2.149691,3.430944 3.191351,4.700842 1.387797,1.691876 4.303006,4.41897 5.935356,5.552354 0.02379,0.01652 -0.502634,0.961677 -1.169836,2.10035 -0.667202,1.138674 -1.213095,2.202842 -1.213095,2.364819 0,0.771988 0.732478,1.268797 1.439121,0.976095 0.447726,-0.185453 1.889432,-2.523419 3.623357,-5.875874 l 1.026756,-1.985177 0.0014,0.779891 c 0.0031,1.666432 -0.595691,4.80511 -1.39317,7.302614 -0.227584,0.712734 -0.243674,0.919819 -0.09915,1.276185 0.209039,0.515472 0.76773,0.750449 1.321722,0.555895 0.469719,-0.16496 0.839142,-1.010235 1.397933,-3.198612 0.206367,-0.808189 0.393019,-1.490049 0.414782,-1.515245 0.02176,-0.0252 0.540063,0.111355 1.151779,0.303448 0.611713,0.192093 1.574825,0.433935 2.140245,0.537427 0.565421,0.103492 1.028038,0.244786 1.028038,0.313988 0,0.482798 -2.846553,7.028246 -3.470939,7.98118 l -0.197555,0.301506 -0.790981,-0.267033 c -2.06968,-0.698721 -4.63732,-0.962037 -6.74259,-0.691463 -0.907201,0.116595 -2.319456,0.487761 -4.324849,1.136647 -3.58811,1.161006 -4.960297,1.460727 -6.73542,1.471189 -3.660979,0.02158 -5.879231,-1.867311 -7.286589,-6.204687 -0.199722,-0.615525 -0.470397,-1.237665 -0.6015,-1.382533 -0.333568,-0.368589 -1.100856,-0.344007 -1.465076,0.04694 -0.393482,0.422352 -0.364707,0.869699 0.150324,2.337086 0.913285,2.602052 2.17058,4.53079 3.675869,5.638919 l 0.843041,0.620613 -1.251997,0.646631 c -0.688599,0.355647 -1.820181,0.83601 -2.514627,1.067472 -1.234179,0.411358 -3.710214,0.945762 -3.829461,0.826515 -0.033,-0.033 0.19319,-0.500551 0.502655,-1.038995 0.66885,-1.163747 1.436041,-3.043837 1.526755,-3.741489 0.09522,-0.7323 -0.351661,-1.166566 -1.141258,-1.109041 -0.668173,0.04868 -0.642258,0.01131 -1.652661,2.382661 -0.315687,0.740896 -0.918871,1.889463 -1.340411,2.55237 -2.258824,3.552207 -2.908401,4.641662 -3.846834,6.451824 -2.142112,4.131962 -2.652957,6.914767 -1.574219,8.575486 0.26417,0.406692 0.96214,2.242776 2.898559,7.624973 0.04913,0.136553 -0.405742,0.177248 -1.981182,0.177248 H 52.214284 L 51.532665,56.584714 C 50.624437,52.569733 49.47556,48.570867 48.675386,46.639462 47.12294,42.892268 47.031005,42.330532 46.983424,36.30133 c -0.03223,-4.084097 -0.0592,-4.534421 -0.286595,-4.785694 -0.295321,-0.326326 -1.022467,-0.3673 -1.415681,-0.07977 -0.331544,0.242431 -0.468123,1.496862 -0.482876,4.43503 l -0.01009,2.00936 -0.389945,0.07799 c -2.386216,0.477258 -11.582004,0.453965 -15.736244,-0.03986 -3.74064,-0.444658 -7.554131,-1.117748 -7.554131,-1.333319 0,-0.0733 0.423933,-0.8118 0.942074,-1.641103 1.067998,-1.709368 1.160993,-2.149877 0.562534,-2.66465 -0.505784,-0.435058 -0.872622,-0.419284 -1.346402,0.05789 -0.581134,0.585298 -5.209103,8.378193 -5.401313,9.095105 -0.433206,1.615795 -1.39792,2.448645 -4.044684,3.491826 -2.142362,0.84438 -4.0805294,2.265922 -4.8274021,3.540641 -0.6343607,1.082691 -0.7866492,2.047895 -0.6247376,3.959585 0.1426722,1.684533 0.7600429,6.228533 0.9312903,6.854525 0.087262,0.318987 0.086935,0.319047 -1.7575842,0.319047 H 3.6968167 Z M 75.458383,18.38155 c 0.885408,-0.452527 1.221567,-1.799113 0.673511,-2.697951 -0.401633,-0.658696 -0.924345,-0.948482 -1.710861,-0.948482 -1.816014,0 -2.588891,2.126992 -1.240433,3.413724 0.254972,0.2433 0.591202,0.473544 0.747181,0.511653 0.376729,0.09204 1.041927,-0.02918 1.530602,-0.278944 z"
     id="path830"
     inkscape:connector-curvature="0" />
  <path
     style="fill:#d45500;fill-opacity:1;stroke:#d45500;stroke-width:1.07186139;stroke-miterlimit:4;stroke-dasharray:none;stroke-opacity:1"
     d="m 18.271937,59.533919 c 0,-0.0599 -3.688147,-12.024586 -3.969013,-12.875838 -0.119515,-0.362227 -0.08663,-0.412261 0.451311,-0.686699 1.287479,-0.656823 2.55934,-2.193695 3.036526,-3.66923 0.186916,-0.577977 1.652945,-3.302972 1.970011,-3.661776 0.02056,-0.02326 1.018021,0.149149 2.216586,0.383141 1.198566,0.233992 2.645495,0.498694 3.215398,0.588228 l 1.036189,0.162789 -0.09414,0.446658 c -0.180809,0.857873 -0.952423,2.524926 -1.474092,3.184741 -0.875617,1.107492 -1.955652,1.788527 -4.013687,2.530902 -1.286641,0.464117 -1.96158,0.889513 -2.470137,1.556861 -0.368868,0.484044 -0.401246,0.625383 -0.401246,1.751554 0,1.220206 0.0036,1.2322 0.905087,3.050636 0.9046,1.824632 3.419762,7.158614 3.419762,7.252396 0,0.0273 -0.861425,0.04964 -1.914277,0.04964 -1.052853,0 -1.914278,-0.0288 -1.914278,-0.06401 z"
     id="path832"
     inkscape:connector-curvature="0" />
  <path
     style="fill:#d45500;fill-opacity:1;stroke:#d45500;stroke-width:1.07186139;stroke-miterlimit:4;stroke-dasharray:none;stroke-opacity:1"
     d="m 63.0168,56.868309 c -0.72601,-1.50129 -2.414311,-4.960192 -3.75178,-7.686449 -1.343845,-2.739253 -2.395703,-5.050801 -2.35116,-5.166878 0.04433,-0.115526 0.601997,-1.091367 1.239257,-2.168535 l 1.158655,-1.958488 0.92708,-5.7e-4 c 1.069484,-6.58e-4 3.136298,-0.314311 4.237876,-0.643127 0.417136,-0.124512 0.781381,-0.203434 0.809434,-0.17538 0.02805,0.02805 -0.424905,1.925754 -1.006575,4.217112 -0.828267,3.262776 -1.05758,4.385827 -1.05758,5.179443 0,1.268612 0.298497,2.294344 0.896142,3.079436 0.344876,0.453043 3.291148,6.429141 3.882847,7.875806 0.05583,0.136498 -0.35704,0.177248 -1.795842,0.177248 h -1.868337 z"
     id="path834"
     inkscape:connector-curvature="0" />
  <path
     style="fill:#d45500;fill-opacity:1;stroke:#d45500;stroke-width:1.07186139;stroke-miterlimit:4;stroke-dasharray:none;stroke-opacity:1"
     d="M 77.628758,7.5573408 77.128597,6.5641525 77.464533,5.8912104 c 0.184765,-0.3701183 0.451754,-0.9919885 0.593309,-1.3819339 0.141554,-0.3899454 0.351502,-0.8199287 0.46655,-0.9555186 0.210002,-0.2474985 1.467884,-1.1005571 1.622832,-1.1005571 0.154374,0 -0.717097,3.0407083 -1.310627,4.572996 -0.324747,0.8383826 -0.616825,1.5243321 -0.649063,1.5243321 -0.03224,0 -0.283687,-0.4469348 -0.558776,-0.9931881 z"
     id="path836"
     inkscape:connector-curvature="0" />
  <path
     style="fill:#552200;fill-opacity:1;stroke:#552200;stroke-width:1.07186139;stroke-miterlimit:4;stroke-dasharray:none;stroke-opacity:1"
     d="M 2.0441069,61.37685 C 1.8259664,61.158711 1.6960565,60.866566 1.6960565,60.594149 c 0,-0.705096 -0.6907294,-15.844426 -0.7836144,-17.175173 L 0.8273411,42.199747 2.3335214,40.51211 c 1.6694438,-1.870571 3.1008717,-3.890643 3.320461,-4.685931 0.1271078,-0.460346 0.056572,-0.777499 -0.6230957,-2.80166 -1.3323949,-3.968092 -1.7883154,-6.266482 -1.823951,-9.19492 -0.012098,-0.994196 -0.053901,-1.807649 -0.092896,-1.807675 -0.1362077,-9e-5 -0.8186367,1.209401 -0.9966181,1.76634 -0.098711,0.308883 -0.1770619,0.97888 -0.1741139,1.488882 0.00585,1.012775 0.809829,4.897986 1.4021871,6.776076 0.351009,1.112885 0.3573487,1.187013 0.1310538,1.532383 -0.3193127,0.487332 -1.1333867,0.445059 -1.513068,-0.07857 C 1.6258381,33.041381 1.1054814,31.197564 0.55471463,28.515251 0.18153527,26.697815 0.11757228,26.104874 0.16012029,24.857336 0.20666216,23.492696 0.25350923,23.27971 0.7215204,22.304967 1.2645278,21.174027 2.203338,20.105604 3.0938556,19.605105 3.5484432,19.349612 3.6602984,19.176545 3.9356371,18.302668 4.6439922,16.054469 5.844436,14.187615 7.8388094,12.232699 11.103093,9.032996 15.371921,6.576983 19.776424,5.3645529 22.882712,4.5094827 23.77317,4.4179912 28.848698,4.4324068 34.004211,4.4470498 35.439821,4.329945 37.570581,3.720951 40.164805,2.9794935 43.412967,2.4141233 47.851412,1.9314845 c 1.758248,-0.1911928 3.529132,-0.247414 7.869807,-0.249847 5.988445,-0.00336 7.699998,0.1160496 11.942662,0.8331776 l 2.010325,0.3398007 0.686769,-0.3480123 c 2.259606,-1.1450292 5.176136,-2.25121867 6.343887,-2.40612615 0.742873,-0.09854564 1.445513,0.16799015 1.700917,0.64521657 0.145281,0.27146068 0.154202,0.27148028 0.748644,0.001646 1.053097,-0.4780292 2.568534,-0.26681608 2.929872,0.40834908 0.54213,1.0129793 -0.257527,4.1909204 -2.107419,8.3751489 l -0.590132,1.3348061 0.45673,0.650371 c 1.540025,2.192959 3.674695,4.465787 5.651611,6.017387 0.660825,0.518656 1.254979,0.94301 1.320339,0.94301 0.165265,0 1.448626,-2.720717 1.880996,-3.9877 0.196354,-0.575377 0.396341,-1.417817 0.444414,-1.872087 0.136484,-1.289692 0.810128,-1.817565 1.529658,-1.198652 0.325179,0.279708 0.408399,0.52419 0.593021,1.742176 0.220452,1.45438 0.31684,4.850922 0.190884,6.726509 l -0.0709,1.055751 1.205286,0.388043 c 0.662907,0.213423 1.811474,0.491938 2.55237,0.618921 1.933485,0.331383 1.943308,0.333981 2.187958,0.578632 0.496603,0.496604 0.144098,2.18734 -1.06809,5.12294 -0.930559,2.253568 -3.27322,6.852815 -3.571972,7.012703 -0.337533,0.180642 -0.687641,0.112677 -2.229168,-0.432742 -0.663968,-0.234923 -1.773036,-0.525803 -2.464595,-0.646402 -2.466775,-0.430169 -4.066884,-0.241766 -7.104865,0.836551 -3.712425,1.317708 -7.084427,1.932395 -9.059112,1.651396 L 70.854703,35.93348 70.05883,36.473107 c -0.437729,0.296793 -1.133285,0.710282 -1.54568,0.91886 -0.416608,0.210709 -0.803049,0.518743 -0.869615,0.693172 -0.06589,0.172665 -0.637782,2.419643 -1.270863,4.993282 -1.422358,5.782258 -1.454915,6.438726 -0.380932,7.681044 0.333171,0.38539 4.758157,9.676101 4.759277,9.992589 4.25e-4,0.12784 -0.110842,0.36886 -0.247323,0.5356 -0.243106,0.297003 -0.320163,0.302363 -3.793106,0.263856 l -3.544958,-0.03931 -3.767187,-7.586211 -3.767187,-7.58621 -0.232904,0.638092 c -0.622482,1.705422 -0.711846,3.142992 -0.242582,3.902279 0.156938,0.253931 1.052009,2.57549 1.989045,5.15902 1.474683,4.065889 1.681267,4.739934 1.536809,5.01428 -0.09179,0.174324 -0.237104,0.363832 -0.322915,0.421129 -0.08581,0.0573 -1.789219,0.105155 -3.78535,0.106349 -3.278242,0.002 -3.651016,-0.02183 -3.853507,-0.245976 -0.124344,-0.137639 -0.515091,-1.542665 -0.87743,-3.155013 -1.283185,-5.709966 -2.349038,-9.405795 -3.364446,-11.666159 -0.700146,-1.558574 -1.232518,-3.621178 -1.362474,-5.278741 -0.091,-1.160714 -0.125717,-1.273859 -0.383654,-1.250477 -5.580997,0.505914 -12.835905,0.492126 -16.040657,-0.03049 -0.441497,-0.072 -0.443565,-0.06933 -0.682129,0.880401 -0.310588,1.236453 -1.027004,2.761906 -1.735939,3.696301 -1.08092,1.424682 -2.332628,2.227071 -5.471202,3.507233 -1.492971,0.608954 -1.484787,1.014505 0.08518,4.221444 0.58235,1.189556 1.710046,3.565821 2.505992,5.28059 2.024928,4.362465 2.132707,4.206492 -2.868508,4.15116 -2.885076,-0.03192 -3.39568,-0.07001 -3.593521,-0.268081 -0.126836,-0.126982 -1.214341,-3.408431 -2.416681,-7.292108 -1.202339,-3.883679 -2.2121,-7.087262 -2.243912,-7.119075 -0.141807,-0.141806 -2.04283,0.951342 -2.709956,1.55831 -1.0459434,0.951626 -1.396068,1.815848 -1.2729712,3.142108 0.194432,2.094836 0.5040321,4.487969 0.8674605,6.705258 0.2067788,1.261565 0.3374869,2.44705 0.2904625,2.634409 -0.1498464,0.597035 -0.5932245,0.672871 -3.933971,0.672871 H 2.3921574 Z M 7.651004,59.910508 7.9654365,59.655897 7.7392818,58.315277 C 6.97682,53.795491 6.7722724,50.647826 7.1659414,49.492472 7.6545175,48.058579 9.3390138,46.692637 12.206783,45.4049 c 2.589252,-1.162673 3.650894,-2.021506 4.017502,-3.250028 0.249253,-0.83526 2.803049,-5.317429 4.708142,-8.263262 0.810562,-1.253367 0.925127,-1.373155 1.181877,-1.235747 0.156369,0.08369 0.284308,0.231742 0.284308,0.329013 0,0.09727 -0.424679,0.899462 -0.943731,1.782646 -1.393984,2.371906 -1.360785,2.412921 2.473904,3.056311 4.673986,0.78421 8.233579,1.064395 13.571349,1.06824 2.880995,0.0021 6.28226,-0.183882 7.302614,-0.399255 l 0.496294,-0.104756 0.084,-2.830459 c 0.09625,-3.243101 0.172583,-3.752149 0.562654,-3.752149 0.165785,0 0.294712,0.122876 0.334758,0.319047 0.03582,0.175475 0.09731,2.297133 0.136651,4.714794 0.08248,5.069069 0.223877,6.149163 1.102565,8.422141 1.478031,3.823348 2.335412,6.700434 3.46496,11.627246 0.350564,1.52908 0.670679,2.89181 0.711367,3.028291 0.06615,0.221886 0.29708,0.248147 2.182166,0.248147 2.321688,0 2.766282,-0.09372 2.863761,-0.603647 0.06776,-0.354465 -2.003128,-6.156777 -2.863957,-8.024369 -0.434822,-0.943358 -0.457185,-1.070537 -0.395249,-2.247838 0.125858,-2.392326 1.557031,-5.508142 5.164969,-11.244685 0.61313,-0.974864 1.527081,-2.649856 2.031004,-3.722206 0.683865,-1.455267 0.98167,-1.949727 1.174287,-1.949727 0.661796,0 0.45093,1.046975 -0.677433,3.363554 -0.898821,1.845317 -0.978554,2.382932 -0.373128,2.515906 0.635784,0.139642 3.378043,-0.496121 5.085619,-1.179044 0.910494,-0.36414 3.587618,-1.700956 3.587618,-1.79147 0,-0.03643 -0.48716,-0.432898 -1.082577,-0.881044 -1.854689,-1.395952 -3.073575,-3.228506 -3.969995,-5.968756 -0.352059,-1.076201 -0.365483,-1.194938 -0.158498,-1.401923 0.124375,-0.124377 0.312909,-0.192841 0.418963,-0.152144 0.106054,0.0407 0.435773,0.735371 0.732709,1.543722 0.753159,2.05032 1.404936,3.162274 2.48856,4.245564 1.49171,1.49125 2.850814,2.000058 5.328493,1.99483 1.778727,-0.0038 2.851579,-0.225803 6.54787,-1.355219 3.738516,-1.142318 4.307459,-1.257044 6.21398,-1.253027 1.732402,0.0036 3.470134,0.283493 5.007612,0.806424 l 1.017104,0.34594 0.375317,-0.640431 c 0.819405,-1.398208 3.596749,-7.808109 3.596749,-8.301025 0,-0.117703 -0.124638,-0.3268 -0.276973,-0.464662 -0.339931,-0.307633 -4.280164,-1.337113 -4.763807,-1.244659 -0.286176,0.05471 -0.389495,0.211191 -0.571389,0.865421 -0.961153,3.457033 -1.24568,4.074627 -1.70252,3.695484 -0.263923,-0.219037 -0.247931,-0.336461 0.346258,-2.542349 0.876303,-3.253221 1.294033,-6.80632 0.800204,-6.80632 -0.116984,0 -0.212698,-0.103527 -0.212698,-0.230059 0,-0.190043 -0.03759,-0.19886 -0.216125,-0.05069 -0.118868,0.09865 -0.25732,0.13817 -0.307671,0.08782 -0.05035,-0.05035 -0.406341,0.498887 -0.79109,1.22053 -2.714221,5.090853 -3.529016,6.383217 -3.983149,6.317769 -0.47946,-0.0691 -0.33996,-0.487187 0.899573,-2.696057 0.625315,-1.114321 1.136972,-2.102624 1.137018,-2.196228 4.6e-5,-0.09361 -0.558248,-0.632079 -1.240653,-1.196608 C 81.631878,16.147456 79.228862,13.352715 77.183248,9.8062255 76.828358,9.1909515 76.412302,8.620277 76.258679,8.5380601 75.894104,8.3429459 75.382656,8.6663907 75.0597,9.2963055 c -0.686096,1.3382115 -1.395309,1.9910625 -1.673671,1.5406625 -0.04219,-0.06827 0.740973,-1.7432655 1.740373,-3.7222061 1.188414,-2.3532107 1.922238,-3.9876458 2.121,-4.7240688 0.16715,-0.6192972 0.274218,-1.1556865 0.237929,-1.191976 C 77.221958,0.93534478 70.998622,3.8007429 65.512094,6.7115299 63.740519,7.6514103 63.591494,7.7055827 63.420569,7.471828 63.319348,7.3333996 63.23653,7.1751787 63.23653,7.1202256 c 0,-0.1413603 1.046231,-0.7940664 3.252491,-2.0291135 C 67.54944,4.4974978 68.304037,3.9947783 68.190601,3.9575036 67.518198,3.7365545 62.64605,3.2689517 59.637592,3.1366313 51.985705,2.8000801 43.084086,3.5790151 38.209126,5.0117267 35.947954,5.6762664 35.439715,5.7236938 29.204932,5.851968 L 23.178503,5.9759556 21.24451,6.4752107 c -3.322494,0.8576922 -6.085658,2.0838836 -8.784599,3.8982843 -3.9850886,2.679031 -6.2004369,5.359004 -7.2841957,8.811908 -0.7055851,2.248026 -0.6383568,6.879872 0.1420009,9.783495 0.199031,0.740572 0.6850473,2.361514 1.0800362,3.602093 0.5922533,1.860149 0.7072261,2.387468 0.6557869,3.007757 -0.1113781,1.343072 -1.3672932,3.365918 -3.6555668,5.887853 l -1.0478144,1.15481 0.033315,1.221094 c 0.057827,2.119519 0.5806993,13.785805 0.6759563,15.08188 l 0.09119,1.240735 h 2.0929761 c 1.8022811,0 2.1366479,-0.03536 2.4074085,-0.254612 z m 14.75693,0.107825 c 0.150851,-0.08073 0.274275,-0.234602 0.274275,-0.341931 0,-0.295631 -0.786537,-2.05842 -2.606767,-5.842292 l -1.647183,-3.424145 v -1.170808 -1.170806 l 0.548479,-0.521755 c 0.34092,-0.32431 0.998259,-0.699575 1.737029,-0.991645 1.925969,-0.761426 3.063943,-1.412228 3.851803,-2.202825 0.985072,-0.988493 1.911164,-2.862977 2.291528,-4.638236 0.06865,-0.320384 0.02778,-0.398539 -0.238083,-0.455362 -1.727695,-0.369263 -6.051228,-1.072149 -6.594904,-1.072149 h -0.690977 l -0.6729,1.131223 c -0.370095,0.622173 -0.894662,1.627169 -1.165706,2.233324 -0.271041,0.606155 -0.591921,1.300713 -0.713062,1.543462 -0.361073,0.723529 -1.390019,1.798361 -2.156634,2.252807 -0.394684,0.233967 -0.783833,0.569117 -0.864775,0.744777 -0.120643,0.261821 0.213916,1.488531 1.85628,6.80632 1.101897,3.567816 2.12589,6.662413 2.275542,6.876882 l 0.272095,0.389946 h 1.984843 c 1.097034,0 2.107523,-0.06566 2.259117,-0.146787 z m 45.711408,0.0085 c 0.288619,-0.109734 0.36351,-0.234174 0.362679,-0.602643 -0.0011,-0.502246 -1.205719,-3.083057 -3.327378,-7.128876 l -1.264122,-2.410571 -0.0043,-1.276185 c -0.0037,-1.105733 0.123048,-1.792644 0.949189,-5.142956 0.524414,-2.12672 0.953486,-4.058318 0.953486,-4.292435 0,-0.676865 -0.424891,-0.781349 -1.78016,-0.437757 -1.180743,0.299345 -2.996952,0.560527 -4.316337,0.620719 l -0.77906,0.03554 -1.241566,2.120739 c -0.864662,1.476941 -1.241566,2.259326 -1.241566,2.577264 0,0.509139 1.002242,2.712762 4.183503,9.198233 1.147659,2.339672 2.363111,4.844185 2.701007,5.565584 l 0.614354,1.311635 h 1.913269 c 1.0523,0 2.076949,-0.06223 2.276998,-0.138289 z M 79.039544,8.0776774 c 0.77298,-1.7649866 1.785363,-5.2789395 1.671472,-5.8016278 -0.0936,-0.4295718 -0.678196,-0.4545479 -1.355038,-0.057892 -1.06963,0.6268456 -1.422349,1.0810257 -2.145109,2.7621657 l -0.690213,1.605433 0.483302,0.9997581 c 0.839775,1.7371531 1.428051,1.8793858 2.035586,0.492163 z"
     id="path838"
     inkscape:connector-curvature="0" />
</svg>
