<?xml version="1.0" encoding="UTF-8" standalone="no"?>
<svg
   xmlns:dc="http://purl.org/dc/elements/1.1/"
   xmlns:cc="http://creativecommons.org/ns#"
   xmlns:rdf="http://www.w3.org/1999/02/22-rdf-syntax-ns#"
   xmlns:svg="http://www.w3.org/2000/svg"
   xmlns="http://www.w3.org/2000/svg"
   xmlns:sodipodi="http://sodipodi.sourceforge.net/DTD/sodipodi-0.dtd"
   xmlns:inkscape="http://www.inkscape.org/namespaces/inkscape"
   version="1.1"
   x="0px"
   y="0px"
   viewBox="0 0 90 90"
   enable-background="new 0 0 100 100"
   xml:space="preserve"
   id="svg16"
   sodipodi:docname="noun_Radar_148811.svg"
   width="90"
   height="90"
   inkscape:version="0.92.2 (5c3e80d, 2017-08-06)"><metadata
     id="metadata22"><rdf:RDF><cc:Work
         rdf:about=""><dc:format>image/svg+xml</dc:format><dc:type
           rdf:resource="http://purl.org/dc/dcmitype/StillImage" /></cc:Work></rdf:RDF></metadata><defs
     id="defs20" /><sodipodi:namedview
     pagecolor="#ffffff"
     bordercolor="#666666"
     borderopacity="1"
     objecttolerance="10"
     gridtolerance="10"
     guidetolerance="10"
     inkscape:pageopacity="0"
     inkscape:pageshadow="2"
     inkscape:window-width="1920"
     inkscape:window-height="1017"
     id="namedview18"
     showgrid="false"
     inkscape:zoom="1.888"
     inkscape:cx="-20.942797"
     inkscape:cy="32.5"
     inkscape:window-x="-8"
     inkscape:window-y="-8"
     inkscape:window-maximized="1"
     inkscape:current-layer="svg16" /><path
     inkscape:connector-curvature="0"
     id="path2"
     d="M 45,0 C 20.187,0 0,20.187 0,45 0,69.813 20.187,90 45,90 69.813,90 90,69.813 90,45 90,20.187 69.813,0 45,0 Z M 83.497,44 H 67.428 c -0.287,-5 -2.19,-9.709 -5.224,-13.312 l 5.682,-5.755 c 0.759,-0.758 0.759,-2.024 0,-2.782 -0.758,-0.758 -1.986,-0.776 -2.744,-0.018 l -5.329,5.672 C 56.209,24.771 52,22.859 47,22.573 V 6.503 C 67,7.175 82.824,24 83.497,44 Z M 47,25.161 c 4,0.277 8.209,1.895 11.334,4.466 L 47,40.961 Z M 44,44 H 25.161 C 25.805,34 34,25.805 44,25.161 Z m 0,3 V 64.839 C 34,64.196 25.805,56 25.161,47 Z m 3,0 H 64.839 C 64.196,56 56,64.196 47,64.839 Z M 49.039,44 60.373,32.666 C 62.945,35.791 64.562,40 64.839,44 Z M 44,6.503 v 16.07 C 33,23.224 23.224,33 22.573,44 H 6.503 C 7.175,24 24,7.175 44,6.503 Z M 6.503,47 h 16.07 C 23.224,58 33,66.775 44,67.428 V 83.497 C 24,82.824 7.175,67 6.503,47 Z M 47,83.497 V 67.428 C 58,66.775 66.775,58 67.428,47 H 83.497 C 82.824,67 67,82.824 47,83.497 Z"
     style="fill:#668000" /><path
     inkscape:connector-curvature="0"
     id="path4"
     d="m 26.074,28.177 c 2.141,0 3.882,-1.741 3.882,-3.882 0,-2.141 -1.741,-3.882 -3.882,-3.882 -2.141,0 -3.882,1.741 -3.882,3.882 0,2.141 1.742,3.882 3.882,3.882 z"
     style="fill:#ff0000" /><path
     inkscape:connector-curvature="0"
     id="path6"
     d="m 28.663,65.705 c -2.141,0 -3.882,1.741 -3.882,3.882 0,2.141 1.742,3.882 3.882,3.882 2.14,0 3.882,-1.741 3.882,-3.882 0,-2.141 -1.742,-3.882 -3.882,-3.882 z"
     style="fill:#ff0000" /><path
     inkscape:connector-curvature="0"
     id="path8"
     d="m 53.25,50.176 c -2.142,0 -3.883,1.742 -3.883,3.883 0,2.141 1.741,3.882 3.883,3.882 2.141,0 3.882,-1.741 3.882,-3.882 0,-2.141 -1.741,-3.883 -3.882,-3.883 z"
     style="fill:#ff0000" /><path
     style="fill:#afe9af;fill-opacity:1;stroke:#e5ffd5;stroke-width:0;stroke-miterlimit:4;stroke-dasharray:none;stroke-opacity:1"
     d="m 25.816503,41.577068 c 0.949682,-7.080411 8.627188,-14.757917 15.707599,-15.707599 l 2.151745,-0.28861 v 9.073977 9.073978 H 34.60187 25.527893 Z"
     id="path833"
     inkscape:connector-curvature="0" /><path
     style="fill:#afe9af;fill-opacity:1;stroke:#e5ffd5;stroke-width:0;stroke-miterlimit:4;stroke-dasharray:none;stroke-opacity:1"
     d="M 6.9050507,41.477754 C 9.4921686,23.163657 23.241401,9.2931649 41.159958,6.9207396 l 2.515889,-0.333105 v 7.9172294 7.917229 L 41.301359,22.77817 C 32.942211,24.031702 23.972418,33.037303 22.712112,41.441627 l -0.342985,2.287187 H 14.478093 6.5870576 Z M 28.745466,27.288689 c 1.734027,-1.615492 1.738496,-4.462368 0.0093,-5.938053 -1.669007,-1.424339 -4.383909,-1.201004 -5.697278,0.468675 -1.456234,1.851301 -1.386508,3.660436 0.202312,5.249256 1.598665,1.598665 3.906547,1.691274 5.485643,0.220122 z"
     id="path835"
     inkscape:connector-curvature="0" /><path
     style="fill:#afe9af;fill-opacity:1;stroke:#e5ffd5;stroke-width:0;stroke-miterlimit:4;stroke-dasharray:none;stroke-opacity:1"
     d="M 39.550186,82.845202 C 34.867047,82.173993 28.502592,79.730975 24.220289,76.960767 14.527659,70.690636 8.6034803,61.355071 6.9131736,49.6875 l -0.326116,-2.251059 h 7.8834794 7.88348 l 0.349737,2.187137 c 1.268597,7.933366 9.232895,15.727234 17.900575,17.517515 l 3.071518,0.634412 v 7.838942 c 0,4.311418 -0.17876,7.809524 -0.397245,7.773568 -0.218485,-0.03595 -1.896272,-0.280222 -3.728416,-0.542813 z M 31.626059,72.225805 c 1.425195,-1.648248 1.200741,-4.369962 -0.468675,-5.683125 -1.851301,-1.456233 -3.660436,-1.386507 -5.249256,0.202312 -2.155272,2.155272 -1.658061,5.250657 1.030252,6.413823 1.936899,0.838049 3.409775,0.544896 4.687679,-0.93301 z"
     id="path837"
     inkscape:connector-curvature="0" /><path
     style="fill:#afe9af;fill-opacity:1;stroke:#e5ffd5;stroke-width:0;stroke-miterlimit:4;stroke-dasharray:none;stroke-opacity:1"
     d="m 38.454675,63.326569 c -4.99609,-1.797248 -8.84305,-5.327843 -11.254209,-10.328688 -2.764761,-5.73423 -2.996883,-5.56144 7.471144,-5.56144 h 9.004237 v 8.474576 c 0,9.740301 0.250858,9.384012 -5.221172,7.415552 z"
     id="path839"
     inkscape:connector-curvature="0" /><path
     style="fill:#afe9af;fill-opacity:1;stroke:#e5ffd5;stroke-width:0;stroke-miterlimit:4;stroke-dasharray:none;stroke-opacity:1"
     d="m 47.383475,75.531195 v -7.821394 l 2.884309,-0.579252 c 8.378311,-1.682605 15.800404,-9.273381 17.020104,-17.406922 l 0.342985,-2.287186 h 7.891034 7.891035 L 83.094949,49.6875 c -1.829574,12.951477 -9.000201,23.540537 -19.775267,29.202674 -3.584593,1.88365 -9.580875,3.724357 -13.685148,4.200994 l -2.251059,0.26142 z"
     id="path841"
     inkscape:connector-curvature="0" /><path
     style="fill:#afe9af;fill-opacity:1;stroke:#e5ffd5;stroke-width:0;stroke-miterlimit:4;stroke-dasharray:none;stroke-opacity:1"
     d=""
     id="path843"
     inkscape:connector-curvature="0" /><path
     style="fill:#afe9af;fill-opacity:1;stroke:#e5ffd5;stroke-width:0;stroke-miterlimit:4;stroke-dasharray:none;stroke-opacity:1"
     d="m 55.067918,38.427828 5.281095,-5.300985 0.926405,1.196112 c 1.216338,1.570452 3.057209,6.448744 3.057209,8.101575 v 1.304284 h -7.272901 -7.272902 z"
     id="path845"
     inkscape:connector-curvature="0" /><path
     style="fill:#afe9af;fill-opacity:1;stroke:#e5ffd5;stroke-width:0;stroke-miterlimit:4;stroke-dasharray:none;stroke-opacity:1"
     d="m 47.383475,32.99324 v -7.272901 h 1.304283 c 1.652831,0 6.531123,1.840871 8.101575,3.057209 l 1.196112,0.926406 -5.300985,5.281094 -5.300985,5.281094 z"
     id="path847"
     inkscape:connector-curvature="0" /><path
     style="fill:#afe9af;fill-opacity:1;stroke:#e5ffd5;stroke-width:0;stroke-miterlimit:4;stroke-dasharray:none;stroke-opacity:1"
     d="m 67.267571,41.212924 c -0.389862,-2.699824 -2.468812,-7.74368 -3.796393,-9.21064 -1.02842,-1.136392 -0.55726,-2.052545 2.674515,-5.200487 2.476793,-2.412546 2.914139,-3.557643 1.788629,-4.683153 -1.145767,-1.145767 -2.205413,-0.676572 -5.228728,2.315196 l -2.981903,2.950788 -1.97257,-1.338623 c -2.379982,-1.615098 -7.26533,-3.503632 -9.063363,-3.503632 H 47.383475 V 14.579215 6.6160564 l 2.78072,0.351894 C 67.282611,9.1342485 80.853807,23.257894 83.069668,41.212924 l 0.31049,2.51589 h -7.874643 -7.874642 z"
     id="path849"
     inkscape:connector-curvature="0" /><path
     style="fill:#99ff55;fill-opacity:1;stroke:#e5ffd5;stroke-width:0;stroke-miterlimit:4;stroke-dasharray:none;stroke-opacity:1"
     d="m 47.383475,55.911017 v -8.474576 h 8.474576 c 8.435466,0 8.474574,0.0055 8.474158,1.191737 -7.38e-4,2.105482 -3.043936,7.706765 -5.547084,10.209913 -2.503148,2.503148 -8.104431,5.546346 -10.209913,5.547084 -1.186238,4.16e-4 -1.191737,-0.03869 -1.191737,-8.474158 z m 8.763482,0.818567 c 0.715042,-0.715042 1.300077,-1.917614 1.300077,-2.672381 0,-1.864028 -2.205069,-3.972457 -4.154535,-3.972457 -2.386369,0 -4.002245,1.603849 -4.002245,3.972457 0,3.697456 4.196179,5.332905 6.856703,2.672381 z"
     id="path851"
     inkscape:connector-curvature="0" /><path
     style="fill:#99ff55;fill-opacity:1;stroke:#e5ffd5;stroke-width:0;stroke-miterlimit:4;stroke-dasharray:none;stroke-opacity:1"
     d="m 47.500892,75.510505 0.147413,-7.562598 2.780364,-0.710888 c 8.619647,-2.203887 15.866178,-9.607048 16.87927,-17.244107 l 0.339127,-2.556471 h 7.796495 7.796495 l -0.474751,3.027453 c -2.288203,14.591693 -12.089287,26.373095 -25.470904,30.617324 -2.268799,0.719591 -5.433652,1.462144 -7.033006,1.650117 l -2.907917,0.341768 z"
     id="path853"
     inkscape:connector-curvature="0" /><path
     style="fill:#99ff55;fill-opacity:1;stroke:#e5ffd5;stroke-width:0;stroke-miterlimit:4;stroke-dasharray:none;stroke-opacity:1"
     d="m 67.510593,42.097752 c 0,-1.793899 -2.363247,-8.209005 -3.512034,-9.533526 -1.185616,-1.366982 -0.862979,-2.284393 1.923051,-5.468147 2.762337,-3.156676 3.070754,-3.919393 2.012712,-4.977435 -1.10857,-1.10857 -2.014261,-0.709127 -5.129486,2.262295 l -3.038132,2.897887 -1.926226,-1.308904 c -1.059425,-0.719898 -2.042529,-1.308905 -2.184677,-1.308905 -0.142147,0 -0.929422,-0.277962 -1.749498,-0.617694 -0.820077,-0.339731 -1.649947,-0.637666 -1.844156,-0.662076 -0.194209,-0.02441 -0.531868,-0.223143 -0.750353,-0.441628 -0.218485,-0.218486 -1.191737,-0.397246 -2.162783,-0.397246 H 47.383475 V 14.630758 6.7191425 l 1.986228,0.2800338 c 3.443397,0.4854763 9.657341,2.2757111 11.956147,3.4445617 11.488857,5.84162 19.508766,17.067108 21.415044,29.974694 l 0.488899,3.310382 h -7.8596 -7.8596 z"
     id="path855"
     inkscape:connector-curvature="0" /><path
     style="fill:#99ff55;fill-opacity:1;stroke:#e5ffd5;stroke-width:0;stroke-miterlimit:4;stroke-dasharray:none;stroke-opacity:1"
     d="M 7.4916838,39.678162 C 10.808876,22.11011 24.014355,9.4911699 41.689619,6.9991763 L 43.675847,6.7191425 V 14.562521 22.4059 l -2.515889,0.33427 c -1.38374,0.183849 -3.350106,0.793879 -4.369704,1.355622 -1.019597,0.561743 -2.349813,1.255029 -2.956034,1.540636 -2.129343,1.003189 -7.52275,6.955898 -9.169942,10.120874 -0.915556,1.759183 -1.811844,4.272439 -1.991753,5.585013 l -0.327106,2.386499 H 14.536131 6.7268416 Z M 28.294787,27.850164 c 1.344288,-0.719442 2.218312,-3.442648 1.614583,-5.030574 -1.028197,-2.704365 -5.049632,-3.291441 -6.851859,-1.000279 -1.456234,1.851301 -1.386508,3.660436 0.202312,5.249256 1.355239,1.355239 3.37675,1.669046 5.034964,0.781597 z"
     id="path857"
     inkscape:connector-curvature="0" /><path
     style="fill:#99ff55;fill-opacity:1;stroke:#e5ffd5;stroke-width:0;stroke-miterlimit:4;stroke-dasharray:none;stroke-opacity:1"
     d="M 25.955054,41.742585 C 27.153882,34.649124 34.596158,27.206848 41.689619,26.00802 l 1.986228,-0.335682 v 9.028238 9.028238 H 34.64761 25.619372 Z"
     id="path859"
     inkscape:connector-curvature="0" /><path
     style="fill:#99ff55;fill-opacity:1;stroke:#e5ffd5;stroke-width:0;stroke-miterlimit:4;stroke-dasharray:none;stroke-opacity:1"
     d="m 47.383475,32.940836 v -7.33839 l 1.986228,0.369541 c 2.581497,0.480291 6.809104,2.301231 7.624948,3.284264 0.529335,0.637809 -0.247959,1.659758 -4.485441,5.897241 l -5.125735,5.125734 z"
     id="path861"
     inkscape:connector-curvature="0" /><path
     style="fill:#99ff55;fill-opacity:1;stroke:#e5ffd5;stroke-width:0;stroke-miterlimit:4;stroke-dasharray:none;stroke-opacity:1"
     d="m 50.561441,43.320525 c 0,-0.224559 2.119993,-2.51846 4.711096,-5.097558 3.006423,-2.992494 4.944357,-4.545106 5.355744,-4.290855 0.845255,0.522397 3.003383,5.431823 3.4617,7.874866 l 0.360539,1.921836 h -6.94454 c -3.819496,0 -6.944539,-0.18373 -6.944539,-0.408289 z"
     id="path863"
     inkscape:connector-curvature="0" /><path
     style="fill:#99ff55;fill-opacity:1;stroke:#e5ffd5;stroke-width:0;stroke-miterlimit:4;stroke-dasharray:none;stroke-opacity:1"
     d="m 39.083076,63.360274 c -5.643997,-2.029661 -9.437849,-5.6315 -12.218563,-11.600161 -1.000065,-2.146587 -1.16895,-2.974982 -0.701887,-3.442796 0.399812,-0.400457 3.571869,-0.678671 9.064138,-0.794996 l 8.449083,-0.17895 -0.0528,7.064543 c -0.05364,7.177271 -0.360663,9.513632 -1.285966,9.78582 -0.283278,0.08333 -1.747582,-0.291728 -3.254009,-0.83346 z"
     id="path865"
     inkscape:connector-curvature="0" /><path
     style="fill:#99ff55;fill-opacity:1;stroke:#e5ffd5;stroke-width:0;stroke-miterlimit:4;stroke-dasharray:none;stroke-opacity:1"
     d="M 36.148933,81.901201 C 20.506537,77.681763 9.6568886,65.776089 7.1810052,50.113745 l -0.4275621,-2.704742 7.6961409,0.146134 7.69614,0.146134 0.609733,2.710007 c 1.697152,7.543136 9.635422,15.018383 17.926681,16.881055 l 2.728879,0.613055 0.168445,4.198789 c 0.09265,2.309334 0.01409,5.688461 -0.174573,7.50917 -0.342087,3.301394 -0.347578,3.310295 -2.022259,3.278514 -0.923582,-0.01753 -3.278746,-0.463324 -5.233697,-0.99066 z m -4.896044,-9.281786 c 2.640073,-2.640073 0.890714,-7.1745 -2.767885,-7.1745 -2.830431,0 -4.957325,4.269617 -3.214877,6.45368 1.797838,2.25349 4.164901,2.53868 5.982762,0.72082 z"
     id="path867"
     inkscape:connector-curvature="0" /></svg>