<?xml version="1.0" encoding="UTF-8" standalone="no"?>
<svg
   xmlns:dc="http://purl.org/dc/elements/1.1/"
   xmlns:cc="http://creativecommons.org/ns#"
   xmlns:rdf="http://www.w3.org/1999/02/22-rdf-syntax-ns#"
   xmlns:svg="http://www.w3.org/2000/svg"
   xmlns="http://www.w3.org/2000/svg"
   xmlns:sodipodi="http://sodipodi.sourceforge.net/DTD/sodipodi-0.dtd"
   xmlns:inkscape="http://www.inkscape.org/namespaces/inkscape"
   viewBox="0 0 22.724047 56.02673"
   x="0px"
   y="0px"
   version="1.1"
   id="svg12"
   sodipodi:docname="Torch.svg"
   inkscape:version="0.92.2 (5c3e80d, 2017-08-06)"
   width="22.724047"
   height="56.02673">
  <metadata
     id="metadata18">
    <rdf:RDF>
      <cc:Work
         rdf:about="">
        <dc:format>image/svg+xml</dc:format>
        <dc:type
           rdf:resource="http://purl.org/dc/dcmitype/StillImage" />
      </cc:Work>
    </rdf:RDF>
  </metadata>
  <defs
     id="defs16" />
  <sodipodi:namedview
     pagecolor="#ffffff"
     bordercolor="#666666"
     borderopacity="1"
     objecttolerance="10"
     gridtolerance="10"
     guidetolerance="10"
     inkscape:pageopacity="0"
     inkscape:pageshadow="2"
     inkscape:window-width="1366"
     inkscape:window-height="705"
     id="namedview14"
     showgrid="false"
     inkscape:zoom="1"
     inkscape:cx="-28.903736"
     inkscape:cy="25.544387"
     inkscape:window-x="-8"
     inkscape:window-y="-8"
     inkscape:window-maximized="1"
     inkscape:current-layer="svg12" />
  <title
     id="title2">torch, play, sport, game,</title>
  <g
     id="g6"
     style="fill:#aa4400"
     transform="translate(-20.275954,-3.9733357)">
    <path
       data-name="torch, play, sport, game,"
       d="M 42,27 H 39.93 A 16,16 0 0 0 40.85,10.47 1,1 0 0 0 39.76,10.06 1,1 0 0 0 39,11 13.73,13.73 0 0 1 36.29,15.3 c -0.09,0.09 -0.17,0.19 -0.26,0.29 a 7.89,7.89 0 0 0 -1.2,-3.13 C 33.09,9.83 34,5.24 34,5.2 A 1,1 0 0 0 33.71,4.28 1,1 0 0 0 32.76,4 c -3.67,0.92 -4,7.08 -3.87,10.27 A 13.35,13.35 0 0 1 27,8.86 1,1 0 0 0 26.33,8.05 a 1,1 0 0 0 -1,0.24 c -2.15,2.15 -1.44,6.06 -0.51,8.89 a 21.48,21.48 0 0 1 -1.92,-2.69 1,1 0 0 0 -1.72,0 C 18.66,18.62 22,24.24 24,27 h -2 a 1,1 0 0 0 -1,1 v 4 a 1,1 0 0 0 1,1 h 3.14 L 29,59.15 A 1,1 0 0 0 30,60 h 4 a 1,1 0 0 0 1,-0.85 L 38.86,33 H 42 a 1,1 0 0 0 1,-1 V 28 A 1,1 0 0 0 42,27 Z M 22.29,17.26 C 23.5,18.94 25.33,21 27,21 a 1,1 0 0 0 0.89,-1.45 20.77,20.77 0 0 1 -2,-6.73 c 0.73,2.07 2,4.18 4.09,4.18 A 1,1 0 0 0 30.72,16.67 1,1 0 0 0 31,15.9 C 30.78,13.73 30.8,9.77 31.75,7.55 a 10.68,10.68 0 0 0 1.42,6 7.66,7.66 0 0 1 0.83,5.23 1,1 0 0 0 0.65,1.16 1,1 0 0 0 1.22,-0.49 12.77,12.77 0 0 1 1.82,-2.74 19.74,19.74 0 0 0 2.31,-3.19 c 1,2.69 1.69,7.82 -2.51,13.48 h -11 c -1.66,-2 -4.56,-6.37 -4.2,-9.74 z M 33.14,58 h -2.28 l -3.7,-25 h 9.68 z M 41,31 H 23 v -2 h 18 z"
       id="path4"
       style="fill:#aa4400"
       inkscape:connector-curvature="0" />
  </g>
  <path
     style="fill:#aa4400;fill-opacity:1;stroke:none;stroke-width:0.08474576;stroke-opacity:1"
     d="M 10.600374,53.850985 C 10.582256,53.792722 9.7626194,48.272595 8.7789604,41.584036 7.7953004,34.895477 6.9716124,29.337214 6.9485414,29.232341 l -0.04195,-0.190678 h 4.7897496 c 4.200856,0 4.789751,0.01563 4.789751,0.127107 0,0.122886 -3.513194,23.956029 -3.613369,24.512724 l -0.04956,0.275423 H 11.72824 c -0.801872,0 -1.10374,-0.02835 -1.127866,-0.105932 z"
     id="path814"
     inkscape:connector-curvature="0" />
  <path
     style="fill:#aa4400;fill-opacity:1;stroke:none;stroke-width:0.08474576;stroke-opacity:1"
     d="m 2.7572804,26.033188 v -0.974576 h 8.9830506 8.983051 v 0.974576 0.974577 H 11.740331 2.7572804 Z"
     id="path816"
     inkscape:connector-curvature="0" />
  <path
     style="fill:#ffff00;fill-opacity:1;stroke:none;stroke-width:0.08474576;stroke-opacity:1"
     d="m 5.7435174,22.366077 c -1.603286,-2.072522 -2.939467,-4.621095 -3.446822,-6.574319 -0.185447,-0.713938 -0.380894,-2.343315 -0.281085,-2.343315 0.0236,0 0.330779,0.352754 0.682625,0.783898 1.368734,1.677212 2.5535,2.577912 3.660004,2.78246 0.573097,0.105943 0.980857,-0.04251 1.227377,-0.446852 0.251026,-0.411733 0.214989,-0.676704 -0.22135,-1.627512 -0.533111,-1.161682 -1.167919,-3.118072 -1.427101,-4.398128 -0.117581,-0.5807117 -0.213174,-1.0891837 -0.21243,-1.1299377 7.44e-4,-0.04075 0.19056,0.307258 0.421813,0.7733597 0.929813,1.874085 2.111551,2.838983 3.476981,2.838983 0.4371256,0 0.5406606,-0.0328 0.7807186,-0.247354 l 0.276761,-0.247353 0.0035,-2.6128157 c 0.0038,-2.794304 0.06444,-3.486701 0.444311,-5.0704432 l 0.223594,-0.9322034 0.0678,0.8050847 c 0.15657,1.8592219 0.462651,2.9200919 1.381165,4.7870999 0.92842,1.8871427 1.146197,2.9623587 0.964421,4.7615727 -0.117505,1.163065 -0.07462,1.316781 0.457925,1.641497 0.583991,0.356082 1.114322,0.09473 1.59604,-0.786551 0.456881,-0.83584 1.008037,-1.638082 1.6164,-2.352771 0.746561,-0.877041 1.320023,-1.637099 1.811244,-2.400597 0.229144,-0.356156 0.44105,-0.6481627 0.470902,-0.6489037 0.07381,-0.0018 0.393069,1.2009057 0.533342,2.0092447 0.270456,1.55853 0.239895,3.224499 -0.08904,4.853815 -0.34657,1.716668 -1.304049,3.944545 -2.385597,5.550847 l -0.570606,0.847458 -5.476224,0.0218 -5.4762246,0.0218 z"
     id="path818"
     inkscape:connector-curvature="0" />
</svg>
