<?xml version="1.0" encoding="UTF-8" standalone="no"?>
<svg
   xmlns:dc="http://purl.org/dc/elements/1.1/"
   xmlns:cc="http://creativecommons.org/ns#"
   xmlns:rdf="http://www.w3.org/1999/02/22-rdf-syntax-ns#"
   xmlns:svg="http://www.w3.org/2000/svg"
   xmlns="http://www.w3.org/2000/svg"
   xmlns:sodipodi="http://sodipodi.sourceforge.net/DTD/sodipodi-0.dtd"
   xmlns:inkscape="http://www.inkscape.org/namespaces/inkscape"
   version="1.1"
   x="0px"
   y="0px"
   viewBox="0 0 352.60841 463.27786"
   xml:space="preserve"
   id="svg10"
   sodipodi:docname="Compass.svg"
   inkscape:version="0.92.2 (5c3e80d, 2017-08-06)"
   width="352.60843"
   height="463.27786"><metadata
     id="metadata16"><rdf:RDF><cc:Work
         rdf:about=""><dc:format>image/svg+xml</dc:format><dc:type
           rdf:resource="http://purl.org/dc/dcmitype/StillImage" /></cc:Work></rdf:RDF></metadata><defs
     id="defs14" /><sodipodi:namedview
     pagecolor="#ffffff"
     bordercolor="#666666"
     borderopacity="1"
     objecttolerance="10"
     gridtolerance="10"
     guidetolerance="10"
     inkscape:pageopacity="0"
     inkscape:pageshadow="2"
     inkscape:window-width="1366"
     inkscape:window-height="705"
     id="namedview12"
     showgrid="false"
     inkscape:zoom="1"
     inkscape:cx="163.75994"
     inkscape:cy="214.29254"
     inkscape:window-x="-8"
     inkscape:window-y="-8"
     inkscape:window-maximized="1"
     inkscape:current-layer="svg10" /><style
     type="text/css"
     id="style2">
	.st0{fill:#020202;}
</style><path
     class="st0"
     d="m 352.5,330.1 c -1.2,-34.3 -16.4,-66.4 -41.7,-88 -12.4,-10.6 -31.1,-21.9 -57.2,-26.7 4.1,-2.1 7,-6.3 7,-11.2 0,-5 -3,-9.4 -7.3,-11.4 4.9,-2.2 8.4,-7.3 8.4,-13.2 0,-4.4 -1.9,-8.3 -4.9,-11 5.4,-1.4 9.4,-6.3 9.4,-12.1 0,-6.9 -5.6,-12.6 -12.6,-12.6 -0.1,0 -0.2,0 -0.4,0 1.2,-1.9 1.9,-4.1 1.9,-6.6 0,-6.2 -4.5,-11.3 -10.3,-12.3 2.8,-2.3 4.7,-5.8 4.7,-9.8 0,-6.2 -4.5,-11.3 -10.4,-12.4 1.2,-1.9 2,-4.3 2,-6.7 0,-5.4 -3.4,-9.9 -8.1,-11.7 3.3,-2.3 5.5,-6.1 5.5,-10.4 0,-6.9 -5.6,-12.6 -12.6,-12.6 -2.1,0 -4.1,0.5 -5.8,1.4 0.6,-1.5 1,-3.1 1,-4.8 0,-6.9 -5.6,-12.6 -12.6,-12.6 -1.6,0 -3.2,0.3 -4.6,0.9 0,-0.3 0,-0.5 0,-0.8 0,-6.9 -5.6,-12.6 -12.6,-12.6 -1.5,0 -2.9,0.3 -4.3,0.8 0.1,-0.7 0.2,-1.5 0.2,-2.2 0,-6.9 -5.6,-12.6 -12.6,-12.6 -2.6,0 -5,0.8 -7,2.1 -0.5,-6.5 -5.9,-11.7 -12.5,-11.7 -4.3,0 -8.1,2.2 -10.4,5.5 -1.8,-4.7 -6.4,-8.1 -11.7,-8.1 -3.9,0 -7.3,1.8 -9.6,4.5 C 122.7,4.9 117.4,0 110.9,0 105.8,0 101.5,3 99.5,7.4 97.3,3.8 93.3,1.4 88.8,1.4 83.1,1.4 78.3,5.2 76.8,10.5 74.5,7.4 70.9,5.4 66.7,5.4 60,5.4 54.5,10.7 54.2,17.3 c -2,-1.3 -4.4,-2.1 -7,-2.1 -6.9,0 -12.6,5.6 -12.6,12.6 0,1.9 0.5,3.8 1.2,5.4 C 35.1,33.1 34.4,33 33.6,33 26.7,33 21,38.6 21,45.6 c 0,4.6 2.4,8.5 6.1,10.7 -4.4,2 -7.5,6.4 -7.5,11.5 0,2.6 0.8,5.1 2.2,7.1 -0.2,0 -0.5,0 -0.7,0 -6.9,0 -12.6,5.6 -12.6,12.6 0,3.3 1.3,6.2 3.3,8.5 C 5.2,96.4 0,101.8 0,108.5 c 0,5.8 3.9,10.6 9.2,12.1 -1.8,2.2 -3,5 -3,8.1 0,4.9 2.9,9.2 7,11.2 -4.1,2.1 -7,6.3 -7,11.2 0,6.9 5.6,12.6 12.6,12.6 0.4,0 0.7,0 1.1,-0.1 -1.6,2.1 -2.6,4.8 -2.6,7.6 0,6.9 5.6,12.6 12.6,12.6 0.1,0 0.2,0 0.3,0 -1.2,1.9 -1.8,4.1 -1.8,6.5 0,6.9 5.6,12.6 12.6,12.6 3.1,0 5.9,-1.1 8.1,-3 0.2,6.8 5.7,12.2 12.5,12.2 1.6,0 3.1,-0.3 4.5,-0.8 -0.6,1.5 -1,3.1 -1,4.8 0,6.9 5.6,12.6 12.6,12.6 2.5,0 4.7,-0.7 6.7,-1.9 0,0.4 -0.1,0.9 -0.1,1.3 0,6.9 5.6,12.6 12.6,12.6 1.1,0 2.2,-0.2 3.2,-0.4 -0.6,1.5 -1,3.2 -1,4.9 0,6.9 5.6,12.6 12.6,12.6 0.8,0 1.6,-0.1 2.3,-0.2 -17.2,20 -28.2,45.5 -29.8,73.8 -3.6,66.3 45.8,123.4 111.3,129.8 5.9,0.9 11.7,1.5 17.4,1.8 39.3,2.2 74.2,-8.7 99.5,-31.4 27.5,-24.5 41.6,-60.5 40.1,-101.5 z M 223.9,201.5 c 0,-0.1 -0.1,-0.3 -0.2,-0.4 h 0.1 l -6.2,-19.3 v 0 c -1,-4.1 -6.2,-6.6 -15.3,-7.4 -3.8,-0.3 -8.2,-0.3 -12.9,0 -4.9,0.3 -10.2,1 -15.6,1.9 -15.4,2.8 -41,10.2 -39.2,20.7 0,0.2 0.1,0.3 0.2,0.5 v 0 l 6.1,17.7 c 0,0.4 0,0.8 0,1.2 v 0 c 1,5.5 8.9,7.6 18.3,7.9 -12.8,5.5 -24.5,13.2 -34.6,22.5 0.1,-0.6 0.2,-1.3 0.2,-1.9 0,-6.9 -5.6,-12.6 -12.6,-12.6 -1.1,0 -2.2,0.2 -3.2,0.4 0.6,-1.5 1,-3.2 1,-4.9 0,-6.9 -5.6,-12.6 -12.6,-12.6 -2.5,0 -4.7,0.7 -6.7,1.9 0,-0.4 0.1,-0.9 0.1,-1.3 0,-6.9 -5.6,-12.6 -12.6,-12.6 -1.6,0 -3.1,0.3 -4.5,0.8 0.6,-1.5 1,-3.1 1,-4.8 0,-6.9 -5.6,-12.6 -12.6,-12.6 -3.1,0 -5.9,1.1 -8.1,3 -0.2,-6.8 -5.7,-12.2 -12.5,-12.2 -0.1,0 -0.2,0 -0.3,0 1.2,-1.9 1.8,-4.1 1.8,-6.5 0,-6.9 -5.6,-12.6 -12.6,-12.6 -0.4,0 -0.7,0 -1.1,0.1 1.6,-2.1 2.6,-4.8 2.6,-7.6 0,-4.9 -2.9,-9.2 -7,-11.2 4.1,-2.1 7,-6.3 7,-11.2 0,-5.8 -3.9,-10.6 -9.2,-12.1 1.8,-2.2 3,-5 3,-8.1 0,-3.3 -1.3,-6.2 -3.3,-8.5 6.6,-0.4 11.8,-5.8 11.8,-12.5 0,-2.6 -0.8,-5.1 -2.2,-7.1 0.2,0 0.5,0 0.7,0 6.9,0 12.6,-5.6 12.6,-12.6 0,-4.6 -2.4,-8.5 -6.1,-10.7 4.4,-2 7.5,-6.4 7.5,-11.5 0,-1.9 -0.5,-3.8 -1.2,-5.4 0.7,0.1 1.4,0.2 2.2,0.2 6.7,0 12.2,-5.3 12.5,-11.9 2,1.3 4.4,2.1 7,2.1 5.7,0 10.5,-3.8 12,-9.1 2.3,3.1 5.9,5.1 10.1,5.1 5.1,0 9.4,-3 11.4,-7.4 2.2,3.6 6.2,6 10.7,6 3.9,0 7.3,-1.8 9.6,-4.5 0.7,6.3 6,11.2 12.5,11.2 4.3,0 8.1,-2.2 10.4,-5.5 1.8,4.7 6.4,8.1 11.7,8.1 2.6,0 5,-0.8 7,-2.1 0.5,6.5 5.9,11.7 12.5,11.7 1.5,0 2.9,-0.3 4.3,-0.8 -0.1,0.7 -0.2,1.5 -0.2,2.2 0,6.9 5.6,12.6 12.6,12.6 1.6,0 3.2,-0.3 4.6,-0.9 0,0.3 0,0.5 0,0.8 0,6.9 5.6,12.6 12.6,12.6 2.1,0 4.1,-0.5 5.8,-1.4 -0.6,1.5 -1,3.1 -1,4.8 0,5.4 3.4,9.9 8.1,11.7 -3.3,2.3 -5.5,6.1 -5.5,10.4 0,6.2 4.5,11.3 10.4,12.4 -1.2,1.9 -2,4.3 -2,6.7 0,6.2 4.5,11.3 10.3,12.3 -2.8,2.3 -4.7,5.8 -4.7,9.8 0,6.9 5.6,12.6 12.6,12.6 0.1,0 0.2,0 0.4,0 -1.2,1.9 -1.9,4.1 -1.9,6.6 0,3.6 1.5,6.8 3.9,9.1 -6.1,1.4 -10.7,7.2 -10.7,14 0,5.9 3.5,11 8.4,13.2 -4.3,2 -7.3,6.3 -7.3,11.4 0,3.7 1.7,7.1 4.3,9.4 -8.2,-0.7 -16.9,-0.7 -26.3,0 6.3,-3.1 10.9,-7.2 10.1,-11.8 z m -40.3,14.3 c -5.5,1 -10.4,1.6 -14.8,1.8 -11.4,0.7 -18.8,-0.5 -21.1,-2 l -0.3,-0.9 -2.3,-6.7 -1.5,-4.3 c 1.8,0.4 3.9,0.7 6.3,0.9 0.1,0 0.3,0 0.4,0 6.5,0.5 14.4,0 22.8,-1.1 1.8,-0.3 3.5,-0.5 5.3,-0.8 2.7,-0.5 5.4,-1.1 8,-1.7 7.4,-1.7 14.1,-3.9 19.4,-6.4 0.7,-0.3 1.4,-0.7 2.1,-1.1 2.2,-1.1 4.1,-2.3 5.6,-3.5 l 1.4,4.5 2.5,7.7 v 0.1 c -0.5,2.9 -12.5,9.7 -33.8,13.5 z m 74,-11.7 c 0,5.3 -4.3,9.6 -9.6,9.6 -5.3,0 -9.6,-4.3 -9.6,-9.6 0,-5.3 4.3,-9.6 9.6,-9.6 5.3,0 9.6,4.3 9.6,9.6 z m 1.1,-24.6 c 0,6.3 -4.8,11.3 -10.7,11.3 -5.9,0 -10.7,-5.1 -10.7,-11.3 0,-6.2 4.9,-11.4 10.8,-11.4 0.6,0 1.2,0.1 1.8,0.2 0.5,0.2 1,0.3 1.5,0.4 4.2,1.5 7.3,5.7 7.3,10.8 z m 4.6,-23.1 c 0,5.3 -4.3,9.6 -9.6,9.6 -0.6,0 -1.1,-0.1 -1.6,-0.1 -0.5,-0.2 -1,-0.3 -1.5,-0.4 -3.7,-1.3 -6.5,-4.8 -6.5,-9 0,-3.3 1.7,-6.2 4.2,-7.9 0.3,-0.2 0.7,-0.4 1,-0.6 1.3,-0.7 2.8,-1 4.3,-1 5.4,-0.2 9.7,4.1 9.7,9.4 z m -11.1,-19.1 c 0,3.3 -1.7,6.2 -4.2,7.9 -0.3,0.2 -0.7,0.4 -1,0.6 -1.3,0.7 -2.8,1 -4.3,1 -5.3,0 -9.6,-4.3 -9.6,-9.6 0,-5.3 4.3,-9.6 9.6,-9.6 5.2,0.1 9.5,4.4 9.5,9.7 z m -5.6,-22.1 c 0,5.3 -4.3,9.6 -9.6,9.6 -5.3,0 -9.6,-4.3 -9.6,-9.6 0,-2.6 1,-4.9 2.7,-6.6 2.5,-0.3 4.7,-1.3 6.5,-2.9 0.1,0 0.2,0 0.3,0 5.4,-0.1 9.7,4.2 9.7,9.5 z m -8.5,-19.1 c 0,2.6 -1,4.9 -2.7,6.6 -2.5,0.3 -4.7,1.3 -6.5,2.9 -0.1,0 -0.2,0 -0.3,0 -5.3,0 -9.6,-4.3 -9.6,-9.6 0,-5.3 4.3,-9.6 9.6,-9.6 5.3,0 9.5,4.4 9.5,9.7 z M 235.5,74 c 0,5.3 -4.3,9.6 -9.6,9.6 -5.3,0 -9.6,-4.3 -9.6,-9.6 0,-5.3 4.3,-9.6 9.6,-9.6 5.3,0 9.6,4.3 9.6,9.6 z M 208.6,48.5 c 5.3,0 9.6,4.3 9.6,9.6 0,5.3 -4.3,9.6 -9.6,9.6 -5.3,0 -9.6,-4.3 -9.6,-9.6 0,-1 0.1,-1.9 0.4,-2.8 1.6,-1.3 2.9,-3.1 3.7,-5.1 1.6,-1 3.5,-1.7 5.5,-1.7 z M 191.5,36.1 c 5.3,0 9.6,4.3 9.6,9.6 0,1 -0.1,1.9 -0.4,2.8 -1.6,1.3 -2.9,3.1 -3.7,5.1 -1.5,1.1 -3.4,1.7 -5.4,1.7 -5.3,0 -9.6,-4.3 -9.6,-9.6 0,-1.6 0.4,-3.2 1.2,-4.6 1,-0.8 1.8,-1.8 2.5,-2.9 1.5,-1.4 3.5,-2.1 5.8,-2.1 z m -16.6,-14 c 5.3,0 9.6,4.3 9.6,9.6 0,1.6 -0.4,3.2 -1.2,4.6 -1,0.8 -1.8,1.8 -2.5,2.9 -1.6,1.3 -3.7,2.1 -5.9,2.1 -5.3,0 -9.6,-4.3 -9.6,-9.6 0,-0.8 0.1,-1.5 0.3,-2.3 0.8,-1.1 1.4,-2.3 1.8,-3.7 1.7,-2.2 4.4,-3.6 7.5,-3.6 z m -19.5,-9.6 c 5.3,0 9.6,4.3 9.6,9.6 0,0.8 -0.1,1.5 -0.3,2.3 -0.8,1.1 -1.4,2.3 -1.8,3.7 -1.8,2.2 -4.4,3.6 -7.5,3.6 -5.3,0 -9.6,-4.3 -9.6,-9.6 0,-5.3 4.3,-9.6 9.6,-9.6 z M 133.3,9.9 c 5.3,0 9.6,4.3 9.6,9.6 0,5.3 -4.3,9.6 -9.6,9.6 -5.3,0 -9.6,-4.3 -9.6,-9.6 0,-5.3 4.3,-9.6 9.6,-9.6 z M 111.2,3.2 c 5.3,0 9.6,4.3 9.6,9.6 0,5.3 -4.3,9.6 -9.6,9.6 -5.3,0 -9.6,-4.3 -9.6,-9.6 0,-5.3 4.3,-9.6 9.6,-9.6 z M 89.1,4.6 c 5.3,0 9.6,4.3 9.6,9.6 0,5.3 -4.3,9.6 -9.6,9.6 -5.3,0 -9.6,-4.3 -9.6,-9.6 0,-5.3 4.3,-9.6 9.6,-9.6 z m -22.2,4 c 5.3,0 9.6,4.3 9.6,9.6 0,5.3 -4.3,9.6 -9.6,9.6 -3.1,0 -5.9,-1.5 -7.6,-3.8 -0.4,-1.1 -0.9,-2.2 -1.6,-3.1 -0.2,-0.8 -0.4,-1.7 -0.4,-2.6 0.1,-5.5 4.4,-9.7 9.6,-9.7 z m -19.5,9.7 c 3.1,0 5.9,1.5 7.6,3.8 0.4,1.1 0.9,2.2 1.6,3.1 0.2,0.8 0.4,1.7 0.4,2.6 0,5.3 -4.3,9.6 -9.6,9.6 -5.3,0 -9.6,-4.3 -9.6,-9.6 0,-5.3 4.4,-9.5 9.6,-9.5 z m -23,27.3 c 0,-5.3 4.3,-9.6 9.6,-9.6 5.3,0 9.6,4.3 9.6,9.6 0,5.3 -4.3,9.6 -9.6,9.6 -5.3,0 -9.6,-4.3 -9.6,-9.6 z m 8.2,12.7 c 5.3,0 9.6,4.3 9.6,9.6 0,5.3 -4.3,9.6 -9.6,9.6 -5.3,0 -9.6,-4.3 -9.6,-9.6 0,-5.3 4.3,-9.6 9.6,-9.6 z M 21.5,77.8 c 5.3,0 9.6,4.3 9.6,9.6 0,5.3 -4.3,9.6 -9.6,9.6 -5.3,0 -9.6,-4.3 -9.6,-9.6 0,-5.3 4.4,-9.6 9.6,-9.6 z m -18,30.6 c 0,-5.3 4.3,-9.6 9.6,-9.6 5.3,0 9.6,4.3 9.6,9.6 0,3.1 -1.5,5.9 -3.8,7.6 -2.2,0.1 -4.3,0.8 -6.1,1.9 -5.2,-0.2 -9.3,-4.4 -9.3,-9.5 z m 6.2,20.2 c 0,-3.1 1.5,-5.9 3.8,-7.6 2.2,-0.1 4.3,-0.8 6.1,-1.9 5.1,0.2 9.2,4.4 9.2,9.5 0,5.3 -4.3,9.6 -9.6,9.6 -5.2,-0.1 -9.5,-4.4 -9.5,-9.6 z m 0,22.5 c 0,-5.3 4.3,-9.6 9.6,-9.6 5.3,0 9.6,4.3 9.6,9.6 0,5.3 -4.3,9.6 -9.6,9.6 -5.3,-0.1 -9.6,-4.4 -9.6,-9.6 z m 11.1,20.1 c 0,-5.3 4.3,-9.6 9.6,-9.6 5.3,0 9.6,4.3 9.6,9.6 0,3.2 -1.6,6.1 -4,7.8 -0.5,0.3 -1,0.6 -1.5,0.9 -1.2,0.6 -2.6,0.9 -4,0.9 -5.4,-0.1 -9.7,-4.4 -9.7,-9.6 z m 20.6,28.6 c -5.3,0 -9.6,-4.3 -9.6,-9.6 0,-3.2 1.6,-6.1 4,-7.8 0.5,-0.3 1,-0.6 1.5,-0.9 1.2,-0.6 2.6,-0.9 4,-0.9 5.3,0 9.6,4.3 9.6,9.6 0,5.3 -4.2,9.6 -9.5,9.6 z m 11.1,-0.4 c 0,-5.3 4.3,-9.6 9.6,-9.6 5.3,0 9.6,4.3 9.6,9.6 0,5.3 -4.3,9.6 -9.6,9.6 -5.3,0 -9.6,-4.3 -9.6,-9.6 z M 68.6,216 c 0,-5.3 4.3,-9.6 9.6,-9.6 5.3,0 9.6,4.3 9.6,9.6 0,5.3 -4.3,9.6 -9.6,9.6 -5.3,0 -9.6,-4.4 -9.6,-9.6 z m 19.1,11.9 c 0,-5.3 4.3,-9.6 9.6,-9.6 5.3,0 9.6,4.3 9.6,9.6 0,5.3 -4.3,9.6 -9.6,9.6 -5.3,0 -9.6,-4.4 -9.6,-9.6 z m 14.8,17 c 0,-5.3 4.3,-9.6 9.6,-9.6 5.3,0 9.6,4.3 9.6,9.6 0,5.3 -4.3,9.6 -9.6,9.6 -5.3,0 -9.6,-4.4 -9.6,-9.6 z m -5,86.8 c 3.4,-61 55.7,-107.9 116.7,-104.6 23.6,1.3 45.1,10 62.4,23.6 l -56.5,62 v 0 l -17.4,-38.8 -4.9,42.1 -12.6,1.9 1.7,11.4 -44,17 -4,-3.1 -0.9,-5.9 -5.6,0.8 -4.6,-3.6 -3.9,4.9 -5.5,0.8 0.8,5.2 -3.6,4.6 4.9,3.9 0.9,5.9 5.6,-0.8 4.2,3.3 3.5,-4.5 6.3,-0.9 -0.9,-5.9 3,-3.9 47.1,4.6 -45.2,76.9 C 114.4,407.5 95.3,371.5 97.5,331.7 Z M 253.7,283 234,316 l -0.8,-5.3 -5.5,0.8 z m -55.6,82.2 -29.6,32.9 22.8,-38.8 1,6.8 z m 3.9,83.2 c -20.6,-1.1 -39.6,-7.9 -55.6,-18.6 l 58.6,-65.1 17.5,34.8 3.5,-38.5 14.5,-2.2 -2.1,-14 34.4,-15.9 -37.5,-4.6 -0.1,-0.9 42.8,-71.6 c 26.6,21.6 42.8,55.3 40.8,92 -3.4,61.1 -55.8,108 -116.8,104.6 z m 102.3,-26.8 c -6.6,5.9 -14,11 -22,15.1 28.2,-21.2 47.3,-54.2 49.3,-92.1 2.4,-43.9 -18.5,-83.8 -51.9,-107.6 8.2,3.9 15.9,8.9 22.8,14.8 22.5,19.3 36.1,48 37.2,78.7 1.3,37.2 -11.3,69.6 -35.4,91.1 z m -98.1,-152.1 -3.5,4.5 -4.2,-3.3 -5.6,0.8 -0.9,-5.9 -4.9,-3.9 3.6,-4.6 -0.8,-5.2 5.5,-0.8 3.9,-4.9 4.6,3.6 5.6,-0.8 0.9,5.9 4.5,3.5 -3.3,4.2 0.9,5.9 z m 71.5,63.3 -4.9,-3.9 3.6,-4.6 -0.8,-5.2 5.5,-0.8 3.9,-4.9 4.6,3.6 5.6,-0.8 0.9,5.9 4.5,3.5 -3.3,4.2 0.9,5.9 -6.3,0.9 -3.5,4.5 -4.2,-3.3 -5.6,0.8 z m -59.1,71.7 3.9,-4.9 4.6,3.6 5.6,-0.8 0.9,5.9 4.5,3.5 -3.3,4.2 0.9,5.9 -6.3,0.9 -3.5,4.5 -4.2,-3.3 -5.6,0.8 -0.9,-5.9 -4.9,-3.9 3.6,-4.6 -0.8,-5.2 z"
     id="path4"
     inkscape:connector-curvature="0"
     style="fill:#020202" /><path
     style="fill:#ffcc00;fill-opacity:1;stroke:none;stroke-width:0.75066209;stroke-opacity:1"
     d="m 138.98093,423.43058 c -20.10717,-16.02287 -34.24347,-39.39666 -39.47936,-65.27753 -1.88328,-9.30898 -1.85047,-31.7989 0.0594,-40.73835 4.66763,-21.84727 14.04028,-40.12126 28.23571,-55.0516 16.70519,-17.57002 36.4879,-28.44729 60.5294,-33.28131 9.32615,-1.87521 30.30684,-1.86666 39.69051,0.0162 9.69179,1.94466 21.50075,5.92621 29.14421,9.82638 6.8993,3.52044 18.52283,10.87519 18.52283,11.72024 0,0.69023 -54.82261,60.76971 -55.42735,60.74221 -0.51939,-0.0237 -16.65313,-35.91152 -16.64238,-37.01929 0.004,-0.34913 0.69063,-1.59601 1.52718,-2.77084 1.12244,-1.57632 2.2535,-2.19681 4.31631,-2.36787 2.79207,-0.23154 2.7953,-0.23583 2.7953,-3.7179 0,-2.26639 0.45962,-3.99423 1.31366,-4.93842 1.75115,-1.93598 1.68635,-2.24341 -0.93833,-4.45193 -1.31533,-1.10678 -2.25199,-2.62218 -2.25199,-3.64346 0,-3.25356 -0.58681,-3.77182 -3.96636,-3.50304 -2.493,0.19828 -3.5066,-0.0895 -4.61025,-1.30905 -1.8618,-2.05725 -2.08521,-2.01118 -5.1605,1.06412 -1.84923,1.84922 -3.30251,2.62732 -4.90718,2.62732 -2.19406,0 -2.26352,0.10067 -1.84577,2.67495 0.32927,2.02905 0.046,3.19989 -1.17319,4.84891 -2.07894,2.81191 -2.03861,3.13483 0.63873,5.11427 1.6139,1.19321 2.3841,2.52419 2.73671,4.72931 l 0.49072,3.06876 2.92888,-0.39284 c 2.3119,-0.31009 3.33812,-0.0408 4.87161,1.27823 l 1.94275,1.67108 -2.36467,20.21913 c -1.30057,11.12053 -2.35973,20.4376 -2.3537,20.7046 0.006,0.267 -2.89056,0.89734 -6.43687,1.40074 l -6.44783,0.91526 0.40465,2.35259 c 0.22256,1.29391 0.61755,3.88106 0.87776,5.74921 l 0.47311,3.39665 -18.26345,7.03006 c -10.0449,3.86652 -19.84181,7.6431 -21.77093,8.3924 -3.41785,1.32754 -3.55437,1.32546 -5.34252,-0.0811 -1.17526,-0.92446 -2.01266,-2.55422 -2.32906,-4.53288 l -0.49402,-3.08943 -2.83135,0.47835 c -2.21065,0.37349 -3.26098,0.14041 -4.79113,-1.0632 -2.58421,-2.03274 -3.25153,-1.9516 -5.15813,0.62722 -1.12407,1.52038 -2.50111,2.31232 -4.60594,2.6489 -2.96033,0.47337 -2.99561,0.51677 -2.51282,3.09026 0.39366,2.0984 0.12149,3.09284 -1.38821,5.07215 l -1.87787,2.46202 2.52368,2.01368 c 1.82113,1.45312 2.66594,2.85577 3.03473,5.03857 l 0.51104,3.02487 2.9687,-0.47471 c 2.47949,-0.39648 3.28278,-0.17974 4.87467,1.3153 l 1.90598,1.79 2.18033,-2.43965 c 1.19918,-1.34181 2.77624,-2.44426 3.50457,-2.4499 0.72833,-0.006 2.09852,-0.21766 3.04486,-0.47115 1.53571,-0.41138 1.67581,-0.79344 1.30368,-3.5554 -0.32212,-2.39083 -0.0867,-3.48087 1.03529,-4.79368 l 1.45221,-1.69918 22.70902,2.26715 c 12.48997,1.24693 22.81321,2.37132 22.94053,2.49866 0.25319,0.25318 -42.98687,74.06966 -43.9668,75.05713 -0.33168,0.33423 -3.09954,-1.38168 -6.15079,-3.81315 z"
     id="path816"
     inkscape:connector-curvature="0" /><path
     style="fill:#ffcc00;fill-opacity:1;stroke:none;stroke-width:0.75066209;stroke-opacity:1"
     d="m 194.98749,447.57043 c -6.6174,-0.96949 -17.85944,-3.67618 -23.55615,-5.67149 -6.72664,-2.35605 -22.04079,-9.91977 -23.39978,-11.55725 -0.58216,-0.70147 6.28742,-8.80178 27.11571,-31.97372 15.34247,-17.06884 28.338,-31.50375 28.87895,-32.0776 0.82209,-0.87208 2.34828,1.68393 9.29667,15.56971 4.5722,9.13719 8.3131,16.98498 8.3131,17.43952 0,1.988 -3.21633,4.82963 -5.87651,5.1919 -2.70649,0.36857 -2.75184,0.42987 -2.51959,3.4051 0.18008,2.30701 -0.13329,3.36443 -1.31366,4.43265 -2.10432,1.90439 -1.95068,3.08112 0.65367,5.0066 1.5133,1.11883 2.35721,2.53713 2.6933,4.52645 0.47289,2.79899 0.59131,2.89708 3.49791,2.89708 1.81049,0 3.85247,0.60099 5.12803,1.50927 l 2.11957,1.50926 1.81135,-2.31447 c 1.3559,-1.73251 2.61774,-2.42262 5.01838,-2.74462 l 3.20704,-0.43015 -0.47041,-2.94174 c -0.3726,-2.33011 -0.12594,-3.42547 1.18631,-5.26837 l 1.65671,-2.32663 -2.39075,-1.9959 c -1.47016,-1.22734 -2.39518,-2.69747 -2.40225,-3.81788 -0.0191,-3.01723 -1.06114,-3.96464 -3.86112,-3.51027 -1.91944,0.31148 -3.04207,-0.006 -4.70147,-1.32902 l -2.17992,-1.73821 1.62713,-17.89012 c 0.89492,-9.83956 1.62558,-18.41665 1.62369,-19.06019 -0.003,-0.90555 1.56643,-1.39067 6.94019,-2.1457 3.81899,-0.53658 7.13838,-1.09162 7.3764,-1.23339 0.23803,-0.14178 -0.0468,-3.33909 -0.6329,-7.10513 -0.58612,-3.76604 -0.94977,-6.92927 -0.80811,-7.0294 0.14167,-0.10013 7.7709,-3.63425 16.95387,-7.8536 l 16.6963,-7.67155 2.28386,1.68854 c 2.13499,1.57847 2.57882,2.45696 3.14842,6.23188 0.18742,1.24209 0.72063,1.45023 3.24764,1.26778 2.18799,-0.15798 3.58649,0.22463 5.06121,1.38463 l 2.03779,1.60293 1.94355,-2.30979 c 1.34166,-1.59446 2.87867,-2.45932 4.96301,-2.79261 l 3.01944,-0.48284 -0.36503,-3.23855 c -0.28457,-2.5247 -0.0552,-3.51897 1.04072,-4.51073 1.91288,-1.73113 1.76769,-2.89782 -0.59156,-4.75361 -1.25248,-0.9852 -2.17389,-2.61513 -2.47083,-4.37079 -0.45656,-2.69931 -0.57583,-2.79349 -3.32636,-2.62649 -2.07879,0.12622 -3.52874,-0.34233 -5.344,-1.72689 l -2.49118,-1.90011 -1.96189,2.57218 c -1.41225,1.85155 -2.7515,2.69844 -4.78028,3.02285 -2.73683,0.43764 -2.81135,0.53264 -2.57524,3.28336 0.18052,2.10321 -0.20055,3.35635 -1.4798,4.8662 l -1.72294,2.03353 -17.26523,-2.21594 c -9.49587,-1.21877 -17.72361,-2.2183 -18.28386,-2.22119 -0.64857,-0.003 -0.84122,-0.46761 -0.53028,-1.27792 0.80208,-2.09016 40.29141,-68.06792 41.47154,-69.28957 0.95955,-0.99331 2.03449,-0.15296 9.1221,7.13129 20.01125,20.56645 30.32396,44.47426 31.40865,72.81422 1.21383,31.71376 -9.97652,60.02614 -32.58205,82.43493 -8.75919,8.68295 -18.02536,15.27844 -29.10477,20.71625 -16.57869,8.13686 -26.76975,10.57074 -45.79039,10.93587 -7.43155,0.14266 -14.52531,0.11091 -15.7639,-0.0706 z"
     id="path818"
     inkscape:connector-curvature="0" /><path
     style="fill:#ffcc00;fill-opacity:1;stroke:none;stroke-width:0.75066209;stroke-opacity:1"
     d="m 296.79791,424.19638 c 23.05653,-23.76419 35.17535,-53.61945 35.18329,-86.67566 0.008,-33.01714 -12.77536,-63.59472 -36.5687,-87.47214 -4.63155,-4.64792 -8.24762,-8.45075 -8.03572,-8.45075 0.2119,0 2.98795,1.7368 6.16901,3.85956 7.29359,4.86711 21.89673,19.52818 26.81123,26.91758 8.16998,12.28431 14.4079,27.53236 17.35076,42.41241 1.6391,8.28784 1.8689,31.41059 0.40286,40.53575 -3.99736,24.88086 -14.03793,45.81634 -29.37213,61.24353 -6.28828,6.32642 -16.01202,14.19801 -17.53874,14.19801 -0.426,0 2.09316,-2.95573 5.59814,-6.56829 z"
     id="path820"
     inkscape:connector-curvature="0" /><path
     style="fill:#ff0000;fill-opacity:1;stroke:none;stroke-width:0.75066209;stroke-opacity:1"
     d="m 172.84296,392.13581 c 0,-0.88397 17.30047,-30.36523 18.11441,-30.86827 0.35868,-0.22167 0.65214,0.77778 0.65214,2.22101 0,2.40532 0.20115,2.64367 2.41307,2.85929 l 2.41306,0.23522 -11.14405,12.38593 c -6.12923,6.81226 -11.43759,12.70683 -11.79635,13.09905 -0.35875,0.39222 -0.65228,0.42272 -0.65228,0.0678 z"
     id="path822"
     inkscape:connector-curvature="0" /><path
     style="fill:#ff0000;fill-opacity:1;stroke:none;stroke-width:0.75066209;stroke-opacity:1"
     d="m 233.64659,312.20762 c 0,-1.04886 -0.60511,-1.51927 -2.17261,-1.68899 -2.10736,-0.22816 -1.87848,-0.55679 7.62115,-10.94274 5.38656,-5.88914 9.92204,-10.57923 10.07884,-10.42242 0.45,0.44999 -14.15591,24.50792 -14.87911,24.50792 -0.35655,0 -0.64827,-0.6542 -0.64827,-1.45377 z"
     id="path824"
     inkscape:connector-curvature="0" /><path
     style="fill:#ffcc00;fill-opacity:1;stroke:none;stroke-width:0.75066209;stroke-opacity:1"
     d="m 153.02299,216.83732 c -4.47129,-0.81448 -5.15845,-1.49339 -6.84943,-6.7673 -0.72808,-2.27075 -1.44596,-4.46644 -1.5953,-4.8793 -0.17432,-0.48192 4.76934,-0.77469 13.80892,-0.81778 12.1779,-0.0581 15.36791,-0.33641 23.60878,-2.06004 11.04713,-2.31058 22.25991,-6.13288 27.5629,-9.39584 l 3.7113,-2.28359 1.96127,5.7773 1.96127,5.7773 -2.7695,2.42822 c -4.51509,3.9587 -17.65508,8.4368 -32.57904,11.10291 -7.84554,1.40158 -23.85534,2.02268 -28.82117,1.11812 z"
     id="path828"
     inkscape:connector-curvature="0" /></svg>