<?xml version="1.0" encoding="UTF-8" standalone="no"?>
<svg
   xmlns:dc="http://purl.org/dc/elements/1.1/"
   xmlns:cc="http://creativecommons.org/ns#"
   xmlns:rdf="http://www.w3.org/1999/02/22-rdf-syntax-ns#"
   xmlns:svg="http://www.w3.org/2000/svg"
   xmlns="http://www.w3.org/2000/svg"
   xmlns:sodipodi="http://sodipodi.sourceforge.net/DTD/sodipodi-0.dtd"
   xmlns:inkscape="http://www.inkscape.org/namespaces/inkscape"
   version="1.1"
   x="0px"
   y="0px"
   viewBox="0 0 48 28.9"
   enable-background="new 0 0 49 49"
   xml:space="preserve"
   id="svg8"
   sodipodi:docname="Tent.svg"
   inkscape:version="0.92.2 (5c3e80d, 2017-08-06)"
   width="48"
   height="28.9"><metadata
     id="metadata14"><rdf:RDF><cc:Work
         rdf:about=""><dc:format>image/svg+xml</dc:format><dc:type
           rdf:resource="http://purl.org/dc/dcmitype/StillImage" /></cc:Work></rdf:RDF></metadata><defs
     id="defs12" /><sodipodi:namedview
     pagecolor="#ffffff"
     bordercolor="#666666"
     borderopacity="1"
     objecttolerance="10"
     gridtolerance="10"
     guidetolerance="10"
     inkscape:pageopacity="0"
     inkscape:pageshadow="2"
     inkscape:window-width="1366"
     inkscape:window-height="705"
     id="namedview10"
     showgrid="false"
     inkscape:zoom="5.4490515"
     inkscape:cx="-38.592392"
     inkscape:cy="7.342463"
     inkscape:window-x="-8"
     inkscape:window-y="-8"
     inkscape:window-maximized="1"
     inkscape:current-layer="svg8" /><path
     d="M 47.7,27.1 C 36.3,15.8 34.3,1 34.3,0.9 34.2,0.4 33.8,0 33.3,0 H 14.7 c -0.5,0 -0.9,0.4 -1,0.9 0,0.1 -2,14.9 -13.4,26.3 -0.4,0.4 -0.4,1 0,1.4 0.4,0.4 1,0.4 1.4,0 1.3,-1.3 2.5,-2.6 3.6,-4 v 3.3 c 0,0.6 0.4,1 1,1 h 35.4 c 0.6,0 1,-0.4 1,-1 v -3.3 c 1.1,1.3 2.3,2.7 3.6,4 0.2,0.2 0.4,0.3 0.7,0.3 0.3,0 0.5,-0.1 0.7,-0.3 0.4,-0.5 0.4,-1.1 0,-1.5 z M 7.3,21.8 C 10.9,16.6 13,11.5 14.2,7.6 V 26.8 H 7.3 Z m 8.9,5 V 8.7 c 1.4,3.7 3.5,8.6 6.8,13.2 v 4.9 z m 24.5,0 H 25 V 22.6 H 40.7 Z M 24.5,20.6 C 18.9,12.7 16.7,4 16.2,2 h 16.2 c 0.4,2.6 2.2,10.5 7.4,18.6 z"
     id="path2"
     style="fill:#c87137"
     inkscape:connector-curvature="0" /><path
     style="fill:#deaa87;fill-opacity:1;stroke:none;stroke-width:0.18351817;stroke-opacity:1"
     d="M 23.416354,18.827503 C 22.10939,16.798445 20.610177,13.976996 19.503682,11.464037 18.745131,9.741293 16.706043,3.91086 16.406894,2.609285 l -0.115992,-0.504675 8.032417,1.02e-4 8.032416,1.03e-4 0.328867,1.65796 c 0.946178,4.770099 3.953897,12.102229 6.656395,16.226762 l 0.305919,0.466891 -7.591231,-8.75e-4 -7.591231,-8.78e-4 z"
     id="path823"
     inkscape:connector-curvature="0" /><path
     style="fill:#deaa87;fill-opacity:1;stroke:none;stroke-width:0.18351817;stroke-opacity:1"
     d="m 25.106767,24.677346 v -2.0187 h 7.799523 7.799522 v 2.0187 2.0187 H 32.90629 25.106767 Z"
     id="path825"
     inkscape:connector-curvature="0" /><path
     style="fill:#ffff00;fill-opacity:1;stroke:none;stroke-width:0.18351817;stroke-opacity:1"
     d="M 7.305504,24.320741 V 21.945436 L 8.4198233,20.237462 C 9.783464,18.14734 12.368771,12.971568 13.352171,10.362928 l 0.726414,-1.926941 0.0085,9.13003 0.0085,9.130029 H 10.70059 7.305504 Z"
     id="path831"
     inkscape:connector-curvature="0" /><path
     style="fill:#ffff00;fill-opacity:1;stroke:none;stroke-width:0.18351817;stroke-opacity:1"
     d="m 16.297895,18.040105 c 0,-4.760767 0.02945,-8.621531 0.06544,-8.579475 0.03599,0.04206 0.588117,1.303396 1.226943,2.802976 1.23322,2.894861 2.7013,5.66325 4.323683,8.153257 l 0.990588,1.52034 v 2.379422 2.379421 h -3.303327 -3.303327 z"
     id="path833"
     inkscape:connector-curvature="0" /></svg>