<svg xmlns="http://www.w3.org/2000/svg" xmlns:xlink="http://www.w3.org/1999/xlink" version="1.1" x="0px" y="0px" viewBox="0 0 512 640" style="enable-background:new 0 0 512 512;" xml:space="preserve"><g><g><g><path d="M496,365.7H384.4c-3.3,0-6-2.7-6-6s2.7-6,6-6h99.3l-69.5-89.3c-1.4-1.8-1.7-4.3-0.7-6.3c1-2.1,3.1-3.4,5.4-3.4h29.6     l-50-74L371.7,141c-1.2-1.8-1.4-4.2-0.3-6.2c1-2,3.1-3.2,5.3-3.2h25.7l-55.2-95.1l-48.1,82.9c-1.7,2.9-5.3,3.8-8.2,2.2     c-2.9-1.7-3.8-5.3-2.2-8.2l53.2-91.8c1.1-1.9,3.1-3,5.2-3s4.1,1.1,5.2,3L418,134.6c1.1,1.9,1.1,4.1,0,6s-3.1,3-5.2,3H388     l20.5,30.4l56.3,83.3c1.2,1.8,1.4,4.2,0.3,6.2s-3.1,3.2-5.3,3.2h-28.6l69.5,89.3c1.4,1.8,1.7,4.3,0.7,6.3     C500.4,364.4,498.3,365.7,496,365.7z"/></g><g><path d="M124.7,369.3H16.9c-2.3,0-4.4-1.3-5.4-3.4c-1-2.1-0.8-4.5,0.7-6.3l69.5-89.3H53.1c-2.2,0-4.3-1.2-5.3-3.2     c-1-2-0.9-4.3,0.3-6.2l76.8-113.7h-24.8c-2.1,0-4.1-1.1-5.2-3c-1.1-1.9-1.1-4.1,0-6L160.5,25c1.1-1.9,3.1-3,5.2-3s4.1,1.1,5.2,3     l51.7,89.1c1.7,2.9,0.7,6.5-2.2,8.2c-2.9,1.7-6.5,0.7-8.2-2.2L165.7,40l-55.2,95.1h25.7c2.2,0,4.3,1.2,5.3,3.2s0.9,4.3-0.3,6.2     L64.4,258.2H94c2.3,0,4.4,1.3,5.4,3.4c1,2.1,0.8,4.5-0.7,6.3l-69.5,89.3h95.5c3.3,0,6,2.7,6,6S128,369.3,124.7,369.3z"/></g><g><path d="M404.7,391.8H107.2c-2.3,0-4.4-1.3-5.4-3.4c-1-2.1-0.8-4.5,0.7-6.3l69.5-89.3h-28.6c-2.2,0-4.3-1.2-5.3-3.2     c-1-2-0.9-4.3,0.3-6.2l76.8-113.7h-24.8c-2.1,0-4.1-1.1-5.2-3c-1.1-1.9-1.1-4.1,0-6l32.8-56.5l32.8-56.6c1.1-1.9,3.1-3,5.2-3     c2.1,0,4.1,1.1,5.2,3l32.8,56.6l32.6,56.2c0.7,1,1.1,2.1,1.1,3.4c0,3.3-2.7,6-6,6c0,0,0,0,0,0h-24.8l76.6,113.3     c0.8,1,1.3,2.3,1.3,3.7c0,3.3-2.7,6-6,6c0,0,0,0,0,0h-28.6l69.5,89.3c1.4,1.8,1.7,4.3,0.7,6.3S407,391.8,404.7,391.8z      M119.4,379.8h273l-69.5-89.3c-1.4-1.8-1.7-4.3-0.7-6.3c1-2.1,3.1-3.4,5.4-3.4h29.6l-76.8-113.7c-1.2-1.8-1.4-4.2-0.3-6.2     s3.1-3.2,5.3-3.2h25.7l-27.6-47.5l-27.6-47.6l-27.6,47.6l-27.6,47.5h25.7c2.2,0,4.3,1.2,5.3,3.2c1,2,0.9,4.3-0.3,6.2l-76.8,113.7     h29.6c2.3,0,4.4,1.3,5.4,3.4c1,2.1,0.8,4.5-0.7,6.3L119.4,379.8z"/></g><g><path d="M277.8,494.4H234c-3.3,0-6-2.7-6-6V385.8c0-3.3,2.7-6,6-6h43.8c3.3,0,6,2.7,6,6v102.6     C283.8,491.7,281.1,494.4,277.8,494.4z M240,482.4h31.8v-90.6H240V482.4z"/></g><g><path d="M369.1,468.3h-43.8c-3.3,0-6-2.7-6-6v-76.5c0-3.3,2.7-6,6-6h43.8c3.3,0,6,2.7,6,6v76.5     C375.1,465.6,372.4,468.3,369.1,468.3z M331.3,456.3h31.8v-64.5h-31.8V456.3z"/></g><g><path d="M187.6,471.8h-43.8c-3.3,0-6-2.7-6-6v-80c0-3.3,2.7-6,6-6h43.8c3.3,0,6,2.7,6,6v80C193.6,469.1,190.9,471.8,187.6,471.8z      M149.8,459.8h31.8v-68h-31.8V459.8z"/></g></g></g><text x="0" y="527" fill="#000000" font-size="5px" font-weight="bold" font-family="'Helvetica Neue', Helvetica, Arial-Unicode, Arial, Sans-serif">Created by ibrandify</text><text x="0" y="532" fill="#000000" font-size="5px" font-weight="bold" font-family="'Helvetica Neue', Helvetica, Arial-Unicode, Arial, Sans-serif">from the Noun Project</text></svg>